%TF.GenerationSoftware,KiCad,Pcbnew,10.0.4*%
%TF.CreationDate,2026-08-08T20:58:43+01:00*%
%TF.ProjectId,central_gateway,63656e74-7261-46c5-9f67-617465776179,rev?*%
%TF.SameCoordinates,Original*%
%TF.FileFunction,Copper,L3,Inr*%
%TF.FilePolarity,Positive*%
%FSLAX46Y46*%
G04 Gerber Fmt 4.6, Leading zero omitted, Abs format (unit mm)*
G04 Created by KiCad (PCBNEW 10.0.4) date 2026-08-08 20:58:43*
%MOMM*%
%LPD*%
G01*
G04 APERTURE LIST*
G04 Aperture macros list*
%AMRoundRect*
0 Rectangle with rounded corners*
0 $1 Rounding radius*
0 $2 $3 $4 $5 $6 $7 $8 $9 X,Y pos of 4 corners*
0 Add a 4 corners polygon primitive as box body*
4,1,4,$2,$3,$4,$5,$6,$7,$8,$9,$2,$3,0*
0 Add four circle primitives for the rounded corners*
1,1,$1+$1,$2,$3*
1,1,$1+$1,$4,$5*
1,1,$1+$1,$6,$7*
1,1,$1+$1,$8,$9*
0 Add four rect primitives between the rounded corners*
20,1,$1+$1,$2,$3,$4,$5,0*
20,1,$1+$1,$4,$5,$6,$7,0*
20,1,$1+$1,$6,$7,$8,$9,0*
20,1,$1+$1,$8,$9,$2,$3,0*%
G04 Aperture macros list end*
%TA.AperFunction,ComponentPad*%
%ADD10C,2.200000*%
%TD*%
%TA.AperFunction,ComponentPad*%
%ADD11C,2.800000*%
%TD*%
%TA.AperFunction,ComponentPad*%
%ADD12RoundRect,0.640000X-0.960000X-0.960000X0.960000X-0.960000X0.960000X0.960000X-0.960000X0.960000X0*%
%TD*%
%TA.AperFunction,ComponentPad*%
%ADD13C,3.200000*%
%TD*%
%TA.AperFunction,ComponentPad*%
%ADD14RoundRect,0.340000X-0.510000X-0.510000X0.510000X-0.510000X0.510000X0.510000X-0.510000X0.510000X0*%
%TD*%
%TA.AperFunction,ComponentPad*%
%ADD15C,1.700000*%
%TD*%
%TA.AperFunction,ComponentPad*%
%ADD16R,1.400000X1.400000*%
%TD*%
%TA.AperFunction,ComponentPad*%
%ADD17C,1.400000*%
%TD*%
%TA.AperFunction,ComponentPad*%
%ADD18RoundRect,0.360000X-0.540000X-0.540000X0.540000X-0.540000X0.540000X0.540000X-0.540000X0.540000X0*%
%TD*%
%TA.AperFunction,ComponentPad*%
%ADD19C,1.800000*%
%TD*%
%TA.AperFunction,ComponentPad*%
%ADD20RoundRect,0.440000X-0.660000X-0.660000X0.660000X-0.660000X0.660000X0.660000X-0.660000X0.660000X0*%
%TD*%
%TA.AperFunction,ViaPad*%
%ADD21C,0.600000*%
%TD*%
%TA.AperFunction,ViaPad*%
%ADD22C,0.900000*%
%TD*%
%TA.AperFunction,ViaPad*%
%ADD23C,0.800000*%
%TD*%
%TA.AperFunction,ViaPad*%
%ADD24C,1.000000*%
%TD*%
%TA.AperFunction,ViaPad*%
%ADD25C,1.200000*%
%TD*%
%TA.AperFunction,Conductor*%
%ADD26C,0.300000*%
%TD*%
%TA.AperFunction,Conductor*%
%ADD27C,0.450000*%
%TD*%
%TA.AperFunction,Conductor*%
%ADD28C,0.250000*%
%TD*%
G04 APERTURE END LIST*
D10*
%TO.N,LORA_ANT*%
%TO.C,J9*%
X145500000Y-56000000D03*
D11*
%TO.N,GND*%
X142960000Y-53460000D03*
X148040000Y-53460000D03*
X142960000Y-58540000D03*
X148040000Y-58540000D03*
%TD*%
D12*
%TO.N,VIN_RAW*%
%TO.C,J1*%
X138960000Y-31000000D03*
D13*
%TO.N,GND*%
X144040000Y-31000000D03*
%TD*%
D14*
%TO.N,N/C*%
%TO.C,U1*%
X40000000Y-34200000D03*
D15*
X40000000Y-36740000D03*
X40000000Y-39280000D03*
%TO.N,I2C_SDA_GPIO*%
X40000000Y-41820000D03*
%TO.N,I2C_SCL_GPIO*%
X40000000Y-44360000D03*
%TO.N,RAIN_GPIO*%
X40000000Y-46900000D03*
%TO.N,DHT_GPIO*%
X40000000Y-49440000D03*
%TO.N,N/C*%
X40000000Y-51980000D03*
X40000000Y-54520000D03*
X40000000Y-57060000D03*
%TO.N,LORA_NSS*%
X40000000Y-59600000D03*
%TO.N,BATT_ADC*%
X40000000Y-62140000D03*
%TO.N,WIND_GPIO*%
X40000000Y-64680000D03*
%TO.N,N/C*%
X40000000Y-67220000D03*
%TO.N,LDR_ADC*%
X40000000Y-69760000D03*
%TO.N,VANE_ADC*%
X40000000Y-72300000D03*
%TO.N,LORA_MOSI*%
X40000000Y-74840000D03*
%TO.N,LORA_SCK*%
X40000000Y-77380000D03*
%TO.N,LORA_MISO*%
X40000000Y-79920000D03*
%TO.N,LORA_RST*%
X40000000Y-82460000D03*
%TO.N,+5V*%
X40000000Y-85000000D03*
%TO.N,GND*%
X40000000Y-87540000D03*
X62860000Y-87540000D03*
X62860000Y-85000000D03*
%TO.N,N/C*%
X62860000Y-82460000D03*
X62860000Y-79920000D03*
X62860000Y-77380000D03*
X62860000Y-74840000D03*
X62860000Y-72300000D03*
X62860000Y-69760000D03*
%TO.N,SETUP_RESET*%
X62860000Y-67220000D03*
%TO.N,N/C*%
X62860000Y-64680000D03*
X62860000Y-62140000D03*
X62860000Y-59600000D03*
X62860000Y-57060000D03*
X62860000Y-54520000D03*
X62860000Y-51980000D03*
X62860000Y-49440000D03*
X62860000Y-46900000D03*
%TO.N,LORA_DIO0*%
X62860000Y-44360000D03*
%TO.N,N/C*%
X62860000Y-41820000D03*
%TO.N,UART_RX*%
X62860000Y-39280000D03*
%TO.N,UART_TX*%
X62860000Y-36740000D03*
%TO.N,GND*%
X62860000Y-34200000D03*
%TD*%
D16*
%TO.N,N/C*%
%TO.C,J2*%
X72450000Y-97840000D03*
D17*
X73470000Y-95300000D03*
%TO.N,GND*%
X74490000Y-97840000D03*
%TO.N,RAIN_RAW*%
X75510000Y-95300000D03*
%TO.N,N/C*%
X76530000Y-97840000D03*
X77550000Y-95300000D03*
%TD*%
D12*
%TO.N,LDR_RAW*%
%TO.C,J6*%
X145000000Y-77540000D03*
D13*
%TO.N,GND*%
X145000000Y-72460000D03*
%TD*%
D12*
%TO.N,+3V3_PERIPH*%
%TO.C,J5*%
X126380000Y-95000000D03*
D13*
%TO.N,I2C_SDA_RAW*%
X131460000Y-95000000D03*
%TO.N,I2C_SCL_RAW*%
X136540000Y-95000000D03*
%TO.N,GND*%
X141620000Y-95000000D03*
%TD*%
D10*
%TO.N,+5V*%
%TO.C,TP1*%
X58000000Y-92000000D03*
%TD*%
D16*
%TO.N,N/C*%
%TO.C,J3*%
X88450000Y-97840000D03*
D17*
%TO.N,VANE_RAW*%
X89470000Y-95300000D03*
%TO.N,GND*%
X90490000Y-97840000D03*
%TO.N,WIND_RAW*%
X91510000Y-95300000D03*
%TO.N,GND*%
X92530000Y-97840000D03*
%TO.N,N/C*%
X93550000Y-95300000D03*
%TD*%
D10*
%TO.N,GND*%
%TO.C,TP3*%
X52000000Y-92000000D03*
%TD*%
D12*
%TO.N,+3V3_PERIPH*%
%TO.C,J4*%
X102420000Y-95000000D03*
D13*
%TO.N,DHT_RAW*%
X107500000Y-95000000D03*
%TO.N,GND*%
X112580000Y-95000000D03*
%TD*%
D10*
%TO.N,LORA_DIO1*%
%TO.C,TP4*%
X113000000Y-44000000D03*
%TD*%
D18*
%TO.N,+3V3_PERIPH*%
%TO.C,J8*%
X80190000Y-30500000D03*
D19*
%TO.N,GND*%
X82730000Y-30500000D03*
%TO.N,UART_TX*%
X85270000Y-30500000D03*
%TO.N,UART_RX*%
X87810000Y-30500000D03*
%TD*%
D18*
%TO.N,SETUP_RESET*%
%TO.C,J10*%
X80750000Y-58000000D03*
D19*
%TO.N,GND*%
X83250000Y-58000000D03*
%TD*%
D20*
%TO.N,VIN_PROTECTED*%
%TO.C,U3*%
X122540000Y-31000000D03*
D10*
%TO.N,GND*%
X120000000Y-31000000D03*
%TO.N,+5V*%
X117460000Y-31000000D03*
%TD*%
%TO.N,+3V3_PERIPH*%
%TO.C,TP2*%
X63000000Y-96000000D03*
%TD*%
D12*
%TO.N,BATT_SENSE_RAW*%
%TO.C,J7*%
X133460000Y-51000000D03*
D13*
%TO.N,GND*%
X138540000Y-51000000D03*
%TD*%
D21*
%TO.N,RAIN_RAW*%
X73960000Y-80000000D03*
%TO.N,GND*%
X138000000Y-72750000D03*
X133500000Y-33900000D03*
X131000000Y-59460000D03*
X141000000Y-65750000D03*
X99000000Y-80750000D03*
X115000000Y-43250000D03*
X113500000Y-85250000D03*
X118800000Y-42000000D03*
D22*
X87000000Y-58000000D03*
D21*
X116000000Y-53250000D03*
X125000000Y-43250000D03*
X109525000Y-54000000D03*
X119000000Y-61960000D03*
X114000000Y-51250000D03*
X104000000Y-85250000D03*
X122000000Y-61960000D03*
X71000000Y-82750000D03*
X125000000Y-36600000D03*
X94475000Y-56000000D03*
X116000000Y-36600000D03*
X94475000Y-42000000D03*
X125500000Y-85250000D03*
X104750000Y-31000000D03*
%TO.N,+3V3_PERIPH*%
X110000000Y-67500000D03*
X126000000Y-75000000D03*
X80000000Y-89800000D03*
D23*
X129500000Y-75000000D03*
D24*
X129500000Y-89800000D03*
D21*
X127250000Y-64000000D03*
X76000000Y-81250000D03*
X77500000Y-89800000D03*
D24*
X129500000Y-41050000D03*
D21*
X80000000Y-80750000D03*
D23*
X110000000Y-89800000D03*
D21*
X127250000Y-66500000D03*
%TO.N,WIND_RAW*%
X99000000Y-83250000D03*
X84960000Y-77500000D03*
%TO.N,RAIN_GPIO*%
X70600000Y-48170000D03*
X70600000Y-80000000D03*
X71460000Y-80000000D03*
%TO.N,WIND_GPIO*%
X82460000Y-77500000D03*
X73000000Y-77500000D03*
X73000000Y-65950000D03*
%TO.N,I2C_SDA_GPIO*%
X114460000Y-70000000D03*
X69000000Y-70000000D03*
X69000000Y-43090000D03*
%TO.N,I2C_SCL_GPIO*%
X69800000Y-45630000D03*
X69800000Y-72500000D03*
X119540000Y-72500000D03*
%TO.N,DHT_GPIO*%
X71400000Y-50710000D03*
X98500000Y-75000000D03*
X71400000Y-75000000D03*
%TO.N,LORA_NSS*%
X64200000Y-60870000D03*
X94475000Y-50000000D03*
X64200000Y-49200000D03*
%TO.N,BATT_ADC*%
X72200000Y-59460000D03*
X124750000Y-59460000D03*
X72200000Y-63410000D03*
%TO.N,LDR_ADC*%
X73800000Y-71030000D03*
X73800000Y-66500000D03*
X124750000Y-66500000D03*
X130750000Y-66500000D03*
%TO.N,VANE_ADC*%
X74600000Y-73570000D03*
X124750000Y-64000000D03*
X74600000Y-64000000D03*
X130750000Y-64000000D03*
%TO.N,LORA_MOSI*%
X94475000Y-46000000D03*
X65000000Y-46500000D03*
X65000000Y-76110000D03*
%TO.N,LORA_SCK*%
X94475000Y-48000000D03*
X65800000Y-47300000D03*
X65800000Y-78650000D03*
%TO.N,LORA_MISO*%
X66600000Y-81190000D03*
X94475000Y-44000000D03*
X66600000Y-44500000D03*
%TO.N,LORA_RST*%
X67400000Y-83730000D03*
X67400000Y-52000000D03*
X94475000Y-52000000D03*
D25*
%TO.N,+5V*%
X35000000Y-85000000D03*
D23*
%TO.N,LORA_DIO0*%
X106000000Y-46000000D03*
%TO.N,UART_RX*%
X87810000Y-39280000D03*
%TO.N,UART_TX*%
X85270000Y-36740000D03*
D21*
%TO.N,VANE_RAW*%
X141000000Y-68250000D03*
X133250000Y-64000000D03*
%TO.N,LDR_RAW*%
X138000000Y-75250000D03*
X133250000Y-66500000D03*
%TO.N,I2C_SDA_RAW*%
X113500000Y-87750000D03*
X128000000Y-91000000D03*
X116960000Y-70000000D03*
%TO.N,I2C_SCL_RAW*%
X132000000Y-77000000D03*
X122040000Y-72500000D03*
X125500000Y-87750000D03*
%TO.N,DHT_RAW*%
X104000000Y-87750000D03*
X101000000Y-75000000D03*
%TO.N,BATT_SENSE_RAW*%
X127250000Y-59460000D03*
X131000000Y-61960000D03*
%TD*%
%TO.N,RAIN_RAW*%
D26*
X75510000Y-88000000D02*
X75510000Y-95300000D01*
X73960000Y-80000000D02*
X78000000Y-80000000D01*
X78000000Y-88000000D02*
X75510000Y-88000000D01*
X78000000Y-80000000D02*
X78000000Y-88000000D01*
%TO.N,+3V3_PERIPH*%
D27*
X80190000Y-33500000D02*
X129500000Y-33500000D01*
X80000000Y-80750000D02*
X80000000Y-89800000D01*
X129500000Y-33500000D02*
X129500000Y-41050000D01*
X126000000Y-75000000D02*
X129500000Y-75000000D01*
X80190000Y-30500000D02*
X80190000Y-33500000D01*
%TO.N,RAIN_GPIO*%
D28*
X70600000Y-80000000D02*
X71460000Y-80000000D01*
%TO.N,WIND_GPIO*%
X73000000Y-77500000D02*
X82460000Y-77500000D01*
%TO.N,I2C_SDA_GPIO*%
X69000000Y-70000000D02*
X114460000Y-70000000D01*
%TO.N,I2C_SCL_GPIO*%
X69800000Y-72500000D02*
X119540000Y-72500000D01*
%TO.N,DHT_GPIO*%
X71400000Y-75000000D02*
X98500000Y-75000000D01*
%TO.N,LORA_NSS*%
X64200000Y-49200000D02*
X94475000Y-50000000D01*
%TO.N,BATT_ADC*%
X72200000Y-59460000D02*
X124750000Y-59460000D01*
%TO.N,LDR_ADC*%
D26*
X124750000Y-66500000D02*
X124750000Y-68000000D01*
X124750000Y-68000000D02*
X130750000Y-68000000D01*
D28*
X73800000Y-66500000D02*
X124750000Y-66500000D01*
D26*
X130750000Y-68000000D02*
X130750000Y-66500000D01*
%TO.N,VANE_ADC*%
X130750000Y-65250000D02*
X130750000Y-64000000D01*
X124750000Y-64000000D02*
X124750000Y-65250000D01*
D28*
X74600000Y-64000000D02*
X124750000Y-64000000D01*
D26*
X124750000Y-65250000D02*
X130750000Y-65250000D01*
%TO.N,LORA_MOSI*%
D28*
X65000000Y-46500000D02*
X94475000Y-46000000D01*
%TO.N,LORA_SCK*%
X65800000Y-47300000D02*
X94475000Y-48000000D01*
%TO.N,LORA_MISO*%
X66600000Y-44500000D02*
X94475000Y-44000000D01*
%TO.N,LORA_RST*%
X67400000Y-52000000D02*
X94475000Y-52000000D01*
%TO.N,LORA_DIO0*%
D26*
X106000000Y-38000000D02*
X106000000Y-46000000D01*
X62860000Y-44360000D02*
X70000000Y-38000000D01*
X70000000Y-38000000D02*
X106000000Y-38000000D01*
%TO.N,VANE_RAW*%
X133250000Y-64000000D02*
X139000000Y-64000000D01*
X83000000Y-78800000D02*
X83000000Y-95300000D01*
X139000000Y-64000000D02*
X139000000Y-78800000D01*
X141000000Y-68250000D02*
X133250000Y-64000000D01*
X83000000Y-95300000D02*
X89470000Y-95300000D01*
X139000000Y-78800000D02*
X83000000Y-78800000D01*
%TO.N,I2C_SDA_RAW*%
X131460000Y-91000000D02*
X131460000Y-95000000D01*
X128000000Y-91000000D02*
X131460000Y-91000000D01*
%TO.N,I2C_SCL_RAW*%
X122040000Y-72500000D02*
X122040000Y-77000000D01*
X122040000Y-77000000D02*
X132000000Y-77000000D01*
%TO.N,BATT_SENSE_RAW*%
X133000000Y-61960000D02*
X133000000Y-58000000D01*
X127250000Y-57000000D02*
X130000000Y-57000000D01*
X131000000Y-61960000D02*
X133000000Y-61960000D01*
X127250000Y-59460000D02*
X127250000Y-57000000D01*
X130000000Y-51000000D02*
X133460000Y-51000000D01*
X130000000Y-57000000D02*
X130000000Y-51000000D01*
X133000000Y-58000000D02*
X127250000Y-58000000D01*
X127250000Y-58000000D02*
X127250000Y-59460000D01*
%TD*%
M02*
