%TF.GenerationSoftware,KiCad,Pcbnew,10.0.4*%
%TF.CreationDate,2026-08-08T20:58:43+01:00*%
%TF.ProjectId,central_gateway,63656e74-7261-46c5-9f67-617465776179,rev?*%
%TF.SameCoordinates,Original*%
%TF.FileFunction,Soldermask,Bot*%
%TF.FilePolarity,Negative*%
%FSLAX46Y46*%
G04 Gerber Fmt 4.6, Leading zero omitted, Abs format (unit mm)*
G04 Created by KiCad (PCBNEW 10.0.4) date 2026-08-08 20:58:43*
%MOMM*%
%LPD*%
G01*
G04 APERTURE LIST*
G04 Aperture macros list*
%AMRoundRect*
0 Rectangle with rounded corners*
0 $1 Rounding radius*
0 $2 $3 $4 $5 $6 $7 $8 $9 X,Y pos of 4 corners*
0 Add a 4 corners polygon primitive as box body*
4,1,4,$2,$3,$4,$5,$6,$7,$8,$9,$2,$3,0*
0 Add four circle primitives for the rounded corners*
1,1,$1+$1,$2,$3*
1,1,$1+$1,$4,$5*
1,1,$1+$1,$6,$7*
1,1,$1+$1,$8,$9*
0 Add four rect primitives between the rounded corners*
20,1,$1+$1,$2,$3,$4,$5,0*
20,1,$1+$1,$4,$5,$6,$7,0*
20,1,$1+$1,$6,$7,$8,$9,0*
20,1,$1+$1,$8,$9,$2,$3,0*%
G04 Aperture macros list end*
%ADD10C,2.200000*%
%ADD11C,2.800000*%
%ADD12RoundRect,0.640000X-0.960000X-0.960000X0.960000X-0.960000X0.960000X0.960000X-0.960000X0.960000X0*%
%ADD13C,3.200000*%
%ADD14RoundRect,0.340000X-0.510000X-0.510000X0.510000X-0.510000X0.510000X0.510000X-0.510000X0.510000X0*%
%ADD15C,1.700000*%
%ADD16C,2.360000*%
%ADD17R,1.400000X1.400000*%
%ADD18C,1.400000*%
%ADD19RoundRect,0.360000X-0.540000X-0.540000X0.540000X-0.540000X0.540000X0.540000X-0.540000X0.540000X0*%
%ADD20C,1.800000*%
%ADD21RoundRect,0.440000X-0.660000X-0.660000X0.660000X-0.660000X0.660000X0.660000X-0.660000X0.660000X0*%
G04 APERTURE END LIST*
D10*
%TO.C,J9*%
X145500000Y-56000000D03*
D11*
X142960000Y-53460000D03*
X148040000Y-53460000D03*
X142960000Y-58540000D03*
X148040000Y-58540000D03*
%TD*%
D12*
%TO.C,J1*%
X138960000Y-31000000D03*
D13*
X144040000Y-31000000D03*
%TD*%
D14*
%TO.C,U1*%
X40000000Y-34200000D03*
D15*
X40000000Y-36740000D03*
X40000000Y-39280000D03*
X40000000Y-41820000D03*
X40000000Y-44360000D03*
X40000000Y-46900000D03*
X40000000Y-49440000D03*
X40000000Y-51980000D03*
X40000000Y-54520000D03*
X40000000Y-57060000D03*
X40000000Y-59600000D03*
X40000000Y-62140000D03*
X40000000Y-64680000D03*
X40000000Y-67220000D03*
X40000000Y-69760000D03*
X40000000Y-72300000D03*
X40000000Y-74840000D03*
X40000000Y-77380000D03*
X40000000Y-79920000D03*
X40000000Y-82460000D03*
X40000000Y-85000000D03*
X40000000Y-87540000D03*
X62860000Y-87540000D03*
X62860000Y-85000000D03*
X62860000Y-82460000D03*
X62860000Y-79920000D03*
X62860000Y-77380000D03*
X62860000Y-74840000D03*
X62860000Y-72300000D03*
X62860000Y-69760000D03*
X62860000Y-67220000D03*
X62860000Y-64680000D03*
X62860000Y-62140000D03*
X62860000Y-59600000D03*
X62860000Y-57060000D03*
X62860000Y-54520000D03*
X62860000Y-51980000D03*
X62860000Y-49440000D03*
X62860000Y-46900000D03*
X62860000Y-44360000D03*
X62860000Y-41820000D03*
X62860000Y-39280000D03*
X62860000Y-36740000D03*
X62860000Y-34200000D03*
%TD*%
D16*
%TO.C,J2*%
X69000000Y-93000000D03*
X81000000Y-93000000D03*
D17*
X72450000Y-97840000D03*
D18*
X73470000Y-95300000D03*
X74490000Y-97840000D03*
X75510000Y-95300000D03*
X76530000Y-97840000D03*
X77550000Y-95300000D03*
%TD*%
D12*
%TO.C,J6*%
X145000000Y-77540000D03*
D13*
X145000000Y-72460000D03*
%TD*%
D12*
%TO.C,J5*%
X126380000Y-95000000D03*
D13*
X131460000Y-95000000D03*
X136540000Y-95000000D03*
X141620000Y-95000000D03*
%TD*%
%TO.C,H1*%
X24000000Y-29500000D03*
%TD*%
D10*
%TO.C,TP1*%
X58000000Y-92000000D03*
%TD*%
D16*
%TO.C,J3*%
X85000000Y-93000000D03*
X97000000Y-93000000D03*
D17*
X88450000Y-97840000D03*
D18*
X89470000Y-95300000D03*
X90490000Y-97840000D03*
X91510000Y-95300000D03*
X92530000Y-97840000D03*
X93550000Y-95300000D03*
%TD*%
D10*
%TO.C,TP3*%
X52000000Y-92000000D03*
%TD*%
D13*
%TO.C,H4*%
X146000000Y-99000000D03*
%TD*%
D12*
%TO.C,J4*%
X102420000Y-95000000D03*
D13*
X107500000Y-95000000D03*
X112580000Y-95000000D03*
%TD*%
D10*
%TO.C,TP4*%
X113000000Y-44000000D03*
%TD*%
D19*
%TO.C,J8*%
X80190000Y-30500000D03*
D20*
X82730000Y-30500000D03*
X85270000Y-30500000D03*
X87810000Y-30500000D03*
%TD*%
D19*
%TO.C,J10*%
X80750000Y-58000000D03*
D20*
X83250000Y-58000000D03*
%TD*%
D13*
%TO.C,H2*%
X146000000Y-41000000D03*
%TD*%
D21*
%TO.C,U3*%
X122540000Y-31000000D03*
D10*
X120000000Y-31000000D03*
X117460000Y-31000000D03*
%TD*%
%TO.C,TP2*%
X63000000Y-96000000D03*
%TD*%
D12*
%TO.C,J7*%
X133460000Y-51000000D03*
D13*
X138540000Y-51000000D03*
%TD*%
%TO.C,H3*%
X24000000Y-99000000D03*
%TD*%
M02*
