%TF.GenerationSoftware,KiCad,Pcbnew,10.0.4*%
%TF.CreationDate,2026-08-08T20:58:43+01:00*%
%TF.ProjectId,central_gateway,63656e74-7261-46c5-9f67-617465776179,rev?*%
%TF.SameCoordinates,Original*%
%TF.FileFunction,Legend,Top*%
%TF.FilePolarity,Positive*%
%FSLAX46Y46*%
G04 Gerber Fmt 4.6, Leading zero omitted, Abs format (unit mm)*
G04 Created by KiCad (PCBNEW 10.0.4) date 2026-08-08 20:58:43*
%MOMM*%
%LPD*%
G01*
G04 APERTURE LIST*
G04 Aperture macros list*
%AMRoundRect*
0 Rectangle with rounded corners*
0 $1 Rounding radius*
0 $2 $3 $4 $5 $6 $7 $8 $9 X,Y pos of 4 corners*
0 Add a 4 corners polygon primitive as box body*
4,1,4,$2,$3,$4,$5,$6,$7,$8,$9,$2,$3,0*
0 Add four circle primitives for the rounded corners*
1,1,$1+$1,$2,$3*
1,1,$1+$1,$4,$5*
1,1,$1+$1,$6,$7*
1,1,$1+$1,$8,$9*
0 Add four rect primitives between the rounded corners*
20,1,$1+$1,$2,$3,$4,$5,0*
20,1,$1+$1,$4,$5,$6,$7,0*
20,1,$1+$1,$6,$7,$8,$9,0*
20,1,$1+$1,$8,$9,$2,$3,0*%
G04 Aperture macros list end*
%ADD10C,0.150000*%
%ADD11C,0.120000*%
%ADD12RoundRect,0.280000X-0.420000X-0.520000X0.420000X-0.520000X0.420000X0.520000X-0.420000X0.520000X0*%
%ADD13RoundRect,0.400000X-0.600000X-0.700000X0.600000X-0.700000X0.600000X0.700000X-0.600000X0.700000X0*%
%ADD14C,2.200000*%
%ADD15C,2.800000*%
%ADD16RoundRect,0.640000X-0.960000X-0.960000X0.960000X-0.960000X0.960000X0.960000X-0.960000X0.960000X0*%
%ADD17C,3.200000*%
%ADD18RoundRect,0.340000X-0.510000X-0.510000X0.510000X-0.510000X0.510000X0.510000X-0.510000X0.510000X0*%
%ADD19C,1.700000*%
%ADD20C,2.360000*%
%ADD21R,1.400000X1.400000*%
%ADD22C,1.400000*%
%ADD23RoundRect,0.130000X-0.570000X-0.195000X0.570000X-0.195000X0.570000X0.195000X-0.570000X0.195000X0*%
%ADD24RoundRect,0.360000X-0.540000X-0.940000X0.540000X-0.940000X0.540000X0.940000X-0.540000X0.940000X0*%
%ADD25RoundRect,0.400000X-0.600000X-1.000000X0.600000X-1.000000X0.600000X1.000000X-0.600000X1.000000X0*%
%ADD26RoundRect,0.360000X-0.540000X-0.540000X0.540000X-0.540000X0.540000X0.540000X-0.540000X0.540000X0*%
%ADD27C,1.800000*%
%ADD28RoundRect,0.360000X-0.540000X-0.740000X0.540000X-0.740000X0.540000X0.740000X-0.540000X0.740000X0*%
%ADD29RoundRect,0.440000X-0.660000X-0.660000X0.660000X-0.660000X0.660000X0.660000X-0.660000X0.660000X0*%
%ADD30RoundRect,0.254000X-1.221000X-0.381000X1.221000X-0.381000X1.221000X0.381000X-1.221000X0.381000X0*%
%ADD31RoundRect,0.440000X-0.760000X-0.660000X0.760000X-0.660000X0.760000X0.660000X-0.760000X0.660000X0*%
G04 APERTURE END LIST*
D10*
X39233334Y-31862295D02*
X39233334Y-31062295D01*
X39233334Y-31062295D02*
X39690477Y-31862295D01*
X39690477Y-31862295D02*
X39690477Y-31062295D01*
X40223810Y-31062295D02*
X40376191Y-31062295D01*
X40376191Y-31062295D02*
X40452381Y-31100390D01*
X40452381Y-31100390D02*
X40528572Y-31176580D01*
X40528572Y-31176580D02*
X40566667Y-31328961D01*
X40566667Y-31328961D02*
X40566667Y-31595628D01*
X40566667Y-31595628D02*
X40528572Y-31748009D01*
X40528572Y-31748009D02*
X40452381Y-31824200D01*
X40452381Y-31824200D02*
X40376191Y-31862295D01*
X40376191Y-31862295D02*
X40223810Y-31862295D01*
X40223810Y-31862295D02*
X40147619Y-31824200D01*
X40147619Y-31824200D02*
X40071429Y-31748009D01*
X40071429Y-31748009D02*
X40033333Y-31595628D01*
X40033333Y-31595628D02*
X40033333Y-31328961D01*
X40033333Y-31328961D02*
X40071429Y-31176580D01*
X40071429Y-31176580D02*
X40147619Y-31100390D01*
X40147619Y-31100390D02*
X40223810Y-31062295D01*
X41976191Y-31786104D02*
X41938095Y-31824200D01*
X41938095Y-31824200D02*
X41823810Y-31862295D01*
X41823810Y-31862295D02*
X41747619Y-31862295D01*
X41747619Y-31862295D02*
X41633333Y-31824200D01*
X41633333Y-31824200D02*
X41557143Y-31748009D01*
X41557143Y-31748009D02*
X41519048Y-31671819D01*
X41519048Y-31671819D02*
X41480952Y-31519438D01*
X41480952Y-31519438D02*
X41480952Y-31405152D01*
X41480952Y-31405152D02*
X41519048Y-31252771D01*
X41519048Y-31252771D02*
X41557143Y-31176580D01*
X41557143Y-31176580D02*
X41633333Y-31100390D01*
X41633333Y-31100390D02*
X41747619Y-31062295D01*
X41747619Y-31062295D02*
X41823810Y-31062295D01*
X41823810Y-31062295D02*
X41938095Y-31100390D01*
X41938095Y-31100390D02*
X41976191Y-31138485D01*
X42471429Y-31062295D02*
X42623810Y-31062295D01*
X42623810Y-31062295D02*
X42700000Y-31100390D01*
X42700000Y-31100390D02*
X42776191Y-31176580D01*
X42776191Y-31176580D02*
X42814286Y-31328961D01*
X42814286Y-31328961D02*
X42814286Y-31595628D01*
X42814286Y-31595628D02*
X42776191Y-31748009D01*
X42776191Y-31748009D02*
X42700000Y-31824200D01*
X42700000Y-31824200D02*
X42623810Y-31862295D01*
X42623810Y-31862295D02*
X42471429Y-31862295D01*
X42471429Y-31862295D02*
X42395238Y-31824200D01*
X42395238Y-31824200D02*
X42319048Y-31748009D01*
X42319048Y-31748009D02*
X42280952Y-31595628D01*
X42280952Y-31595628D02*
X42280952Y-31328961D01*
X42280952Y-31328961D02*
X42319048Y-31176580D01*
X42319048Y-31176580D02*
X42395238Y-31100390D01*
X42395238Y-31100390D02*
X42471429Y-31062295D01*
X43157143Y-31862295D02*
X43157143Y-31062295D01*
X43157143Y-31062295D02*
X43461905Y-31062295D01*
X43461905Y-31062295D02*
X43538095Y-31100390D01*
X43538095Y-31100390D02*
X43576190Y-31138485D01*
X43576190Y-31138485D02*
X43614286Y-31214676D01*
X43614286Y-31214676D02*
X43614286Y-31328961D01*
X43614286Y-31328961D02*
X43576190Y-31405152D01*
X43576190Y-31405152D02*
X43538095Y-31443247D01*
X43538095Y-31443247D02*
X43461905Y-31481342D01*
X43461905Y-31481342D02*
X43157143Y-31481342D01*
X43957143Y-31862295D02*
X43957143Y-31062295D01*
X43957143Y-31062295D02*
X44261905Y-31062295D01*
X44261905Y-31062295D02*
X44338095Y-31100390D01*
X44338095Y-31100390D02*
X44376190Y-31138485D01*
X44376190Y-31138485D02*
X44414286Y-31214676D01*
X44414286Y-31214676D02*
X44414286Y-31328961D01*
X44414286Y-31328961D02*
X44376190Y-31405152D01*
X44376190Y-31405152D02*
X44338095Y-31443247D01*
X44338095Y-31443247D02*
X44261905Y-31481342D01*
X44261905Y-31481342D02*
X43957143Y-31481342D01*
X44757143Y-31443247D02*
X45023809Y-31443247D01*
X45138095Y-31862295D02*
X44757143Y-31862295D01*
X44757143Y-31862295D02*
X44757143Y-31062295D01*
X44757143Y-31062295D02*
X45138095Y-31062295D01*
X45938096Y-31862295D02*
X45671429Y-31481342D01*
X45480953Y-31862295D02*
X45480953Y-31062295D01*
X45480953Y-31062295D02*
X45785715Y-31062295D01*
X45785715Y-31062295D02*
X45861905Y-31100390D01*
X45861905Y-31100390D02*
X45900000Y-31138485D01*
X45900000Y-31138485D02*
X45938096Y-31214676D01*
X45938096Y-31214676D02*
X45938096Y-31328961D01*
X45938096Y-31328961D02*
X45900000Y-31405152D01*
X45900000Y-31405152D02*
X45861905Y-31443247D01*
X45861905Y-31443247D02*
X45785715Y-31481342D01*
X45785715Y-31481342D02*
X45480953Y-31481342D01*
X47461905Y-31024200D02*
X46776191Y-32052771D01*
X48338096Y-31862295D02*
X48338096Y-31062295D01*
X48338096Y-31062295D02*
X48642858Y-31062295D01*
X48642858Y-31062295D02*
X48719048Y-31100390D01*
X48719048Y-31100390D02*
X48757143Y-31138485D01*
X48757143Y-31138485D02*
X48795239Y-31214676D01*
X48795239Y-31214676D02*
X48795239Y-31328961D01*
X48795239Y-31328961D02*
X48757143Y-31405152D01*
X48757143Y-31405152D02*
X48719048Y-31443247D01*
X48719048Y-31443247D02*
X48642858Y-31481342D01*
X48642858Y-31481342D02*
X48338096Y-31481342D01*
X49595239Y-31786104D02*
X49557143Y-31824200D01*
X49557143Y-31824200D02*
X49442858Y-31862295D01*
X49442858Y-31862295D02*
X49366667Y-31862295D01*
X49366667Y-31862295D02*
X49252381Y-31824200D01*
X49252381Y-31824200D02*
X49176191Y-31748009D01*
X49176191Y-31748009D02*
X49138096Y-31671819D01*
X49138096Y-31671819D02*
X49100000Y-31519438D01*
X49100000Y-31519438D02*
X49100000Y-31405152D01*
X49100000Y-31405152D02*
X49138096Y-31252771D01*
X49138096Y-31252771D02*
X49176191Y-31176580D01*
X49176191Y-31176580D02*
X49252381Y-31100390D01*
X49252381Y-31100390D02*
X49366667Y-31062295D01*
X49366667Y-31062295D02*
X49442858Y-31062295D01*
X49442858Y-31062295D02*
X49557143Y-31100390D01*
X49557143Y-31100390D02*
X49595239Y-31138485D01*
X50204762Y-31443247D02*
X50319048Y-31481342D01*
X50319048Y-31481342D02*
X50357143Y-31519438D01*
X50357143Y-31519438D02*
X50395239Y-31595628D01*
X50395239Y-31595628D02*
X50395239Y-31709914D01*
X50395239Y-31709914D02*
X50357143Y-31786104D01*
X50357143Y-31786104D02*
X50319048Y-31824200D01*
X50319048Y-31824200D02*
X50242858Y-31862295D01*
X50242858Y-31862295D02*
X49938096Y-31862295D01*
X49938096Y-31862295D02*
X49938096Y-31062295D01*
X49938096Y-31062295D02*
X50204762Y-31062295D01*
X50204762Y-31062295D02*
X50280953Y-31100390D01*
X50280953Y-31100390D02*
X50319048Y-31138485D01*
X50319048Y-31138485D02*
X50357143Y-31214676D01*
X50357143Y-31214676D02*
X50357143Y-31290866D01*
X50357143Y-31290866D02*
X50319048Y-31367057D01*
X50319048Y-31367057D02*
X50280953Y-31405152D01*
X50280953Y-31405152D02*
X50204762Y-31443247D01*
X50204762Y-31443247D02*
X49938096Y-31443247D01*
X51347620Y-31062295D02*
X51347620Y-31709914D01*
X51347620Y-31709914D02*
X51385715Y-31786104D01*
X51385715Y-31786104D02*
X51423810Y-31824200D01*
X51423810Y-31824200D02*
X51500001Y-31862295D01*
X51500001Y-31862295D02*
X51652382Y-31862295D01*
X51652382Y-31862295D02*
X51728572Y-31824200D01*
X51728572Y-31824200D02*
X51766667Y-31786104D01*
X51766667Y-31786104D02*
X51804763Y-31709914D01*
X51804763Y-31709914D02*
X51804763Y-31062295D01*
X52185715Y-31862295D02*
X52185715Y-31062295D01*
X52185715Y-31062295D02*
X52642858Y-31862295D01*
X52642858Y-31862295D02*
X52642858Y-31062295D01*
X53023810Y-31862295D02*
X53023810Y-31062295D01*
X53023810Y-31062295D02*
X53214286Y-31062295D01*
X53214286Y-31062295D02*
X53328572Y-31100390D01*
X53328572Y-31100390D02*
X53404762Y-31176580D01*
X53404762Y-31176580D02*
X53442857Y-31252771D01*
X53442857Y-31252771D02*
X53480953Y-31405152D01*
X53480953Y-31405152D02*
X53480953Y-31519438D01*
X53480953Y-31519438D02*
X53442857Y-31671819D01*
X53442857Y-31671819D02*
X53404762Y-31748009D01*
X53404762Y-31748009D02*
X53328572Y-31824200D01*
X53328572Y-31824200D02*
X53214286Y-31862295D01*
X53214286Y-31862295D02*
X53023810Y-31862295D01*
X53823810Y-31443247D02*
X54090476Y-31443247D01*
X54204762Y-31862295D02*
X53823810Y-31862295D01*
X53823810Y-31862295D02*
X53823810Y-31062295D01*
X53823810Y-31062295D02*
X54204762Y-31062295D01*
X55004763Y-31862295D02*
X54738096Y-31481342D01*
X54547620Y-31862295D02*
X54547620Y-31062295D01*
X54547620Y-31062295D02*
X54852382Y-31062295D01*
X54852382Y-31062295D02*
X54928572Y-31100390D01*
X54928572Y-31100390D02*
X54966667Y-31138485D01*
X54966667Y-31138485D02*
X55004763Y-31214676D01*
X55004763Y-31214676D02*
X55004763Y-31328961D01*
X55004763Y-31328961D02*
X54966667Y-31405152D01*
X54966667Y-31405152D02*
X54928572Y-31443247D01*
X54928572Y-31443247D02*
X54852382Y-31481342D01*
X54852382Y-31481342D02*
X54547620Y-31481342D01*
X55880953Y-31062295D02*
X56071429Y-31862295D01*
X56071429Y-31862295D02*
X56223810Y-31290866D01*
X56223810Y-31290866D02*
X56376191Y-31862295D01*
X56376191Y-31862295D02*
X56566668Y-31062295D01*
X56871430Y-31862295D02*
X56871430Y-31062295D01*
X57519048Y-31443247D02*
X57252382Y-31443247D01*
X57252382Y-31862295D02*
X57252382Y-31062295D01*
X57252382Y-31062295D02*
X57633334Y-31062295D01*
X57938096Y-31862295D02*
X57938096Y-31062295D01*
X58890476Y-31633723D02*
X59271429Y-31633723D01*
X58814286Y-31862295D02*
X59080953Y-31062295D01*
X59080953Y-31062295D02*
X59347619Y-31862295D01*
X59614286Y-31862295D02*
X59614286Y-31062295D01*
X59614286Y-31062295D02*
X60071429Y-31862295D01*
X60071429Y-31862295D02*
X60071429Y-31062295D01*
X60338095Y-31062295D02*
X60795238Y-31062295D01*
X60566666Y-31862295D02*
X60566666Y-31062295D01*
X61061905Y-31443247D02*
X61328571Y-31443247D01*
X61442857Y-31862295D02*
X61061905Y-31862295D01*
X61061905Y-31862295D02*
X61061905Y-31062295D01*
X61061905Y-31062295D02*
X61442857Y-31062295D01*
X61785715Y-31862295D02*
X61785715Y-31062295D01*
X61785715Y-31062295D02*
X62242858Y-31862295D01*
X62242858Y-31862295D02*
X62242858Y-31062295D01*
X62623810Y-31862295D02*
X62623810Y-31062295D01*
X62623810Y-31062295D02*
X63080953Y-31862295D01*
X63080953Y-31862295D02*
X63080953Y-31062295D01*
X63423809Y-31633723D02*
X63804762Y-31633723D01*
X63347619Y-31862295D02*
X63614286Y-31062295D01*
X63614286Y-31062295D02*
X63880952Y-31862295D01*
X57295239Y-98362295D02*
X57028572Y-97981342D01*
X56838096Y-98362295D02*
X56838096Y-97562295D01*
X56838096Y-97562295D02*
X57142858Y-97562295D01*
X57142858Y-97562295D02*
X57219048Y-97600390D01*
X57219048Y-97600390D02*
X57257143Y-97638485D01*
X57257143Y-97638485D02*
X57295239Y-97714676D01*
X57295239Y-97714676D02*
X57295239Y-97828961D01*
X57295239Y-97828961D02*
X57257143Y-97905152D01*
X57257143Y-97905152D02*
X57219048Y-97943247D01*
X57219048Y-97943247D02*
X57142858Y-97981342D01*
X57142858Y-97981342D02*
X56838096Y-97981342D01*
X57600000Y-98133723D02*
X57980953Y-98133723D01*
X57523810Y-98362295D02*
X57790477Y-97562295D01*
X57790477Y-97562295D02*
X58057143Y-98362295D01*
X58323810Y-98362295D02*
X58323810Y-97562295D01*
X58704762Y-98362295D02*
X58704762Y-97562295D01*
X58704762Y-97562295D02*
X59161905Y-98362295D01*
X59161905Y-98362295D02*
X59161905Y-97562295D01*
X78057142Y-62562295D02*
X78057142Y-63133723D01*
X78057142Y-63133723D02*
X78019047Y-63248009D01*
X78019047Y-63248009D02*
X77942856Y-63324200D01*
X77942856Y-63324200D02*
X77828571Y-63362295D01*
X77828571Y-63362295D02*
X77752380Y-63362295D01*
X78857142Y-63362295D02*
X78399999Y-63362295D01*
X78628571Y-63362295D02*
X78628571Y-62562295D01*
X78628571Y-62562295D02*
X78552380Y-62676580D01*
X78552380Y-62676580D02*
X78476190Y-62752771D01*
X78476190Y-62752771D02*
X78399999Y-62790866D01*
X79352381Y-62562295D02*
X79428571Y-62562295D01*
X79428571Y-62562295D02*
X79504762Y-62600390D01*
X79504762Y-62600390D02*
X79542857Y-62638485D01*
X79542857Y-62638485D02*
X79580952Y-62714676D01*
X79580952Y-62714676D02*
X79619047Y-62867057D01*
X79619047Y-62867057D02*
X79619047Y-63057533D01*
X79619047Y-63057533D02*
X79580952Y-63209914D01*
X79580952Y-63209914D02*
X79542857Y-63286104D01*
X79542857Y-63286104D02*
X79504762Y-63324200D01*
X79504762Y-63324200D02*
X79428571Y-63362295D01*
X79428571Y-63362295D02*
X79352381Y-63362295D01*
X79352381Y-63362295D02*
X79276190Y-63324200D01*
X79276190Y-63324200D02*
X79238095Y-63286104D01*
X79238095Y-63286104D02*
X79200000Y-63209914D01*
X79200000Y-63209914D02*
X79161904Y-63057533D01*
X79161904Y-63057533D02*
X79161904Y-62867057D01*
X79161904Y-62867057D02*
X79200000Y-62714676D01*
X79200000Y-62714676D02*
X79238095Y-62638485D01*
X79238095Y-62638485D02*
X79276190Y-62600390D01*
X79276190Y-62600390D02*
X79352381Y-62562295D01*
X80571429Y-63362295D02*
X80571429Y-62562295D01*
X80571429Y-62562295D02*
X80876191Y-62562295D01*
X80876191Y-62562295D02*
X80952381Y-62600390D01*
X80952381Y-62600390D02*
X80990476Y-62638485D01*
X80990476Y-62638485D02*
X81028572Y-62714676D01*
X81028572Y-62714676D02*
X81028572Y-62828961D01*
X81028572Y-62828961D02*
X80990476Y-62905152D01*
X80990476Y-62905152D02*
X80952381Y-62943247D01*
X80952381Y-62943247D02*
X80876191Y-62981342D01*
X80876191Y-62981342D02*
X80571429Y-62981342D01*
X81333333Y-63133723D02*
X81714286Y-63133723D01*
X81257143Y-63362295D02*
X81523810Y-62562295D01*
X81523810Y-62562295D02*
X81790476Y-63362295D01*
X82057143Y-63362295D02*
X82057143Y-62562295D01*
X82057143Y-62562295D02*
X82514286Y-63362295D01*
X82514286Y-63362295D02*
X82514286Y-62562295D01*
X82895238Y-62943247D02*
X83161904Y-62943247D01*
X83276190Y-63362295D02*
X82895238Y-63362295D01*
X82895238Y-63362295D02*
X82895238Y-62562295D01*
X82895238Y-62562295D02*
X83276190Y-62562295D01*
X84000000Y-63362295D02*
X83619048Y-63362295D01*
X83619048Y-63362295D02*
X83619048Y-62562295D01*
X84838095Y-63324200D02*
X84952381Y-63362295D01*
X84952381Y-63362295D02*
X85142857Y-63362295D01*
X85142857Y-63362295D02*
X85219048Y-63324200D01*
X85219048Y-63324200D02*
X85257143Y-63286104D01*
X85257143Y-63286104D02*
X85295238Y-63209914D01*
X85295238Y-63209914D02*
X85295238Y-63133723D01*
X85295238Y-63133723D02*
X85257143Y-63057533D01*
X85257143Y-63057533D02*
X85219048Y-63019438D01*
X85219048Y-63019438D02*
X85142857Y-62981342D01*
X85142857Y-62981342D02*
X84990476Y-62943247D01*
X84990476Y-62943247D02*
X84914286Y-62905152D01*
X84914286Y-62905152D02*
X84876191Y-62867057D01*
X84876191Y-62867057D02*
X84838095Y-62790866D01*
X84838095Y-62790866D02*
X84838095Y-62714676D01*
X84838095Y-62714676D02*
X84876191Y-62638485D01*
X84876191Y-62638485D02*
X84914286Y-62600390D01*
X84914286Y-62600390D02*
X84990476Y-62562295D01*
X84990476Y-62562295D02*
X85180953Y-62562295D01*
X85180953Y-62562295D02*
X85295238Y-62600390D01*
X85561905Y-62562295D02*
X85752381Y-63362295D01*
X85752381Y-63362295D02*
X85904762Y-62790866D01*
X85904762Y-62790866D02*
X86057143Y-63362295D01*
X86057143Y-63362295D02*
X86247620Y-62562295D01*
X80647619Y-97962295D02*
X80838095Y-98762295D01*
X80838095Y-98762295D02*
X80990476Y-98190866D01*
X80990476Y-98190866D02*
X81142857Y-98762295D01*
X81142857Y-98762295D02*
X81333334Y-97962295D01*
X81638096Y-98762295D02*
X81638096Y-97962295D01*
X82019048Y-98762295D02*
X82019048Y-97962295D01*
X82019048Y-97962295D02*
X82476191Y-98762295D01*
X82476191Y-98762295D02*
X82476191Y-97962295D01*
X82857143Y-98762295D02*
X82857143Y-97962295D01*
X82857143Y-97962295D02*
X83047619Y-97962295D01*
X83047619Y-97962295D02*
X83161905Y-98000390D01*
X83161905Y-98000390D02*
X83238095Y-98076580D01*
X83238095Y-98076580D02*
X83276190Y-98152771D01*
X83276190Y-98152771D02*
X83314286Y-98305152D01*
X83314286Y-98305152D02*
X83314286Y-98419438D01*
X83314286Y-98419438D02*
X83276190Y-98571819D01*
X83276190Y-98571819D02*
X83238095Y-98648009D01*
X83238095Y-98648009D02*
X83161905Y-98724200D01*
X83161905Y-98724200D02*
X83047619Y-98762295D01*
X83047619Y-98762295D02*
X82857143Y-98762295D01*
X104795237Y-100562295D02*
X104795237Y-101133723D01*
X104795237Y-101133723D02*
X104757142Y-101248009D01*
X104757142Y-101248009D02*
X104680951Y-101324200D01*
X104680951Y-101324200D02*
X104566666Y-101362295D01*
X104566666Y-101362295D02*
X104490475Y-101362295D01*
X105519047Y-100828961D02*
X105519047Y-101362295D01*
X105328571Y-100524200D02*
X105138094Y-101095628D01*
X105138094Y-101095628D02*
X105633333Y-101095628D01*
X106471428Y-100562295D02*
X106966666Y-100562295D01*
X106966666Y-100562295D02*
X106700000Y-100867057D01*
X106700000Y-100867057D02*
X106814285Y-100867057D01*
X106814285Y-100867057D02*
X106890476Y-100905152D01*
X106890476Y-100905152D02*
X106928571Y-100943247D01*
X106928571Y-100943247D02*
X106966666Y-101019438D01*
X106966666Y-101019438D02*
X106966666Y-101209914D01*
X106966666Y-101209914D02*
X106928571Y-101286104D01*
X106928571Y-101286104D02*
X106890476Y-101324200D01*
X106890476Y-101324200D02*
X106814285Y-101362295D01*
X106814285Y-101362295D02*
X106585714Y-101362295D01*
X106585714Y-101362295D02*
X106509523Y-101324200D01*
X106509523Y-101324200D02*
X106471428Y-101286104D01*
X107195238Y-100562295D02*
X107461905Y-101362295D01*
X107461905Y-101362295D02*
X107728571Y-100562295D01*
X108604762Y-101362295D02*
X108604762Y-100562295D01*
X108604762Y-100562295D02*
X108795238Y-100562295D01*
X108795238Y-100562295D02*
X108909524Y-100600390D01*
X108909524Y-100600390D02*
X108985714Y-100676580D01*
X108985714Y-100676580D02*
X109023809Y-100752771D01*
X109023809Y-100752771D02*
X109061905Y-100905152D01*
X109061905Y-100905152D02*
X109061905Y-101019438D01*
X109061905Y-101019438D02*
X109023809Y-101171819D01*
X109023809Y-101171819D02*
X108985714Y-101248009D01*
X108985714Y-101248009D02*
X108909524Y-101324200D01*
X108909524Y-101324200D02*
X108795238Y-101362295D01*
X108795238Y-101362295D02*
X108604762Y-101362295D01*
X110433333Y-100600390D02*
X110357143Y-100562295D01*
X110357143Y-100562295D02*
X110242857Y-100562295D01*
X110242857Y-100562295D02*
X110128571Y-100600390D01*
X110128571Y-100600390D02*
X110052381Y-100676580D01*
X110052381Y-100676580D02*
X110014286Y-100752771D01*
X110014286Y-100752771D02*
X109976190Y-100905152D01*
X109976190Y-100905152D02*
X109976190Y-101019438D01*
X109976190Y-101019438D02*
X110014286Y-101171819D01*
X110014286Y-101171819D02*
X110052381Y-101248009D01*
X110052381Y-101248009D02*
X110128571Y-101324200D01*
X110128571Y-101324200D02*
X110242857Y-101362295D01*
X110242857Y-101362295D02*
X110319048Y-101362295D01*
X110319048Y-101362295D02*
X110433333Y-101324200D01*
X110433333Y-101324200D02*
X110471429Y-101286104D01*
X110471429Y-101286104D02*
X110471429Y-101019438D01*
X110471429Y-101019438D02*
X110319048Y-101019438D01*
X129923809Y-100562295D02*
X129923809Y-101133723D01*
X129923809Y-101133723D02*
X129885714Y-101248009D01*
X129885714Y-101248009D02*
X129809523Y-101324200D01*
X129809523Y-101324200D02*
X129695238Y-101362295D01*
X129695238Y-101362295D02*
X129619047Y-101362295D01*
X130685714Y-100562295D02*
X130304762Y-100562295D01*
X130304762Y-100562295D02*
X130266666Y-100943247D01*
X130266666Y-100943247D02*
X130304762Y-100905152D01*
X130304762Y-100905152D02*
X130380952Y-100867057D01*
X130380952Y-100867057D02*
X130571428Y-100867057D01*
X130571428Y-100867057D02*
X130647619Y-100905152D01*
X130647619Y-100905152D02*
X130685714Y-100943247D01*
X130685714Y-100943247D02*
X130723809Y-101019438D01*
X130723809Y-101019438D02*
X130723809Y-101209914D01*
X130723809Y-101209914D02*
X130685714Y-101286104D01*
X130685714Y-101286104D02*
X130647619Y-101324200D01*
X130647619Y-101324200D02*
X130571428Y-101362295D01*
X130571428Y-101362295D02*
X130380952Y-101362295D01*
X130380952Y-101362295D02*
X130304762Y-101324200D01*
X130304762Y-101324200D02*
X130266666Y-101286104D01*
X131600000Y-100562295D02*
X132095238Y-100562295D01*
X132095238Y-100562295D02*
X131828572Y-100867057D01*
X131828572Y-100867057D02*
X131942857Y-100867057D01*
X131942857Y-100867057D02*
X132019048Y-100905152D01*
X132019048Y-100905152D02*
X132057143Y-100943247D01*
X132057143Y-100943247D02*
X132095238Y-101019438D01*
X132095238Y-101019438D02*
X132095238Y-101209914D01*
X132095238Y-101209914D02*
X132057143Y-101286104D01*
X132057143Y-101286104D02*
X132019048Y-101324200D01*
X132019048Y-101324200D02*
X131942857Y-101362295D01*
X131942857Y-101362295D02*
X131714286Y-101362295D01*
X131714286Y-101362295D02*
X131638095Y-101324200D01*
X131638095Y-101324200D02*
X131600000Y-101286104D01*
X132323810Y-100562295D02*
X132590477Y-101362295D01*
X132590477Y-101362295D02*
X132857143Y-100562295D01*
X133733334Y-101362295D02*
X133733334Y-100562295D01*
X133733334Y-100562295D02*
X133923810Y-100562295D01*
X133923810Y-100562295D02*
X134038096Y-100600390D01*
X134038096Y-100600390D02*
X134114286Y-100676580D01*
X134114286Y-100676580D02*
X134152381Y-100752771D01*
X134152381Y-100752771D02*
X134190477Y-100905152D01*
X134190477Y-100905152D02*
X134190477Y-101019438D01*
X134190477Y-101019438D02*
X134152381Y-101171819D01*
X134152381Y-101171819D02*
X134114286Y-101248009D01*
X134114286Y-101248009D02*
X134038096Y-101324200D01*
X134038096Y-101324200D02*
X133923810Y-101362295D01*
X133923810Y-101362295D02*
X133733334Y-101362295D01*
X134495238Y-101133723D02*
X134876191Y-101133723D01*
X134419048Y-101362295D02*
X134685715Y-100562295D01*
X134685715Y-100562295D02*
X134952381Y-101362295D01*
X136285715Y-101286104D02*
X136247619Y-101324200D01*
X136247619Y-101324200D02*
X136133334Y-101362295D01*
X136133334Y-101362295D02*
X136057143Y-101362295D01*
X136057143Y-101362295D02*
X135942857Y-101324200D01*
X135942857Y-101324200D02*
X135866667Y-101248009D01*
X135866667Y-101248009D02*
X135828572Y-101171819D01*
X135828572Y-101171819D02*
X135790476Y-101019438D01*
X135790476Y-101019438D02*
X135790476Y-100905152D01*
X135790476Y-100905152D02*
X135828572Y-100752771D01*
X135828572Y-100752771D02*
X135866667Y-100676580D01*
X135866667Y-100676580D02*
X135942857Y-100600390D01*
X135942857Y-100600390D02*
X136057143Y-100562295D01*
X136057143Y-100562295D02*
X136133334Y-100562295D01*
X136133334Y-100562295D02*
X136247619Y-100600390D01*
X136247619Y-100600390D02*
X136285715Y-100638485D01*
X137009524Y-101362295D02*
X136628572Y-101362295D01*
X136628572Y-101362295D02*
X136628572Y-100562295D01*
X138304762Y-100600390D02*
X138228572Y-100562295D01*
X138228572Y-100562295D02*
X138114286Y-100562295D01*
X138114286Y-100562295D02*
X138000000Y-100600390D01*
X138000000Y-100600390D02*
X137923810Y-100676580D01*
X137923810Y-100676580D02*
X137885715Y-100752771D01*
X137885715Y-100752771D02*
X137847619Y-100905152D01*
X137847619Y-100905152D02*
X137847619Y-101019438D01*
X137847619Y-101019438D02*
X137885715Y-101171819D01*
X137885715Y-101171819D02*
X137923810Y-101248009D01*
X137923810Y-101248009D02*
X138000000Y-101324200D01*
X138000000Y-101324200D02*
X138114286Y-101362295D01*
X138114286Y-101362295D02*
X138190477Y-101362295D01*
X138190477Y-101362295D02*
X138304762Y-101324200D01*
X138304762Y-101324200D02*
X138342858Y-101286104D01*
X138342858Y-101286104D02*
X138342858Y-101019438D01*
X138342858Y-101019438D02*
X138190477Y-101019438D01*
X130114284Y-46443247D02*
X130228570Y-46481342D01*
X130228570Y-46481342D02*
X130266665Y-46519438D01*
X130266665Y-46519438D02*
X130304761Y-46595628D01*
X130304761Y-46595628D02*
X130304761Y-46709914D01*
X130304761Y-46709914D02*
X130266665Y-46786104D01*
X130266665Y-46786104D02*
X130228570Y-46824200D01*
X130228570Y-46824200D02*
X130152380Y-46862295D01*
X130152380Y-46862295D02*
X129847618Y-46862295D01*
X129847618Y-46862295D02*
X129847618Y-46062295D01*
X129847618Y-46062295D02*
X130114284Y-46062295D01*
X130114284Y-46062295D02*
X130190475Y-46100390D01*
X130190475Y-46100390D02*
X130228570Y-46138485D01*
X130228570Y-46138485D02*
X130266665Y-46214676D01*
X130266665Y-46214676D02*
X130266665Y-46290866D01*
X130266665Y-46290866D02*
X130228570Y-46367057D01*
X130228570Y-46367057D02*
X130190475Y-46405152D01*
X130190475Y-46405152D02*
X130114284Y-46443247D01*
X130114284Y-46443247D02*
X129847618Y-46443247D01*
X130609522Y-46633723D02*
X130990475Y-46633723D01*
X130533332Y-46862295D02*
X130799999Y-46062295D01*
X130799999Y-46062295D02*
X131066665Y-46862295D01*
X131219046Y-46062295D02*
X131676189Y-46062295D01*
X131447617Y-46862295D02*
X131447617Y-46062295D01*
X132514284Y-46824200D02*
X132628570Y-46862295D01*
X132628570Y-46862295D02*
X132819046Y-46862295D01*
X132819046Y-46862295D02*
X132895237Y-46824200D01*
X132895237Y-46824200D02*
X132933332Y-46786104D01*
X132933332Y-46786104D02*
X132971427Y-46709914D01*
X132971427Y-46709914D02*
X132971427Y-46633723D01*
X132971427Y-46633723D02*
X132933332Y-46557533D01*
X132933332Y-46557533D02*
X132895237Y-46519438D01*
X132895237Y-46519438D02*
X132819046Y-46481342D01*
X132819046Y-46481342D02*
X132666665Y-46443247D01*
X132666665Y-46443247D02*
X132590475Y-46405152D01*
X132590475Y-46405152D02*
X132552380Y-46367057D01*
X132552380Y-46367057D02*
X132514284Y-46290866D01*
X132514284Y-46290866D02*
X132514284Y-46214676D01*
X132514284Y-46214676D02*
X132552380Y-46138485D01*
X132552380Y-46138485D02*
X132590475Y-46100390D01*
X132590475Y-46100390D02*
X132666665Y-46062295D01*
X132666665Y-46062295D02*
X132857142Y-46062295D01*
X132857142Y-46062295D02*
X132971427Y-46100390D01*
X133314285Y-46443247D02*
X133580951Y-46443247D01*
X133695237Y-46862295D02*
X133314285Y-46862295D01*
X133314285Y-46862295D02*
X133314285Y-46062295D01*
X133314285Y-46062295D02*
X133695237Y-46062295D01*
X134038095Y-46862295D02*
X134038095Y-46062295D01*
X134038095Y-46062295D02*
X134495238Y-46862295D01*
X134495238Y-46862295D02*
X134495238Y-46062295D01*
X134838094Y-46824200D02*
X134952380Y-46862295D01*
X134952380Y-46862295D02*
X135142856Y-46862295D01*
X135142856Y-46862295D02*
X135219047Y-46824200D01*
X135219047Y-46824200D02*
X135257142Y-46786104D01*
X135257142Y-46786104D02*
X135295237Y-46709914D01*
X135295237Y-46709914D02*
X135295237Y-46633723D01*
X135295237Y-46633723D02*
X135257142Y-46557533D01*
X135257142Y-46557533D02*
X135219047Y-46519438D01*
X135219047Y-46519438D02*
X135142856Y-46481342D01*
X135142856Y-46481342D02*
X134990475Y-46443247D01*
X134990475Y-46443247D02*
X134914285Y-46405152D01*
X134914285Y-46405152D02*
X134876190Y-46367057D01*
X134876190Y-46367057D02*
X134838094Y-46290866D01*
X134838094Y-46290866D02*
X134838094Y-46214676D01*
X134838094Y-46214676D02*
X134876190Y-46138485D01*
X134876190Y-46138485D02*
X134914285Y-46100390D01*
X134914285Y-46100390D02*
X134990475Y-46062295D01*
X134990475Y-46062295D02*
X135180952Y-46062295D01*
X135180952Y-46062295D02*
X135295237Y-46100390D01*
X135638095Y-46443247D02*
X135904761Y-46443247D01*
X136019047Y-46862295D02*
X135638095Y-46862295D01*
X135638095Y-46862295D02*
X135638095Y-46062295D01*
X135638095Y-46062295D02*
X136019047Y-46062295D01*
X136971429Y-46862295D02*
X136971429Y-46062295D01*
X136971429Y-46062295D02*
X137238095Y-46633723D01*
X137238095Y-46633723D02*
X137504762Y-46062295D01*
X137504762Y-46062295D02*
X137504762Y-46862295D01*
X137847619Y-46633723D02*
X138228572Y-46633723D01*
X137771429Y-46862295D02*
X138038096Y-46062295D01*
X138038096Y-46062295D02*
X138304762Y-46862295D01*
X138495238Y-46062295D02*
X139028572Y-46862295D01*
X139028572Y-46062295D02*
X138495238Y-46862295D01*
X140285715Y-46062295D02*
X140133334Y-46062295D01*
X140133334Y-46062295D02*
X140057143Y-46100390D01*
X140057143Y-46100390D02*
X140019048Y-46138485D01*
X140019048Y-46138485D02*
X139942858Y-46252771D01*
X139942858Y-46252771D02*
X139904762Y-46405152D01*
X139904762Y-46405152D02*
X139904762Y-46709914D01*
X139904762Y-46709914D02*
X139942858Y-46786104D01*
X139942858Y-46786104D02*
X139980953Y-46824200D01*
X139980953Y-46824200D02*
X140057143Y-46862295D01*
X140057143Y-46862295D02*
X140209524Y-46862295D01*
X140209524Y-46862295D02*
X140285715Y-46824200D01*
X140285715Y-46824200D02*
X140323810Y-46786104D01*
X140323810Y-46786104D02*
X140361905Y-46709914D01*
X140361905Y-46709914D02*
X140361905Y-46519438D01*
X140361905Y-46519438D02*
X140323810Y-46443247D01*
X140323810Y-46443247D02*
X140285715Y-46405152D01*
X140285715Y-46405152D02*
X140209524Y-46367057D01*
X140209524Y-46367057D02*
X140057143Y-46367057D01*
X140057143Y-46367057D02*
X139980953Y-46405152D01*
X139980953Y-46405152D02*
X139942858Y-46443247D01*
X139942858Y-46443247D02*
X139904762Y-46519438D01*
X140704763Y-46786104D02*
X140742858Y-46824200D01*
X140742858Y-46824200D02*
X140704763Y-46862295D01*
X140704763Y-46862295D02*
X140666667Y-46824200D01*
X140666667Y-46824200D02*
X140704763Y-46786104D01*
X140704763Y-46786104D02*
X140704763Y-46862295D01*
X141238096Y-46062295D02*
X141314286Y-46062295D01*
X141314286Y-46062295D02*
X141390477Y-46100390D01*
X141390477Y-46100390D02*
X141428572Y-46138485D01*
X141428572Y-46138485D02*
X141466667Y-46214676D01*
X141466667Y-46214676D02*
X141504762Y-46367057D01*
X141504762Y-46367057D02*
X141504762Y-46557533D01*
X141504762Y-46557533D02*
X141466667Y-46709914D01*
X141466667Y-46709914D02*
X141428572Y-46786104D01*
X141428572Y-46786104D02*
X141390477Y-46824200D01*
X141390477Y-46824200D02*
X141314286Y-46862295D01*
X141314286Y-46862295D02*
X141238096Y-46862295D01*
X141238096Y-46862295D02*
X141161905Y-46824200D01*
X141161905Y-46824200D02*
X141123810Y-46786104D01*
X141123810Y-46786104D02*
X141085715Y-46709914D01*
X141085715Y-46709914D02*
X141047619Y-46557533D01*
X141047619Y-46557533D02*
X141047619Y-46367057D01*
X141047619Y-46367057D02*
X141085715Y-46214676D01*
X141085715Y-46214676D02*
X141123810Y-46138485D01*
X141123810Y-46138485D02*
X141161905Y-46100390D01*
X141161905Y-46100390D02*
X141238096Y-46062295D01*
X141733334Y-46062295D02*
X142000001Y-46862295D01*
X142000001Y-46862295D02*
X142266667Y-46062295D01*
X133676190Y-47562295D02*
X133676190Y-48133723D01*
X133676190Y-48133723D02*
X133638095Y-48248009D01*
X133638095Y-48248009D02*
X133561904Y-48324200D01*
X133561904Y-48324200D02*
X133447619Y-48362295D01*
X133447619Y-48362295D02*
X133371428Y-48362295D01*
X133980952Y-47562295D02*
X134514286Y-47562295D01*
X134514286Y-47562295D02*
X134171428Y-48362295D01*
X135695238Y-47943247D02*
X135809524Y-47981342D01*
X135809524Y-47981342D02*
X135847619Y-48019438D01*
X135847619Y-48019438D02*
X135885715Y-48095628D01*
X135885715Y-48095628D02*
X135885715Y-48209914D01*
X135885715Y-48209914D02*
X135847619Y-48286104D01*
X135847619Y-48286104D02*
X135809524Y-48324200D01*
X135809524Y-48324200D02*
X135733334Y-48362295D01*
X135733334Y-48362295D02*
X135428572Y-48362295D01*
X135428572Y-48362295D02*
X135428572Y-47562295D01*
X135428572Y-47562295D02*
X135695238Y-47562295D01*
X135695238Y-47562295D02*
X135771429Y-47600390D01*
X135771429Y-47600390D02*
X135809524Y-47638485D01*
X135809524Y-47638485D02*
X135847619Y-47714676D01*
X135847619Y-47714676D02*
X135847619Y-47790866D01*
X135847619Y-47790866D02*
X135809524Y-47867057D01*
X135809524Y-47867057D02*
X135771429Y-47905152D01*
X135771429Y-47905152D02*
X135695238Y-47943247D01*
X135695238Y-47943247D02*
X135428572Y-47943247D01*
X136190476Y-48133723D02*
X136571429Y-48133723D01*
X136114286Y-48362295D02*
X136380953Y-47562295D01*
X136380953Y-47562295D02*
X136647619Y-48362295D01*
X136800000Y-47562295D02*
X137257143Y-47562295D01*
X137028571Y-48362295D02*
X137028571Y-47562295D01*
X138552381Y-47600390D02*
X138476191Y-47562295D01*
X138476191Y-47562295D02*
X138361905Y-47562295D01*
X138361905Y-47562295D02*
X138247619Y-47600390D01*
X138247619Y-47600390D02*
X138171429Y-47676580D01*
X138171429Y-47676580D02*
X138133334Y-47752771D01*
X138133334Y-47752771D02*
X138095238Y-47905152D01*
X138095238Y-47905152D02*
X138095238Y-48019438D01*
X138095238Y-48019438D02*
X138133334Y-48171819D01*
X138133334Y-48171819D02*
X138171429Y-48248009D01*
X138171429Y-48248009D02*
X138247619Y-48324200D01*
X138247619Y-48324200D02*
X138361905Y-48362295D01*
X138361905Y-48362295D02*
X138438096Y-48362295D01*
X138438096Y-48362295D02*
X138552381Y-48324200D01*
X138552381Y-48324200D02*
X138590477Y-48286104D01*
X138590477Y-48286104D02*
X138590477Y-48019438D01*
X138590477Y-48019438D02*
X138438096Y-48019438D01*
X138542857Y-61133723D02*
X138923810Y-61133723D01*
X138466667Y-61362295D02*
X138733334Y-60562295D01*
X138733334Y-60562295D02*
X139000000Y-61362295D01*
X139266667Y-61362295D02*
X139266667Y-60562295D01*
X139266667Y-60562295D02*
X139723810Y-61362295D01*
X139723810Y-61362295D02*
X139723810Y-60562295D01*
X139990476Y-60562295D02*
X140447619Y-60562295D01*
X140219047Y-61362295D02*
X140219047Y-60562295D01*
X140714286Y-60943247D02*
X140980952Y-60943247D01*
X141095238Y-61362295D02*
X140714286Y-61362295D01*
X140714286Y-61362295D02*
X140714286Y-60562295D01*
X140714286Y-60562295D02*
X141095238Y-60562295D01*
X141438096Y-61362295D02*
X141438096Y-60562295D01*
X141438096Y-60562295D02*
X141895239Y-61362295D01*
X141895239Y-61362295D02*
X141895239Y-60562295D01*
X142276191Y-61362295D02*
X142276191Y-60562295D01*
X142276191Y-60562295D02*
X142733334Y-61362295D01*
X142733334Y-61362295D02*
X142733334Y-60562295D01*
X143076190Y-61133723D02*
X143457143Y-61133723D01*
X143000000Y-61362295D02*
X143266667Y-60562295D01*
X143266667Y-60562295D02*
X143533333Y-61362295D01*
X139599999Y-82062295D02*
X139599999Y-82633723D01*
X139599999Y-82633723D02*
X139561904Y-82748009D01*
X139561904Y-82748009D02*
X139485713Y-82824200D01*
X139485713Y-82824200D02*
X139371428Y-82862295D01*
X139371428Y-82862295D02*
X139295237Y-82862295D01*
X140323809Y-82062295D02*
X140171428Y-82062295D01*
X140171428Y-82062295D02*
X140095237Y-82100390D01*
X140095237Y-82100390D02*
X140057142Y-82138485D01*
X140057142Y-82138485D02*
X139980952Y-82252771D01*
X139980952Y-82252771D02*
X139942856Y-82405152D01*
X139942856Y-82405152D02*
X139942856Y-82709914D01*
X139942856Y-82709914D02*
X139980952Y-82786104D01*
X139980952Y-82786104D02*
X140019047Y-82824200D01*
X140019047Y-82824200D02*
X140095237Y-82862295D01*
X140095237Y-82862295D02*
X140247618Y-82862295D01*
X140247618Y-82862295D02*
X140323809Y-82824200D01*
X140323809Y-82824200D02*
X140361904Y-82786104D01*
X140361904Y-82786104D02*
X140399999Y-82709914D01*
X140399999Y-82709914D02*
X140399999Y-82519438D01*
X140399999Y-82519438D02*
X140361904Y-82443247D01*
X140361904Y-82443247D02*
X140323809Y-82405152D01*
X140323809Y-82405152D02*
X140247618Y-82367057D01*
X140247618Y-82367057D02*
X140095237Y-82367057D01*
X140095237Y-82367057D02*
X140019047Y-82405152D01*
X140019047Y-82405152D02*
X139980952Y-82443247D01*
X139980952Y-82443247D02*
X139942856Y-82519438D01*
X141733333Y-82862295D02*
X141352381Y-82862295D01*
X141352381Y-82862295D02*
X141352381Y-82062295D01*
X142000000Y-82862295D02*
X142000000Y-82062295D01*
X142000000Y-82062295D02*
X142190476Y-82062295D01*
X142190476Y-82062295D02*
X142304762Y-82100390D01*
X142304762Y-82100390D02*
X142380952Y-82176580D01*
X142380952Y-82176580D02*
X142419047Y-82252771D01*
X142419047Y-82252771D02*
X142457143Y-82405152D01*
X142457143Y-82405152D02*
X142457143Y-82519438D01*
X142457143Y-82519438D02*
X142419047Y-82671819D01*
X142419047Y-82671819D02*
X142380952Y-82748009D01*
X142380952Y-82748009D02*
X142304762Y-82824200D01*
X142304762Y-82824200D02*
X142190476Y-82862295D01*
X142190476Y-82862295D02*
X142000000Y-82862295D01*
X143257143Y-82862295D02*
X142990476Y-82481342D01*
X142800000Y-82862295D02*
X142800000Y-82062295D01*
X142800000Y-82062295D02*
X143104762Y-82062295D01*
X143104762Y-82062295D02*
X143180952Y-82100390D01*
X143180952Y-82100390D02*
X143219047Y-82138485D01*
X143219047Y-82138485D02*
X143257143Y-82214676D01*
X143257143Y-82214676D02*
X143257143Y-82328961D01*
X143257143Y-82328961D02*
X143219047Y-82405152D01*
X143219047Y-82405152D02*
X143180952Y-82443247D01*
X143180952Y-82443247D02*
X143104762Y-82481342D01*
X143104762Y-82481342D02*
X142800000Y-82481342D01*
X144628571Y-82100390D02*
X144552381Y-82062295D01*
X144552381Y-82062295D02*
X144438095Y-82062295D01*
X144438095Y-82062295D02*
X144323809Y-82100390D01*
X144323809Y-82100390D02*
X144247619Y-82176580D01*
X144247619Y-82176580D02*
X144209524Y-82252771D01*
X144209524Y-82252771D02*
X144171428Y-82405152D01*
X144171428Y-82405152D02*
X144171428Y-82519438D01*
X144171428Y-82519438D02*
X144209524Y-82671819D01*
X144209524Y-82671819D02*
X144247619Y-82748009D01*
X144247619Y-82748009D02*
X144323809Y-82824200D01*
X144323809Y-82824200D02*
X144438095Y-82862295D01*
X144438095Y-82862295D02*
X144514286Y-82862295D01*
X144514286Y-82862295D02*
X144628571Y-82824200D01*
X144628571Y-82824200D02*
X144666667Y-82786104D01*
X144666667Y-82786104D02*
X144666667Y-82519438D01*
X144666667Y-82519438D02*
X144514286Y-82519438D01*
X131107142Y-28008557D02*
X131107142Y-27108557D01*
X131107142Y-27108557D02*
X131449999Y-27108557D01*
X131449999Y-27108557D02*
X131535714Y-27151414D01*
X131535714Y-27151414D02*
X131578571Y-27194271D01*
X131578571Y-27194271D02*
X131621428Y-27279985D01*
X131621428Y-27279985D02*
X131621428Y-27408557D01*
X131621428Y-27408557D02*
X131578571Y-27494271D01*
X131578571Y-27494271D02*
X131535714Y-27537128D01*
X131535714Y-27537128D02*
X131449999Y-27579985D01*
X131449999Y-27579985D02*
X131107142Y-27579985D01*
X132178571Y-27108557D02*
X132349999Y-27108557D01*
X132349999Y-27108557D02*
X132435714Y-27151414D01*
X132435714Y-27151414D02*
X132521428Y-27237128D01*
X132521428Y-27237128D02*
X132564285Y-27408557D01*
X132564285Y-27408557D02*
X132564285Y-27708557D01*
X132564285Y-27708557D02*
X132521428Y-27879985D01*
X132521428Y-27879985D02*
X132435714Y-27965700D01*
X132435714Y-27965700D02*
X132349999Y-28008557D01*
X132349999Y-28008557D02*
X132178571Y-28008557D01*
X132178571Y-28008557D02*
X132092857Y-27965700D01*
X132092857Y-27965700D02*
X132007142Y-27879985D01*
X132007142Y-27879985D02*
X131964285Y-27708557D01*
X131964285Y-27708557D02*
X131964285Y-27408557D01*
X131964285Y-27408557D02*
X132007142Y-27237128D01*
X132007142Y-27237128D02*
X132092857Y-27151414D01*
X132092857Y-27151414D02*
X132178571Y-27108557D01*
X132864285Y-27108557D02*
X133078571Y-28008557D01*
X133078571Y-28008557D02*
X133249999Y-27365700D01*
X133249999Y-27365700D02*
X133421428Y-28008557D01*
X133421428Y-28008557D02*
X133635714Y-27108557D01*
X133978570Y-27537128D02*
X134278570Y-27537128D01*
X134407142Y-28008557D02*
X133978570Y-28008557D01*
X133978570Y-28008557D02*
X133978570Y-27108557D01*
X133978570Y-27108557D02*
X134407142Y-27108557D01*
X135307142Y-28008557D02*
X135007142Y-27579985D01*
X134792856Y-28008557D02*
X134792856Y-27108557D01*
X134792856Y-27108557D02*
X135135713Y-27108557D01*
X135135713Y-27108557D02*
X135221428Y-27151414D01*
X135221428Y-27151414D02*
X135264285Y-27194271D01*
X135264285Y-27194271D02*
X135307142Y-27279985D01*
X135307142Y-27279985D02*
X135307142Y-27408557D01*
X135307142Y-27408557D02*
X135264285Y-27494271D01*
X135264285Y-27494271D02*
X135221428Y-27537128D01*
X135221428Y-27537128D02*
X135135713Y-27579985D01*
X135135713Y-27579985D02*
X134792856Y-27579985D01*
X136292856Y-27108557D02*
X136892856Y-27108557D01*
X136892856Y-27108557D02*
X136507142Y-28008557D01*
X137235713Y-27665700D02*
X137921428Y-27665700D01*
X138821428Y-28008557D02*
X138307142Y-28008557D01*
X138564285Y-28008557D02*
X138564285Y-27108557D01*
X138564285Y-27108557D02*
X138478571Y-27237128D01*
X138478571Y-27237128D02*
X138392856Y-27322842D01*
X138392856Y-27322842D02*
X138307142Y-27365700D01*
X139335714Y-27494271D02*
X139249999Y-27451414D01*
X139249999Y-27451414D02*
X139207142Y-27408557D01*
X139207142Y-27408557D02*
X139164285Y-27322842D01*
X139164285Y-27322842D02*
X139164285Y-27279985D01*
X139164285Y-27279985D02*
X139207142Y-27194271D01*
X139207142Y-27194271D02*
X139249999Y-27151414D01*
X139249999Y-27151414D02*
X139335714Y-27108557D01*
X139335714Y-27108557D02*
X139507142Y-27108557D01*
X139507142Y-27108557D02*
X139592857Y-27151414D01*
X139592857Y-27151414D02*
X139635714Y-27194271D01*
X139635714Y-27194271D02*
X139678571Y-27279985D01*
X139678571Y-27279985D02*
X139678571Y-27322842D01*
X139678571Y-27322842D02*
X139635714Y-27408557D01*
X139635714Y-27408557D02*
X139592857Y-27451414D01*
X139592857Y-27451414D02*
X139507142Y-27494271D01*
X139507142Y-27494271D02*
X139335714Y-27494271D01*
X139335714Y-27494271D02*
X139249999Y-27537128D01*
X139249999Y-27537128D02*
X139207142Y-27579985D01*
X139207142Y-27579985D02*
X139164285Y-27665700D01*
X139164285Y-27665700D02*
X139164285Y-27837128D01*
X139164285Y-27837128D02*
X139207142Y-27922842D01*
X139207142Y-27922842D02*
X139249999Y-27965700D01*
X139249999Y-27965700D02*
X139335714Y-28008557D01*
X139335714Y-28008557D02*
X139507142Y-28008557D01*
X139507142Y-28008557D02*
X139592857Y-27965700D01*
X139592857Y-27965700D02*
X139635714Y-27922842D01*
X139635714Y-27922842D02*
X139678571Y-27837128D01*
X139678571Y-27837128D02*
X139678571Y-27665700D01*
X139678571Y-27665700D02*
X139635714Y-27579985D01*
X139635714Y-27579985D02*
X139592857Y-27537128D01*
X139592857Y-27537128D02*
X139507142Y-27494271D01*
X139935714Y-27108557D02*
X140235714Y-28008557D01*
X140235714Y-28008557D02*
X140535714Y-27108557D01*
X141521428Y-28008557D02*
X141521428Y-27108557D01*
X141521428Y-27108557D02*
X141735714Y-27108557D01*
X141735714Y-27108557D02*
X141864285Y-27151414D01*
X141864285Y-27151414D02*
X141950000Y-27237128D01*
X141950000Y-27237128D02*
X141992857Y-27322842D01*
X141992857Y-27322842D02*
X142035714Y-27494271D01*
X142035714Y-27494271D02*
X142035714Y-27622842D01*
X142035714Y-27622842D02*
X141992857Y-27794271D01*
X141992857Y-27794271D02*
X141950000Y-27879985D01*
X141950000Y-27879985D02*
X141864285Y-27965700D01*
X141864285Y-27965700D02*
X141735714Y-28008557D01*
X141735714Y-28008557D02*
X141521428Y-28008557D01*
X142935714Y-27922842D02*
X142892857Y-27965700D01*
X142892857Y-27965700D02*
X142764285Y-28008557D01*
X142764285Y-28008557D02*
X142678571Y-28008557D01*
X142678571Y-28008557D02*
X142550000Y-27965700D01*
X142550000Y-27965700D02*
X142464285Y-27879985D01*
X142464285Y-27879985D02*
X142421428Y-27794271D01*
X142421428Y-27794271D02*
X142378571Y-27622842D01*
X142378571Y-27622842D02*
X142378571Y-27494271D01*
X142378571Y-27494271D02*
X142421428Y-27322842D01*
X142421428Y-27322842D02*
X142464285Y-27237128D01*
X142464285Y-27237128D02*
X142550000Y-27151414D01*
X142550000Y-27151414D02*
X142678571Y-27108557D01*
X142678571Y-27108557D02*
X142764285Y-27108557D01*
X142764285Y-27108557D02*
X142892857Y-27151414D01*
X142892857Y-27151414D02*
X142935714Y-27194271D01*
X43523809Y-62454819D02*
X43523809Y-63264342D01*
X43523809Y-63264342D02*
X43571428Y-63359580D01*
X43571428Y-63359580D02*
X43619047Y-63407200D01*
X43619047Y-63407200D02*
X43714285Y-63454819D01*
X43714285Y-63454819D02*
X43904761Y-63454819D01*
X43904761Y-63454819D02*
X43999999Y-63407200D01*
X43999999Y-63407200D02*
X44047618Y-63359580D01*
X44047618Y-63359580D02*
X44095237Y-63264342D01*
X44095237Y-63264342D02*
X44095237Y-62454819D01*
X45095237Y-63454819D02*
X44523809Y-63454819D01*
X44809523Y-63454819D02*
X44809523Y-62454819D01*
X44809523Y-62454819D02*
X44714285Y-62597676D01*
X44714285Y-62597676D02*
X44619047Y-62692914D01*
X44619047Y-62692914D02*
X44523809Y-62740533D01*
X46285714Y-62931009D02*
X46619047Y-62931009D01*
X46761904Y-63454819D02*
X46285714Y-63454819D01*
X46285714Y-63454819D02*
X46285714Y-62454819D01*
X46285714Y-62454819D02*
X46761904Y-62454819D01*
X47142857Y-63407200D02*
X47285714Y-63454819D01*
X47285714Y-63454819D02*
X47523809Y-63454819D01*
X47523809Y-63454819D02*
X47619047Y-63407200D01*
X47619047Y-63407200D02*
X47666666Y-63359580D01*
X47666666Y-63359580D02*
X47714285Y-63264342D01*
X47714285Y-63264342D02*
X47714285Y-63169104D01*
X47714285Y-63169104D02*
X47666666Y-63073866D01*
X47666666Y-63073866D02*
X47619047Y-63026247D01*
X47619047Y-63026247D02*
X47523809Y-62978628D01*
X47523809Y-62978628D02*
X47333333Y-62931009D01*
X47333333Y-62931009D02*
X47238095Y-62883390D01*
X47238095Y-62883390D02*
X47190476Y-62835771D01*
X47190476Y-62835771D02*
X47142857Y-62740533D01*
X47142857Y-62740533D02*
X47142857Y-62645295D01*
X47142857Y-62645295D02*
X47190476Y-62550057D01*
X47190476Y-62550057D02*
X47238095Y-62502438D01*
X47238095Y-62502438D02*
X47333333Y-62454819D01*
X47333333Y-62454819D02*
X47571428Y-62454819D01*
X47571428Y-62454819D02*
X47714285Y-62502438D01*
X48142857Y-63454819D02*
X48142857Y-62454819D01*
X48142857Y-62454819D02*
X48523809Y-62454819D01*
X48523809Y-62454819D02*
X48619047Y-62502438D01*
X48619047Y-62502438D02*
X48666666Y-62550057D01*
X48666666Y-62550057D02*
X48714285Y-62645295D01*
X48714285Y-62645295D02*
X48714285Y-62788152D01*
X48714285Y-62788152D02*
X48666666Y-62883390D01*
X48666666Y-62883390D02*
X48619047Y-62931009D01*
X48619047Y-62931009D02*
X48523809Y-62978628D01*
X48523809Y-62978628D02*
X48142857Y-62978628D01*
X49047619Y-62454819D02*
X49666666Y-62454819D01*
X49666666Y-62454819D02*
X49333333Y-62835771D01*
X49333333Y-62835771D02*
X49476190Y-62835771D01*
X49476190Y-62835771D02*
X49571428Y-62883390D01*
X49571428Y-62883390D02*
X49619047Y-62931009D01*
X49619047Y-62931009D02*
X49666666Y-63026247D01*
X49666666Y-63026247D02*
X49666666Y-63264342D01*
X49666666Y-63264342D02*
X49619047Y-63359580D01*
X49619047Y-63359580D02*
X49571428Y-63407200D01*
X49571428Y-63407200D02*
X49476190Y-63454819D01*
X49476190Y-63454819D02*
X49190476Y-63454819D01*
X49190476Y-63454819D02*
X49095238Y-63407200D01*
X49095238Y-63407200D02*
X49047619Y-63359580D01*
X50047619Y-62550057D02*
X50095238Y-62502438D01*
X50095238Y-62502438D02*
X50190476Y-62454819D01*
X50190476Y-62454819D02*
X50428571Y-62454819D01*
X50428571Y-62454819D02*
X50523809Y-62502438D01*
X50523809Y-62502438D02*
X50571428Y-62550057D01*
X50571428Y-62550057D02*
X50619047Y-62645295D01*
X50619047Y-62645295D02*
X50619047Y-62740533D01*
X50619047Y-62740533D02*
X50571428Y-62883390D01*
X50571428Y-62883390D02*
X50000000Y-63454819D01*
X50000000Y-63454819D02*
X50619047Y-63454819D01*
X51047619Y-63073866D02*
X51809524Y-63073866D01*
X52238095Y-63407200D02*
X52380952Y-63454819D01*
X52380952Y-63454819D02*
X52619047Y-63454819D01*
X52619047Y-63454819D02*
X52714285Y-63407200D01*
X52714285Y-63407200D02*
X52761904Y-63359580D01*
X52761904Y-63359580D02*
X52809523Y-63264342D01*
X52809523Y-63264342D02*
X52809523Y-63169104D01*
X52809523Y-63169104D02*
X52761904Y-63073866D01*
X52761904Y-63073866D02*
X52714285Y-63026247D01*
X52714285Y-63026247D02*
X52619047Y-62978628D01*
X52619047Y-62978628D02*
X52428571Y-62931009D01*
X52428571Y-62931009D02*
X52333333Y-62883390D01*
X52333333Y-62883390D02*
X52285714Y-62835771D01*
X52285714Y-62835771D02*
X52238095Y-62740533D01*
X52238095Y-62740533D02*
X52238095Y-62645295D01*
X52238095Y-62645295D02*
X52285714Y-62550057D01*
X52285714Y-62550057D02*
X52333333Y-62502438D01*
X52333333Y-62502438D02*
X52428571Y-62454819D01*
X52428571Y-62454819D02*
X52666666Y-62454819D01*
X52666666Y-62454819D02*
X52809523Y-62502438D01*
X53142857Y-62454819D02*
X53761904Y-62454819D01*
X53761904Y-62454819D02*
X53428571Y-62835771D01*
X53428571Y-62835771D02*
X53571428Y-62835771D01*
X53571428Y-62835771D02*
X53666666Y-62883390D01*
X53666666Y-62883390D02*
X53714285Y-62931009D01*
X53714285Y-62931009D02*
X53761904Y-63026247D01*
X53761904Y-63026247D02*
X53761904Y-63264342D01*
X53761904Y-63264342D02*
X53714285Y-63359580D01*
X53714285Y-63359580D02*
X53666666Y-63407200D01*
X53666666Y-63407200D02*
X53571428Y-63454819D01*
X53571428Y-63454819D02*
X53285714Y-63454819D01*
X53285714Y-63454819D02*
X53190476Y-63407200D01*
X53190476Y-63407200D02*
X53142857Y-63359580D01*
X54952381Y-63454819D02*
X54952381Y-62454819D01*
X54952381Y-62454819D02*
X55190476Y-62454819D01*
X55190476Y-62454819D02*
X55333333Y-62502438D01*
X55333333Y-62502438D02*
X55428571Y-62597676D01*
X55428571Y-62597676D02*
X55476190Y-62692914D01*
X55476190Y-62692914D02*
X55523809Y-62883390D01*
X55523809Y-62883390D02*
X55523809Y-63026247D01*
X55523809Y-63026247D02*
X55476190Y-63216723D01*
X55476190Y-63216723D02*
X55428571Y-63311961D01*
X55428571Y-63311961D02*
X55333333Y-63407200D01*
X55333333Y-63407200D02*
X55190476Y-63454819D01*
X55190476Y-63454819D02*
X54952381Y-63454819D01*
X55952381Y-62931009D02*
X56285714Y-62931009D01*
X56428571Y-63454819D02*
X55952381Y-63454819D01*
X55952381Y-63454819D02*
X55952381Y-62454819D01*
X55952381Y-62454819D02*
X56428571Y-62454819D01*
X56714286Y-62454819D02*
X57047619Y-63454819D01*
X57047619Y-63454819D02*
X57380952Y-62454819D01*
X57714286Y-63454819D02*
X57714286Y-62454819D01*
X58285714Y-63454819D02*
X57857143Y-62883390D01*
X58285714Y-62454819D02*
X57714286Y-63026247D01*
X58714286Y-63454819D02*
X58714286Y-62454819D01*
X59047619Y-62454819D02*
X59619047Y-62454819D01*
X59333333Y-63454819D02*
X59333333Y-62454819D01*
X80190476Y-33731009D02*
X80523809Y-33731009D01*
X80666666Y-34254819D02*
X80190476Y-34254819D01*
X80190476Y-34254819D02*
X80190476Y-33254819D01*
X80190476Y-33254819D02*
X80666666Y-33254819D01*
X81047619Y-34207200D02*
X81190476Y-34254819D01*
X81190476Y-34254819D02*
X81428571Y-34254819D01*
X81428571Y-34254819D02*
X81523809Y-34207200D01*
X81523809Y-34207200D02*
X81571428Y-34159580D01*
X81571428Y-34159580D02*
X81619047Y-34064342D01*
X81619047Y-34064342D02*
X81619047Y-33969104D01*
X81619047Y-33969104D02*
X81571428Y-33873866D01*
X81571428Y-33873866D02*
X81523809Y-33826247D01*
X81523809Y-33826247D02*
X81428571Y-33778628D01*
X81428571Y-33778628D02*
X81238095Y-33731009D01*
X81238095Y-33731009D02*
X81142857Y-33683390D01*
X81142857Y-33683390D02*
X81095238Y-33635771D01*
X81095238Y-33635771D02*
X81047619Y-33540533D01*
X81047619Y-33540533D02*
X81047619Y-33445295D01*
X81047619Y-33445295D02*
X81095238Y-33350057D01*
X81095238Y-33350057D02*
X81142857Y-33302438D01*
X81142857Y-33302438D02*
X81238095Y-33254819D01*
X81238095Y-33254819D02*
X81476190Y-33254819D01*
X81476190Y-33254819D02*
X81619047Y-33302438D01*
X82047619Y-34254819D02*
X82047619Y-33254819D01*
X82047619Y-33254819D02*
X82428571Y-33254819D01*
X82428571Y-33254819D02*
X82523809Y-33302438D01*
X82523809Y-33302438D02*
X82571428Y-33350057D01*
X82571428Y-33350057D02*
X82619047Y-33445295D01*
X82619047Y-33445295D02*
X82619047Y-33588152D01*
X82619047Y-33588152D02*
X82571428Y-33683390D01*
X82571428Y-33683390D02*
X82523809Y-33731009D01*
X82523809Y-33731009D02*
X82428571Y-33778628D01*
X82428571Y-33778628D02*
X82047619Y-33778628D01*
X82952381Y-33254819D02*
X83571428Y-33254819D01*
X83571428Y-33254819D02*
X83238095Y-33635771D01*
X83238095Y-33635771D02*
X83380952Y-33635771D01*
X83380952Y-33635771D02*
X83476190Y-33683390D01*
X83476190Y-33683390D02*
X83523809Y-33731009D01*
X83523809Y-33731009D02*
X83571428Y-33826247D01*
X83571428Y-33826247D02*
X83571428Y-34064342D01*
X83571428Y-34064342D02*
X83523809Y-34159580D01*
X83523809Y-34159580D02*
X83476190Y-34207200D01*
X83476190Y-34207200D02*
X83380952Y-34254819D01*
X83380952Y-34254819D02*
X83095238Y-34254819D01*
X83095238Y-34254819D02*
X83000000Y-34207200D01*
X83000000Y-34207200D02*
X82952381Y-34159580D01*
X83952381Y-33350057D02*
X84000000Y-33302438D01*
X84000000Y-33302438D02*
X84095238Y-33254819D01*
X84095238Y-33254819D02*
X84333333Y-33254819D01*
X84333333Y-33254819D02*
X84428571Y-33302438D01*
X84428571Y-33302438D02*
X84476190Y-33350057D01*
X84476190Y-33350057D02*
X84523809Y-33445295D01*
X84523809Y-33445295D02*
X84523809Y-33540533D01*
X84523809Y-33540533D02*
X84476190Y-33683390D01*
X84476190Y-33683390D02*
X83904762Y-34254819D01*
X83904762Y-34254819D02*
X84523809Y-34254819D01*
X84952381Y-33873866D02*
X85714286Y-33873866D01*
X86142857Y-34207200D02*
X86285714Y-34254819D01*
X86285714Y-34254819D02*
X86523809Y-34254819D01*
X86523809Y-34254819D02*
X86619047Y-34207200D01*
X86619047Y-34207200D02*
X86666666Y-34159580D01*
X86666666Y-34159580D02*
X86714285Y-34064342D01*
X86714285Y-34064342D02*
X86714285Y-33969104D01*
X86714285Y-33969104D02*
X86666666Y-33873866D01*
X86666666Y-33873866D02*
X86619047Y-33826247D01*
X86619047Y-33826247D02*
X86523809Y-33778628D01*
X86523809Y-33778628D02*
X86333333Y-33731009D01*
X86333333Y-33731009D02*
X86238095Y-33683390D01*
X86238095Y-33683390D02*
X86190476Y-33635771D01*
X86190476Y-33635771D02*
X86142857Y-33540533D01*
X86142857Y-33540533D02*
X86142857Y-33445295D01*
X86142857Y-33445295D02*
X86190476Y-33350057D01*
X86190476Y-33350057D02*
X86238095Y-33302438D01*
X86238095Y-33302438D02*
X86333333Y-33254819D01*
X86333333Y-33254819D02*
X86571428Y-33254819D01*
X86571428Y-33254819D02*
X86714285Y-33302438D01*
X87047619Y-33254819D02*
X87666666Y-33254819D01*
X87666666Y-33254819D02*
X87333333Y-33635771D01*
X87333333Y-33635771D02*
X87476190Y-33635771D01*
X87476190Y-33635771D02*
X87571428Y-33683390D01*
X87571428Y-33683390D02*
X87619047Y-33731009D01*
X87619047Y-33731009D02*
X87666666Y-33826247D01*
X87666666Y-33826247D02*
X87666666Y-34064342D01*
X87666666Y-34064342D02*
X87619047Y-34159580D01*
X87619047Y-34159580D02*
X87571428Y-34207200D01*
X87571428Y-34207200D02*
X87476190Y-34254819D01*
X87476190Y-34254819D02*
X87190476Y-34254819D01*
X87190476Y-34254819D02*
X87095238Y-34207200D01*
X87095238Y-34207200D02*
X87047619Y-34159580D01*
X88857143Y-33873866D02*
X89619048Y-33873866D01*
X89238095Y-34254819D02*
X89238095Y-33492914D01*
X91428571Y-34254819D02*
X91095238Y-33778628D01*
X90857143Y-34254819D02*
X90857143Y-33254819D01*
X90857143Y-33254819D02*
X91238095Y-33254819D01*
X91238095Y-33254819D02*
X91333333Y-33302438D01*
X91333333Y-33302438D02*
X91380952Y-33350057D01*
X91380952Y-33350057D02*
X91428571Y-33445295D01*
X91428571Y-33445295D02*
X91428571Y-33588152D01*
X91428571Y-33588152D02*
X91380952Y-33683390D01*
X91380952Y-33683390D02*
X91333333Y-33731009D01*
X91333333Y-33731009D02*
X91238095Y-33778628D01*
X91238095Y-33778628D02*
X90857143Y-33778628D01*
X92190476Y-33731009D02*
X91857143Y-33731009D01*
X91857143Y-34254819D02*
X91857143Y-33254819D01*
X91857143Y-33254819D02*
X92333333Y-33254819D01*
X92714286Y-34254819D02*
X92714286Y-33254819D01*
X92714286Y-33254819D02*
X93047619Y-33969104D01*
X93047619Y-33969104D02*
X93380952Y-33254819D01*
X93380952Y-33254819D02*
X93380952Y-34254819D01*
X93904762Y-34254819D02*
X94095238Y-34254819D01*
X94095238Y-34254819D02*
X94190476Y-34207200D01*
X94190476Y-34207200D02*
X94238095Y-34159580D01*
X94238095Y-34159580D02*
X94333333Y-34016723D01*
X94333333Y-34016723D02*
X94380952Y-33826247D01*
X94380952Y-33826247D02*
X94380952Y-33445295D01*
X94380952Y-33445295D02*
X94333333Y-33350057D01*
X94333333Y-33350057D02*
X94285714Y-33302438D01*
X94285714Y-33302438D02*
X94190476Y-33254819D01*
X94190476Y-33254819D02*
X94000000Y-33254819D01*
X94000000Y-33254819D02*
X93904762Y-33302438D01*
X93904762Y-33302438D02*
X93857143Y-33350057D01*
X93857143Y-33350057D02*
X93809524Y-33445295D01*
X93809524Y-33445295D02*
X93809524Y-33683390D01*
X93809524Y-33683390D02*
X93857143Y-33778628D01*
X93857143Y-33778628D02*
X93904762Y-33826247D01*
X93904762Y-33826247D02*
X94000000Y-33873866D01*
X94000000Y-33873866D02*
X94190476Y-33873866D01*
X94190476Y-33873866D02*
X94285714Y-33826247D01*
X94285714Y-33826247D02*
X94333333Y-33778628D01*
X94333333Y-33778628D02*
X94380952Y-33683390D01*
X95285714Y-33254819D02*
X94809524Y-33254819D01*
X94809524Y-33254819D02*
X94761905Y-33731009D01*
X94761905Y-33731009D02*
X94809524Y-33683390D01*
X94809524Y-33683390D02*
X94904762Y-33635771D01*
X94904762Y-33635771D02*
X95142857Y-33635771D01*
X95142857Y-33635771D02*
X95238095Y-33683390D01*
X95238095Y-33683390D02*
X95285714Y-33731009D01*
X95285714Y-33731009D02*
X95333333Y-33826247D01*
X95333333Y-33826247D02*
X95333333Y-34064342D01*
X95333333Y-34064342D02*
X95285714Y-34159580D01*
X95285714Y-34159580D02*
X95238095Y-34207200D01*
X95238095Y-34207200D02*
X95142857Y-34254819D01*
X95142857Y-34254819D02*
X94904762Y-34254819D01*
X94904762Y-34254819D02*
X94809524Y-34207200D01*
X94809524Y-34207200D02*
X94761905Y-34159580D01*
X95666667Y-33254819D02*
X95904762Y-34254819D01*
X95904762Y-34254819D02*
X96095238Y-33540533D01*
X96095238Y-33540533D02*
X96285714Y-34254819D01*
X96285714Y-34254819D02*
X96523810Y-33254819D01*
X97809524Y-33683390D02*
X97714286Y-33635771D01*
X97714286Y-33635771D02*
X97666667Y-33588152D01*
X97666667Y-33588152D02*
X97619048Y-33492914D01*
X97619048Y-33492914D02*
X97619048Y-33445295D01*
X97619048Y-33445295D02*
X97666667Y-33350057D01*
X97666667Y-33350057D02*
X97714286Y-33302438D01*
X97714286Y-33302438D02*
X97809524Y-33254819D01*
X97809524Y-33254819D02*
X98000000Y-33254819D01*
X98000000Y-33254819D02*
X98095238Y-33302438D01*
X98095238Y-33302438D02*
X98142857Y-33350057D01*
X98142857Y-33350057D02*
X98190476Y-33445295D01*
X98190476Y-33445295D02*
X98190476Y-33492914D01*
X98190476Y-33492914D02*
X98142857Y-33588152D01*
X98142857Y-33588152D02*
X98095238Y-33635771D01*
X98095238Y-33635771D02*
X98000000Y-33683390D01*
X98000000Y-33683390D02*
X97809524Y-33683390D01*
X97809524Y-33683390D02*
X97714286Y-33731009D01*
X97714286Y-33731009D02*
X97666667Y-33778628D01*
X97666667Y-33778628D02*
X97619048Y-33873866D01*
X97619048Y-33873866D02*
X97619048Y-34064342D01*
X97619048Y-34064342D02*
X97666667Y-34159580D01*
X97666667Y-34159580D02*
X97714286Y-34207200D01*
X97714286Y-34207200D02*
X97809524Y-34254819D01*
X97809524Y-34254819D02*
X98000000Y-34254819D01*
X98000000Y-34254819D02*
X98095238Y-34207200D01*
X98095238Y-34207200D02*
X98142857Y-34159580D01*
X98142857Y-34159580D02*
X98190476Y-34064342D01*
X98190476Y-34064342D02*
X98190476Y-33873866D01*
X98190476Y-33873866D02*
X98142857Y-33778628D01*
X98142857Y-33778628D02*
X98095238Y-33731009D01*
X98095238Y-33731009D02*
X98000000Y-33683390D01*
X99047619Y-33254819D02*
X98857143Y-33254819D01*
X98857143Y-33254819D02*
X98761905Y-33302438D01*
X98761905Y-33302438D02*
X98714286Y-33350057D01*
X98714286Y-33350057D02*
X98619048Y-33492914D01*
X98619048Y-33492914D02*
X98571429Y-33683390D01*
X98571429Y-33683390D02*
X98571429Y-34064342D01*
X98571429Y-34064342D02*
X98619048Y-34159580D01*
X98619048Y-34159580D02*
X98666667Y-34207200D01*
X98666667Y-34207200D02*
X98761905Y-34254819D01*
X98761905Y-34254819D02*
X98952381Y-34254819D01*
X98952381Y-34254819D02*
X99047619Y-34207200D01*
X99047619Y-34207200D02*
X99095238Y-34159580D01*
X99095238Y-34159580D02*
X99142857Y-34064342D01*
X99142857Y-34064342D02*
X99142857Y-33826247D01*
X99142857Y-33826247D02*
X99095238Y-33731009D01*
X99095238Y-33731009D02*
X99047619Y-33683390D01*
X99047619Y-33683390D02*
X98952381Y-33635771D01*
X98952381Y-33635771D02*
X98761905Y-33635771D01*
X98761905Y-33635771D02*
X98666667Y-33683390D01*
X98666667Y-33683390D02*
X98619048Y-33731009D01*
X98619048Y-33731009D02*
X98571429Y-33826247D01*
X99714286Y-33683390D02*
X99619048Y-33635771D01*
X99619048Y-33635771D02*
X99571429Y-33588152D01*
X99571429Y-33588152D02*
X99523810Y-33492914D01*
X99523810Y-33492914D02*
X99523810Y-33445295D01*
X99523810Y-33445295D02*
X99571429Y-33350057D01*
X99571429Y-33350057D02*
X99619048Y-33302438D01*
X99619048Y-33302438D02*
X99714286Y-33254819D01*
X99714286Y-33254819D02*
X99904762Y-33254819D01*
X99904762Y-33254819D02*
X100000000Y-33302438D01*
X100000000Y-33302438D02*
X100047619Y-33350057D01*
X100047619Y-33350057D02*
X100095238Y-33445295D01*
X100095238Y-33445295D02*
X100095238Y-33492914D01*
X100095238Y-33492914D02*
X100047619Y-33588152D01*
X100047619Y-33588152D02*
X100000000Y-33635771D01*
X100000000Y-33635771D02*
X99904762Y-33683390D01*
X99904762Y-33683390D02*
X99714286Y-33683390D01*
X99714286Y-33683390D02*
X99619048Y-33731009D01*
X99619048Y-33731009D02*
X99571429Y-33778628D01*
X99571429Y-33778628D02*
X99523810Y-33873866D01*
X99523810Y-33873866D02*
X99523810Y-34064342D01*
X99523810Y-34064342D02*
X99571429Y-34159580D01*
X99571429Y-34159580D02*
X99619048Y-34207200D01*
X99619048Y-34207200D02*
X99714286Y-34254819D01*
X99714286Y-34254819D02*
X99904762Y-34254819D01*
X99904762Y-34254819D02*
X100000000Y-34207200D01*
X100000000Y-34207200D02*
X100047619Y-34159580D01*
X100047619Y-34159580D02*
X100095238Y-34064342D01*
X100095238Y-34064342D02*
X100095238Y-33873866D01*
X100095238Y-33873866D02*
X100047619Y-33778628D01*
X100047619Y-33778628D02*
X100000000Y-33731009D01*
X100000000Y-33731009D02*
X99904762Y-33683390D01*
X101285715Y-34254819D02*
X101285715Y-33254819D01*
X101285715Y-33254819D02*
X101619048Y-33969104D01*
X101619048Y-33969104D02*
X101952381Y-33254819D01*
X101952381Y-33254819D02*
X101952381Y-34254819D01*
X102428572Y-34254819D02*
X102428572Y-33254819D01*
X102428572Y-33731009D02*
X103000000Y-33731009D01*
X103000000Y-34254819D02*
X103000000Y-33254819D01*
X103380953Y-33588152D02*
X103904762Y-33588152D01*
X103904762Y-33588152D02*
X103380953Y-34254819D01*
X103380953Y-34254819D02*
X103904762Y-34254819D01*
X97833333Y-48454819D02*
X97833333Y-49264342D01*
X97833333Y-49264342D02*
X97880952Y-49359580D01*
X97880952Y-49359580D02*
X97928571Y-49407200D01*
X97928571Y-49407200D02*
X98023809Y-49454819D01*
X98023809Y-49454819D02*
X98214285Y-49454819D01*
X98214285Y-49454819D02*
X98309523Y-49407200D01*
X98309523Y-49407200D02*
X98357142Y-49359580D01*
X98357142Y-49359580D02*
X98404761Y-49264342D01*
X98404761Y-49264342D02*
X98404761Y-48454819D01*
X98833333Y-48550057D02*
X98880952Y-48502438D01*
X98880952Y-48502438D02*
X98976190Y-48454819D01*
X98976190Y-48454819D02*
X99214285Y-48454819D01*
X99214285Y-48454819D02*
X99309523Y-48502438D01*
X99309523Y-48502438D02*
X99357142Y-48550057D01*
X99357142Y-48550057D02*
X99404761Y-48645295D01*
X99404761Y-48645295D02*
X99404761Y-48740533D01*
X99404761Y-48740533D02*
X99357142Y-48883390D01*
X99357142Y-48883390D02*
X98785714Y-49454819D01*
X98785714Y-49454819D02*
X99404761Y-49454819D01*
X101166666Y-49454819D02*
X100833333Y-48978628D01*
X100595238Y-49454819D02*
X100595238Y-48454819D01*
X100595238Y-48454819D02*
X100976190Y-48454819D01*
X100976190Y-48454819D02*
X101071428Y-48502438D01*
X101071428Y-48502438D02*
X101119047Y-48550057D01*
X101119047Y-48550057D02*
X101166666Y-48645295D01*
X101166666Y-48645295D02*
X101166666Y-48788152D01*
X101166666Y-48788152D02*
X101119047Y-48883390D01*
X101119047Y-48883390D02*
X101071428Y-48931009D01*
X101071428Y-48931009D02*
X100976190Y-48978628D01*
X100976190Y-48978628D02*
X100595238Y-48978628D01*
X101928571Y-48931009D02*
X101595238Y-48931009D01*
X101595238Y-49454819D02*
X101595238Y-48454819D01*
X101595238Y-48454819D02*
X102071428Y-48454819D01*
X102452381Y-49454819D02*
X102452381Y-48454819D01*
X102452381Y-48454819D02*
X102785714Y-49169104D01*
X102785714Y-49169104D02*
X103119047Y-48454819D01*
X103119047Y-48454819D02*
X103119047Y-49454819D01*
X103642857Y-49454819D02*
X103833333Y-49454819D01*
X103833333Y-49454819D02*
X103928571Y-49407200D01*
X103928571Y-49407200D02*
X103976190Y-49359580D01*
X103976190Y-49359580D02*
X104071428Y-49216723D01*
X104071428Y-49216723D02*
X104119047Y-49026247D01*
X104119047Y-49026247D02*
X104119047Y-48645295D01*
X104119047Y-48645295D02*
X104071428Y-48550057D01*
X104071428Y-48550057D02*
X104023809Y-48502438D01*
X104023809Y-48502438D02*
X103928571Y-48454819D01*
X103928571Y-48454819D02*
X103738095Y-48454819D01*
X103738095Y-48454819D02*
X103642857Y-48502438D01*
X103642857Y-48502438D02*
X103595238Y-48550057D01*
X103595238Y-48550057D02*
X103547619Y-48645295D01*
X103547619Y-48645295D02*
X103547619Y-48883390D01*
X103547619Y-48883390D02*
X103595238Y-48978628D01*
X103595238Y-48978628D02*
X103642857Y-49026247D01*
X103642857Y-49026247D02*
X103738095Y-49073866D01*
X103738095Y-49073866D02*
X103928571Y-49073866D01*
X103928571Y-49073866D02*
X104023809Y-49026247D01*
X104023809Y-49026247D02*
X104071428Y-48978628D01*
X104071428Y-48978628D02*
X104119047Y-48883390D01*
X105023809Y-48454819D02*
X104547619Y-48454819D01*
X104547619Y-48454819D02*
X104500000Y-48931009D01*
X104500000Y-48931009D02*
X104547619Y-48883390D01*
X104547619Y-48883390D02*
X104642857Y-48835771D01*
X104642857Y-48835771D02*
X104880952Y-48835771D01*
X104880952Y-48835771D02*
X104976190Y-48883390D01*
X104976190Y-48883390D02*
X105023809Y-48931009D01*
X105023809Y-48931009D02*
X105071428Y-49026247D01*
X105071428Y-49026247D02*
X105071428Y-49264342D01*
X105071428Y-49264342D02*
X105023809Y-49359580D01*
X105023809Y-49359580D02*
X104976190Y-49407200D01*
X104976190Y-49407200D02*
X104880952Y-49454819D01*
X104880952Y-49454819D02*
X104642857Y-49454819D01*
X104642857Y-49454819D02*
X104547619Y-49407200D01*
X104547619Y-49407200D02*
X104500000Y-49359580D01*
X105404762Y-48454819D02*
X105642857Y-49454819D01*
X105642857Y-49454819D02*
X105833333Y-48740533D01*
X105833333Y-48740533D02*
X106023809Y-49454819D01*
X106023809Y-49454819D02*
X106261905Y-48454819D01*
X76392858Y-28257557D02*
X77107144Y-28257557D01*
X76250001Y-28686128D02*
X76750001Y-27186128D01*
X76750001Y-27186128D02*
X77250001Y-28686128D01*
X77750000Y-28686128D02*
X77750000Y-27186128D01*
X77750000Y-27186128D02*
X78250000Y-28257557D01*
X78250000Y-28257557D02*
X78750000Y-27186128D01*
X78750000Y-27186128D02*
X78750000Y-28686128D01*
X80321429Y-28686128D02*
X79821429Y-27971842D01*
X79464286Y-28686128D02*
X79464286Y-27186128D01*
X79464286Y-27186128D02*
X80035715Y-27186128D01*
X80035715Y-27186128D02*
X80178572Y-27257557D01*
X80178572Y-27257557D02*
X80250001Y-27328985D01*
X80250001Y-27328985D02*
X80321429Y-27471842D01*
X80321429Y-27471842D02*
X80321429Y-27686128D01*
X80321429Y-27686128D02*
X80250001Y-27828985D01*
X80250001Y-27828985D02*
X80178572Y-27900414D01*
X80178572Y-27900414D02*
X80035715Y-27971842D01*
X80035715Y-27971842D02*
X79464286Y-27971842D01*
X82964286Y-28543271D02*
X82892858Y-28614700D01*
X82892858Y-28614700D02*
X82678572Y-28686128D01*
X82678572Y-28686128D02*
X82535715Y-28686128D01*
X82535715Y-28686128D02*
X82321429Y-28614700D01*
X82321429Y-28614700D02*
X82178572Y-28471842D01*
X82178572Y-28471842D02*
X82107143Y-28328985D01*
X82107143Y-28328985D02*
X82035715Y-28043271D01*
X82035715Y-28043271D02*
X82035715Y-27828985D01*
X82035715Y-27828985D02*
X82107143Y-27543271D01*
X82107143Y-27543271D02*
X82178572Y-27400414D01*
X82178572Y-27400414D02*
X82321429Y-27257557D01*
X82321429Y-27257557D02*
X82535715Y-27186128D01*
X82535715Y-27186128D02*
X82678572Y-27186128D01*
X82678572Y-27186128D02*
X82892858Y-27257557D01*
X82892858Y-27257557D02*
X82964286Y-27328985D01*
X83607143Y-27900414D02*
X84107143Y-27900414D01*
X84321429Y-28686128D02*
X83607143Y-28686128D01*
X83607143Y-28686128D02*
X83607143Y-27186128D01*
X83607143Y-27186128D02*
X84321429Y-27186128D01*
X84964286Y-28686128D02*
X84964286Y-27186128D01*
X84964286Y-27186128D02*
X85821429Y-28686128D01*
X85821429Y-28686128D02*
X85821429Y-27186128D01*
X86321430Y-27186128D02*
X87178573Y-27186128D01*
X86750001Y-28686128D02*
X86750001Y-27186128D01*
X88535715Y-28686128D02*
X88035715Y-27971842D01*
X87678572Y-28686128D02*
X87678572Y-27186128D01*
X87678572Y-27186128D02*
X88250001Y-27186128D01*
X88250001Y-27186128D02*
X88392858Y-27257557D01*
X88392858Y-27257557D02*
X88464287Y-27328985D01*
X88464287Y-27328985D02*
X88535715Y-27471842D01*
X88535715Y-27471842D02*
X88535715Y-27686128D01*
X88535715Y-27686128D02*
X88464287Y-27828985D01*
X88464287Y-27828985D02*
X88392858Y-27900414D01*
X88392858Y-27900414D02*
X88250001Y-27971842D01*
X88250001Y-27971842D02*
X87678572Y-27971842D01*
X89107144Y-28257557D02*
X89821430Y-28257557D01*
X88964287Y-28686128D02*
X89464287Y-27186128D01*
X89464287Y-27186128D02*
X89964287Y-28686128D01*
X91178572Y-28686128D02*
X90464286Y-28686128D01*
X90464286Y-28686128D02*
X90464286Y-27186128D01*
X93607144Y-27257557D02*
X93464287Y-27186128D01*
X93464287Y-27186128D02*
X93250001Y-27186128D01*
X93250001Y-27186128D02*
X93035715Y-27257557D01*
X93035715Y-27257557D02*
X92892858Y-27400414D01*
X92892858Y-27400414D02*
X92821429Y-27543271D01*
X92821429Y-27543271D02*
X92750001Y-27828985D01*
X92750001Y-27828985D02*
X92750001Y-28043271D01*
X92750001Y-28043271D02*
X92821429Y-28328985D01*
X92821429Y-28328985D02*
X92892858Y-28471842D01*
X92892858Y-28471842D02*
X93035715Y-28614700D01*
X93035715Y-28614700D02*
X93250001Y-28686128D01*
X93250001Y-28686128D02*
X93392858Y-28686128D01*
X93392858Y-28686128D02*
X93607144Y-28614700D01*
X93607144Y-28614700D02*
X93678572Y-28543271D01*
X93678572Y-28543271D02*
X93678572Y-28043271D01*
X93678572Y-28043271D02*
X93392858Y-28043271D01*
X94250001Y-28257557D02*
X94964287Y-28257557D01*
X94107144Y-28686128D02*
X94607144Y-27186128D01*
X94607144Y-27186128D02*
X95107144Y-28686128D01*
X95392858Y-27186128D02*
X96250001Y-27186128D01*
X95821429Y-28686128D02*
X95821429Y-27186128D01*
X96750000Y-27900414D02*
X97250000Y-27900414D01*
X97464286Y-28686128D02*
X96750000Y-28686128D01*
X96750000Y-28686128D02*
X96750000Y-27186128D01*
X96750000Y-27186128D02*
X97464286Y-27186128D01*
X97964286Y-27186128D02*
X98321429Y-28686128D01*
X98321429Y-28686128D02*
X98607143Y-27614700D01*
X98607143Y-27614700D02*
X98892858Y-28686128D01*
X98892858Y-28686128D02*
X99250001Y-27186128D01*
X99750001Y-28257557D02*
X100464287Y-28257557D01*
X99607144Y-28686128D02*
X100107144Y-27186128D01*
X100107144Y-27186128D02*
X100607144Y-28686128D01*
X101392858Y-27971842D02*
X101392858Y-28686128D01*
X100892858Y-27186128D02*
X101392858Y-27971842D01*
X101392858Y-27971842D02*
X101892858Y-27186128D01*
X103392857Y-27686128D02*
X103750000Y-28686128D01*
X103750000Y-28686128D02*
X104107143Y-27686128D01*
X105464286Y-28686128D02*
X104607143Y-28686128D01*
X105035714Y-28686128D02*
X105035714Y-27186128D01*
X105035714Y-27186128D02*
X104892857Y-27400414D01*
X104892857Y-27400414D02*
X104750000Y-27543271D01*
X104750000Y-27543271D02*
X104607143Y-27614700D01*
X106107142Y-28543271D02*
X106178571Y-28614700D01*
X106178571Y-28614700D02*
X106107142Y-28686128D01*
X106107142Y-28686128D02*
X106035714Y-28614700D01*
X106035714Y-28614700D02*
X106107142Y-28543271D01*
X106107142Y-28543271D02*
X106107142Y-28686128D01*
X107607143Y-28686128D02*
X106750000Y-28686128D01*
X107178571Y-28686128D02*
X107178571Y-27186128D01*
X107178571Y-27186128D02*
X107035714Y-27400414D01*
X107035714Y-27400414D02*
X106892857Y-27543271D01*
X106892857Y-27543271D02*
X106750000Y-27614700D01*
D11*
X79200000Y-56063855D02*
X79200000Y-55263855D01*
X79200000Y-55263855D02*
X79504762Y-55263855D01*
X79504762Y-55263855D02*
X79580952Y-55301950D01*
X79580952Y-55301950D02*
X79619047Y-55340045D01*
X79619047Y-55340045D02*
X79657143Y-55416236D01*
X79657143Y-55416236D02*
X79657143Y-55530521D01*
X79657143Y-55530521D02*
X79619047Y-55606712D01*
X79619047Y-55606712D02*
X79580952Y-55644807D01*
X79580952Y-55644807D02*
X79504762Y-55682902D01*
X79504762Y-55682902D02*
X79200000Y-55682902D01*
X79961904Y-55835283D02*
X80342857Y-55835283D01*
X79885714Y-56063855D02*
X80152381Y-55263855D01*
X80152381Y-55263855D02*
X80419047Y-56063855D01*
X80685714Y-56063855D02*
X80685714Y-55263855D01*
X80685714Y-55263855D02*
X81142857Y-56063855D01*
X81142857Y-56063855D02*
X81142857Y-55263855D01*
X81523809Y-55644807D02*
X81790475Y-55644807D01*
X81904761Y-56063855D02*
X81523809Y-56063855D01*
X81523809Y-56063855D02*
X81523809Y-55263855D01*
X81523809Y-55263855D02*
X81904761Y-55263855D01*
X82628571Y-56063855D02*
X82247619Y-56063855D01*
X82247619Y-56063855D02*
X82247619Y-55263855D01*
X83466666Y-56025760D02*
X83580952Y-56063855D01*
X83580952Y-56063855D02*
X83771428Y-56063855D01*
X83771428Y-56063855D02*
X83847619Y-56025760D01*
X83847619Y-56025760D02*
X83885714Y-55987664D01*
X83885714Y-55987664D02*
X83923809Y-55911474D01*
X83923809Y-55911474D02*
X83923809Y-55835283D01*
X83923809Y-55835283D02*
X83885714Y-55759093D01*
X83885714Y-55759093D02*
X83847619Y-55720998D01*
X83847619Y-55720998D02*
X83771428Y-55682902D01*
X83771428Y-55682902D02*
X83619047Y-55644807D01*
X83619047Y-55644807D02*
X83542857Y-55606712D01*
X83542857Y-55606712D02*
X83504762Y-55568617D01*
X83504762Y-55568617D02*
X83466666Y-55492426D01*
X83466666Y-55492426D02*
X83466666Y-55416236D01*
X83466666Y-55416236D02*
X83504762Y-55340045D01*
X83504762Y-55340045D02*
X83542857Y-55301950D01*
X83542857Y-55301950D02*
X83619047Y-55263855D01*
X83619047Y-55263855D02*
X83809524Y-55263855D01*
X83809524Y-55263855D02*
X83923809Y-55301950D01*
X84190476Y-55263855D02*
X84380952Y-56063855D01*
X84380952Y-56063855D02*
X84533333Y-55492426D01*
X84533333Y-55492426D02*
X84685714Y-56063855D01*
X84685714Y-56063855D02*
X84876191Y-55263855D01*
%LPC*%
D12*
%TO.C,D3*%
X71000000Y-85250000D03*
X71000000Y-82750000D03*
%TD*%
D13*
%TO.C,D2*%
X127500000Y-31000000D03*
X130500000Y-31000000D03*
%TD*%
D12*
%TO.C,C6*%
X116000000Y-53250000D03*
X116000000Y-50750000D03*
%TD*%
D14*
%TO.C,J9*%
X145500000Y-56000000D03*
D15*
X142960000Y-53460000D03*
X148040000Y-53460000D03*
X142960000Y-58540000D03*
X148040000Y-58540000D03*
%TD*%
D12*
%TO.C,D4*%
X99000000Y-83250000D03*
X99000000Y-80750000D03*
%TD*%
%TO.C,R3*%
X76000000Y-83750000D03*
X76000000Y-81250000D03*
%TD*%
%TO.C,R5*%
X80000000Y-83250000D03*
X80000000Y-80750000D03*
%TD*%
D16*
%TO.C,J1*%
X138960000Y-31000000D03*
D17*
X144040000Y-31000000D03*
%TD*%
D12*
%TO.C,LED1*%
X104750000Y-31000000D03*
X107250000Y-31000000D03*
%TD*%
%TO.C,C4*%
X125000000Y-43250000D03*
X125000000Y-40750000D03*
%TD*%
D18*
%TO.C,U1*%
X40000000Y-34200000D03*
D19*
X40000000Y-36740000D03*
X40000000Y-39280000D03*
X40000000Y-41820000D03*
X40000000Y-44360000D03*
X40000000Y-46900000D03*
X40000000Y-49440000D03*
X40000000Y-51980000D03*
X40000000Y-54520000D03*
X40000000Y-57060000D03*
X40000000Y-59600000D03*
X40000000Y-62140000D03*
X40000000Y-64680000D03*
X40000000Y-67220000D03*
X40000000Y-69760000D03*
X40000000Y-72300000D03*
X40000000Y-74840000D03*
X40000000Y-77380000D03*
X40000000Y-79920000D03*
X40000000Y-82460000D03*
X40000000Y-85000000D03*
X40000000Y-87540000D03*
X62860000Y-87540000D03*
X62860000Y-85000000D03*
X62860000Y-82460000D03*
X62860000Y-79920000D03*
X62860000Y-77380000D03*
X62860000Y-74840000D03*
X62860000Y-72300000D03*
X62860000Y-69760000D03*
X62860000Y-67220000D03*
X62860000Y-64680000D03*
X62860000Y-62140000D03*
X62860000Y-59600000D03*
X62860000Y-57060000D03*
X62860000Y-54520000D03*
X62860000Y-51980000D03*
X62860000Y-49440000D03*
X62860000Y-46900000D03*
X62860000Y-44360000D03*
X62860000Y-41820000D03*
X62860000Y-39280000D03*
X62860000Y-36740000D03*
X62860000Y-34200000D03*
%TD*%
D12*
%TO.C,D8*%
X141000000Y-68250000D03*
X141000000Y-65750000D03*
%TD*%
D20*
%TO.C,J2*%
X69000000Y-93000000D03*
X81000000Y-93000000D03*
D21*
X72450000Y-97840000D03*
D22*
X73470000Y-95300000D03*
X74490000Y-97840000D03*
X75510000Y-95300000D03*
X76530000Y-97840000D03*
X77550000Y-95300000D03*
%TD*%
D16*
%TO.C,J6*%
X145000000Y-77540000D03*
D17*
X145000000Y-72460000D03*
%TD*%
D16*
%TO.C,J5*%
X126380000Y-95000000D03*
D17*
X131460000Y-95000000D03*
X136540000Y-95000000D03*
X141620000Y-95000000D03*
%TD*%
%TO.C,H1*%
X24000000Y-29500000D03*
%TD*%
D14*
%TO.C,TP1*%
X58000000Y-92000000D03*
%TD*%
D20*
%TO.C,J3*%
X85000000Y-93000000D03*
X97000000Y-93000000D03*
D21*
X88450000Y-97840000D03*
D22*
X89470000Y-95300000D03*
X90490000Y-97840000D03*
X91510000Y-95300000D03*
X92530000Y-97840000D03*
X93550000Y-95300000D03*
%TD*%
D14*
%TO.C,TP3*%
X52000000Y-92000000D03*
%TD*%
D12*
%TO.C,D5*%
X104000000Y-87750000D03*
X104000000Y-85250000D03*
%TD*%
D17*
%TO.C,H4*%
X146000000Y-99000000D03*
%TD*%
D23*
%TO.C,U4*%
X118800000Y-41050000D03*
X118800000Y-42000000D03*
X118800000Y-42950000D03*
X121200000Y-42950000D03*
X121200000Y-41050000D03*
%TD*%
D12*
%TO.C,R13*%
X124750000Y-64000000D03*
X127250000Y-64000000D03*
%TD*%
D24*
%TO.C,C1*%
X125000000Y-36600000D03*
X125000000Y-33400000D03*
%TD*%
D12*
%TO.C,C3*%
X115000000Y-43250000D03*
X115000000Y-40750000D03*
%TD*%
D16*
%TO.C,J4*%
X102420000Y-95000000D03*
D17*
X107500000Y-95000000D03*
X112580000Y-95000000D03*
%TD*%
D12*
%TO.C,R2*%
X71460000Y-80000000D03*
X73960000Y-80000000D03*
%TD*%
%TO.C,D6*%
X113500000Y-87750000D03*
X113500000Y-85250000D03*
%TD*%
D14*
%TO.C,TP4*%
X113000000Y-44000000D03*
%TD*%
D12*
%TO.C,R4*%
X82460000Y-77500000D03*
X84960000Y-77500000D03*
%TD*%
%TO.C,R17*%
X122000000Y-61960000D03*
X122000000Y-59460000D03*
%TD*%
%TO.C,R9*%
X119540000Y-72500000D03*
X122040000Y-72500000D03*
%TD*%
%TO.C,R16*%
X124750000Y-59460000D03*
X127250000Y-59460000D03*
%TD*%
%TO.C,C5*%
X114000000Y-51250000D03*
X114000000Y-48750000D03*
%TD*%
D25*
%TO.C,F1*%
X133500000Y-31000000D03*
X136500000Y-31000000D03*
%TD*%
D12*
%TO.C,D10*%
X131000000Y-61960000D03*
X131000000Y-59460000D03*
%TD*%
%TO.C,R11*%
X126000000Y-75000000D03*
X126000000Y-72500000D03*
%TD*%
D26*
%TO.C,J8*%
X80190000Y-30500000D03*
D27*
X82730000Y-30500000D03*
X85270000Y-30500000D03*
X87810000Y-30500000D03*
%TD*%
D28*
%TO.C,C2*%
X116000000Y-36600000D03*
X116000000Y-33400000D03*
%TD*%
D12*
%TO.C,R15*%
X124750000Y-66500000D03*
X127250000Y-66500000D03*
%TD*%
D26*
%TO.C,J10*%
X80750000Y-58000000D03*
D27*
X83250000Y-58000000D03*
%TD*%
D12*
%TO.C,R6*%
X98500000Y-75000000D03*
X101000000Y-75000000D03*
%TD*%
%TO.C,R8*%
X114460000Y-70000000D03*
X116960000Y-70000000D03*
%TD*%
%TO.C,R10*%
X110000000Y-70000000D03*
X110000000Y-67500000D03*
%TD*%
D17*
%TO.C,H2*%
X146000000Y-41000000D03*
%TD*%
D12*
%TO.C,R14*%
X130750000Y-66500000D03*
X133250000Y-66500000D03*
%TD*%
%TO.C,R12*%
X130750000Y-64000000D03*
X133250000Y-64000000D03*
%TD*%
%TO.C,R7*%
X95000000Y-77500000D03*
X95000000Y-75000000D03*
%TD*%
D29*
%TO.C,U3*%
X122540000Y-31000000D03*
D14*
X120000000Y-31000000D03*
X117460000Y-31000000D03*
%TD*%
D30*
%TO.C,U2*%
X94475000Y-42000000D03*
X94475000Y-44000000D03*
X94475000Y-46000000D03*
X94475000Y-48000000D03*
X94475000Y-50000000D03*
X94475000Y-52000000D03*
X94475000Y-54000000D03*
X94475000Y-56000000D03*
X109525000Y-56000000D03*
X109525000Y-54000000D03*
X109525000Y-52000000D03*
X109525000Y-50000000D03*
X109525000Y-48000000D03*
X109525000Y-46000000D03*
X109525000Y-44000000D03*
X109525000Y-42000000D03*
%TD*%
D31*
%TO.C,D1*%
X133500000Y-37100000D03*
X133500000Y-33900000D03*
%TD*%
D14*
%TO.C,TP2*%
X63000000Y-96000000D03*
%TD*%
D12*
%TO.C,C11*%
X119000000Y-61960000D03*
X119000000Y-59460000D03*
%TD*%
%TO.C,R1*%
X108750000Y-31000000D03*
X111250000Y-31000000D03*
%TD*%
%TO.C,D9*%
X138000000Y-75250000D03*
X138000000Y-72750000D03*
%TD*%
D16*
%TO.C,J7*%
X133460000Y-51000000D03*
D17*
X138540000Y-51000000D03*
%TD*%
%TO.C,H3*%
X24000000Y-99000000D03*
%TD*%
D12*
%TO.C,D7*%
X125500000Y-87750000D03*
X125500000Y-85250000D03*
%TD*%
%LPD*%
M02*
