M48
; DRILL file KiCad 10.0.4 date 2026-08-08T20:58:44
; FORMAT={-:-/ absolute / metric / decimal}
; #@! TF.CreationDate,2026-08-08T20:58:44+01:00
; #@! TF.GenerationSoftware,Kicad,Pcbnew,10.0.4
; #@! TF.FileFunction,Plated,1,4,PTH
FMAT,2
METRIC
; #@! TA.AperFunction,Plated,PTH,ViaDrill
T1C0.300
; #@! TA.AperFunction,Plated,PTH,ViaDrill
T2C0.400
; #@! TA.AperFunction,Plated,PTH,ViaDrill
T3C0.450
; #@! TA.AperFunction,Plated,PTH,ViaDrill
T4C0.500
; #@! TA.AperFunction,Plated,PTH,ViaDrill
T5C0.600
; #@! TA.AperFunction,Plated,PTH,ComponentDrill
T6C0.900
; #@! TA.AperFunction,Plated,PTH,ComponentDrill
T7C1.000
; #@! TA.AperFunction,Plated,PTH,ComponentDrill
T8C1.100
; #@! TA.AperFunction,Plated,PTH,ComponentDrill
T9C1.300
; #@! TA.AperFunction,Plated,PTH,ComponentDrill
T10C1.400
%
G90
G05
T1
X64.2Y-49.2
X64.2Y-60.87
X65.0Y-46.5
X65.0Y-76.11
X65.8Y-47.3
X65.8Y-78.65
X66.6Y-44.5
X66.6Y-81.19
X67.4Y-52.0
X67.4Y-83.73
X69.0Y-43.09
X69.0Y-70.0
X69.8Y-45.63
X69.8Y-72.5
X70.6Y-48.17
X70.6Y-80.0
X71.0Y-82.75
X71.4Y-50.71
X71.4Y-75.0
X71.46Y-80.0
X72.2Y-59.46
X72.2Y-63.41
X73.0Y-65.95
X73.0Y-77.5
X73.8Y-66.5
X73.8Y-71.03
X73.96Y-80.0
X74.6Y-64.0
X74.6Y-73.57
X76.0Y-81.25
X77.5Y-89.8
X80.0Y-80.75
X80.0Y-89.8
X82.46Y-77.5
X84.96Y-77.5
X94.475Y-42.0
X94.475Y-44.0
X94.475Y-46.0
X94.475Y-48.0
X94.475Y-50.0
X94.475Y-52.0
X94.475Y-56.0
X98.5Y-75.0
X99.0Y-80.75
X99.0Y-83.25
X101.0Y-75.0
X104.0Y-85.25
X104.0Y-87.75
X104.75Y-31.0
X109.525Y-54.0
X110.0Y-67.5
X113.5Y-85.25
X113.5Y-87.75
X114.0Y-51.25
X114.46Y-70.0
X115.0Y-43.25
X116.0Y-36.6
X116.0Y-53.25
X116.96Y-70.0
X118.8Y-42.0
X119.0Y-61.96
X119.54Y-72.5
X122.0Y-61.96
X122.04Y-72.5
X124.75Y-59.46
X124.75Y-64.0
X124.75Y-66.5
X125.0Y-36.6
X125.0Y-43.25
X125.5Y-85.25
X125.5Y-87.75
X126.0Y-75.0
X127.25Y-59.46
X127.25Y-64.0
X127.25Y-66.5
X128.0Y-91.0
X130.75Y-64.0
X130.75Y-66.5
X131.0Y-59.46
X131.0Y-61.96
X132.0Y-77.0
X133.25Y-64.0
X133.25Y-66.5
X133.5Y-33.9
X138.0Y-72.75
X138.0Y-75.25
X141.0Y-65.75
X141.0Y-68.25
T2
X85.27Y-36.74
X87.81Y-39.28
X106.0Y-46.0
X110.0Y-89.8
X129.5Y-75.0
T3
X87.0Y-58.0
T4
X129.5Y-41.05
X129.5Y-89.8
T5
X35.0Y-85.0
T6
X72.45Y-97.84
X73.47Y-95.3
X74.49Y-97.84
X75.51Y-95.3
X76.53Y-97.84
X77.55Y-95.3
X88.45Y-97.84
X89.47Y-95.3
X90.49Y-97.84
X91.51Y-95.3
X92.53Y-97.84
X93.55Y-95.3
T7
X40.0Y-34.2
X40.0Y-36.74
X40.0Y-39.28
X40.0Y-41.82
X40.0Y-44.36
X40.0Y-46.9
X40.0Y-49.44
X40.0Y-51.98
X40.0Y-54.52
X40.0Y-57.06
X40.0Y-59.6
X40.0Y-62.14
X40.0Y-64.68
X40.0Y-67.22
X40.0Y-69.76
X40.0Y-72.3
X40.0Y-74.84
X40.0Y-77.38
X40.0Y-79.92
X40.0Y-82.46
X40.0Y-85.0
X40.0Y-87.54
X52.0Y-92.0
X58.0Y-92.0
X62.86Y-34.2
X62.86Y-36.74
X62.86Y-39.28
X62.86Y-41.82
X62.86Y-44.36
X62.86Y-46.9
X62.86Y-49.44
X62.86Y-51.98
X62.86Y-54.52
X62.86Y-57.06
X62.86Y-59.6
X62.86Y-62.14
X62.86Y-64.68
X62.86Y-67.22
X62.86Y-69.76
X62.86Y-72.3
X62.86Y-74.84
X62.86Y-77.38
X62.86Y-79.92
X62.86Y-82.46
X62.86Y-85.0
X62.86Y-87.54
X63.0Y-96.0
X80.19Y-30.5
X80.75Y-58.0
X82.73Y-30.5
X83.25Y-58.0
X85.27Y-30.5
X87.81Y-30.5
X113.0Y-44.0
X117.46Y-31.0
X120.0Y-31.0
X122.54Y-31.0
T8
X145.5Y-56.0
T9
X102.42Y-95.0
X107.5Y-95.0
X112.58Y-95.0
X126.38Y-95.0
X131.46Y-95.0
X133.46Y-51.0
X136.54Y-95.0
X138.54Y-51.0
X138.96Y-31.0
X141.62Y-95.0
X144.04Y-31.0
X145.0Y-72.46
X145.0Y-77.54
T10
X142.96Y-53.46
X142.96Y-58.54
X148.04Y-53.46
X148.04Y-58.54
M30
