ISO-10303-21;
HEADER;
FILE_DESCRIPTION (( 'STEP AP203' ),
    '1' );
FILE_NAME ('02_Upper_Support_Plate.STEP',
    '2026-08-10T00:38:05',
    ( '' ),
    ( '' ),
    'SwSTEP 2.0',
    'SolidWorks 2026',
    '' );
FILE_SCHEMA (( 'CONFIG_CONTROL_DESIGN' ));
ENDSEC;

DATA;
#1 = CC_DESIGN_PERSON_AND_ORGANIZATION_ASSIGNMENT ( #670, #508, ( #108 ) ) ;
#2 = DIRECTION ( 'NONE',  ( 0.000000000000000000, 0.000000000000000000, -1.000000000000000000 ) ) ;
#3 = ORIENTED_EDGE ( 'NONE', *, *, #474, .T. ) ;
#4 = ADVANCED_FACE ( 'NONE', ( #351 ), #213, .F. ) ;
#5 = ORIENTED_EDGE ( 'NONE', *, *, #220, .F. ) ;
#6 = DIRECTION ( 'NONE',  ( 0.000000000000000000, 0.000000000000000000, 1.000000000000000000 ) ) ;
#7 = CIRCLE ( 'NONE', #442, 0.1673228346456694382 ) ;
#8 = DIRECTION ( 'NONE',  ( -0.000000000000000000, -1.000000000000000000, -0.000000000000000000 ) ) ;
#9 = DIRECTION ( 'NONE',  ( -0.000000000000000000, -1.000000000000000000, -0.000000000000000000 ) ) ;
#10 = PLANE ( 'NONE',  #136 ) ;
#11 = CARTESIAN_POINT ( 'NONE',  ( -3.543307086614173151, 0.2362204724409449064, -2.391732283464567121 ) ) ;
#12 = ORIENTED_EDGE ( 'NONE', *, *, #504, .T. ) ;
#13 = ORIENTED_EDGE ( 'NONE', *, *, #629, .T. ) ;
#14 = DIRECTION ( 'NONE',  ( -0.000000000000000000, -1.000000000000000000, -0.000000000000000000 ) ) ;
#15 = CARTESIAN_POINT ( 'NONE',  ( 3.543307086614173151, 0.2362204724409449064, 2.559055118110236560 ) ) ;
#16 = VERTEX_POINT ( 'NONE', #478 ) ;
#17 = DIRECTION ( 'NONE',  ( 0.000000000000000000, 0.000000000000000000, 1.000000000000000000 ) ) ;
#18 = CARTESIAN_POINT ( 'NONE',  ( 1.771653543307086576, 0.2362204724409449064, -0.9271653543307089018 ) ) ;
#19 = AXIS2_PLACEMENT_3D ( 'NONE', #893, #206, #686 ) ;
#20 = CIRCLE ( 'NONE', #662, 0.08858267716535427050 ) ;
#21 = CIRCLE ( 'NONE', #845, 0.1673228346456694382 ) ;
#22 = DIRECTION ( 'NONE',  ( 0.000000000000000000, 0.000000000000000000, -1.000000000000000000 ) ) ;
#23 = DESIGN_CONTEXT ( 'detailed design', #208, 'design' ) ;
#24 = ORIENTED_EDGE ( 'NONE', *, *, #871, .F. ) ;
#25 = ADVANCED_FACE ( 'NONE', ( #428 ), #764, .F. ) ;
#26 = CARTESIAN_POINT ( 'NONE',  ( 3.543307086614173151, 0.000000000000000000, -2.391732283464567121 ) ) ;
#27 = PLANE ( 'NONE',  #557 ) ;
#28 = ORIENTED_EDGE ( 'NONE', *, *, #684, .T. ) ;
#29 = COORDINATED_UNIVERSAL_TIME_OFFSET ( 1, 0, .AHEAD. ) ;
#30 = LINE ( 'NONE', #579, #315 ) ;
#31 = DIRECTION ( 'NONE',  ( 0.000000000000000000, 0.000000000000000000, -1.000000000000000000 ) ) ;
#32 = VERTEX_POINT ( 'NONE', #485 ) ;
#33 = DIRECTION ( 'NONE',  ( 0.000000000000000000, 1.000000000000000000, 0.000000000000000000 ) ) ;
#34 = AXIS2_PLACEMENT_3D ( 'NONE', #79, #554, #712 ) ;
#35 = VECTOR ( 'NONE', #487, 39.37007874015748143 ) ;
#36 = EDGE_CURVE ( 'NONE', #466, #349, #141, .T. ) ;
#37 = CARTESIAN_POINT ( 'NONE',  ( -3.543307086614173151, 0.000000000000000000, 2.559055118110236560 ) ) ;
#38 = EDGE_LOOP ( 'NONE', ( #685, #146, #642, #490 ) ) ;
#39 = SECURITY_CLASSIFICATION_LEVEL ( 'unclassified' ) ;
#40 = CARTESIAN_POINT ( 'NONE',  ( -4.133858267716535195, 0.2362204724409449064, 3.149606299212598604 ) ) ;
#41 = DIRECTION ( 'NONE',  ( -0.000000000000000000, -1.000000000000000000, -0.000000000000000000 ) ) ;
#42 = EDGE_CURVE ( 'NONE', #466, #626, #21, .T. ) ;
#43 = EDGE_LOOP ( 'NONE', ( #517, #46 ) ) ;
#44 = LINE ( 'NONE', #881, #801 ) ;
#45 = DIRECTION ( 'NONE',  ( 0.000000000000000000, 0.000000000000000000, -1.000000000000000000 ) ) ;
#46 = ORIENTED_EDGE ( 'NONE', *, *, #846, .F. ) ;
#47 = CARTESIAN_POINT ( 'NONE',  ( 2.401574803149606474, 0.2362204724409449064, 0.9547244094488186450 ) ) ;
#48 = FACE_OUTER_BOUND ( 'NONE', #622, .T. ) ;
#49 = VECTOR ( 'NONE', #258, 39.37007874015748143 ) ;
#50 = AXIS2_PLACEMENT_3D ( 'NONE', #289, #83, #560 ) ;
#51 = ORIENTED_EDGE ( 'NONE', *, *, #42, .F. ) ;
#52 = AXIS2_PLACEMENT_3D ( 'NONE', #37, #506, #179 ) ;
#53 = FACE_BOUND ( 'NONE', #70, .T. ) ;
#54 = ADVANCED_FACE ( 'NONE', ( #235 ), #240, .F. ) ;
#55 = DIRECTION ( 'NONE',  ( 0.000000000000000000, 1.000000000000000000, 0.000000000000000000 ) ) ;
#56 = ORIENTED_EDGE ( 'NONE', *, *, #894, .F. ) ;
#57 = DIRECTION ( 'NONE',  ( 0.000000000000000000, 0.000000000000000000, 1.000000000000000000 ) ) ;
#58 = ADVANCED_FACE ( 'NONE', ( #450 ), #305, .F. ) ;
#59 = VERTEX_POINT ( 'NONE', #792 ) ;
#60 = FACE_BOUND ( 'NONE', #421, .T. ) ;
#61 = EDGE_CURVE ( 'NONE', #463, #848, #484, .T. ) ;
#62 = ORIENTED_EDGE ( 'NONE', *, *, #319, .F. ) ;
#63 = FACE_OUTER_BOUND ( 'NONE', #341, .T. ) ;
#64 = VERTEX_POINT ( 'NONE', #809 ) ;
#65 = CC_DESIGN_DATE_AND_TIME_ASSIGNMENT ( #582, #452, ( #147 ) ) ;
#66 = ADVANCED_FACE ( 'NONE', ( #386 ), #652, .F. ) ;
#67 = VERTEX_POINT ( 'NONE', #714 ) ;
#68 = DIRECTION ( 'NONE',  ( 0.000000000000000000, 0.000000000000000000, 1.000000000000000000 ) ) ;
#69 = FACE_OUTER_BOUND ( 'NONE', #111, .T. ) ;
#70 = EDGE_LOOP ( 'NONE', ( #215, #552 ) ) ;
#71 = CARTESIAN_POINT ( 'NONE',  ( 1.771653543307086576, 0.2362204724409449064, 0.9271653543307089018 ) ) ;
#72 = CARTESIAN_POINT ( 'NONE',  ( 1.141732283464567121, 0.2362204724409449064, -0.9547244094488188670 ) ) ;
#73 = ORIENTED_EDGE ( 'NONE', *, *, #207, .F. ) ;
#74 = ORIENTED_EDGE ( 'NONE', *, *, #461, .T. ) ;
#75 =( NAMED_UNIT ( * ) PLANE_ANGLE_UNIT ( ) SI_UNIT ( $, .RADIAN. ) );
#76 = AXIS2_PLACEMENT_3D ( 'NONE', #671, #307, #800 ) ;
#77 = PRODUCT ( '02_Upper_Support_Plate', '02_Upper_Support_Plate', '', ( #578 ) ) ;
#78 = AXIS2_PLACEMENT_3D ( 'NONE', #903, #412, #280 ) ;
#79 = CARTESIAN_POINT ( 'NONE',  ( 3.543307086614173151, 0.000000000000000000, -2.559055118110236560 ) ) ;
#80 = EDGE_CURVE ( 'NONE', #700, #349, #860, .T. ) ;
#81 = ORIENTED_EDGE ( 'NONE', *, *, #420, .F. ) ;
#82 = EDGE_LOOP ( 'NONE', ( #13, #131, #765, #306 ) ) ;
#83 = DIRECTION ( 'NONE',  ( 0.000000000000000000, 1.000000000000000000, 0.000000000000000000 ) ) ;
#84 = FACE_OUTER_BOUND ( 'NONE', #451, .T. ) ;
#85 = DIRECTION ( 'NONE',  ( -0.000000000000000000, -1.000000000000000000, -0.000000000000000000 ) ) ;
#86 = EDGE_LOOP ( 'NONE', ( #322, #545, #419, #73 ) ) ;
#87 = DIRECTION ( 'NONE',  ( -0.000000000000000000, -1.000000000000000000, -0.000000000000000000 ) ) ;
#88 = FACE_OUTER_BOUND ( 'NONE', #38, .T. ) ;
#89 = DIRECTION ( 'NONE',  ( 0.000000000000000000, 0.000000000000000000, -1.000000000000000000 ) ) ;
#90 = ORIENTED_EDGE ( 'NONE', *, *, #120, .F. ) ;
#91 = COORDINATED_UNIVERSAL_TIME_OFFSET ( 1, 0, .AHEAD. ) ;
#92 = DIRECTION ( 'NONE',  ( -0.000000000000000000, -1.000000000000000000, -0.000000000000000000 ) ) ;
#93 = AXIS2_PLACEMENT_3D ( 'NONE', #129, #546, #269 ) ;
#94 = AXIS2_PLACEMENT_3D ( 'NONE', #353, #711, #68 ) ;
#95 = AXIS2_PLACEMENT_3D ( 'NONE', #373, #730, #660 ) ;
#96 = ADVANCED_BREP_SHAPE_REPRESENTATION ( '02_Upper_Support_Plate', ( #161, #273 ), #203 ) ;
#97 = CARTESIAN_POINT ( 'NONE',  ( 3.543307086614173151, 0.2362204724409449064, -2.726377952755905998 ) ) ;
#98 = EDGE_LOOP ( 'NONE', ( #387, #847, #394, #525 ) ) ;
#99 = CARTESIAN_POINT ( 'NONE',  ( 3.543307086614173151, 0.2362204724409449064, -2.559055118110236560 ) ) ;
#100 = DIRECTION ( 'NONE',  ( 1.000000000000000000, 0.000000000000000000, 0.000000000000000000 ) ) ;
#101 = ORIENTED_EDGE ( 'NONE', *, *, #415, .T. ) ;
#102 = DIRECTION ( 'NONE',  ( -0.000000000000000000, -1.000000000000000000, -0.000000000000000000 ) ) ;
#103 = DIRECTION ( 'NONE',  ( -0.000000000000000000, -1.000000000000000000, -0.000000000000000000 ) ) ;
#104 = ORIENTED_EDGE ( 'NONE', *, *, #659, .T. ) ;
#105 = PERSON_AND_ORGANIZATION ( #510, #429 ) ;
#106 = CARTESIAN_POINT ( 'NONE',  ( 1.141732283464567121, 0.000000000000000000, 0.8661417322834645827 ) ) ;
#107 = VECTOR ( 'NONE', #102, 39.37007874015748143 ) ;
#108 = PRODUCT_DEFINITION_FORMATION_WITH_SPECIFIED_SOURCE ( 'ANY', '', #77, .NOT_KNOWN. ) ;
#109 = CYLINDRICAL_SURFACE ( 'NONE', #785, 0.1673228346456694382 ) ;
#110 = AXIS2_PLACEMENT_3D ( 'NONE', #598, #886, #676 ) ;
#111 = EDGE_LOOP ( 'NONE', ( #673, #736, #605, #687 ) ) ;
#112 = DIRECTION ( 'NONE',  ( 0.000000000000000000, 0.000000000000000000, 1.000000000000000000 ) ) ;
#113 = DIRECTION ( 'NONE',  ( 0.000000000000000000, 0.000000000000000000, 1.000000000000000000 ) ) ;
#114 = CARTESIAN_POINT ( 'NONE',  ( 1.141732283464567121, 0.2362204724409449064, -0.7775590551181102983 ) ) ;
#115 = ORIENTED_EDGE ( 'NONE', *, *, #550, .T. ) ;
#116 = DIRECTION ( 'NONE',  ( 0.000000000000000000, -1.000000000000000000, 0.000000000000000000 ) ) ;
#117 = CARTESIAN_POINT ( 'NONE',  ( 2.401574803149606474, 0.000000000000000000, -0.7775590551181104093 ) ) ;
#118 = VERTEX_POINT ( 'NONE', #433 ) ;
#119 = DIRECTION ( 'NONE',  ( 0.000000000000000000, 1.000000000000000000, 0.000000000000000000 ) ) ;
#120 = EDGE_CURVE ( 'NONE', #619, #124, #472, .T. ) ;
#121 = DIRECTION ( 'NONE',  ( 0.000000000000000000, 0.000000000000000000, 1.000000000000000000 ) ) ;
#122 = CIRCLE ( 'NONE', #706, 0.08858267716535427050 ) ;
#123 = CIRCLE ( 'NONE', #50, 0.9271653543307089018 ) ;
#124 = VERTEX_POINT ( 'NONE', #868 ) ;
#125 = AXIS2_PLACEMENT_3D ( 'NONE', #521, #789, #418 ) ;
#126 = ADVANCED_FACE ( 'NONE', ( #244 ), #27, .F. ) ;
#127 = FACE_BOUND ( 'NONE', #677, .T. ) ;
#128 = ORIENTED_EDGE ( 'NONE', *, *, #331, .F. ) ;
#129 = CARTESIAN_POINT ( 'NONE',  ( 1.141732283464567121, 0.2362204724409449064, 0.8661417322834645827 ) ) ;
#130 = EDGE_CURVE ( 'NONE', #626, #466, #500, .T. ) ;
#131 = ORIENTED_EDGE ( 'NONE', *, *, #650, .F. ) ;
#132 = LINE ( 'NONE', #339, #723 ) ;
#133 = APPROVAL ( #664, 'UNSPECIFIED' ) ;
#134 = ADVANCED_FACE ( 'NONE', ( #855 ), #229, .F. ) ;
#135 = ORIENTED_EDGE ( 'NONE', *, *, #718, .F. ) ;
#136 = AXIS2_PLACEMENT_3D ( 'NONE', #849, #143, #906 ) ;
#137 = ORIENTED_EDGE ( 'NONE', *, *, #808, .T. ) ;
#138 = CARTESIAN_POINT ( 'NONE',  ( -3.543307086614173151, 0.2362204724409449064, -2.391732283464567121 ) ) ;
#139 = CLOSED_SHELL ( 'NONE', ( #233, #285, #354, #703, #297, #54, #483, #904, #266, #746, #698, #4, #163, #837, #126, #536, #25, #511, #66, #515, #134, #276, #761, #58 ) ) ;
#140 = CARTESIAN_POINT ( 'NONE',  ( 1.771653543307086576, 0.000000000000000000, 0.000000000000000000 ) ) ;
#141 = LINE ( 'NONE', #291, #363 ) ;
#142 = ORIENTED_EDGE ( 'NONE', *, *, #674, .T. ) ;
#143 = DIRECTION ( 'NONE',  ( -1.000000000000000000, 0.000000000000000000, 0.000000000000000000 ) ) ;
#144 = CARTESIAN_POINT ( 'NONE',  ( -3.543307086614173151, 0.2362204724409449064, 2.559055118110236560 ) ) ;
#145 = ORIENTED_EDGE ( 'NONE', *, *, #195, .F. ) ;
#146 = ORIENTED_EDGE ( 'NONE', *, *, #36, .T. ) ;
#147 = PRODUCT_DEFINITION ( 'UNKNOWN', '', #108, #23 ) ;
#148 = EDGE_CURVE ( 'NONE', #67, #599, #173, .T. ) ;
#149 = CARTESIAN_POINT ( 'NONE',  ( -3.543307086614173151, 0.2362204724409449064, -2.726377952755905998 ) ) ;
#150 = EDGE_LOOP ( 'NONE', ( #361, #330, #357, #693 ) ) ;
#151 = AXIS2_PLACEMENT_3D ( 'NONE', #372, #425, #2 ) ;
#152 = EDGE_LOOP ( 'NONE', ( #300, #375 ) ) ;
#153 = CARTESIAN_POINT ( 'NONE',  ( 2.401574803149606474, 0.2362204724409449064, 0.7775590551181104093 ) ) ;
#154 = AXIS2_PLACEMENT_3D ( 'NONE', #222, #417, #564 ) ;
#155 = EDGE_CURVE ( 'NONE', #548, #709, #313, .T. ) ;
#156 = AXIS2_PLACEMENT_3D ( 'NONE', #15, #437, #570 ) ;
#157 = APPLICATION_CONTEXT ( 'configuration controlled 3d designs of mechanical parts and assemblies' ) ;
#158 = DIRECTION ( 'NONE',  ( 0.000000000000000000, 0.000000000000000000, -1.000000000000000000 ) ) ;
#159 = CARTESIAN_POINT ( 'NONE',  ( 3.543307086614173151, 0.000000000000000000, 2.559055118110236560 ) ) ;
#160 =( NAMED_UNIT ( * ) SI_UNIT ( $, .STERADIAN. ) SOLID_ANGLE_UNIT ( ) );
#161 = MANIFOLD_SOLID_BREP ( 'Plate_Extrude', #139 ) ;
#162 = DIRECTION ( 'NONE',  ( 0.000000000000000000, 1.000000000000000000, 0.000000000000000000 ) ) ;
#163 = ADVANCED_FACE ( 'NONE', ( #512 ), #580, .F. ) ;
#164 = CARTESIAN_POINT ( 'NONE',  ( -4.133858267716535195, 0.2362204724409449064, -3.149606299212598604 ) ) ;
#165 = ORIENTED_EDGE ( 'NONE', *, *, #346, .F. ) ;
#166 = CARTESIAN_POINT ( 'NONE',  ( 2.401574803149606474, 0.000000000000000000, 0.8661417322834645827 ) ) ;
#167 = CARTESIAN_POINT ( 'NONE',  ( -4.133858267716535195, 0.2362204724409449064, 3.149606299212598604 ) ) ;
#168 = VERTEX_POINT ( 'NONE', #725 ) ;
#169 = PERSON_AND_ORGANIZATION_ROLE ( 'creator' ) ;
#170 = DIRECTION ( 'NONE',  ( -0.000000000000000000, -1.000000000000000000, -0.000000000000000000 ) ) ;
#171 = AXIS2_PLACEMENT_3D ( 'NONE', #238, #14, #844 ) ;
#172 = AXIS2_PLACEMENT_3D ( 'NONE', #435, #283, #856 ) ;
#173 = CIRCLE ( 'NONE', #680, 0.1673228346456694382 ) ;
#174 = DIRECTION ( 'NONE',  ( 0.000000000000000000, 0.000000000000000000, -1.000000000000000000 ) ) ;
#175 = VERTEX_POINT ( 'NONE', #97 ) ;
#176 = PERSON_AND_ORGANIZATION ( #510, #429 ) ;
#177 = DIRECTION ( 'NONE',  ( 0.000000000000000000, 0.000000000000000000, -1.000000000000000000 ) ) ;
#178 = DIMENSIONAL_EXPONENTS ( 1.000000000000000000, 0.000000000000000000, 0.000000000000000000, 0.000000000000000000, 0.000000000000000000, 0.000000000000000000, 0.000000000000000000 ) ;
#179 = DIRECTION ( 'NONE',  ( 0.000000000000000000, 0.000000000000000000, 1.000000000000000000 ) ) ;
#180 = ORIENTED_EDGE ( 'NONE', *, *, #750, .T. ) ;
#181 = DIRECTION ( 'NONE',  ( 1.000000000000000000, 0.000000000000000000, 0.000000000000000000 ) ) ;
#182 = EDGE_CURVE ( 'NONE', #709, #869, #382, .T. ) ;
#183 = LINE ( 'NONE', #453, #413 ) ;
#184 = CARTESIAN_POINT ( 'NONE',  ( 3.543307086614173151, 0.000000000000000000, 2.559055118110236560 ) ) ;
#185 = VERTEX_POINT ( 'NONE', #377 ) ;
#186 = CALENDAR_DATE ( 2026, 10, 8 ) ;
#187 = DIRECTION ( 'NONE',  ( 0.000000000000000000, 0.000000000000000000, 1.000000000000000000 ) ) ;
#188 = CC_DESIGN_DATE_AND_TIME_ASSIGNMENT ( #448, #310, ( #288 ) ) ;
#189 = EDGE_CURVE ( 'NONE', #399, #118, #571, .T. ) ;
#190 = AXIS2_PLACEMENT_3D ( 'NONE', #99, #170, #177 ) ;
#191 = CIRCLE ( 'NONE', #691, 0.9271653543307089018 ) ;
#192 = FACE_OUTER_BOUND ( 'NONE', #905, .T. ) ;
#193 = ORIENTED_EDGE ( 'NONE', *, *, #659, .F. ) ;
#194 = CARTESIAN_POINT ( 'NONE',  ( 2.401574803149606474, 0.2362204724409449064, -0.8661417322834645827 ) ) ;
#195 = EDGE_CURVE ( 'NONE', #648, #292, #744, .T. ) ;
#196 = CARTESIAN_POINT ( 'NONE',  ( 2.401574803149606474, 0.000000000000000000, 0.9547244094488186450 ) ) ;
#197 = EDGE_LOOP ( 'NONE', ( #839, #383 ) ) ;
#198 = DIRECTION ( 'NONE',  ( -0.000000000000000000, -1.000000000000000000, -0.000000000000000000 ) ) ;
#199 = DIRECTION ( 'NONE',  ( 0.000000000000000000, 1.000000000000000000, 0.000000000000000000 ) ) ;
#200 = ORIENTED_EDGE ( 'NONE', *, *, #713, .F. ) ;
#201 = FACE_BOUND ( 'NONE', #408, .T. ) ;
#202 = CIRCLE ( 'NONE', #887, 0.08858267716535414560 ) ;
#203 =( GEOMETRIC_REPRESENTATION_CONTEXT ( 3 ) GLOBAL_UNCERTAINTY_ASSIGNED_CONTEXT ( ( #321 ) ) GLOBAL_UNIT_ASSIGNED_CONTEXT ( ( #853, #75, #160 ) ) REPRESENTATION_CONTEXT ( 'NONE', 'WORKASPACE' ) );
#204 = ORIENTED_EDGE ( 'NONE', *, *, #474, .F. ) ;
#205 = AXIS2_PLACEMENT_3D ( 'NONE', #551, #9, #772 ) ;
#206 = DIRECTION ( 'NONE',  ( 0.000000000000000000, -1.000000000000000000, 0.000000000000000000 ) ) ;
#207 = EDGE_CURVE ( 'NONE', #370, #16, #191, .T. ) ;
#208 = APPLICATION_CONTEXT ( 'configuration controlled 3d designs of mechanical parts and assemblies' ) ;
#209 = ORIENTED_EDGE ( 'NONE', *, *, #550, .F. ) ;
#210 = PLANE ( 'NONE',  #631 ) ;
#211 = PRODUCT_RELATED_PRODUCT_CATEGORY ( 'detail', '', ( #77 ) ) ;
#212 = EDGE_CURVE ( 'NONE', #349, #700, #303, .T. ) ;
#213 = PLANE ( 'NONE',  #770 ) ;
#214 = DIRECTION ( 'NONE',  ( 0.000000000000000000, 1.000000000000000000, 0.000000000000000000 ) ) ;
#215 = ORIENTED_EDGE ( 'NONE', *, *, #312, .T. ) ;
#216 = EDGE_LOOP ( 'NONE', ( #165, #378 ) ) ;
#217 = CARTESIAN_POINT ( 'NONE',  ( -4.133858267716535195, 0.2362204724409449064, -3.149606299212598604 ) ) ;
#218 = AXIS2_PLACEMENT_3D ( 'NONE', #861, #85, #369 ) ;
#219 = CARTESIAN_POINT ( 'NONE',  ( 3.543307086614173151, 0.000000000000000000, 2.726377952755905998 ) ) ;
#220 = EDGE_CURVE ( 'NONE', #314, #669, #502, .T. ) ;
#221 = ORIENTED_EDGE ( 'NONE', *, *, #832, .T. ) ;
#222 = CARTESIAN_POINT ( 'NONE',  ( 2.401574803149606474, 0.2362204724409449064, -0.8661417322834645827 ) ) ;
#223 = DIRECTION ( 'NONE',  ( -0.000000000000000000, -1.000000000000000000, -0.000000000000000000 ) ) ;
#224 = EDGE_LOOP ( 'NONE', ( #781, #226, #637, #715 ) ) ;
#225 = EDGE_CURVE ( 'NONE', #16, #370, #666, .T. ) ;
#226 = ORIENTED_EDGE ( 'NONE', *, *, #42, .T. ) ;
#227 = FACE_OUTER_BOUND ( 'NONE', #82, .T. ) ;
#228 = DIRECTION ( 'NONE',  ( 0.000000000000000000, 0.000000000000000000, 1.000000000000000000 ) ) ;
#229 = CYLINDRICAL_SURFACE ( 'NONE', #615, 0.08858267716535427050 ) ;
#230 = CIRCLE ( 'NONE', #819, 0.1673228346456694382 ) ;
#231 = LOCAL_TIME ( 1, 38, 5.000000000000000000, #237 ) ;
#232 = VECTOR ( 'NONE', #31, 39.37007874015748143 ) ;
#233 = ADVANCED_FACE ( 'NONE', ( #192 ), #590, .F. ) ;
#234 = CARTESIAN_POINT ( 'NONE',  ( 2.401574803149606474, 0.000000000000000000, -0.8661417322834645827 ) ) ;
#235 = FACE_OUTER_BOUND ( 'NONE', #309, .T. ) ;
#236 = ORIENTED_EDGE ( 'NONE', *, *, #822, .T. ) ;
#237 = COORDINATED_UNIVERSAL_TIME_OFFSET ( 1, 0, .AHEAD. ) ;
#238 = CARTESIAN_POINT ( 'NONE',  ( 2.401574803149606474, 0.2362204724409449064, 0.8661417322834645827 ) ) ;
#239 = EDGE_CURVE ( 'NONE', #32, #335, #604, .T. ) ;
#240 = CYLINDRICAL_SURFACE ( 'NONE', #274, 0.1673228346456694382 ) ;
#241 = ORIENTED_EDGE ( 'NONE', *, *, #884, .T. ) ;
#242 = PERSON_AND_ORGANIZATION_ROLE ( 'design_owner' ) ;
#243 = DIRECTION ( 'NONE',  ( 0.000000000000000000, 0.000000000000000000, 1.000000000000000000 ) ) ;
#244 = FACE_OUTER_BOUND ( 'NONE', #836, .T. ) ;
#245 = ORIENTED_EDGE ( 'NONE', *, *, #365, .T. ) ;
#246 = APPROVAL_STATUS ( 'not_yet_approved' ) ;
#247 = CARTESIAN_POINT ( 'NONE',  ( -4.133858267716535195, 0.000000000000000000, 3.149606299212598604 ) ) ;
#248 = CIRCLE ( 'NONE', #76, 0.08858267716535414560 ) ;
#249 = AXIS2_PLACEMENT_3D ( 'NONE', #897, #470, #400 ) ;
#250 = DIRECTION ( 'NONE',  ( -1.000000000000000000, 0.000000000000000000, -0.000000000000000000 ) ) ;
#251 = EDGE_CURVE ( 'NONE', #259, #64, #823, .T. ) ;
#252 = VERTEX_POINT ( 'NONE', #196 ) ;
#253 = DIRECTION ( 'NONE',  ( 0.000000000000000000, 1.000000000000000000, 0.000000000000000000 ) ) ;
#254 = DIRECTION ( 'NONE',  ( 0.000000000000000000, 0.000000000000000000, 1.000000000000000000 ) ) ;
#255 = ORIENTED_EDGE ( 'NONE', *, *, #884, .F. ) ;
#256 = APPROVAL_ROLE ( '' ) ;
#257 = DIRECTION ( 'NONE',  ( 0.000000000000000000, 0.000000000000000000, -1.000000000000000000 ) ) ;
#258 = DIRECTION ( 'NONE',  ( -0.000000000000000000, -0.000000000000000000, 1.000000000000000000 ) ) ;
#259 = VERTEX_POINT ( 'NONE', #454 ) ;
#260 = CARTESIAN_POINT ( 'NONE',  ( -4.133858267716535195, 0.2362204724409449064, 3.149606299212598604 ) ) ;
#261 = CIRCLE ( 'NONE', #471, 0.08858267716535414560 ) ;
#262 = LOCAL_TIME ( 1, 38, 5.000000000000000000, #91 ) ;
#263 = CARTESIAN_POINT ( 'NONE',  ( 1.771653543307086576, 0.2362204724409449064, 0.000000000000000000 ) ) ;
#264 = ORIENTED_EDGE ( 'NONE', *, *, #155, .T. ) ;
#265 = DIRECTION ( 'NONE',  ( -1.000000000000000000, -0.000000000000000000, -0.000000000000000000 ) ) ;
#266 = ADVANCED_FACE ( 'NONE', ( #397 ), #537, .F. ) ;
#267 = DIRECTION ( 'NONE',  ( -0.000000000000000000, -1.000000000000000000, -0.000000000000000000 ) ) ;
#268 = ORIENTED_EDGE ( 'NONE', *, *, #148, .F. ) ;
#269 = DIRECTION ( 'NONE',  ( 0.000000000000000000, 0.000000000000000000, -1.000000000000000000 ) ) ;
#270 = LINE ( 'NONE', #393, #497 ) ;
#271 = ORIENTED_EDGE ( 'NONE', *, *, #547, .F. ) ;
#272 = DIRECTION ( 'NONE',  ( 0.000000000000000000, 1.000000000000000000, 0.000000000000000000 ) ) ;
#273 = AXIS2_PLACEMENT_3D ( 'NONE', #737, #112, #181 ) ;
#274 = AXIS2_PLACEMENT_3D ( 'NONE', #446, #103, #174 ) ;
#275 = VERTEX_POINT ( 'NONE', #540 ) ;
#276 = ADVANCED_FACE ( 'NONE', ( #607 ), #672, .F. ) ;
#277 = FACE_BOUND ( 'NONE', #776, .T. ) ;
#278 = EDGE_LOOP ( 'NONE', ( #469, #209, #271, #748 ) ) ;
#279 = ORIENTED_EDGE ( 'NONE', *, *, #130, .F. ) ;
#280 = DIRECTION ( 'NONE',  ( 0.000000000000000000, 0.000000000000000000, 1.000000000000000000 ) ) ;
#281 = CARTESIAN_POINT ( 'NONE',  ( -4.133858267716535195, 0.2362204724409449064, 3.149606299212598604 ) ) ;
#282 = EDGE_LOOP ( 'NONE', ( #255, #501 ) ) ;
#283 = DIRECTION ( 'NONE',  ( 0.000000000000000000, 1.000000000000000000, 0.000000000000000000 ) ) ;
#284 = DIRECTION ( 'NONE',  ( 0.000000000000000000, 0.000000000000000000, 1.000000000000000000 ) ) ;
#285 = ADVANCED_FACE ( 'NONE', ( #468 ), #668, .F. ) ;
#286 = AXIS2_PLACEMENT_3D ( 'NONE', #784, #355, #158 ) ;
#287 = ORIENTED_EDGE ( 'NONE', *, *, #80, .T. ) ;
#288 = SECURITY_CLASSIFICATION ( '', '', #39 ) ;
#289 = CARTESIAN_POINT ( 'NONE',  ( 1.771653543307086576, 0.2362204724409449064, 0.000000000000000000 ) ) ;
#290 = CYLINDRICAL_SURFACE ( 'NONE', #151, 0.1673228346456694382 ) ;
#291 = CARTESIAN_POINT ( 'NONE',  ( 3.543307086614173151, 0.2362204724409449064, 2.726377952755905998 ) ) ;
#292 = VERTEX_POINT ( 'NONE', #117 ) ;
#293 = CYLINDRICAL_SURFACE ( 'NONE', #286, 0.1673228346456694382 ) ;
#294 = ORIENTED_EDGE ( 'NONE', *, *, #547, .T. ) ;
#295 = EDGE_CURVE ( 'NONE', #64, #558, #401, .T. ) ;
#296 = CARTESIAN_POINT ( 'NONE',  ( 1.141732283464567121, 0.000000000000000000, -0.8661417322834645827 ) ) ;
#297 = ADVANCED_FACE ( 'NONE', ( #48 ), #109, .F. ) ;
#298 = CARTESIAN_POINT ( 'NONE',  ( 2.401574803149606474, 0.2362204724409449064, -0.8661417322834645827 ) ) ;
#299 = CIRCLE ( 'NONE', #830, 0.08858267716535414560 ) ;
#300 = ORIENTED_EDGE ( 'NONE', *, *, #195, .T. ) ;
#301 = LINE ( 'NONE', #71, #859 ) ;
#302 = CIRCLE ( 'NONE', #172, 0.9271653543307089018 ) ;
#303 = CIRCLE ( 'NONE', #414, 0.1673228346456694382 ) ;
#304 = DIRECTION ( 'NONE',  ( -0.000000000000000000, -1.000000000000000000, -0.000000000000000000 ) ) ;
#305 = CYLINDRICAL_SURFACE ( 'NONE', #787, 0.08858267716535414560 ) ;
#306 = ORIENTED_EDGE ( 'NONE', *, *, #331, .T. ) ;
#307 = DIRECTION ( 'NONE',  ( 0.000000000000000000, 1.000000000000000000, 0.000000000000000000 ) ) ;
#308 = CARTESIAN_POINT ( 'NONE',  ( 3.543307086614173151, 0.2362204724409449064, 2.559055118110236560 ) ) ;
#309 = EDGE_LOOP ( 'NONE', ( #581, #326, #268, #204 ) ) ;
#310 = DATE_TIME_ROLE ( 'classification_date' ) ;
#311 = CARTESIAN_POINT ( 'NONE',  ( -3.543307086614173151, 0.000000000000000000, 2.726377952755905998 ) ) ;
#312 = EDGE_CURVE ( 'NONE', #124, #619, #7, .T. ) ;
#313 = LINE ( 'NONE', #865, #665 ) ;
#314 = VERTEX_POINT ( 'NONE', #895 ) ;
#315 = VECTOR ( 'NONE', #872, 39.37007874015748143 ) ;
#316 = DIRECTION ( 'NONE',  ( 0.000000000000000000, 0.000000000000000000, 1.000000000000000000 ) ) ;
#317 = CIRCLE ( 'NONE', #858, 0.08858267716535427050 ) ;
#318 = AXIS2_PLACEMENT_3D ( 'NONE', #790, #371, #17 ) ;
#319 = EDGE_CURVE ( 'NONE', #848, #124, #270, .T. ) ;
#320 = DIRECTION ( 'NONE',  ( 0.000000000000000000, 0.000000000000000000, 1.000000000000000000 ) ) ;
#321 = UNCERTAINTY_MEASURE_WITH_UNIT (LENGTH_MEASURE( 1.000000000000000082E-05 ), #853, 'distance_accuracy_value', 'NONE');
#322 = ORIENTED_EDGE ( 'NONE', *, *, #817, .F. ) ;
#323 = APPROVAL_STATUS ( 'not_yet_approved' ) ;
#324 = CARTESIAN_POINT ( 'NONE',  ( 2.401574803149606474, 0.2362204724409449064, -0.9547244094488186450 ) ) ;
#325 = CARTESIAN_POINT ( 'NONE',  ( 4.133858267716535195, 0.2362204724409449064, 3.149606299212598604 ) ) ;
#326 = ORIENTED_EDGE ( 'NONE', *, *, #894, .T. ) ;
#327 = PERSON_AND_ORGANIZATION ( #510, #429 ) ;
#328 = CARTESIAN_POINT ( 'NONE',  ( 3.543307086614173151, 0.2362204724409449064, 2.391732283464567121 ) ) ;
#329 = CARTESIAN_POINT ( 'NONE',  ( 3.543307086614173151, 0.000000000000000000, -2.559055118110236560 ) ) ;
#330 = ORIENTED_EDGE ( 'NONE', *, *, #420, .T. ) ;
#331 = EDGE_CURVE ( 'NONE', #709, #347, #769, .T. ) ;
#332 = CARTESIAN_POINT ( 'NONE',  ( 0.000000000000000000, 0.2362204724409449064, 0.000000000000000000 ) ) ;
#333 = VECTOR ( 'NONE', #449, 39.37007874015748143 ) ;
#334 = CARTESIAN_POINT ( 'NONE',  ( -3.543307086614173151, 0.000000000000000000, 2.559055118110236560 ) ) ;
#335 = VERTEX_POINT ( 'NONE', #509 ) ;
#336 = DIRECTION ( 'NONE',  ( 0.000000000000000000, 0.000000000000000000, 1.000000000000000000 ) ) ;
#337 = DIRECTION ( 'NONE',  ( -0.000000000000000000, -1.000000000000000000, -0.000000000000000000 ) ) ;
#338 = VERTEX_POINT ( 'NONE', #431 ) ;
#339 = CARTESIAN_POINT ( 'NONE',  ( 1.771653543307086576, 0.2362204724409449064, -0.9271653543307089018 ) ) ;
#340 = EDGE_CURVE ( 'NONE', #335, #663, #457, .T. ) ;
#341 = EDGE_LOOP ( 'NONE', ( #236, #137, #892, #352 ) ) ;
#342 = CYLINDRICAL_SURFACE ( 'NONE', #93, 0.08858267716535427050 ) ;
#343 = AXIS2_PLACEMENT_3D ( 'NONE', #527, #876, #257 ) ;
#344 = CIRCLE ( 'NONE', #78, 0.08858267716535427050 ) ;
#345 = CC_DESIGN_PERSON_AND_ORGANIZATION_ASSIGNMENT ( #176, #721, ( #288 ) ) ;
#346 = EDGE_CURVE ( 'NONE', #848, #463, #543, .T. ) ;
#347 = VERTEX_POINT ( 'NONE', #864 ) ;
#348 = AXIS2_PLACEMENT_3D ( 'NONE', #263, #465, #481 ) ;
#349 = VERTEX_POINT ( 'NONE', #219 ) ;
#350 = DIRECTION ( 'NONE',  ( -0.000000000000000000, -1.000000000000000000, -0.000000000000000000 ) ) ;
#351 = FACE_OUTER_BOUND ( 'NONE', #278, .T. ) ;
#352 = ORIENTED_EDGE ( 'NONE', *, *, #674, .F. ) ;
#353 = CARTESIAN_POINT ( 'NONE',  ( -3.543307086614173151, 0.2362204724409449064, -2.559055118110236560 ) ) ;
#354 = ADVANCED_FACE ( 'NONE', ( #69 ), #561, .F. ) ;
#355 = DIRECTION ( 'NONE',  ( -0.000000000000000000, -1.000000000000000000, -0.000000000000000000 ) ) ;
#356 = VERTEX_POINT ( 'NONE', #364 ) ;
#357 = ORIENTED_EDGE ( 'NONE', *, *, #398, .T. ) ;
#358 = DIRECTION ( 'NONE',  ( -0.000000000000000000, -1.000000000000000000, -0.000000000000000000 ) ) ;
#359 = DIRECTION ( 'NONE',  ( 0.000000000000000000, 0.000000000000000000, 1.000000000000000000 ) ) ;
#360 = AXIS2_PLACEMENT_3D ( 'NONE', #739, #337, #694 ) ;
#361 = ORIENTED_EDGE ( 'NONE', *, *, #771, .F. ) ;
#362 = CIRCLE ( 'NONE', #833, 0.08858267716535427050 ) ;
#363 = VECTOR ( 'NONE', #563, 39.37007874015748143 ) ;
#364 = CARTESIAN_POINT ( 'NONE',  ( 1.141732283464567121, 0.2362204724409449064, 0.7775590551181102983 ) ) ;
#365 = EDGE_CURVE ( 'NONE', #558, #347, #644, .T. ) ;
#366 = ORIENTED_EDGE ( 'NONE', *, *, #812, .T. ) ;
#367 = EDGE_LOOP ( 'NONE', ( #294, #264, #572, #221 ) ) ;
#368 = CYLINDRICAL_SURFACE ( 'NONE', #190, 0.1673228346456694382 ) ;
#369 = DIRECTION ( 'NONE',  ( 0.000000000000000000, 0.000000000000000000, -1.000000000000000000 ) ) ;
#370 = VERTEX_POINT ( 'NONE', #699 ) ;
#371 = DIRECTION ( 'NONE',  ( 0.000000000000000000, 1.000000000000000000, 0.000000000000000000 ) ) ;
#372 = CARTESIAN_POINT ( 'NONE',  ( 3.543307086614173151, 0.2362204724409449064, 2.559055118110236560 ) ) ;
#373 = CARTESIAN_POINT ( 'NONE',  ( -3.543307086614173151, 0.2362204724409449064, 2.559055118110236560 ) ) ;
#374 = VECTOR ( 'NONE', #265, 39.37007874015748143 ) ;
#375 = ORIENTED_EDGE ( 'NONE', *, *, #410, .T. ) ;
#376 = DIRECTION ( 'NONE',  ( 0.000000000000000000, 1.000000000000000000, 0.000000000000000000 ) ) ;
#377 = CARTESIAN_POINT ( 'NONE',  ( 4.133858267716535195, 0.000000000000000000, -3.149606299212598604 ) ) ;
#378 = ORIENTED_EDGE ( 'NONE', *, *, #61, .F. ) ;
#379 = APPROVAL_ROLE ( '' ) ;
#380 = EDGE_CURVE ( 'NONE', #59, #252, #645, .T. ) ;
#381 = DIRECTION ( 'NONE',  ( -0.000000000000000000, -1.000000000000000000, -0.000000000000000000 ) ) ;
#382 = LINE ( 'NONE', #655, #232 ) ;
#383 = ORIENTED_EDGE ( 'NONE', *, *, #340, .T. ) ;
#384 = APPLICATION_PROTOCOL_DEFINITION ( 'international standard', 'config_control_design', 1994, #208 ) ;
#385 = CARTESIAN_POINT ( 'NONE',  ( 2.401574803149606474, 0.2362204724409449064, 0.9547244094488186450 ) ) ;
#386 = FACE_OUTER_BOUND ( 'NONE', #438, .T. ) ;
#387 = ORIENTED_EDGE ( 'NONE', *, *, #239, .F. ) ;
#388 = COORDINATED_UNIVERSAL_TIME_OFFSET ( 1, 0, .AHEAD. ) ;
#389 = AXIS2_PLACEMENT_3D ( 'NONE', #296, #492, #575 ) ;
#390 = LINE ( 'NONE', #651, #333 ) ;
#391 = CC_DESIGN_APPROVAL ( #133, ( #108 ) ) ;
#392 = AXIS2_PLACEMENT_3D ( 'NONE', #818, #214, #320 ) ;
#393 = CARTESIAN_POINT ( 'NONE',  ( -3.543307086614173151, 0.2362204724409449064, 2.391732283464567121 ) ) ;
#394 = ORIENTED_EDGE ( 'NONE', *, *, #441, .T. ) ;
#395 = APPROVAL_DATE_TIME ( #444, #591 ) ;
#396 = DIRECTION ( 'NONE',  ( 0.000000000000000000, 1.000000000000000000, 0.000000000000000000 ) ) ;
#397 = FACE_OUTER_BOUND ( 'NONE', #486, .T. ) ;
#398 = EDGE_CURVE ( 'NONE', #898, #59, #568, .T. ) ;
#399 = VERTEX_POINT ( 'NONE', #11 ) ;
#400 = DIRECTION ( 'NONE',  ( 0.000000000000000000, 0.000000000000000000, -1.000000000000000000 ) ) ;
#401 = LINE ( 'NONE', #533, #49 ) ;
#402 = EDGE_LOOP ( 'NONE', ( #608, #866, #805, #592 ) ) ;
#403 = CARTESIAN_POINT ( 'NONE',  ( 3.543307086614173151, 0.2362204724409449064, -2.559055118110236560 ) ) ;
#404 = AXIS2_PLACEMENT_3D ( 'NONE', #144, #624, #284 ) ;
#405 = DIRECTION ( 'NONE',  ( 0.000000000000000000, 1.000000000000000000, 0.000000000000000000 ) ) ;
#406 = ORIENTED_EDGE ( 'NONE', *, *, #684, .F. ) ;
#407 = DIRECTION ( 'NONE',  ( 0.000000000000000000, 0.000000000000000000, 1.000000000000000000 ) ) ;
#408 = EDGE_LOOP ( 'NONE', ( #279, #51 ) ) ;
#409 = CARTESIAN_POINT ( 'NONE',  ( 4.133858267716535195, 0.2362204724409449064, 3.149606299212598604 ) ) ;
#410 = EDGE_CURVE ( 'NONE', #292, #648, #202, .T. ) ;
#411 = ORIENTED_EDGE ( 'NONE', *, *, #603, .T. ) ;
#412 = DIRECTION ( 'NONE',  ( 0.000000000000000000, 1.000000000000000000, 0.000000000000000000 ) ) ;
#413 = VECTOR ( 'NONE', #738, 39.37007874015748143 ) ;
#414 = AXIS2_PLACEMENT_3D ( 'NONE', #184, #681, #528 ) ;
#415 = EDGE_CURVE ( 'NONE', #669, #314, #757, .T. ) ;
#416 = ORIENTED_EDGE ( 'NONE', *, *, #155, .F. ) ;
#417 = DIRECTION ( 'NONE',  ( 0.000000000000000000, 1.000000000000000000, 0.000000000000000000 ) ) ;
#418 = DIRECTION ( 'NONE',  ( 0.000000000000000000, 0.000000000000000000, 1.000000000000000000 ) ) ;
#419 = ORIENTED_EDGE ( 'NONE', *, *, #718, .T. ) ;
#420 = EDGE_CURVE ( 'NONE', #656, #898, #767, .T. ) ;
#421 = EDGE_LOOP ( 'NONE', ( #180, #28 ) ) ;
#422 = CARTESIAN_POINT ( 'NONE',  ( 2.401574803149606474, 0.2362204724409449064, 0.7775590551181104093 ) ) ;
#423 = ORIENTED_EDGE ( 'NONE', *, *, #733, .T. ) ;
#424 = VERTEX_POINT ( 'NONE', #72 ) ;
#425 = DIRECTION ( 'NONE',  ( -0.000000000000000000, -1.000000000000000000, -0.000000000000000000 ) ) ;
#426 = CIRCLE ( 'NONE', #740, 0.08858267716535427050 ) ;
#427 = VECTOR ( 'NONE', #491, 39.37007874015748143 ) ;
#428 = FACE_OUTER_BOUND ( 'NONE', #447, .T. ) ;
#429 = ORGANIZATION ( 'UNSPECIFIED', 'UNSPECIFIED', '' ) ;
#430 = LINE ( 'NONE', #553, #708 ) ;
#431 = CARTESIAN_POINT ( 'NONE',  ( 1.141732283464567121, 0.000000000000000000, 0.9547244094488188670 ) ) ;
#432 = CC_DESIGN_PERSON_AND_ORGANIZATION_ASSIGNMENT ( #105, #169, ( #147 ) ) ;
#433 = CARTESIAN_POINT ( 'NONE',  ( -3.543307086614173151, 0.2362204724409449064, -2.726377952755905998 ) ) ;
#434 = ORIENTED_EDGE ( 'NONE', *, *, #610, .F. ) ;
#435 = CARTESIAN_POINT ( 'NONE',  ( 1.771653543307086576, 0.2362204724409449064, 0.000000000000000000 ) ) ;
#436 = CARTESIAN_POINT ( 'NONE',  ( -4.133858267716535195, 0.000000000000000000, 3.149606299212598604 ) ) ;
#437 = DIRECTION ( 'NONE',  ( 0.000000000000000000, 1.000000000000000000, 0.000000000000000000 ) ) ;
#438 = EDGE_LOOP ( 'NONE', ( #56, #824, #3, #617 ) ) ;
#439 = CARTESIAN_POINT ( 'NONE',  ( 3.543307086614173151, 0.2362204724409449064, 2.726377952755905998 ) ) ;
#440 = CARTESIAN_POINT ( 'NONE',  ( 1.141732283464567121, 0.2362204724409449064, 0.8661417322834645827 ) ) ;
#441 = EDGE_CURVE ( 'NONE', #424, #663, #775, .T. ) ;
#442 = AXIS2_PLACEMENT_3D ( 'NONE', #334, #55, #891 ) ;
#443 = ORIENTED_EDGE ( 'NONE', *, *, #61, .T. ) ;
#444 = DATE_AND_TIME ( #587, #724 ) ;
#445 = FACE_OUTER_BOUND ( 'NONE', #86, .T. ) ;
#446 = CARTESIAN_POINT ( 'NONE',  ( -3.543307086614173151, 0.2362204724409449064, -2.559055118110236560 ) ) ;
#447 = EDGE_LOOP ( 'NONE', ( #696, #443, #742, #90 ) ) ;
#448 = DATE_AND_TIME ( #728, #262 ) ;
#449 = DIRECTION ( 'NONE',  ( -0.000000000000000000, -1.000000000000000000, -0.000000000000000000 ) ) ;
#450 = FACE_OUTER_BOUND ( 'NONE', #402, .T. ) ;
#451 = EDGE_LOOP ( 'NONE', ( #541, #104, #12, #753 ) ) ;
#452 = DATE_TIME_ROLE ( 'creation_date' ) ;
#453 = CARTESIAN_POINT ( 'NONE',  ( 1.141732283464567121, 0.2362204724409449064, 0.7775590551181102983 ) ) ;
#454 = CARTESIAN_POINT ( 'NONE',  ( -4.133858267716535195, 0.2362204724409449064, -3.149606299212598604 ) ) ;
#455 = EDGE_LOOP ( 'NONE', ( #621, #193 ) ) ;
#456 = APPROVAL_DATE_TIME ( #811, #133 ) ;
#457 = CIRCLE ( 'NONE', #389, 0.08858267716535427050 ) ;
#458 = LINE ( 'NONE', #260, #107 ) ;
#459 = CC_DESIGN_SECURITY_CLASSIFICATION ( #288, ( #108 ) ) ;
#460 = AXIS2_PLACEMENT_3D ( 'NONE', #747, #814, #254 ) ;
#461 = EDGE_CURVE ( 'NONE', #534, #292, #565, .T. ) ;
#462 = CARTESIAN_POINT ( 'NONE',  ( -4.133858267716535195, 0.2362204724409449064, -3.149606299212598604 ) ) ;
#463 = VERTEX_POINT ( 'NONE', #505 ) ;
#464 = DIRECTION ( 'NONE',  ( 0.000000000000000000, -0.000000000000000000, -1.000000000000000000 ) ) ;
#465 = DIRECTION ( 'NONE',  ( -0.000000000000000000, -1.000000000000000000, -0.000000000000000000 ) ) ;
#466 = VERTEX_POINT ( 'NONE', #439 ) ;
#467 = CARTESIAN_POINT ( 'NONE',  ( 1.141732283464567121, 0.2362204724409449064, -0.8661417322834645827 ) ) ;
#468 = FACE_OUTER_BOUND ( 'NONE', #493, .T. ) ;
#469 = ORIENTED_EDGE ( 'NONE', *, *, #295, .T. ) ;
#470 = DIRECTION ( 'NONE',  ( -0.000000000000000000, -1.000000000000000000, -0.000000000000000000 ) ) ;
#471 = AXIS2_PLACEMENT_3D ( 'NONE', #194, #867, #243 ) ;
#472 = CIRCLE ( 'NONE', #52, 0.1673228346456694382 ) ;
#473 = EDGE_LOOP ( 'NONE', ( #494, #101 ) ) ;
#474 = EDGE_CURVE ( 'NONE', #118, #67, #639, .T. ) ;
#475 = CARTESIAN_POINT ( 'NONE',  ( 2.401574803149606474, 0.2362204724409449064, -0.9547244094488186450 ) ) ;
#476 = DIRECTION ( 'NONE',  ( 1.000000000000000000, -0.000000000000000000, 0.000000000000000000 ) ) ;
#477 = FACE_BOUND ( 'NONE', #710, .T. ) ;
#478 = CARTESIAN_POINT ( 'NONE',  ( 1.771653543307086576, 0.000000000000000000, -0.9271653543307089018 ) ) ;
#479 = ORIENTED_EDGE ( 'NONE', *, *, #312, .F. ) ;
#480 = APPLICATION_PROTOCOL_DEFINITION ( 'international standard', 'config_control_design', 1994, #157 ) ;
#481 = DIRECTION ( 'NONE',  ( 0.000000000000000000, 0.000000000000000000, -1.000000000000000000 ) ) ;
#482 = VECTOR ( 'NONE', #488, 39.37007874015748143 ) ;
#483 = ADVANCED_FACE ( 'NONE', ( #88 ), #290, .F. ) ;
#484 = CIRCLE ( 'NONE', #95, 0.1673228346456694382 ) ;
#485 = CARTESIAN_POINT ( 'NONE',  ( 1.141732283464567121, 0.2362204724409449064, -0.7775590551181102983 ) ) ;
#486 = EDGE_LOOP ( 'NONE', ( #241, #841, #831, #135 ) ) ;
#487 = DIRECTION ( 'NONE',  ( -1.000000000000000000, -0.000000000000000000, -0.000000000000000000 ) ) ;
#488 = DIRECTION ( 'NONE',  ( -0.000000000000000000, -1.000000000000000000, -0.000000000000000000 ) ) ;
#489 = VERTEX_POINT ( 'NONE', #18 ) ;
#490 = ORIENTED_EDGE ( 'NONE', *, *, #526, .F. ) ;
#491 = DIRECTION ( 'NONE',  ( -0.000000000000000000, -1.000000000000000000, -0.000000000000000000 ) ) ;
#492 = DIRECTION ( 'NONE',  ( 0.000000000000000000, 1.000000000000000000, 0.000000000000000000 ) ) ;
#493 = EDGE_LOOP ( 'NONE', ( #513, #793, #507, #692 ) ) ;
#494 = ORIENTED_EDGE ( 'NONE', *, *, #220, .T. ) ;
#495 = CARTESIAN_POINT ( 'NONE',  ( 4.133858267716535195, 0.2362204724409449064, -3.149606299212598604 ) ) ;
#496 = LINE ( 'NONE', #704, #678 ) ;
#497 = VECTOR ( 'NONE', #41, 39.37007874015748143 ) ;
#498 = VECTOR ( 'NONE', #87, 39.37007874015748143 ) ;
#499 = DIRECTION ( 'NONE',  ( 0.000000000000000000, 0.000000000000000000, -1.000000000000000000 ) ) ;
#500 = CIRCLE ( 'NONE', #156, 0.1673228346456694382 ) ;
#501 = ORIENTED_EDGE ( 'NONE', *, *, #880, .F. ) ;
#502 = CIRCLE ( 'NONE', #901, 0.1673228346456694382 ) ;
#503 = CC_DESIGN_PERSON_AND_ORGANIZATION_ASSIGNMENT ( #657, #743, ( #108 ) ) ;
#504 = EDGE_CURVE ( 'NONE', #175, #314, #496, .T. ) ;
#505 = CARTESIAN_POINT ( 'NONE',  ( -3.543307086614173151, 0.2362204724409449064, 2.726377952755905998 ) ) ;
#506 = DIRECTION ( 'NONE',  ( 0.000000000000000000, 1.000000000000000000, 0.000000000000000000 ) ) ;
#507 = ORIENTED_EDGE ( 'NONE', *, *, #618, .F. ) ;
#508 = PERSON_AND_ORGANIZATION_ROLE ( 'creator' ) ;
#509 = CARTESIAN_POINT ( 'NONE',  ( 1.141732283464567121, 0.000000000000000000, -0.7775590551181102983 ) ) ;
#510 = PERSON ( 'UNSPECIFIED', 'UNSPECIFIED', 'UNSPECIFIED', ('UNSPECIFIED'), ('UNSPECIFIED'), ('UNSPECIFIED') ) ;
#511 = ADVANCED_FACE ( 'NONE', ( #854 ), #293, .F. ) ;
#512 = FACE_OUTER_BOUND ( 'NONE', #522, .T. ) ;
#513 = ORIENTED_EDGE ( 'NONE', *, *, #574, .T. ) ;
#514 = DIRECTION ( 'NONE',  ( 0.000000000000000000, 0.000000000000000000, 1.000000000000000000 ) ) ;
#515 = ADVANCED_FACE ( 'NONE', ( #84 ), #368, .F. ) ;
#516 = DIRECTION ( 'NONE',  ( 0.000000000000000000, 0.000000000000000000, 1.000000000000000000 ) ) ;
#517 = ORIENTED_EDGE ( 'NONE', *, *, #603, .F. ) ;
#518 = CALENDAR_DATE ( 2026, 10, 8 ) ;
#519 = AXIS2_PLACEMENT_3D ( 'NONE', #167, #499, #250 ) ;
#520 = LINE ( 'NONE', #722, #613 ) ;
#521 = CARTESIAN_POINT ( 'NONE',  ( -3.543307086614173151, 0.2362204724409449064, -2.559055118110236560 ) ) ;
#522 = EDGE_LOOP ( 'NONE', ( #245, #128, #416, #115 ) ) ;
#523 = CARTESIAN_POINT ( 'NONE',  ( 3.543307086614173151, 0.2362204724409449064, 2.391732283464567121 ) ) ;
#524 = CARTESIAN_POINT ( 'NONE',  ( 3.543307086614173151, 0.2362204724409449064, -2.559055118110236560 ) ) ;
#525 = ORIENTED_EDGE ( 'NONE', *, *, #340, .F. ) ;
#526 = EDGE_CURVE ( 'NONE', #626, #700, #734, .T. ) ;
#527 = CARTESIAN_POINT ( 'NONE',  ( 1.771653543307086576, 0.2362204724409449064, 0.000000000000000000 ) ) ;
#528 = DIRECTION ( 'NONE',  ( 0.000000000000000000, 0.000000000000000000, 1.000000000000000000 ) ) ;
#529 = ORIENTED_EDGE ( 'NONE', *, *, #380, .T. ) ;
#530 = AXIS2_PLACEMENT_3D ( 'NONE', #635, #717, #359 ) ;
#531 = DIRECTION ( 'NONE',  ( -0.000000000000000000, -1.000000000000000000, -0.000000000000000000 ) ) ;
#532 = APPROVAL_PERSON_ORGANIZATION ( #863, #591, #256 ) ;
#533 = CARTESIAN_POINT ( 'NONE',  ( -4.133858267716535195, 0.000000000000000000, 3.149606299212598604 ) ) ;
#534 = VERTEX_POINT ( 'NONE', #667 ) ;
#535 = DIRECTION ( 'NONE',  ( 0.000000000000000000, 0.000000000000000000, 1.000000000000000000 ) ) ;
#536 = ADVANCED_FACE ( 'NONE', ( #445 ), #594, .F. ) ;
#537 = CYLINDRICAL_SURFACE ( 'NONE', #348, 0.9271653543307089018 ) ;
#538 = ORIENTED_EDGE ( 'NONE', *, *, #650, .T. ) ;
#539 = CARTESIAN_POINT ( 'NONE',  ( -3.543307086614173151, 0.000000000000000000, -2.559055118110236560 ) ) ;
#540 = CARTESIAN_POINT ( 'NONE',  ( 1.771653543307086576, 0.2362204724409449064, 0.9271653543307089018 ) ) ;
#541 = ORIENTED_EDGE ( 'NONE', *, *, #562, .F. ) ;
#542 = LINE ( 'NONE', #475, #498 ) ;
#543 = CIRCLE ( 'NONE', #404, 0.1673228346456694382 ) ;
#544 = APPROVAL_PERSON_ORGANIZATION ( #799, #133, #379 ) ;
#545 = ORIENTED_EDGE ( 'NONE', *, *, #880, .T. ) ;
#546 = DIRECTION ( 'NONE',  ( -0.000000000000000000, -1.000000000000000000, -0.000000000000000000 ) ) ;
#547 = EDGE_CURVE ( 'NONE', #259, #548, #44, .T. ) ;
#548 = VERTEX_POINT ( 'NONE', #40 ) ;
#549 = FACE_OUTER_BOUND ( 'NONE', #367, .T. ) ;
#550 = EDGE_CURVE ( 'NONE', #548, #558, #458, .T. ) ;
#551 = CARTESIAN_POINT ( 'NONE',  ( -3.543307086614173151, 0.2362204724409449064, 2.559055118110236560 ) ) ;
#552 = ORIENTED_EDGE ( 'NONE', *, *, #120, .T. ) ;
#553 = CARTESIAN_POINT ( 'NONE',  ( 1.141732283464567121, 0.2362204724409449064, 0.9547244094488188670 ) ) ;
#554 = DIRECTION ( 'NONE',  ( 0.000000000000000000, 1.000000000000000000, 0.000000000000000000 ) ) ;
#555 = VECTOR ( 'NONE', #8, 39.37007874015748143 ) ;
#556 = CIRCLE ( 'NONE', #835, 0.1673228346456694382 ) ;
#557 = AXIS2_PLACEMENT_3D ( 'NONE', #164, #797, #566 ) ;
#558 = VERTEX_POINT ( 'NONE', #247 ) ;
#559 = ORIENTED_EDGE ( 'NONE', *, *, #808, .F. ) ;
#560 = DIRECTION ( 'NONE',  ( 0.000000000000000000, 0.000000000000000000, 1.000000000000000000 ) ) ;
#561 = CYLINDRICAL_SURFACE ( 'NONE', #171, 0.08858267716535414560 ) ;
#562 = EDGE_CURVE ( 'NONE', #633, #669, #729, .T. ) ;
#563 = DIRECTION ( 'NONE',  ( -0.000000000000000000, -1.000000000000000000, -0.000000000000000000 ) ) ;
#564 = DIRECTION ( 'NONE',  ( 0.000000000000000000, 0.000000000000000000, 1.000000000000000000 ) ) ;
#565 = LINE ( 'NONE', #850, #600 ) ;
#566 = DIRECTION ( 'NONE',  ( 1.000000000000000000, 0.000000000000000000, -0.000000000000000000 ) ) ;
#567 = DIRECTION ( 'NONE',  ( -0.000000000000000000, -1.000000000000000000, -0.000000000000000000 ) ) ;
#568 = LINE ( 'NONE', #422, #585 ) ;
#569 = VECTOR ( 'NONE', #381, 39.37007874015748143 ) ;
#570 = DIRECTION ( 'NONE',  ( 0.000000000000000000, 0.000000000000000000, 1.000000000000000000 ) ) ;
#571 = CIRCLE ( 'NONE', #125, 0.1673228346456694382 ) ;
#572 = ORIENTED_EDGE ( 'NONE', *, *, #182, .T. ) ;
#573 =( LENGTH_UNIT ( ) NAMED_UNIT ( * ) SI_UNIT ( $, .METRE. ) );
#574 = EDGE_CURVE ( 'NONE', #424, #32, #122, .T. ) ;
#575 = DIRECTION ( 'NONE',  ( 0.000000000000000000, 0.000000000000000000, 1.000000000000000000 ) ) ;
#576 = CARTESIAN_POINT ( 'NONE',  ( -3.543307086614173151, 0.000000000000000000, -2.559055118110236560 ) ) ;
#577 = VERTEX_POINT ( 'NONE', #324 ) ;
#578 = MECHANICAL_CONTEXT ( 'NONE', #157, 'mechanical' ) ;
#579 = CARTESIAN_POINT ( 'NONE',  ( 4.133858267716535195, 0.000000000000000000, 3.149606299212598604 ) ) ;
#580 = PLANE ( 'NONE',  #519 ) ;
#581 = ORIENTED_EDGE ( 'NONE', *, *, #871, .T. ) ;
#582 = DATE_AND_TIME ( #518, #602 ) ;
#583 = CARTESIAN_POINT ( 'NONE',  ( 1.141732283464567121, 0.2362204724409449064, -0.8661417322834645827 ) ) ;
#584 = DIRECTION ( 'NONE',  ( 0.000000000000000000, 1.000000000000000000, 0.000000000000000000 ) ) ;
#585 = VECTOR ( 'NONE', #223, 39.37007874015748143 ) ;
#586 = ORIENTED_EDGE ( 'NONE', *, *, #812, .F. ) ;
#587 = CALENDAR_DATE ( 2026, 10, 8 ) ;
#588 = CIRCLE ( 'NONE', #318, 0.08858267716535427050 ) ;
#589 = CARTESIAN_POINT ( 'NONE',  ( 3.543307086614173151, 0.2362204724409449064, -2.391732283464567121 ) ) ;
#590 = CYLINDRICAL_SURFACE ( 'NONE', #110, 0.08858267716535414560 ) ;
#591 = APPROVAL ( #246, 'UNSPECIFIED' ) ;
#592 = ORIENTED_EDGE ( 'NONE', *, *, #410, .F. ) ;
#593 = APPROVAL_ROLE ( '' ) ;
#594 = CYLINDRICAL_SURFACE ( 'NONE', #343, 0.9271653543307089018 ) ;
#595 = DIRECTION ( 'NONE',  ( 0.000000000000000000, 0.000000000000000000, 1.000000000000000000 ) ) ;
#596 = ORIENTED_EDGE ( 'NONE', *, *, #794, .T. ) ;
#597 = DIRECTION ( 'NONE',  ( -0.000000000000000000, -0.000000000000000000, 1.000000000000000000 ) ) ;
#598 = CARTESIAN_POINT ( 'NONE',  ( 2.401574803149606474, 0.2362204724409449064, -0.8661417322834645827 ) ) ;
#599 = VERTEX_POINT ( 'NONE', #821 ) ;
#600 = VECTOR ( 'NONE', #779, 39.37007874015748143 ) ;
#601 = FACE_BOUND ( 'NONE', #43, .T. ) ;
#602 = LOCAL_TIME ( 1, 38, 5.000000000000000000, #388 ) ;
#603 = EDGE_CURVE ( 'NONE', #577, #534, #261, .T. ) ;
#604 = LINE ( 'NONE', #114, #788 ) ;
#605 = ORIENTED_EDGE ( 'NONE', *, *, #380, .F. ) ;
#606 = FACE_BOUND ( 'NONE', #473, .T. ) ;
#607 = FACE_OUTER_BOUND ( 'NONE', #150, .T. ) ;
#608 = ORIENTED_EDGE ( 'NONE', *, *, #461, .F. ) ;
#609 = FACE_BOUND ( 'NONE', #282, .T. ) ;
#610 = EDGE_CURVE ( 'NONE', #898, #656, #248, .T. ) ;
#611 = EDGE_LOOP ( 'NONE', ( #434, #81 ) ) ;
#612 = CARTESIAN_POINT ( 'NONE',  ( -4.133858267716535195, 0.000000000000000000, -3.149606299212598604 ) ) ;
#613 = VECTOR ( 'NONE', #92, 39.37007874015748143 ) ;
#614 = APPROVAL_PERSON_ORGANIZATION ( #327, #752, #593 ) ;
#615 = AXIS2_PLACEMENT_3D ( 'NONE', #440, #647, #22 ) ;
#616 = VECTOR ( 'NONE', #267, 39.37007874015748143 ) ;
#617 = ORIENTED_EDGE ( 'NONE', *, *, #733, .F. ) ;
#618 = EDGE_CURVE ( 'NONE', #663, #335, #317, .T. ) ;
#619 = VERTEX_POINT ( 'NONE', #311 ) ;
#620 = FACE_BOUND ( 'NONE', #455, .T. ) ;
#621 = ORIENTED_EDGE ( 'NONE', *, *, #794, .F. ) ;
#622 = EDGE_LOOP ( 'NONE', ( #596, #798, #5, #625 ) ) ;
#623 = DIRECTION ( 'NONE',  ( 0.000000000000000000, 0.000000000000000000, -1.000000000000000000 ) ) ;
#624 = DIRECTION ( 'NONE',  ( 0.000000000000000000, 1.000000000000000000, 0.000000000000000000 ) ) ;
#625 = ORIENTED_EDGE ( 'NONE', *, *, #504, .F. ) ;
#626 = VERTEX_POINT ( 'NONE', #523 ) ;
#627 = DIRECTION ( 'NONE',  ( 0.000000000000000000, 1.000000000000000000, 0.000000000000000000 ) ) ;
#628 = CARTESIAN_POINT ( 'NONE',  ( 1.141732283464567121, 0.2362204724409449064, -0.9547244094488188670 ) ) ;
#629 = EDGE_CURVE ( 'NONE', #347, #185, #30, .T. ) ;
#630 = AXIS2_PLACEMENT_3D ( 'NONE', #166, #857, #791 ) ;
#631 = AXIS2_PLACEMENT_3D ( 'NONE', #332, #116, #464 ) ;
#632 = ORIENTED_EDGE ( 'NONE', *, *, #783, .F. ) ;
#633 = VERTEX_POINT ( 'NONE', #589 ) ;
#634 = LINE ( 'NONE', #138, #427 ) ;
#635 = CARTESIAN_POINT ( 'NONE',  ( 2.401574803149606474, 0.2362204724409449064, 0.8661417322834645827 ) ) ;
#636 = EDGE_CURVE ( 'NONE', #463, #619, #520, .T. ) ;
#637 = ORIENTED_EDGE ( 'NONE', *, *, #526, .T. ) ;
#638 = ORIENTED_EDGE ( 'NONE', *, *, #225, .T. ) ;
#639 = LINE ( 'NONE', #149, #555 ) ;
#640 = DIRECTION ( 'NONE',  ( 0.000000000000000000, 0.000000000000000000, 1.000000000000000000 ) ) ;
#641 = EDGE_CURVE ( 'NONE', #252, #59, #299, .T. ) ;
#642 = ORIENTED_EDGE ( 'NONE', *, *, #80, .F. ) ;
#643 = FACE_OUTER_BOUND ( 'NONE', #780, .T. ) ;
#644 = LINE ( 'NONE', #436, #689 ) ;
#645 = CIRCLE ( 'NONE', #630, 0.08858267716535414560 ) ;
#646 = VECTOR ( 'NONE', #198, 39.37007874015748143 ) ;
#647 = DIRECTION ( 'NONE',  ( -0.000000000000000000, -1.000000000000000000, -0.000000000000000000 ) ) ;
#648 = VERTEX_POINT ( 'NONE', #807 ) ;
#649 = PERSON_AND_ORGANIZATION ( #510, #429 ) ;
#650 = EDGE_CURVE ( 'NONE', #869, #185, #390, .T. ) ;
#651 = CARTESIAN_POINT ( 'NONE',  ( 4.133858267716535195, 0.2362204724409449064, -3.149606299212598604 ) ) ;
#652 = CYLINDRICAL_SURFACE ( 'NONE', #218, 0.1673228346456694382 ) ;
#653 = EDGE_LOOP ( 'NONE', ( #529, #773 ) ) ;
#654 = DIRECTION ( 'NONE',  ( 0.000000000000000000, 1.000000000000000000, 0.000000000000000000 ) ) ;
#655 = CARTESIAN_POINT ( 'NONE',  ( 4.133858267716535195, 0.2362204724409449064, 3.149606299212598604 ) ) ;
#656 = VERTEX_POINT ( 'NONE', #385 ) ;
#657 = PERSON_AND_ORGANIZATION ( #510, #429 ) ;
#658 = CARTESIAN_POINT ( 'NONE',  ( 3.543307086614173151, 0.2362204724409449064, -2.559055118110236560 ) ) ;
#659 = EDGE_CURVE ( 'NONE', #633, #175, #230, .T. ) ;
#660 = DIRECTION ( 'NONE',  ( 0.000000000000000000, 0.000000000000000000, 1.000000000000000000 ) ) ;
#661 = VECTOR ( 'NONE', #882, 39.37007874015748143 ) ;
#662 = AXIS2_PLACEMENT_3D ( 'NONE', #842, #627, #6 ) ;
#663 = VERTEX_POINT ( 'NONE', #813 ) ;
#664 = APPROVAL_STATUS ( 'not_yet_approved' ) ;
#665 = VECTOR ( 'NONE', #100, 39.37007874015748143 ) ;
#666 = CIRCLE ( 'NONE', #392, 0.9271653543307089018 ) ;
#667 = CARTESIAN_POINT ( 'NONE',  ( 2.401574803149606474, 0.2362204724409449064, -0.7775590551181104093 ) ) ;
#668 = CYLINDRICAL_SURFACE ( 'NONE', #843, 0.08858267716535427050 ) ;
#669 = VERTEX_POINT ( 'NONE', #26 ) ;
#670 = PERSON_AND_ORGANIZATION ( #510, #429 ) ;
#671 = CARTESIAN_POINT ( 'NONE',  ( 2.401574803149606474, 0.2362204724409449064, 0.8661417322834645827 ) ) ;
#672 = CYLINDRICAL_SURFACE ( 'NONE', #360, 0.08858267716535414560 ) ;
#673 = ORIENTED_EDGE ( 'NONE', *, *, #610, .T. ) ;
#674 = EDGE_CURVE ( 'NONE', #356, #168, #183, .T. ) ;
#675 = LINE ( 'NONE', #47, #646 ) ;
#676 = DIRECTION ( 'NONE',  ( 0.000000000000000000, 0.000000000000000000, -1.000000000000000000 ) ) ;
#677 = EDGE_LOOP ( 'NONE', ( #638, #852 ) ) ;
#678 = VECTOR ( 'NONE', #304, 39.37007874015748143 ) ;
#679 = FACE_OUTER_BOUND ( 'NONE', #820, .T. ) ;
#680 = AXIS2_PLACEMENT_3D ( 'NONE', #576, #803, #516 ) ;
#681 = DIRECTION ( 'NONE',  ( 0.000000000000000000, 1.000000000000000000, 0.000000000000000000 ) ) ;
#682 = ORIENTED_EDGE ( 'NONE', *, *, #346, .T. ) ;
#683 = DIRECTION ( 'NONE',  ( 0.000000000000000000, 1.000000000000000000, 0.000000000000000000 ) ) ;
#684 = EDGE_CURVE ( 'NONE', #338, #168, #426, .T. ) ;
#685 = ORIENTED_EDGE ( 'NONE', *, *, #130, .T. ) ;
#686 = DIRECTION ( 'NONE',  ( 0.000000000000000000, -0.000000000000000000, -1.000000000000000000 ) ) ;
#687 = ORIENTED_EDGE ( 'NONE', *, *, #398, .F. ) ;
#688 = FACE_BOUND ( 'NONE', #611, .T. ) ;
#689 = VECTOR ( 'NONE', #796, 39.37007874015748143 ) ;
#690 = CIRCLE ( 'NONE', #802, 0.1673228346456694382 ) ;
#691 = AXIS2_PLACEMENT_3D ( 'NONE', #140, #199, #121 ) ;
#692 = ORIENTED_EDGE ( 'NONE', *, *, #441, .F. ) ;
#693 = ORIENTED_EDGE ( 'NONE', *, *, #641, .F. ) ;
#694 = DIRECTION ( 'NONE',  ( 0.000000000000000000, 0.000000000000000000, -1.000000000000000000 ) ) ;
#695 = EDGE_LOOP ( 'NONE', ( #896, #423 ) ) ;
#696 = ORIENTED_EDGE ( 'NONE', *, *, #636, .F. ) ;
#697 = LENGTH_MEASURE_WITH_UNIT ( LENGTH_MEASURE( 0.02539999999999999897 ), #573 );
#698 = ADVANCED_FACE ( 'NONE', ( #838, #60, #758, #53, #679, #127, #477, #606, #890, #760 ), #763, .T. ) ;
#699 = CARTESIAN_POINT ( 'NONE',  ( 1.771653543307086576, 0.000000000000000000, 0.9271653543307089018 ) ) ;
#700 = VERTEX_POINT ( 'NONE', #900 ) ;
#701 = ORIENTED_EDGE ( 'NONE', *, *, #832, .F. ) ;
#702 = CARTESIAN_POINT ( 'NONE',  ( -3.543307086614173151, 0.2362204724409449064, 2.559055118110236560 ) ) ;
#703 = ADVANCED_FACE ( 'NONE', ( #63 ), #342, .F. ) ;
#704 = CARTESIAN_POINT ( 'NONE',  ( 3.543307086614173151, 0.2362204724409449064, -2.726377952755905998 ) ) ;
#705 = VECTOR ( 'NONE', #531, 39.37007874015748143 ) ;
#706 = AXIS2_PLACEMENT_3D ( 'NONE', #583, #654, #514 ) ;
#707 = PRODUCT_DEFINITION_SHAPE ( 'NONE', 'NONE',  #147 ) ;
#708 = VECTOR ( 'NONE', #358, 39.37007874015748143 ) ;
#709 = VERTEX_POINT ( 'NONE', #409 ) ;
#710 = EDGE_LOOP ( 'NONE', ( #287, #851 ) ) ;
#711 = DIRECTION ( 'NONE',  ( 0.000000000000000000, 1.000000000000000000, 0.000000000000000000 ) ) ;
#712 = DIRECTION ( 'NONE',  ( 0.000000000000000000, 0.000000000000000000, 1.000000000000000000 ) ) ;
#713 = EDGE_CURVE ( 'NONE', #185, #64, #754, .T. ) ;
#714 = CARTESIAN_POINT ( 'NONE',  ( -3.543307086614173151, 0.000000000000000000, -2.726377952755905998 ) ) ;
#715 = ORIENTED_EDGE ( 'NONE', *, *, #212, .F. ) ;
#716 = DIRECTION ( 'NONE',  ( -0.000000000000000000, -1.000000000000000000, -0.000000000000000000 ) ) ;
#717 = DIRECTION ( 'NONE',  ( 0.000000000000000000, 1.000000000000000000, 0.000000000000000000 ) ) ;
#718 = EDGE_CURVE ( 'NONE', #489, #16, #132, .T. ) ;
#719 = DIRECTION ( 'NONE',  ( -0.000000000000000000, -1.000000000000000000, -0.000000000000000000 ) ) ;
#720 = EDGE_LOOP ( 'NONE', ( #883, #632 ) ) ;
#721 = PERSON_AND_ORGANIZATION_ROLE ( 'classification_officer' ) ;
#722 = CARTESIAN_POINT ( 'NONE',  ( -3.543307086614173151, 0.2362204724409449064, 2.726377952755905998 ) ) ;
#723 = VECTOR ( 'NONE', #350, 39.37007874015748143 ) ;
#724 = LOCAL_TIME ( 1, 38, 5.000000000000000000, #29 ) ;
#725 = CARTESIAN_POINT ( 'NONE',  ( 1.141732283464567121, 0.000000000000000000, 0.7775590551181102983 ) ) ;
#726 = AXIS2_PLACEMENT_3D ( 'NONE', #159, #584, #640 ) ;
#727 = EDGE_LOOP ( 'NONE', ( #559, #366, #142, #406 ) ) ;
#728 = CALENDAR_DATE ( 2026, 10, 8 ) ;
#729 = LINE ( 'NONE', #885, #705 ) ;
#730 = DIRECTION ( 'NONE',  ( 0.000000000000000000, 1.000000000000000000, 0.000000000000000000 ) ) ;
#731 = EDGE_LOOP ( 'NONE', ( #862, #586 ) ) ;
#732 = COORDINATED_UNIVERSAL_TIME_OFFSET ( 1, 0, .AHEAD. ) ;
#733 = EDGE_CURVE ( 'NONE', #599, #67, #556, .T. ) ;
#734 = LINE ( 'NONE', #328, #569 ) ;
#735 = DIRECTION ( 'NONE',  ( 0.000000000000000000, 1.000000000000000000, 0.000000000000000000 ) ) ;
#736 = ORIENTED_EDGE ( 'NONE', *, *, #771, .T. ) ;
#737 = CARTESIAN_POINT ( 'NONE',  ( 0.000000000000000000, 0.000000000000000000, 0.000000000000000000 ) ) ;
#738 = DIRECTION ( 'NONE',  ( -0.000000000000000000, -1.000000000000000000, -0.000000000000000000 ) ) ;
#739 = CARTESIAN_POINT ( 'NONE',  ( 2.401574803149606474, 0.2362204724409449064, 0.8661417322834645827 ) ) ;
#740 = AXIS2_PLACEMENT_3D ( 'NONE', #106, #396, #336 ) ;
#741 = CC_DESIGN_APPROVAL ( #752, ( #288 ) ) ;
#742 = ORIENTED_EDGE ( 'NONE', *, *, #319, .T. ) ;
#743 = PERSON_AND_ORGANIZATION_ROLE ( 'design_supplier' ) ;
#744 = CIRCLE ( 'NONE', #460, 0.08858267716535414560 ) ;
#745 = CARTESIAN_POINT ( 'NONE',  ( 2.401574803149606474, 0.000000000000000000, 0.8661417322834645827 ) ) ;
#746 = ADVANCED_FACE ( 'NONE', ( #549, #609, #828, #201, #277, #620, #834, #688, #825, #601 ), #210, .F. ) ;
#747 = CARTESIAN_POINT ( 'NONE',  ( 2.401574803149606474, 0.000000000000000000, -0.8661417322834645827 ) ) ;
#748 = ORIENTED_EDGE ( 'NONE', *, *, #251, .T. ) ;
#749 = CYLINDRICAL_SURFACE ( 'NONE', #249, 0.08858267716535427050 ) ;
#750 = EDGE_CURVE ( 'NONE', #168, #338, #344, .T. ) ;
#751 = DIRECTION ( 'NONE',  ( -0.000000000000000000, -1.000000000000000000, -0.000000000000000000 ) ) ;
#752 = APPROVAL ( #323, 'UNSPECIFIED' ) ;
#753 = ORIENTED_EDGE ( 'NONE', *, *, #415, .F. ) ;
#754 = LINE ( 'NONE', #612, #374 ) ;
#755 = DIRECTION ( 'NONE',  ( -0.000000000000000000, -1.000000000000000000, -0.000000000000000000 ) ) ;
#756 = ORIENTED_EDGE ( 'NONE', *, *, #365, .F. ) ;
#757 = CIRCLE ( 'NONE', #34, 0.1673228346456694382 ) ;
#758 = FACE_BOUND ( 'NONE', #695, .T. ) ;
#759 = ORIENTED_EDGE ( 'NONE', *, *, #295, .F. ) ;
#760 = FACE_BOUND ( 'NONE', #152, .T. ) ;
#761 = ADVANCED_FACE ( 'NONE', ( #840 ), #749, .F. ) ;
#762 = DIRECTION ( 'NONE',  ( 0.000000000000000000, 0.000000000000000000, -1.000000000000000000 ) ) ;
#763 = PLANE ( 'NONE',  #19 ) ;
#764 = CYLINDRICAL_SURFACE ( 'NONE', #205, 0.1673228346456694382 ) ;
#765 = ORIENTED_EDGE ( 'NONE', *, *, #182, .F. ) ;
#766 = LINE ( 'NONE', #217, #35 ) ;
#767 = CIRCLE ( 'NONE', #530, 0.08858267716535414560 ) ;
#768 = CC_DESIGN_APPROVAL ( #591, ( #147 ) ) ;
#769 = LINE ( 'NONE', #325, #661 ) ;
#770 = AXIS2_PLACEMENT_3D ( 'NONE', #281, #476, #762 ) ;
#771 = EDGE_CURVE ( 'NONE', #656, #252, #675, .T. ) ;
#772 = DIRECTION ( 'NONE',  ( 0.000000000000000000, 0.000000000000000000, -1.000000000000000000 ) ) ;
#773 = ORIENTED_EDGE ( 'NONE', *, *, #641, .T. ) ;
#774 = CARTESIAN_POINT ( 'NONE',  ( -3.543307086614173151, 0.2362204724409449064, 2.391732283464567121 ) ) ;
#775 = LINE ( 'NONE', #628, #482 ) ;
#776 = EDGE_LOOP ( 'NONE', ( #24, #889 ) ) ;
#777 = CC_DESIGN_PERSON_AND_ORGANIZATION_ASSIGNMENT ( #649, #242, ( #77 ) ) ;
#778 = CYLINDRICAL_SURFACE ( 'NONE', #899, 0.1673228346456694382 ) ;
#779 = DIRECTION ( 'NONE',  ( -0.000000000000000000, -1.000000000000000000, -0.000000000000000000 ) ) ;
#780 = EDGE_LOOP ( 'NONE', ( #682, #878, #479, #62 ) ) ;
#781 = ORIENTED_EDGE ( 'NONE', *, *, #36, .F. ) ;
#782 = CARTESIAN_POINT ( 'NONE',  ( 1.141732283464567121, 0.2362204724409449064, 0.9547244094488188670 ) ) ;
#783 = EDGE_CURVE ( 'NONE', #32, #424, #362, .T. ) ;
#784 = CARTESIAN_POINT ( 'NONE',  ( 3.543307086614173151, 0.2362204724409449064, 2.559055118110236560 ) ) ;
#785 = AXIS2_PLACEMENT_3D ( 'NONE', #524, #755, #877 ) ;
#786 = LOCAL_TIME ( 1, 38, 5.000000000000000000, #732 ) ;
#787 = AXIS2_PLACEMENT_3D ( 'NONE', #298, #719, #89 ) ;
#788 = VECTOR ( 'NONE', #829, 39.37007874015748143 ) ;
#789 = DIRECTION ( 'NONE',  ( 0.000000000000000000, 1.000000000000000000, 0.000000000000000000 ) ) ;
#790 = CARTESIAN_POINT ( 'NONE',  ( 1.141732283464567121, 0.2362204724409449064, 0.8661417322834645827 ) ) ;
#791 = DIRECTION ( 'NONE',  ( 0.000000000000000000, 0.000000000000000000, 1.000000000000000000 ) ) ;
#792 = CARTESIAN_POINT ( 'NONE',  ( 2.401574803149606474, 0.000000000000000000, 0.7775590551181104093 ) ) ;
#793 = ORIENTED_EDGE ( 'NONE', *, *, #239, .T. ) ;
#794 = EDGE_CURVE ( 'NONE', #175, #633, #690, .T. ) ;
#795 = APPROVAL_DATE_TIME ( #879, #752 ) ;
#796 = DIRECTION ( 'NONE',  ( 1.000000000000000000, 0.000000000000000000, 0.000000000000000000 ) ) ;
#797 = DIRECTION ( 'NONE',  ( 0.000000000000000000, 0.000000000000000000, 1.000000000000000000 ) ) ;
#798 = ORIENTED_EDGE ( 'NONE', *, *, #562, .T. ) ;
#799 = PERSON_AND_ORGANIZATION ( #510, #429 ) ;
#800 = DIRECTION ( 'NONE',  ( 0.000000000000000000, 0.000000000000000000, 1.000000000000000000 ) ) ;
#801 = VECTOR ( 'NONE', #597, 39.37007874015748143 ) ;
#802 = AXIS2_PLACEMENT_3D ( 'NONE', #403, #683, #57 ) ;
#803 = DIRECTION ( 'NONE',  ( 0.000000000000000000, 1.000000000000000000, 0.000000000000000000 ) ) ;
#804 = EDGE_CURVE ( 'NONE', #577, #648, #542, .T. ) ;
#805 = ORIENTED_EDGE ( 'NONE', *, *, #804, .T. ) ;
#806 = CALENDAR_DATE ( 2026, 10, 8 ) ;
#807 = CARTESIAN_POINT ( 'NONE',  ( 2.401574803149606474, 0.000000000000000000, -0.9547244094488186450 ) ) ;
#808 = EDGE_CURVE ( 'NONE', #815, #338, #430, .T. ) ;
#809 = CARTESIAN_POINT ( 'NONE',  ( -4.133858267716535195, 0.000000000000000000, -3.149606299212598604 ) ) ;
#810 = ORIENTED_EDGE ( 'NONE', *, *, #629, .F. ) ;
#811 = DATE_AND_TIME ( #186, #786 ) ;
#812 = EDGE_CURVE ( 'NONE', #815, #356, #20, .T. ) ;
#813 = CARTESIAN_POINT ( 'NONE',  ( 1.141732283464567121, 0.000000000000000000, -0.9547244094488188670 ) ) ;
#814 = DIRECTION ( 'NONE',  ( 0.000000000000000000, 1.000000000000000000, 0.000000000000000000 ) ) ;
#815 = VERTEX_POINT ( 'NONE', #782 ) ;
#816 = CARTESIAN_POINT ( 'NONE',  ( 1.141732283464567121, 0.000000000000000000, -0.8661417322834645827 ) ) ;
#817 = EDGE_CURVE ( 'NONE', #275, #370, #301, .T. ) ;
#818 = CARTESIAN_POINT ( 'NONE',  ( 1.771653543307086576, 0.000000000000000000, 0.000000000000000000 ) ) ;
#819 = AXIS2_PLACEMENT_3D ( 'NONE', #658, #33, #316 ) ;
#820 = EDGE_LOOP ( 'NONE', ( #759, #200, #810, #756 ) ) ;
#821 = CARTESIAN_POINT ( 'NONE',  ( -3.543307086614173151, 0.000000000000000000, -2.391732283464567121 ) ) ;
#822 = EDGE_CURVE ( 'NONE', #356, #815, #588, .T. ) ;
#823 = LINE ( 'NONE', #462, #616 ) ;
#824 = ORIENTED_EDGE ( 'NONE', *, *, #189, .T. ) ;
#825 = FACE_BOUND ( 'NONE', #720, .T. ) ;
#826 = CARTESIAN_POINT ( 'NONE',  ( 1.141732283464567121, 0.2362204724409449064, -0.8661417322834645827 ) ) ;
#827 = ORIENTED_EDGE ( 'NONE', *, *, #804, .F. ) ;
#828 = FACE_BOUND ( 'NONE', #216, .T. ) ;
#829 = DIRECTION ( 'NONE',  ( -0.000000000000000000, -1.000000000000000000, -0.000000000000000000 ) ) ;
#830 = AXIS2_PLACEMENT_3D ( 'NONE', #745, #376, #113 ) ;
#831 = ORIENTED_EDGE ( 'NONE', *, *, #225, .F. ) ;
#832 = EDGE_CURVE ( 'NONE', #869, #259, #766, .T. ) ;
#833 = AXIS2_PLACEMENT_3D ( 'NONE', #467, #272, #407 ) ;
#834 = FACE_BOUND ( 'NONE', #731, .T. ) ;
#835 = AXIS2_PLACEMENT_3D ( 'NONE', #539, #119, #535 ) ;
#836 = EDGE_LOOP ( 'NONE', ( #875, #902, #701, #538 ) ) ;
#837 = ADVANCED_FACE ( 'NONE', ( #227 ), #10, .F. ) ;
#838 = FACE_BOUND ( 'NONE', #197, .T. ) ;
#839 = ORIENTED_EDGE ( 'NONE', *, *, #618, .T. ) ;
#840 = FACE_OUTER_BOUND ( 'NONE', #98, .T. ) ;
#841 = ORIENTED_EDGE ( 'NONE', *, *, #817, .T. ) ;
#842 = CARTESIAN_POINT ( 'NONE',  ( 1.141732283464567121, 0.2362204724409449064, 0.8661417322834645827 ) ) ;
#843 = AXIS2_PLACEMENT_3D ( 'NONE', #826, #751, #45 ) ;
#844 = DIRECTION ( 'NONE',  ( 0.000000000000000000, 0.000000000000000000, -1.000000000000000000 ) ) ;
#845 = AXIS2_PLACEMENT_3D ( 'NONE', #308, #735, #874 ) ;
#846 = EDGE_CURVE ( 'NONE', #534, #577, #873, .T. ) ;
#847 = ORIENTED_EDGE ( 'NONE', *, *, #783, .T. ) ;
#848 = VERTEX_POINT ( 'NONE', #774 ) ;
#849 = CARTESIAN_POINT ( 'NONE',  ( 4.133858267716535195, 0.2362204724409449064, 3.149606299212598604 ) ) ;
#850 = CARTESIAN_POINT ( 'NONE',  ( 2.401574803149606474, 0.2362204724409449064, -0.7775590551181104093 ) ) ;
#851 = ORIENTED_EDGE ( 'NONE', *, *, #212, .T. ) ;
#852 = ORIENTED_EDGE ( 'NONE', *, *, #207, .T. ) ;
#853 =( CONVERSION_BASED_UNIT ( 'INCH', #697 ) LENGTH_UNIT ( ) NAMED_UNIT ( #178 ) );
#854 = FACE_OUTER_BOUND ( 'NONE', #224, .T. ) ;
#855 = FACE_OUTER_BOUND ( 'NONE', #727, .T. ) ;
#856 = DIRECTION ( 'NONE',  ( 0.000000000000000000, 0.000000000000000000, 1.000000000000000000 ) ) ;
#857 = DIRECTION ( 'NONE',  ( 0.000000000000000000, 1.000000000000000000, 0.000000000000000000 ) ) ;
#858 = AXIS2_PLACEMENT_3D ( 'NONE', #816, #253, #187 ) ;
#859 = VECTOR ( 'NONE', #567, 39.37007874015748143 ) ;
#860 = CIRCLE ( 'NONE', #726, 0.1673228346456694382 ) ;
#861 = CARTESIAN_POINT ( 'NONE',  ( -3.543307086614173151, 0.2362204724409449064, -2.559055118110236560 ) ) ;
#862 = ORIENTED_EDGE ( 'NONE', *, *, #822, .F. ) ;
#863 = PERSON_AND_ORGANIZATION ( #510, #429 ) ;
#864 = CARTESIAN_POINT ( 'NONE',  ( 4.133858267716535195, 0.000000000000000000, 3.149606299212598604 ) ) ;
#865 = CARTESIAN_POINT ( 'NONE',  ( -4.133858267716535195, 0.2362204724409449064, 3.149606299212598604 ) ) ;
#866 = ORIENTED_EDGE ( 'NONE', *, *, #846, .T. ) ;
#867 = DIRECTION ( 'NONE',  ( 0.000000000000000000, 1.000000000000000000, 0.000000000000000000 ) ) ;
#868 = CARTESIAN_POINT ( 'NONE',  ( -3.543307086614173151, 0.000000000000000000, 2.391732283464567121 ) ) ;
#869 = VERTEX_POINT ( 'NONE', #495 ) ;
#870 = SHAPE_DEFINITION_REPRESENTATION ( #707, #96 ) ;
#871 = EDGE_CURVE ( 'NONE', #118, #399, #888, .T. ) ;
#872 = DIRECTION ( 'NONE',  ( 0.000000000000000000, 0.000000000000000000, -1.000000000000000000 ) ) ;
#873 = CIRCLE ( 'NONE', #154, 0.08858267716535414560 ) ;
#874 = DIRECTION ( 'NONE',  ( 0.000000000000000000, 0.000000000000000000, 1.000000000000000000 ) ) ;
#875 = ORIENTED_EDGE ( 'NONE', *, *, #713, .T. ) ;
#876 = DIRECTION ( 'NONE',  ( -0.000000000000000000, -1.000000000000000000, -0.000000000000000000 ) ) ;
#877 = DIRECTION ( 'NONE',  ( 0.000000000000000000, 0.000000000000000000, -1.000000000000000000 ) ) ;
#878 = ORIENTED_EDGE ( 'NONE', *, *, #636, .T. ) ;
#879 = DATE_AND_TIME ( #806, #231 ) ;
#880 = EDGE_CURVE ( 'NONE', #275, #489, #302, .T. ) ;
#881 = CARTESIAN_POINT ( 'NONE',  ( -4.133858267716535195, 0.2362204724409449064, 3.149606299212598604 ) ) ;
#882 = DIRECTION ( 'NONE',  ( -0.000000000000000000, -1.000000000000000000, -0.000000000000000000 ) ) ;
#883 = ORIENTED_EDGE ( 'NONE', *, *, #574, .F. ) ;
#884 = EDGE_CURVE ( 'NONE', #489, #275, #123, .T. ) ;
#885 = CARTESIAN_POINT ( 'NONE',  ( 3.543307086614173151, 0.2362204724409449064, -2.391732283464567121 ) ) ;
#886 = DIRECTION ( 'NONE',  ( -0.000000000000000000, -1.000000000000000000, -0.000000000000000000 ) ) ;
#887 = AXIS2_PLACEMENT_3D ( 'NONE', #234, #162, #228 ) ;
#888 = CIRCLE ( 'NONE', #94, 0.1673228346456694382 ) ;
#889 = ORIENTED_EDGE ( 'NONE', *, *, #189, .F. ) ;
#890 = FACE_BOUND ( 'NONE', #653, .T. ) ;
#891 = DIRECTION ( 'NONE',  ( 0.000000000000000000, 0.000000000000000000, 1.000000000000000000 ) ) ;
#892 = ORIENTED_EDGE ( 'NONE', *, *, #750, .F. ) ;
#893 = CARTESIAN_POINT ( 'NONE',  ( 0.000000000000000000, 0.000000000000000000, 0.000000000000000000 ) ) ;
#894 = EDGE_CURVE ( 'NONE', #399, #599, #634, .T. ) ;
#895 = CARTESIAN_POINT ( 'NONE',  ( 3.543307086614173151, 0.000000000000000000, -2.726377952755905998 ) ) ;
#896 = ORIENTED_EDGE ( 'NONE', *, *, #148, .T. ) ;
#897 = CARTESIAN_POINT ( 'NONE',  ( 1.141732283464567121, 0.2362204724409449064, -0.8661417322834645827 ) ) ;
#898 = VERTEX_POINT ( 'NONE', #153 ) ;
#899 = AXIS2_PLACEMENT_3D ( 'NONE', #702, #716, #623 ) ;
#900 = CARTESIAN_POINT ( 'NONE',  ( 3.543307086614173151, 0.000000000000000000, 2.391732283464567121 ) ) ;
#901 = AXIS2_PLACEMENT_3D ( 'NONE', #329, #405, #595 ) ;
#902 = ORIENTED_EDGE ( 'NONE', *, *, #251, .F. ) ;
#903 = CARTESIAN_POINT ( 'NONE',  ( 1.141732283464567121, 0.000000000000000000, 0.8661417322834645827 ) ) ;
#904 = ADVANCED_FACE ( 'NONE', ( #643 ), #778, .F. ) ;
#905 = EDGE_LOOP ( 'NONE', ( #411, #74, #145, #827 ) ) ;
#906 = DIRECTION ( 'NONE',  ( 0.000000000000000000, 0.000000000000000000, 1.000000000000000000 ) ) ;
ENDSEC;
END-ISO-10303-21;
