ISO-10303-21;
HEADER;
FILE_DESCRIPTION (( 'STEP AP203' ),
    '1' );
FILE_NAME ('10_Valve_Stem_Adapter.STEP',
    '2026-08-10T00:38:35',
    ( '' ),
    ( '' ),
    'SwSTEP 2.0',
    'SolidWorks 2026',
    '' );
FILE_SCHEMA (( 'CONFIG_CONTROL_DESIGN' ));
ENDSEC;

DATA;
#1 = DIRECTION ( 'NONE',  ( 0.000000000000000000, 0.000000000000000000, 1.000000000000000000 ) ) ;
#2 = ADVANCED_FACE ( 'NONE', ( #514, #472, #327, #44, #276, #91 ), #220, .T. ) ;
#3 = CARTESIAN_POINT ( 'NONE',  ( -0.2814960629921259838, 0.7086614173228346081, 0.2027559055118110243 ) ) ;
#4 = AXIS2_PLACEMENT_3D ( 'NONE', #101, #567, #1 ) ;
#5 = DIRECTION ( 'NONE',  ( 0.000000000000000000, 0.000000000000000000, 1.000000000000000000 ) ) ;
#6 = CIRCLE ( 'NONE', #346, 0.8661417322834645827 ) ;
#7 = DIRECTION ( 'NONE',  ( 0.000000000000000000, 1.000000000000000000, 0.000000000000000000 ) ) ;
#8 = CYLINDRICAL_SURFACE ( 'NONE', #340, 0.1299212598425197318 ) ;
#9 = EDGE_CURVE ( 'NONE', #493, #574, #566, .T. ) ;
#10 = ADVANCED_BREP_SHAPE_REPRESENTATION ( '10_Valve_Stem_Adapter', ( #54, #519 ), #548 ) ;
#11 = DIRECTION ( 'NONE',  ( 0.000000000000000000, 0.000000000000000000, 1.000000000000000000 ) ) ;
#12 = DATE_TIME_ROLE ( 'classification_date' ) ;
#13 = CARTESIAN_POINT ( 'NONE',  ( 0.000000000000000000, 0.7086614173228346081, 0.5905511811023621549 ) ) ;
#14 = EDGE_CURVE ( 'NONE', #248, #109, #313, .T. ) ;
#15 = ORIENTED_EDGE ( 'NONE', *, *, #409, .F. ) ;
#16 = FACE_OUTER_BOUND ( 'NONE', #406, .T. ) ;
#17 = EDGE_CURVE ( 'NONE', #356, #324, #55, .T. ) ;
#18 = PRODUCT_DEFINITION_SHAPE ( 'NONE', 'NONE',  #69 ) ;
#19 = DESIGN_CONTEXT ( 'detailed design', #62, 'design' ) ;
#20 = CARTESIAN_POINT ( 'NONE',  ( -0.2814960629921259838, 0.7086614173228346081, 0.2027559055118110243 ) ) ;
#21 = EDGE_LOOP ( 'NONE', ( #528, #490, #205, #395 ) ) ;
#22 = LINE ( 'NONE', #75, #136 ) ;
#23 = ORIENTED_EDGE ( 'NONE', *, *, #532, .F. ) ;
#24 = ORIENTED_EDGE ( 'NONE', *, *, #390, .F. ) ;
#25 = DIRECTION ( 'NONE',  ( 0.000000000000000000, 1.000000000000000000, 0.000000000000000000 ) ) ;
#26 = ORIENTED_EDGE ( 'NONE', *, *, #145, .T. ) ;
#27 = APPROVAL_PERSON_ORGANIZATION ( #288, #111, #570 ) ;
#28 = DIRECTION ( 'NONE',  ( -0.000000000000000000, -1.000000000000000000, -0.000000000000000000 ) ) ;
#29 = VERTEX_POINT ( 'NONE', #363 ) ;
#30 = ORIENTED_EDGE ( 'NONE', *, *, #102, .F. ) ;
#31 = DIRECTION ( 'NONE',  ( -0.000000000000000000, -1.000000000000000000, -0.000000000000000000 ) ) ;
#32 = AXIS2_PLACEMENT_3D ( 'NONE', #354, #300, #202 ) ;
#33 = ORIENTED_EDGE ( 'NONE', *, *, #575, .F. ) ;
#34 = EDGE_CURVE ( 'NONE', #76, #79, #536, .T. ) ;
#35 = ADVANCED_FACE ( 'NONE', ( #41 ), #552, .F. ) ;
#36 = EDGE_LOOP ( 'NONE', ( #583, #229 ) ) ;
#37 = CARTESIAN_POINT ( 'NONE',  ( 0.000000000000000000, 0.7086614173228346081, -0.8661417322834645827 ) ) ;
#38 = DIRECTION ( 'NONE',  ( 1.000000000000000000, 0.000000000000000000, -0.000000000000000000 ) ) ;
#39 = AXIS2_PLACEMENT_3D ( 'NONE', #231, #130, #507 ) ;
#40 = PLANE ( 'NONE',  #311 ) ;
#41 = FACE_OUTER_BOUND ( 'NONE', #350, .T. ) ;
#42 = EDGE_CURVE ( 'NONE', #117, #355, #186, .T. ) ;
#43 = CARTESIAN_POINT ( 'NONE',  ( -0.5905511811023621549, 0.000000000000000000, 6.829619984160658046E-17 ) ) ;
#44 = FACE_BOUND ( 'NONE', #294, .T. ) ;
#45 = EDGE_CURVE ( 'NONE', #603, #109, #47, .T. ) ;
#46 = DIRECTION ( 'NONE',  ( -0.000000000000000000, -1.000000000000000000, -0.000000000000000000 ) ) ;
#47 = LINE ( 'NONE', #227, #379 ) ;
#48 = DIRECTION ( 'NONE',  ( -0.000000000000000000, -1.000000000000000000, -0.000000000000000000 ) ) ;
#49 = EDGE_CURVE ( 'NONE', #163, #142, #369, .T. ) ;
#50 = FACE_OUTER_BOUND ( 'NONE', #578, .T. ) ;
#51 = AXIS2_PLACEMENT_3D ( 'NONE', #57, #241, #524 ) ;
#52 = LINE ( 'NONE', #422, #334 ) ;
#53 = AXIS2_PLACEMENT_3D ( 'NONE', #511, #31, #600 ) ;
#54 = MANIFOLD_SOLID_BREP ( 'Stem_Adapter_Flange', #464 ) ;
#55 = CIRCLE ( 'NONE', #195, 0.1299212598425197318 ) ;
#56 = DIRECTION ( 'NONE',  ( 0.000000000000000000, 1.000000000000000000, 0.000000000000000000 ) ) ;
#57 = CARTESIAN_POINT ( 'NONE',  ( 0.000000000000000000, 0.7086614173228346081, 0.5905511811023621549 ) ) ;
#58 = CIRCLE ( 'NONE', #560, 0.8661417322834645827 ) ;
#59 = PERSON_AND_ORGANIZATION_ROLE ( 'classification_officer' ) ;
#60 = DIRECTION ( 'NONE',  ( 0.000000000000000000, 0.000000000000000000, -1.000000000000000000 ) ) ;
#61 = ADVANCED_FACE ( 'NONE', ( #517 ), #375, .T. ) ;
#62 = APPLICATION_CONTEXT ( 'configuration controlled 3d designs of mechanical parts and assemblies' ) ;
#63 = EDGE_CURVE ( 'NONE', #109, #541, #557, .T. ) ;
#64 = CARTESIAN_POINT ( 'NONE',  ( -0.2814960629921259838, 0.7086614173228346081, 0.2027559055118110243 ) ) ;
#65 = ORIENTED_EDGE ( 'NONE', *, *, #42, .T. ) ;
#66 = PERSON_AND_ORGANIZATION ( #538, #234 ) ;
#67 = DIRECTION ( 'NONE',  ( 1.000000000000000000, 0.000000000000000000, 0.000000000000000000 ) ) ;
#68 = ORIENTED_EDGE ( 'NONE', *, *, #361, .F. ) ;
#69 = PRODUCT_DEFINITION ( 'UNKNOWN', '', #590, #19 ) ;
#70 = VERTEX_POINT ( 'NONE', #367 ) ;
#71 = APPROVAL_ROLE ( '' ) ;
#72 = DIRECTION ( 'NONE',  ( 0.000000000000000000, 1.000000000000000000, 0.000000000000000000 ) ) ;
#73 = VERTEX_POINT ( 'NONE', #134 ) ;
#74 = COORDINATED_UNIVERSAL_TIME_OFFSET ( 1, 0, .AHEAD. ) ;
#75 = CARTESIAN_POINT ( 'NONE',  ( 0.5905511811023621549, 0.7086614173228346081, 0.1299212598425197318 ) ) ;
#76 = VERTEX_POINT ( 'NONE', #137 ) ;
#77 = DIRECTION ( 'NONE',  ( -0.000000000000000000, -1.000000000000000000, -0.000000000000000000 ) ) ;
#78 = AXIS2_PLACEMENT_3D ( 'NONE', #471, #7, #11 ) ;
#79 = VERTEX_POINT ( 'NONE', #320 ) ;
#80 = EDGE_LOOP ( 'NONE', ( #537, #157, #128, #549 ) ) ;
#81 = LOCAL_TIME ( 1, 38, 35.00000000000000000, #74 ) ;
#82 = CARTESIAN_POINT ( 'NONE',  ( 0.000000000000000000, 0.7086614173228346081, -0.7204724409448819422 ) ) ;
#83 = AXIS2_PLACEMENT_3D ( 'NONE', #312, #604, #505 ) ;
#84 = ORIENTED_EDGE ( 'NONE', *, *, #148, .T. ) ;
#85 = ADVANCED_FACE ( 'NONE', ( #484 ), #284, .F. ) ;
#86 = ORIENTED_EDGE ( 'NONE', *, *, #325, .T. ) ;
#87 = FACE_BOUND ( 'NONE', #439, .T. ) ;
#88 = CIRCLE ( 'NONE', #398, 0.1299212598425197318 ) ;
#89 = DIRECTION ( 'NONE',  ( -0.000000000000000000, -1.000000000000000000, -0.000000000000000000 ) ) ;
#90 = CARTESIAN_POINT ( 'NONE',  ( 0.000000000000000000, 0.7086614173228346081, -0.5905511811023621549 ) ) ;
#91 = FACE_BOUND ( 'NONE', #555, .T. ) ;
#92 = CARTESIAN_POINT ( 'NONE',  ( 1.591076550073333019E-17, 0.7086614173228346081, -0.4606299212598424786 ) ) ;
#93 = DIRECTION ( 'NONE',  ( 0.000000000000000000, 1.000000000000000000, 0.000000000000000000 ) ) ;
#94 = DIRECTION ( 'NONE',  ( -0.000000000000000000, -1.000000000000000000, -0.000000000000000000 ) ) ;
#95 = EDGE_LOOP ( 'NONE', ( #208, #345, #171, #443 ) ) ;
#96 = CARTESIAN_POINT ( 'NONE',  ( 0.2814960629921259838, 0.000000000000000000, 0.2027559055118110243 ) ) ;
#97 = ADVANCED_FACE ( 'NONE', ( #118 ), #168, .F. ) ;
#98 = DIRECTION ( 'NONE',  ( 0.000000000000000000, 0.000000000000000000, 1.000000000000000000 ) ) ;
#99 = DIRECTION ( 'NONE',  ( 0.000000000000000000, 1.000000000000000000, 0.000000000000000000 ) ) ;
#100 = FACE_OUTER_BOUND ( 'NONE', #21, .T. ) ;
#101 = CARTESIAN_POINT ( 'NONE',  ( -0.5905511811023621549, 0.7086614173228346081, 6.829619984160658046E-17 ) ) ;
#102 = EDGE_CURVE ( 'NONE', #355, #169, #580, .T. ) ;
#103 = COORDINATED_UNIVERSAL_TIME_OFFSET ( 1, 0, .AHEAD. ) ;
#104 = CARTESIAN_POINT ( 'NONE',  ( 0.000000000000000000, 0.7086614173228346081, 0.4606299212598424786 ) ) ;
#105 = CC_DESIGN_APPROVAL ( #506, ( #590 ) ) ;
#106 = EDGE_CURVE ( 'NONE', #584, #603, #156, .T. ) ;
#107 = CALENDAR_DATE ( 2026, 10, 8 ) ;
#108 = DIRECTION ( 'NONE',  ( 0.000000000000000000, 1.000000000000000000, 0.000000000000000000 ) ) ;
#109 = VERTEX_POINT ( 'NONE', #535 ) ;
#110 = PERSON_AND_ORGANIZATION ( #538, #234 ) ;
#111 = APPROVAL ( #383, 'UNSPECIFIED' ) ;
#112 = DIRECTION ( 'NONE',  ( 0.000000000000000000, 0.000000000000000000, 1.000000000000000000 ) ) ;
#113 = EDGE_LOOP ( 'NONE', ( #393, #271, #252, #314 ) ) ;
#114 = ORIENTED_EDGE ( 'NONE', *, *, #498, .T. ) ;
#115 = VECTOR ( 'NONE', #188, 39.37007874015748143 ) ;
#116 = CARTESIAN_POINT ( 'NONE',  ( 1.591076550073333019E-17, 0.7086614173228346081, -0.4606299212598424786 ) ) ;
#117 = VERTEX_POINT ( 'NONE', #165 ) ;
#118 = FACE_OUTER_BOUND ( 'NONE', #534, .T. ) ;
#119 = ORIENTED_EDGE ( 'NONE', *, *, #49, .F. ) ;
#120 = CARTESIAN_POINT ( 'NONE',  ( 0.2814960629921259838, 0.7086614173228346081, -0.2027559055118110243 ) ) ;
#121 = ORIENTED_EDGE ( 'NONE', *, *, #275, .T. ) ;
#122 = VERTEX_POINT ( 'NONE', #104 ) ;
#123 = EDGE_CURVE ( 'NONE', #212, #76, #293, .T. ) ;
#124 = FACE_OUTER_BOUND ( 'NONE', #347, .T. ) ;
#125 = VECTOR ( 'NONE', #426, 39.37007874015748143 ) ;
#126 = ORIENTED_EDGE ( 'NONE', *, *, #42, .F. ) ;
#127 = EDGE_CURVE ( 'NONE', #360, #574, #250, .T. ) ;
#128 = ORIENTED_EDGE ( 'NONE', *, *, #214, .T. ) ;
#129 = CYLINDRICAL_SURFACE ( 'NONE', #83, 0.8661417322834645827 ) ;
#130 = DIRECTION ( 'NONE',  ( -0.000000000000000000, -1.000000000000000000, -0.000000000000000000 ) ) ;
#131 = ORIENTED_EDGE ( 'NONE', *, *, #516, .F. ) ;
#132 = DIRECTION ( 'NONE',  ( 0.000000000000000000, 1.000000000000000000, 0.000000000000000000 ) ) ;
#133 = VECTOR ( 'NONE', #67, 39.37007874015748143 ) ;
#134 = CARTESIAN_POINT ( 'NONE',  ( -0.5905511811023621549, 0.7086614173228346081, -0.1299212598425196763 ) ) ;
#135 = CYLINDRICAL_SURFACE ( 'NONE', #154, 0.8661417322834645827 ) ;
#136 = VECTOR ( 'NONE', #207, 39.37007874015748143 ) ;
#137 = CARTESIAN_POINT ( 'NONE',  ( -0.5905511811023621549, 0.000000000000000000, 0.1299212598425198151 ) ) ;
#138 = CARTESIAN_POINT ( 'NONE',  ( -0.2814960629921259838, 0.7086614173228346081, 0.2027559055118110243 ) ) ;
#139 = ORIENTED_EDGE ( 'NONE', *, *, #275, .F. ) ;
#140 = AXIS2_PLACEMENT_3D ( 'NONE', #43, #495, #223 ) ;
#141 = DIRECTION ( 'NONE',  ( -1.000000000000000000, 0.000000000000000000, 0.000000000000000000 ) ) ;
#142 = VERTEX_POINT ( 'NONE', #211 ) ;
#143 = VECTOR ( 'NONE', #199, 39.37007874015748143 ) ;
#144 = DIRECTION ( 'NONE',  ( 0.000000000000000000, 0.000000000000000000, -1.000000000000000000 ) ) ;
#145 = EDGE_CURVE ( 'NONE', #574, #493, #291, .T. ) ;
#146 = CARTESIAN_POINT ( 'NONE',  ( -0.2814960629921259838, 0.000000000000000000, -0.2027559055118110243 ) ) ;
#147 = LINE ( 'NONE', #138, #526 ) ;
#148 = EDGE_CURVE ( 'NONE', #389, #70, #564, .T. ) ;
#149 = APPLICATION_PROTOCOL_DEFINITION ( 'international standard', 'config_control_design', 1994, #277 ) ;
#150 = CIRCLE ( 'NONE', #177, 0.8661417322834645827 ) ;
#151 = COORDINATED_UNIVERSAL_TIME_OFFSET ( 1, 0, .AHEAD. ) ;
#152 = LINE ( 'NONE', #402, #336 ) ;
#153 = APPROVAL_PERSON_ORGANIZATION ( #244, #598, #297 ) ;
#154 = AXIS2_PLACEMENT_3D ( 'NONE', #411, #176, #556 ) ;
#155 = DIRECTION ( 'NONE',  ( 0.000000000000000000, 0.000000000000000000, 1.000000000000000000 ) ) ;
#156 = LINE ( 'NONE', #349, #133 ) ;
#157 = ORIENTED_EDGE ( 'NONE', *, *, #14, .F. ) ;
#158 = PRODUCT ( '10_Valve_Stem_Adapter', '10_Valve_Stem_Adapter', '', ( #164 ) ) ;
#159 = AXIS2_PLACEMENT_3D ( 'NONE', #485, #254, #60 ) ;
#160 = APPROVAL_DATE_TIME ( #198, #598 ) ;
#161 = DIRECTION ( 'NONE',  ( 0.000000000000000000, 1.000000000000000000, 0.000000000000000000 ) ) ;
#162 = EDGE_LOOP ( 'NONE', ( #364, #26 ) ) ;
#163 = VERTEX_POINT ( 'NONE', #441 ) ;
#164 = MECHANICAL_CONTEXT ( 'NONE', #277, 'mechanical' ) ;
#165 = CARTESIAN_POINT ( 'NONE',  ( 0.5905511811023621549, 0.7086614173228346081, -0.1299212598425197318 ) ) ;
#166 = ORIENTED_EDGE ( 'NONE', *, *, #543, .F. ) ;
#167 = DATE_AND_TIME ( #107, #502 ) ;
#168 = CYLINDRICAL_SURFACE ( 'NONE', #159, 0.1299212598425197318 ) ;
#169 = VERTEX_POINT ( 'NONE', #243 ) ;
#170 = ADVANCED_FACE ( 'NONE', ( #298 ), #286, .T. ) ;
#171 = ORIENTED_EDGE ( 'NONE', *, *, #494, .T. ) ;
#172 = CARTESIAN_POINT ( 'NONE',  ( 0.2814960629921259838, 0.7086614173228346081, 0.2027559055118110243 ) ) ;
#173 = EDGE_CURVE ( 'NONE', #122, #29, #192, .T. ) ;
#174 = VERTEX_POINT ( 'NONE', #489 ) ;
#175 = EDGE_LOOP ( 'NONE', ( #301, #273 ) ) ;
#176 = DIRECTION ( 'NONE',  ( -0.000000000000000000, -1.000000000000000000, -0.000000000000000000 ) ) ;
#177 = AXIS2_PLACEMENT_3D ( 'NONE', #323, #56, #5 ) ;
#178 = DIRECTION ( 'NONE',  ( 0.000000000000000000, 0.000000000000000000, 1.000000000000000000 ) ) ;
#179 = ORIENTED_EDGE ( 'NONE', *, *, #17, .F. ) ;
#180 = CC_DESIGN_DATE_AND_TIME_ASSIGNMENT ( #436, #488, ( #69 ) ) ;
#181 = LINE ( 'NONE', #37, #425 ) ;
#182 = DIRECTION ( 'NONE',  ( 0.000000000000000000, 0.000000000000000000, 1.000000000000000000 ) ) ;
#183 = DIRECTION ( 'NONE',  ( 0.000000000000000000, 0.000000000000000000, 1.000000000000000000 ) ) ;
#184 = CARTESIAN_POINT ( 'NONE',  ( 0.5905511811023621549, 0.7086614173228346081, -0.1299212598425197318 ) ) ;
#185 = DIRECTION ( 'NONE',  ( 0.000000000000000000, 1.000000000000000000, 0.000000000000000000 ) ) ;
#186 = LINE ( 'NONE', #184, #295 ) ;
#187 = PLANE ( 'NONE',  #304 ) ;
#188 = DIRECTION ( 'NONE',  ( 1.000000000000000000, 0.000000000000000000, 0.000000000000000000 ) ) ;
#189 = VECTOR ( 'NONE', #469, 39.37007874015748143 ) ;
#190 = EDGE_CURVE ( 'NONE', #70, #389, #6, .T. ) ;
#191 = DIRECTION ( 'NONE',  ( 0.000000000000000000, 0.000000000000000000, -1.000000000000000000 ) ) ;
#192 = CIRCLE ( 'NONE', #530, 0.1299212598425197318 ) ;
#193 = EDGE_CURVE ( 'NONE', #316, #117, #88, .T. ) ;
#194 = DIRECTION ( 'NONE',  ( 0.000000000000000000, 0.000000000000000000, 1.000000000000000000 ) ) ;
#195 = AXIS2_PLACEMENT_3D ( 'NONE', #609, #93, #178 ) ;
#196 = CARTESIAN_POINT ( 'NONE',  ( 0.000000000000000000, 0.000000000000000000, -0.7204724409448819422 ) ) ;
#197 = PERSON_AND_ORGANIZATION ( #538, #234 ) ;
#198 = DATE_AND_TIME ( #333, #81 ) ;
#199 = DIRECTION ( 'NONE',  ( -0.000000000000000000, -1.000000000000000000, -0.000000000000000000 ) ) ;
#200 = CC_DESIGN_PERSON_AND_ORGANIZATION_ASSIGNMENT ( #197, #59, ( #338 ) ) ;
#201 = CARTESIAN_POINT ( 'NONE',  ( 0.000000000000000000, 0.000000000000000000, 0.000000000000000000 ) ) ;
#202 = DIRECTION ( 'NONE',  ( 0.000000000000000000, 0.000000000000000000, 1.000000000000000000 ) ) ;
#203 = PERSON_AND_ORGANIZATION ( #538, #234 ) ;
#204 = CARTESIAN_POINT ( 'NONE',  ( 0.000000000000000000, 0.7086614173228346081, 0.000000000000000000 ) ) ;
#205 = ORIENTED_EDGE ( 'NONE', *, *, #543, .T. ) ;
#206 = PERSON_AND_ORGANIZATION_ROLE ( 'creator' ) ;
#207 = DIRECTION ( 'NONE',  ( -0.000000000000000000, -1.000000000000000000, -0.000000000000000000 ) ) ;
#208 = ORIENTED_EDGE ( 'NONE', *, *, #127, .F. ) ;
#209 = ORIENTED_EDGE ( 'NONE', *, *, #494, .F. ) ;
#210 = EDGE_CURVE ( 'NONE', #316, #169, #22, .T. ) ;
#211 = CARTESIAN_POINT ( 'NONE',  ( 0.2814960629921259838, 0.7086614173228346081, 0.2027559055118110243 ) ) ;
#212 = VERTEX_POINT ( 'NONE', #397 ) ;
#213 = VECTOR ( 'NONE', #307, 39.37007874015748143 ) ;
#214 = EDGE_CURVE ( 'NONE', #248, #174, #572, .T. ) ;
#215 = FACE_BOUND ( 'NONE', #36, .T. ) ;
#216 = ORIENTED_EDGE ( 'NONE', *, *, #123, .T. ) ;
#217 = ORIENTED_EDGE ( 'NONE', *, *, #173, .T. ) ;
#218 = AXIS2_PLACEMENT_3D ( 'NONE', #481, #25, #344 ) ;
#219 = LINE ( 'NONE', #172, #264 ) ;
#220 = PLANE ( 'NONE',  #319 ) ;
#221 = CC_DESIGN_PERSON_AND_ORGANIZATION_ASSIGNMENT ( #110, #483, ( #590 ) ) ;
#222 = ORIENTED_EDGE ( 'NONE', *, *, #106, .T. ) ;
#223 = DIRECTION ( 'NONE',  ( 0.000000000000000000, 0.000000000000000000, 1.000000000000000000 ) ) ;
#224 = DIRECTION ( 'NONE',  ( 0.000000000000000000, 0.000000000000000000, 1.000000000000000000 ) ) ;
#225 = EDGE_CURVE ( 'NONE', #73, #79, #152, .T. ) ;
#226 = CARTESIAN_POINT ( 'NONE',  ( -0.2814960629921259838, 0.7086614173228346081, 0.2027559055118110243 ) ) ;
#227 = CARTESIAN_POINT ( 'NONE',  ( 0.2814960629921259838, 0.000000000000000000, 0.2027559055118110243 ) ) ;
#228 = CARTESIAN_POINT ( 'NONE',  ( 0.000000000000000000, 0.000000000000000000, 0.000000000000000000 ) ) ;
#229 = ORIENTED_EDGE ( 'NONE', *, *, #34, .T. ) ;
#230 = DIRECTION ( 'NONE',  ( 0.000000000000000000, 0.000000000000000000, 1.000000000000000000 ) ) ;
#231 = CARTESIAN_POINT ( 'NONE',  ( 0.000000000000000000, 0.7086614173228346081, 0.5905511811023621549 ) ) ;
#232 = AXIS2_PLACEMENT_3D ( 'NONE', #326, #236, #331 ) ;
#233 = EDGE_CURVE ( 'NONE', #324, #356, #499, .T. ) ;
#234 = ORGANIZATION ( 'UNSPECIFIED', 'UNSPECIFIED', '' ) ;
#235 = ADVANCED_FACE ( 'NONE', ( #482 ), #581, .T. ) ;
#236 = DIRECTION ( 'NONE',  ( 0.000000000000000000, 1.000000000000000000, 0.000000000000000000 ) ) ;
#237 = CARTESIAN_POINT ( 'NONE',  ( 0.000000000000000000, 0.7086614173228346081, 0.5905511811023621549 ) ) ;
#238 = AXIS2_PLACEMENT_3D ( 'NONE', #64, #245, #437 ) ;
#239 = VECTOR ( 'NONE', #420, 39.37007874015748143 ) ;
#240 = LINE ( 'NONE', #370, #571 ) ;
#241 = DIRECTION ( 'NONE',  ( -0.000000000000000000, -1.000000000000000000, -0.000000000000000000 ) ) ;
#242 = CALENDAR_DATE ( 2026, 10, 8 ) ;
#243 = CARTESIAN_POINT ( 'NONE',  ( 0.5905511811023621549, 0.000000000000000000, 0.1299212598425197318 ) ) ;
#244 = PERSON_AND_ORGANIZATION ( #538, #234 ) ;
#245 = DIRECTION ( 'NONE',  ( 1.000000000000000000, -0.000000000000000000, 0.000000000000000000 ) ) ;
#246 = ADVANCED_FACE ( 'NONE', ( #16 ), #577, .F. ) ;
#247 = CIRCLE ( 'NONE', #279, 0.1299212598425197318 ) ;
#248 = VERTEX_POINT ( 'NONE', #120 ) ;
#249 =( NAMED_UNIT ( * ) PLANE_ANGLE_UNIT ( ) SI_UNIT ( $, .RADIAN. ) );
#250 = LINE ( 'NONE', #116, #143 ) ;
#251 = ORIENTED_EDGE ( 'NONE', *, *, #561, .F. ) ;
#252 = ORIENTED_EDGE ( 'NONE', *, *, #49, .T. ) ;
#253 = APPLICATION_PROTOCOL_DEFINITION ( 'international standard', 'config_control_design', 1994, #62 ) ;
#254 = DIRECTION ( 'NONE',  ( -0.000000000000000000, -1.000000000000000000, -0.000000000000000000 ) ) ;
#255 = ORIENTED_EDGE ( 'NONE', *, *, #193, .T. ) ;
#256 =( NAMED_UNIT ( * ) SI_UNIT ( $, .STERADIAN. ) SOLID_ANGLE_UNIT ( ) );
#257 = DIRECTION ( 'NONE',  ( -1.000000000000000000, -0.000000000000000000, -0.000000000000000000 ) ) ;
#258 = ORIENTED_EDGE ( 'NONE', *, *, #433, .F. ) ;
#259 = EDGE_LOOP ( 'NONE', ( #258, #468, #460, #410 ) ) ;
#260 = DIRECTION ( 'NONE',  ( 0.000000000000000000, 0.000000000000000000, 1.000000000000000000 ) ) ;
#261 = EDGE_LOOP ( 'NONE', ( #23, #303 ) ) ;
#262 = LOCAL_TIME ( 1, 38, 35.00000000000000000, #585 ) ;
#263 = ORIENTED_EDGE ( 'NONE', *, *, #9, .F. ) ;
#264 = VECTOR ( 'NONE', #608, 39.37007874015748143 ) ;
#265 = DIRECTION ( 'NONE',  ( 0.000000000000000000, -0.000000000000000000, 1.000000000000000000 ) ) ;
#266 = EDGE_LOOP ( 'NONE', ( #449, #342 ) ) ;
#267 = ORIENTED_EDGE ( 'NONE', *, *, #431, .F. ) ;
#268 = FACE_BOUND ( 'NONE', #500, .T. ) ;
#269 = DIRECTION ( 'NONE',  ( 0.000000000000000000, 0.000000000000000000, -1.000000000000000000 ) ) ;
#270 = CARTESIAN_POINT ( 'NONE',  ( -0.2814960629921259838, 0.7086614173228346081, -0.2027559055118110243 ) ) ;
#271 = ORIENTED_EDGE ( 'NONE', *, *, #453, .F. ) ;
#272 = CARTESIAN_POINT ( 'NONE',  ( 0.000000000000000000, 0.7086614173228346081, -0.5905511811023621549 ) ) ;
#273 = ORIENTED_EDGE ( 'NONE', *, *, #193, .F. ) ;
#274 = DIRECTION ( 'NONE',  ( 0.000000000000000000, 0.000000000000000000, -1.000000000000000000 ) ) ;
#275 = EDGE_CURVE ( 'NONE', #70, #446, #465, .T. ) ;
#276 = FACE_BOUND ( 'NONE', #175, .T. ) ;
#277 = APPLICATION_CONTEXT ( 'configuration controlled 3d designs of mechanical parts and assemblies' ) ;
#278 = ORIENTED_EDGE ( 'NONE', *, *, #233, .T. ) ;
#279 = AXIS2_PLACEMENT_3D ( 'NONE', #430, #283, #230 ) ;
#280 = DIRECTION ( 'NONE',  ( 0.000000000000000000, 0.000000000000000000, 1.000000000000000000 ) ) ;
#281 = CC_DESIGN_PERSON_AND_ORGANIZATION_ASSIGNMENT ( #523, #206, ( #69 ) ) ;
#282 = LINE ( 'NONE', #558, #189 ) ;
#283 = DIRECTION ( 'NONE',  ( 0.000000000000000000, 1.000000000000000000, 0.000000000000000000 ) ) ;
#284 = CYLINDRICAL_SURFACE ( 'NONE', #51, 0.1299212598425197318 ) ;
#285 = CC_DESIGN_APPROVAL ( #598, ( #69 ) ) ;
#286 = PLANE ( 'NONE',  #377 ) ;
#287 = AXIS2_PLACEMENT_3D ( 'NONE', #451, #501, #274 ) ;
#288 = PERSON_AND_ORGANIZATION ( #538, #234 ) ;
#289 = DIRECTION ( 'NONE',  ( 0.000000000000000000, 0.000000000000000000, 1.000000000000000000 ) ) ;
#290 = EDGE_CURVE ( 'NONE', #79, #76, #373, .T. ) ;
#291 = CIRCLE ( 'NONE', #218, 0.1299212598425197318 ) ;
#292 = EDGE_CURVE ( 'NONE', #142, #603, #219, .T. ) ;
#293 = LINE ( 'NONE', #448, #476 ) ;
#294 = EDGE_LOOP ( 'NONE', ( #119, #24, #358, #166 ) ) ;
#295 = VECTOR ( 'NONE', #89, 39.37007874015748143 ) ;
#296 = ORIENTED_EDGE ( 'NONE', *, *, #433, .T. ) ;
#297 = APPROVAL_ROLE ( '' ) ;
#298 = FACE_OUTER_BOUND ( 'NONE', #113, .T. ) ;
#299 = ORIENTED_EDGE ( 'NONE', *, *, #431, .T. ) ;
#300 = DIRECTION ( 'NONE',  ( 0.000000000000000000, 1.000000000000000000, 0.000000000000000000 ) ) ;
#301 = ORIENTED_EDGE ( 'NONE', *, *, #456, .F. ) ;
#302 = CARTESIAN_POINT ( 'NONE',  ( 1.060717700048888597E-16, 0.7086614173228346081, 0.8661417322834645827 ) ) ;
#303 = ORIENTED_EDGE ( 'NONE', *, *, #325, .F. ) ;
#304 = AXIS2_PLACEMENT_3D ( 'NONE', #374, #141, #515 ) ;
#305 = ORIENTED_EDGE ( 'NONE', *, *, #532, .T. ) ;
#306 = PRODUCT_RELATED_PRODUCT_CATEGORY ( 'detail', '', ( #158 ) ) ;
#307 = DIRECTION ( 'NONE',  ( -0.000000000000000000, -0.000000000000000000, 1.000000000000000000 ) ) ;
#308 = ORIENTED_EDGE ( 'NONE', *, *, #190, .F. ) ;
#309 = LOCAL_TIME ( 1, 38, 35.00000000000000000, #103 ) ;
#310 = ORIENTED_EDGE ( 'NONE', *, *, #498, .F. ) ;
#311 = AXIS2_PLACEMENT_3D ( 'NONE', #228, #318, #265 ) ;
#312 = CARTESIAN_POINT ( 'NONE',  ( 0.000000000000000000, 0.7086614173228346081, 0.000000000000000000 ) ) ;
#313 = LINE ( 'NONE', #413, #239 ) ;
#314 = ORIENTED_EDGE ( 'NONE', *, *, #292, .T. ) ;
#315 = LINE ( 'NONE', #270, #576 ) ;
#316 = VERTEX_POINT ( 'NONE', #362 ) ;
#317 = VECTOR ( 'NONE', #28, 39.37007874015748143 ) ;
#318 = DIRECTION ( 'NONE',  ( 0.000000000000000000, 1.000000000000000000, 0.000000000000000000 ) ) ;
#319 = AXIS2_PLACEMENT_3D ( 'NONE', #512, #466, #509 ) ;
#320 = CARTESIAN_POINT ( 'NONE',  ( -0.5905511811023621549, 0.000000000000000000, -0.1299212598425196763 ) ) ;
#321 = ADVANCED_FACE ( 'NONE', ( #551 ), #129, .T. ) ;
#322 = CC_DESIGN_SECURITY_CLASSIFICATION ( #338, ( #590 ) ) ;
#323 = CARTESIAN_POINT ( 'NONE',  ( 0.000000000000000000, 0.000000000000000000, 0.000000000000000000 ) ) ;
#324 = VERTEX_POINT ( 'NONE', #415 ) ;
#325 = EDGE_CURVE ( 'NONE', #446, #503, #58, .T. ) ;
#326 = CARTESIAN_POINT ( 'NONE',  ( 0.5905511811023621549, 0.000000000000000000, 0.000000000000000000 ) ) ;
#327 = FACE_OUTER_BOUND ( 'NONE', #545, .T. ) ;
#328 = CARTESIAN_POINT ( 'NONE',  ( 0.5905511811023621549, 0.7086614173228346081, 0.000000000000000000 ) ) ;
#329 = CC_DESIGN_DATE_AND_TIME_ASSIGNMENT ( #434, #12, ( #338 ) ) ;
#330 = CIRCLE ( 'NONE', #386, 0.1299212598425197318 ) ;
#331 = DIRECTION ( 'NONE',  ( 0.000000000000000000, 0.000000000000000000, 1.000000000000000000 ) ) ;
#332 = DIRECTION ( 'NONE',  ( 0.000000000000000000, 0.000000000000000000, -1.000000000000000000 ) ) ;
#333 = CALENDAR_DATE ( 2026, 10, 8 ) ;
#334 = VECTOR ( 'NONE', #376, 39.37007874015748143 ) ;
#335 = DIMENSIONAL_EXPONENTS ( 1.000000000000000000, 0.000000000000000000, 0.000000000000000000, 0.000000000000000000, 0.000000000000000000, 0.000000000000000000, 0.000000000000000000 ) ;
#336 = VECTOR ( 'NONE', #591, 39.37007874015748143 ) ;
#337 = ADVANCED_FACE ( 'NONE', ( #124 ), #135, .T. ) ;
#338 = SECURITY_CLASSIFICATION ( '', '', #525 ) ;
#339 = CARTESIAN_POINT ( 'NONE',  ( 0.5905511811023621549, 0.7086614173228346081, 0.000000000000000000 ) ) ;
#340 = AXIS2_PLACEMENT_3D ( 'NONE', #328, #48, #144 ) ;
#341 = ADVANCED_FACE ( 'NONE', ( #368, #87, #215, #457, #268, #606 ), #40, .F. ) ;
#342 = ORIENTED_EDGE ( 'NONE', *, *, #575, .T. ) ;
#343 = APPROVAL_STATUS ( 'not_yet_approved' ) ;
#344 = DIRECTION ( 'NONE',  ( 0.000000000000000000, 0.000000000000000000, 1.000000000000000000 ) ) ;
#345 = ORIENTED_EDGE ( 'NONE', *, *, #409, .T. ) ;
#346 = AXIS2_PLACEMENT_3D ( 'NONE', #204, #72, #392 ) ;
#347 = EDGE_LOOP ( 'NONE', ( #139, #455, #387, #305 ) ) ;
#348 = CALENDAR_DATE ( 2026, 10, 8 ) ;
#349 = CARTESIAN_POINT ( 'NONE',  ( -0.2814960629921259838, 0.000000000000000000, 0.2027559055118110243 ) ) ;
#350 = EDGE_LOOP ( 'NONE', ( #251, #599, #607, #179 ) ) ;
#351 = LENGTH_MEASURE_WITH_UNIT ( LENGTH_MEASURE( 0.02539999999999999897 ), #396 );
#352 = CARTESIAN_POINT ( 'NONE',  ( 0.5905511811023621549, 0.000000000000000000, 0.000000000000000000 ) ) ;
#353 = EDGE_LOOP ( 'NONE', ( #450, #496 ) ) ;
#354 = CARTESIAN_POINT ( 'NONE',  ( 0.000000000000000000, 0.7086614173228346081, 0.000000000000000000 ) ) ;
#355 = VERTEX_POINT ( 'NONE', #407 ) ;
#356 = VERTEX_POINT ( 'NONE', #461 ) ;
#357 = FACE_OUTER_BOUND ( 'NONE', #553, .T. ) ;
#358 = ORIENTED_EDGE ( 'NONE', *, *, #214, .F. ) ;
#359 = AXIS2_PLACEMENT_3D ( 'NONE', #565, #428, #332 ) ;
#360 = VERTEX_POINT ( 'NONE', #92 ) ;
#361 = EDGE_CURVE ( 'NONE', #389, #503, #181, .T. ) ;
#362 = CARTESIAN_POINT ( 'NONE',  ( 0.5905511811023621549, 0.7086614173228346081, 0.1299212598425197318 ) ) ;
#363 = CARTESIAN_POINT ( 'NONE',  ( 1.591076550073333019E-17, 0.7086614173228346081, 0.7204724409448819422 ) ) ;
#364 = ORIENTED_EDGE ( 'NONE', *, *, #9, .T. ) ;
#365 = SHAPE_DEFINITION_REPRESENTATION ( #18, #10 ) ;
#366 = CYLINDRICAL_SURFACE ( 'NONE', #480, 0.1299212598425197318 ) ;
#367 = CARTESIAN_POINT ( 'NONE',  ( 1.060717700048888597E-16, 0.7086614173228346081, 0.8661417322834645827 ) ) ;
#368 = FACE_OUTER_BOUND ( 'NONE', #261, .T. ) ;
#369 = LINE ( 'NONE', #3, #115 ) ;
#370 = CARTESIAN_POINT ( 'NONE',  ( 0.2814960629921259838, 0.7086614173228346081, 0.2027559055118110243 ) ) ;
#371 = EDGE_LOOP ( 'NONE', ( #308, #121, #86, #68 ) ) ;
#372 = CC_DESIGN_APPROVAL ( #111, ( #338 ) ) ;
#373 = CIRCLE ( 'NONE', #140, 0.1299212598425197318 ) ;
#374 = CARTESIAN_POINT ( 'NONE',  ( 0.2814960629921259838, 0.7086614173228346081, 0.2027559055118110243 ) ) ;
#375 = PLANE ( 'NONE',  #429 ) ;
#376 = DIRECTION ( 'NONE',  ( -0.000000000000000000, -1.000000000000000000, -0.000000000000000000 ) ) ;
#377 = AXIS2_PLACEMENT_3D ( 'NONE', #20, #445, #435 ) ;
#378 = CARTESIAN_POINT ( 'NONE',  ( 0.000000000000000000, 0.7086614173228346081, 0.4606299212598424786 ) ) ;
#379 = VECTOR ( 'NONE', #269, 39.37007874015748143 ) ;
#380 = CARTESIAN_POINT ( 'NONE',  ( 0.000000000000000000, 0.000000000000000000, -0.8661417322834645827 ) ) ;
#381 = COORDINATED_UNIVERSAL_TIME_OFFSET ( 1, 0, .AHEAD. ) ;
#382 = ADVANCED_FACE ( 'NONE', ( #357 ), #366, .F. ) ;
#383 = APPROVAL_STATUS ( 'not_yet_approved' ) ;
#384 = DIRECTION ( 'NONE',  ( 0.000000000000000000, 0.000000000000000000, 1.000000000000000000 ) ) ;
#385 = EDGE_CURVE ( 'NONE', #174, #541, #315, .T. ) ;
#386 = AXIS2_PLACEMENT_3D ( 'NONE', #237, #99, #280 ) ;
#387 = ORIENTED_EDGE ( 'NONE', *, *, #361, .T. ) ;
#388 = CARTESIAN_POINT ( 'NONE',  ( -0.2814960629921259838, 0.7086614173228346081, -0.2027559055118110243 ) ) ;
#389 = VERTEX_POINT ( 'NONE', #508 ) ;
#390 = EDGE_CURVE ( 'NONE', #174, #163, #546, .T. ) ;
#391 = PERSON_AND_ORGANIZATION_ROLE ( 'design_owner' ) ;
#392 = DIRECTION ( 'NONE',  ( 0.000000000000000000, 0.000000000000000000, 1.000000000000000000 ) ) ;
#393 = ORIENTED_EDGE ( 'NONE', *, *, #106, .F. ) ;
#394 = AXIS2_PLACEMENT_3D ( 'NONE', #352, #161, #492 ) ;
#395 = ORIENTED_EDGE ( 'NONE', *, *, #14, .T. ) ;
#396 =( LENGTH_UNIT ( ) NAMED_UNIT ( * ) SI_UNIT ( $, .METRE. ) );
#397 = CARTESIAN_POINT ( 'NONE',  ( -0.5905511811023621549, 0.7086614173228346081, 0.1299212598425198151 ) ) ;
#398 = AXIS2_PLACEMENT_3D ( 'NONE', #339, #540, #384 ) ;
#399 = ORIENTED_EDGE ( 'NONE', *, *, #290, .F. ) ;
#400 = AXIS2_PLACEMENT_3D ( 'NONE', #559, #563, #182 ) ;
#401 = VERTEX_POINT ( 'NONE', #82 ) ;
#402 = CARTESIAN_POINT ( 'NONE',  ( -0.5905511811023621549, 0.7086614173228346081, -0.1299212598425196763 ) ) ;
#403 = LOCAL_TIME ( 1, 38, 35.00000000000000000, #381 ) ;
#404 = ORIENTED_EDGE ( 'NONE', *, *, #456, .T. ) ;
#405 = AXIS2_PLACEMENT_3D ( 'NONE', #272, #185, #260 ) ;
#406 = EDGE_LOOP ( 'NONE', ( #408, #299, #442, #588 ) ) ;
#407 = CARTESIAN_POINT ( 'NONE',  ( 0.5905511811023621549, 0.000000000000000000, -0.1299212598425197318 ) ) ;
#408 = ORIENTED_EDGE ( 'NONE', *, *, #123, .F. ) ;
#409 = EDGE_CURVE ( 'NONE', #360, #401, #592, .T. ) ;
#410 = ORIENTED_EDGE ( 'NONE', *, *, #453, .T. ) ;
#411 = CARTESIAN_POINT ( 'NONE',  ( 0.000000000000000000, 0.7086614173228346081, 0.000000000000000000 ) ) ;
#412 = ADVANCED_FACE ( 'NONE', ( #467 ), #542, .F. ) ;
#413 = CARTESIAN_POINT ( 'NONE',  ( 0.2814960629921259838, 0.7086614173228346081, -0.2027559055118110243 ) ) ;
#414 = ORIENTED_EDGE ( 'NONE', *, *, #17, .T. ) ;
#415 = CARTESIAN_POINT ( 'NONE',  ( 0.000000000000000000, 0.000000000000000000, 0.4606299212598424786 ) ) ;
#416 = CARTESIAN_POINT ( 'NONE',  ( -0.2814960629921259838, 0.000000000000000000, -0.2027559055118110243 ) ) ;
#417 = DIRECTION ( 'NONE',  ( -0.000000000000000000, -1.000000000000000000, -0.000000000000000000 ) ) ;
#418 = ORIENTED_EDGE ( 'NONE', *, *, #210, .T. ) ;
#419 = DIRECTION ( 'NONE',  ( -0.000000000000000000, -1.000000000000000000, -0.000000000000000000 ) ) ;
#420 = DIRECTION ( 'NONE',  ( -0.000000000000000000, -1.000000000000000000, -0.000000000000000000 ) ) ;
#421 = CIRCLE ( 'NONE', #78, 0.1299212598425197318 ) ;
#422 = CARTESIAN_POINT ( 'NONE',  ( 1.591076550073333019E-17, 0.7086614173228346081, 0.7204724409448819422 ) ) ;
#423 = AXIS2_PLACEMENT_3D ( 'NONE', #527, #108, #289 ) ;
#424 = ORIENTED_EDGE ( 'NONE', *, *, #210, .F. ) ;
#425 = VECTOR ( 'NONE', #419, 39.37007874015748143 ) ;
#426 = DIRECTION ( 'NONE',  ( -0.000000000000000000, -1.000000000000000000, -0.000000000000000000 ) ) ;
#427 = ADVANCED_FACE ( 'NONE', ( #432 ), #8, .F. ) ;
#428 = DIRECTION ( 'NONE',  ( -0.000000000000000000, -1.000000000000000000, -0.000000000000000000 ) ) ;
#429 = AXIS2_PLACEMENT_3D ( 'NONE', #462, #98, #38 ) ;
#430 = CARTESIAN_POINT ( 'NONE',  ( 0.5905511811023621549, 0.7086614173228346081, 0.000000000000000000 ) ) ;
#431 = EDGE_CURVE ( 'NONE', #212, #73, #454, .T. ) ;
#432 = FACE_OUTER_BOUND ( 'NONE', #533, .T. ) ;
#433 = EDGE_CURVE ( 'NONE', #541, #584, #282, .T. ) ;
#434 = DATE_AND_TIME ( #242, #403 ) ;
#435 = DIRECTION ( 'NONE',  ( -1.000000000000000000, 0.000000000000000000, -0.000000000000000000 ) ) ;
#436 = DATE_AND_TIME ( #348, #309 ) ;
#437 = DIRECTION ( 'NONE',  ( 0.000000000000000000, 0.000000000000000000, -1.000000000000000000 ) ) ;
#438 = CIRCLE ( 'NONE', #602, 0.1299212598425197318 ) ;
#439 = EDGE_LOOP ( 'NONE', ( #296, #222, #547, #597 ) ) ;
#440 =( CONVERSION_BASED_UNIT ( 'INCH', #351 ) LENGTH_UNIT ( ) NAMED_UNIT ( #335 ) );
#441 = CARTESIAN_POINT ( 'NONE',  ( -0.2814960629921259838, 0.7086614173228346081, 0.2027559055118110243 ) ) ;
#442 = ORIENTED_EDGE ( 'NONE', *, *, #225, .T. ) ;
#443 = ORIENTED_EDGE ( 'NONE', *, *, #145, .F. ) ;
#444 = CALENDAR_DATE ( 2026, 10, 8 ) ;
#445 = DIRECTION ( 'NONE',  ( 0.000000000000000000, 0.000000000000000000, -1.000000000000000000 ) ) ;
#446 = VERTEX_POINT ( 'NONE', #569 ) ;
#447 = PERSON_AND_ORGANIZATION_ROLE ( 'design_supplier' ) ;
#448 = CARTESIAN_POINT ( 'NONE',  ( -0.5905511811023621549, 0.7086614173228346081, 0.1299212598425198151 ) ) ;
#449 = ORIENTED_EDGE ( 'NONE', *, *, #102, .T. ) ;
#450 = ORIENTED_EDGE ( 'NONE', *, *, #173, .F. ) ;
#451 = CARTESIAN_POINT ( 'NONE',  ( 0.000000000000000000, 0.7086614173228346081, -0.5905511811023621549 ) ) ;
#452 = EDGE_LOOP ( 'NONE', ( #217, #504, #593, #594 ) ) ;
#453 = EDGE_CURVE ( 'NONE', #163, #584, #147, .T. ) ;
#454 = CIRCLE ( 'NONE', #4, 0.1299212598425197318 ) ;
#455 = ORIENTED_EDGE ( 'NONE', *, *, #148, .F. ) ;
#456 = EDGE_CURVE ( 'NONE', #117, #316, #247, .T. ) ;
#457 = FACE_BOUND ( 'NONE', #266, .T. ) ;
#458 = ORIENTED_EDGE ( 'NONE', *, *, #225, .F. ) ;
#459 = VECTOR ( 'NONE', #605, 39.37007874015748143 ) ;
#460 = ORIENTED_EDGE ( 'NONE', *, *, #390, .T. ) ;
#461 = CARTESIAN_POINT ( 'NONE',  ( 1.591076550073333019E-17, 0.000000000000000000, 0.7204724409448819422 ) ) ;
#462 = CARTESIAN_POINT ( 'NONE',  ( -0.2814960629921259838, 0.7086614173228346081, -0.2027559055118110243 ) ) ;
#463 = CC_DESIGN_PERSON_AND_ORGANIZATION_ASSIGNMENT ( #203, #391, ( #158 ) ) ;
#464 = CLOSED_SHELL ( 'NONE', ( #382, #85, #473, #97, #321, #2, #341, #337, #235, #170, #586, #61, #246, #427, #35, #412 ) ) ;
#465 = LINE ( 'NONE', #302, #317 ) ;
#466 = DIRECTION ( 'NONE',  ( 0.000000000000000000, 1.000000000000000000, 0.000000000000000000 ) ) ;
#467 = FACE_OUTER_BOUND ( 'NONE', #95, .T. ) ;
#468 = ORIENTED_EDGE ( 'NONE', *, *, #385, .F. ) ;
#469 = DIRECTION ( 'NONE',  ( -0.000000000000000000, -0.000000000000000000, 1.000000000000000000 ) ) ;
#470 = DIRECTION ( 'NONE',  ( 0.000000000000000000, 1.000000000000000000, 0.000000000000000000 ) ) ;
#471 = CARTESIAN_POINT ( 'NONE',  ( 0.000000000000000000, 0.7086614173228346081, -0.5905511811023621549 ) ) ;
#472 = FACE_BOUND ( 'NONE', #544, .T. ) ;
#473 = ADVANCED_FACE ( 'NONE', ( #50 ), #520, .F. ) ;
#474 = CARTESIAN_POINT ( 'NONE',  ( 1.591076550073333019E-17, 0.000000000000000000, -0.4606299212598424786 ) ) ;
#475 = DIRECTION ( 'NONE',  ( 0.000000000000000000, 1.000000000000000000, 0.000000000000000000 ) ) ;
#476 = VECTOR ( 'NONE', #531, 39.37007874015748143 ) ;
#477 = VECTOR ( 'NONE', #257, 39.37007874015748143 ) ;
#478 = LINE ( 'NONE', #562, #125 ) ;
#479 = PERSON_AND_ORGANIZATION ( #538, #234 ) ;
#480 = AXIS2_PLACEMENT_3D ( 'NONE', #90, #77, #554 ) ;
#481 = CARTESIAN_POINT ( 'NONE',  ( 0.000000000000000000, 0.000000000000000000, -0.5905511811023621549 ) ) ;
#482 = FACE_OUTER_BOUND ( 'NONE', #259, .T. ) ;
#483 = PERSON_AND_ORGANIZATION_ROLE ( 'creator' ) ;
#484 = FACE_OUTER_BOUND ( 'NONE', #452, .T. ) ;
#485 = CARTESIAN_POINT ( 'NONE',  ( -0.5905511811023621549, 0.7086614173228346081, 6.829619984160658046E-17 ) ) ;
#486 = ORIENTED_EDGE ( 'NONE', *, *, #127, .T. ) ;
#487 = ORIENTED_EDGE ( 'NONE', *, *, #516, .T. ) ;
#488 = DATE_TIME_ROLE ( 'creation_date' ) ;
#489 = CARTESIAN_POINT ( 'NONE',  ( -0.2814960629921259838, 0.7086614173228346081, -0.2027559055118110243 ) ) ;
#490 = ORIENTED_EDGE ( 'NONE', *, *, #292, .F. ) ;
#491 = DATE_AND_TIME ( #444, #262 ) ;
#492 = DIRECTION ( 'NONE',  ( 0.000000000000000000, 0.000000000000000000, 1.000000000000000000 ) ) ;
#493 = VERTEX_POINT ( 'NONE', #196 ) ;
#494 = EDGE_CURVE ( 'NONE', #401, #493, #478, .T. ) ;
#495 = DIRECTION ( 'NONE',  ( 0.000000000000000000, 1.000000000000000000, 0.000000000000000000 ) ) ;
#496 = ORIENTED_EDGE ( 'NONE', *, *, #518, .F. ) ;
#497 = CIRCLE ( 'NONE', #232, 0.1299212598425197318 ) ;
#498 = EDGE_CURVE ( 'NONE', #401, #360, #421, .T. ) ;
#499 = CIRCLE ( 'NONE', #423, 0.1299212598425197318 ) ;
#500 = EDGE_LOOP ( 'NONE', ( #278, #414 ) ) ;
#501 = DIRECTION ( 'NONE',  ( -0.000000000000000000, -1.000000000000000000, -0.000000000000000000 ) ) ;
#502 = LOCAL_TIME ( 1, 38, 35.00000000000000000, #151 ) ;
#503 = VERTEX_POINT ( 'NONE', #380 ) ;
#504 = ORIENTED_EDGE ( 'NONE', *, *, #561, .T. ) ;
#505 = DIRECTION ( 'NONE',  ( 0.000000000000000000, 0.000000000000000000, -1.000000000000000000 ) ) ;
#506 = APPROVAL ( #343, 'UNSPECIFIED' ) ;
#507 = DIRECTION ( 'NONE',  ( 0.000000000000000000, 0.000000000000000000, -1.000000000000000000 ) ) ;
#508 = CARTESIAN_POINT ( 'NONE',  ( 0.000000000000000000, 0.7086614173228346081, -0.8661417322834645827 ) ) ;
#509 = DIRECTION ( 'NONE',  ( 0.000000000000000000, -0.000000000000000000, 1.000000000000000000 ) ) ;
#510 = AXIS2_PLACEMENT_3D ( 'NONE', #601, #470, #224 ) ;
#511 = CARTESIAN_POINT ( 'NONE',  ( -0.5905511811023621549, 0.7086614173228346081, 6.829619984160658046E-17 ) ) ;
#512 = CARTESIAN_POINT ( 'NONE',  ( 0.000000000000000000, 0.7086614173228346081, 0.000000000000000000 ) ) ;
#513 = LINE ( 'NONE', #378, #610 ) ;
#514 = FACE_BOUND ( 'NONE', #353, .T. ) ;
#515 = DIRECTION ( 'NONE',  ( 0.000000000000000000, 0.000000000000000000, 1.000000000000000000 ) ) ;
#516 = EDGE_CURVE ( 'NONE', #73, #212, #438, .T. ) ;
#517 = FACE_OUTER_BOUND ( 'NONE', #80, .T. ) ;
#518 = EDGE_CURVE ( 'NONE', #29, #122, #330, .T. ) ;
#519 = AXIS2_PLACEMENT_3D ( 'NONE', #201, #155, #529 ) ;
#520 = CYLINDRICAL_SURFACE ( 'NONE', #359, 0.1299212598425197318 ) ;
#521 = CARTESIAN_POINT ( 'NONE',  ( -0.2814960629921259838, 0.000000000000000000, 0.2027559055118110243 ) ) ;
#522 = CARTESIAN_POINT ( 'NONE',  ( -0.5905511811023621549, 0.7086614173228346081, 6.829619984160658046E-17 ) ) ;
#523 = PERSON_AND_ORGANIZATION ( #538, #234 ) ;
#524 = DIRECTION ( 'NONE',  ( 0.000000000000000000, 0.000000000000000000, -1.000000000000000000 ) ) ;
#525 = SECURITY_CLASSIFICATION_LEVEL ( 'unclassified' ) ;
#526 = VECTOR ( 'NONE', #46, 39.37007874015748143 ) ;
#527 = CARTESIAN_POINT ( 'NONE',  ( 0.000000000000000000, 0.000000000000000000, 0.5905511811023621549 ) ) ;
#528 = ORIENTED_EDGE ( 'NONE', *, *, #45, .F. ) ;
#529 = DIRECTION ( 'NONE',  ( 1.000000000000000000, 0.000000000000000000, 0.000000000000000000 ) ) ;
#530 = AXIS2_PLACEMENT_3D ( 'NONE', #13, #587, #112 ) ;
#531 = DIRECTION ( 'NONE',  ( -0.000000000000000000, -1.000000000000000000, -0.000000000000000000 ) ) ;
#532 = EDGE_CURVE ( 'NONE', #503, #446, #150, .T. ) ;
#533 = EDGE_LOOP ( 'NONE', ( #424, #255, #65, #33 ) ) ;
#534 = EDGE_LOOP ( 'NONE', ( #487, #216, #399, #458 ) ) ;
#535 = CARTESIAN_POINT ( 'NONE',  ( 0.2814960629921259838, 0.000000000000000000, -0.2027559055118110243 ) ) ;
#536 = CIRCLE ( 'NONE', #400, 0.1299212598425197318 ) ;
#537 = ORIENTED_EDGE ( 'NONE', *, *, #63, .F. ) ;
#538 = PERSON ( 'UNSPECIFIED', 'UNSPECIFIED', 'UNSPECIFIED', ('UNSPECIFIED'), ('UNSPECIFIED'), ('UNSPECIFIED') ) ;
#539 = APPROVAL_DATE_TIME ( #491, #506 ) ;
#540 = DIRECTION ( 'NONE',  ( 0.000000000000000000, 1.000000000000000000, 0.000000000000000000 ) ) ;
#541 = VERTEX_POINT ( 'NONE', #146 ) ;
#542 = CYLINDRICAL_SURFACE ( 'NONE', #287, 0.1299212598425197318 ) ;
#543 = EDGE_CURVE ( 'NONE', #142, #248, #240, .T. ) ;
#544 = EDGE_LOOP ( 'NONE', ( #131, #267 ) ) ;
#545 = EDGE_LOOP ( 'NONE', ( #84, #589 ) ) ;
#546 = LINE ( 'NONE', #226, #213 ) ;
#547 = ORIENTED_EDGE ( 'NONE', *, *, #45, .T. ) ;
#548 =( GEOMETRIC_REPRESENTATION_CONTEXT ( 3 ) GLOBAL_UNCERTAINTY_ASSIGNED_CONTEXT ( ( #582 ) ) GLOBAL_UNIT_ASSIGNED_CONTEXT ( ( #440, #249, #256 ) ) REPRESENTATION_CONTEXT ( 'NONE', 'WORKASPACE' ) );
#549 = ORIENTED_EDGE ( 'NONE', *, *, #385, .T. ) ;
#550 = EDGE_CURVE ( 'NONE', #122, #324, #513, .T. ) ;
#551 = FACE_OUTER_BOUND ( 'NONE', #371, .T. ) ;
#552 = CYLINDRICAL_SURFACE ( 'NONE', #39, 0.1299212598425197318 ) ;
#553 = EDGE_LOOP ( 'NONE', ( #114, #486, #263, #209 ) ) ;
#554 = DIRECTION ( 'NONE',  ( 0.000000000000000000, 0.000000000000000000, -1.000000000000000000 ) ) ;
#555 = EDGE_LOOP ( 'NONE', ( #310, #15 ) ) ;
#556 = DIRECTION ( 'NONE',  ( 0.000000000000000000, 0.000000000000000000, -1.000000000000000000 ) ) ;
#557 = LINE ( 'NONE', #416, #459 ) ;
#558 = CARTESIAN_POINT ( 'NONE',  ( -0.2814960629921259838, 0.000000000000000000, 0.2027559055118110243 ) ) ;
#559 = CARTESIAN_POINT ( 'NONE',  ( -0.5905511811023621549, 0.000000000000000000, 6.829619984160658046E-17 ) ) ;
#560 = AXIS2_PLACEMENT_3D ( 'NONE', #596, #132, #183 ) ;
#561 = EDGE_CURVE ( 'NONE', #29, #356, #52, .T. ) ;
#562 = CARTESIAN_POINT ( 'NONE',  ( 0.000000000000000000, 0.7086614173228346081, -0.7204724409448819422 ) ) ;
#563 = DIRECTION ( 'NONE',  ( 0.000000000000000000, 1.000000000000000000, 0.000000000000000000 ) ) ;
#564 = CIRCLE ( 'NONE', #32, 0.8661417322834645827 ) ;
#565 = CARTESIAN_POINT ( 'NONE',  ( 0.5905511811023621549, 0.7086614173228346081, 0.000000000000000000 ) ) ;
#566 = CIRCLE ( 'NONE', #510, 0.1299212598425197318 ) ;
#567 = DIRECTION ( 'NONE',  ( 0.000000000000000000, 1.000000000000000000, 0.000000000000000000 ) ) ;
#568 = CC_DESIGN_PERSON_AND_ORGANIZATION_ASSIGNMENT ( #66, #447, ( #590 ) ) ;
#569 = CARTESIAN_POINT ( 'NONE',  ( 1.060717700048888597E-16, 0.000000000000000000, 0.8661417322834645827 ) ) ;
#570 = APPROVAL_ROLE ( '' ) ;
#571 = VECTOR ( 'NONE', #191, 39.37007874015748143 ) ;
#572 = LINE ( 'NONE', #388, #477 ) ;
#573 = APPROVAL_PERSON_ORGANIZATION ( #479, #506, #71 ) ;
#574 = VERTEX_POINT ( 'NONE', #474 ) ;
#575 = EDGE_CURVE ( 'NONE', #169, #355, #497, .T. ) ;
#576 = VECTOR ( 'NONE', #417, 39.37007874015748143 ) ;
#577 = CYLINDRICAL_SURFACE ( 'NONE', #53, 0.1299212598425197318 ) ;
#578 = EDGE_LOOP ( 'NONE', ( #404, #418, #30, #126 ) ) ;
#579 = APPROVAL_STATUS ( 'not_yet_approved' ) ;
#580 = CIRCLE ( 'NONE', #394, 0.1299212598425197318 ) ;
#581 = PLANE ( 'NONE',  #238 ) ;
#582 = UNCERTAINTY_MEASURE_WITH_UNIT (LENGTH_MEASURE( 1.000000000000000082E-05 ), #440, 'distance_accuracy_value', 'NONE');
#583 = ORIENTED_EDGE ( 'NONE', *, *, #290, .T. ) ;
#584 = VERTEX_POINT ( 'NONE', #521 ) ;
#585 = COORDINATED_UNIVERSAL_TIME_OFFSET ( 1, 0, .AHEAD. ) ;
#586 = ADVANCED_FACE ( 'NONE', ( #100 ), #187, .T. ) ;
#587 = DIRECTION ( 'NONE',  ( 0.000000000000000000, 1.000000000000000000, 0.000000000000000000 ) ) ;
#588 = ORIENTED_EDGE ( 'NONE', *, *, #34, .F. ) ;
#589 = ORIENTED_EDGE ( 'NONE', *, *, #190, .T. ) ;
#590 = PRODUCT_DEFINITION_FORMATION_WITH_SPECIFIED_SOURCE ( 'ANY', '', #158, .NOT_KNOWN. ) ;
#591 = DIRECTION ( 'NONE',  ( -0.000000000000000000, -1.000000000000000000, -0.000000000000000000 ) ) ;
#592 = CIRCLE ( 'NONE', #405, 0.1299212598425197318 ) ;
#593 = ORIENTED_EDGE ( 'NONE', *, *, #233, .F. ) ;
#594 = ORIENTED_EDGE ( 'NONE', *, *, #550, .F. ) ;
#595 = APPROVAL_DATE_TIME ( #167, #111 ) ;
#596 = CARTESIAN_POINT ( 'NONE',  ( 0.000000000000000000, 0.000000000000000000, 0.000000000000000000 ) ) ;
#597 = ORIENTED_EDGE ( 'NONE', *, *, #63, .T. ) ;
#598 = APPROVAL ( #579, 'UNSPECIFIED' ) ;
#599 = ORIENTED_EDGE ( 'NONE', *, *, #518, .T. ) ;
#600 = DIRECTION ( 'NONE',  ( 0.000000000000000000, 0.000000000000000000, -1.000000000000000000 ) ) ;
#601 = CARTESIAN_POINT ( 'NONE',  ( 0.000000000000000000, 0.000000000000000000, -0.5905511811023621549 ) ) ;
#602 = AXIS2_PLACEMENT_3D ( 'NONE', #522, #475, #194 ) ;
#603 = VERTEX_POINT ( 'NONE', #96 ) ;
#604 = DIRECTION ( 'NONE',  ( -0.000000000000000000, -1.000000000000000000, -0.000000000000000000 ) ) ;
#605 = DIRECTION ( 'NONE',  ( -1.000000000000000000, -0.000000000000000000, -0.000000000000000000 ) ) ;
#606 = FACE_BOUND ( 'NONE', #162, .T. ) ;
#607 = ORIENTED_EDGE ( 'NONE', *, *, #550, .T. ) ;
#608 = DIRECTION ( 'NONE',  ( -0.000000000000000000, -1.000000000000000000, -0.000000000000000000 ) ) ;
#609 = CARTESIAN_POINT ( 'NONE',  ( 0.000000000000000000, 0.000000000000000000, 0.5905511811023621549 ) ) ;
#610 = VECTOR ( 'NONE', #94, 39.37007874015748143 ) ;
ENDSEC;
END-ISO-10303-21;
