ISO-10303-21;
HEADER;
FILE_DESCRIPTION (( 'STEP AP203' ),
    '1' );
FILE_NAME ('11_Valve_Clamp_50mm.STEP',
    '2026-08-10T00:38:37',
    ( '' ),
    ( '' ),
    'SwSTEP 2.0',
    'SolidWorks 2026',
    '' );
FILE_SCHEMA (( 'CONFIG_CONTROL_DESIGN' ));
ENDSEC;

DATA;
#1 = CARTESIAN_POINT ( 'NONE',  ( -2.755905511811024056, 0.4724409448818898127, -0.9055118110236221041 ) ) ;
#2 = EDGE_CURVE ( 'NONE', #157, #234, #366, .T. ) ;
#3 = ORIENTED_EDGE ( 'NONE', *, *, #37, .F. ) ;
#4 = CALENDAR_DATE ( 2026, 10, 8 ) ;
#5 = CARTESIAN_POINT ( 'NONE',  ( -2.755905511811024056, 0.000000000000000000, -0.7381889763779526659 ) ) ;
#6 = LOCAL_TIME ( 1, 38, 37.00000000000000000, #619 ) ;
#7 = VECTOR ( 'NONE', #632, 39.37007874015748143 ) ;
#8 = ORIENTED_EDGE ( 'NONE', *, *, #186, .F. ) ;
#9 = EDGE_CURVE ( 'NONE', #69, #406, #316, .T. ) ;
#10 = DIRECTION ( 'NONE',  ( 0.000000000000000000, 0.000000000000000000, -1.000000000000000000 ) ) ;
#11 = EDGE_CURVE ( 'NONE', #69, #234, #260, .T. ) ;
#12 = CARTESIAN_POINT ( 'NONE',  ( 1.417322834645669216, 0.4724409448818898127, -0.9055118110236221041 ) ) ;
#13 = VECTOR ( 'NONE', #566, 39.37007874015748143 ) ;
#14 = ORIENTED_EDGE ( 'NONE', *, *, #587, .T. ) ;
#15 = EDGE_CURVE ( 'NONE', #288, #464, #459, .T. ) ;
#16 = DIRECTION ( 'NONE',  ( -1.000000000000000000, 0.000000000000000000, -0.000000000000000000 ) ) ;
#17 = CARTESIAN_POINT ( 'NONE',  ( 3.307086614173228689, 0.4724409448818898127, 1.377952755905512028 ) ) ;
#18 = CARTESIAN_POINT ( 'NONE',  ( 1.417322834645669216, 0.000000000000000000, 0.9055118110236221041 ) ) ;
#19 = CARTESIAN_POINT ( 'NONE',  ( -2.755905511811024056, 0.4724409448818898127, 0.9055118110236221041 ) ) ;
#20 = CARTESIAN_POINT ( 'NONE',  ( -2.755905511811024056, 0.000000000000000000, -0.9055118110236221041 ) ) ;
#21 = AXIS2_PLACEMENT_3D ( 'NONE', #1, #523, #367 ) ;
#22 = FACE_BOUND ( 'NONE', #419, .T. ) ;
#23 = VERTEX_POINT ( 'NONE', #104 ) ;
#24 = LINE ( 'NONE', #285, #449 ) ;
#25 = ORIENTED_EDGE ( 'NONE', *, *, #129, .T. ) ;
#26 = FACE_BOUND ( 'NONE', #400, .T. ) ;
#27 = PERSON ( 'UNSPECIFIED', 'UNSPECIFIED', 'UNSPECIFIED', ('UNSPECIFIED'), ('UNSPECIFIED'), ('UNSPECIFIED') ) ;
#28 = DIRECTION ( 'NONE',  ( 0.000000000000000000, 1.000000000000000000, 0.000000000000000000 ) ) ;
#29 = EDGE_LOOP ( 'NONE', ( #508, #627 ) ) ;
#30 = EDGE_CURVE ( 'NONE', #23, #164, #514, .T. ) ;
#31 = DIRECTION ( 'NONE',  ( 0.000000000000000000, 0.000000000000000000, 1.000000000000000000 ) ) ;
#32 = ORIENTED_EDGE ( 'NONE', *, *, #324, .T. ) ;
#33 = VECTOR ( 'NONE', #120, 39.37007874015748143 ) ;
#34 = CARTESIAN_POINT ( 'NONE',  ( 2.755905511811024056, 0.4724409448818898127, 0.9055118110236221041 ) ) ;
#35 = EDGE_CURVE ( 'NONE', #164, #82, #528, .T. ) ;
#36 = ORIENTED_EDGE ( 'NONE', *, *, #324, .F. ) ;
#37 = EDGE_CURVE ( 'NONE', #406, #106, #475, .T. ) ;
#38 = DIRECTION ( 'NONE',  ( -1.000000000000000000, 0.000000000000000000, -0.000000000000000000 ) ) ;
#39 = LOCAL_TIME ( 1, 38, 37.00000000000000000, #411 ) ;
#40 = AXIS2_PLACEMENT_3D ( 'NONE', #387, #539, #239 ) ;
#41 = CARTESIAN_POINT ( 'NONE',  ( 2.755905511811024056, 0.4724409448818898127, -0.7381889763779526659 ) ) ;
#42 = AXIS2_PLACEMENT_3D ( 'NONE', #409, #313, #563 ) ;
#43 = ADVANCED_FACE ( 'NONE', ( #395 ), #65, .F. ) ;
#44 = ORIENTED_EDGE ( 'NONE', *, *, #507, .F. ) ;
#45 = PERSON_AND_ORGANIZATION ( #27, #577 ) ;
#46 = CYLINDRICAL_SURFACE ( 'NONE', #580, 0.1673228346456694382 ) ;
#47 = CARTESIAN_POINT ( 'NONE',  ( -3.307086614173228689, 0.000000000000000000, 1.377952755905512028 ) ) ;
#48 = PERSON_AND_ORGANIZATION_ROLE ( 'design_owner' ) ;
#49 = FACE_BOUND ( 'NONE', #362, .T. ) ;
#50 = CC_DESIGN_DATE_AND_TIME_ASSIGNMENT ( #266, #215, ( #601 ) ) ;
#51 = CARTESIAN_POINT ( 'NONE',  ( 3.307086614173228689, 0.4724409448818898127, 1.377952755905512028 ) ) ;
#52 = DIRECTION ( 'NONE',  ( 0.000000000000000000, 0.000000000000000000, 1.000000000000000000 ) ) ;
#53 = PRODUCT_DEFINITION_FORMATION_WITH_SPECIFIED_SOURCE ( 'ANY', '', #355, .NOT_KNOWN. ) ;
#54 = ORIENTED_EDGE ( 'NONE', *, *, #441, .F. ) ;
#55 = AXIS2_PLACEMENT_3D ( 'NONE', #327, #167, #57 ) ;
#56 = EDGE_CURVE ( 'NONE', #23, #613, #226, .T. ) ;
#57 = DIRECTION ( 'NONE',  ( 0.000000000000000000, 0.000000000000000000, -1.000000000000000000 ) ) ;
#58 = ORIENTED_EDGE ( 'NONE', *, *, #295, .F. ) ;
#59 = DIRECTION ( 'NONE',  ( 0.000000000000000000, 0.000000000000000000, 1.000000000000000000 ) ) ;
#60 = VECTOR ( 'NONE', #646, 39.37007874015748143 ) ;
#61 = ORIENTED_EDGE ( 'NONE', *, *, #91, .F. ) ;
#62 = PRODUCT_DEFINITION ( 'UNKNOWN', '', #53, #481 ) ;
#63 = EDGE_CURVE ( 'NONE', #659, #540, #298, .T. ) ;
#64 = FACE_OUTER_BOUND ( 'NONE', #95, .T. ) ;
#65 = PLANE ( 'NONE',  #212 ) ;
#66 = ADVANCED_BREP_SHAPE_REPRESENTATION ( '11_Valve_Clamp_50mm', ( #70, #75 ), #182 ) ;
#67 = DIRECTION ( 'NONE',  ( 1.000000000000000000, 0.000000000000000000, -0.000000000000000000 ) ) ;
#68 = DIRECTION ( 'NONE',  ( 0.000000000000000000, 0.000000000000000000, -1.000000000000000000 ) ) ;
#69 = VERTEX_POINT ( 'NONE', #430 ) ;
#70 = MANIFOLD_SOLID_BREP ( 'Bridge_Clamp_Extrude', #474 ) ;
#71 = DIRECTION ( 'NONE',  ( 1.000000000000000000, -0.000000000000000000, 0.000000000000000000 ) ) ;
#72 = LINE ( 'NONE', #574, #60 ) ;
#73 = ORIENTED_EDGE ( 'NONE', *, *, #479, .T. ) ;
#74 = DIRECTION ( 'NONE',  ( 0.000000000000000000, -0.000000000000000000, -1.000000000000000000 ) ) ;
#75 = AXIS2_PLACEMENT_3D ( 'NONE', #609, #296, #600 ) ;
#76 = CIRCLE ( 'NONE', #281, 0.1673228346456694382 ) ;
#77 = CARTESIAN_POINT ( 'NONE',  ( -3.307086614173228689, 0.4724409448818898127, 1.377952755905512028 ) ) ;
#78 = CIRCLE ( 'NONE', #425, 0.1673228346456694382 ) ;
#79 = EDGE_LOOP ( 'NONE', ( #518, #339, #648, #241 ) ) ;
#80 = LINE ( 'NONE', #77, #250 ) ;
#81 = EDGE_CURVE ( 'NONE', #540, #453, #132, .T. ) ;
#82 = VERTEX_POINT ( 'NONE', #348 ) ;
#83 = DIRECTION ( 'NONE',  ( 0.000000000000000000, 0.000000000000000000, -1.000000000000000000 ) ) ;
#84 = FACE_OUTER_BOUND ( 'NONE', #98, .T. ) ;
#85 = ORIENTED_EDGE ( 'NONE', *, *, #408, .T. ) ;
#86 = COORDINATED_UNIVERSAL_TIME_OFFSET ( 1, 0, .AHEAD. ) ;
#87 = DIRECTION ( 'NONE',  ( -0.000000000000000000, -1.000000000000000000, -0.000000000000000000 ) ) ;
#88 = VERTEX_POINT ( 'NONE', #633 ) ;
#89 = PERSON_AND_ORGANIZATION_ROLE ( 'creator' ) ;
#90 = LINE ( 'NONE', #94, #385 ) ;
#91 = EDGE_CURVE ( 'NONE', #547, #326, #496, .T. ) ;
#92 = ORIENTED_EDGE ( 'NONE', *, *, #418, .T. ) ;
#93 =( NAMED_UNIT ( * ) SI_UNIT ( $, .STERADIAN. ) SOLID_ANGLE_UNIT ( ) );
#94 = CARTESIAN_POINT ( 'NONE',  ( -1.417322834645669216, 0.000000000000000000, -0.9055118110236221041 ) ) ;
#95 = EDGE_LOOP ( 'NONE', ( #654, #382, #433, #85 ) ) ;
#96 = SECURITY_CLASSIFICATION_LEVEL ( 'unclassified' ) ;
#97 = DIRECTION ( 'NONE',  ( 0.000000000000000000, 0.000000000000000000, 1.000000000000000000 ) ) ;
#98 = EDGE_LOOP ( 'NONE', ( #214, #14, #227, #246 ) ) ;
#99 = DIRECTION ( 'NONE',  ( 0.000000000000000000, 0.000000000000000000, -1.000000000000000000 ) ) ;
#100 = DIRECTION ( 'NONE',  ( 0.000000000000000000, -1.000000000000000000, 0.000000000000000000 ) ) ;
#101 = DIRECTION ( 'NONE',  ( 0.000000000000000000, 0.000000000000000000, -1.000000000000000000 ) ) ;
#102 = DIRECTION ( 'NONE',  ( 0.000000000000000000, -0.000000000000000000, -1.000000000000000000 ) ) ;
#103 = ADVANCED_FACE ( 'NONE', ( #84 ), #635, .F. ) ;
#104 = CARTESIAN_POINT ( 'NONE',  ( -1.417322834645669216, 0.4724409448818898127, 0.9055118110236221041 ) ) ;
#105 = DIRECTION ( 'NONE',  ( -0.000000000000000000, -1.000000000000000000, -0.000000000000000000 ) ) ;
#106 = VERTEX_POINT ( 'NONE', #328 ) ;
#107 = CIRCLE ( 'NONE', #141, 0.1673228346456694382 ) ;
#108 = CARTESIAN_POINT ( 'NONE',  ( 1.417322834645669216, 0.000000000000000000, 0.9055118110236221041 ) ) ;
#109 = EDGE_CURVE ( 'NONE', #82, #350, #172, .T. ) ;
#110 = ORIENTED_EDGE ( 'NONE', *, *, #247, .F. ) ;
#111 = APPROVAL_DATE_TIME ( #219, #526 ) ;
#112 = CYLINDRICAL_SURFACE ( 'NONE', #270, 0.1673228346456694382 ) ;
#113 = CARTESIAN_POINT ( 'NONE',  ( -1.417322834645669216, 0.4724409448818898127, 0.9055118110236221041 ) ) ;
#114 = FACE_OUTER_BOUND ( 'NONE', #314, .T. ) ;
#115 = CARTESIAN_POINT ( 'NONE',  ( -3.307086614173228689, 0.4724409448818898127, -1.377952755905512028 ) ) ;
#116 = AXIS2_PLACEMENT_3D ( 'NONE', #552, #100, #102 ) ;
#117 = EDGE_LOOP ( 'NONE', ( #410, #176 ) ) ;
#118 = VECTOR ( 'NONE', #597, 39.37007874015748143 ) ;
#119 = PLANE ( 'NONE',  #482 ) ;
#120 = DIRECTION ( 'NONE',  ( 1.000000000000000000, 0.000000000000000000, 0.000000000000000000 ) ) ;
#121 = ORIENTED_EDGE ( 'NONE', *, *, #163, .T. ) ;
#122 = FACE_OUTER_BOUND ( 'NONE', #263, .T. ) ;
#123 = AXIS2_PLACEMENT_3D ( 'NONE', #492, #440, #428 ) ;
#124 = ADVANCED_FACE ( 'NONE', ( #190 ), #168, .T. ) ;
#125 = EDGE_LOOP ( 'NONE', ( #36, #209, #320, #560 ) ) ;
#126 = DIRECTION ( 'NONE',  ( -0.000000000000000000, -1.000000000000000000, -0.000000000000000000 ) ) ;
#127 = AXIS2_PLACEMENT_3D ( 'NONE', #185, #126, #431 ) ;
#128 = FACE_OUTER_BOUND ( 'NONE', #494, .T. ) ;
#129 = EDGE_CURVE ( 'NONE', #88, #272, #500, .T. ) ;
#130 = EDGE_LOOP ( 'NONE', ( #254, #73, #534, #388 ) ) ;
#131 = CYLINDRICAL_SURFACE ( 'NONE', #559, 0.1673228346456694382 ) ;
#132 = LINE ( 'NONE', #240, #585 ) ;
#133 = EDGE_CURVE ( 'NONE', #485, #670, #222, .T. ) ;
#134 = ORIENTED_EDGE ( 'NONE', *, *, #437, .T. ) ;
#135 = COORDINATED_UNIVERSAL_TIME_OFFSET ( 1, 0, .AHEAD. ) ;
#136 = LINE ( 'NONE', #412, #493 ) ;
#137 = EDGE_LOOP ( 'NONE', ( #354, #390, #265, #268 ) ) ;
#138 = LOCAL_TIME ( 1, 38, 37.00000000000000000, #135 ) ;
#139 = APPROVAL_DATE_TIME ( #606, #160 ) ;
#140 = CARTESIAN_POINT ( 'NONE',  ( -2.755905511811024056, 0.4724409448818898127, -0.7381889763779526659 ) ) ;
#141 = AXIS2_PLACEMENT_3D ( 'NONE', #34, #448, #657 ) ;
#142 = ORIENTED_EDGE ( 'NONE', *, *, #186, .T. ) ;
#143 = DATE_TIME_ROLE ( 'creation_date' ) ;
#144 = CARTESIAN_POINT ( 'NONE',  ( -2.755905511811024056, 0.000000000000000000, 0.9055118110236221041 ) ) ;
#145 = VERTEX_POINT ( 'NONE', #376 ) ;
#146 = CARTESIAN_POINT ( 'NONE',  ( 2.755905511811024056, 0.000000000000000000, 1.072834645669291431 ) ) ;
#147 = VECTOR ( 'NONE', #187, 39.37007874015748143 ) ;
#148 = CARTESIAN_POINT ( 'NONE',  ( 2.755905511811024056, 0.000000000000000000, 0.9055118110236221041 ) ) ;
#149 = PRODUCT_RELATED_PRODUCT_CATEGORY ( 'detail', '', ( #355 ) ) ;
#150 = ORIENTED_EDGE ( 'NONE', *, *, #56, .F. ) ;
#151 = MECHANICAL_CONTEXT ( 'NONE', #618, 'mechanical' ) ;
#152 = LINE ( 'NONE', #206, #351 ) ;
#153 = ORIENTED_EDGE ( 'NONE', *, *, #181, .F. ) ;
#154 = CALENDAR_DATE ( 2026, 10, 8 ) ;
#155 = LINE ( 'NONE', #365, #604 ) ;
#156 = EDGE_CURVE ( 'NONE', #145, #663, #72, .T. ) ;
#157 = VERTEX_POINT ( 'NONE', #170 ) ;
#158 = DIRECTION ( 'NONE',  ( -0.000000000000000000, -1.000000000000000000, -0.000000000000000000 ) ) ;
#159 = ORIENTED_EDGE ( 'NONE', *, *, #631, .T. ) ;
#160 = APPROVAL ( #661, 'UNSPECIFIED' ) ;
#161 = CARTESIAN_POINT ( 'NONE',  ( -2.755905511811024056, 0.000000000000000000, 1.072834645669291431 ) ) ;
#162 = VECTOR ( 'NONE', #233, 39.37007874015748143 ) ;
#163 = EDGE_CURVE ( 'NONE', #547, #521, #381, .T. ) ;
#164 = VERTEX_POINT ( 'NONE', #345 ) ;
#165 = AXIS2_PLACEMENT_3D ( 'NONE', #323, #375, #267 ) ;
#166 = EDGE_CURVE ( 'NONE', #272, #88, #522, .T. ) ;
#167 = DIRECTION ( 'NONE',  ( -0.000000000000000000, -1.000000000000000000, -0.000000000000000000 ) ) ;
#168 = PLANE ( 'NONE',  #420 ) ;
#169 = DIRECTION ( 'NONE',  ( 0.000000000000000000, 0.000000000000000000, 1.000000000000000000 ) ) ;
#170 = CARTESIAN_POINT ( 'NONE',  ( -3.307086614173228689, 0.000000000000000000, 1.377952755905512028 ) ) ;
#171 = DIRECTION ( 'NONE',  ( 0.000000000000000000, 1.000000000000000000, 0.000000000000000000 ) ) ;
#172 = LINE ( 'NONE', #12, #553 ) ;
#173 = VECTOR ( 'NONE', #259, 39.37007874015748143 ) ;
#174 = LINE ( 'NONE', #18, #469 ) ;
#175 = EDGE_CURVE ( 'NONE', #406, #547, #444, .T. ) ;
#176 = ORIENTED_EDGE ( 'NONE', *, *, #303, .T. ) ;
#177 = CARTESIAN_POINT ( 'NONE',  ( -2.755905511811024056, 0.4724409448818898127, -0.9055118110236221041 ) ) ;
#178 = VECTOR ( 'NONE', #386, 39.37007874015748143 ) ;
#179 = ORIENTED_EDGE ( 'NONE', *, *, #15, .F. ) ;
#180 = DIRECTION ( 'NONE',  ( -0.000000000000000000, -1.000000000000000000, -0.000000000000000000 ) ) ;
#181 = EDGE_CURVE ( 'NONE', #322, #501, #136, .T. ) ;
#182 =( GEOMETRIC_REPRESENTATION_CONTEXT ( 3 ) GLOBAL_UNCERTAINTY_ASSIGNED_CONTEXT ( ( #598 ) ) GLOBAL_UNIT_ASSIGNED_CONTEXT ( ( #307, #414, #93 ) ) REPRESENTATION_CONTEXT ( 'NONE', 'WORKASPACE' ) );
#183 = AXIS2_PLACEMENT_3D ( 'NONE', #394, #332, #74 ) ;
#184 = ORIENTED_EDGE ( 'NONE', *, *, #30, .T. ) ;
#185 = CARTESIAN_POINT ( 'NONE',  ( -2.755905511811024056, 0.4724409448818898127, -0.9055118110236221041 ) ) ;
#186 = EDGE_CURVE ( 'NONE', #322, #23, #308, .T. ) ;
#187 = DIRECTION ( 'NONE',  ( -0.000000000000000000, -0.000000000000000000, 1.000000000000000000 ) ) ;
#188 = ORIENTED_EDGE ( 'NONE', *, *, #418, .F. ) ;
#189 = DIRECTION ( 'NONE',  ( 1.000000000000000000, 0.000000000000000000, 0.000000000000000000 ) ) ;
#190 = FACE_OUTER_BOUND ( 'NONE', #283, .T. ) ;
#191 = ORIENTED_EDGE ( 'NONE', *, *, #556, .T. ) ;
#192 = PERSON_AND_ORGANIZATION_ROLE ( 'creator' ) ;
#193 = DIRECTION ( 'NONE',  ( 0.000000000000000000, 0.000000000000000000, -1.000000000000000000 ) ) ;
#194 = ORIENTED_EDGE ( 'NONE', *, *, #616, .F. ) ;
#195 = PERSON_AND_ORGANIZATION ( #27, #577 ) ;
#196 = CARTESIAN_POINT ( 'NONE',  ( 1.417322834645669216, 0.000000000000000000, -0.9055118110236221041 ) ) ;
#197 = VECTOR ( 'NONE', #10, 39.37007874015748143 ) ;
#198 = VERTEX_POINT ( 'NONE', #565 ) ;
#199 = DIRECTION ( 'NONE',  ( 0.000000000000000000, 1.000000000000000000, 0.000000000000000000 ) ) ;
#200 = ORIENTED_EDGE ( 'NONE', *, *, #660, .F. ) ;
#201 = PERSON_AND_ORGANIZATION_ROLE ( 'classification_officer' ) ;
#202 = FACE_OUTER_BOUND ( 'NONE', #125, .T. ) ;
#203 = ORIENTED_EDGE ( 'NONE', *, *, #163, .F. ) ;
#204 = APPROVAL_PERSON_ORGANIZATION ( #224, #526, #378 ) ;
#205 = DATE_AND_TIME ( #498, #513 ) ;
#206 = CARTESIAN_POINT ( 'NONE',  ( -2.755905511811024056, 0.4724409448818898127, 0.7381889763779526659 ) ) ;
#207 = ORIENTED_EDGE ( 'NONE', *, *, #603, .T. ) ;
#208 = CARTESIAN_POINT ( 'NONE',  ( 1.417322834645669216, 0.4724409448818898127, 0.9055118110236221041 ) ) ;
#209 = ORIENTED_EDGE ( 'NONE', *, *, #631, .F. ) ;
#210 = APPROVAL ( #360, 'UNSPECIFIED' ) ;
#211 = APPROVAL_STATUS ( 'not_yet_approved' ) ;
#212 = AXIS2_PLACEMENT_3D ( 'NONE', #17, #330, #542 ) ;
#213 = CARTESIAN_POINT ( 'NONE',  ( 2.755905511811024056, 0.4724409448818898127, -0.7381889763779526659 ) ) ;
#214 = ORIENTED_EDGE ( 'NONE', *, *, #81, .F. ) ;
#215 = DATE_TIME_ROLE ( 'classification_date' ) ;
#216 = LINE ( 'NONE', #573, #306 ) ;
#217 = CIRCLE ( 'NONE', #644, 0.1673228346456694382 ) ;
#218 = CARTESIAN_POINT ( 'NONE',  ( 1.417322834645669216, 0.4724409448818898127, 0.9055118110236221041 ) ) ;
#219 = DATE_AND_TIME ( #154, #6 ) ;
#220 = DIRECTION ( 'NONE',  ( 0.000000000000000000, 0.000000000000000000, 1.000000000000000000 ) ) ;
#221 = VECTOR ( 'NONE', #101, 39.37007874015748143 ) ;
#222 = LINE ( 'NONE', #594, #612 ) ;
#223 = ORIENTED_EDGE ( 'NONE', *, *, #408, .F. ) ;
#224 = PERSON_AND_ORGANIZATION ( #27, #577 ) ;
#225 = LINE ( 'NONE', #512, #197 ) ;
#226 = LINE ( 'NONE', #113, #178 ) ;
#227 = ORIENTED_EDGE ( 'NONE', *, *, #275, .T. ) ;
#228 = ADVANCED_FACE ( 'NONE', ( #446 ), #46, .F. ) ;
#229 = DIRECTION ( 'NONE',  ( 0.000000000000000000, 0.000000000000000000, -1.000000000000000000 ) ) ;
#230 = APPROVAL_PERSON_ORGANIZATION ( #454, #160, #457 ) ;
#231 = VERTEX_POINT ( 'NONE', #140 ) ;
#232 = AXIS2_PLACEMENT_3D ( 'NONE', #144, #463, #169 ) ;
#233 = DIRECTION ( 'NONE',  ( -0.000000000000000000, -0.000000000000000000, 1.000000000000000000 ) ) ;
#234 = VERTEX_POINT ( 'NONE', #665 ) ;
#235 = EDGE_CURVE ( 'NONE', #350, #501, #90, .T. ) ;
#236 = PLANE ( 'NONE',  #183 ) ;
#237 = AXIS2_PLACEMENT_3D ( 'NONE', #290, #28, #243 ) ;
#238 = ORIENTED_EDGE ( 'NONE', *, *, #537, .F. ) ;
#239 = DIRECTION ( 'NONE',  ( 1.000000000000000000, 0.000000000000000000, -0.000000000000000000 ) ) ;
#240 = CARTESIAN_POINT ( 'NONE',  ( -2.755905511811024056, 0.4724409448818898127, 1.072834645669291431 ) ) ;
#241 = ORIENTED_EDGE ( 'NONE', *, *, #309, .F. ) ;
#242 = CARTESIAN_POINT ( 'NONE',  ( 2.755905511811024056, 0.000000000000000000, 0.7381889763779526659 ) ) ;
#243 = DIRECTION ( 'NONE',  ( 0.000000000000000000, 0.000000000000000000, 1.000000000000000000 ) ) ;
#244 = EDGE_LOOP ( 'NONE', ( #450, #92, #257, #200 ) ) ;
#245 = CARTESIAN_POINT ( 'NONE',  ( 2.755905511811024056, 0.4724409448818898127, -1.072834645669291431 ) ) ;
#246 = ORIENTED_EDGE ( 'NONE', *, *, #368, .F. ) ;
#247 = EDGE_CURVE ( 'NONE', #663, #670, #262, .T. ) ;
#248 = DIRECTION ( 'NONE',  ( -0.000000000000000000, -1.000000000000000000, -0.000000000000000000 ) ) ;
#249 = VERTEX_POINT ( 'NONE', #41 ) ;
#250 = VECTOR ( 'NONE', #189, 39.37007874015748143 ) ;
#251 = DIRECTION ( 'NONE',  ( -1.000000000000000000, -0.000000000000000000, -0.000000000000000000 ) ) ;
#252 = CIRCLE ( 'NONE', #628, 0.1673228346456694382 ) ;
#253 = ADVANCED_FACE ( 'NONE', ( #653 ), #458, .F. ) ;
#254 = ORIENTED_EDGE ( 'NONE', *, *, #460, .F. ) ;
#255 = PERSON_AND_ORGANIZATION ( #27, #577 ) ;
#256 = FACE_BOUND ( 'NONE', #299, .T. ) ;
#257 = ORIENTED_EDGE ( 'NONE', *, *, #15, .T. ) ;
#258 = ADVANCED_FACE ( 'NONE', ( #256, #49, #202, #610, #356, #668 ), #662, .T. ) ;
#259 = DIRECTION ( 'NONE',  ( -0.000000000000000000, -0.000000000000000000, 1.000000000000000000 ) ) ;
#260 = LINE ( 'NONE', #462, #312 ) ;
#261 = FACE_OUTER_BOUND ( 'NONE', #286, .T. ) ;
#262 = CIRCLE ( 'NONE', #546, 0.1673228346456694382 ) ;
#263 = EDGE_LOOP ( 'NONE', ( #121, #191, #396, #651 ) ) ;
#264 = LINE ( 'NONE', #213, #538 ) ;
#265 = ORIENTED_EDGE ( 'NONE', *, *, #520, .T. ) ;
#266 = DATE_AND_TIME ( #4, #39 ) ;
#267 = DIRECTION ( 'NONE',  ( 0.000000000000000000, 0.000000000000000000, 1.000000000000000000 ) ) ;
#268 = ORIENTED_EDGE ( 'NONE', *, *, #616, .T. ) ;
#269 = DIRECTION ( 'NONE',  ( 0.000000000000000000, 1.000000000000000000, 0.000000000000000000 ) ) ;
#270 = AXIS2_PLACEMENT_3D ( 'NONE', #372, #105, #519 ) ;
#271 = DIRECTION ( 'NONE',  ( -0.000000000000000000, -1.000000000000000000, -0.000000000000000000 ) ) ;
#272 = VERTEX_POINT ( 'NONE', #615 ) ;
#273 = CYLINDRICAL_SURFACE ( 'NONE', #55, 0.1673228346456694382 ) ;
#274 = CARTESIAN_POINT ( 'NONE',  ( -1.417322834645669216, 0.4724409448818898127, 0.9055118110236221041 ) ) ;
#275 = EDGE_CURVE ( 'NONE', #659, #605, #152, .T. ) ;
#276 = ORIENTED_EDGE ( 'NONE', *, *, #349, .F. ) ;
#277 = DIRECTION ( 'NONE',  ( -0.000000000000000000, -1.000000000000000000, -0.000000000000000000 ) ) ;
#278 = DIRECTION ( 'NONE',  ( 0.000000000000000000, 1.000000000000000000, 0.000000000000000000 ) ) ;
#279 = ORIENTED_EDGE ( 'NONE', *, *, #275, .F. ) ;
#280 = CARTESIAN_POINT ( 'NONE',  ( -2.755905511811024056, 0.4724409448818898127, 1.072834645669291431 ) ) ;
#281 = AXIS2_PLACEMENT_3D ( 'NONE', #177, #649, #529 ) ;
#282 = ADVANCED_FACE ( 'NONE', ( #363 ), #405, .F. ) ;
#283 = EDGE_LOOP ( 'NONE', ( #238, #153, #142, #478 ) ) ;
#284 = CIRCLE ( 'NONE', #432, 0.1673228346456694382 ) ;
#285 = CARTESIAN_POINT ( 'NONE',  ( -3.307086614173228689, 0.000000000000000000, -1.377952755905512028 ) ) ;
#286 = EDGE_LOOP ( 'NONE', ( #194, #58, #599, #621 ) ) ;
#287 = FACE_BOUND ( 'NONE', #413, .T. ) ;
#288 = VERTEX_POINT ( 'NONE', #620 ) ;
#289 = FACE_OUTER_BOUND ( 'NONE', #472, .T. ) ;
#290 = CARTESIAN_POINT ( 'NONE',  ( 2.755905511811024056, 0.000000000000000000, -0.9055118110236221041 ) ) ;
#291 = ORIENTED_EDGE ( 'NONE', *, *, #368, .T. ) ;
#292 = CARTESIAN_POINT ( 'NONE',  ( -1.417322834645669216, 0.4724409448818898127, 0.9055118110236221041 ) ) ;
#293 = DIRECTION ( 'NONE',  ( -0.000000000000000000, -1.000000000000000000, -0.000000000000000000 ) ) ;
#294 = ORIENTED_EDGE ( 'NONE', *, *, #652, .F. ) ;
#295 = EDGE_CURVE ( 'NONE', #164, #483, #155, .T. ) ;
#296 = DIRECTION ( 'NONE',  ( 0.000000000000000000, 0.000000000000000000, 1.000000000000000000 ) ) ;
#297 = CARTESIAN_POINT ( 'NONE',  ( -3.307086614173228689, 0.000000000000000000, -1.377952755905512028 ) ) ;
#298 = CIRCLE ( 'NONE', #358, 0.1673228346456694382 ) ;
#299 = EDGE_LOOP ( 'NONE', ( #447, #505 ) ) ;
#300 = PRODUCT_DEFINITION_SHAPE ( 'NONE', 'NONE',  #62 ) ;
#301 = APPROVAL_DATE_TIME ( #509, #210 ) ;
#302 = DIRECTION ( 'NONE',  ( -0.000000000000000000, -1.000000000000000000, -0.000000000000000000 ) ) ;
#303 = EDGE_CURVE ( 'NONE', #670, #663, #284, .T. ) ;
#304 = ORIENTED_EDGE ( 'NONE', *, *, #37, .T. ) ;
#305 = LOCAL_TIME ( 1, 38, 37.00000000000000000, #86 ) ;
#306 = VECTOR ( 'NONE', #380, 39.37007874015748143 ) ;
#307 =( CONVERSION_BASED_UNIT ( 'INCH', #544 ) LENGTH_UNIT ( ) NAMED_UNIT ( #379 ) );
#308 = LINE ( 'NONE', #506, #173 ) ;
#309 = EDGE_CURVE ( 'NONE', #198, #88, #607, .T. ) ;
#310 = ORIENTED_EDGE ( 'NONE', *, *, #156, .T. ) ;
#311 = CALENDAR_DATE ( 2026, 10, 8 ) ;
#312 = VECTOR ( 'NONE', #672, 39.37007874015748143 ) ;
#313 = DIRECTION ( 'NONE',  ( -0.000000000000000000, -1.000000000000000000, -0.000000000000000000 ) ) ;
#314 = EDGE_LOOP ( 'NONE', ( #403, #343, #110, #422 ) ) ;
#315 = DIRECTION ( 'NONE',  ( 0.000000000000000000, 1.000000000000000000, 0.000000000000000000 ) ) ;
#316 = LINE ( 'NONE', #51, #221 ) ;
#317 = CC_DESIGN_SECURITY_CLASSIFICATION ( #601, ( #53 ) ) ;
#318 = CARTESIAN_POINT ( 'NONE',  ( -1.417322834645669216, 0.000000000000000000, -0.9055118110236221041 ) ) ;
#319 = VECTOR ( 'NONE', #549, 39.37007874015748143 ) ;
#320 = ORIENTED_EDGE ( 'NONE', *, *, #437, .F. ) ;
#321 = CARTESIAN_POINT ( 'NONE',  ( -3.307086614173228689, 0.4724409448818898127, 1.377952755905512028 ) ) ;
#322 = VERTEX_POINT ( 'NONE', #557 ) ;
#323 = CARTESIAN_POINT ( 'NONE',  ( 2.755905511811024056, 0.4724409448818898127, 0.9055118110236221041 ) ) ;
#324 = EDGE_CURVE ( 'NONE', #326, #157, #402, .T. ) ;
#325 = DIRECTION ( 'NONE',  ( 0.000000000000000000, 1.000000000000000000, 0.000000000000000000 ) ) ;
#326 = VERTEX_POINT ( 'NONE', #297 ) ;
#327 = CARTESIAN_POINT ( 'NONE',  ( 2.755905511811024056, 0.4724409448818898127, 0.9055118110236221041 ) ) ;
#328 = CARTESIAN_POINT ( 'NONE',  ( 3.307086614173228689, 0.000000000000000000, -1.377952755905512028 ) ) ;
#329 = DIRECTION ( 'NONE',  ( 0.000000000000000000, 0.000000000000000000, 1.000000000000000000 ) ) ;
#330 = DIRECTION ( 'NONE',  ( -1.000000000000000000, 0.000000000000000000, 0.000000000000000000 ) ) ;
#331 = ORIENTED_EDGE ( 'NONE', *, *, #520, .F. ) ;
#332 = DIRECTION ( 'NONE',  ( 0.000000000000000000, -1.000000000000000000, 0.000000000000000000 ) ) ;
#333 = CC_DESIGN_DATE_AND_TIME_ASSIGNMENT ( #205, #143, ( #62 ) ) ;
#334 = VECTOR ( 'NONE', #68, 39.37007874015748143 ) ;
#335 = ORIENTED_EDGE ( 'NONE', *, *, #235, .F. ) ;
#336 = CARTESIAN_POINT ( 'NONE',  ( -2.755905511811024056, 0.4724409448818898127, 0.9055118110236221041 ) ) ;
#337 = AXIS2_PLACEMENT_3D ( 'NONE', #292, #99, #38 ) ;
#338 = CIRCLE ( 'NONE', #393, 0.1673228346456694382 ) ;
#339 = ORIENTED_EDGE ( 'NONE', *, *, #460, .T. ) ;
#340 = AXIS2_PLACEMENT_3D ( 'NONE', #470, #59, #67 ) ;
#341 = DIRECTION ( 'NONE',  ( 0.000000000000000000, 1.000000000000000000, 0.000000000000000000 ) ) ;
#342 = VECTOR ( 'NONE', #617, 39.37007874015748143 ) ;
#343 = ORIENTED_EDGE ( 'NONE', *, *, #133, .T. ) ;
#344 = DIRECTION ( 'NONE',  ( 0.000000000000000000, 0.000000000000000000, -1.000000000000000000 ) ) ;
#345 = CARTESIAN_POINT ( 'NONE',  ( 1.417322834645669216, 0.4724409448818898127, 0.9055118110236221041 ) ) ;
#346 = EDGE_LOOP ( 'NONE', ( #335, #666, #442, #640 ) ) ;
#347 = CALENDAR_DATE ( 2026, 10, 8 ) ;
#348 = CARTESIAN_POINT ( 'NONE',  ( 1.417322834645669216, 0.4724409448818898127, -0.9055118110236221041 ) ) ;
#349 = EDGE_CURVE ( 'NONE', #145, #485, #107, .T. ) ;
#350 = VERTEX_POINT ( 'NONE', #196 ) ;
#351 = VECTOR ( 'NONE', #415, 39.37007874015748143 ) ;
#352 = PERSON_AND_ORGANIZATION ( #27, #577 ) ;
#353 = DIRECTION ( 'NONE',  ( -0.000000000000000000, -1.000000000000000000, -0.000000000000000000 ) ) ;
#354 = ORIENTED_EDGE ( 'NONE', *, *, #235, .T. ) ;
#355 = PRODUCT ( '11_Valve_Clamp_50mm', '11_Valve_Clamp_50mm', '', ( #151 ) ) ;
#356 = FACE_BOUND ( 'NONE', #117, .T. ) ;
#357 = CC_DESIGN_PERSON_AND_ORGANIZATION_ASSIGNMENT ( #502, #555, ( #53 ) ) ;
#358 = AXIS2_PLACEMENT_3D ( 'NONE', #19, #325, #471 ) ;
#359 = EDGE_LOOP ( 'NONE', ( #497, #571, #44, #279 ) ) ;
#360 = APPROVAL_STATUS ( 'not_yet_approved' ) ;
#361 = DIRECTION ( 'NONE',  ( -0.000000000000000000, -1.000000000000000000, -0.000000000000000000 ) ) ;
#362 = EDGE_LOOP ( 'NONE', ( #445, #291 ) ) ;
#363 = FACE_OUTER_BOUND ( 'NONE', #623, .T. ) ;
#364 = ORIENTED_EDGE ( 'NONE', *, *, #404, .F. ) ;
#365 = CARTESIAN_POINT ( 'NONE',  ( 1.417322834645669216, 0.4724409448818898127, 0.9055118110236221041 ) ) ;
#366 = LINE ( 'NONE', #47, #342 ) ;
#367 = DIRECTION ( 'NONE',  ( 0.000000000000000000, 0.000000000000000000, 1.000000000000000000 ) ) ;
#368 = EDGE_CURVE ( 'NONE', #453, #605, #373, .T. ) ;
#369 = ORIENTED_EDGE ( 'NONE', *, *, #30, .F. ) ;
#370 = CC_DESIGN_APPROVAL ( #526, ( #601 ) ) ;
#371 = AXIS2_PLACEMENT_3D ( 'NONE', #20, #341, #434 ) ;
#372 = CARTESIAN_POINT ( 'NONE',  ( 2.755905511811024056, 0.4724409448818898127, -0.9055118110236221041 ) ) ;
#373 = CIRCLE ( 'NONE', #232, 0.1673228346456694382 ) ;
#374 = ORIENTED_EDGE ( 'NONE', *, *, #133, .F. ) ;
#375 = DIRECTION ( 'NONE',  ( 0.000000000000000000, 1.000000000000000000, 0.000000000000000000 ) ) ;
#376 = CARTESIAN_POINT ( 'NONE',  ( 2.755905511811024056, 0.4724409448818898127, 0.7381889763779526659 ) ) ;
#377 = ADVANCED_FACE ( 'NONE', ( #114 ), #273, .F. ) ;
#378 = APPROVAL_ROLE ( '' ) ;
#379 = DIMENSIONAL_EXPONENTS ( 1.000000000000000000, 0.000000000000000000, 0.000000000000000000, 0.000000000000000000, 0.000000000000000000, 0.000000000000000000, 0.000000000000000000 ) ;
#380 = DIRECTION ( 'NONE',  ( 1.000000000000000000, 0.000000000000000000, 0.000000000000000000 ) ) ;
#381 = LINE ( 'NONE', #576, #147 ) ;
#382 = ORIENTED_EDGE ( 'NONE', *, *, #11, .F. ) ;
#383 = FACE_OUTER_BOUND ( 'NONE', #130, .T. ) ;
#384 = AXIS2_PLACEMENT_3D ( 'NONE', #510, #452, #193 ) ;
#385 = VECTOR ( 'NONE', #251, 39.37007874015748143 ) ;
#386 = DIRECTION ( 'NONE',  ( -0.000000000000000000, -1.000000000000000000, -0.000000000000000000 ) ) ;
#387 = CARTESIAN_POINT ( 'NONE',  ( -3.307086614173228689, 0.4724409448818898127, -1.377952755905512028 ) ) ;
#388 = ORIENTED_EDGE ( 'NONE', *, *, #166, .F. ) ;
#389 = DIRECTION ( 'NONE',  ( 0.000000000000000000, 1.000000000000000000, 0.000000000000000000 ) ) ;
#390 = ORIENTED_EDGE ( 'NONE', *, *, #537, .T. ) ;
#391 = CARTESIAN_POINT ( 'NONE',  ( -2.755905511811024056, 0.000000000000000000, -0.9055118110236221041 ) ) ;
#392 = AXIS2_PLACEMENT_3D ( 'NONE', #391, #435, #590 ) ;
#393 = AXIS2_PLACEMENT_3D ( 'NONE', #671, #171, #52 ) ;
#394 = CARTESIAN_POINT ( 'NONE',  ( 0.000000000000000000, 0.4724409448818898127, 0.000000000000000000 ) ) ;
#395 = FACE_OUTER_BOUND ( 'NONE', #608, .T. ) ;
#396 = ORIENTED_EDGE ( 'NONE', *, *, #9, .T. ) ;
#397 = FACE_OUTER_BOUND ( 'NONE', #359, .T. ) ;
#398 = ADVANCED_FACE ( 'NONE', ( #527 ), #421, .T. ) ;
#399 = CARTESIAN_POINT ( 'NONE',  ( -1.417322834645669216, 0.4724409448818898127, 0.9055118110236221041 ) ) ;
#400 = EDGE_LOOP ( 'NONE', ( #276, #364 ) ) ;
#401 = PLANE ( 'NONE',  #337 ) ;
#402 = LINE ( 'NONE', #602, #319 ) ;
#403 = ORIENTED_EDGE ( 'NONE', *, *, #349, .T. ) ;
#404 = EDGE_CURVE ( 'NONE', #485, #145, #451, .T. ) ;
#405 = CYLINDRICAL_SURFACE ( 'NONE', #42, 0.1673228346456694382 ) ;
#406 = VERTEX_POINT ( 'NONE', #473 ) ;
#407 =( LENGTH_UNIT ( ) NAMED_UNIT ( * ) SI_UNIT ( $, .METRE. ) );
#408 = EDGE_CURVE ( 'NONE', #521, #157, #622, .T. ) ;
#409 = CARTESIAN_POINT ( 'NONE',  ( 2.755905511811024056, 0.4724409448818898127, 0.9055118110236221041 ) ) ;
#410 = ORIENTED_EDGE ( 'NONE', *, *, #247, .T. ) ;
#411 = COORDINATED_UNIVERSAL_TIME_OFFSET ( 1, 0, .AHEAD. ) ;
#412 = CARTESIAN_POINT ( 'NONE',  ( -1.417322834645669216, 0.4724409448818898127, -0.9055118110236221041 ) ) ;
#413 = EDGE_LOOP ( 'NONE', ( #550, #188 ) ) ;
#414 =( NAMED_UNIT ( * ) PLANE_ANGLE_UNIT ( ) SI_UNIT ( $, .RADIAN. ) );
#415 = DIRECTION ( 'NONE',  ( -0.000000000000000000, -1.000000000000000000, -0.000000000000000000 ) ) ;
#416 = CARTESIAN_POINT ( 'NONE',  ( -2.755905511811024056, 0.4724409448818898127, -1.072834645669291431 ) ) ;
#417 = DIRECTION ( 'NONE',  ( -1.000000000000000000, 0.000000000000000000, 0.000000000000000000 ) ) ;
#418 = EDGE_CURVE ( 'NONE', #231, #288, #658, .T. ) ;
#419 = EDGE_LOOP ( 'NONE', ( #54, #583 ) ) ;
#420 = AXIS2_PLACEMENT_3D ( 'NONE', #399, #530, #630 ) ;
#421 = PLANE ( 'NONE',  #340 ) ;
#422 = ORIENTED_EDGE ( 'NONE', *, *, #156, .F. ) ;
#423 = ADVANCED_FACE ( 'NONE', ( #64 ), #119, .F. ) ;
#424 = CARTESIAN_POINT ( 'NONE',  ( 2.755905511811024056, 0.4724409448818898127, -0.9055118110236221041 ) ) ;
#425 = AXIS2_PLACEMENT_3D ( 'NONE', #567, #269, #427 ) ;
#426 = CARTESIAN_POINT ( 'NONE',  ( 2.755905511811024056, 0.000000000000000000, -0.9055118110236221041 ) ) ;
#427 = DIRECTION ( 'NONE',  ( 0.000000000000000000, 0.000000000000000000, 1.000000000000000000 ) ) ;
#428 = DIRECTION ( 'NONE',  ( 0.000000000000000000, 0.000000000000000000, -1.000000000000000000 ) ) ;
#429 = CARTESIAN_POINT ( 'NONE',  ( -2.755905511811024056, 0.000000000000000000, -1.072834645669291431 ) ) ;
#430 = CARTESIAN_POINT ( 'NONE',  ( 3.307086614173228689, 0.4724409448818898127, 1.377952755905512028 ) ) ;
#431 = DIRECTION ( 'NONE',  ( 0.000000000000000000, 0.000000000000000000, -1.000000000000000000 ) ) ;
#432 = AXIS2_PLACEMENT_3D ( 'NONE', #148, #315, #31 ) ;
#433 = ORIENTED_EDGE ( 'NONE', *, *, #556, .F. ) ;
#434 = DIRECTION ( 'NONE',  ( 0.000000000000000000, 0.000000000000000000, 1.000000000000000000 ) ) ;
#435 = DIRECTION ( 'NONE',  ( 0.000000000000000000, 1.000000000000000000, 0.000000000000000000 ) ) ;
#436 = VECTOR ( 'NONE', #293, 39.37007874015748143 ) ;
#437 = EDGE_CURVE ( 'NONE', #234, #106, #225, .T. ) ;
#438 = ORIENTED_EDGE ( 'NONE', *, *, #166, .T. ) ;
#439 = DIRECTION ( 'NONE',  ( -1.000000000000000000, -0.000000000000000000, -0.000000000000000000 ) ) ;
#440 = DIRECTION ( 'NONE',  ( -0.000000000000000000, -1.000000000000000000, -0.000000000000000000 ) ) ;
#441 = EDGE_CURVE ( 'NONE', #198, #249, #78, .T. ) ;
#442 = ORIENTED_EDGE ( 'NONE', *, *, #490, .T. ) ;
#443 = PLANE ( 'NONE',  #40 ) ;
#444 = LINE ( 'NONE', #650, #118 ) ;
#445 = ORIENTED_EDGE ( 'NONE', *, *, #507, .T. ) ;
#446 = FACE_OUTER_BOUND ( 'NONE', #244, .T. ) ;
#447 = ORIENTED_EDGE ( 'NONE', *, *, #652, .T. ) ;
#448 = DIRECTION ( 'NONE',  ( 0.000000000000000000, 1.000000000000000000, 0.000000000000000000 ) ) ;
#449 = VECTOR ( 'NONE', #439, 39.37007874015748143 ) ;
#450 = ORIENTED_EDGE ( 'NONE', *, *, #551, .F. ) ;
#451 = CIRCLE ( 'NONE', #165, 0.1673228346456694382 ) ;
#452 = DIRECTION ( 'NONE',  ( -0.000000000000000000, -1.000000000000000000, -0.000000000000000000 ) ) ;
#453 = VERTEX_POINT ( 'NONE', #161 ) ;
#454 = PERSON_AND_ORGANIZATION ( #27, #577 ) ;
#455 = CARTESIAN_POINT ( 'NONE',  ( -2.755905511811024056, 0.4724409448818898127, -0.9055118110236221041 ) ) ;
#456 = EDGE_LOOP ( 'NONE', ( #32, #223, #203, #554 ) ) ;
#457 = APPROVAL_ROLE ( '' ) ;
#458 = CYLINDRICAL_SURFACE ( 'NONE', #384, 0.1673228346456694382 ) ;
#459 = LINE ( 'NONE', #416, #13 ) ;
#460 = EDGE_CURVE ( 'NONE', #249, #272, #264, .T. ) ;
#461 = DIRECTION ( 'NONE',  ( 0.000000000000000000, 0.000000000000000000, -1.000000000000000000 ) ) ;
#462 = CARTESIAN_POINT ( 'NONE',  ( 3.307086614173228689, 0.4724409448818898127, 1.377952755905512028 ) ) ;
#463 = DIRECTION ( 'NONE',  ( 0.000000000000000000, 1.000000000000000000, 0.000000000000000000 ) ) ;
#464 = VERTEX_POINT ( 'NONE', #429 ) ;
#465 = CC_DESIGN_PERSON_AND_ORGANIZATION_ASSIGNMENT ( #255, #89, ( #53 ) ) ;
#466 = VECTOR ( 'NONE', #271, 39.37007874015748143 ) ;
#467 = LINE ( 'NONE', #634, #7 ) ;
#468 = ORIENTED_EDGE ( 'NONE', *, *, #404, .T. ) ;
#469 = VECTOR ( 'NONE', #229, 39.37007874015748143 ) ;
#470 = CARTESIAN_POINT ( 'NONE',  ( -1.417322834645669216, 0.4724409448818898127, -0.9055118110236221041 ) ) ;
#471 = DIRECTION ( 'NONE',  ( 0.000000000000000000, 0.000000000000000000, 1.000000000000000000 ) ) ;
#472 = EDGE_LOOP ( 'NONE', ( #207, #532, #294, #179 ) ) ;
#473 = CARTESIAN_POINT ( 'NONE',  ( 3.307086614173228689, 0.4724409448818898127, -1.377952755905512028 ) ) ;
#474 = CLOSED_SHELL ( 'NONE', ( #253, #531, #377, #591, #638, #258, #581, #423, #43, #561, #124, #664, #517, #398, #103, #282, #228, #488 ) ) ;
#475 = LINE ( 'NONE', #524, #466 ) ;
#476 = CARTESIAN_POINT ( 'NONE',  ( -1.417322834645669216, 0.000000000000000000, 0.9055118110236221041 ) ) ;
#477 = DIRECTION ( 'NONE',  ( 0.000000000000000000, 0.000000000000000000, 1.000000000000000000 ) ) ;
#478 = ORIENTED_EDGE ( 'NONE', *, *, #56, .T. ) ;
#479 = EDGE_CURVE ( 'NONE', #249, #198, #252, .T. ) ;
#480 = CARTESIAN_POINT ( 'NONE',  ( -2.755905511811024056, 0.4724409448818898127, 0.9055118110236221041 ) ) ;
#481 = DESIGN_CONTEXT ( 'detailed design', #637, 'design' ) ;
#482 = AXIS2_PLACEMENT_3D ( 'NONE', #321, #461, #16 ) ;
#483 = VERTEX_POINT ( 'NONE', #108 ) ;
#484 = FACE_BOUND ( 'NONE', #29, .T. ) ;
#485 = VERTEX_POINT ( 'NONE', #575 ) ;
#486 = CC_DESIGN_PERSON_AND_ORGANIZATION_ASSIGNMENT ( #352, #192, ( #62 ) ) ;
#487 = LINE ( 'NONE', #642, #535 ) ;
#488 = ADVANCED_FACE ( 'NONE', ( #383 ), #112, .F. ) ;
#489 = ORIENTED_EDGE ( 'NONE', *, *, #490, .F. ) ;
#490 = EDGE_CURVE ( 'NONE', #82, #322, #467, .T. ) ;
#491 = CARTESIAN_POINT ( 'NONE',  ( -3.307086614173228689, 0.4724409448818898127, -1.377952755905512028 ) ) ;
#492 = CARTESIAN_POINT ( 'NONE',  ( -2.755905511811024056, 0.4724409448818898127, 0.9055118110236221041 ) ) ;
#493 = VECTOR ( 'NONE', #302, 39.37007874015748143 ) ;
#494 = EDGE_LOOP ( 'NONE', ( #159, #61, #588, #304 ) ) ;
#495 = APPLICATION_PROTOCOL_DEFINITION ( 'international standard', 'config_control_design', 1994, #637 ) ;
#496 = LINE ( 'NONE', #115, #436 ) ;
#497 = ORIENTED_EDGE ( 'NONE', *, *, #63, .T. ) ;
#498 = CALENDAR_DATE ( 2026, 10, 8 ) ;
#499 = CARTESIAN_POINT ( 'NONE',  ( 2.755905511811024056, 0.000000000000000000, 0.9055118110236221041 ) ) ;
#500 = CIRCLE ( 'NONE', #641, 0.1673228346456694382 ) ;
#501 = VERTEX_POINT ( 'NONE', #318 ) ;
#502 = PERSON_AND_ORGANIZATION ( #27, #577 ) ;
#503 = DIRECTION ( 'NONE',  ( 0.000000000000000000, 0.000000000000000000, -1.000000000000000000 ) ) ;
#504 = AXIS2_PLACEMENT_3D ( 'NONE', #536, #71, #83 ) ;
#505 = ORIENTED_EDGE ( 'NONE', *, *, #660, .T. ) ;
#506 = CARTESIAN_POINT ( 'NONE',  ( -1.417322834645669216, 0.4724409448818898127, 0.9055118110236221041 ) ) ;
#507 = EDGE_CURVE ( 'NONE', #605, #453, #338, .T. ) ;
#508 = ORIENTED_EDGE ( 'NONE', *, *, #63, .F. ) ;
#509 = DATE_AND_TIME ( #347, #138 ) ;
#510 = CARTESIAN_POINT ( 'NONE',  ( 2.755905511811024056, 0.4724409448818898127, -0.9055118110236221041 ) ) ;
#511 = VERTEX_POINT ( 'NONE', #5 ) ;
#512 = CARTESIAN_POINT ( 'NONE',  ( 3.307086614173228689, 0.000000000000000000, 1.377952755905512028 ) ) ;
#513 = LOCAL_TIME ( 1, 38, 37.00000000000000000, #667 ) ;
#514 = LINE ( 'NONE', #274, #33 ) ;
#515 = VECTOR ( 'NONE', #624, 39.37007874015748143 ) ;
#516 = DIRECTION ( 'NONE',  ( 0.000000000000000000, 0.000000000000000000, 1.000000000000000000 ) ) ;
#517 = ADVANCED_FACE ( 'NONE', ( #261 ), #629, .T. ) ;
#518 = ORIENTED_EDGE ( 'NONE', *, *, #441, .T. ) ;
#519 = DIRECTION ( 'NONE',  ( 0.000000000000000000, 0.000000000000000000, -1.000000000000000000 ) ) ;
#520 = EDGE_CURVE ( 'NONE', #613, #483, #216, .T. ) ;
#521 = VERTEX_POINT ( 'NONE', #636 ) ;
#522 = CIRCLE ( 'NONE', #237, 0.1673228346456694382 ) ;
#523 = DIRECTION ( 'NONE',  ( 0.000000000000000000, 1.000000000000000000, 0.000000000000000000 ) ) ;
#524 = CARTESIAN_POINT ( 'NONE',  ( 3.307086614173228689, 0.4724409448818898127, -1.377952755905512028 ) ) ;
#525 = EDGE_LOOP ( 'NONE', ( #331, #150, #184, #643 ) ) ;
#526 = APPROVAL ( #211, 'UNSPECIFIED' ) ;
#527 = FACE_OUTER_BOUND ( 'NONE', #346, .T. ) ;
#528 = LINE ( 'NONE', #218, #334 ) ;
#529 = DIRECTION ( 'NONE',  ( 0.000000000000000000, 0.000000000000000000, 1.000000000000000000 ) ) ;
#530 = DIRECTION ( 'NONE',  ( 1.000000000000000000, -0.000000000000000000, 0.000000000000000000 ) ) ;
#531 = ADVANCED_FACE ( 'NONE', ( #289 ), #586, .F. ) ;
#532 = ORIENTED_EDGE ( 'NONE', *, *, #551, .T. ) ;
#533 = FACE_OUTER_BOUND ( 'NONE', #456, .T. ) ;
#534 = ORIENTED_EDGE ( 'NONE', *, *, #309, .T. ) ;
#535 = VECTOR ( 'NONE', #180, 39.37007874015748143 ) ;
#536 = CARTESIAN_POINT ( 'NONE',  ( -3.307086614173228689, 0.4724409448818898127, 1.377952755905512028 ) ) ;
#537 = EDGE_CURVE ( 'NONE', #501, #613, #639, .T. ) ;
#538 = VECTOR ( 'NONE', #158, 39.37007874015748143 ) ;
#539 = DIRECTION ( 'NONE',  ( 0.000000000000000000, 0.000000000000000000, 1.000000000000000000 ) ) ;
#540 = VERTEX_POINT ( 'NONE', #280 ) ;
#541 = CARTESIAN_POINT ( 'NONE',  ( -2.755905511811024056, 0.000000000000000000, 0.7381889763779526659 ) ) ;
#542 = DIRECTION ( 'NONE',  ( 0.000000000000000000, 0.000000000000000000, 1.000000000000000000 ) ) ;
#543 = EDGE_LOOP ( 'NONE', ( #8, #489, #564, #369 ) ) ;
#544 = LENGTH_MEASURE_WITH_UNIT ( LENGTH_MEASURE( 0.02539999999999999897 ), #407 );
#545 = DIRECTION ( 'NONE',  ( -0.000000000000000000, -1.000000000000000000, -0.000000000000000000 ) ) ;
#546 = AXIS2_PLACEMENT_3D ( 'NONE', #499, #199, #97 ) ;
#547 = VERTEX_POINT ( 'NONE', #491 ) ;
#548 = APPROVAL_ROLE ( '' ) ;
#549 = DIRECTION ( 'NONE',  ( -0.000000000000000000, -0.000000000000000000, 1.000000000000000000 ) ) ;
#550 = ORIENTED_EDGE ( 'NONE', *, *, #603, .F. ) ;
#551 = EDGE_CURVE ( 'NONE', #231, #511, #487, .T. ) ;
#552 = CARTESIAN_POINT ( 'NONE',  ( 0.000000000000000000, 0.000000000000000000, 0.000000000000000000 ) ) ;
#553 = VECTOR ( 'NONE', #582, 39.37007874015748143 ) ;
#554 = ORIENTED_EDGE ( 'NONE', *, *, #91, .T. ) ;
#555 = PERSON_AND_ORGANIZATION_ROLE ( 'design_supplier' ) ;
#556 = EDGE_CURVE ( 'NONE', #521, #69, #80, .T. ) ;
#557 = CARTESIAN_POINT ( 'NONE',  ( -1.417322834645669216, 0.4724409448818898127, -0.9055118110236221041 ) ) ;
#558 = APPROVAL_PERSON_ORGANIZATION ( #45, #210, #548 ) ;
#559 = AXIS2_PLACEMENT_3D ( 'NONE', #336, #277, #344 ) ;
#560 = ORIENTED_EDGE ( 'NONE', *, *, #2, .F. ) ;
#561 = ADVANCED_FACE ( 'NONE', ( #128 ), #443, .F. ) ;
#562 = PERSON_AND_ORGANIZATION ( #27, #577 ) ;
#563 = DIRECTION ( 'NONE',  ( 0.000000000000000000, 0.000000000000000000, -1.000000000000000000 ) ) ;
#564 = ORIENTED_EDGE ( 'NONE', *, *, #35, .F. ) ;
#565 = CARTESIAN_POINT ( 'NONE',  ( 2.755905511811024056, 0.4724409448818898127, -1.072834645669291431 ) ) ;
#566 = DIRECTION ( 'NONE',  ( -0.000000000000000000, -1.000000000000000000, -0.000000000000000000 ) ) ;
#567 = CARTESIAN_POINT ( 'NONE',  ( 2.755905511811024056, 0.4724409448818898127, -0.9055118110236221041 ) ) ;
#568 = ORIENTED_EDGE ( 'NONE', *, *, #303, .F. ) ;
#569 = VECTOR ( 'NONE', #361, 39.37007874015748143 ) ;
#570 = DIRECTION ( 'NONE',  ( 0.000000000000000000, 1.000000000000000000, 0.000000000000000000 ) ) ;
#571 = ORIENTED_EDGE ( 'NONE', *, *, #81, .T. ) ;
#572 = SHAPE_DEFINITION_REPRESENTATION ( #300, #66 ) ;
#573 = CARTESIAN_POINT ( 'NONE',  ( -1.417322834645669216, 0.000000000000000000, 0.9055118110236221041 ) ) ;
#574 = CARTESIAN_POINT ( 'NONE',  ( 2.755905511811024056, 0.4724409448818898127, 0.7381889763779526659 ) ) ;
#575 = CARTESIAN_POINT ( 'NONE',  ( 2.755905511811024056, 0.4724409448818898127, 1.072834645669291431 ) ) ;
#576 = CARTESIAN_POINT ( 'NONE',  ( -3.307086614173228689, 0.4724409448818898127, 1.377952755905512028 ) ) ;
#577 = ORGANIZATION ( 'UNSPECIFIED', 'UNSPECIFIED', '' ) ;
#578 = EDGE_LOOP ( 'NONE', ( #25, #438 ) ) ;
#579 = CARTESIAN_POINT ( 'NONE',  ( -3.307086614173228689, 0.4724409448818898127, 1.377952755905512028 ) ) ;
#580 = AXIS2_PLACEMENT_3D ( 'NONE', #455, #353, #503 ) ;
#581 = ADVANCED_FACE ( 'NONE', ( #533 ), #596, .F. ) ;
#582 = DIRECTION ( 'NONE',  ( -0.000000000000000000, -1.000000000000000000, -0.000000000000000000 ) ) ;
#583 = ORIENTED_EDGE ( 'NONE', *, *, #479, .F. ) ;
#584 = CARTESIAN_POINT ( 'NONE',  ( -1.417322834645669216, 0.000000000000000000, 0.9055118110236221041 ) ) ;
#585 = VECTOR ( 'NONE', #87, 39.37007874015748143 ) ;
#586 = CYLINDRICAL_SURFACE ( 'NONE', #127, 0.1673228346456694382 ) ;
#587 = EDGE_CURVE ( 'NONE', #540, #659, #217, .T. ) ;
#588 = ORIENTED_EDGE ( 'NONE', *, *, #175, .F. ) ;
#589 = CIRCLE ( 'NONE', #392, 0.1673228346456694382 ) ;
#590 = DIRECTION ( 'NONE',  ( 0.000000000000000000, 0.000000000000000000, 1.000000000000000000 ) ) ;
#591 = ADVANCED_FACE ( 'NONE', ( #397 ), #131, .F. ) ;
#592 = ORIENTED_EDGE ( 'NONE', *, *, #9, .F. ) ;
#593 = CARTESIAN_POINT ( 'NONE',  ( -2.755905511811024056, 0.4724409448818898127, 0.7381889763779526659 ) ) ;
#594 = CARTESIAN_POINT ( 'NONE',  ( 2.755905511811024056, 0.4724409448818898127, 1.072834645669291431 ) ) ;
#595 = ORIENTED_EDGE ( 'NONE', *, *, #11, .T. ) ;
#596 = PLANE ( 'NONE',  #504 ) ;
#597 = DIRECTION ( 'NONE',  ( -1.000000000000000000, -0.000000000000000000, -0.000000000000000000 ) ) ;
#598 = UNCERTAINTY_MEASURE_WITH_UNIT (LENGTH_MEASURE( 1.000000000000000082E-05 ), #307, 'distance_accuracy_value', 'NONE');
#599 = ORIENTED_EDGE ( 'NONE', *, *, #35, .T. ) ;
#600 = DIRECTION ( 'NONE',  ( 1.000000000000000000, 0.000000000000000000, 0.000000000000000000 ) ) ;
#601 = SECURITY_CLASSIFICATION ( '', '', #96 ) ;
#602 = CARTESIAN_POINT ( 'NONE',  ( -3.307086614173228689, 0.000000000000000000, 1.377952755905512028 ) ) ;
#603 = EDGE_CURVE ( 'NONE', #288, #231, #76, .T. ) ;
#604 = VECTOR ( 'NONE', #248, 39.37007874015748143 ) ;
#605 = VERTEX_POINT ( 'NONE', #541 ) ;
#606 = DATE_AND_TIME ( #311, #305 ) ;
#607 = LINE ( 'NONE', #245, #569 ) ;
#608 = EDGE_LOOP ( 'NONE', ( #134, #3, #592, #595 ) ) ;
#609 = CARTESIAN_POINT ( 'NONE',  ( 0.000000000000000000, 0.000000000000000000, 0.000000000000000000 ) ) ;
#610 = FACE_BOUND ( 'NONE', #137, .T. ) ;
#611 = CC_DESIGN_PERSON_AND_ORGANIZATION_ASSIGNMENT ( #195, #48, ( #355 ) ) ;
#612 = VECTOR ( 'NONE', #545, 39.37007874015748143 ) ;
#613 = VERTEX_POINT ( 'NONE', #476 ) ;
#614 = FACE_OUTER_BOUND ( 'NONE', #525, .T. ) ;
#615 = CARTESIAN_POINT ( 'NONE',  ( 2.755905511811024056, 0.000000000000000000, -0.7381889763779526659 ) ) ;
#616 = EDGE_CURVE ( 'NONE', #483, #350, #174, .T. ) ;
#617 = DIRECTION ( 'NONE',  ( 1.000000000000000000, 0.000000000000000000, 0.000000000000000000 ) ) ;
#618 = APPLICATION_CONTEXT ( 'configuration controlled 3d designs of mechanical parts and assemblies' ) ;
#619 = COORDINATED_UNIVERSAL_TIME_OFFSET ( 1, 0, .AHEAD. ) ;
#620 = CARTESIAN_POINT ( 'NONE',  ( -2.755905511811024056, 0.4724409448818898127, -1.072834645669291431 ) ) ;
#621 = ORIENTED_EDGE ( 'NONE', *, *, #109, .T. ) ;
#622 = LINE ( 'NONE', #579, #515 ) ;
#623 = EDGE_LOOP ( 'NONE', ( #374, #468, #310, #568 ) ) ;
#624 = DIRECTION ( 'NONE',  ( -0.000000000000000000, -1.000000000000000000, -0.000000000000000000 ) ) ;
#625 = CC_DESIGN_APPROVAL ( #160, ( #62 ) ) ;
#626 = AXIS2_PLACEMENT_3D ( 'NONE', #208, #417, #516 ) ;
#627 = ORIENTED_EDGE ( 'NONE', *, *, #587, .F. ) ;
#628 = AXIS2_PLACEMENT_3D ( 'NONE', #424, #570, #220 ) ;
#629 = PLANE ( 'NONE',  #626 ) ;
#630 = DIRECTION ( 'NONE',  ( 0.000000000000000000, 0.000000000000000000, -1.000000000000000000 ) ) ;
#631 = EDGE_CURVE ( 'NONE', #106, #326, #24, .T. ) ;
#632 = DIRECTION ( 'NONE',  ( -1.000000000000000000, -0.000000000000000000, -0.000000000000000000 ) ) ;
#633 = CARTESIAN_POINT ( 'NONE',  ( 2.755905511811024056, 0.000000000000000000, -1.072834645669291431 ) ) ;
#634 = CARTESIAN_POINT ( 'NONE',  ( -1.417322834645669216, 0.4724409448818898127, -0.9055118110236221041 ) ) ;
#635 = CYLINDRICAL_SURFACE ( 'NONE', #123, 0.1673228346456694382 ) ;
#636 = CARTESIAN_POINT ( 'NONE',  ( -3.307086614173228689, 0.4724409448818898127, 1.377952755905512028 ) ) ;
#637 = APPLICATION_CONTEXT ( 'configuration controlled 3d designs of mechanical parts and assemblies' ) ;
#638 = ADVANCED_FACE ( 'NONE', ( #122, #645, #484, #26, #287, #22 ), #236, .F. ) ;
#639 = LINE ( 'NONE', #584, #162 ) ;
#640 = ORIENTED_EDGE ( 'NONE', *, *, #181, .T. ) ;
#641 = AXIS2_PLACEMENT_3D ( 'NONE', #426, #278, #477 ) ;
#642 = CARTESIAN_POINT ( 'NONE',  ( -2.755905511811024056, 0.4724409448818898127, -0.7381889763779526659 ) ) ;
#643 = ORIENTED_EDGE ( 'NONE', *, *, #295, .T. ) ;
#644 = AXIS2_PLACEMENT_3D ( 'NONE', #480, #389, #329 ) ;
#645 = FACE_BOUND ( 'NONE', #543, .T. ) ;
#646 = DIRECTION ( 'NONE',  ( -0.000000000000000000, -1.000000000000000000, -0.000000000000000000 ) ) ;
#647 = CC_DESIGN_PERSON_AND_ORGANIZATION_ASSIGNMENT ( #562, #201, ( #601 ) ) ;
#648 = ORIENTED_EDGE ( 'NONE', *, *, #129, .F. ) ;
#649 = DIRECTION ( 'NONE',  ( 0.000000000000000000, 1.000000000000000000, 0.000000000000000000 ) ) ;
#650 = CARTESIAN_POINT ( 'NONE',  ( -3.307086614173228689, 0.4724409448818898127, -1.377952755905512028 ) ) ;
#651 = ORIENTED_EDGE ( 'NONE', *, *, #175, .T. ) ;
#652 = EDGE_CURVE ( 'NONE', #464, #511, #656, .T. ) ;
#653 = FACE_OUTER_BOUND ( 'NONE', #79, .T. ) ;
#654 = ORIENTED_EDGE ( 'NONE', *, *, #2, .T. ) ;
#655 = APPLICATION_PROTOCOL_DEFINITION ( 'international standard', 'config_control_design', 1994, #618 ) ;
#656 = CIRCLE ( 'NONE', #371, 0.1673228346456694382 ) ;
#657 = DIRECTION ( 'NONE',  ( 0.000000000000000000, 0.000000000000000000, 1.000000000000000000 ) ) ;
#658 = CIRCLE ( 'NONE', #21, 0.1673228346456694382 ) ;
#659 = VERTEX_POINT ( 'NONE', #593 ) ;
#660 = EDGE_CURVE ( 'NONE', #511, #464, #589, .T. ) ;
#661 = APPROVAL_STATUS ( 'not_yet_approved' ) ;
#662 = PLANE ( 'NONE',  #116 ) ;
#663 = VERTEX_POINT ( 'NONE', #242 ) ;
#664 = ADVANCED_FACE ( 'NONE', ( #614 ), #401, .T. ) ;
#665 = CARTESIAN_POINT ( 'NONE',  ( 3.307086614173228689, 0.000000000000000000, 1.377952755905512028 ) ) ;
#666 = ORIENTED_EDGE ( 'NONE', *, *, #109, .F. ) ;
#667 = COORDINATED_UNIVERSAL_TIME_OFFSET ( 1, 0, .AHEAD. ) ;
#668 = FACE_BOUND ( 'NONE', #578, .T. ) ;
#669 = CC_DESIGN_APPROVAL ( #210, ( #53 ) ) ;
#670 = VERTEX_POINT ( 'NONE', #146 ) ;
#671 = CARTESIAN_POINT ( 'NONE',  ( -2.755905511811024056, 0.000000000000000000, 0.9055118110236221041 ) ) ;
#672 = DIRECTION ( 'NONE',  ( -0.000000000000000000, -1.000000000000000000, -0.000000000000000000 ) ) ;
ENDSEC;
END-ISO-10303-21;
