ISO-10303-21;
HEADER;
FILE_DESCRIPTION (( 'STEP AP203' ),
    '1' );
FILE_NAME ('12_Valve_Clamp_63mm.STEP',
    '2026-08-10T00:38:40',
    ( '' ),
    ( '' ),
    'SwSTEP 2.0',
    'SolidWorks 2026',
    '' );
FILE_SCHEMA (( 'CONFIG_CONTROL_DESIGN' ));
ENDSEC;

DATA;
#1 = EDGE_LOOP ( 'NONE', ( #276, #533, #29, #59 ) ) ;
#2 = AXIS2_PLACEMENT_3D ( 'NONE', #135, #86, #227 ) ;
#3 = DIRECTION ( 'NONE',  ( -0.000000000000000000, -1.000000000000000000, -0.000000000000000000 ) ) ;
#4 = ORIENTED_EDGE ( 'NONE', *, *, #618, .T. ) ;
#5 = DIRECTION ( 'NONE',  ( 0.000000000000000000, 0.000000000000000000, -1.000000000000000000 ) ) ;
#6 = FACE_OUTER_BOUND ( 'NONE', #1, .T. ) ;
#7 = APPROVAL ( #327, 'UNSPECIFIED' ) ;
#8 = ORIENTED_EDGE ( 'NONE', *, *, #207, .T. ) ;
#9 = PERSON_AND_ORGANIZATION_ROLE ( 'design_owner' ) ;
#10 = CARTESIAN_POINT ( 'NONE',  ( 2.755905511811024056, 0.4724409448818898127, -0.9055118110236221041 ) ) ;
#11 = ORIENTED_EDGE ( 'NONE', *, *, #426, .T. ) ;
#12 = APPLICATION_PROTOCOL_DEFINITION ( 'international standard', 'config_control_design', 1994, #13 ) ;
#13 = APPLICATION_CONTEXT ( 'configuration controlled 3d designs of mechanical parts and assemblies' ) ;
#14 = DIRECTION ( 'NONE',  ( 0.000000000000000000, 1.000000000000000000, 0.000000000000000000 ) ) ;
#15 = ORIENTED_EDGE ( 'NONE', *, *, #658, .F. ) ;
#16 = DIRECTION ( 'NONE',  ( 0.000000000000000000, 1.000000000000000000, 0.000000000000000000 ) ) ;
#17 = FACE_BOUND ( 'NONE', #212, .T. ) ;
#18 = EDGE_LOOP ( 'NONE', ( #635, #71 ) ) ;
#19 = EDGE_CURVE ( 'NONE', #119, #469, #497, .T. ) ;
#20 = EDGE_CURVE ( 'NONE', #366, #515, #286, .T. ) ;
#21 = CARTESIAN_POINT ( 'NONE',  ( 2.755905511811024056, 0.4724409448818898127, -1.072834645669291431 ) ) ;
#22 = ORIENTED_EDGE ( 'NONE', *, *, #112, .F. ) ;
#23 =( LENGTH_UNIT ( ) NAMED_UNIT ( * ) SI_UNIT ( $, .METRE. ) );
#24 = PLANE ( 'NONE',  #253 ) ;
#25 = ORIENTED_EDGE ( 'NONE', *, *, #20, .T. ) ;
#26 = VECTOR ( 'NONE', #278, 39.37007874015748143 ) ;
#27 = VECTOR ( 'NONE', #505, 39.37007874015748143 ) ;
#28 = CARTESIAN_POINT ( 'NONE',  ( 3.307086614173228689, 0.4724409448818898127, 1.377952755905512028 ) ) ;
#29 = ORIENTED_EDGE ( 'NONE', *, *, #297, .F. ) ;
#30 = LINE ( 'NONE', #239, #203 ) ;
#31 = CARTESIAN_POINT ( 'NONE',  ( 1.732283464566929165, 0.4724409448818898127, -0.9055118110236221041 ) ) ;
#32 = DIRECTION ( 'NONE',  ( 0.000000000000000000, 0.000000000000000000, 1.000000000000000000 ) ) ;
#33 = EDGE_LOOP ( 'NONE', ( #577, #123, #270, #599 ) ) ;
#34 = CALENDAR_DATE ( 2026, 10, 8 ) ;
#35 = DIRECTION ( 'NONE',  ( 0.000000000000000000, 1.000000000000000000, 0.000000000000000000 ) ) ;
#36 = CARTESIAN_POINT ( 'NONE',  ( -3.307086614173228689, 0.4724409448818898127, -1.377952755905512028 ) ) ;
#37 = EDGE_CURVE ( 'NONE', #224, #479, #230, .T. ) ;
#38 = DIRECTION ( 'NONE',  ( 0.000000000000000000, 0.000000000000000000, 1.000000000000000000 ) ) ;
#39 = LINE ( 'NONE', #410, #313 ) ;
#40 = VERTEX_POINT ( 'NONE', #544 ) ;
#41 = FACE_OUTER_BOUND ( 'NONE', #334, .T. ) ;
#42 = PRODUCT_DEFINITION_FORMATION_WITH_SPECIFIED_SOURCE ( 'ANY', '', #124, .NOT_KNOWN. ) ;
#43 = CARTESIAN_POINT ( 'NONE',  ( 1.732283464566929165, 0.4724409448818898127, 0.9055118110236221041 ) ) ;
#44 = ORIENTED_EDGE ( 'NONE', *, *, #189, .F. ) ;
#45 = EDGE_CURVE ( 'NONE', #385, #290, #602, .T. ) ;
#46 = DIRECTION ( 'NONE',  ( -0.000000000000000000, -1.000000000000000000, -0.000000000000000000 ) ) ;
#47 = EDGE_CURVE ( 'NONE', #486, #647, #187, .T. ) ;
#48 = AXIS2_PLACEMENT_3D ( 'NONE', #245, #445, #665 ) ;
#49 = ORIENTED_EDGE ( 'NONE', *, *, #549, .T. ) ;
#50 = CARTESIAN_POINT ( 'NONE',  ( 2.755905511811024056, 0.4724409448818898127, 0.7381889763779526659 ) ) ;
#51 = EDGE_LOOP ( 'NONE', ( #564, #68, #360, #138 ) ) ;
#52 = DIRECTION ( 'NONE',  ( 0.000000000000000000, 1.000000000000000000, 0.000000000000000000 ) ) ;
#53 = CIRCLE ( 'NONE', #455, 0.1673228346456694382 ) ;
#54 = VERTEX_POINT ( 'NONE', #506 ) ;
#55 = DIRECTION ( 'NONE',  ( 0.000000000000000000, 0.000000000000000000, -1.000000000000000000 ) ) ;
#56 = PRODUCT_DEFINITION ( 'UNKNOWN', '', #42, #231 ) ;
#57 = CIRCLE ( 'NONE', #576, 0.1673228346456694382 ) ;
#58 = DIRECTION ( 'NONE',  ( 0.000000000000000000, 0.000000000000000000, 1.000000000000000000 ) ) ;
#59 = ORIENTED_EDGE ( 'NONE', *, *, #318, .F. ) ;
#60 = VECTOR ( 'NONE', #161, 39.37007874015748143 ) ;
#61 = CARTESIAN_POINT ( 'NONE',  ( 2.755905511811024056, 0.000000000000000000, 0.7381889763779526659 ) ) ;
#62 = CIRCLE ( 'NONE', #356, 0.1673228346456694382 ) ;
#63 = FACE_BOUND ( 'NONE', #18, .T. ) ;
#64 = ORIENTED_EDGE ( 'NONE', *, *, #134, .F. ) ;
#65 = VECTOR ( 'NONE', #422, 39.37007874015748143 ) ;
#66 = DIRECTION ( 'NONE',  ( 0.000000000000000000, -1.000000000000000000, 0.000000000000000000 ) ) ;
#67 = VECTOR ( 'NONE', #529, 39.37007874015748143 ) ;
#68 = ORIENTED_EDGE ( 'NONE', *, *, #670, .T. ) ;
#69 = CARTESIAN_POINT ( 'NONE',  ( 0.000000000000000000, 0.000000000000000000, 0.000000000000000000 ) ) ;
#70 = DIRECTION ( 'NONE',  ( -0.000000000000000000, -1.000000000000000000, -0.000000000000000000 ) ) ;
#71 = ORIENTED_EDGE ( 'NONE', *, *, #595, .T. ) ;
#72 = ADVANCED_FACE ( 'NONE', ( #411 ), #99, .F. ) ;
#73 = CARTESIAN_POINT ( 'NONE',  ( -1.732283464566929165, 0.4724409448818898127, 0.9055118110236221041 ) ) ;
#74 = ORIENTED_EDGE ( 'NONE', *, *, #222, .F. ) ;
#75 = DIRECTION ( 'NONE',  ( 0.000000000000000000, 0.000000000000000000, 1.000000000000000000 ) ) ;
#76 = FACE_OUTER_BOUND ( 'NONE', #236, .T. ) ;
#77 = VERTEX_POINT ( 'NONE', #50 ) ;
#78 = SECURITY_CLASSIFICATION ( '', '', #632 ) ;
#79 = EDGE_CURVE ( 'NONE', #452, #479, #247, .T. ) ;
#80 = DIRECTION ( 'NONE',  ( 0.000000000000000000, 0.000000000000000000, 1.000000000000000000 ) ) ;
#81 = VERTEX_POINT ( 'NONE', #243 ) ;
#82 = CIRCLE ( 'NONE', #340, 0.1673228346456694382 ) ;
#83 = CARTESIAN_POINT ( 'NONE',  ( -2.755905511811024056, 0.4724409448818898127, 0.7381889763779526659 ) ) ;
#84 = ORIENTED_EDGE ( 'NONE', *, *, #222, .T. ) ;
#85 = VECTOR ( 'NONE', #337, 39.37007874015748143 ) ;
#86 = DIRECTION ( 'NONE',  ( 0.000000000000000000, 1.000000000000000000, 0.000000000000000000 ) ) ;
#87 = ORIENTED_EDGE ( 'NONE', *, *, #361, .T. ) ;
#88 = AXIS2_PLACEMENT_3D ( 'NONE', #562, #522, #55 ) ;
#89 = FACE_OUTER_BOUND ( 'NONE', #251, .T. ) ;
#90 = LINE ( 'NONE', #403, #233 ) ;
#91 = AXIS2_PLACEMENT_3D ( 'NONE', #137, #32, #596 ) ;
#92 = CARTESIAN_POINT ( 'NONE',  ( -3.307086614173228689, 0.4724409448818898127, 1.377952755905512028 ) ) ;
#93 = CARTESIAN_POINT ( 'NONE',  ( -2.755905511811024056, 0.000000000000000000, -0.7381889763779526659 ) ) ;
#94 = CARTESIAN_POINT ( 'NONE',  ( -1.732283464566929165, 0.4724409448818898127, -0.9055118110236221041 ) ) ;
#95 = FACE_OUTER_BOUND ( 'NONE', #209, .T. ) ;
#96 = ORIENTED_EDGE ( 'NONE', *, *, #112, .T. ) ;
#97 = EDGE_CURVE ( 'NONE', #127, #366, #451, .T. ) ;
#98 = AXIS2_PLACEMENT_3D ( 'NONE', #532, #378, #534 ) ;
#99 = PLANE ( 'NONE',  #581 ) ;
#100 = ORIENTED_EDGE ( 'NONE', *, *, #79, .T. ) ;
#101 = LINE ( 'NONE', #306, #142 ) ;
#102 = ORIENTED_EDGE ( 'NONE', *, *, #436, .T. ) ;
#103 = CYLINDRICAL_SURFACE ( 'NONE', #525, 0.1673228346456694382 ) ;
#104 = ORIENTED_EDGE ( 'NONE', *, *, #47, .F. ) ;
#105 = CC_DESIGN_PERSON_AND_ORGANIZATION_ASSIGNMENT ( #433, #335, ( #42 ) ) ;
#106 = CYLINDRICAL_SURFACE ( 'NONE', #88, 0.1673228346456694382 ) ;
#107 = DIMENSIONAL_EXPONENTS ( 1.000000000000000000, 0.000000000000000000, 0.000000000000000000, 0.000000000000000000, 0.000000000000000000, 0.000000000000000000, 0.000000000000000000 ) ;
#108 = CARTESIAN_POINT ( 'NONE',  ( -2.755905511811024056, 0.4724409448818898127, 0.9055118110236221041 ) ) ;
#109 = VECTOR ( 'NONE', #583, 39.37007874015748143 ) ;
#110 = ORIENTED_EDGE ( 'NONE', *, *, #318, .T. ) ;
#111 = FACE_OUTER_BOUND ( 'NONE', #33, .T. ) ;
#112 = EDGE_CURVE ( 'NONE', #174, #290, #62, .T. ) ;
#113 = AXIS2_PLACEMENT_3D ( 'NONE', #265, #625, #374 ) ;
#114 = DIRECTION ( 'NONE',  ( 0.000000000000000000, 0.000000000000000000, 1.000000000000000000 ) ) ;
#115 = VERTEX_POINT ( 'NONE', #463 ) ;
#116 = APPROVAL_DATE_TIME ( #380, #7 ) ;
#117 = VECTOR ( 'NONE', #619, 39.37007874015748143 ) ;
#118 = DIRECTION ( 'NONE',  ( -0.000000000000000000, -1.000000000000000000, -0.000000000000000000 ) ) ;
#119 = VERTEX_POINT ( 'NONE', #303 ) ;
#120 = EDGE_CURVE ( 'NONE', #469, #616, #193, .T. ) ;
#121 = FACE_BOUND ( 'NONE', #191, .T. ) ;
#122 = ADVANCED_FACE ( 'NONE', ( #512 ), #362, .T. ) ;
#123 = ORIENTED_EDGE ( 'NONE', *, *, #448, .F. ) ;
#124 = PRODUCT ( '12_Valve_Clamp_63mm', '12_Valve_Clamp_63mm', '', ( #389 ) ) ;
#125 = APPROVAL_ROLE ( '' ) ;
#126 = LINE ( 'NONE', #73, #288 ) ;
#127 = VERTEX_POINT ( 'NONE', #196 ) ;
#128 = PERSON_AND_ORGANIZATION_ROLE ( 'creator' ) ;
#129 = CARTESIAN_POINT ( 'NONE',  ( 2.755905511811024056, 0.000000000000000000, 0.9055118110236221041 ) ) ;
#130 = VERTEX_POINT ( 'NONE', #150 ) ;
#131 = CC_DESIGN_DATE_AND_TIME_ASSIGNMENT ( #636, #280, ( #56 ) ) ;
#132 = FACE_OUTER_BOUND ( 'NONE', #464, .T. ) ;
#133 = ORIENTED_EDGE ( 'NONE', *, *, #426, .F. ) ;
#134 = EDGE_CURVE ( 'NONE', #437, #515, #90, .T. ) ;
#135 = CARTESIAN_POINT ( 'NONE',  ( 2.755905511811024056, 0.4724409448818898127, 0.9055118110236221041 ) ) ;
#136 = DIRECTION ( 'NONE',  ( 0.000000000000000000, 0.000000000000000000, 1.000000000000000000 ) ) ;
#137 = CARTESIAN_POINT ( 'NONE',  ( -1.732283464566929165, 0.4724409448818898127, -0.9055118110236221041 ) ) ;
#138 = ORIENTED_EDGE ( 'NONE', *, *, #352, .F. ) ;
#139 = CARTESIAN_POINT ( 'NONE',  ( -2.755905511811024056, 0.4724409448818898127, 0.9055118110236221041 ) ) ;
#140 = ADVANCED_FACE ( 'NONE', ( #95 ), #672, .F. ) ;
#141 = ORIENTED_EDGE ( 'NONE', *, *, #413, .F. ) ;
#142 = VECTOR ( 'NONE', #254, 39.37007874015748143 ) ;
#143 = LOCAL_TIME ( 1, 38, 40.00000000000000000, #386 ) ;
#144 = CARTESIAN_POINT ( 'NONE',  ( -3.307086614173228689, 0.4724409448818898127, 1.377952755905512028 ) ) ;
#145 = DIRECTION ( 'NONE',  ( -0.000000000000000000, -0.000000000000000000, 1.000000000000000000 ) ) ;
#146 = ORIENTED_EDGE ( 'NONE', *, *, #523, .F. ) ;
#147 = AXIS2_PLACEMENT_3D ( 'NONE', #28, #442, #336 ) ;
#148 = CARTESIAN_POINT ( 'NONE',  ( -2.755905511811024056, 0.4724409448818898127, 0.9055118110236221041 ) ) ;
#149 = CIRCLE ( 'NONE', #201, 0.1673228346456694382 ) ;
#150 = CARTESIAN_POINT ( 'NONE',  ( 3.307086614173228689, 0.000000000000000000, 1.377952755905512028 ) ) ;
#151 = EDGE_CURVE ( 'NONE', #81, #437, #101, .T. ) ;
#152 = DIRECTION ( 'NONE',  ( 1.000000000000000000, 0.000000000000000000, 0.000000000000000000 ) ) ;
#153 = FACE_OUTER_BOUND ( 'NONE', #163, .T. ) ;
#154 = ORIENTED_EDGE ( 'NONE', *, *, #79, .F. ) ;
#155 = AXIS2_PLACEMENT_3D ( 'NONE', #208, #162, #114 ) ;
#156 = DIRECTION ( 'NONE',  ( 0.000000000000000000, 0.000000000000000000, 1.000000000000000000 ) ) ;
#157 = ORIENTED_EDGE ( 'NONE', *, *, #593, .F. ) ;
#158 = CARTESIAN_POINT ( 'NONE',  ( 0.000000000000000000, 0.000000000000000000, 0.000000000000000000 ) ) ;
#159 = LINE ( 'NONE', #272, #67 ) ;
#160 = EDGE_LOOP ( 'NONE', ( #87, #84 ) ) ;
#161 = DIRECTION ( 'NONE',  ( -0.000000000000000000, -1.000000000000000000, -0.000000000000000000 ) ) ;
#162 = DIRECTION ( 'NONE',  ( 0.000000000000000000, 1.000000000000000000, 0.000000000000000000 ) ) ;
#163 = EDGE_LOOP ( 'NONE', ( #405, #582, #157, #420 ) ) ;
#164 = DATE_AND_TIME ( #271, #552 ) ;
#165 = FACE_BOUND ( 'NONE', #656, .T. ) ;
#166 = EDGE_LOOP ( 'NONE', ( #494, #368 ) ) ;
#167 = AXIS2_PLACEMENT_3D ( 'NONE', #139, #657, #192 ) ;
#168 = EDGE_CURVE ( 'NONE', #115, #452, #295, .T. ) ;
#169 = AXIS2_PLACEMENT_3D ( 'NONE', #491, #393, #136 ) ;
#170 = PLANE ( 'NONE',  #176 ) ;
#171 = ORIENTED_EDGE ( 'NONE', *, *, #662, .T. ) ;
#172 =( NAMED_UNIT ( * ) PLANE_ANGLE_UNIT ( ) SI_UNIT ( $, .RADIAN. ) );
#173 = DIRECTION ( 'NONE',  ( 0.000000000000000000, 0.000000000000000000, -1.000000000000000000 ) ) ;
#174 = VERTEX_POINT ( 'NONE', #563 ) ;
#175 = FACE_OUTER_BOUND ( 'NONE', #257, .T. ) ;
#176 = AXIS2_PLACEMENT_3D ( 'NONE', #158, #66, #310 ) ;
#177 = EDGE_CURVE ( 'NONE', #604, #198, #355, .T. ) ;
#178 = ORIENTED_EDGE ( 'NONE', *, *, #189, .T. ) ;
#179 = APPROVAL_STATUS ( 'not_yet_approved' ) ;
#180 = CARTESIAN_POINT ( 'NONE',  ( -3.307086614173228689, 0.4724409448818898127, -1.377952755905512028 ) ) ;
#181 = CLOSED_SHELL ( 'NONE', ( #600, #197, #664, #258, #229, #268, #72, #539, #383, #488, #504, #401, #122, #331, #569, #140, #449, #307 ) ) ;
#182 = VERTEX_POINT ( 'NONE', #93 ) ;
#183 = EDGE_CURVE ( 'NONE', #311, #182, #299, .T. ) ;
#184 = CARTESIAN_POINT ( 'NONE',  ( -1.732283464566929165, 0.000000000000000000, -0.9055118110236221041 ) ) ;
#185 = ORIENTED_EDGE ( 'NONE', *, *, #37, .F. ) ;
#186 = DIRECTION ( 'NONE',  ( -0.000000000000000000, -1.000000000000000000, -0.000000000000000000 ) ) ;
#187 = LINE ( 'NONE', #661, #559 ) ;
#188 = APPROVAL_ROLE ( '' ) ;
#189 = EDGE_CURVE ( 'NONE', #372, #127, #39, .T. ) ;
#190 = CARTESIAN_POINT ( 'NONE',  ( -2.755905511811024056, 0.000000000000000000, 1.072834645669291431 ) ) ;
#191 = EDGE_LOOP ( 'NONE', ( #573, #517 ) ) ;
#192 = DIRECTION ( 'NONE',  ( 0.000000000000000000, 0.000000000000000000, -1.000000000000000000 ) ) ;
#193 = LINE ( 'NONE', #346, #438 ) ;
#194 = PERSON_AND_ORGANIZATION ( #652, #205 ) ;
#195 = DIRECTION ( 'NONE',  ( 1.000000000000000000, -0.000000000000000000, 0.000000000000000000 ) ) ;
#196 = CARTESIAN_POINT ( 'NONE',  ( 1.732283464566929165, 0.4724409448818898127, 0.9055118110236221041 ) ) ;
#197 = ADVANCED_FACE ( 'NONE', ( #153 ), #359, .F. ) ;
#198 = VERTEX_POINT ( 'NONE', #668 ) ;
#199 = VECTOR ( 'NONE', #601, 39.37007874015748143 ) ;
#200 = CARTESIAN_POINT ( 'NONE',  ( -3.307086614173228689, 0.000000000000000000, 1.377952755905512028 ) ) ;
#201 = AXIS2_PLACEMENT_3D ( 'NONE', #148, #35, #354 ) ;
#202 = DIRECTION ( 'NONE',  ( 0.000000000000000000, 0.000000000000000000, -1.000000000000000000 ) ) ;
#203 = VECTOR ( 'NONE', #638, 39.37007874015748143 ) ;
#204 = LINE ( 'NONE', #617, #309 ) ;
#205 = ORGANIZATION ( 'UNSPECIFIED', 'UNSPECIFIED', '' ) ;
#206 = DIRECTION ( 'NONE',  ( -0.000000000000000000, -1.000000000000000000, -0.000000000000000000 ) ) ;
#207 = EDGE_CURVE ( 'NONE', #77, #623, #204, .T. ) ;
#208 = CARTESIAN_POINT ( 'NONE',  ( 2.755905511811024056, 0.000000000000000000, 0.9055118110236221041 ) ) ;
#209 = EDGE_LOOP ( 'NONE', ( #244, #414, #8, #74 ) ) ;
#210 = DIRECTION ( 'NONE',  ( 0.000000000000000000, 0.000000000000000000, -1.000000000000000000 ) ) ;
#211 = CARTESIAN_POINT ( 'NONE',  ( -2.755905511811024056, 0.000000000000000000, 0.9055118110236221041 ) ) ;
#212 = EDGE_LOOP ( 'NONE', ( #266, #146 ) ) ;
#213 = COORDINATED_UNIVERSAL_TIME_OFFSET ( 1, 0, .AHEAD. ) ;
#214 = DIRECTION ( 'NONE',  ( 0.000000000000000000, 0.000000000000000000, -1.000000000000000000 ) ) ;
#215 = ORIENTED_EDGE ( 'NONE', *, *, #670, .F. ) ;
#216 = PERSON_AND_ORGANIZATION ( #652, #205 ) ;
#217 = FACE_OUTER_BOUND ( 'NONE', #513, .T. ) ;
#218 = EDGE_LOOP ( 'NONE', ( #388, #446, #240, #279 ) ) ;
#219 = DIRECTION ( 'NONE',  ( 0.000000000000000000, 1.000000000000000000, 0.000000000000000000 ) ) ;
#220 = EDGE_LOOP ( 'NONE', ( #440, #376, #110, #417 ) ) ;
#221 = CARTESIAN_POINT ( 'NONE',  ( -3.307086614173228689, 0.4724409448818898127, -1.377952755905512028 ) ) ;
#222 = EDGE_CURVE ( 'NONE', #40, #623, #409, .T. ) ;
#223 = LINE ( 'NONE', #184, #26 ) ;
#224 = VERTEX_POINT ( 'NONE', #580 ) ;
#225 = ADVANCED_BREP_SHAPE_REPRESENTATION ( '12_Valve_Clamp_63mm', ( #283, #418 ), #641 ) ;
#226 = EDGE_CURVE ( 'NONE', #130, #647, #467, .T. ) ;
#227 = DIRECTION ( 'NONE',  ( 0.000000000000000000, 0.000000000000000000, 1.000000000000000000 ) ) ;
#228 = AXIS2_PLACEMENT_3D ( 'NONE', #291, #387, #500 ) ;
#229 = ADVANCED_FACE ( 'NONE', ( #634, #584, #17, #365, #121, #261 ), #325, .F. ) ;
#230 = LINE ( 'NONE', #597, #85 ) ;
#231 = DESIGN_CONTEXT ( 'detailed design', #13, 'design' ) ;
#232 = CARTESIAN_POINT ( 'NONE',  ( -1.732283464566929165, 0.4724409448818898127, 0.9055118110236221041 ) ) ;
#233 = VECTOR ( 'NONE', #565, 39.37007874015748143 ) ;
#234 = EDGE_LOOP ( 'NONE', ( #519, #215 ) ) ;
#235 = FACE_OUTER_BOUND ( 'NONE', #396, .T. ) ;
#236 = EDGE_LOOP ( 'NONE', ( #102, #546, #462, #343 ) ) ;
#237 = EDGE_CURVE ( 'NONE', #77, #308, #441, .T. ) ;
#238 = EDGE_CURVE ( 'NONE', #54, #81, #159, .T. ) ;
#239 = CARTESIAN_POINT ( 'NONE',  ( 3.307086614173228689, 0.4724409448818898127, 1.377952755905512028 ) ) ;
#240 = ORIENTED_EDGE ( 'NONE', *, *, #151, .T. ) ;
#241 = DATE_AND_TIME ( #496, #489 ) ;
#242 = LINE ( 'NONE', #312, #60 ) ;
#243 = CARTESIAN_POINT ( 'NONE',  ( -1.732283464566929165, 0.000000000000000000, 0.9055118110236221041 ) ) ;
#244 = ORIENTED_EDGE ( 'NONE', *, *, #252, .F. ) ;
#245 = CARTESIAN_POINT ( 'NONE',  ( 2.755905511811024056, 0.4724409448818898127, -0.9055118110236221041 ) ) ;
#246 = EDGE_CURVE ( 'NONE', #182, #198, #443, .T. ) ;
#247 = LINE ( 'NONE', #350, #648 ) ;
#248 = VERTEX_POINT ( 'NONE', #622 ) ;
#249 = CARTESIAN_POINT ( 'NONE',  ( -2.755905511811024056, 0.000000000000000000, 0.7381889763779526659 ) ) ;
#250 = CARTESIAN_POINT ( 'NONE',  ( 1.732283464566929165, 0.4724409448818898127, 0.9055118110236221041 ) ) ;
#251 = EDGE_LOOP ( 'NONE', ( #391, #428, #379, #323 ) ) ;
#252 = EDGE_CURVE ( 'NONE', #308, #40, #482, .T. ) ;
#253 = AXIS2_PLACEMENT_3D ( 'NONE', #180, #574, #614 ) ;
#254 = DIRECTION ( 'NONE',  ( 1.000000000000000000, 0.000000000000000000, 0.000000000000000000 ) ) ;
#255 = EDGE_LOOP ( 'NONE', ( #541, #639, #178, #49 ) ) ;
#256 = CARTESIAN_POINT ( 'NONE',  ( 2.755905511811024056, 0.000000000000000000, -0.9055118110236221041 ) ) ;
#257 = EDGE_LOOP ( 'NONE', ( #262, #104, #588, #531 ) ) ;
#258 = ADVANCED_FACE ( 'NONE', ( #6 ), #103, .F. ) ;
#259 = EDGE_CURVE ( 'NONE', #311, #604, #644, .T. ) ;
#260 = VECTOR ( 'NONE', #607, 39.37007874015748143 ) ;
#261 = FACE_BOUND ( 'NONE', #234, .T. ) ;
#262 = ORIENTED_EDGE ( 'NONE', *, *, #226, .T. ) ;
#263 = DIRECTION ( 'NONE',  ( 0.000000000000000000, 0.000000000000000000, -1.000000000000000000 ) ) ;
#264 = AXIS2_PLACEMENT_3D ( 'NONE', #498, #382, #80 ) ;
#265 = CARTESIAN_POINT ( 'NONE',  ( -2.755905511811024056, 0.4724409448818898127, -0.9055118110236221041 ) ) ;
#266 = ORIENTED_EDGE ( 'NONE', *, *, #19, .F. ) ;
#267 = PERSON_AND_ORGANIZATION ( #652, #205 ) ;
#268 = ADVANCED_FACE ( 'NONE', ( #275, #63, #217, #475, #427, #165 ), #170, .T. ) ;
#269 = DIRECTION ( 'NONE',  ( 0.000000000000000000, 0.000000000000000000, -1.000000000000000000 ) ) ;
#270 = ORIENTED_EDGE ( 'NONE', *, *, #662, .F. ) ;
#271 = CALENDAR_DATE ( 2026, 10, 8 ) ;
#272 = CARTESIAN_POINT ( 'NONE',  ( -1.732283464566929165, 0.000000000000000000, 0.9055118110236221041 ) ) ;
#273 = ORIENTED_EDGE ( 'NONE', *, *, #183, .F. ) ;
#274 = DIRECTION ( 'NONE',  ( 1.000000000000000000, 0.000000000000000000, 0.000000000000000000 ) ) ;
#275 = FACE_BOUND ( 'NONE', #166, .T. ) ;
#276 = ORIENTED_EDGE ( 'NONE', *, *, #19, .T. ) ;
#277 = VECTOR ( 'NONE', #70, 39.37007874015748143 ) ;
#278 = DIRECTION ( 'NONE',  ( -1.000000000000000000, -0.000000000000000000, -0.000000000000000000 ) ) ;
#279 = ORIENTED_EDGE ( 'NONE', *, *, #134, .T. ) ;
#280 = DATE_TIME_ROLE ( 'creation_date' ) ;
#281 = PLANE ( 'NONE',  #228 ) ;
#282 = ORIENTED_EDGE ( 'NONE', *, *, #177, .T. ) ;
#283 = MANIFOLD_SOLID_BREP ( 'Bridge_Clamp_Extrude', #181 ) ;
#284 = PLANE ( 'NONE',  #91 ) ;
#285 = CIRCLE ( 'NONE', #351, 0.1673228346456694382 ) ;
#286 = LINE ( 'NONE', #31, #461 ) ;
#287 = SHAPE_DEFINITION_REPRESENTATION ( #424, #225 ) ;
#288 = VECTOR ( 'NONE', #333, 39.37007874015748143 ) ;
#289 = CARTESIAN_POINT ( 'NONE',  ( -3.307086614173228689, 0.000000000000000000, -1.377952755905512028 ) ) ;
#290 = VERTEX_POINT ( 'NONE', #518 ) ;
#291 = CARTESIAN_POINT ( 'NONE',  ( -1.732283464566929165, 0.4724409448818898127, 0.9055118110236221041 ) ) ;
#292 = ORIENTED_EDGE ( 'NONE', *, *, #618, .F. ) ;
#293 = CC_DESIGN_APPROVAL ( #511, ( #56 ) ) ;
#294 = CARTESIAN_POINT ( 'NONE',  ( -1.732283464566929165, 0.4724409448818898127, -0.9055118110236221041 ) ) ;
#295 = LINE ( 'NONE', #36, #520 ) ;
#296 = CIRCLE ( 'NONE', #2, 0.1673228346456694382 ) ;
#297 = EDGE_CURVE ( 'NONE', #570, #616, #57, .T. ) ;
#298 = CARTESIAN_POINT ( 'NONE',  ( -3.307086614173228689, 0.4724409448818898127, 1.377952755905512028 ) ) ;
#299 = LINE ( 'NONE', #561, #640 ) ;
#300 = ORIENTED_EDGE ( 'NONE', *, *, #352, .T. ) ;
#301 = DIRECTION ( 'NONE',  ( 0.000000000000000000, 0.000000000000000000, -1.000000000000000000 ) ) ;
#302 = EDGE_CURVE ( 'NONE', #604, #311, #468, .T. ) ;
#303 = CARTESIAN_POINT ( 'NONE',  ( -2.755905511811024056, 0.4724409448818898127, 0.7381889763779526659 ) ) ;
#304 = CARTESIAN_POINT ( 'NONE',  ( 2.755905511811024056, 0.4724409448818898127, 0.9055118110236221041 ) ) ;
#305 = ORIENTED_EDGE ( 'NONE', *, *, #480, .T. ) ;
#306 = CARTESIAN_POINT ( 'NONE',  ( -1.732283464566929165, 0.000000000000000000, 0.9055118110236221041 ) ) ;
#307 = ADVANCED_FACE ( 'NONE', ( #371 ), #575, .F. ) ;
#308 = VERTEX_POINT ( 'NONE', #419 ) ;
#309 = VECTOR ( 'NONE', #3, 39.37007874015748143 ) ;
#310 = DIRECTION ( 'NONE',  ( 0.000000000000000000, -0.000000000000000000, -1.000000000000000000 ) ) ;
#311 = VERTEX_POINT ( 'NONE', #322 ) ;
#312 = CARTESIAN_POINT ( 'NONE',  ( 1.732283464566929165, 0.4724409448818898127, 0.9055118110236221041 ) ) ;
#313 = VECTOR ( 'NONE', #454, 39.37007874015748143 ) ;
#314 = DIRECTION ( 'NONE',  ( -0.000000000000000000, -1.000000000000000000, -0.000000000000000000 ) ) ;
#315 = VERTEX_POINT ( 'NONE', #478 ) ;
#316 = DIRECTION ( 'NONE',  ( 0.000000000000000000, 1.000000000000000000, 0.000000000000000000 ) ) ;
#317 = VECTOR ( 'NONE', #431, 39.37007874015748143 ) ;
#318 = EDGE_CURVE ( 'NONE', #119, #570, #395, .T. ) ;
#319 = CARTESIAN_POINT ( 'NONE',  ( 3.307086614173228689, 0.000000000000000000, 1.377952755905512028 ) ) ;
#320 = ORIENTED_EDGE ( 'NONE', *, *, #168, .T. ) ;
#321 = CARTESIAN_POINT ( 'NONE',  ( 2.755905511811024056, 0.4724409448818898127, -0.9055118110236221041 ) ) ;
#322 = CARTESIAN_POINT ( 'NONE',  ( -2.755905511811024056, 0.4724409448818898127, -0.7381889763779526659 ) ) ;
#323 = ORIENTED_EDGE ( 'NONE', *, *, #207, .F. ) ;
#324 = CC_DESIGN_APPROVAL ( #7, ( #42 ) ) ;
#325 = PLANE ( 'NONE',  #466 ) ;
#326 = ORIENTED_EDGE ( 'NONE', *, *, #238, .F. ) ;
#327 = APPROVAL_STATUS ( 'not_yet_approved' ) ;
#328 = CARTESIAN_POINT ( 'NONE',  ( -3.307086614173228689, 0.000000000000000000, -1.377952755905512028 ) ) ;
#329 = ORIENTED_EDGE ( 'NONE', *, *, #259, .T. ) ;
#330 = EDGE_CURVE ( 'NONE', #248, #174, #598, .T. ) ;
#331 = ADVANCED_FACE ( 'NONE', ( #132 ), #284, .T. ) ;
#332 = PERSON_AND_ORGANIZATION_ROLE ( 'creator' ) ;
#333 = DIRECTION ( 'NONE',  ( -0.000000000000000000, -0.000000000000000000, 1.000000000000000000 ) ) ;
#334 = EDGE_LOOP ( 'NONE', ( #326, #473, #305, #398 ) ) ;
#335 = PERSON_AND_ORGANIZATION_ROLE ( 'design_supplier' ) ;
#336 = DIRECTION ( 'NONE',  ( 0.000000000000000000, 0.000000000000000000, 1.000000000000000000 ) ) ;
#337 = DIRECTION ( 'NONE',  ( -0.000000000000000000, -1.000000000000000000, -0.000000000000000000 ) ) ;
#338 = DIRECTION ( 'NONE',  ( -0.000000000000000000, -1.000000000000000000, -0.000000000000000000 ) ) ;
#339 = ORIENTED_EDGE ( 'NONE', *, *, #45, .T. ) ;
#340 = AXIS2_PLACEMENT_3D ( 'NONE', #415, #316, #527 ) ;
#341 = UNCERTAINTY_MEASURE_WITH_UNIT (LENGTH_MEASURE( 1.000000000000000082E-05 ), #477, 'distance_accuracy_value', 'NONE');
#342 = CARTESIAN_POINT ( 'NONE',  ( 1.732283464566929165, 0.4724409448818898127, -0.9055118110236221041 ) ) ;
#343 = ORIENTED_EDGE ( 'NONE', *, *, #47, .T. ) ;
#344 = COORDINATED_UNIVERSAL_TIME_OFFSET ( 1, 0, .AHEAD. ) ;
#345 = DIRECTION ( 'NONE',  ( -0.000000000000000000, -0.000000000000000000, 1.000000000000000000 ) ) ;
#346 = CARTESIAN_POINT ( 'NONE',  ( -2.755905511811024056, 0.4724409448818898127, 1.072834645669291431 ) ) ;
#347 = CC_DESIGN_PERSON_AND_ORGANIZATION_ASSIGNMENT ( #216, #332, ( #56 ) ) ;
#348 = APPROVAL_PERSON_ORGANIZATION ( #586, #511, #125 ) ;
#349 = LINE ( 'NONE', #200, #612 ) ;
#350 = CARTESIAN_POINT ( 'NONE',  ( -3.307086614173228689, 0.000000000000000000, 1.377952755905512028 ) ) ;
#351 = AXIS2_PLACEMENT_3D ( 'NONE', #129, #587, #642 ) ;
#352 = EDGE_CURVE ( 'NONE', #290, #174, #555, .T. ) ;
#353 = VECTOR ( 'NONE', #345, 39.37007874015748143 ) ;
#354 = DIRECTION ( 'NONE',  ( 0.000000000000000000, 0.000000000000000000, 1.000000000000000000 ) ) ;
#355 = LINE ( 'NONE', #557, #260 ) ;
#356 = AXIS2_PLACEMENT_3D ( 'NONE', #256, #408, #156 ) ;
#357 = EDGE_LOOP ( 'NONE', ( #458, #423 ) ) ;
#358 = CYLINDRICAL_SURFACE ( 'NONE', #167, 0.1673228346456694382 ) ;
#359 = CYLINDRICAL_SURFACE ( 'NONE', #669, 0.1673228346456694382 ) ;
#360 = ORIENTED_EDGE ( 'NONE', *, *, #330, .T. ) ;
#361 = EDGE_CURVE ( 'NONE', #623, #40, #285, .T. ) ;
#362 = PLANE ( 'NONE',  #530 ) ;
#363 = ORIENTED_EDGE ( 'NONE', *, *, #97, .T. ) ;
#364 = CC_DESIGN_PERSON_AND_ORGANIZATION_ASSIGNMENT ( #267, #474, ( #78 ) ) ;
#365 = FACE_BOUND ( 'NONE', #357, .T. ) ;
#366 = VERTEX_POINT ( 'NONE', #342 ) ;
#367 = CARTESIAN_POINT ( 'NONE',  ( -2.755905511811024056, 0.000000000000000000, -0.9055118110236221041 ) ) ;
#368 = ORIENTED_EDGE ( 'NONE', *, *, #246, .T. ) ;
#369 = EDGE_CURVE ( 'NONE', #372, #81, #646, .T. ) ;
#370 = CARTESIAN_POINT ( 'NONE',  ( -2.755905511811024056, 0.000000000000000000, -0.9055118110236221041 ) ) ;
#371 = FACE_OUTER_BOUND ( 'NONE', #51, .T. ) ;
#372 = VERTEX_POINT ( 'NONE', #493 ) ;
#373 = PERSON_AND_ORGANIZATION ( #652, #205 ) ;
#374 = DIRECTION ( 'NONE',  ( 0.000000000000000000, 0.000000000000000000, 1.000000000000000000 ) ) ;
#375 = VECTOR ( 'NONE', #263, 39.37007874015748143 ) ;
#376 = ORIENTED_EDGE ( 'NONE', *, *, #523, .T. ) ;
#377 = LENGTH_MEASURE_WITH_UNIT ( LENGTH_MEASURE( 0.02539999999999999897 ), #23 );
#378 = DIRECTION ( 'NONE',  ( 0.000000000000000000, 1.000000000000000000, 0.000000000000000000 ) ) ;
#379 = ORIENTED_EDGE ( 'NONE', *, *, #361, .F. ) ;
#380 = DATE_AND_TIME ( #487, #628 ) ;
#381 = APPROVAL_PERSON_ORGANIZATION ( #194, #621, #188 ) ;
#382 = DIRECTION ( 'NONE',  ( 0.000000000000000000, 1.000000000000000000, 0.000000000000000000 ) ) ;
#383 = ADVANCED_FACE ( 'NONE', ( #175 ), #548, .F. ) ;
#384 = EDGE_CURVE ( 'NONE', #308, #77, #296, .T. ) ;
#385 = VERTEX_POINT ( 'NONE', #545 ) ;
#386 = COORDINATED_UNIVERSAL_TIME_OFFSET ( 1, 0, .AHEAD. ) ;
#387 = DIRECTION ( 'NONE',  ( 0.000000000000000000, 0.000000000000000000, -1.000000000000000000 ) ) ;
#388 = ORIENTED_EDGE ( 'NONE', *, *, #413, .T. ) ;
#389 = MECHANICAL_CONTEXT ( 'NONE', #637, 'mechanical' ) ;
#390 = DIRECTION ( 'NONE',  ( -0.000000000000000000, -1.000000000000000000, -0.000000000000000000 ) ) ;
#391 = ORIENTED_EDGE ( 'NONE', *, *, #237, .T. ) ;
#392 = CARTESIAN_POINT ( 'NONE',  ( -2.755905511811024056, 0.4724409448818898127, 1.072834645669291431 ) ) ;
#393 = DIRECTION ( 'NONE',  ( 0.000000000000000000, 1.000000000000000000, 0.000000000000000000 ) ) ;
#394 = APPROVAL_DATE_TIME ( #241, #621 ) ;
#395 = LINE ( 'NONE', #83, #434 ) ;
#396 = EDGE_LOOP ( 'NONE', ( #273, #329, #282, #643 ) ) ;
#397 = DIRECTION ( 'NONE',  ( 1.000000000000000000, 0.000000000000000000, 0.000000000000000000 ) ) ;
#398 = ORIENTED_EDGE ( 'NONE', *, *, #369, .T. ) ;
#399 = DIRECTION ( 'NONE',  ( 0.000000000000000000, 1.000000000000000000, 0.000000000000000000 ) ) ;
#400 = DIRECTION ( 'NONE',  ( -0.000000000000000000, -1.000000000000000000, -0.000000000000000000 ) ) ;
#401 = ADVANCED_FACE ( 'NONE', ( #543 ), #281, .T. ) ;
#402 = PLANE ( 'NONE',  #633 ) ;
#403 = CARTESIAN_POINT ( 'NONE',  ( 1.732283464566929165, 0.000000000000000000, 0.9055118110236221041 ) ) ;
#404 = AXIS2_PLACEMENT_3D ( 'NONE', #524, #219, #58 ) ;
#405 = ORIENTED_EDGE ( 'NONE', *, *, #302, .T. ) ;
#406 = VECTOR ( 'NONE', #152, 39.37007874015748143 ) ;
#407 = FACE_OUTER_BOUND ( 'NONE', #631, .T. ) ;
#408 = DIRECTION ( 'NONE',  ( 0.000000000000000000, 1.000000000000000000, 0.000000000000000000 ) ) ;
#409 = CIRCLE ( 'NONE', #155, 0.1673228346456694382 ) ;
#410 = CARTESIAN_POINT ( 'NONE',  ( -1.732283464566929165, 0.4724409448818898127, 0.9055118110236221041 ) ) ;
#411 = FACE_OUTER_BOUND ( 'NONE', #483, .T. ) ;
#412 = DIRECTION ( 'NONE',  ( 0.000000000000000000, -0.000000000000000000, -1.000000000000000000 ) ) ;
#413 = EDGE_CURVE ( 'NONE', #515, #54, #223, .T. ) ;
#414 = ORIENTED_EDGE ( 'NONE', *, *, #384, .T. ) ;
#415 = CARTESIAN_POINT ( 'NONE',  ( -2.755905511811024056, 0.000000000000000000, 0.9055118110236221041 ) ) ;
#416 = DIRECTION ( 'NONE',  ( 0.000000000000000000, 0.000000000000000000, 1.000000000000000000 ) ) ;
#417 = ORIENTED_EDGE ( 'NONE', *, *, #595, .F. ) ;
#418 = AXIS2_PLACEMENT_3D ( 'NONE', #69, #75, #274 ) ;
#419 = CARTESIAN_POINT ( 'NONE',  ( 2.755905511811024056, 0.4724409448818898127, 1.072834645669291431 ) ) ;
#420 = ORIENTED_EDGE ( 'NONE', *, *, #177, .F. ) ;
#421 = COORDINATED_UNIVERSAL_TIME_OFFSET ( 1, 0, .AHEAD. ) ;
#422 = DIRECTION ( 'NONE',  ( 0.000000000000000000, 0.000000000000000000, -1.000000000000000000 ) ) ;
#423 = ORIENTED_EDGE ( 'NONE', *, *, #384, .F. ) ;
#424 = PRODUCT_DEFINITION_SHAPE ( 'NONE', 'NONE',  #56 ) ;
#425 = APPROVAL_DATE_TIME ( #164, #511 ) ;
#426 = EDGE_CURVE ( 'NONE', #366, #538, #439, .T. ) ;
#427 = FACE_BOUND ( 'NONE', #160, .T. ) ;
#428 = ORIENTED_EDGE ( 'NONE', *, *, #252, .T. ) ;
#429 = AXIS2_PLACEMENT_3D ( 'NONE', #304, #206, #202 ) ;
#430 = CC_DESIGN_SECURITY_CLASSIFICATION ( #78, ( #42 ) ) ;
#431 = DIRECTION ( 'NONE',  ( -1.000000000000000000, -0.000000000000000000, -0.000000000000000000 ) ) ;
#432 = ORIENTED_EDGE ( 'NONE', *, *, #330, .F. ) ;
#433 = PERSON_AND_ORGANIZATION ( #652, #205 ) ;
#434 = VECTOR ( 'NONE', #390, 39.37007874015748143 ) ;
#435 = CARTESIAN_POINT ( 'NONE',  ( -3.307086614173228689, 0.000000000000000000, 1.377952755905512028 ) ) ;
#436 = EDGE_CURVE ( 'NONE', #647, #452, #650, .T. ) ;
#437 = VERTEX_POINT ( 'NONE', #485 ) ;
#438 = VECTOR ( 'NONE', #554, 39.37007874015748143 ) ;
#439 = LINE ( 'NONE', #537, #317 ) ;
#440 = ORIENTED_EDGE ( 'NONE', *, *, #120, .F. ) ;
#441 = CIRCLE ( 'NONE', #98, 0.1673228346456694382 ) ;
#442 = DIRECTION ( 'NONE',  ( -1.000000000000000000, 0.000000000000000000, 0.000000000000000000 ) ) ;
#443 = CIRCLE ( 'NONE', #649, 0.1673228346456694382 ) ;
#444 = CARTESIAN_POINT ( 'NONE',  ( 2.755905511811024056, 0.4724409448818898127, -0.7381889763779526659 ) ) ;
#445 = DIRECTION ( 'NONE',  ( 0.000000000000000000, 1.000000000000000000, 0.000000000000000000 ) ) ;
#446 = ORIENTED_EDGE ( 'NONE', *, *, #238, .T. ) ;
#447 = DATE_AND_TIME ( #34, #606 ) ;
#448 = EDGE_CURVE ( 'NONE', #315, #130, #30, .T. ) ;
#449 = ADVANCED_FACE ( 'NONE', ( #235 ), #591, .F. ) ;
#450 = DIRECTION ( 'NONE',  ( -1.000000000000000000, 0.000000000000000000, -0.000000000000000000 ) ) ;
#451 = LINE ( 'NONE', #43, #117 ) ;
#452 = VERTEX_POINT ( 'NONE', #328 ) ;
#453 = LINE ( 'NONE', #144, #353 ) ;
#454 = DIRECTION ( 'NONE',  ( 1.000000000000000000, 0.000000000000000000, 0.000000000000000000 ) ) ;
#455 = AXIS2_PLACEMENT_3D ( 'NONE', #321, #16, #645 ) ;
#456 = CARTESIAN_POINT ( 'NONE',  ( -2.755905511811024056, 0.4724409448818898127, -1.072834645669291431 ) ) ;
#457 = CARTESIAN_POINT ( 'NONE',  ( -3.307086614173228689, 0.4724409448818898127, 1.377952755905512028 ) ) ;
#458 = ORIENTED_EDGE ( 'NONE', *, *, #237, .F. ) ;
#459 = CIRCLE ( 'NONE', #48, 0.1673228346456694382 ) ;
#460 = DIRECTION ( 'NONE',  ( 0.000000000000000000, 0.000000000000000000, -1.000000000000000000 ) ) ;
#461 = VECTOR ( 'NONE', #501, 39.37007874015748143 ) ;
#462 = ORIENTED_EDGE ( 'NONE', *, *, #671, .F. ) ;
#463 = CARTESIAN_POINT ( 'NONE',  ( -3.307086614173228689, 0.4724409448818898127, -1.377952755905512028 ) ) ;
#464 = EDGE_LOOP ( 'NONE', ( #141, #526, #11, #585 ) ) ;
#465 = APPROVAL_PERSON_ORGANIZATION ( #373, #7, #542 ) ;
#466 = AXIS2_PLACEMENT_3D ( 'NONE', #571, #630, #412 ) ;
#467 = LINE ( 'NONE', #319, #65 ) ;
#468 = CIRCLE ( 'NONE', #113, 0.1673228346456694382 ) ;
#469 = VERTEX_POINT ( 'NONE', #392 ) ;
#470 = CYLINDRICAL_SURFACE ( 'NONE', #547, 0.1673228346456694382 ) ;
#471 = CARTESIAN_POINT ( 'NONE',  ( 2.755905511811024056, 0.4724409448818898127, 1.072834645669291431 ) ) ;
#472 = VECTOR ( 'NONE', #654, 39.37007874015748143 ) ;
#473 = ORIENTED_EDGE ( 'NONE', *, *, #503, .F. ) ;
#474 = PERSON_AND_ORGANIZATION_ROLE ( 'classification_officer' ) ;
#475 = FACE_BOUND ( 'NONE', #218, .T. ) ;
#476 = ORIENTED_EDGE ( 'NONE', *, *, #480, .F. ) ;
#477 =( CONVERSION_BASED_UNIT ( 'INCH', #377 ) LENGTH_UNIT ( ) NAMED_UNIT ( #107 ) );
#478 = CARTESIAN_POINT ( 'NONE',  ( 3.307086614173228689, 0.4724409448818898127, 1.377952755905512028 ) ) ;
#479 = VERTEX_POINT ( 'NONE', #435 ) ;
#480 = EDGE_CURVE ( 'NONE', #538, #372, #126, .T. ) ;
#481 = PERSON_AND_ORGANIZATION ( #652, #205 ) ;
#482 = LINE ( 'NONE', #471, #277 ) ;
#483 = EDGE_LOOP ( 'NONE', ( #100, #185, #292, #320 ) ) ;
#484 =( NAMED_UNIT ( * ) SI_UNIT ( $, .STERADIAN. ) SOLID_ANGLE_UNIT ( ) );
#485 = CARTESIAN_POINT ( 'NONE',  ( 1.732283464566929165, 0.000000000000000000, 0.9055118110236221041 ) ) ;
#486 = VERTEX_POINT ( 'NONE', #540 ) ;
#487 = CALENDAR_DATE ( 2026, 10, 8 ) ;
#488 = ADVANCED_FACE ( 'NONE', ( #76 ), #24, .F. ) ;
#489 = LOCAL_TIME ( 1, 38, 40.00000000000000000, #344 ) ;
#490 = DIRECTION ( 'NONE',  ( -1.000000000000000000, -0.000000000000000000, -0.000000000000000000 ) ) ;
#491 = CARTESIAN_POINT ( 'NONE',  ( -2.755905511811024056, 0.4724409448818898127, 0.9055118110236221041 ) ) ;
#492 = VECTOR ( 'NONE', #490, 39.37007874015748143 ) ;
#493 = CARTESIAN_POINT ( 'NONE',  ( -1.732283464566929165, 0.4724409448818898127, 0.9055118110236221041 ) ) ;
#494 = ORIENTED_EDGE ( 'NONE', *, *, #593, .T. ) ;
#495 = AXIS2_PLACEMENT_3D ( 'NONE', #92, #210, #450 ) ;
#496 = CALENDAR_DATE ( 2026, 10, 8 ) ;
#497 = CIRCLE ( 'NONE', #169, 0.1673228346456694382 ) ;
#498 = CARTESIAN_POINT ( 'NONE',  ( 2.755905511811024056, 0.000000000000000000, -0.9055118110236221041 ) ) ;
#499 = ORIENTED_EDGE ( 'NONE', *, *, #671, .T. ) ;
#500 = DIRECTION ( 'NONE',  ( -1.000000000000000000, 0.000000000000000000, -0.000000000000000000 ) ) ;
#501 = DIRECTION ( 'NONE',  ( -0.000000000000000000, -1.000000000000000000, -0.000000000000000000 ) ) ;
#502 = APPROVAL_STATUS ( 'not_yet_approved' ) ;
#503 = EDGE_CURVE ( 'NONE', #538, #54, #510, .T. ) ;
#504 = ADVANCED_FACE ( 'NONE', ( #41 ), #402, .T. ) ;
#505 = DIRECTION ( 'NONE',  ( -0.000000000000000000, -1.000000000000000000, -0.000000000000000000 ) ) ;
#506 = CARTESIAN_POINT ( 'NONE',  ( -1.732283464566929165, 0.000000000000000000, -0.9055118110236221041 ) ) ;
#507 = DATE_TIME_ROLE ( 'classification_date' ) ;
#508 = CARTESIAN_POINT ( 'NONE',  ( 3.307086614173228689, 0.4724409448818898127, 1.377952755905512028 ) ) ;
#509 = DIRECTION ( 'NONE',  ( -0.000000000000000000, -1.000000000000000000, -0.000000000000000000 ) ) ;
#510 = LINE ( 'NONE', #294, #27 ) ;
#511 = APPROVAL ( #179, 'UNSPECIFIED' ) ;
#512 = FACE_OUTER_BOUND ( 'NONE', #651, .T. ) ;
#513 = EDGE_LOOP ( 'NONE', ( #154, #535, #663, #15 ) ) ;
#514 = CARTESIAN_POINT ( 'NONE',  ( -2.755905511811024056, 0.4724409448818898127, -0.9055118110236221041 ) ) ;
#515 = VERTEX_POINT ( 'NONE', #610 ) ;
#516 = DIRECTION ( 'NONE',  ( -0.000000000000000000, -1.000000000000000000, -0.000000000000000000 ) ) ;
#517 = ORIENTED_EDGE ( 'NONE', *, *, #259, .F. ) ;
#518 = CARTESIAN_POINT ( 'NONE',  ( 2.755905511811024056, 0.000000000000000000, -0.7381889763779526659 ) ) ;
#519 = ORIENTED_EDGE ( 'NONE', *, *, #608, .F. ) ;
#520 = VECTOR ( 'NONE', #400, 39.37007874015748143 ) ;
#521 = CC_DESIGN_APPROVAL ( #621, ( #78 ) ) ;
#522 = DIRECTION ( 'NONE',  ( -0.000000000000000000, -1.000000000000000000, -0.000000000000000000 ) ) ;
#523 = EDGE_CURVE ( 'NONE', #469, #119, #149, .T. ) ;
#524 = CARTESIAN_POINT ( 'NONE',  ( -2.755905511811024056, 0.4724409448818898127, -0.9055118110236221041 ) ) ;
#525 = AXIS2_PLACEMENT_3D ( 'NONE', #108, #314, #269 ) ;
#526 = ORIENTED_EDGE ( 'NONE', *, *, #20, .F. ) ;
#527 = DIRECTION ( 'NONE',  ( 0.000000000000000000, 0.000000000000000000, 1.000000000000000000 ) ) ;
#528 = AXIS2_PLACEMENT_3D ( 'NONE', #653, #186, #173 ) ;
#529 = DIRECTION ( 'NONE',  ( -0.000000000000000000, -0.000000000000000000, 1.000000000000000000 ) ) ;
#530 = AXIS2_PLACEMENT_3D ( 'NONE', #250, #666, #611 ) ;
#531 = ORIENTED_EDGE ( 'NONE', *, *, #448, .T. ) ;
#532 = CARTESIAN_POINT ( 'NONE',  ( 2.755905511811024056, 0.4724409448818898127, 0.9055118110236221041 ) ) ;
#533 = ORIENTED_EDGE ( 'NONE', *, *, #120, .T. ) ;
#534 = DIRECTION ( 'NONE',  ( 0.000000000000000000, 0.000000000000000000, 1.000000000000000000 ) ) ;
#535 = ORIENTED_EDGE ( 'NONE', *, *, #436, .F. ) ;
#536 = LINE ( 'NONE', #221, #109 ) ;
#537 = CARTESIAN_POINT ( 'NONE',  ( -1.732283464566929165, 0.4724409448818898127, -0.9055118110236221041 ) ) ;
#538 = VERTEX_POINT ( 'NONE', #94 ) ;
#539 = ADVANCED_FACE ( 'NONE', ( #111 ), #660, .F. ) ;
#540 = CARTESIAN_POINT ( 'NONE',  ( 3.307086614173228689, 0.4724409448818898127, -1.377952755905512028 ) ) ;
#541 = ORIENTED_EDGE ( 'NONE', *, *, #151, .F. ) ;
#542 = APPROVAL_ROLE ( '' ) ;
#543 = FACE_OUTER_BOUND ( 'NONE', #255, .T. ) ;
#544 = CARTESIAN_POINT ( 'NONE',  ( 2.755905511811024056, 0.000000000000000000, 1.072834645669291431 ) ) ;
#545 = CARTESIAN_POINT ( 'NONE',  ( 2.755905511811024056, 0.4724409448818898127, -0.7381889763779526659 ) ) ;
#546 = ORIENTED_EDGE ( 'NONE', *, *, #168, .F. ) ;
#547 = AXIS2_PLACEMENT_3D ( 'NONE', #556, #605, #301 ) ;
#548 = PLANE ( 'NONE',  #147 ) ;
#549 = EDGE_CURVE ( 'NONE', #127, #437, #242, .T. ) ;
#550 = ORIENTED_EDGE ( 'NONE', *, *, #97, .F. ) ;
#551 = LINE ( 'NONE', #298, #406 ) ;
#552 = LOCAL_TIME ( 1, 38, 40.00000000000000000, #594 ) ;
#553 = PRODUCT_RELATED_PRODUCT_CATEGORY ( 'detail', '', ( #124 ) ) ;
#554 = DIRECTION ( 'NONE',  ( -0.000000000000000000, -1.000000000000000000, -0.000000000000000000 ) ) ;
#555 = CIRCLE ( 'NONE', #264, 0.1673228346456694382 ) ;
#556 = CARTESIAN_POINT ( 'NONE',  ( 2.755905511811024056, 0.4724409448818898127, -0.9055118110236221041 ) ) ;
#557 = CARTESIAN_POINT ( 'NONE',  ( -2.755905511811024056, 0.4724409448818898127, -1.072834645669291431 ) ) ;
#558 = CC_DESIGN_PERSON_AND_ORGANIZATION_ASSIGNMENT ( #590, #128, ( #42 ) ) ;
#559 = VECTOR ( 'NONE', #516, 39.37007874015748143 ) ;
#560 = CARTESIAN_POINT ( 'NONE',  ( -1.732283464566929165, 0.4724409448818898127, 0.9055118110236221041 ) ) ;
#561 = CARTESIAN_POINT ( 'NONE',  ( -2.755905511811024056, 0.4724409448818898127, -0.7381889763779526659 ) ) ;
#562 = CARTESIAN_POINT ( 'NONE',  ( 2.755905511811024056, 0.4724409448818898127, 0.9055118110236221041 ) ) ;
#563 = CARTESIAN_POINT ( 'NONE',  ( 2.755905511811024056, 0.000000000000000000, -1.072834645669291431 ) ) ;
#564 = ORIENTED_EDGE ( 'NONE', *, *, #45, .F. ) ;
#565 = DIRECTION ( 'NONE',  ( 0.000000000000000000, 0.000000000000000000, -1.000000000000000000 ) ) ;
#566 = ORIENTED_EDGE ( 'NONE', *, *, #549, .F. ) ;
#567 = DIRECTION ( 'NONE',  ( 0.000000000000000000, 0.000000000000000000, 1.000000000000000000 ) ) ;
#568 = EDGE_CURVE ( 'NONE', #315, #486, #624, .T. ) ;
#569 = ADVANCED_FACE ( 'NONE', ( #603 ), #358, .F. ) ;
#570 = VERTEX_POINT ( 'NONE', #249 ) ;
#571 = CARTESIAN_POINT ( 'NONE',  ( 0.000000000000000000, 0.4724409448818898127, 0.000000000000000000 ) ) ;
#572 = CC_DESIGN_DATE_AND_TIME_ASSIGNMENT ( #447, #507, ( #78 ) ) ;
#573 = ORIENTED_EDGE ( 'NONE', *, *, #302, .F. ) ;
#574 = DIRECTION ( 'NONE',  ( 0.000000000000000000, 0.000000000000000000, 1.000000000000000000 ) ) ;
#575 = CYLINDRICAL_SURFACE ( 'NONE', #609, 0.1673228346456694382 ) ;
#576 = AXIS2_PLACEMENT_3D ( 'NONE', #211, #52, #416 ) ;
#577 = ORIENTED_EDGE ( 'NONE', *, *, #658, .T. ) ;
#578 = CALENDAR_DATE ( 2026, 10, 8 ) ;
#579 = CIRCLE ( 'NONE', #667, 0.1673228346456694382 ) ;
#580 = CARTESIAN_POINT ( 'NONE',  ( -3.307086614173228689, 0.4724409448818898127, 1.377952755905512028 ) ) ;
#581 = AXIS2_PLACEMENT_3D ( 'NONE', #457, #659, #615 ) ;
#582 = ORIENTED_EDGE ( 'NONE', *, *, #183, .T. ) ;
#583 = DIRECTION ( 'NONE',  ( -1.000000000000000000, -0.000000000000000000, -0.000000000000000000 ) ) ;
#584 = FACE_BOUND ( 'NONE', #613, .T. ) ;
#585 = ORIENTED_EDGE ( 'NONE', *, *, #503, .T. ) ;
#586 = PERSON_AND_ORGANIZATION ( #652, #205 ) ;
#587 = DIRECTION ( 'NONE',  ( 0.000000000000000000, 1.000000000000000000, 0.000000000000000000 ) ) ;
#588 = ORIENTED_EDGE ( 'NONE', *, *, #568, .F. ) ;
#589 = VECTOR ( 'NONE', #338, 39.37007874015748143 ) ;
#590 = PERSON_AND_ORGANIZATION ( #652, #205 ) ;
#591 = CYLINDRICAL_SURFACE ( 'NONE', #528, 0.1673228346456694382 ) ;
#592 = ORIENTED_EDGE ( 'NONE', *, *, #568, .T. ) ;
#593 = EDGE_CURVE ( 'NONE', #198, #182, #579, .T. ) ;
#594 = COORDINATED_UNIVERSAL_TIME_OFFSET ( 1, 0, .AHEAD. ) ;
#595 = EDGE_CURVE ( 'NONE', #616, #570, #82, .T. ) ;
#596 = DIRECTION ( 'NONE',  ( 1.000000000000000000, 0.000000000000000000, -0.000000000000000000 ) ) ;
#597 = CARTESIAN_POINT ( 'NONE',  ( -3.307086614173228689, 0.4724409448818898127, 1.377952755905512028 ) ) ;
#598 = LINE ( 'NONE', #21, #199 ) ;
#599 = ORIENTED_EDGE ( 'NONE', *, *, #37, .T. ) ;
#600 = ADVANCED_FACE ( 'NONE', ( #407 ), #470, .F. ) ;
#601 = DIRECTION ( 'NONE',  ( -0.000000000000000000, -1.000000000000000000, -0.000000000000000000 ) ) ;
#602 = LINE ( 'NONE', #444, #472 ) ;
#603 = FACE_OUTER_BOUND ( 'NONE', #220, .T. ) ;
#604 = VERTEX_POINT ( 'NONE', #456 ) ;
#605 = DIRECTION ( 'NONE',  ( -0.000000000000000000, -1.000000000000000000, -0.000000000000000000 ) ) ;
#606 = LOCAL_TIME ( 1, 38, 40.00000000000000000, #213 ) ;
#607 = DIRECTION ( 'NONE',  ( -0.000000000000000000, -1.000000000000000000, -0.000000000000000000 ) ) ;
#608 = EDGE_CURVE ( 'NONE', #248, #385, #459, .T. ) ;
#609 = AXIS2_PLACEMENT_3D ( 'NONE', #10, #118, #214 ) ;
#610 = CARTESIAN_POINT ( 'NONE',  ( 1.732283464566929165, 0.000000000000000000, -0.9055118110236221041 ) ) ;
#611 = DIRECTION ( 'NONE',  ( 0.000000000000000000, 0.000000000000000000, 1.000000000000000000 ) ) ;
#612 = VECTOR ( 'NONE', #397, 39.37007874015748143 ) ;
#613 = EDGE_LOOP ( 'NONE', ( #476, #133, #550, #44 ) ) ;
#614 = DIRECTION ( 'NONE',  ( 1.000000000000000000, 0.000000000000000000, -0.000000000000000000 ) ) ;
#615 = DIRECTION ( 'NONE',  ( 0.000000000000000000, 0.000000000000000000, -1.000000000000000000 ) ) ;
#616 = VERTEX_POINT ( 'NONE', #190 ) ;
#617 = CARTESIAN_POINT ( 'NONE',  ( 2.755905511811024056, 0.4724409448818898127, 0.7381889763779526659 ) ) ;
#618 = EDGE_CURVE ( 'NONE', #115, #224, #453, .T. ) ;
#619 = DIRECTION ( 'NONE',  ( 0.000000000000000000, 0.000000000000000000, -1.000000000000000000 ) ) ;
#620 = EDGE_LOOP ( 'NONE', ( #4, #171, #592, #499 ) ) ;
#621 = APPROVAL ( #502, 'UNSPECIFIED' ) ;
#622 = CARTESIAN_POINT ( 'NONE',  ( 2.755905511811024056, 0.4724409448818898127, -1.072834645669291431 ) ) ;
#623 = VERTEX_POINT ( 'NONE', #61 ) ;
#624 = LINE ( 'NONE', #508, #375 ) ;
#625 = DIRECTION ( 'NONE',  ( 0.000000000000000000, 1.000000000000000000, 0.000000000000000000 ) ) ;
#626 = ORIENTED_EDGE ( 'NONE', *, *, #608, .T. ) ;
#627 = CC_DESIGN_PERSON_AND_ORGANIZATION_ASSIGNMENT ( #481, #9, ( #124 ) ) ;
#628 = LOCAL_TIME ( 1, 38, 40.00000000000000000, #421 ) ;
#629 = APPLICATION_PROTOCOL_DEFINITION ( 'international standard', 'config_control_design', 1994, #637 ) ;
#630 = DIRECTION ( 'NONE',  ( 0.000000000000000000, -1.000000000000000000, 0.000000000000000000 ) ) ;
#631 = EDGE_LOOP ( 'NONE', ( #626, #339, #22, #432 ) ) ;
#632 = SECURITY_CLASSIFICATION_LEVEL ( 'unclassified' ) ;
#633 = AXIS2_PLACEMENT_3D ( 'NONE', #560, #195, #5 ) ;
#634 = FACE_OUTER_BOUND ( 'NONE', #620, .T. ) ;
#635 = ORIENTED_EDGE ( 'NONE', *, *, #297, .T. ) ;
#636 = DATE_AND_TIME ( #578, #143 ) ;
#637 = APPLICATION_CONTEXT ( 'configuration controlled 3d designs of mechanical parts and assemblies' ) ;
#638 = DIRECTION ( 'NONE',  ( -0.000000000000000000, -1.000000000000000000, -0.000000000000000000 ) ) ;
#639 = ORIENTED_EDGE ( 'NONE', *, *, #369, .F. ) ;
#640 = VECTOR ( 'NONE', #509, 39.37007874015748143 ) ;
#641 =( GEOMETRIC_REPRESENTATION_CONTEXT ( 3 ) GLOBAL_UNCERTAINTY_ASSIGNED_CONTEXT ( ( #341 ) ) GLOBAL_UNIT_ASSIGNED_CONTEXT ( ( #477, #172, #484 ) ) REPRESENTATION_CONTEXT ( 'NONE', 'WORKASPACE' ) );
#642 = DIRECTION ( 'NONE',  ( 0.000000000000000000, 0.000000000000000000, 1.000000000000000000 ) ) ;
#643 = ORIENTED_EDGE ( 'NONE', *, *, #246, .F. ) ;
#644 = CIRCLE ( 'NONE', #404, 0.1673228346456694382 ) ;
#645 = DIRECTION ( 'NONE',  ( 0.000000000000000000, 0.000000000000000000, 1.000000000000000000 ) ) ;
#646 = LINE ( 'NONE', #232, #589 ) ;
#647 = VERTEX_POINT ( 'NONE', #655 ) ;
#648 = VECTOR ( 'NONE', #145, 39.37007874015748143 ) ;
#649 = AXIS2_PLACEMENT_3D ( 'NONE', #367, #14, #567 ) ;
#650 = LINE ( 'NONE', #289, #492 ) ;
#651 = EDGE_LOOP ( 'NONE', ( #64, #566, #363, #25 ) ) ;
#652 = PERSON ( 'UNSPECIFIED', 'UNSPECIFIED', 'UNSPECIFIED', ('UNSPECIFIED'), ('UNSPECIFIED'), ('UNSPECIFIED') ) ;
#653 = CARTESIAN_POINT ( 'NONE',  ( -2.755905511811024056, 0.4724409448818898127, -0.9055118110236221041 ) ) ;
#654 = DIRECTION ( 'NONE',  ( -0.000000000000000000, -1.000000000000000000, -0.000000000000000000 ) ) ;
#655 = CARTESIAN_POINT ( 'NONE',  ( 3.307086614173228689, 0.000000000000000000, -1.377952755905512028 ) ) ;
#656 = EDGE_LOOP ( 'NONE', ( #96, #300 ) ) ;
#657 = DIRECTION ( 'NONE',  ( -0.000000000000000000, -1.000000000000000000, -0.000000000000000000 ) ) ;
#658 = EDGE_CURVE ( 'NONE', #479, #130, #349, .T. ) ;
#659 = DIRECTION ( 'NONE',  ( 1.000000000000000000, -0.000000000000000000, 0.000000000000000000 ) ) ;
#660 = PLANE ( 'NONE',  #495 ) ;
#661 = CARTESIAN_POINT ( 'NONE',  ( 3.307086614173228689, 0.4724409448818898127, -1.377952755905512028 ) ) ;
#662 = EDGE_CURVE ( 'NONE', #224, #315, #551, .T. ) ;
#663 = ORIENTED_EDGE ( 'NONE', *, *, #226, .F. ) ;
#664 = ADVANCED_FACE ( 'NONE', ( #89 ), #106, .F. ) ;
#665 = DIRECTION ( 'NONE',  ( 0.000000000000000000, 0.000000000000000000, 1.000000000000000000 ) ) ;
#666 = DIRECTION ( 'NONE',  ( -1.000000000000000000, 0.000000000000000000, 0.000000000000000000 ) ) ;
#667 = AXIS2_PLACEMENT_3D ( 'NONE', #370, #399, #38 ) ;
#668 = CARTESIAN_POINT ( 'NONE',  ( -2.755905511811024056, 0.000000000000000000, -1.072834645669291431 ) ) ;
#669 = AXIS2_PLACEMENT_3D ( 'NONE', #514, #46, #460 ) ;
#670 = EDGE_CURVE ( 'NONE', #385, #248, #53, .T. ) ;
#671 = EDGE_CURVE ( 'NONE', #486, #115, #536, .T. ) ;
#672 = CYLINDRICAL_SURFACE ( 'NONE', #429, 0.1673228346456694382 ) ;
ENDSEC;
END-ISO-10303-21;
