ISO-10303-21;
HEADER;
FILE_DESCRIPTION (( 'STEP AP203' ),
    '1' );
FILE_NAME ('13_AS5600_Bracket.STEP',
    '2026-08-10T00:38:42',
    ( '' ),
    ( '' ),
    'SwSTEP 2.0',
    'SolidWorks 2026',
    '' );
FILE_SCHEMA (( 'CONFIG_CONTROL_DESIGN' ));
ENDSEC;

DATA;
#1 = CARTESIAN_POINT ( 'NONE',  ( 0.000000000000000000, 0.000000000000000000, 0.000000000000000000 ) ) ;
#2 = DIRECTION ( 'NONE',  ( 0.000000000000000000, 1.000000000000000000, 0.000000000000000000 ) ) ;
#3 = AXIS2_PLACEMENT_3D ( 'NONE', #241, #11, #329 ) ;
#4 = AXIS2_PLACEMENT_3D ( 'NONE', #235, #556, #133 ) ;
#5 = CARTESIAN_POINT ( 'NONE',  ( 0.8661417322834645827, 0.1574803149606299191, -0.5511811023622046335 ) ) ;
#6 = CARTESIAN_POINT ( 'NONE',  ( 0.000000000000000000, 0.000000000000000000, 0.000000000000000000 ) ) ;
#7 = AXIS2_PLACEMENT_3D ( 'NONE', #143, #465, #99 ) ;
#8 = PLANE ( 'NONE',  #519 ) ;
#9 = CARTESIAN_POINT ( 'NONE',  ( 1.259842519685039353, 0.000000000000000000, 1.023622047244094446 ) ) ;
#10 = PERSON_AND_ORGANIZATION_ROLE ( 'design_supplier' ) ;
#11 = DIRECTION ( 'NONE',  ( 0.000000000000000000, 1.000000000000000000, 0.000000000000000000 ) ) ;
#12 = PERSON_AND_ORGANIZATION ( #491, #451 ) ;
#13 = AXIS2_PLACEMENT_3D ( 'NONE', #313, #77, #448 ) ;
#14 = CARTESIAN_POINT ( 'NONE',  ( -1.259842519685039353, 0.1574803149606299191, -1.023622047244094446 ) ) ;
#15 = VERTEX_POINT ( 'NONE', #514 ) ;
#16 = EDGE_CURVE ( 'NONE', #458, #178, #410, .T. ) ;
#17 = DIRECTION ( 'NONE',  ( 0.000000000000000000, 1.000000000000000000, 0.000000000000000000 ) ) ;
#18 = ORIENTED_EDGE ( 'NONE', *, *, #194, .T. ) ;
#19 = DIRECTION ( 'NONE',  ( 0.000000000000000000, 1.000000000000000000, 0.000000000000000000 ) ) ;
#20 = EDGE_LOOP ( 'NONE', ( #174, #389, #408, #24 ) ) ;
#21 = CYLINDRICAL_SURFACE ( 'NONE', #39, 0.07874015748031502893 ) ;
#22 = AXIS2_PLACEMENT_3D ( 'NONE', #276, #182, #135 ) ;
#23 = ADVANCED_FACE ( 'NONE', ( #52 ), #90, .F. ) ;
#24 = ORIENTED_EDGE ( 'NONE', *, *, #529, .T. ) ;
#25 = DIRECTION ( 'NONE',  ( -1.000000000000000000, 0.000000000000000000, -0.000000000000000000 ) ) ;
#26 = VERTEX_POINT ( 'NONE', #97 ) ;
#27 = CC_DESIGN_PERSON_AND_ORGANIZATION_ASSIGNMENT ( #487, #208, ( #295 ) ) ;
#28 = LINE ( 'NONE', #364, #198 ) ;
#29 = ORIENTED_EDGE ( 'NONE', *, *, #474, .T. ) ;
#30 = CIRCLE ( 'NONE', #3, 0.07874015748031509832 ) ;
#31 = CARTESIAN_POINT ( 'NONE',  ( -0.8661417322834645827, 0.000000000000000000, 0.6299212598425196763 ) ) ;
#32 = ORIENTED_EDGE ( 'NONE', *, *, #43, .T. ) ;
#33 = CIRCLE ( 'NONE', #402, 0.07874015748031502893 ) ;
#34 = EDGE_CURVE ( 'NONE', #368, #392, #430, .T. ) ;
#35 = DIRECTION ( 'NONE',  ( 1.000000000000000000, 0.000000000000000000, 0.000000000000000000 ) ) ;
#36 = ADVANCED_FACE ( 'NONE', ( #183 ), #422, .F. ) ;
#37 = ORIENTED_EDGE ( 'NONE', *, *, #305, .F. ) ;
#38 = DIRECTION ( 'NONE',  ( 0.000000000000000000, 0.000000000000000000, 1.000000000000000000 ) ) ;
#39 = AXIS2_PLACEMENT_3D ( 'NONE', #204, #210, #439 ) ;
#40 = ORIENTED_EDGE ( 'NONE', *, *, #16, .T. ) ;
#41 = FACE_OUTER_BOUND ( 'NONE', #118, .T. ) ;
#42 = ORIENTED_EDGE ( 'NONE', *, *, #589, .T. ) ;
#43 = EDGE_CURVE ( 'NONE', #497, #531, #226, .T. ) ;
#44 = CIRCLE ( 'NONE', #246, 0.07874015748031509832 ) ;
#45 = LINE ( 'NONE', #187, #401 ) ;
#46 = ORIENTED_EDGE ( 'NONE', *, *, #293, .T. ) ;
#47 = CC_DESIGN_PERSON_AND_ORGANIZATION_ASSIGNMENT ( #297, #157, ( #353 ) ) ;
#48 = DIRECTION ( 'NONE',  ( 0.000000000000000000, 1.000000000000000000, 0.000000000000000000 ) ) ;
#49 = DIRECTION ( 'NONE',  ( 0.000000000000000000, 1.000000000000000000, 0.000000000000000000 ) ) ;
#50 = APPLICATION_CONTEXT ( 'configuration controlled 3d designs of mechanical parts and assemblies' ) ;
#51 = DIRECTION ( 'NONE',  ( -0.000000000000000000, -1.000000000000000000, -0.000000000000000000 ) ) ;
#52 = FACE_OUTER_BOUND ( 'NONE', #412, .T. ) ;
#53 = FACE_BOUND ( 'NONE', #206, .T. ) ;
#54 = DIRECTION ( 'NONE',  ( 0.000000000000000000, 0.000000000000000000, -1.000000000000000000 ) ) ;
#55 = ADVANCED_FACE ( 'NONE', ( #179 ), #140, .F. ) ;
#56 = LINE ( 'NONE', #411, #245 ) ;
#57 = CARTESIAN_POINT ( 'NONE',  ( 0.8661417322834645827, 0.1574803149606299191, 0.6299212598425196763 ) ) ;
#58 = APPROVAL_STATUS ( 'not_yet_approved' ) ;
#59 = DIRECTION ( 'NONE',  ( 0.000000000000000000, 1.000000000000000000, 0.000000000000000000 ) ) ;
#60 = ORIENTED_EDGE ( 'NONE', *, *, #239, .F. ) ;
#61 = DIRECTION ( 'NONE',  ( 0.000000000000000000, 0.000000000000000000, 1.000000000000000000 ) ) ;
#62 = SECURITY_CLASSIFICATION ( '', '', #190 ) ;
#63 = AXIS2_PLACEMENT_3D ( 'NONE', #599, #367, #310 ) ;
#64 = LINE ( 'NONE', #587, #468 ) ;
#65 = ORIENTED_EDGE ( 'NONE', *, *, #207, .F. ) ;
#66 = COORDINATED_UNIVERSAL_TIME_OFFSET ( 1, 0, .AHEAD. ) ;
#67 = DIRECTION ( 'NONE',  ( -0.000000000000000000, -1.000000000000000000, -0.000000000000000000 ) ) ;
#68 = EDGE_LOOP ( 'NONE', ( #244, #323, #406, #592 ) ) ;
#69 =( NAMED_UNIT ( * ) SI_UNIT ( $, .STERADIAN. ) SOLID_ANGLE_UNIT ( ) );
#70 = DIRECTION ( 'NONE',  ( -0.000000000000000000, -0.000000000000000000, 1.000000000000000000 ) ) ;
#71 = ORIENTED_EDGE ( 'NONE', *, *, #377, .T. ) ;
#72 = DIRECTION ( 'NONE',  ( 0.000000000000000000, 0.000000000000000000, -1.000000000000000000 ) ) ;
#73 = EDGE_LOOP ( 'NONE', ( #213, #549, #65, #603 ) ) ;
#74 = APPROVAL_DATE_TIME ( #476, #242 ) ;
#75 = FACE_OUTER_BOUND ( 'NONE', #73, .T. ) ;
#76 = ORIENTED_EDGE ( 'NONE', *, *, #319, .T. ) ;
#77 = DIRECTION ( 'NONE',  ( -0.000000000000000000, -1.000000000000000000, -0.000000000000000000 ) ) ;
#78 = AXIS2_PLACEMENT_3D ( 'NONE', #538, #59, #290 ) ;
#79 = ORIENTED_EDGE ( 'NONE', *, *, #180, .F. ) ;
#80 = EDGE_CURVE ( 'NONE', #269, #161, #606, .T. ) ;
#81 = DIRECTION ( 'NONE',  ( 0.000000000000000000, 0.000000000000000000, 1.000000000000000000 ) ) ;
#82 = ORIENTED_EDGE ( 'NONE', *, *, #486, .F. ) ;
#83 = LOCAL_TIME ( 1, 38, 42.00000000000000000, #66 ) ;
#84 = DIRECTION ( 'NONE',  ( 1.000000000000000000, 0.000000000000000000, -0.000000000000000000 ) ) ;
#85 = VERTEX_POINT ( 'NONE', #277 ) ;
#86 = CARTESIAN_POINT ( 'NONE',  ( -1.259842519685039353, 0.1574803149606299191, 1.023622047244094446 ) ) ;
#87 = VECTOR ( 'NONE', #253, 39.37007874015748143 ) ;
#88 = VERTEX_POINT ( 'NONE', #230 ) ;
#89 = DIRECTION ( 'NONE',  ( 0.000000000000000000, 0.000000000000000000, 1.000000000000000000 ) ) ;
#90 = CYLINDRICAL_SURFACE ( 'NONE', #459, 0.07874015748031502893 ) ;
#91 = AXIS2_PLACEMENT_3D ( 'NONE', #186, #473, #470 ) ;
#92 = CC_DESIGN_PERSON_AND_ORGANIZATION_ASSIGNMENT ( #255, #10, ( #295 ) ) ;
#93 = VECTOR ( 'NONE', #185, 39.37007874015748143 ) ;
#94 = DIRECTION ( 'NONE',  ( 0.000000000000000000, -0.000000000000000000, -1.000000000000000000 ) ) ;
#95 = DIRECTION ( 'NONE',  ( -0.000000000000000000, -1.000000000000000000, -0.000000000000000000 ) ) ;
#96 = DIRECTION ( 'NONE',  ( 0.000000000000000000, 0.000000000000000000, 1.000000000000000000 ) ) ;
#97 = CARTESIAN_POINT ( 'NONE',  ( 0.000000000000000000, 0.1574803149606299191, -0.1968503937007874127 ) ) ;
#98 = EDGE_CURVE ( 'NONE', #312, #170, #375, .T. ) ;
#99 = DIRECTION ( 'NONE',  ( 0.000000000000000000, 0.000000000000000000, -1.000000000000000000 ) ) ;
#100 = ORIENTED_EDGE ( 'NONE', *, *, #265, .F. ) ;
#101 = CARTESIAN_POINT ( 'NONE',  ( -0.8661417322834645827, 0.000000000000000000, -0.7086614173228347191 ) ) ;
#102 = DIRECTION ( 'NONE',  ( 0.000000000000000000, 1.000000000000000000, 0.000000000000000000 ) ) ;
#103 = CARTESIAN_POINT ( 'NONE',  ( -1.259842519685039353, 0.000000000000000000, 1.023622047244094446 ) ) ;
#104 = EDGE_CURVE ( 'NONE', #588, #456, #238, .T. ) ;
#105 = DATE_AND_TIME ( #572, #532 ) ;
#106 = FACE_OUTER_BOUND ( 'NONE', #484, .T. ) ;
#107 = VECTOR ( 'NONE', #67, 39.37007874015748143 ) ;
#108 = ORIENTED_EDGE ( 'NONE', *, *, #207, .T. ) ;
#109 =( GEOMETRIC_REPRESENTATION_CONTEXT ( 3 ) GLOBAL_UNCERTAINTY_ASSIGNED_CONTEXT ( ( #309 ) ) GLOBAL_UNIT_ASSIGNED_CONTEXT ( ( #150, #490, #69 ) ) REPRESENTATION_CONTEXT ( 'NONE', 'WORKASPACE' ) );
#110 = FACE_OUTER_BOUND ( 'NONE', #264, .T. ) ;
#111 = ORIENTED_EDGE ( 'NONE', *, *, #239, .T. ) ;
#112 = PERSON_AND_ORGANIZATION_ROLE ( 'design_owner' ) ;
#113 = CARTESIAN_POINT ( 'NONE',  ( 0.8661417322834645827, 0.1574803149606299191, 0.7086614173228347191 ) ) ;
#114 = ORIENTED_EDGE ( 'NONE', *, *, #80, .T. ) ;
#115 = DATE_AND_TIME ( #162, #366 ) ;
#116 = CARTESIAN_POINT ( 'NONE',  ( -0.8661417322834645827, 0.1574803149606299191, -0.5511811023622046335 ) ) ;
#117 = EDGE_CURVE ( 'NONE', #249, #216, #566, .T. ) ;
#118 = EDGE_LOOP ( 'NONE', ( #60, #574, #362, #257 ) ) ;
#119 = CYLINDRICAL_SURFACE ( 'NONE', #137, 0.07874015748031502893 ) ;
#120 = AXIS2_PLACEMENT_3D ( 'NONE', #227, #357, #591 ) ;
#121 = ORIENTED_EDGE ( 'NONE', *, *, #145, .F. ) ;
#122 = EDGE_CURVE ( 'NONE', #15, #500, #142, .T. ) ;
#123 = DIRECTION ( 'NONE',  ( 0.000000000000000000, 0.000000000000000000, -1.000000000000000000 ) ) ;
#124 = ORIENTED_EDGE ( 'NONE', *, *, #579, .T. ) ;
#125 = FACE_OUTER_BOUND ( 'NONE', #225, .T. ) ;
#126 = ORIENTED_EDGE ( 'NONE', *, *, #485, .F. ) ;
#127 = CIRCLE ( 'NONE', #205, 0.07874015748031509832 ) ;
#128 = DIRECTION ( 'NONE',  ( 0.000000000000000000, 0.000000000000000000, 1.000000000000000000 ) ) ;
#129 = ORIENTED_EDGE ( 'NONE', *, *, #363, .F. ) ;
#130 = AXIS2_PLACEMENT_3D ( 'NONE', #299, #479, #391 ) ;
#131 = DIRECTION ( 'NONE',  ( -1.000000000000000000, -0.000000000000000000, -0.000000000000000000 ) ) ;
#132 = ORIENTED_EDGE ( 'NONE', *, *, #419, .F. ) ;
#133 = DIRECTION ( 'NONE',  ( 0.000000000000000000, 0.000000000000000000, -1.000000000000000000 ) ) ;
#134 = VERTEX_POINT ( 'NONE', #188 ) ;
#135 = DIRECTION ( 'NONE',  ( 0.000000000000000000, 0.000000000000000000, 1.000000000000000000 ) ) ;
#136 = DIRECTION ( 'NONE',  ( 0.000000000000000000, 0.000000000000000000, 1.000000000000000000 ) ) ;
#137 = AXIS2_PLACEMENT_3D ( 'NONE', #494, #446, #123 ) ;
#138 = LINE ( 'NONE', #558, #93 ) ;
#139 = EDGE_CURVE ( 'NONE', #26, #397, #155, .T. ) ;
#140 = CYLINDRICAL_SURFACE ( 'NONE', #275, 0.07874015748031502893 ) ;
#141 = FACE_OUTER_BOUND ( 'NONE', #395, .T. ) ;
#142 = LINE ( 'NONE', #9, #291 ) ;
#143 = CARTESIAN_POINT ( 'NONE',  ( -1.259842519685039353, 0.1574803149606299191, 1.023622047244094446 ) ) ;
#144 = ORIENTED_EDGE ( 'NONE', *, *, #400, .F. ) ;
#145 = EDGE_CURVE ( 'NONE', #88, #555, #30, .T. ) ;
#146 = APPROVAL_STATUS ( 'not_yet_approved' ) ;
#147 = CARTESIAN_POINT ( 'NONE',  ( 2.410722045565656070E-17, 0.1574803149606299191, 0.1968503937007874127 ) ) ;
#148 = CIRCLE ( 'NONE', #130, 0.07874015748031509832 ) ;
#149 = APPLICATION_CONTEXT ( 'configuration controlled 3d designs of mechanical parts and assemblies' ) ;
#150 =( CONVERSION_BASED_UNIT ( 'INCH', #304 ) LENGTH_UNIT ( ) NAMED_UNIT ( #262 ) );
#151 = DIRECTION ( 'NONE',  ( 0.000000000000000000, 1.000000000000000000, 0.000000000000000000 ) ) ;
#152 = APPROVAL ( #393, 'UNSPECIFIED' ) ;
#153 = ORIENTED_EDGE ( 'NONE', *, *, #485, .T. ) ;
#154 = CARTESIAN_POINT ( 'NONE',  ( -1.259842519685039353, 0.1574803149606299191, -1.023622047244094446 ) ) ;
#155 = CIRCLE ( 'NONE', #234, 0.1968503937007874127 ) ;
#156 = EDGE_LOOP ( 'NONE', ( #481, #547 ) ) ;
#157 = PERSON_AND_ORGANIZATION_ROLE ( 'creator' ) ;
#158 = AXIS2_PLACEMENT_3D ( 'NONE', #371, #287, #96 ) ;
#159 = DIRECTION ( 'NONE',  ( -0.000000000000000000, -1.000000000000000000, -0.000000000000000000 ) ) ;
#160 = EDGE_CURVE ( 'NONE', #555, #134, #383, .T. ) ;
#161 = VERTEX_POINT ( 'NONE', #280 ) ;
#162 = CALENDAR_DATE ( 2026, 10, 8 ) ;
#163 = CARTESIAN_POINT ( 'NONE',  ( -1.259842519685039353, 0.000000000000000000, -1.023622047244094446 ) ) ;
#164 = ORIENTED_EDGE ( 'NONE', *, *, #511, .F. ) ;
#165 = DIRECTION ( 'NONE',  ( 0.000000000000000000, 1.000000000000000000, 0.000000000000000000 ) ) ;
#166 = ORIENTED_EDGE ( 'NONE', *, *, #122, .F. ) ;
#167 = AXIS2_PLACEMENT_3D ( 'NONE', #387, #61, #240 ) ;
#168 = CARTESIAN_POINT ( 'NONE',  ( -1.259842519685039353, 0.1574803149606299191, -1.023622047244094446 ) ) ;
#169 = AXIS2_PLACEMENT_3D ( 'NONE', #361, #171, #403 ) ;
#170 = VERTEX_POINT ( 'NONE', #463 ) ;
#171 = DIRECTION ( 'NONE',  ( -0.000000000000000000, -1.000000000000000000, -0.000000000000000000 ) ) ;
#172 = ORIENTED_EDGE ( 'NONE', *, *, #498, .F. ) ;
#173 = CARTESIAN_POINT ( 'NONE',  ( 0.000000000000000000, 0.1574803149606299191, 0.000000000000000000 ) ) ;
#174 = ORIENTED_EDGE ( 'NONE', *, *, #122, .T. ) ;
#175 = DIRECTION ( 'NONE',  ( 0.000000000000000000, 0.000000000000000000, 1.000000000000000000 ) ) ;
#176 = ORIENTED_EDGE ( 'NONE', *, *, #293, .F. ) ;
#177 = CARTESIAN_POINT ( 'NONE',  ( -0.8661417322834645827, 0.1574803149606299191, 0.5511811023622046335 ) ) ;
#178 = VERTEX_POINT ( 'NONE', #113 ) ;
#179 = FACE_OUTER_BOUND ( 'NONE', #440, .T. ) ;
#180 = EDGE_CURVE ( 'NONE', #161, #269, #418, .T. ) ;
#181 = AXIS2_PLACEMENT_3D ( 'NONE', #199, #196, #385 ) ;
#182 = DIRECTION ( 'NONE',  ( 0.000000000000000000, 1.000000000000000000, 0.000000000000000000 ) ) ;
#183 = FACE_OUTER_BOUND ( 'NONE', #316, .T. ) ;
#184 = AXIS2_PLACEMENT_3D ( 'NONE', #14, #128, #84 ) ;
#185 = DIRECTION ( 'NONE',  ( 1.000000000000000000, 0.000000000000000000, 0.000000000000000000 ) ) ;
#186 = CARTESIAN_POINT ( 'NONE',  ( -0.8661417322834645827, 0.000000000000000000, -0.6299212598425196763 ) ) ;
#187 = CARTESIAN_POINT ( 'NONE',  ( 1.259842519685039353, 0.1574803149606299191, 1.023622047244094446 ) ) ;
#188 = CARTESIAN_POINT ( 'NONE',  ( 0.8661417322834645827, 0.000000000000000000, -0.5511811023622046335 ) ) ;
#189 = EDGE_CURVE ( 'NONE', #26, #392, #577, .T. ) ;
#190 = SECURITY_CLASSIFICATION_LEVEL ( 'unclassified' ) ;
#191 = CARTESIAN_POINT ( 'NONE',  ( 0.8661417322834645827, 0.1574803149606299191, -0.6299212598425196763 ) ) ;
#192 = AXIS2_PLACEMENT_3D ( 'NONE', #6, #2, #136 ) ;
#193 = CIRCLE ( 'NONE', #63, 0.07874015748031502893 ) ;
#194 = EDGE_CURVE ( 'NONE', #531, #497, #217, .T. ) ;
#195 = CALENDAR_DATE ( 2026, 10, 8 ) ;
#196 = DIRECTION ( 'NONE',  ( 0.000000000000000000, 1.000000000000000000, 0.000000000000000000 ) ) ;
#197 = ORIENTED_EDGE ( 'NONE', *, *, #98, .T. ) ;
#198 = VECTOR ( 'NONE', #320, 39.37007874015748143 ) ;
#199 = CARTESIAN_POINT ( 'NONE',  ( 0.8661417322834645827, 0.1574803149606299191, 0.6299212598425196763 ) ) ;
#200 = ORIENTED_EDGE ( 'NONE', *, *, #80, .F. ) ;
#201 = PRODUCT_DEFINITION_SHAPE ( 'NONE', 'NONE',  #353 ) ;
#202 = EDGE_CURVE ( 'NONE', #500, #216, #64, .T. ) ;
#203 = PERSON_AND_ORGANIZATION ( #491, #451 ) ;
#204 = CARTESIAN_POINT ( 'NONE',  ( -0.8661417322834645827, 0.1574803149606299191, -0.6299212598425196763 ) ) ;
#205 = AXIS2_PLACEMENT_3D ( 'NONE', #444, #151, #248 ) ;
#206 = EDGE_LOOP ( 'NONE', ( #222, #71 ) ) ;
#207 = EDGE_CURVE ( 'NONE', #578, #134, #127, .T. ) ;
#208 = PERSON_AND_ORGANIZATION_ROLE ( 'creator' ) ;
#209 = CC_DESIGN_APPROVAL ( #546, ( #295 ) ) ;
#210 = DIRECTION ( 'NONE',  ( -0.000000000000000000, -1.000000000000000000, -0.000000000000000000 ) ) ;
#211 = EDGE_LOOP ( 'NONE', ( #42, #584 ) ) ;
#212 = FACE_OUTER_BOUND ( 'NONE', #505, .T. ) ;
#213 = ORIENTED_EDGE ( 'NONE', *, *, #145, .T. ) ;
#214 = EDGE_CURVE ( 'NONE', #249, #445, #302, .T. ) ;
#215 = CARTESIAN_POINT ( 'NONE',  ( -0.8661417322834645827, 0.000000000000000000, 0.7086614173228347191 ) ) ;
#216 = VERTEX_POINT ( 'NONE', #163 ) ;
#217 = CIRCLE ( 'NONE', #318, 0.07874015748031509832 ) ;
#218 = DIRECTION ( 'NONE',  ( 0.000000000000000000, 1.000000000000000000, 0.000000000000000000 ) ) ;
#219 = VECTOR ( 'NONE', #35, 39.37007874015748143 ) ;
#220 = ORIENTED_EDGE ( 'NONE', *, *, #139, .T. ) ;
#221 = DIRECTION ( 'NONE',  ( 0.000000000000000000, -1.000000000000000000, 0.000000000000000000 ) ) ;
#222 = ORIENTED_EDGE ( 'NONE', *, *, #305, .T. ) ;
#223 = VECTOR ( 'NONE', #159, 39.37007874015748143 ) ;
#224 = FACE_BOUND ( 'NONE', #156, .T. ) ;
#225 = EDGE_LOOP ( 'NONE', ( #164, #489, #600, #172 ) ) ;
#226 = CIRCLE ( 'NONE', #91, 0.07874015748031509832 ) ;
#227 = CARTESIAN_POINT ( 'NONE',  ( 0.000000000000000000, 0.1574803149606299191, 0.000000000000000000 ) ) ;
#228 = VERTEX_POINT ( 'NONE', #483 ) ;
#229 = FACE_OUTER_BOUND ( 'NONE', #503, .T. ) ;
#230 = CARTESIAN_POINT ( 'NONE',  ( 0.8661417322834645827, 0.1574803149606299191, -0.7086614173228347191 ) ) ;
#231 = EDGE_CURVE ( 'NONE', #178, #458, #551, .T. ) ;
#232 = PLANE ( 'NONE',  #7 ) ;
#233 = DIRECTION ( 'NONE',  ( 0.000000000000000000, 1.000000000000000000, 0.000000000000000000 ) ) ;
#234 = AXIS2_PLACEMENT_3D ( 'NONE', #337, #102, #288 ) ;
#235 = CARTESIAN_POINT ( 'NONE',  ( 0.000000000000000000, 0.1574803149606299191, 0.000000000000000000 ) ) ;
#236 = ORIENTED_EDGE ( 'NONE', *, *, #466, .T. ) ;
#237 = FACE_BOUND ( 'NONE', #526, .T. ) ;
#238 = LINE ( 'NONE', #568, #390 ) ;
#239 = EDGE_CURVE ( 'NONE', #397, #368, #339, .T. ) ;
#240 = DIRECTION ( 'NONE',  ( 1.000000000000000000, 0.000000000000000000, 0.000000000000000000 ) ) ;
#241 = CARTESIAN_POINT ( 'NONE',  ( 0.8661417322834645827, 0.1574803149606299191, -0.6299212598425196763 ) ) ;
#242 = APPROVAL ( #146, 'UNSPECIFIED' ) ;
#243 = CARTESIAN_POINT ( 'NONE',  ( -1.259842519685039353, 0.1574803149606299191, 1.023622047244094446 ) ) ;
#244 = ORIENTED_EDGE ( 'NONE', *, *, #601, .T. ) ;
#245 = VECTOR ( 'NONE', #416, 39.37007874015748143 ) ;
#246 = AXIS2_PLACEMENT_3D ( 'NONE', #545, #457, #81 ) ;
#247 = PERSON_AND_ORGANIZATION ( #491, #451 ) ;
#248 = DIRECTION ( 'NONE',  ( 0.000000000000000000, 0.000000000000000000, 1.000000000000000000 ) ) ;
#249 = VERTEX_POINT ( 'NONE', #154 ) ;
#250 = EDGE_CURVE ( 'NONE', #269, #531, #573, .T. ) ;
#251 = ADVANCED_FACE ( 'NONE', ( #110 ), #21, .F. ) ;
#252 = CALENDAR_DATE ( 2026, 10, 8 ) ;
#253 = DIRECTION ( 'NONE',  ( -0.000000000000000000, -1.000000000000000000, -0.000000000000000000 ) ) ;
#254 = ORIENTED_EDGE ( 'NONE', *, *, #260, .F. ) ;
#255 = PERSON_AND_ORGANIZATION ( #491, #451 ) ;
#256 = CYLINDRICAL_SURFACE ( 'NONE', #475, 0.07874015748031502893 ) ;
#257 = ORIENTED_EDGE ( 'NONE', *, *, #34, .F. ) ;
#258 = AXIS2_PLACEMENT_3D ( 'NONE', #1, #506, #89 ) ;
#259 = CARTESIAN_POINT ( 'NONE',  ( 1.259842519685039353, 0.1574803149606299191, 1.023622047244094446 ) ) ;
#260 = EDGE_CURVE ( 'NONE', #161, #497, #388, .T. ) ;
#261 = VERTEX_POINT ( 'NONE', #292 ) ;
#262 = DIMENSIONAL_EXPONENTS ( 1.000000000000000000, 0.000000000000000000, 0.000000000000000000, 0.000000000000000000, 0.000000000000000000, 0.000000000000000000, 0.000000000000000000 ) ;
#263 = FACE_BOUND ( 'NONE', #608, .T. ) ;
#264 = EDGE_LOOP ( 'NONE', ( #282, #564, #536, #254 ) ) ;
#265 = EDGE_CURVE ( 'NONE', #555, #88, #148, .T. ) ;
#266 = FACE_BOUND ( 'NONE', #370, .T. ) ;
#267 = ORIENTED_EDGE ( 'NONE', *, *, #231, .F. ) ;
#268 = DIRECTION ( 'NONE',  ( 0.000000000000000000, 0.000000000000000000, 1.000000000000000000 ) ) ;
#269 = VERTEX_POINT ( 'NONE', #582 ) ;
#270 = CARTESIAN_POINT ( 'NONE',  ( 0.000000000000000000, 0.000000000000000000, -0.1968503937007874127 ) ) ;
#271 = MANIFOLD_SOLID_BREP ( 'Plate_Extrude', #569 ) ;
#272 = ORIENTED_EDGE ( 'NONE', *, *, #260, .T. ) ;
#273 = CARTESIAN_POINT ( 'NONE',  ( 2.410722045565656070E-17, 0.1574803149606299191, 0.1968503937007874127 ) ) ;
#274 = EDGE_LOOP ( 'NONE', ( #386, #267 ) ) ;
#275 = AXIS2_PLACEMENT_3D ( 'NONE', #57, #379, #54 ) ;
#276 = CARTESIAN_POINT ( 'NONE',  ( -0.8661417322834645827, 0.1574803149606299191, 0.6299212598425196763 ) ) ;
#277 = CARTESIAN_POINT ( 'NONE',  ( -1.259842519685039353, 0.000000000000000000, 1.023622047244094446 ) ) ;
#278 = VECTOR ( 'NONE', #131, 39.37007874015748143 ) ;
#279 = CARTESIAN_POINT ( 'NONE',  ( 1.259842519685039353, 0.1574803149606299191, -1.023622047244094446 ) ) ;
#280 = CARTESIAN_POINT ( 'NONE',  ( -0.8661417322834645827, 0.1574803149606299191, -0.7086614173228347191 ) ) ;
#281 = CARTESIAN_POINT ( 'NONE',  ( -0.8661417322834645827, 0.1574803149606299191, 0.7086614173228347191 ) ) ;
#282 = ORIENTED_EDGE ( 'NONE', *, *, #180, .T. ) ;
#283 = FACE_BOUND ( 'NONE', #450, .T. ) ;
#284 = ADVANCED_BREP_SHAPE_REPRESENTATION ( '13_AS5600_Bracket', ( #271, #167 ), #109 ) ;
#285 = CARTESIAN_POINT ( 'NONE',  ( -0.8661417322834645827, 0.1574803149606299191, -0.6299212598425196763 ) ) ;
#286 = LOCAL_TIME ( 1, 38, 42.00000000000000000, #289 ) ;
#287 = DIRECTION ( 'NONE',  ( -1.000000000000000000, 0.000000000000000000, 0.000000000000000000 ) ) ;
#288 = DIRECTION ( 'NONE',  ( 0.000000000000000000, 0.000000000000000000, 1.000000000000000000 ) ) ;
#289 = COORDINATED_UNIVERSAL_TIME_OFFSET ( 1, 0, .AHEAD. ) ;
#290 = DIRECTION ( 'NONE',  ( 0.000000000000000000, 0.000000000000000000, 1.000000000000000000 ) ) ;
#291 = VECTOR ( 'NONE', #559, 39.37007874015748143 ) ;
#292 = CARTESIAN_POINT ( 'NONE',  ( 0.8661417322834645827, 0.000000000000000000, 0.5511811023622046335 ) ) ;
#293 = EDGE_CURVE ( 'NONE', #216, #85, #488, .T. ) ;
#294 = ORIENTED_EDGE ( 'NONE', *, *, #359, .F. ) ;
#295 = PRODUCT_DEFINITION_FORMATION_WITH_SPECIFIED_SOURCE ( 'ANY', '', #477, .NOT_KNOWN. ) ;
#296 = ADVANCED_FACE ( 'NONE', ( #106 ), #256, .F. ) ;
#297 = PERSON_AND_ORGANIZATION ( #491, #451 ) ;
#298 = CIRCLE ( 'NONE', #384, 0.1968503937007874127 ) ;
#299 = CARTESIAN_POINT ( 'NONE',  ( 0.8661417322834645827, 0.1574803149606299191, -0.6299212598425196763 ) ) ;
#300 = ORIENTED_EDGE ( 'NONE', *, *, #529, .F. ) ;
#301 = DATE_TIME_ROLE ( 'creation_date' ) ;
#302 = LINE ( 'NONE', #436, #527 ) ;
#303 = ORIENTED_EDGE ( 'NONE', *, *, #250, .F. ) ;
#304 = LENGTH_MEASURE_WITH_UNIT ( LENGTH_MEASURE( 0.02539999999999999897 ), #563 );
#305 = EDGE_CURVE ( 'NONE', #261, #228, #590, .T. ) ;
#306 = CARTESIAN_POINT ( 'NONE',  ( -0.8661417322834645827, 0.1574803149606299191, -0.6299212598425196763 ) ) ;
#307 = ORIENTED_EDGE ( 'NONE', *, *, #194, .F. ) ;
#308 = AXIS2_PLACEMENT_3D ( 'NONE', #461, #233, #507 ) ;
#309 = UNCERTAINTY_MEASURE_WITH_UNIT (LENGTH_MEASURE( 1.000000000000000082E-05 ), #150, 'distance_accuracy_value', 'NONE');
#310 = DIRECTION ( 'NONE',  ( 0.000000000000000000, 0.000000000000000000, 1.000000000000000000 ) ) ;
#311 = ADVANCED_FACE ( 'NONE', ( #492 ), #478, .F. ) ;
#312 = VERTEX_POINT ( 'NONE', #259 ) ;
#313 = CARTESIAN_POINT ( 'NONE',  ( -0.8661417322834645827, 0.1574803149606299191, 0.6299212598425196763 ) ) ;
#314 = EDGE_LOOP ( 'NONE', ( #220, #111, #557, #344 ) ) ;
#315 = FACE_BOUND ( 'NONE', #443, .T. ) ;
#316 = EDGE_LOOP ( 'NONE', ( #303, #114, #272, #307 ) ) ;
#317 = ADVANCED_FACE ( 'NONE', ( #212 ), #396, .F. ) ;
#318 = AXIS2_PLACEMENT_3D ( 'NONE', #340, #17, #343 ) ;
#319 = EDGE_CURVE ( 'NONE', #178, #228, #28, .T. ) ;
#320 = DIRECTION ( 'NONE',  ( -0.000000000000000000, -1.000000000000000000, -0.000000000000000000 ) ) ;
#321 = EDGE_LOOP ( 'NONE', ( #32, #18 ) ) ;
#322 = CARTESIAN_POINT ( 'NONE',  ( -0.8661417322834645827, 0.000000000000000000, 0.5511811023622046335 ) ) ;
#323 = ORIENTED_EDGE ( 'NONE', *, *, #511, .T. ) ;
#324 = VECTOR ( 'NONE', #525, 39.37007874015748143 ) ;
#325 = CARTESIAN_POINT ( 'NONE',  ( -0.8661417322834645827, 0.000000000000000000, -0.5511811023622046335 ) ) ;
#326 = EDGE_CURVE ( 'NONE', #327, #588, #33, .T. ) ;
#327 = VERTEX_POINT ( 'NONE', #550 ) ;
#328 = APPROVAL_PERSON_ORGANIZATION ( #570, #242, #338 ) ;
#329 = DIRECTION ( 'NONE',  ( 0.000000000000000000, 0.000000000000000000, 1.000000000000000000 ) ) ;
#330 = PRODUCT_RELATED_PRODUCT_CATEGORY ( 'detail', '', ( #477 ) ) ;
#331 = ORIENTED_EDGE ( 'NONE', *, *, #117, .T. ) ;
#332 = CARTESIAN_POINT ( 'NONE',  ( -0.8661417322834645827, 0.000000000000000000, 0.6299212598425196763 ) ) ;
#333 = DIRECTION ( 'NONE',  ( 0.000000000000000000, 0.000000000000000000, -1.000000000000000000 ) ) ;
#334 = LINE ( 'NONE', #281, #501 ) ;
#335 = DIRECTION ( 'NONE',  ( 0.000000000000000000, 0.000000000000000000, -1.000000000000000000 ) ) ;
#336 = CARTESIAN_POINT ( 'NONE',  ( 0.000000000000000000, 0.000000000000000000, 0.000000000000000000 ) ) ;
#337 = CARTESIAN_POINT ( 'NONE',  ( 0.000000000000000000, 0.1574803149606299191, 0.000000000000000000 ) ) ;
#338 = APPROVAL_ROLE ( '' ) ;
#339 = LINE ( 'NONE', #147, #87 ) ;
#340 = CARTESIAN_POINT ( 'NONE',  ( -0.8661417322834645827, 0.000000000000000000, -0.6299212598425196763 ) ) ;
#341 = ORIENTED_EDGE ( 'NONE', *, *, #139, .F. ) ;
#342 = AXIS2_PLACEMENT_3D ( 'NONE', #520, #49, #610 ) ;
#343 = DIRECTION ( 'NONE',  ( 0.000000000000000000, 0.000000000000000000, 1.000000000000000000 ) ) ;
#344 = ORIENTED_EDGE ( 'NONE', *, *, #189, .F. ) ;
#345 = APPROVAL_PERSON_ORGANIZATION ( #247, #152, #350 ) ;
#346 = CALENDAR_DATE ( 2026, 10, 8 ) ;
#347 = VECTOR ( 'NONE', #51, 39.37007874015748143 ) ;
#348 = DIRECTION ( 'NONE',  ( -0.000000000000000000, -0.000000000000000000, 1.000000000000000000 ) ) ;
#349 = ORIENTED_EDGE ( 'NONE', *, *, #214, .F. ) ;
#350 = APPROVAL_ROLE ( '' ) ;
#351 = DIRECTION ( 'NONE',  ( -0.000000000000000000, -1.000000000000000000, -0.000000000000000000 ) ) ;
#352 = ORIENTED_EDGE ( 'NONE', *, *, #377, .F. ) ;
#353 = PRODUCT_DEFINITION ( 'UNKNOWN', '', #295, #586 ) ;
#354 = LINE ( 'NONE', #86, #219 ) ;
#355 = ORIENTED_EDGE ( 'NONE', *, *, #319, .F. ) ;
#356 = AXIS2_PLACEMENT_3D ( 'NONE', #31, #218, #268 ) ;
#357 = DIRECTION ( 'NONE',  ( -0.000000000000000000, -1.000000000000000000, -0.000000000000000000 ) ) ;
#358 = EDGE_LOOP ( 'NONE', ( #153, #300, #129, #124 ) ) ;
#359 = EDGE_CURVE ( 'NONE', #134, #578, #44, .T. ) ;
#360 = ADVANCED_FACE ( 'NONE', ( #595, #315, #224, #604, #263, #266 ), #452, .F. ) ;
#361 = CARTESIAN_POINT ( 'NONE',  ( -0.8661417322834645827, 0.1574803149606299191, 0.6299212598425196763 ) ) ;
#362 = ORIENTED_EDGE ( 'NONE', *, *, #189, .T. ) ;
#363 = EDGE_CURVE ( 'NONE', #445, #312, #354, .T. ) ;
#364 = CARTESIAN_POINT ( 'NONE',  ( 0.8661417322834645827, 0.1574803149606299191, 0.7086614173228347191 ) ) ;
#365 = ORIENTED_EDGE ( 'NONE', *, *, #160, .F. ) ;
#366 = LOCAL_TIME ( 1, 38, 42.00000000000000000, #537 ) ;
#367 = DIRECTION ( 'NONE',  ( 0.000000000000000000, 1.000000000000000000, 0.000000000000000000 ) ) ;
#368 = VERTEX_POINT ( 'NONE', #496 ) ;
#369 = PLANE ( 'NONE',  #158 ) ;
#370 = EDGE_LOOP ( 'NONE', ( #121, #100 ) ) ;
#371 = CARTESIAN_POINT ( 'NONE',  ( 1.259842519685039353, 0.1574803149606299191, 1.023622047244094446 ) ) ;
#372 = DIRECTION ( 'NONE',  ( -0.000000000000000000, -1.000000000000000000, -0.000000000000000000 ) ) ;
#373 = AXIS2_PLACEMENT_3D ( 'NONE', #306, #19, #535 ) ;
#374 = FACE_OUTER_BOUND ( 'NONE', #314, .T. ) ;
#375 = LINE ( 'NONE', #512, #560 ) ;
#376 = LINE ( 'NONE', #609, #347 ) ;
#377 = EDGE_CURVE ( 'NONE', #228, #261, #193, .T. ) ;
#378 = ADVANCED_FACE ( 'NONE', ( #502 ), #405, .F. ) ;
#379 = DIRECTION ( 'NONE',  ( -0.000000000000000000, -1.000000000000000000, -0.000000000000000000 ) ) ;
#380 = DIRECTION ( 'NONE',  ( -0.000000000000000000, -1.000000000000000000, -0.000000000000000000 ) ) ;
#381 = DIRECTION ( 'NONE',  ( -0.000000000000000000, -1.000000000000000000, -0.000000000000000000 ) ) ;
#382 = DATE_TIME_ROLE ( 'classification_date' ) ;
#383 = LINE ( 'NONE', #571, #580 ) ;
#384 = AXIS2_PLACEMENT_3D ( 'NONE', #553, #455, #38 ) ;
#385 = DIRECTION ( 'NONE',  ( 0.000000000000000000, 0.000000000000000000, 1.000000000000000000 ) ) ;
#386 = ORIENTED_EDGE ( 'NONE', *, *, #16, .F. ) ;
#387 = CARTESIAN_POINT ( 'NONE',  ( 0.000000000000000000, 0.000000000000000000, 0.000000000000000000 ) ) ;
#388 = LINE ( 'NONE', #394, #324 ) ;
#389 = ORIENTED_EDGE ( 'NONE', *, *, #474, .F. ) ;
#390 = VECTOR ( 'NONE', #372, 39.37007874015748143 ) ;
#391 = DIRECTION ( 'NONE',  ( 0.000000000000000000, 0.000000000000000000, 1.000000000000000000 ) ) ;
#392 = VERTEX_POINT ( 'NONE', #270 ) ;
#393 = APPROVAL_STATUS ( 'not_yet_approved' ) ;
#394 = CARTESIAN_POINT ( 'NONE',  ( -0.8661417322834645827, 0.1574803149606299191, -0.7086614173228347191 ) ) ;
#395 = EDGE_LOOP ( 'NONE', ( #46, #433, #349, #331 ) ) ;
#396 = PLANE ( 'NONE',  #184 ) ;
#397 = VERTEX_POINT ( 'NONE', #273 ) ;
#398 = CARTESIAN_POINT ( 'NONE',  ( -1.259842519685039353, 0.1574803149606299191, 1.023622047244094446 ) ) ;
#399 = ORIENTED_EDGE ( 'NONE', *, *, #202, .T. ) ;
#400 = EDGE_CURVE ( 'NONE', #397, #26, #298, .T. ) ;
#401 = VECTOR ( 'NONE', #567, 39.37007874015748143 ) ;
#402 = AXIS2_PLACEMENT_3D ( 'NONE', #602, #165, #175 ) ;
#403 = DIRECTION ( 'NONE',  ( 0.000000000000000000, 0.000000000000000000, -1.000000000000000000 ) ) ;
#404 = ORIENTED_EDGE ( 'NONE', *, *, #363, .T. ) ;
#405 = CYLINDRICAL_SURFACE ( 'NONE', #169, 0.07874015748031502893 ) ;
#406 = ORIENTED_EDGE ( 'NONE', *, *, #466, .F. ) ;
#407 = LINE ( 'NONE', #168, #278 ) ;
#408 = ORIENTED_EDGE ( 'NONE', *, *, #98, .F. ) ;
#409 = ADVANCED_FACE ( 'NONE', ( #41 ), #541, .F. ) ;
#410 = CIRCLE ( 'NONE', #308, 0.07874015748031502893 ) ;
#411 = CARTESIAN_POINT ( 'NONE',  ( -1.259842519685039353, 0.1574803149606299191, 1.023622047244094446 ) ) ;
#412 = EDGE_LOOP ( 'NONE', ( #365, #447, #437, #294 ) ) ;
#413 = CC_DESIGN_DATE_AND_TIME_ASSIGNMENT ( #524, #301, ( #353 ) ) ;
#414 = LINE ( 'NONE', #460, #432 ) ;
#415 = CARTESIAN_POINT ( 'NONE',  ( -1.259842519685039353, 0.1574803149606299191, -1.023622047244094446 ) ) ;
#416 = DIRECTION ( 'NONE',  ( -0.000000000000000000, -1.000000000000000000, -0.000000000000000000 ) ) ;
#417 = ORIENTED_EDGE ( 'NONE', *, *, #231, .T. ) ;
#418 = CIRCLE ( 'NONE', #373, 0.07874015748031509832 ) ;
#419 = EDGE_CURVE ( 'NONE', #170, #249, #407, .T. ) ;
#420 = FACE_OUTER_BOUND ( 'NONE', #20, .T. ) ;
#421 = LOCAL_TIME ( 1, 38, 42.00000000000000000, #581 ) ;
#422 = CYLINDRICAL_SURFACE ( 'NONE', #542, 0.07874015748031502893 ) ;
#423 = AXIS2_PLACEMENT_3D ( 'NONE', #332, #48, #424 ) ;
#424 = DIRECTION ( 'NONE',  ( 0.000000000000000000, 0.000000000000000000, 1.000000000000000000 ) ) ;
#425 = DIRECTION ( 'NONE',  ( -0.000000000000000000, -1.000000000000000000, -0.000000000000000000 ) ) ;
#426 = APPROVAL_DATE_TIME ( #534, #546 ) ;
#427 = DIRECTION ( 'NONE',  ( -0.000000000000000000, -1.000000000000000000, -0.000000000000000000 ) ) ;
#428 = ADVANCED_FACE ( 'NONE', ( #75 ), #119, .F. ) ;
#429 = APPLICATION_PROTOCOL_DEFINITION ( 'international standard', 'config_control_design', 1994, #50 ) ;
#430 = CIRCLE ( 'NONE', #192, 0.1968503937007874127 ) ;
#431 = DIRECTION ( 'NONE',  ( -1.000000000000000000, -0.000000000000000000, -0.000000000000000000 ) ) ;
#432 = VECTOR ( 'NONE', #380, 39.37007874015748143 ) ;
#433 = ORIENTED_EDGE ( 'NONE', *, *, #579, .F. ) ;
#434 = CC_DESIGN_DATE_AND_TIME_ASSIGNMENT ( #115, #382, ( #62 ) ) ;
#435 = APPLICATION_PROTOCOL_DEFINITION ( 'international standard', 'config_control_design', 1994, #149 ) ;
#436 = CARTESIAN_POINT ( 'NONE',  ( -1.259842519685039353, 0.1574803149606299191, 1.023622047244094446 ) ) ;
#437 = ORIENTED_EDGE ( 'NONE', *, *, #517, .T. ) ;
#438 = APPROVAL_ROLE ( '' ) ;
#439 = DIRECTION ( 'NONE',  ( 0.000000000000000000, 0.000000000000000000, -1.000000000000000000 ) ) ;
#440 = EDGE_LOOP ( 'NONE', ( #355, #417, #516, #352 ) ) ;
#441 = COORDINATED_UNIVERSAL_TIME_OFFSET ( 1, 0, .AHEAD. ) ;
#442 = CARTESIAN_POINT ( 'NONE',  ( 0.8661417322834645827, 0.1574803149606299191, 0.6299212598425196763 ) ) ;
#443 = EDGE_LOOP ( 'NONE', ( #341, #144 ) ) ;
#444 = CARTESIAN_POINT ( 'NONE',  ( 0.8661417322834645827, 0.000000000000000000, -0.6299212598425196763 ) ) ;
#445 = VERTEX_POINT ( 'NONE', #398 ) ;
#446 = DIRECTION ( 'NONE',  ( -0.000000000000000000, -1.000000000000000000, -0.000000000000000000 ) ) ;
#447 = ORIENTED_EDGE ( 'NONE', *, *, #265, .T. ) ;
#448 = DIRECTION ( 'NONE',  ( 0.000000000000000000, 0.000000000000000000, -1.000000000000000000 ) ) ;
#449 = VECTOR ( 'NONE', #425, 39.37007874015748143 ) ;
#450 = EDGE_LOOP ( 'NONE', ( #236, #539 ) ) ;
#451 = ORGANIZATION ( 'UNSPECIFIED', 'UNSPECIFIED', '' ) ;
#452 = PLANE ( 'NONE',  #598 ) ;
#453 = AXIS2_PLACEMENT_3D ( 'NONE', #243, #72, #25 ) ;
#454 = VERTEX_POINT ( 'NONE', #215 ) ;
#455 = DIRECTION ( 'NONE',  ( 0.000000000000000000, 1.000000000000000000, 0.000000000000000000 ) ) ;
#456 = VERTEX_POINT ( 'NONE', #322 ) ;
#457 = DIRECTION ( 'NONE',  ( 0.000000000000000000, 1.000000000000000000, 0.000000000000000000 ) ) ;
#458 = VERTEX_POINT ( 'NONE', #548 ) ;
#459 = AXIS2_PLACEMENT_3D ( 'NONE', #191, #427, #335 ) ;
#460 = CARTESIAN_POINT ( 'NONE',  ( 0.8661417322834645827, 0.1574803149606299191, 0.5511811023622046335 ) ) ;
#461 = CARTESIAN_POINT ( 'NONE',  ( 0.8661417322834645827, 0.1574803149606299191, 0.6299212598425196763 ) ) ;
#462 = CARTESIAN_POINT ( 'NONE',  ( 0.8661417322834645827, 0.000000000000000000, -0.7086614173228347191 ) ) ;
#463 = CARTESIAN_POINT ( 'NONE',  ( 1.259842519685039353, 0.1574803149606299191, -1.023622047244094446 ) ) ;
#464 = ADVANCED_FACE ( 'NONE', ( #125 ), #504, .F. ) ;
#465 = DIRECTION ( 'NONE',  ( 1.000000000000000000, -0.000000000000000000, 0.000000000000000000 ) ) ;
#466 = EDGE_CURVE ( 'NONE', #456, #454, #562, .T. ) ;
#467 = DIRECTION ( 'NONE',  ( 0.000000000000000000, 0.000000000000000000, -1.000000000000000000 ) ) ;
#468 = VECTOR ( 'NONE', #431, 39.37007874015748143 ) ;
#469 = FACE_BOUND ( 'NONE', #211, .T. ) ;
#470 = DIRECTION ( 'NONE',  ( 0.000000000000000000, 0.000000000000000000, 1.000000000000000000 ) ) ;
#471 = VECTOR ( 'NONE', #70, 39.37007874015748143 ) ;
#472 = FACE_BOUND ( 'NONE', #321, .T. ) ;
#473 = DIRECTION ( 'NONE',  ( 0.000000000000000000, 1.000000000000000000, 0.000000000000000000 ) ) ;
#474 = EDGE_CURVE ( 'NONE', #170, #500, #510, .T. ) ;
#475 = AXIS2_PLACEMENT_3D ( 'NONE', #442, #351, #522 ) ;
#476 = DATE_AND_TIME ( #195, #286 ) ;
#477 = PRODUCT ( '13_AS5600_Bracket', '13_AS5600_Bracket', '', ( #482 ) ) ;
#478 = PLANE ( 'NONE',  #453 ) ;
#479 = DIRECTION ( 'NONE',  ( 0.000000000000000000, 1.000000000000000000, 0.000000000000000000 ) ) ;
#480 = CC_DESIGN_APPROVAL ( #152, ( #353 ) ) ;
#481 = ORIENTED_EDGE ( 'NONE', *, *, #601, .F. ) ;
#482 = MECHANICAL_CONTEXT ( 'NONE', #149, 'mechanical' ) ;
#483 = CARTESIAN_POINT ( 'NONE',  ( 0.8661417322834645827, 0.000000000000000000, 0.7086614173228347191 ) ) ;
#484 = EDGE_LOOP ( 'NONE', ( #40, #76, #37, #82 ) ) ;
#485 = EDGE_CURVE ( 'NONE', #85, #15, #138, .T. ) ;
#486 = EDGE_CURVE ( 'NONE', #458, #261, #414, .T. ) ;
#487 = PERSON_AND_ORGANIZATION ( #491, #451 ) ;
#488 = LINE ( 'NONE', #103, #471 ) ;
#489 = ORIENTED_EDGE ( 'NONE', *, *, #326, .T. ) ;
#490 =( NAMED_UNIT ( * ) PLANE_ANGLE_UNIT ( ) SI_UNIT ( $, .RADIAN. ) );
#491 = PERSON ( 'UNSPECIFIED', 'UNSPECIFIED', 'UNSPECIFIED', ('UNSPECIFIED'), ('UNSPECIFIED'), ('UNSPECIFIED') ) ;
#492 = FACE_OUTER_BOUND ( 'NONE', #358, .T. ) ;
#493 = ORIENTED_EDGE ( 'NONE', *, *, #214, .T. ) ;
#494 = CARTESIAN_POINT ( 'NONE',  ( 0.8661417322834645827, 0.1574803149606299191, -0.6299212598425196763 ) ) ;
#495 = ORIENTED_EDGE ( 'NONE', *, *, #359, .T. ) ;
#496 = CARTESIAN_POINT ( 'NONE',  ( 2.410722045565656070E-17, 0.000000000000000000, 0.1968503937007874127 ) ) ;
#497 = VERTEX_POINT ( 'NONE', #101 ) ;
#498 = EDGE_CURVE ( 'NONE', #454, #456, #509, .T. ) ;
#499 = DIRECTION ( 'NONE',  ( 0.000000000000000000, -0.000000000000000000, -1.000000000000000000 ) ) ;
#500 = VERTEX_POINT ( 'NONE', #513 ) ;
#501 = VECTOR ( 'NONE', #515, 39.37007874015748143 ) ;
#502 = FACE_OUTER_BOUND ( 'NONE', #68, .T. ) ;
#503 = EDGE_LOOP ( 'NONE', ( #176, #543, #166, #126 ) ) ;
#504 = CYLINDRICAL_SURFACE ( 'NONE', #13, 0.07874015748031502893 ) ;
#505 = EDGE_LOOP ( 'NONE', ( #399, #552, #132, #29 ) ) ;
#506 = DIRECTION ( 'NONE',  ( 0.000000000000000000, 1.000000000000000000, 0.000000000000000000 ) ) ;
#507 = DIRECTION ( 'NONE',  ( 0.000000000000000000, 0.000000000000000000, 1.000000000000000000 ) ) ;
#508 = APPROVAL_PERSON_ORGANIZATION ( #203, #546, #438 ) ;
#509 = CIRCLE ( 'NONE', #423, 0.07874015748031502893 ) ;
#510 = LINE ( 'NONE', #279, #544 ) ;
#511 = EDGE_CURVE ( 'NONE', #327, #454, #334, .T. ) ;
#512 = CARTESIAN_POINT ( 'NONE',  ( 1.259842519685039353, 0.1574803149606299191, 1.023622047244094446 ) ) ;
#513 = CARTESIAN_POINT ( 'NONE',  ( 1.259842519685039353, 0.000000000000000000, -1.023622047244094446 ) ) ;
#514 = CARTESIAN_POINT ( 'NONE',  ( 1.259842519685039353, 0.000000000000000000, 1.023622047244094446 ) ) ;
#515 = DIRECTION ( 'NONE',  ( -0.000000000000000000, -1.000000000000000000, -0.000000000000000000 ) ) ;
#516 = ORIENTED_EDGE ( 'NONE', *, *, #486, .T. ) ;
#517 = EDGE_CURVE ( 'NONE', #88, #578, #376, .T. ) ;
#518 = DIRECTION ( 'NONE',  ( 0.000000000000000000, -1.000000000000000000, 0.000000000000000000 ) ) ;
#519 = AXIS2_PLACEMENT_3D ( 'NONE', #336, #518, #94 ) ;
#520 = CARTESIAN_POINT ( 'NONE',  ( -0.8661417322834645827, 0.1574803149606299191, -0.6299212598425196763 ) ) ;
#521 = APPROVAL_DATE_TIME ( #105, #152 ) ;
#522 = DIRECTION ( 'NONE',  ( 0.000000000000000000, 0.000000000000000000, -1.000000000000000000 ) ) ;
#523 = CC_DESIGN_PERSON_AND_ORGANIZATION_ASSIGNMENT ( #576, #112, ( #477 ) ) ;
#524 = DATE_AND_TIME ( #252, #83 ) ;
#525 = DIRECTION ( 'NONE',  ( -0.000000000000000000, -1.000000000000000000, -0.000000000000000000 ) ) ;
#526 = EDGE_LOOP ( 'NONE', ( #108, #495 ) ) ;
#527 = VECTOR ( 'NONE', #348, 39.37007874015748143 ) ;
#528 = CARTESIAN_POINT ( 'NONE',  ( 0.000000000000000000, 0.1574803149606299191, -0.1968503937007874127 ) ) ;
#529 = EDGE_CURVE ( 'NONE', #312, #15, #45, .T. ) ;
#530 = CIRCLE ( 'NONE', #22, 0.07874015748031502893 ) ;
#531 = VERTEX_POINT ( 'NONE', #325 ) ;
#532 = LOCAL_TIME ( 1, 38, 42.00000000000000000, #441 ) ;
#533 = ADVANCED_FACE ( 'NONE', ( #374 ), #565, .F. ) ;
#534 = DATE_AND_TIME ( #346, #421 ) ;
#535 = DIRECTION ( 'NONE',  ( 0.000000000000000000, 0.000000000000000000, 1.000000000000000000 ) ) ;
#536 = ORIENTED_EDGE ( 'NONE', *, *, #43, .F. ) ;
#537 = COORDINATED_UNIVERSAL_TIME_OFFSET ( 1, 0, .AHEAD. ) ;
#538 = CARTESIAN_POINT ( 'NONE',  ( 0.8661417322834645827, 0.000000000000000000, 0.6299212598425196763 ) ) ;
#539 = ORIENTED_EDGE ( 'NONE', *, *, #498, .T. ) ;
#540 = ADVANCED_FACE ( 'NONE', ( #141 ), #232, .F. ) ;
#541 = CYLINDRICAL_SURFACE ( 'NONE', #120, 0.1968503937007874127 ) ;
#542 = AXIS2_PLACEMENT_3D ( 'NONE', #285, #381, #467 ) ;
#543 = ORIENTED_EDGE ( 'NONE', *, *, #202, .F. ) ;
#544 = VECTOR ( 'NONE', #607, 39.37007874015748143 ) ;
#545 = CARTESIAN_POINT ( 'NONE',  ( 0.8661417322834645827, 0.000000000000000000, -0.6299212598425196763 ) ) ;
#546 = APPROVAL ( #58, 'UNSPECIFIED' ) ;
#547 = ORIENTED_EDGE ( 'NONE', *, *, #326, .F. ) ;
#548 = CARTESIAN_POINT ( 'NONE',  ( 0.8661417322834645827, 0.1574803149606299191, 0.5511811023622046335 ) ) ;
#549 = ORIENTED_EDGE ( 'NONE', *, *, #160, .T. ) ;
#550 = CARTESIAN_POINT ( 'NONE',  ( -0.8661417322834645827, 0.1574803149606299191, 0.7086614173228347191 ) ) ;
#551 = CIRCLE ( 'NONE', #181, 0.07874015748031502893 ) ;
#552 = ORIENTED_EDGE ( 'NONE', *, *, #117, .F. ) ;
#553 = CARTESIAN_POINT ( 'NONE',  ( 0.000000000000000000, 0.1574803149606299191, 0.000000000000000000 ) ) ;
#554 = ADVANCED_FACE ( 'NONE', ( #420 ), #369, .F. ) ;
#555 = VERTEX_POINT ( 'NONE', #5 ) ;
#556 = DIRECTION ( 'NONE',  ( -0.000000000000000000, -1.000000000000000000, -0.000000000000000000 ) ) ;
#557 = ORIENTED_EDGE ( 'NONE', *, *, #589, .F. ) ;
#558 = CARTESIAN_POINT ( 'NONE',  ( -1.259842519685039353, 0.000000000000000000, 1.023622047244094446 ) ) ;
#559 = DIRECTION ( 'NONE',  ( 0.000000000000000000, 0.000000000000000000, -1.000000000000000000 ) ) ;
#560 = VECTOR ( 'NONE', #333, 39.37007874015748143 ) ;
#561 = CC_DESIGN_SECURITY_CLASSIFICATION ( #62, ( #295 ) ) ;
#562 = CIRCLE ( 'NONE', #356, 0.07874015748031502893 ) ;
#563 =( LENGTH_UNIT ( ) NAMED_UNIT ( * ) SI_UNIT ( $, .METRE. ) );
#564 = ORIENTED_EDGE ( 'NONE', *, *, #250, .T. ) ;
#565 = CYLINDRICAL_SURFACE ( 'NONE', #4, 0.1968503937007874127 ) ;
#566 = LINE ( 'NONE', #415, #449 ) ;
#567 = DIRECTION ( 'NONE',  ( -0.000000000000000000, -1.000000000000000000, -0.000000000000000000 ) ) ;
#568 = CARTESIAN_POINT ( 'NONE',  ( -0.8661417322834645827, 0.1574803149606299191, 0.5511811023622046335 ) ) ;
#569 = CLOSED_SHELL ( 'NONE', ( #428, #251, #296, #378, #533, #360, #575, #540, #311, #554, #317, #409, #464, #55, #36, #23 ) ) ;
#570 = PERSON_AND_ORGANIZATION ( #491, #451 ) ;
#571 = CARTESIAN_POINT ( 'NONE',  ( 0.8661417322834645827, 0.1574803149606299191, -0.5511811023622046335 ) ) ;
#572 = CALENDAR_DATE ( 2026, 10, 8 ) ;
#573 = LINE ( 'NONE', #116, #223 ) ;
#574 = ORIENTED_EDGE ( 'NONE', *, *, #400, .T. ) ;
#575 = ADVANCED_FACE ( 'NONE', ( #472, #283, #229, #469, #53, #237 ), #8, .T. ) ;
#576 = PERSON_AND_ORGANIZATION ( #491, #451 ) ;
#577 = LINE ( 'NONE', #528, #107 ) ;
#578 = VERTEX_POINT ( 'NONE', #462 ) ;
#579 = EDGE_CURVE ( 'NONE', #445, #85, #56, .T. ) ;
#580 = VECTOR ( 'NONE', #95, 39.37007874015748143 ) ;
#581 = COORDINATED_UNIVERSAL_TIME_OFFSET ( 1, 0, .AHEAD. ) ;
#582 = CARTESIAN_POINT ( 'NONE',  ( -0.8661417322834645827, 0.1574803149606299191, -0.5511811023622046335 ) ) ;
#583 = CC_DESIGN_APPROVAL ( #242, ( #62 ) ) ;
#584 = ORIENTED_EDGE ( 'NONE', *, *, #34, .T. ) ;
#585 = PERSON_AND_ORGANIZATION_ROLE ( 'classification_officer' ) ;
#586 = DESIGN_CONTEXT ( 'detailed design', #50, 'design' ) ;
#587 = CARTESIAN_POINT ( 'NONE',  ( -1.259842519685039353, 0.000000000000000000, -1.023622047244094446 ) ) ;
#588 = VERTEX_POINT ( 'NONE', #177 ) ;
#589 = EDGE_CURVE ( 'NONE', #392, #368, #597, .T. ) ;
#590 = CIRCLE ( 'NONE', #78, 0.07874015748031502893 ) ;
#591 = DIRECTION ( 'NONE',  ( 0.000000000000000000, 0.000000000000000000, -1.000000000000000000 ) ) ;
#592 = ORIENTED_EDGE ( 'NONE', *, *, #104, .F. ) ;
#593 = SHAPE_DEFINITION_REPRESENTATION ( #201, #284 ) ;
#594 = CC_DESIGN_PERSON_AND_ORGANIZATION_ASSIGNMENT ( #12, #585, ( #62 ) ) ;
#595 = FACE_OUTER_BOUND ( 'NONE', #605, .T. ) ;
#596 = ORIENTED_EDGE ( 'NONE', *, *, #419, .T. ) ;
#597 = CIRCLE ( 'NONE', #258, 0.1968503937007874127 ) ;
#598 = AXIS2_PLACEMENT_3D ( 'NONE', #173, #221, #499 ) ;
#599 = CARTESIAN_POINT ( 'NONE',  ( 0.8661417322834645827, 0.000000000000000000, 0.6299212598425196763 ) ) ;
#600 = ORIENTED_EDGE ( 'NONE', *, *, #104, .T. ) ;
#601 = EDGE_CURVE ( 'NONE', #588, #327, #530, .T. ) ;
#602 = CARTESIAN_POINT ( 'NONE',  ( -0.8661417322834645827, 0.1574803149606299191, 0.6299212598425196763 ) ) ;
#603 = ORIENTED_EDGE ( 'NONE', *, *, #517, .F. ) ;
#604 = FACE_BOUND ( 'NONE', #274, .T. ) ;
#605 = EDGE_LOOP ( 'NONE', ( #493, #404, #197, #596 ) ) ;
#606 = CIRCLE ( 'NONE', #342, 0.07874015748031509832 ) ;
#607 = DIRECTION ( 'NONE',  ( -0.000000000000000000, -1.000000000000000000, -0.000000000000000000 ) ) ;
#608 = EDGE_LOOP ( 'NONE', ( #79, #200 ) ) ;
#609 = CARTESIAN_POINT ( 'NONE',  ( 0.8661417322834645827, 0.1574803149606299191, -0.7086614173228347191 ) ) ;
#610 = DIRECTION ( 'NONE',  ( 0.000000000000000000, 0.000000000000000000, 1.000000000000000000 ) ) ;
ENDSEC;
END-ISO-10303-21;
