ISO-10303-21;
HEADER;
FILE_DESCRIPTION (( 'STEP AP203' ),
    '1' );
FILE_NAME ('14_Magnet_Carrier.STEP',
    '2026-08-10T00:38:45',
    ( '' ),
    ( '' ),
    'SwSTEP 2.0',
    'SolidWorks 2026',
    '' );
FILE_SCHEMA (( 'CONFIG_CONTROL_DESIGN' ));
ENDSEC;

DATA;
#1 = LOCAL_TIME ( 1, 38, 45.00000000000000000, #71 ) ;
#2 = CYLINDRICAL_SURFACE ( 'NONE', #58, 0.5905511811023621549 ) ;
#3 =( NAMED_UNIT ( * ) SI_UNIT ( $, .STERADIAN. ) SOLID_ANGLE_UNIT ( ) );
#4 = CARTESIAN_POINT ( 'NONE',  ( 0.000000000000000000, 0.000000000000000000, 0.000000000000000000 ) ) ;
#5 = CARTESIAN_POINT ( 'NONE',  ( 4.869658532042624608E-17, 0.3149606299212598381, 0.3976377952755905665 ) ) ;
#6 = APPROVAL_DATE_TIME ( #225, #69 ) ;
#7 = APPROVAL_STATUS ( 'not_yet_approved' ) ;
#8 = DATE_AND_TIME ( #184, #169 ) ;
#9 = ORIENTED_EDGE ( 'NONE', *, *, #37, .T. ) ;
#10 = APPROVAL_ROLE ( '' ) ;
#11 = ADVANCED_FACE ( 'NONE', ( #248, #111 ), #175, .F. ) ;
#12 = VECTOR ( 'NONE', #156, 39.37007874015748143 ) ;
#13 = CARTESIAN_POINT ( 'NONE',  ( 0.000000000000000000, 0.3149606299212598381, 0.000000000000000000 ) ) ;
#14 = CC_DESIGN_DATE_AND_TIME_ASSIGNMENT ( #221, #140, ( #109 ) ) ;
#15 = CARTESIAN_POINT ( 'NONE',  ( 0.000000000000000000, 0.000000000000000000, 0.000000000000000000 ) ) ;
#16 = EDGE_LOOP ( 'NONE', ( #73, #229 ) ) ;
#17 = LOCAL_TIME ( 1, 38, 45.00000000000000000, #181 ) ;
#18 = AXIS2_PLACEMENT_3D ( 'NONE', #15, #205, #34 ) ;
#19 = DIRECTION ( 'NONE',  ( 0.000000000000000000, 1.000000000000000000, 0.000000000000000000 ) ) ;
#20 = ORIENTED_EDGE ( 'NONE', *, *, #154, .F. ) ;
#21 = EDGE_CURVE ( 'NONE', #209, #129, #122, .T. ) ;
#22 = CIRCLE ( 'NONE', #204, 0.3976377952755905665 ) ;
#23 = DIRECTION ( 'NONE',  ( 0.000000000000000000, 0.000000000000000000, -1.000000000000000000 ) ) ;
#24 = FACE_OUTER_BOUND ( 'NONE', #124, .T. ) ;
#25 = APPROVAL ( #7, 'UNSPECIFIED' ) ;
#26 = CARTESIAN_POINT ( 'NONE',  ( 0.000000000000000000, 0.3149606299212598381, 0.000000000000000000 ) ) ;
#27 = PERSON_AND_ORGANIZATION_ROLE ( 'creator' ) ;
#28 = PERSON_AND_ORGANIZATION ( #202, #244 ) ;
#29 = CC_DESIGN_PERSON_AND_ORGANIZATION_ASSIGNMENT ( #121, #138, ( #157 ) ) ;
#30 = DIRECTION ( 'NONE',  ( 0.000000000000000000, 0.000000000000000000, 1.000000000000000000 ) ) ;
#31 = PERSON_AND_ORGANIZATION_ROLE ( 'classification_officer' ) ;
#32 =( GEOMETRIC_REPRESENTATION_CONTEXT ( 3 ) GLOBAL_UNCERTAINTY_ASSIGNED_CONTEXT ( ( #219 ) ) GLOBAL_UNIT_ASSIGNED_CONTEXT ( ( #234, #99, #3 ) ) REPRESENTATION_CONTEXT ( 'NONE', 'WORKASPACE' ) );
#33 = DIRECTION ( 'NONE',  ( 0.000000000000000000, 1.000000000000000000, 0.000000000000000000 ) ) ;
#34 = DIRECTION ( 'NONE',  ( 0.000000000000000000, -0.000000000000000000, 1.000000000000000000 ) ) ;
#35 = DIRECTION ( 'NONE',  ( 0.000000000000000000, 0.000000000000000000, 1.000000000000000000 ) ) ;
#36 = DIRECTION ( 'NONE',  ( 0.000000000000000000, -0.000000000000000000, 1.000000000000000000 ) ) ;
#37 = EDGE_CURVE ( 'NONE', #89, #129, #227, .T. ) ;
#38 = EDGE_LOOP ( 'NONE', ( #78, #125, #187, #224 ) ) ;
#39 = DIRECTION ( 'NONE',  ( 0.000000000000000000, 1.000000000000000000, 0.000000000000000000 ) ) ;
#40 = CARTESIAN_POINT ( 'NONE',  ( 0.000000000000000000, 0.3149606299212598381, 0.000000000000000000 ) ) ;
#41 = DIRECTION ( 'NONE',  ( 0.000000000000000000, 1.000000000000000000, 0.000000000000000000 ) ) ;
#42 = VECTOR ( 'NONE', #53, 39.37007874015748143 ) ;
#43 = AXIS2_PLACEMENT_3D ( 'NONE', #26, #41, #114 ) ;
#44 = DIRECTION ( 'NONE',  ( 0.000000000000000000, 0.000000000000000000, -1.000000000000000000 ) ) ;
#45 = DATE_AND_TIME ( #68, #1 ) ;
#46 = MECHANICAL_CONTEXT ( 'NONE', #47, 'mechanical' ) ;
#47 = APPLICATION_CONTEXT ( 'configuration controlled 3d designs of mechanical parts and assemblies' ) ;
#48 = APPROVAL_STATUS ( 'not_yet_approved' ) ;
#49 = CC_DESIGN_PERSON_AND_ORGANIZATION_ASSIGNMENT ( #198, #27, ( #74 ) ) ;
#50 = EDGE_LOOP ( 'NONE', ( #146, #72 ) ) ;
#51 = PERSON_AND_ORGANIZATION ( #202, #244 ) ;
#52 = AXIS2_PLACEMENT_3D ( 'NONE', #155, #62, #116 ) ;
#53 = DIRECTION ( 'NONE',  ( -0.000000000000000000, -1.000000000000000000, -0.000000000000000000 ) ) ;
#54 = FACE_BOUND ( 'NONE', #50, .T. ) ;
#55 = VERTEX_POINT ( 'NONE', #123 ) ;
#56 = EDGE_CURVE ( 'NONE', #252, #55, #106, .T. ) ;
#57 = DIRECTION ( 'NONE',  ( -0.000000000000000000, -1.000000000000000000, -0.000000000000000000 ) ) ;
#58 = AXIS2_PLACEMENT_3D ( 'NONE', #40, #239, #23 ) ;
#59 = ADVANCED_FACE ( 'NONE', ( #250 ), #233, .F. ) ;
#60 = PLANE ( 'NONE',  #186 ) ;
#61 = DIRECTION ( 'NONE',  ( 0.000000000000000000, 1.000000000000000000, 0.000000000000000000 ) ) ;
#62 = DIRECTION ( 'NONE',  ( -0.000000000000000000, -1.000000000000000000, -0.000000000000000000 ) ) ;
#63 = CARTESIAN_POINT ( 'NONE',  ( 7.232166136696967594E-17, 0.000000000000000000, 0.5905511811023621549 ) ) ;
#64 = DIRECTION ( 'NONE',  ( -0.000000000000000000, -1.000000000000000000, -0.000000000000000000 ) ) ;
#65 = FACE_OUTER_BOUND ( 'NONE', #38, .T. ) ;
#66 = ADVANCED_FACE ( 'NONE', ( #75, #54 ), #60, .T. ) ;
#67 = COORDINATED_UNIVERSAL_TIME_OFFSET ( 1, 0, .AHEAD. ) ;
#68 = CALENDAR_DATE ( 2026, 10, 8 ) ;
#69 = APPROVAL ( #48, 'UNSPECIFIED' ) ;
#70 = APPROVAL_DATE_TIME ( #102, #142 ) ;
#71 = COORDINATED_UNIVERSAL_TIME_OFFSET ( 1, 0, .AHEAD. ) ;
#72 = ORIENTED_EDGE ( 'NONE', *, *, #77, .F. ) ;
#73 = ORIENTED_EDGE ( 'NONE', *, *, #162, .F. ) ;
#74 = PRODUCT_DEFINITION_FORMATION_WITH_SPECIFIED_SOURCE ( 'ANY', '', #157, .NOT_KNOWN. ) ;
#75 = FACE_OUTER_BOUND ( 'NONE', #172, .T. ) ;
#76 = ORIENTED_EDGE ( 'NONE', *, *, #83, .T. ) ;
#77 = EDGE_CURVE ( 'NONE', #141, #89, #251, .T. ) ;
#78 = ORIENTED_EDGE ( 'NONE', *, *, #213, .T. ) ;
#79 = AXIS2_PLACEMENT_3D ( 'NONE', #13, #90, #247 ) ;
#80 = VERTEX_POINT ( 'NONE', #208 ) ;
#81 = DIRECTION ( 'NONE',  ( 0.000000000000000000, 0.000000000000000000, 1.000000000000000000 ) ) ;
#82 = DIRECTION ( 'NONE',  ( 0.000000000000000000, 1.000000000000000000, 0.000000000000000000 ) ) ;
#83 = EDGE_CURVE ( 'NONE', #129, #209, #22, .T. ) ;
#84 = DIRECTION ( 'NONE',  ( 0.000000000000000000, 0.000000000000000000, 1.000000000000000000 ) ) ;
#85 = ADVANCED_FACE ( 'NONE', ( #113 ), #179, .T. ) ;
#86 = DESIGN_CONTEXT ( 'detailed design', #128, 'design' ) ;
#87 = CALENDAR_DATE ( 2026, 10, 8 ) ;
#88 = APPROVAL_DATE_TIME ( #8, #25 ) ;
#89 = VERTEX_POINT ( 'NONE', #218 ) ;
#90 = DIRECTION ( 'NONE',  ( -0.000000000000000000, -1.000000000000000000, -0.000000000000000000 ) ) ;
#91 = ORIENTED_EDGE ( 'NONE', *, *, #216, .F. ) ;
#92 = AXIS2_PLACEMENT_3D ( 'NONE', #237, #30, #223 ) ;
#93 = PRODUCT_RELATED_PRODUCT_CATEGORY ( 'detail', '', ( #157 ) ) ;
#94 = ORIENTED_EDGE ( 'NONE', *, *, #21, .T. ) ;
#95 = DIRECTION ( 'NONE',  ( 0.000000000000000000, 0.000000000000000000, 1.000000000000000000 ) ) ;
#96 = ORIENTED_EDGE ( 'NONE', *, *, #246, .T. ) ;
#97 = CIRCLE ( 'NONE', #163, 0.5905511811023621549 ) ;
#98 = CARTESIAN_POINT ( 'NONE',  ( 0.000000000000000000, 0.3149606299212598381, 0.000000000000000000 ) ) ;
#99 =( NAMED_UNIT ( * ) PLANE_ANGLE_UNIT ( ) SI_UNIT ( $, .RADIAN. ) );
#100 = CIRCLE ( 'NONE', #242, 0.5905511811023621549 ) ;
#101 = DIRECTION ( 'NONE',  ( 0.000000000000000000, 0.000000000000000000, 1.000000000000000000 ) ) ;
#102 = DATE_AND_TIME ( #144, #177 ) ;
#103 = PERSON_AND_ORGANIZATION ( #202, #244 ) ;
#104 = COORDINATED_UNIVERSAL_TIME_OFFSET ( 1, 0, .AHEAD. ) ;
#105 = ORIENTED_EDGE ( 'NONE', *, *, #173, .T. ) ;
#106 = LINE ( 'NONE', #188, #151 ) ;
#107 = EDGE_LOOP ( 'NONE', ( #76, #94 ) ) ;
#108 = DIRECTION ( 'NONE',  ( 0.000000000000000000, 1.000000000000000000, 0.000000000000000000 ) ) ;
#109 = SECURITY_CLASSIFICATION ( '', '', #117 ) ;
#110 = CARTESIAN_POINT ( 'NONE',  ( 0.000000000000000000, 0.000000000000000000, 0.000000000000000000 ) ) ;
#111 = FACE_BOUND ( 'NONE', #107, .T. ) ;
#112 = CARTESIAN_POINT ( 'NONE',  ( 4.869658532042624608E-17, 0.3149606299212598381, 0.3976377952755905665 ) ) ;
#113 = FACE_OUTER_BOUND ( 'NONE', #149, .T. ) ;
#114 = DIRECTION ( 'NONE',  ( 0.000000000000000000, 0.000000000000000000, 1.000000000000000000 ) ) ;
#115 = CIRCLE ( 'NONE', #164, 0.3976377952755905665 ) ;
#116 = DIRECTION ( 'NONE',  ( 0.000000000000000000, 0.000000000000000000, -1.000000000000000000 ) ) ;
#117 = SECURITY_CLASSIFICATION_LEVEL ( 'unclassified' ) ;
#118 = PERSON_AND_ORGANIZATION_ROLE ( 'design_supplier' ) ;
#119 = ADVANCED_FACE ( 'NONE', ( #65 ), #215, .F. ) ;
#120 = PERSON_AND_ORGANIZATION ( #202, #244 ) ;
#121 = PERSON_AND_ORGANIZATION ( #202, #244 ) ;
#122 = CIRCLE ( 'NONE', #217, 0.3976377952755905665 ) ;
#123 = CARTESIAN_POINT ( 'NONE',  ( 0.000000000000000000, 0.000000000000000000, -0.5905511811023621549 ) ) ;
#124 = EDGE_LOOP ( 'NONE', ( #166, #20, #228, #192 ) ) ;
#125 = ORIENTED_EDGE ( 'NONE', *, *, #216, .T. ) ;
#126 = ORIENTED_EDGE ( 'NONE', *, *, #154, .T. ) ;
#127 = CIRCLE ( 'NONE', #243, 0.5905511811023621549 ) ;
#128 = APPLICATION_CONTEXT ( 'configuration controlled 3d designs of mechanical parts and assemblies' ) ;
#129 = VERTEX_POINT ( 'NONE', #159 ) ;
#130 = CARTESIAN_POINT ( 'NONE',  ( 0.000000000000000000, 0.3149606299212598381, 0.000000000000000000 ) ) ;
#131 = DIRECTION ( 'NONE',  ( 0.000000000000000000, 0.000000000000000000, 1.000000000000000000 ) ) ;
#132 = CC_DESIGN_PERSON_AND_ORGANIZATION_ASSIGNMENT ( #182, #118, ( #74 ) ) ;
#133 = CC_DESIGN_APPROVAL ( #69, ( #74 ) ) ;
#134 = CARTESIAN_POINT ( 'NONE',  ( 4.869658532042624608E-17, 0.000000000000000000, 0.3976377952755905665 ) ) ;
#135 = PRODUCT_DEFINITION_SHAPE ( 'NONE', 'NONE',  #238 ) ;
#136 = CARTESIAN_POINT ( 'NONE',  ( 0.000000000000000000, 0.3149606299212598381, 0.000000000000000000 ) ) ;
#137 = COORDINATED_UNIVERSAL_TIME_OFFSET ( 1, 0, .AHEAD. ) ;
#138 = PERSON_AND_ORGANIZATION_ROLE ( 'design_owner' ) ;
#139 = APPLICATION_PROTOCOL_DEFINITION ( 'international standard', 'config_control_design', 1994, #128 ) ;
#140 = DATE_TIME_ROLE ( 'classification_date' ) ;
#141 = VERTEX_POINT ( 'NONE', #5 ) ;
#142 = APPROVAL ( #197, 'UNSPECIFIED' ) ;
#143 = CC_DESIGN_SECURITY_CLASSIFICATION ( #109, ( #74 ) ) ;
#144 = CALENDAR_DATE ( 2026, 10, 8 ) ;
#145 = CC_DESIGN_PERSON_AND_ORGANIZATION_ASSIGNMENT ( #103, #201, ( #238 ) ) ;
#146 = ORIENTED_EDGE ( 'NONE', *, *, #213, .F. ) ;
#147 = LOCAL_TIME ( 1, 38, 45.00000000000000000, #67 ) ;
#148 = CARTESIAN_POINT ( 'NONE',  ( 0.000000000000000000, 0.000000000000000000, 0.000000000000000000 ) ) ;
#149 = EDGE_LOOP ( 'NONE', ( #203, #105, #96, #152 ) ) ;
#150 = MANIFOLD_SOLID_BREP ( 'Revolved_Equivalent_Extrude', #171 ) ;
#151 = VECTOR ( 'NONE', #57, 39.37007874015748143 ) ;
#152 = ORIENTED_EDGE ( 'NONE', *, *, #56, .F. ) ;
#153 = CIRCLE ( 'NONE', #43, 0.5905511811023621549 ) ;
#154 = EDGE_CURVE ( 'NONE', #252, #80, #97, .T. ) ;
#155 = CARTESIAN_POINT ( 'NONE',  ( 0.000000000000000000, 0.3149606299212598381, 0.000000000000000000 ) ) ;
#156 = DIRECTION ( 'NONE',  ( -0.000000000000000000, -1.000000000000000000, -0.000000000000000000 ) ) ;
#157 = PRODUCT ( '14_Magnet_Carrier', '14_Magnet_Carrier', '', ( #46 ) ) ;
#158 = CC_DESIGN_APPROVAL ( #25, ( #109 ) ) ;
#159 = CARTESIAN_POINT ( 'NONE',  ( 0.000000000000000000, 0.000000000000000000, -0.3976377952755905665 ) ) ;
#160 = ADVANCED_BREP_SHAPE_REPRESENTATION ( '14_Magnet_Carrier', ( #150, #92 ), #32 ) ;
#161 = CC_DESIGN_APPROVAL ( #142, ( #238 ) ) ;
#162 = EDGE_CURVE ( 'NONE', #55, #230, #127, .T. ) ;
#163 = AXIS2_PLACEMENT_3D ( 'NONE', #136, #82, #131 ) ;
#164 = AXIS2_PLACEMENT_3D ( 'NONE', #130, #39, #84 ) ;
#165 = DATE_TIME_ROLE ( 'creation_date' ) ;
#166 = ORIENTED_EDGE ( 'NONE', *, *, #173, .F. ) ;
#167 = DIMENSIONAL_EXPONENTS ( 1.000000000000000000, 0.000000000000000000, 0.000000000000000000, 0.000000000000000000, 0.000000000000000000, 0.000000000000000000, 0.000000000000000000 ) ;
#168 = CARTESIAN_POINT ( 'NONE',  ( 0.000000000000000000, 0.3149606299212598381, -0.3976377952755905665 ) ) ;
#169 = LOCAL_TIME ( 1, 38, 45.00000000000000000, #104 ) ;
#170 = DIRECTION ( 'NONE',  ( 0.000000000000000000, 1.000000000000000000, 0.000000000000000000 ) ) ;
#171 = CLOSED_SHELL ( 'NONE', ( #119, #85, #66, #11, #196, #59 ) ) ;
#172 = EDGE_LOOP ( 'NONE', ( #126, #206 ) ) ;
#173 = EDGE_CURVE ( 'NONE', #80, #230, #211, .T. ) ;
#174 = AXIS2_PLACEMENT_3D ( 'NONE', #98, #64, #44 ) ;
#175 = PLANE ( 'NONE',  #18 ) ;
#176 = CARTESIAN_POINT ( 'NONE',  ( 0.000000000000000000, 0.000000000000000000, 0.000000000000000000 ) ) ;
#177 = LOCAL_TIME ( 1, 38, 45.00000000000000000, #137 ) ;
#178 = APPLICATION_PROTOCOL_DEFINITION ( 'international standard', 'config_control_design', 1994, #47 ) ;
#179 = CYLINDRICAL_SURFACE ( 'NONE', #174, 0.5905511811023621549 ) ;
#180 = CARTESIAN_POINT ( 'NONE',  ( 0.000000000000000000, 0.3149606299212598381, -0.5905511811023621549 ) ) ;
#181 = COORDINATED_UNIVERSAL_TIME_OFFSET ( 1, 0, .AHEAD. ) ;
#182 = PERSON_AND_ORGANIZATION ( #202, #244 ) ;
#183 = APPROVAL_PERSON_ORGANIZATION ( #120, #69, #10 ) ;
#184 = CALENDAR_DATE ( 2026, 10, 8 ) ;
#185 = CALENDAR_DATE ( 2026, 10, 8 ) ;
#186 = AXIS2_PLACEMENT_3D ( 'NONE', #207, #108, #36 ) ;
#187 = ORIENTED_EDGE ( 'NONE', *, *, #83, .F. ) ;
#188 = CARTESIAN_POINT ( 'NONE',  ( 0.000000000000000000, 0.3149606299212598381, -0.5905511811023621549 ) ) ;
#189 = ORIENTED_EDGE ( 'NONE', *, *, #77, .T. ) ;
#190 = CARTESIAN_POINT ( 'NONE',  ( 0.000000000000000000, 0.3149606299212598381, 0.000000000000000000 ) ) ;
#191 = ORIENTED_EDGE ( 'NONE', *, *, #21, .F. ) ;
#192 = ORIENTED_EDGE ( 'NONE', *, *, #162, .T. ) ;
#193 = LINE ( 'NONE', #112, #12 ) ;
#194 = DIRECTION ( 'NONE',  ( 0.000000000000000000, 1.000000000000000000, 0.000000000000000000 ) ) ;
#195 = DIRECTION ( 'NONE',  ( -0.000000000000000000, -1.000000000000000000, -0.000000000000000000 ) ) ;
#196 = ADVANCED_FACE ( 'NONE', ( #24 ), #2, .T. ) ;
#197 = APPROVAL_STATUS ( 'not_yet_approved' ) ;
#198 = PERSON_AND_ORGANIZATION ( #202, #244 ) ;
#199 = CC_DESIGN_PERSON_AND_ORGANIZATION_ASSIGNMENT ( #200, #31, ( #109 ) ) ;
#200 = PERSON_AND_ORGANIZATION ( #202, #244 ) ;
#201 = PERSON_AND_ORGANIZATION_ROLE ( 'creator' ) ;
#202 = PERSON ( 'UNSPECIFIED', 'UNSPECIFIED', 'UNSPECIFIED', ('UNSPECIFIED'), ('UNSPECIFIED'), ('UNSPECIFIED') ) ;
#203 = ORIENTED_EDGE ( 'NONE', *, *, #226, .F. ) ;
#204 = AXIS2_PLACEMENT_3D ( 'NONE', #110, #19, #95 ) ;
#205 = DIRECTION ( 'NONE',  ( 0.000000000000000000, 1.000000000000000000, 0.000000000000000000 ) ) ;
#206 = ORIENTED_EDGE ( 'NONE', *, *, #226, .T. ) ;
#207 = CARTESIAN_POINT ( 'NONE',  ( 0.000000000000000000, 0.3149606299212598381, 0.000000000000000000 ) ) ;
#208 = CARTESIAN_POINT ( 'NONE',  ( 7.232166136696967594E-17, 0.3149606299212598381, 0.5905511811023621549 ) ) ;
#209 = VERTEX_POINT ( 'NONE', #134 ) ;
#210 =( LENGTH_UNIT ( ) NAMED_UNIT ( * ) SI_UNIT ( $, .METRE. ) );
#211 = LINE ( 'NONE', #212, #232 ) ;
#212 = CARTESIAN_POINT ( 'NONE',  ( 7.232166136696967594E-17, 0.3149606299212598381, 0.5905511811023621549 ) ) ;
#213 = EDGE_CURVE ( 'NONE', #89, #141, #115, .T. ) ;
#214 = APPROVAL_PERSON_ORGANIZATION ( #51, #142, #222 ) ;
#215 = CYLINDRICAL_SURFACE ( 'NONE', #52, 0.3976377952755905665 ) ;
#216 = EDGE_CURVE ( 'NONE', #141, #209, #193, .T. ) ;
#217 = AXIS2_PLACEMENT_3D ( 'NONE', #148, #33, #35 ) ;
#218 = CARTESIAN_POINT ( 'NONE',  ( 0.000000000000000000, 0.3149606299212598381, -0.3976377952755905665 ) ) ;
#219 = UNCERTAINTY_MEASURE_WITH_UNIT (LENGTH_MEASURE( 1.000000000000000082E-05 ), #234, 'distance_accuracy_value', 'NONE');
#220 = CC_DESIGN_DATE_AND_TIME_ASSIGNMENT ( #45, #165, ( #238 ) ) ;
#221 = DATE_AND_TIME ( #185, #147 ) ;
#222 = APPROVAL_ROLE ( '' ) ;
#223 = DIRECTION ( 'NONE',  ( 1.000000000000000000, 0.000000000000000000, 0.000000000000000000 ) ) ;
#224 = ORIENTED_EDGE ( 'NONE', *, *, #37, .F. ) ;
#225 = DATE_AND_TIME ( #87, #17 ) ;
#226 = EDGE_CURVE ( 'NONE', #80, #252, #153, .T. ) ;
#227 = LINE ( 'NONE', #168, #42 ) ;
#228 = ORIENTED_EDGE ( 'NONE', *, *, #56, .T. ) ;
#229 = ORIENTED_EDGE ( 'NONE', *, *, #246, .F. ) ;
#230 = VERTEX_POINT ( 'NONE', #63 ) ;
#231 = AXIS2_PLACEMENT_3D ( 'NONE', #190, #170, #249 ) ;
#232 = VECTOR ( 'NONE', #195, 39.37007874015748143 ) ;
#233 = CYLINDRICAL_SURFACE ( 'NONE', #79, 0.3976377952755905665 ) ;
#234 =( CONVERSION_BASED_UNIT ( 'INCH', #235 ) LENGTH_UNIT ( ) NAMED_UNIT ( #167 ) );
#235 = LENGTH_MEASURE_WITH_UNIT ( LENGTH_MEASURE( 0.02539999999999999897 ), #210 );
#236 = APPROVAL_PERSON_ORGANIZATION ( #28, #25, #240 ) ;
#237 = CARTESIAN_POINT ( 'NONE',  ( 0.000000000000000000, 0.000000000000000000, 0.000000000000000000 ) ) ;
#238 = PRODUCT_DEFINITION ( 'UNKNOWN', '', #74, #86 ) ;
#239 = DIRECTION ( 'NONE',  ( -0.000000000000000000, -1.000000000000000000, -0.000000000000000000 ) ) ;
#240 = APPROVAL_ROLE ( '' ) ;
#241 = EDGE_LOOP ( 'NONE', ( #91, #189, #9, #191 ) ) ;
#242 = AXIS2_PLACEMENT_3D ( 'NONE', #4, #194, #101 ) ;
#243 = AXIS2_PLACEMENT_3D ( 'NONE', #176, #61, #81 ) ;
#244 = ORGANIZATION ( 'UNSPECIFIED', 'UNSPECIFIED', '' ) ;
#245 = SHAPE_DEFINITION_REPRESENTATION ( #135, #160 ) ;
#246 = EDGE_CURVE ( 'NONE', #230, #55, #100, .T. ) ;
#247 = DIRECTION ( 'NONE',  ( 0.000000000000000000, 0.000000000000000000, -1.000000000000000000 ) ) ;
#248 = FACE_OUTER_BOUND ( 'NONE', #16, .T. ) ;
#249 = DIRECTION ( 'NONE',  ( 0.000000000000000000, 0.000000000000000000, 1.000000000000000000 ) ) ;
#250 = FACE_OUTER_BOUND ( 'NONE', #241, .T. ) ;
#251 = CIRCLE ( 'NONE', #231, 0.3976377952755905665 ) ;
#252 = VERTEX_POINT ( 'NONE', #180 ) ;
ENDSEC;
END-ISO-10303-21;
