ISO-10303-21;
HEADER;
FILE_DESCRIPTION (( 'STEP AP203' ),
    '1' );
FILE_NAME ('15_Reed_Switch_Cam.STEP',
    '2026-08-10T00:38:47',
    ( '' ),
    ( '' ),
    'SwSTEP 2.0',
    'SolidWorks 2026',
    '' );
FILE_SCHEMA (( 'CONFIG_CONTROL_DESIGN' ));
ENDSEC;

DATA;
#1 = DIRECTION ( 'NONE',  ( 0.000000000000000000, 0.000000000000000000, 1.000000000000000000 ) ) ;
#2 = DIRECTION ( 'NONE',  ( -0.000000000000000000, -1.000000000000000000, -0.000000000000000000 ) ) ;
#3 = ADVANCED_FACE ( 'NONE', ( #36 ), #377, .F. ) ;
#4 = EDGE_CURVE ( 'NONE', #289, #202, #326, .T. ) ;
#5 = AXIS2_PLACEMENT_3D ( 'NONE', #180, #213, #244 ) ;
#6 = CARTESIAN_POINT ( 'NONE',  ( 0.000000000000000000, 0.3937007874015748254, 0.000000000000000000 ) ) ;
#7 = CIRCLE ( 'NONE', #111, 0.3976377952755905665 ) ;
#8 = VERTEX_POINT ( 'NONE', #39 ) ;
#9 = EDGE_LOOP ( 'NONE', ( #19, #211, #214, #177 ) ) ;
#10 = CALENDAR_DATE ( 2026, 10, 8 ) ;
#11 = ORIENTED_EDGE ( 'NONE', *, *, #337, .F. ) ;
#12 = ORIENTED_EDGE ( 'NONE', *, *, #150, .F. ) ;
#13 = DATE_AND_TIME ( #232, #159 ) ;
#14 = DIRECTION ( 'NONE',  ( 0.000000000000000000, 0.000000000000000000, -1.000000000000000000 ) ) ;
#15 = APPROVAL_DATE_TIME ( #170, #217 ) ;
#16 = LOCAL_TIME ( 1, 38, 47.00000000000000000, #350 ) ;
#17 = FACE_OUTER_BOUND ( 'NONE', #257, .T. ) ;
#18 = CARTESIAN_POINT ( 'NONE',  ( 0.000000000000000000, 0.000000000000000000, 0.000000000000000000 ) ) ;
#19 = ORIENTED_EDGE ( 'NONE', *, *, #368, .F. ) ;
#20 = DIRECTION ( 'NONE',  ( 0.000000000000000000, 1.000000000000000000, 0.000000000000000000 ) ) ;
#21 = CC_DESIGN_PERSON_AND_ORGANIZATION_ASSIGNMENT ( #68, #320, ( #365 ) ) ;
#22 = EDGE_LOOP ( 'NONE', ( #131, #135, #42, #296 ) ) ;
#23 = DIRECTION ( 'NONE',  ( 0.000000000000000000, 0.000000000000000000, 1.000000000000000000 ) ) ;
#24 = PRODUCT_RELATED_PRODUCT_CATEGORY ( 'detail', '', ( #282 ) ) ;
#25 = CARTESIAN_POINT ( 'NONE',  ( 4.869658532042624608E-17, 0.3937007874015748254, 0.3976377952755905665 ) ) ;
#26 = DIRECTION ( 'NONE',  ( 0.000000000000000000, 0.000000000000000000, 1.000000000000000000 ) ) ;
#27 = CARTESIAN_POINT ( 'NONE',  ( 0.000000000000000000, 0.000000000000000000, -0.3976377952755905665 ) ) ;
#28 = FACE_BOUND ( 'NONE', #175, .T. ) ;
#29 = PRODUCT_DEFINITION_SHAPE ( 'NONE', 'NONE',  #365 ) ;
#30 = CARTESIAN_POINT ( 'NONE',  ( 0.000000000000000000, 0.3937007874015748254, -0.3976377952755905665 ) ) ;
#31 = EDGE_CURVE ( 'NONE', #304, #259, #194, .T. ) ;
#32 = ADVANCED_FACE ( 'NONE', ( #99 ), #231, .F. ) ;
#33 = DIRECTION ( 'NONE',  ( -0.000000000000000000, -1.000000000000000000, -0.000000000000000000 ) ) ;
#34 = CARTESIAN_POINT ( 'NONE',  ( 0.000000000000000000, 0.3937007874015748254, -0.9881889763779526659 ) ) ;
#35 = CIRCLE ( 'NONE', #273, 1.141732283464567121 ) ;
#36 = FACE_OUTER_BOUND ( 'NONE', #390, .T. ) ;
#37 = CC_DESIGN_PERSON_AND_ORGANIZATION_ASSIGNMENT ( #50, #387, ( #89 ) ) ;
#38 = APPROVAL_ROLE ( '' ) ;
#39 = CARTESIAN_POINT ( 'NONE',  ( 0.8661417322834645827, 0.000000000000000000, -0.1220472440944881526 ) ) ;
#40 = SECURITY_CLASSIFICATION_LEVEL ( 'unclassified' ) ;
#41 = AXIS2_PLACEMENT_3D ( 'NONE', #82, #336, #215 ) ;
#42 = ORIENTED_EDGE ( 'NONE', *, *, #394, .T. ) ;
#43 = APPLICATION_PROTOCOL_DEFINITION ( 'international standard', 'config_control_design', 1994, #70 ) ;
#44 = EDGE_CURVE ( 'NONE', #54, #165, #396, .T. ) ;
#45 = CARTESIAN_POINT ( 'NONE',  ( 0.000000000000000000, 0.3937007874015748254, -1.141732283464567121 ) ) ;
#46 = PERSON_AND_ORGANIZATION_ROLE ( 'design_owner' ) ;
#47 = VECTOR ( 'NONE', #2, 39.37007874015748143 ) ;
#48 = CARTESIAN_POINT ( 'NONE',  ( 0.000000000000000000, 0.3937007874015748254, -0.9881889763779526659 ) ) ;
#49 = EDGE_LOOP ( 'NONE', ( #325, #107, #293, #263 ) ) ;
#50 = PERSON_AND_ORGANIZATION ( #315, #224 ) ;
#51 = LINE ( 'NONE', #79, #310 ) ;
#52 = VERTEX_POINT ( 'NONE', #45 ) ;
#53 = CARTESIAN_POINT ( 'NONE',  ( 0.000000000000000000, 0.3937007874015748254, 0.000000000000000000 ) ) ;
#54 = VERTEX_POINT ( 'NONE', #78 ) ;
#55 = DIRECTION ( 'NONE',  ( 0.000000000000000000, 0.000000000000000000, 1.000000000000000000 ) ) ;
#56 = DIRECTION ( 'NONE',  ( -0.000000000000000000, -1.000000000000000000, -0.000000000000000000 ) ) ;
#57 = CARTESIAN_POINT ( 'NONE',  ( 0.8661417322834645827, 0.000000000000000000, 0.000000000000000000 ) ) ;
#58 = CIRCLE ( 'NONE', #287, 0.1220472440944881526 ) ;
#59 = CARTESIAN_POINT ( 'NONE',  ( 0.8661417322834645827, 0.3937007874015748254, -0.1220472440944881526 ) ) ;
#60 = DIRECTION ( 'NONE',  ( 0.000000000000000000, 1.000000000000000000, 0.000000000000000000 ) ) ;
#61 = EDGE_CURVE ( 'NONE', #83, #304, #77, .T. ) ;
#62 = EDGE_CURVE ( 'NONE', #304, #83, #252, .T. ) ;
#63 = CIRCLE ( 'NONE', #41, 1.141732283464567121 ) ;
#64 =( GEOMETRIC_REPRESENTATION_CONTEXT ( 3 ) GLOBAL_UNCERTAINTY_ASSIGNED_CONTEXT ( ( #352 ) ) GLOBAL_UNIT_ASSIGNED_CONTEXT ( ( #66, #340, #132 ) ) REPRESENTATION_CONTEXT ( 'NONE', 'WORKASPACE' ) );
#65 = FACE_OUTER_BOUND ( 'NONE', #49, .T. ) ;
#66 =( CONVERSION_BASED_UNIT ( 'INCH', #378 ) LENGTH_UNIT ( ) NAMED_UNIT ( #129 ) );
#67 = DIRECTION ( 'NONE',  ( 0.000000000000000000, 0.000000000000000000, 1.000000000000000000 ) ) ;
#68 = PERSON_AND_ORGANIZATION ( #315, #224 ) ;
#69 = CARTESIAN_POINT ( 'NONE',  ( 0.8661417322834645827, 0.3937007874015748254, 0.000000000000000000 ) ) ;
#70 = APPLICATION_CONTEXT ( 'configuration controlled 3d designs of mechanical parts and assemblies' ) ;
#71 = VERTEX_POINT ( 'NONE', #225 ) ;
#72 = CALENDAR_DATE ( 2026, 10, 8 ) ;
#73 = ADVANCED_FACE ( 'NONE', ( #65 ), #192, .T. ) ;
#74 = CARTESIAN_POINT ( 'NONE',  ( 0.000000000000000000, 0.3937007874015748254, -0.8661417322834645827 ) ) ;
#75 = ORIENTED_EDGE ( 'NONE', *, *, #308, .F. ) ;
#76 = DATE_AND_TIME ( #298, #191 ) ;
#77 = CIRCLE ( 'NONE', #373, 0.3976377952755905665 ) ;
#78 = CARTESIAN_POINT ( 'NONE',  ( 1.494647668250706850E-17, 0.3937007874015748254, -0.7440944881889763884 ) ) ;
#79 = CARTESIAN_POINT ( 'NONE',  ( 1.494647668250706542E-17, 0.3937007874015748254, -0.7440944881889763884 ) ) ;
#80 = ORIENTED_EDGE ( 'NONE', *, *, #62, .F. ) ;
#81 = PERSON_AND_ORGANIZATION ( #315, #224 ) ;
#82 = CARTESIAN_POINT ( 'NONE',  ( 0.000000000000000000, 0.3937007874015748254, 0.000000000000000000 ) ) ;
#83 = VERTEX_POINT ( 'NONE', #25 ) ;
#84 = CARTESIAN_POINT ( 'NONE',  ( 0.000000000000000000, 0.000000000000000000, 0.000000000000000000 ) ) ;
#85 = CC_DESIGN_DATE_AND_TIME_ASSIGNMENT ( #13, #354, ( #97 ) ) ;
#86 = ORIENTED_EDGE ( 'NONE', *, *, #62, .T. ) ;
#87 = CLOSED_SHELL ( 'NONE', ( #348, #3, #190, #73, #323, #179, #95, #189, #251, #32 ) ) ;
#88 = CARTESIAN_POINT ( 'NONE',  ( 0.000000000000000000, 0.3937007874015748254, -1.141732283464567121 ) ) ;
#89 = PRODUCT_DEFINITION_FORMATION_WITH_SPECIFIED_SOURCE ( 'ANY', '', #282, .NOT_KNOWN. ) ;
#90 = LINE ( 'NONE', #88, #187 ) ;
#91 = CIRCLE ( 'NONE', #382, 0.1220472440944881526 ) ;
#92 = DIRECTION ( 'NONE',  ( 0.000000000000000000, 0.000000000000000000, 1.000000000000000000 ) ) ;
#93 = CC_DESIGN_PERSON_AND_ORGANIZATION_ASSIGNMENT ( #360, #136, ( #97 ) ) ;
#94 = AXIS2_PLACEMENT_3D ( 'NONE', #299, #236, #210 ) ;
#95 = ADVANCED_FACE ( 'NONE', ( #17 ), #152, .T. ) ;
#96 = EDGE_LOOP ( 'NONE', ( #362, #11 ) ) ;
#97 = SECURITY_CLASSIFICATION ( '', '', #40 ) ;
#98 = LINE ( 'NONE', #34, #216 ) ;
#99 = FACE_OUTER_BOUND ( 'NONE', #22, .T. ) ;
#100 = ORIENTED_EDGE ( 'NONE', *, *, #223, .F. ) ;
#101 = ORIENTED_EDGE ( 'NONE', *, *, #338, .F. ) ;
#102 = MECHANICAL_CONTEXT ( 'NONE', #344, 'mechanical' ) ;
#103 = EDGE_CURVE ( 'NONE', #202, #117, #149, .T. ) ;
#104 = CARTESIAN_POINT ( 'NONE',  ( 0.000000000000000000, 0.3937007874015748254, -0.3976377952755905665 ) ) ;
#105 = EDGE_CURVE ( 'NONE', #380, #148, #397, .T. ) ;
#106 = DIRECTION ( 'NONE',  ( 0.000000000000000000, 1.000000000000000000, 0.000000000000000000 ) ) ;
#107 = ORIENTED_EDGE ( 'NONE', *, *, #105, .T. ) ;
#108 = SHAPE_DEFINITION_REPRESENTATION ( #29, #188 ) ;
#109 = DIRECTION ( 'NONE',  ( 0.000000000000000000, 0.000000000000000000, -1.000000000000000000 ) ) ;
#110 = PERSON_AND_ORGANIZATION ( #315, #224 ) ;
#111 = AXIS2_PLACEMENT_3D ( 'NONE', #157, #285, #92 ) ;
#112 = DIRECTION ( 'NONE',  ( 0.000000000000000000, -0.000000000000000000, 1.000000000000000000 ) ) ;
#113 = EDGE_LOOP ( 'NONE', ( #286, #349 ) ) ;
#114 = APPROVAL_STATUS ( 'not_yet_approved' ) ;
#115 = APPROVAL ( #384, 'UNSPECIFIED' ) ;
#116 = CARTESIAN_POINT ( 'NONE',  ( 0.000000000000000000, 0.000000000000000000, 0.000000000000000000 ) ) ;
#117 = VERTEX_POINT ( 'NONE', #334 ) ;
#118 = CYLINDRICAL_SURFACE ( 'NONE', #341, 0.1220472440944881526 ) ;
#119 = AXIS2_PLACEMENT_3D ( 'NONE', #69, #197, #67 ) ;
#120 = EDGE_CURVE ( 'NONE', #52, #364, #90, .T. ) ;
#121 = FACE_BOUND ( 'NONE', #195, .T. ) ;
#122 = CARTESIAN_POINT ( 'NONE',  ( 0.000000000000000000, 0.000000000000000000, 0.000000000000000000 ) ) ;
#123 = CARTESIAN_POINT ( 'NONE',  ( 0.8661417322834645827, 0.000000000000000000, 0.000000000000000000 ) ) ;
#124 = CC_DESIGN_APPROVAL ( #115, ( #97 ) ) ;
#125 = VECTOR ( 'NONE', #176, 39.37007874015748143 ) ;
#126 = DIRECTION ( 'NONE',  ( 0.000000000000000000, 1.000000000000000000, 0.000000000000000000 ) ) ;
#127 = CIRCLE ( 'NONE', #374, 1.141732283464567121 ) ;
#128 = CARTESIAN_POINT ( 'NONE',  ( 0.000000000000000000, 0.3937007874015748254, -0.8661417322834645827 ) ) ;
#129 = DIMENSIONAL_EXPONENTS ( 1.000000000000000000, 0.000000000000000000, 0.000000000000000000, 0.000000000000000000, 0.000000000000000000, 0.000000000000000000, 0.000000000000000000 ) ;
#130 = ORIENTED_EDGE ( 'NONE', *, *, #4, .T. ) ;
#131 = ORIENTED_EDGE ( 'NONE', *, *, #212, .F. ) ;
#132 =( NAMED_UNIT ( * ) SI_UNIT ( $, .STERADIAN. ) SOLID_ANGLE_UNIT ( ) );
#133 = DIRECTION ( 'NONE',  ( -0.000000000000000000, -1.000000000000000000, -0.000000000000000000 ) ) ;
#134 = EDGE_CURVE ( 'NONE', #52, #380, #63, .T. ) ;
#135 = ORIENTED_EDGE ( 'NONE', *, *, #44, .T. ) ;
#136 = PERSON_AND_ORGANIZATION_ROLE ( 'classification_officer' ) ;
#137 = DIRECTION ( 'NONE',  ( -0.000000000000000000, -1.000000000000000000, -0.000000000000000000 ) ) ;
#138 = VERTEX_POINT ( 'NONE', #303 ) ;
#139 = APPROVAL_PERSON_ORGANIZATION ( #173, #294, #301 ) ;
#140 = APPROVAL_DATE_TIME ( #209, #115 ) ;
#141 = CARTESIAN_POINT ( 'NONE',  ( 1.398218786428080311E-16, 0.000000000000000000, 1.141732283464567121 ) ) ;
#142 = ORIENTED_EDGE ( 'NONE', *, *, #134, .T. ) ;
#143 = PERSON_AND_ORGANIZATION ( #315, #224 ) ;
#144 = FACE_OUTER_BOUND ( 'NONE', #9, .T. ) ;
#145 = EDGE_LOOP ( 'NONE', ( #345, #351, #12, #392 ) ) ;
#146 = AXIS2_PLACEMENT_3D ( 'NONE', #218, #302, #55 ) ;
#147 = FACE_OUTER_BOUND ( 'NONE', #322, .T. ) ;
#148 = VERTEX_POINT ( 'NONE', #141 ) ;
#149 = LINE ( 'NONE', #385, #125 ) ;
#150 = EDGE_CURVE ( 'NONE', #138, #71, #292, .T. ) ;
#151 = EDGE_CURVE ( 'NONE', #71, #138, #277, .T. ) ;
#152 = CYLINDRICAL_SURFACE ( 'NONE', #5, 1.141732283464567121 ) ;
#153 = VECTOR ( 'NONE', #137, 39.37007874015748143 ) ;
#154 = AXIS2_PLACEMENT_3D ( 'NONE', #18, #245, #112 ) ;
#155 = AXIS2_PLACEMENT_3D ( 'NONE', #128, #372, #312 ) ;
#156 = DIRECTION ( 'NONE',  ( 0.000000000000000000, 0.000000000000000000, 1.000000000000000000 ) ) ;
#157 = CARTESIAN_POINT ( 'NONE',  ( 0.000000000000000000, 0.000000000000000000, 0.000000000000000000 ) ) ;
#158 = DIRECTION ( 'NONE',  ( 0.000000000000000000, 1.000000000000000000, 0.000000000000000000 ) ) ;
#159 = LOCAL_TIME ( 1, 38, 47.00000000000000000, #167 ) ;
#160 = EDGE_CURVE ( 'NONE', #380, #52, #366, .T. ) ;
#161 = DIRECTION ( 'NONE',  ( 0.000000000000000000, 0.000000000000000000, -1.000000000000000000 ) ) ;
#162 = AXIS2_PLACEMENT_3D ( 'NONE', #279, #309, #1 ) ;
#163 = DIRECTION ( 'NONE',  ( 0.000000000000000000, 1.000000000000000000, 0.000000000000000000 ) ) ;
#164 = DIRECTION ( 'NONE',  ( 0.000000000000000000, 0.000000000000000000, 1.000000000000000000 ) ) ;
#165 = VERTEX_POINT ( 'NONE', #48 ) ;
#166 = ORIENTED_EDGE ( 'NONE', *, *, #61, .F. ) ;
#167 = COORDINATED_UNIVERSAL_TIME_OFFSET ( 1, 0, .AHEAD. ) ;
#168 = AXIS2_PLACEMENT_3D ( 'NONE', #355, #233, #14 ) ;
#169 = ORIENTED_EDGE ( 'NONE', *, *, #321, .F. ) ;
#170 = DATE_AND_TIME ( #10, #300 ) ;
#171 = DIRECTION ( 'NONE',  ( 0.000000000000000000, 0.000000000000000000, 1.000000000000000000 ) ) ;
#172 = AXIS2_PLACEMENT_3D ( 'NONE', #269, #290, #235 ) ;
#173 = PERSON_AND_ORGANIZATION ( #315, #224 ) ;
#174 = CARTESIAN_POINT ( 'NONE',  ( 0.000000000000000000, 0.000000000000000000, -0.8661417322834645827 ) ) ;
#175 = EDGE_LOOP ( 'NONE', ( #227, #240 ) ) ;
#176 = DIRECTION ( 'NONE',  ( -0.000000000000000000, -1.000000000000000000, -0.000000000000000000 ) ) ;
#177 = ORIENTED_EDGE ( 'NONE', *, *, #295, .F. ) ;
#178 = DIRECTION ( 'NONE',  ( -0.000000000000000000, -1.000000000000000000, -0.000000000000000000 ) ) ;
#179 = ADVANCED_FACE ( 'NONE', ( #306, #363, #121, #339 ), #367, .F. ) ;
#180 = CARTESIAN_POINT ( 'NONE',  ( 0.000000000000000000, 0.3937007874015748254, 0.000000000000000000 ) ) ;
#181 = DIRECTION ( 'NONE',  ( 0.000000000000000000, 0.000000000000000000, -1.000000000000000000 ) ) ;
#182 = VECTOR ( 'NONE', #278, 39.37007874015748143 ) ;
#183 = CARTESIAN_POINT ( 'NONE',  ( 0.8661417322834645827, 0.3937007874015748254, -0.1220472440944881526 ) ) ;
#184 = AXIS2_PLACEMENT_3D ( 'NONE', #270, #274, #369 ) ;
#185 = FACE_BOUND ( 'NONE', #335, .T. ) ;
#186 = FACE_BOUND ( 'NONE', #261, .T. ) ;
#187 = VECTOR ( 'NONE', #267, 39.37007874015748143 ) ;
#188 = ADVANCED_BREP_SHAPE_REPRESENTATION ( '15_Reed_Switch_Cam', ( #313, #172 ), #64 ) ;
#189 = ADVANCED_FACE ( 'NONE', ( #144 ), #239, .F. ) ;
#190 = ADVANCED_FACE ( 'NONE', ( #147 ), #357, .F. ) ;
#191 = LOCAL_TIME ( 1, 38, 47.00000000000000000, #241 ) ;
#192 = CYLINDRICAL_SURFACE ( 'NONE', #356, 1.141732283464567121 ) ;
#193 = CARTESIAN_POINT ( 'NONE',  ( 0.000000000000000000, 0.3937007874015748254, 0.000000000000000000 ) ) ;
#194 = LINE ( 'NONE', #104, #153 ) ;
#195 = EDGE_LOOP ( 'NONE', ( #291, #256 ) ) ;
#196 = PERSON_AND_ORGANIZATION ( #315, #224 ) ;
#197 = DIRECTION ( 'NONE',  ( 0.000000000000000000, 1.000000000000000000, 0.000000000000000000 ) ) ;
#198 = ORIENTED_EDGE ( 'NONE', *, *, #250, .T. ) ;
#199 = APPROVAL_DATE_TIME ( #381, #294 ) ;
#200 = DIRECTION ( 'NONE',  ( 0.000000000000000000, 0.000000000000000000, -1.000000000000000000 ) ) ;
#201 = DESIGN_CONTEXT ( 'detailed design', #70, 'design' ) ;
#202 = VERTEX_POINT ( 'NONE', #361 ) ;
#203 = APPROVAL_ROLE ( '' ) ;
#204 = AXIS2_PLACEMENT_3D ( 'NONE', #383, #106, #164 ) ;
#205 = CARTESIAN_POINT ( 'NONE',  ( 0.000000000000000000, 0.3937007874015748254, 0.000000000000000000 ) ) ;
#206 = CIRCLE ( 'NONE', #371, 0.3976377952755905665 ) ;
#207 = DIRECTION ( 'NONE',  ( 0.000000000000000000, 1.000000000000000000, 0.000000000000000000 ) ) ;
#208 = ORIENTED_EDGE ( 'NONE', *, *, #221, .T. ) ;
#209 = DATE_AND_TIME ( #327, #314 ) ;
#210 = DIRECTION ( 'NONE',  ( 0.000000000000000000, 0.000000000000000000, 1.000000000000000000 ) ) ;
#211 = ORIENTED_EDGE ( 'NONE', *, *, #61, .T. ) ;
#212 = EDGE_CURVE ( 'NONE', #54, #71, #51, .T. ) ;
#213 = DIRECTION ( 'NONE',  ( -0.000000000000000000, -1.000000000000000000, -0.000000000000000000 ) ) ;
#214 = ORIENTED_EDGE ( 'NONE', *, *, #31, .T. ) ;
#215 = DIRECTION ( 'NONE',  ( 0.000000000000000000, 0.000000000000000000, 1.000000000000000000 ) ) ;
#216 = VECTOR ( 'NONE', #400, 39.37007874015748143 ) ;
#217 = APPROVAL ( #114, 'UNSPECIFIED' ) ;
#218 = CARTESIAN_POINT ( 'NONE',  ( 0.000000000000000000, 0.3937007874015748254, 0.000000000000000000 ) ) ;
#219 = AXIS2_PLACEMENT_3D ( 'NONE', #57, #163, #398 ) ;
#220 = FACE_OUTER_BOUND ( 'NONE', #237, .T. ) ;
#221 = EDGE_CURVE ( 'NONE', #202, #289, #58, .T. ) ;
#222 = AXIS2_PLACEMENT_3D ( 'NONE', #74, #133, #200 ) ;
#223 = EDGE_CURVE ( 'NONE', #259, #253, #206, .T. ) ;
#224 = ORGANIZATION ( 'UNSPECIFIED', 'UNSPECIFIED', '' ) ;
#225 = CARTESIAN_POINT ( 'NONE',  ( 1.494647668250706850E-17, 0.000000000000000000, -0.7440944881889763884 ) ) ;
#226 = CYLINDRICAL_SURFACE ( 'NONE', #155, 0.1220472440944881387 ) ;
#227 = ORIENTED_EDGE ( 'NONE', *, *, #4, .F. ) ;
#228 = ORIENTED_EDGE ( 'NONE', *, *, #105, .F. ) ;
#229 = ORIENTED_EDGE ( 'NONE', *, *, #120, .T. ) ;
#230 = APPLICATION_PROTOCOL_DEFINITION ( 'international standard', 'config_control_design', 1994, #344 ) ;
#231 = CYLINDRICAL_SURFACE ( 'NONE', #222, 0.1220472440944881387 ) ;
#232 = CALENDAR_DATE ( 2026, 10, 8 ) ;
#233 = DIRECTION ( 'NONE',  ( -0.000000000000000000, -1.000000000000000000, -0.000000000000000000 ) ) ;
#234 = ORIENTED_EDGE ( 'NONE', *, *, #134, .F. ) ;
#235 = DIRECTION ( 'NONE',  ( 1.000000000000000000, 0.000000000000000000, 0.000000000000000000 ) ) ;
#236 = DIRECTION ( 'NONE',  ( 0.000000000000000000, 1.000000000000000000, 0.000000000000000000 ) ) ;
#237 = EDGE_LOOP ( 'NONE', ( #142, #386 ) ) ;
#238 = APPROVAL_STATUS ( 'not_yet_approved' ) ;
#239 = CYLINDRICAL_SURFACE ( 'NONE', #358, 0.3976377952755905665 ) ;
#240 = ORIENTED_EDGE ( 'NONE', *, *, #221, .F. ) ;
#241 = COORDINATED_UNIVERSAL_TIME_OFFSET ( 1, 0, .AHEAD. ) ;
#242 = DIRECTION ( 'NONE',  ( 0.000000000000000000, 1.000000000000000000, 0.000000000000000000 ) ) ;
#243 = ORIENTED_EDGE ( 'NONE', *, *, #150, .T. ) ;
#244 = DIRECTION ( 'NONE',  ( 0.000000000000000000, 0.000000000000000000, -1.000000000000000000 ) ) ;
#245 = DIRECTION ( 'NONE',  ( 0.000000000000000000, 1.000000000000000000, 0.000000000000000000 ) ) ;
#246 = APPROVAL_PERSON_ORGANIZATION ( #110, #217, #38 ) ;
#247 = DIRECTION ( 'NONE',  ( 0.000000000000000000, 1.000000000000000000, 0.000000000000000000 ) ) ;
#248 = DIRECTION ( 'NONE',  ( -0.000000000000000000, -1.000000000000000000, -0.000000000000000000 ) ) ;
#249 = DIRECTION ( 'NONE',  ( 0.000000000000000000, -0.000000000000000000, 1.000000000000000000 ) ) ;
#250 = EDGE_CURVE ( 'NONE', #364, #148, #127, .T. ) ;
#251 = ADVANCED_FACE ( 'NONE', ( #395 ), #118, .F. ) ;
#252 = CIRCLE ( 'NONE', #307, 0.3976377952755905665 ) ;
#253 = VERTEX_POINT ( 'NONE', #311 ) ;
#254 = CIRCLE ( 'NONE', #162, 0.1220472440944881387 ) ;
#255 = CARTESIAN_POINT ( 'NONE',  ( 1.398218786428080311E-16, 0.3937007874015748254, 1.141732283464567121 ) ) ;
#256 = ORIENTED_EDGE ( 'NONE', *, *, #321, .T. ) ;
#257 = EDGE_LOOP ( 'NONE', ( #228, #234, #229, #198 ) ) ;
#258 = LINE ( 'NONE', #281, #399 ) ;
#259 = VERTEX_POINT ( 'NONE', #27 ) ;
#260 = COORDINATED_UNIVERSAL_TIME_OFFSET ( 1, 0, .AHEAD. ) ;
#261 = EDGE_LOOP ( 'NONE', ( #80, #166 ) ) ;
#262 = CC_DESIGN_PERSON_AND_ORGANIZATION_ASSIGNMENT ( #143, #46, ( #282 ) ) ;
#263 = ORIENTED_EDGE ( 'NONE', *, *, #120, .F. ) ;
#264 = CC_DESIGN_APPROVAL ( #294, ( #365 ) ) ;
#265 = EDGE_LOOP ( 'NONE', ( #268, #208, #359, #169 ) ) ;
#266 = COORDINATED_UNIVERSAL_TIME_OFFSET ( 1, 0, .AHEAD. ) ;
#267 = DIRECTION ( 'NONE',  ( -0.000000000000000000, -1.000000000000000000, -0.000000000000000000 ) ) ;
#268 = ORIENTED_EDGE ( 'NONE', *, *, #103, .F. ) ;
#269 = CARTESIAN_POINT ( 'NONE',  ( 0.000000000000000000, 0.000000000000000000, 0.000000000000000000 ) ) ;
#270 = CARTESIAN_POINT ( 'NONE',  ( 0.000000000000000000, 0.3937007874015748254, 0.000000000000000000 ) ) ;
#271 = ORIENTED_EDGE ( 'NONE', *, *, #151, .T. ) ;
#272 = CC_DESIGN_SECURITY_CLASSIFICATION ( #97, ( #89 ) ) ;
#273 = AXIS2_PLACEMENT_3D ( 'NONE', #122, #158, #26 ) ;
#274 = DIRECTION ( 'NONE',  ( -0.000000000000000000, -1.000000000000000000, -0.000000000000000000 ) ) ;
#275 = ORIENTED_EDGE ( 'NONE', *, *, #368, .T. ) ;
#276 = CARTESIAN_POINT ( 'NONE',  ( 1.398218786428080311E-16, 0.3937007874015748254, 1.141732283464567121 ) ) ;
#277 = CIRCLE ( 'NONE', #94, 0.1220472440944881387 ) ;
#278 = DIRECTION ( 'NONE',  ( -0.000000000000000000, -1.000000000000000000, -0.000000000000000000 ) ) ;
#279 = CARTESIAN_POINT ( 'NONE',  ( 0.000000000000000000, 0.3937007874015748254, -0.8661417322834645827 ) ) ;
#280 = CC_DESIGN_APPROVAL ( #217, ( #89 ) ) ;
#281 = CARTESIAN_POINT ( 'NONE',  ( 4.869658532042624608E-17, 0.3937007874015748254, 0.3976377952755905665 ) ) ;
#282 = PRODUCT ( '15_Reed_Switch_Cam', '15_Reed_Switch_Cam', '', ( #102 ) ) ;
#283 = LINE ( 'NONE', #59, #47 ) ;
#284 = CC_DESIGN_DATE_AND_TIME_ASSIGNMENT ( #76, #324, ( #365 ) ) ;
#285 = DIRECTION ( 'NONE',  ( 0.000000000000000000, 1.000000000000000000, 0.000000000000000000 ) ) ;
#286 = ORIENTED_EDGE ( 'NONE', *, *, #223, .T. ) ;
#287 = AXIS2_PLACEMENT_3D ( 'NONE', #391, #207, #329 ) ;
#288 =( LENGTH_UNIT ( ) NAMED_UNIT ( * ) SI_UNIT ( $, .METRE. ) );
#289 = VERTEX_POINT ( 'NONE', #183 ) ;
#290 = DIRECTION ( 'NONE',  ( 0.000000000000000000, 0.000000000000000000, 1.000000000000000000 ) ) ;
#291 = ORIENTED_EDGE ( 'NONE', *, *, #338, .T. ) ;
#292 = CIRCLE ( 'NONE', #343, 0.1220472440944881387 ) ;
#293 = ORIENTED_EDGE ( 'NONE', *, *, #337, .T. ) ;
#294 = APPROVAL ( #238, 'UNSPECIFIED' ) ;
#295 = EDGE_CURVE ( 'NONE', #253, #259, #7, .T. ) ;
#296 = ORIENTED_EDGE ( 'NONE', *, *, #151, .F. ) ;
#297 = ORIENTED_EDGE ( 'NONE', *, *, #103, .T. ) ;
#298 = CALENDAR_DATE ( 2026, 10, 8 ) ;
#299 = CARTESIAN_POINT ( 'NONE',  ( 0.000000000000000000, 0.000000000000000000, -0.8661417322834645827 ) ) ;
#300 = LOCAL_TIME ( 1, 38, 47.00000000000000000, #260 ) ;
#301 = APPROVAL_ROLE ( '' ) ;
#302 = DIRECTION ( 'NONE',  ( 0.000000000000000000, 1.000000000000000000, 0.000000000000000000 ) ) ;
#303 = CARTESIAN_POINT ( 'NONE',  ( 0.000000000000000000, 0.000000000000000000, -0.9881889763779526659 ) ) ;
#304 = VERTEX_POINT ( 'NONE', #30 ) ;
#305 = DIRECTION ( 'NONE',  ( 0.000000000000000000, 1.000000000000000000, 0.000000000000000000 ) ) ;
#306 = FACE_OUTER_BOUND ( 'NONE', #96, .T. ) ;
#307 = AXIS2_PLACEMENT_3D ( 'NONE', #6, #126, #375 ) ;
#308 = EDGE_CURVE ( 'NONE', #165, #54, #254, .T. ) ;
#309 = DIRECTION ( 'NONE',  ( 0.000000000000000000, 1.000000000000000000, 0.000000000000000000 ) ) ;
#310 = VECTOR ( 'NONE', #56, 39.37007874015748143 ) ;
#311 = CARTESIAN_POINT ( 'NONE',  ( 4.869658532042624608E-17, 0.000000000000000000, 0.3976377952755905665 ) ) ;
#312 = DIRECTION ( 'NONE',  ( 0.000000000000000000, 0.000000000000000000, -1.000000000000000000 ) ) ;
#313 = MANIFOLD_SOLID_BREP ( 'Reed_Cam_Extrude', #87 ) ;
#314 = LOCAL_TIME ( 1, 38, 47.00000000000000000, #266 ) ;
#315 = PERSON ( 'UNSPECIFIED', 'UNSPECIFIED', 'UNSPECIFIED', ('UNSPECIFIED'), ('UNSPECIFIED'), ('UNSPECIFIED') ) ;
#316 = CARTESIAN_POINT ( 'NONE',  ( 0.000000000000000000, 0.3937007874015748254, 0.000000000000000000 ) ) ;
#317 = CARTESIAN_POINT ( 'NONE',  ( 0.000000000000000000, 0.000000000000000000, -1.141732283464567121 ) ) ;
#318 = EDGE_LOOP ( 'NONE', ( #243, #271 ) ) ;
#319 = AXIS2_PLACEMENT_3D ( 'NONE', #193, #60, #249 ) ;
#320 = PERSON_AND_ORGANIZATION_ROLE ( 'creator' ) ;
#321 = EDGE_CURVE ( 'NONE', #117, #8, #389, .T. ) ;
#322 = EDGE_LOOP ( 'NONE', ( #86, #275, #100, #347 ) ) ;
#323 = ADVANCED_FACE ( 'NONE', ( #28, #220, #186, #185 ), #342, .T. ) ;
#324 = DATE_TIME_ROLE ( 'creation_date' ) ;
#325 = ORIENTED_EDGE ( 'NONE', *, *, #160, .F. ) ;
#326 = CIRCLE ( 'NONE', #119, 0.1220472440944881526 ) ;
#327 = CALENDAR_DATE ( 2026, 10, 8 ) ;
#328 = DIRECTION ( 'NONE',  ( 0.000000000000000000, 1.000000000000000000, 0.000000000000000000 ) ) ;
#329 = DIRECTION ( 'NONE',  ( 0.000000000000000000, 0.000000000000000000, 1.000000000000000000 ) ) ;
#330 = APPROVAL_PERSON_ORGANIZATION ( #81, #115, #203 ) ;
#331 = ORIENTED_EDGE ( 'NONE', *, *, #44, .F. ) ;
#332 = DIRECTION ( 'NONE',  ( 0.000000000000000000, 0.000000000000000000, 1.000000000000000000 ) ) ;
#333 = ORIENTED_EDGE ( 'NONE', *, *, #393, .F. ) ;
#334 = CARTESIAN_POINT ( 'NONE',  ( 0.8661417322834645827, 0.000000000000000000, 0.1220472440944881526 ) ) ;
#335 = EDGE_LOOP ( 'NONE', ( #75, #331 ) ) ;
#336 = DIRECTION ( 'NONE',  ( 0.000000000000000000, 1.000000000000000000, 0.000000000000000000 ) ) ;
#337 = EDGE_CURVE ( 'NONE', #148, #364, #35, .T. ) ;
#338 = EDGE_CURVE ( 'NONE', #8, #117, #91, .T. ) ;
#339 = FACE_BOUND ( 'NONE', #318, .T. ) ;
#340 =( NAMED_UNIT ( * ) PLANE_ANGLE_UNIT ( ) SI_UNIT ( $, .RADIAN. ) );
#341 = AXIS2_PLACEMENT_3D ( 'NONE', #370, #376, #181 ) ;
#342 = PLANE ( 'NONE',  #319 ) ;
#343 = AXIS2_PLACEMENT_3D ( 'NONE', #174, #20, #388 ) ;
#344 = APPLICATION_CONTEXT ( 'configuration controlled 3d designs of mechanical parts and assemblies' ) ;
#345 = ORIENTED_EDGE ( 'NONE', *, *, #308, .T. ) ;
#346 = FACE_OUTER_BOUND ( 'NONE', #145, .T. ) ;
#347 = ORIENTED_EDGE ( 'NONE', *, *, #31, .F. ) ;
#348 = ADVANCED_FACE ( 'NONE', ( #346 ), #226, .F. ) ;
#349 = ORIENTED_EDGE ( 'NONE', *, *, #295, .T. ) ;
#350 = COORDINATED_UNIVERSAL_TIME_OFFSET ( 1, 0, .AHEAD. ) ;
#351 = ORIENTED_EDGE ( 'NONE', *, *, #212, .T. ) ;
#352 = UNCERTAINTY_MEASURE_WITH_UNIT (LENGTH_MEASURE( 1.000000000000000082E-05 ), #66, 'distance_accuracy_value', 'NONE');
#353 = CC_DESIGN_PERSON_AND_ORGANIZATION_ASSIGNMENT ( #196, #379, ( #89 ) ) ;
#354 = DATE_TIME_ROLE ( 'classification_date' ) ;
#355 = CARTESIAN_POINT ( 'NONE',  ( 0.8661417322834645827, 0.3937007874015748254, 0.000000000000000000 ) ) ;
#356 = AXIS2_PLACEMENT_3D ( 'NONE', #316, #33, #161 ) ;
#357 = CYLINDRICAL_SURFACE ( 'NONE', #184, 0.3976377952755905665 ) ;
#358 = AXIS2_PLACEMENT_3D ( 'NONE', #53, #178, #109 ) ;
#359 = ORIENTED_EDGE ( 'NONE', *, *, #393, .T. ) ;
#360 = PERSON_AND_ORGANIZATION ( #315, #224 ) ;
#361 = CARTESIAN_POINT ( 'NONE',  ( 0.8661417322834645827, 0.3937007874015748254, 0.1220472440944881526 ) ) ;
#362 = ORIENTED_EDGE ( 'NONE', *, *, #250, .F. ) ;
#363 = FACE_BOUND ( 'NONE', #113, .T. ) ;
#364 = VERTEX_POINT ( 'NONE', #317 ) ;
#365 = PRODUCT_DEFINITION ( 'UNKNOWN', '', #89, #201 ) ;
#366 = CIRCLE ( 'NONE', #146, 1.141732283464567121 ) ;
#367 = PLANE ( 'NONE',  #154 ) ;
#368 = EDGE_CURVE ( 'NONE', #83, #253, #258, .T. ) ;
#369 = DIRECTION ( 'NONE',  ( 0.000000000000000000, 0.000000000000000000, -1.000000000000000000 ) ) ;
#370 = CARTESIAN_POINT ( 'NONE',  ( 0.8661417322834645827, 0.3937007874015748254, 0.000000000000000000 ) ) ;
#371 = AXIS2_PLACEMENT_3D ( 'NONE', #116, #242, #332 ) ;
#372 = DIRECTION ( 'NONE',  ( -0.000000000000000000, -1.000000000000000000, -0.000000000000000000 ) ) ;
#373 = AXIS2_PLACEMENT_3D ( 'NONE', #205, #328, #171 ) ;
#374 = AXIS2_PLACEMENT_3D ( 'NONE', #84, #305, #23 ) ;
#375 = DIRECTION ( 'NONE',  ( 0.000000000000000000, 0.000000000000000000, 1.000000000000000000 ) ) ;
#376 = DIRECTION ( 'NONE',  ( -0.000000000000000000, -1.000000000000000000, -0.000000000000000000 ) ) ;
#377 = CYLINDRICAL_SURFACE ( 'NONE', #168, 0.1220472440944881526 ) ;
#378 = LENGTH_MEASURE_WITH_UNIT ( LENGTH_MEASURE( 0.02539999999999999897 ), #288 );
#379 = PERSON_AND_ORGANIZATION_ROLE ( 'creator' ) ;
#380 = VERTEX_POINT ( 'NONE', #255 ) ;
#381 = DATE_AND_TIME ( #72, #16 ) ;
#382 = AXIS2_PLACEMENT_3D ( 'NONE', #123, #247, #156 ) ;
#383 = CARTESIAN_POINT ( 'NONE',  ( 0.000000000000000000, 0.3937007874015748254, -0.8661417322834645827 ) ) ;
#384 = APPROVAL_STATUS ( 'not_yet_approved' ) ;
#385 = CARTESIAN_POINT ( 'NONE',  ( 0.8661417322834645827, 0.3937007874015748254, 0.1220472440944881526 ) ) ;
#386 = ORIENTED_EDGE ( 'NONE', *, *, #160, .T. ) ;
#387 = PERSON_AND_ORGANIZATION_ROLE ( 'design_supplier' ) ;
#388 = DIRECTION ( 'NONE',  ( 0.000000000000000000, 0.000000000000000000, 1.000000000000000000 ) ) ;
#389 = CIRCLE ( 'NONE', #219, 0.1220472440944881526 ) ;
#390 = EDGE_LOOP ( 'NONE', ( #130, #297, #101, #333 ) ) ;
#391 = CARTESIAN_POINT ( 'NONE',  ( 0.8661417322834645827, 0.3937007874015748254, 0.000000000000000000 ) ) ;
#392 = ORIENTED_EDGE ( 'NONE', *, *, #394, .F. ) ;
#393 = EDGE_CURVE ( 'NONE', #289, #8, #283, .T. ) ;
#394 = EDGE_CURVE ( 'NONE', #165, #138, #98, .T. ) ;
#395 = FACE_OUTER_BOUND ( 'NONE', #265, .T. ) ;
#396 = CIRCLE ( 'NONE', #204, 0.1220472440944881387 ) ;
#397 = LINE ( 'NONE', #276, #182 ) ;
#398 = DIRECTION ( 'NONE',  ( 0.000000000000000000, 0.000000000000000000, 1.000000000000000000 ) ) ;
#399 = VECTOR ( 'NONE', #248, 39.37007874015748143 ) ;
#400 = DIRECTION ( 'NONE',  ( -0.000000000000000000, -1.000000000000000000, -0.000000000000000000 ) ) ;
ENDSEC;
END-ISO-10303-21;
