ISO-10303-21;
HEADER;
FILE_DESCRIPTION (( 'STEP AP203' ),
    '1' );
FILE_NAME ('16_Reed_Bracket_OPEN.STEP',
    '2026-08-10T00:38:49',
    ( '' ),
    ( '' ),
    'SwSTEP 2.0',
    'SolidWorks 2026',
    '' );
FILE_SCHEMA (( 'CONFIG_CONTROL_DESIGN' ));
ENDSEC;

DATA;
#1 = CC_DESIGN_PERSON_AND_ORGANIZATION_ASSIGNMENT ( #406, #238, ( #360 ) ) ;
#2 = LINE ( 'NONE', #199, #373 ) ;
#3 = ORIENTED_EDGE ( 'NONE', *, *, #135, .F. ) ;
#4 = ORIENTED_EDGE ( 'NONE', *, *, #390, .T. ) ;
#5 = EDGE_CURVE ( 'NONE', #186, #492, #222, .T. ) ;
#6 = ORIENTED_EDGE ( 'NONE', *, *, #167, .F. ) ;
#7 = PERSON_AND_ORGANIZATION ( #216, #240 ) ;
#8 = ORIENTED_EDGE ( 'NONE', *, *, #340, .T. ) ;
#9 = VERTEX_POINT ( 'NONE', #97 ) ;
#10 = VECTOR ( 'NONE', #377, 39.37007874015748143 ) ;
#11 = CALENDAR_DATE ( 2026, 10, 8 ) ;
#12 = VERTEX_POINT ( 'NONE', #255 ) ;
#13 = EDGE_CURVE ( 'NONE', #207, #380, #213, .T. ) ;
#14 = DIRECTION ( 'NONE',  ( -0.000000000000000000, -1.000000000000000000, -0.000000000000000000 ) ) ;
#15 = ORIENTED_EDGE ( 'NONE', *, *, #82, .F. ) ;
#16 = LOCAL_TIME ( 1, 38, 49.00000000000000000, #447 ) ;
#17 = VECTOR ( 'NONE', #101, 39.37007874015748143 ) ;
#18 = VECTOR ( 'NONE', #315, 39.37007874015748143 ) ;
#19 = CARTESIAN_POINT ( 'NONE',  ( 0.7874015748031496509, 0.1181102362204724532, -0.08858267716535432601 ) ) ;
#20 = DIRECTION ( 'NONE',  ( -0.000000000000000000, -0.000000000000000000, 1.000000000000000000 ) ) ;
#21 = EDGE_CURVE ( 'NONE', #327, #9, #258, .T. ) ;
#22 = CARTESIAN_POINT ( 'NONE',  ( 1.023622047244094446, 0.1181102362204724532, 0.3937007874015748254 ) ) ;
#23 = CARTESIAN_POINT ( 'NONE',  ( -1.023622047244094446, 0.000000000000000000, 0.3937007874015748254 ) ) ;
#24 = EDGE_CURVE ( 'NONE', #48, #396, #60, .T. ) ;
#25 = DIRECTION ( 'NONE',  ( 1.000000000000000000, 0.000000000000000000, 0.000000000000000000 ) ) ;
#26 = VERTEX_POINT ( 'NONE', #184 ) ;
#27 = SECURITY_CLASSIFICATION ( '', '', #326 ) ;
#28 = VECTOR ( 'NONE', #20, 39.37007874015748143 ) ;
#29 = PLANE ( 'NONE',  #419 ) ;
#30 = DIRECTION ( 'NONE',  ( 1.000000000000000000, -0.000000000000000000, 0.000000000000000000 ) ) ;
#31 = LINE ( 'NONE', #124, #177 ) ;
#32 = FACE_BOUND ( 'NONE', #236, .T. ) ;
#33 = DIRECTION ( 'NONE',  ( 0.000000000000000000, 0.000000000000000000, 1.000000000000000000 ) ) ;
#34 = DIRECTION ( 'NONE',  ( 0.000000000000000000, -1.000000000000000000, 0.000000000000000000 ) ) ;
#35 = FACE_OUTER_BOUND ( 'NONE', #65, .T. ) ;
#36 = CARTESIAN_POINT ( 'NONE',  ( 0.000000000000000000, 0.000000000000000000, 0.000000000000000000 ) ) ;
#37 = VECTOR ( 'NONE', #393, 39.37007874015748143 ) ;
#38 = CARTESIAN_POINT ( 'NONE',  ( -0.7874015748031496509, 0.000000000000000000, -0.08858267716535432601 ) ) ;
#39 = EDGE_CURVE ( 'NONE', #58, #9, #144, .T. ) ;
#40 = EDGE_CURVE ( 'NONE', #186, #207, #104, .T. ) ;
#41 = AXIS2_PLACEMENT_3D ( 'NONE', #497, #180, #183 ) ;
#42 = CARTESIAN_POINT ( 'NONE',  ( 0.7874015748031496509, 0.1181102362204724532, 0.08858267716535432601 ) ) ;
#43 = ORIENTED_EDGE ( 'NONE', *, *, #319, .F. ) ;
#44 = VECTOR ( 'NONE', #165, 39.37007874015748143 ) ;
#45 = EDGE_CURVE ( 'NONE', #405, #251, #228, .T. ) ;
#46 = APPROVAL_PERSON_ORGANIZATION ( #168, #332, #51 ) ;
#47 = APPROVAL_DATE_TIME ( #397, #495 ) ;
#48 = VERTEX_POINT ( 'NONE', #383 ) ;
#49 = DATE_AND_TIME ( #442, #381 ) ;
#50 = VERTEX_POINT ( 'NONE', #81 ) ;
#51 = APPROVAL_ROLE ( '' ) ;
#52 = ORIENTED_EDGE ( 'NONE', *, *, #487, .F. ) ;
#53 = PERSON_AND_ORGANIZATION_ROLE ( 'classification_officer' ) ;
#54 = VERTEX_POINT ( 'NONE', #352 ) ;
#55 = EDGE_LOOP ( 'NONE', ( #485, #498, #443, #145 ) ) ;
#56 = EDGE_CURVE ( 'NONE', #405, #421, #512, .T. ) ;
#57 = VECTOR ( 'NONE', #301, 39.37007874015748143 ) ;
#58 = VERTEX_POINT ( 'NONE', #38 ) ;
#59 = CARTESIAN_POINT ( 'NONE',  ( 0.2362204724409449064, 0.1181102362204724532, 0.08858267716535432601 ) ) ;
#60 = LINE ( 'NONE', #23, #28 ) ;
#61 = ORIENTED_EDGE ( 'NONE', *, *, #262, .F. ) ;
#62 = VECTOR ( 'NONE', #385, 39.37007874015748143 ) ;
#63 = ADVANCED_FACE ( 'NONE', ( #510 ), #433, .F. ) ;
#64 = DIRECTION ( 'NONE',  ( 0.000000000000000000, 0.000000000000000000, 1.000000000000000000 ) ) ;
#65 = EDGE_LOOP ( 'NONE', ( #339, #478, #166, #361 ) ) ;
#66 = CARTESIAN_POINT ( 'NONE',  ( -0.2362204724409449064, 0.000000000000000000, 0.08858267716535432601 ) ) ;
#67 = VERTEX_POINT ( 'NONE', #75 ) ;
#68 = CARTESIAN_POINT ( 'NONE',  ( -1.023622047244094446, 0.000000000000000000, -0.3937007874015748254 ) ) ;
#69 = FACE_OUTER_BOUND ( 'NONE', #481, .T. ) ;
#70 = APPROVAL_PERSON_ORGANIZATION ( #7, #495, #253 ) ;
#71 = LINE ( 'NONE', #189, #347 ) ;
#72 = DIRECTION ( 'NONE',  ( -1.000000000000000000, 0.000000000000000000, 0.000000000000000000 ) ) ;
#73 = ADVANCED_FACE ( 'NONE', ( #349 ), #232, .T. ) ;
#74 = DIRECTION ( 'NONE',  ( -0.000000000000000000, -1.000000000000000000, -0.000000000000000000 ) ) ;
#75 = CARTESIAN_POINT ( 'NONE',  ( 0.2362204724409449064, 0.1181102362204724532, -0.08858267716535432601 ) ) ;
#76 = DIRECTION ( 'NONE',  ( 0.000000000000000000, 0.000000000000000000, -1.000000000000000000 ) ) ;
#77 = DIRECTION ( 'NONE',  ( -1.000000000000000000, 0.000000000000000000, -0.000000000000000000 ) ) ;
#78 = EDGE_CURVE ( 'NONE', #50, #58, #435, .T. ) ;
#79 = CC_DESIGN_PERSON_AND_ORGANIZATION_ASSIGNMENT ( #333, #484, ( #271 ) ) ;
#80 =( CONVERSION_BASED_UNIT ( 'INCH', #434 ) LENGTH_UNIT ( ) NAMED_UNIT ( #277 ) );
#81 = CARTESIAN_POINT ( 'NONE',  ( -0.2362204724409449064, 0.000000000000000000, -0.08858267716535432601 ) ) ;
#82 = EDGE_CURVE ( 'NONE', #375, #67, #389, .T. ) ;
#83 = CARTESIAN_POINT ( 'NONE',  ( -1.023622047244094446, 0.000000000000000000, 0.3937007874015748254 ) ) ;
#84 = ORIENTED_EDGE ( 'NONE', *, *, #5, .F. ) ;
#85 = DIRECTION ( 'NONE',  ( -1.000000000000000000, 0.000000000000000000, 0.000000000000000000 ) ) ;
#86 = ORIENTED_EDGE ( 'NONE', *, *, #159, .F. ) ;
#87 = AXIS2_PLACEMENT_3D ( 'NONE', #281, #275, #472 ) ;
#88 = COORDINATED_UNIVERSAL_TIME_OFFSET ( 1, 0, .AHEAD. ) ;
#89 = EDGE_LOOP ( 'NONE', ( #215, #453, #8, #329 ) ) ;
#90 = VECTOR ( 'NONE', #455, 39.37007874015748143 ) ;
#91 = EDGE_LOOP ( 'NONE', ( #446, #176, #457, #297 ) ) ;
#92 = DIRECTION ( 'NONE',  ( 1.000000000000000000, 0.000000000000000000, 0.000000000000000000 ) ) ;
#93 = ORIENTED_EDGE ( 'NONE', *, *, #13, .F. ) ;
#94 = APPLICATION_PROTOCOL_DEFINITION ( 'international standard', 'config_control_design', 1994, #261 ) ;
#95 = AXIS2_PLACEMENT_3D ( 'NONE', #386, #33, #194 ) ;
#96 = ADVANCED_FACE ( 'NONE', ( #69 ), #122, .F. ) ;
#97 = CARTESIAN_POINT ( 'NONE',  ( -0.7874015748031496509, 0.000000000000000000, 0.08858267716535432601 ) ) ;
#98 = EDGE_LOOP ( 'NONE', ( #490, #288, #366, #4 ) ) ;
#99 = ADVANCED_FACE ( 'NONE', ( #428 ), #461, .T. ) ;
#100 = PLANE ( 'NONE',  #413 ) ;
#101 = DIRECTION ( 'NONE',  ( -0.000000000000000000, -0.000000000000000000, 1.000000000000000000 ) ) ;
#102 = UNCERTAINTY_MEASURE_WITH_UNIT (LENGTH_MEASURE( 1.000000000000000082E-05 ), #80, 'distance_accuracy_value', 'NONE');
#103 = LINE ( 'NONE', #308, #108 ) ;
#104 = LINE ( 'NONE', #260, #243 ) ;
#105 = VECTOR ( 'NONE', #161, 39.37007874015748143 ) ;
#106 = CARTESIAN_POINT ( 'NONE',  ( 1.023622047244094446, 0.1181102362204724532, -0.3937007874015748254 ) ) ;
#107 = ORIENTED_EDGE ( 'NONE', *, *, #40, .F. ) ;
#108 = VECTOR ( 'NONE', #14, 39.37007874015748143 ) ;
#109 = DIRECTION ( 'NONE',  ( 0.000000000000000000, -0.000000000000000000, -1.000000000000000000 ) ) ;
#110 = FACE_BOUND ( 'NONE', #98, .T. ) ;
#111 = CARTESIAN_POINT ( 'NONE',  ( -1.023622047244094446, 0.1181102362204724532, -0.3937007874015748254 ) ) ;
#112 = DIRECTION ( 'NONE',  ( 0.000000000000000000, 0.000000000000000000, -1.000000000000000000 ) ) ;
#113 = LOCAL_TIME ( 1, 38, 49.00000000000000000, #178 ) ;
#114 = AXIS2_PLACEMENT_3D ( 'NONE', #200, #198, #155 ) ;
#115 = CARTESIAN_POINT ( 'NONE',  ( -1.023622047244094446, 0.1181102362204724532, 0.3937007874015748254 ) ) ;
#116 = CARTESIAN_POINT ( 'NONE',  ( 0.2362204724409449064, 0.1181102362204724532, -0.08858267716535432601 ) ) ;
#117 = ADVANCED_FACE ( 'NONE', ( #153, #32, #110 ), #467, .T. ) ;
#118 = DIRECTION ( 'NONE',  ( 0.000000000000000000, 0.000000000000000000, -1.000000000000000000 ) ) ;
#119 = LINE ( 'NONE', #445, #468 ) ;
#120 = ADVANCED_FACE ( 'NONE', ( #158 ), #268, .T. ) ;
#121 = CARTESIAN_POINT ( 'NONE',  ( 0.2362204724409449064, 0.000000000000000000, 0.08858267716535432601 ) ) ;
#122 = PLANE ( 'NONE',  #328 ) ;
#123 = CARTESIAN_POINT ( 'NONE',  ( -0.2362204724409449064, 0.1181102362204724532, 0.08858267716535432601 ) ) ;
#124 = CARTESIAN_POINT ( 'NONE',  ( -0.2362204724409449064, 0.1181102362204724532, 0.08858267716535432601 ) ) ;
#125 = ORIENTED_EDGE ( 'NONE', *, *, #223, .F. ) ;
#126 = APPROVAL_ROLE ( '' ) ;
#127 = EDGE_CURVE ( 'NONE', #67, #405, #270, .T. ) ;
#128 = ORIENTED_EDGE ( 'NONE', *, *, #140, .T. ) ;
#129 = DATE_AND_TIME ( #212, #16 ) ;
#130 = ORIENTED_EDGE ( 'NONE', *, *, #340, .F. ) ;
#131 = VECTOR ( 'NONE', #356, 39.37007874015748143 ) ;
#132 = DATE_AND_TIME ( #480, #321 ) ;
#133 = ORIENTED_EDGE ( 'NONE', *, *, #210, .F. ) ;
#134 = CC_DESIGN_DATE_AND_TIME_ASSIGNMENT ( #132, #289, ( #27 ) ) ;
#135 = EDGE_CURVE ( 'NONE', #12, #50, #193, .T. ) ;
#136 = ORIENTED_EDGE ( 'NONE', *, *, #21, .F. ) ;
#137 = APPROVAL_PERSON_ORGANIZATION ( #204, #458, #126 ) ;
#138 = ORIENTED_EDGE ( 'NONE', *, *, #78, .T. ) ;
#139 = MANIFOLD_SOLID_BREP ( 'Slotted_Bracket_Extrude', #426 ) ;
#140 = EDGE_CURVE ( 'NONE', #67, #26, #312, .T. ) ;
#141 = FACE_BOUND ( 'NONE', #344, .T. ) ;
#142 = VERTEX_POINT ( 'NONE', #230 ) ;
#143 = CARTESIAN_POINT ( 'NONE',  ( -0.2362204724409449064, 0.000000000000000000, 0.08858267716535432601 ) ) ;
#144 = LINE ( 'NONE', #302, #90 ) ;
#145 = ORIENTED_EDGE ( 'NONE', *, *, #21, .T. ) ;
#146 = DIRECTION ( 'NONE',  ( -1.000000000000000000, -0.000000000000000000, -0.000000000000000000 ) ) ;
#147 = ORIENTED_EDGE ( 'NONE', *, *, #371, .F. ) ;
#148 = CARTESIAN_POINT ( 'NONE',  ( 0.7874015748031496509, 0.1181102362204724532, 0.08858267716535432601 ) ) ;
#149 = ORIENTED_EDGE ( 'NONE', *, *, #303, .F. ) ;
#150 = CC_DESIGN_PERSON_AND_ORGANIZATION_ASSIGNMENT ( #242, #369, ( #271 ) ) ;
#151 = VECTOR ( 'NONE', #423, 39.37007874015748143 ) ;
#152 = DIRECTION ( 'NONE',  ( 0.000000000000000000, 0.000000000000000000, -1.000000000000000000 ) ) ;
#153 = FACE_OUTER_BOUND ( 'NONE', #305, .T. ) ;
#154 = CARTESIAN_POINT ( 'NONE',  ( -1.023622047244094446, 0.1181102362204724532, 0.3937007874015748254 ) ) ;
#155 = DIRECTION ( 'NONE',  ( -1.000000000000000000, 0.000000000000000000, -0.000000000000000000 ) ) ;
#156 = EDGE_CURVE ( 'NONE', #256, #12, #387, .T. ) ;
#157 = CARTESIAN_POINT ( 'NONE',  ( 0.7874015748031496509, 0.1181102362204724532, -0.08858267716535432601 ) ) ;
#158 = FACE_OUTER_BOUND ( 'NONE', #55, .T. ) ;
#159 = EDGE_CURVE ( 'NONE', #327, #256, #119, .T. ) ;
#160 = LINE ( 'NONE', #280, #462 ) ;
#161 = DIRECTION ( 'NONE',  ( -0.000000000000000000, -1.000000000000000000, -0.000000000000000000 ) ) ;
#162 = LINE ( 'NONE', #201, #331 ) ;
#163 = VECTOR ( 'NONE', #197, 39.37007874015748143 ) ;
#164 = CC_DESIGN_SECURITY_CLASSIFICATION ( #27, ( #271 ) ) ;
#165 = DIRECTION ( 'NONE',  ( -0.000000000000000000, -1.000000000000000000, -0.000000000000000000 ) ) ;
#166 = ORIENTED_EDGE ( 'NONE', *, *, #156, .T. ) ;
#167 = EDGE_CURVE ( 'NONE', #492, #48, #250, .T. ) ;
#168 = PERSON_AND_ORGANIZATION ( #216, #240 ) ;
#169 = ORIENTED_EDGE ( 'NONE', *, *, #245, .F. ) ;
#170 = ORIENTED_EDGE ( 'NONE', *, *, #459, .T. ) ;
#171 = APPROVAL_STATUS ( 'not_yet_approved' ) ;
#172 = ORIENTED_EDGE ( 'NONE', *, *, #56, .F. ) ;
#173 = CC_DESIGN_PERSON_AND_ORGANIZATION_ASSIGNMENT ( #208, #359, ( #353 ) ) ;
#174 = ADVANCED_FACE ( 'NONE', ( #141, #225, #382 ), #29, .F. ) ;
#175 = APPLICATION_PROTOCOL_DEFINITION ( 'international standard', 'config_control_design', 1994, #317 ) ;
#176 = ORIENTED_EDGE ( 'NONE', *, *, #45, .F. ) ;
#177 = VECTOR ( 'NONE', #233, 39.37007874015748143 ) ;
#178 = COORDINATED_UNIVERSAL_TIME_OFFSET ( 1, 0, .AHEAD. ) ;
#179 = ORIENTED_EDGE ( 'NONE', *, *, #444, .F. ) ;
#180 = DIRECTION ( 'NONE',  ( 0.000000000000000000, 0.000000000000000000, -1.000000000000000000 ) ) ;
#181 = ORIENTED_EDGE ( 'NONE', *, *, #45, .T. ) ;
#182 = VECTOR ( 'NONE', #470, 39.37007874015748143 ) ;
#183 = DIRECTION ( 'NONE',  ( -1.000000000000000000, 0.000000000000000000, -0.000000000000000000 ) ) ;
#184 = CARTESIAN_POINT ( 'NONE',  ( 0.2362204724409449064, 0.000000000000000000, -0.08858267716535432601 ) ) ;
#185 = LINE ( 'NONE', #143, #437 ) ;
#186 = VERTEX_POINT ( 'NONE', #106 ) ;
#187 = FACE_OUTER_BOUND ( 'NONE', #325, .T. ) ;
#188 = ORIENTED_EDGE ( 'NONE', *, *, #140, .F. ) ;
#189 = CARTESIAN_POINT ( 'NONE',  ( -0.7874015748031496509, 0.000000000000000000, 0.08858267716535432601 ) ) ;
#190 = CARTESIAN_POINT ( 'NONE',  ( 0.2362204724409449064, 0.1181102362204724532, 0.08858267716535432601 ) ) ;
#191 = VECTOR ( 'NONE', #146, 39.37007874015748143 ) ;
#192 = DIRECTION ( 'NONE',  ( 0.000000000000000000, 0.000000000000000000, 1.000000000000000000 ) ) ;
#193 = LINE ( 'NONE', #505, #18 ) ;
#194 = DIRECTION ( 'NONE',  ( 1.000000000000000000, 0.000000000000000000, -0.000000000000000000 ) ) ;
#195 = CARTESIAN_POINT ( 'NONE',  ( -0.2362204724409449064, 0.1181102362204724532, 0.08858267716535432601 ) ) ;
#196 = AXIS2_PLACEMENT_3D ( 'NONE', #501, #72, #307 ) ;
#197 = DIRECTION ( 'NONE',  ( -0.000000000000000000, -0.000000000000000000, 1.000000000000000000 ) ) ;
#198 = DIRECTION ( 'NONE',  ( 0.000000000000000000, 0.000000000000000000, -1.000000000000000000 ) ) ;
#199 = CARTESIAN_POINT ( 'NONE',  ( 0.7874015748031496509, 0.1181102362204724532, 0.08858267716535432601 ) ) ;
#200 = CARTESIAN_POINT ( 'NONE',  ( -1.023622047244094446, 0.1181102362204724532, 0.3937007874015748254 ) ) ;
#201 = CARTESIAN_POINT ( 'NONE',  ( -1.023622047244094446, 0.1181102362204724532, 0.3937007874015748254 ) ) ;
#202 = ORIENTED_EDGE ( 'NONE', *, *, #223, .T. ) ;
#203 = LOCAL_TIME ( 1, 38, 49.00000000000000000, #88 ) ;
#204 = PERSON_AND_ORGANIZATION ( #216, #240 ) ;
#205 = ORIENTED_EDGE ( 'NONE', *, *, #24, .F. ) ;
#206 = APPROVAL_DATE_TIME ( #49, #458 ) ;
#207 = VERTEX_POINT ( 'NONE', #111 ) ;
#208 = PERSON_AND_ORGANIZATION ( #216, #240 ) ;
#209 = ORIENTED_EDGE ( 'NONE', *, *, #210, .T. ) ;
#210 = EDGE_CURVE ( 'NONE', #9, #248, #71, .T. ) ;
#211 = ORIENTED_EDGE ( 'NONE', *, *, #303, .T. ) ;
#212 = CALENDAR_DATE ( 2026, 10, 8 ) ;
#213 = LINE ( 'NONE', #336, #17 ) ;
#214 = VECTOR ( 'NONE', #273, 39.37007874015748143 ) ;
#215 = ORIENTED_EDGE ( 'NONE', *, *, #13, .T. ) ;
#216 = PERSON ( 'UNSPECIFIED', 'UNSPECIFIED', 'UNSPECIFIED', ('UNSPECIFIED'), ('UNSPECIFIED'), ('UNSPECIFIED') ) ;
#217 = LINE ( 'NONE', #148, #282 ) ;
#218 = CARTESIAN_POINT ( 'NONE',  ( 1.023622047244094446, 0.1181102362204724532, -0.3937007874015748254 ) ) ;
#219 = CARTESIAN_POINT ( 'NONE',  ( -0.2362204724409449064, 0.1181102362204724532, 0.08858267716535432601 ) ) ;
#220 = ORIENTED_EDGE ( 'NONE', *, *, #409, .T. ) ;
#221 = LINE ( 'NONE', #19, #10 ) ;
#222 = LINE ( 'NONE', #218, #272 ) ;
#223 = EDGE_CURVE ( 'NONE', #142, #492, #463, .T. ) ;
#224 = ADVANCED_FACE ( 'NONE', ( #379 ), #269, .T. ) ;
#225 = FACE_OUTER_BOUND ( 'NONE', #89, .T. ) ;
#226 = CARTESIAN_POINT ( 'NONE',  ( -1.023622047244094446, 0.1181102362204724532, 0.3937007874015748254 ) ) ;
#227 = DIRECTION ( 'NONE',  ( -0.000000000000000000, -1.000000000000000000, -0.000000000000000000 ) ) ;
#228 = LINE ( 'NONE', #464, #105 ) ;
#229 = PLANE ( 'NONE',  #95 ) ;
#230 = CARTESIAN_POINT ( 'NONE',  ( 1.023622047244094446, 0.000000000000000000, 0.3937007874015748254 ) ) ;
#231 = PLANE ( 'NONE',  #451 ) ;
#232 = PLANE ( 'NONE',  #508 ) ;
#233 = DIRECTION ( 'NONE',  ( -0.000000000000000000, -1.000000000000000000, -0.000000000000000000 ) ) ;
#234 = DIRECTION ( 'NONE',  ( -1.000000000000000000, -0.000000000000000000, -0.000000000000000000 ) ) ;
#235 = FACE_OUTER_BOUND ( 'NONE', #448, .T. ) ;
#236 = EDGE_LOOP ( 'NONE', ( #138, #489, #209, #483 ) ) ;
#237 = ADVANCED_FACE ( 'NONE', ( #187 ), #345, .T. ) ;
#238 = PERSON_AND_ORGANIZATION_ROLE ( 'design_owner' ) ;
#239 = EDGE_LOOP ( 'NONE', ( #202, #84, #130, #170 ) ) ;
#240 = ORGANIZATION ( 'UNSPECIFIED', 'UNSPECIFIED', '' ) ;
#241 = EDGE_CURVE ( 'NONE', #54, #58, #296, .T. ) ;
#242 = PERSON_AND_ORGANIZATION ( #216, #240 ) ;
#243 = VECTOR ( 'NONE', #234, 39.37007874015748143 ) ;
#244 = VERTEX_POINT ( 'NONE', #420 ) ;
#245 = EDGE_CURVE ( 'NONE', #207, #48, #103, .T. ) ;
#246 = ADVANCED_FACE ( 'NONE', ( #452 ), #100, .T. ) ;
#247 = DIRECTION ( 'NONE',  ( 0.000000000000000000, 0.000000000000000000, 1.000000000000000000 ) ) ;
#248 = VERTEX_POINT ( 'NONE', #66 ) ;
#249 =( NAMED_UNIT ( * ) PLANE_ANGLE_UNIT ( ) SI_UNIT ( $, .RADIAN. ) );
#250 = LINE ( 'NONE', #68, #376 ) ;
#251 = VERTEX_POINT ( 'NONE', #414 ) ;
#252 = DESIGN_CONTEXT ( 'detailed design', #317, 'design' ) ;
#253 = APPROVAL_ROLE ( '' ) ;
#254 = VECTOR ( 'NONE', #415, 39.37007874015748143 ) ;
#255 = CARTESIAN_POINT ( 'NONE',  ( -0.2362204724409449064, 0.1181102362204724532, -0.08858267716535432601 ) ) ;
#256 = VERTEX_POINT ( 'NONE', #219 ) ;
#257 = DIRECTION ( 'NONE',  ( 1.000000000000000000, 0.000000000000000000, -0.000000000000000000 ) ) ;
#258 = LINE ( 'NONE', #334, #254 ) ;
#259 = DIRECTION ( 'NONE',  ( -1.000000000000000000, -0.000000000000000000, -0.000000000000000000 ) ) ;
#260 = CARTESIAN_POINT ( 'NONE',  ( -1.023622047244094446, 0.1181102362204724532, -0.3937007874015748254 ) ) ;
#261 = APPLICATION_CONTEXT ( 'configuration controlled 3d designs of mechanical parts and assemblies' ) ;
#262 = EDGE_CURVE ( 'NONE', #421, #244, #217, .T. ) ;
#263 = EDGE_CURVE ( 'NONE', #375, #330, #221, .T. ) ;
#264 = CARTESIAN_POINT ( 'NONE',  ( 1.023622047244094446, 0.000000000000000000, 0.3937007874015748254 ) ) ;
#265 = VERTEX_POINT ( 'NONE', #22 ) ;
#266 = VECTOR ( 'NONE', #460, 39.37007874015748143 ) ;
#267 = CARTESIAN_POINT ( 'NONE',  ( 0.7874015748031496509, 0.000000000000000000, -0.08858267716535432601 ) ) ;
#268 = PLANE ( 'NONE',  #314 ) ;
#269 = PLANE ( 'NONE',  #41 ) ;
#270 = LINE ( 'NONE', #279, #62 ) ;
#271 = PRODUCT_DEFINITION_FORMATION_WITH_SPECIFIED_SOURCE ( 'ANY', '', #360, .NOT_KNOWN. ) ;
#272 = VECTOR ( 'NONE', #372, 39.37007874015748143 ) ;
#273 = DIRECTION ( 'NONE',  ( -1.000000000000000000, -0.000000000000000000, -0.000000000000000000 ) ) ;
#274 = DIRECTION ( 'NONE',  ( -0.000000000000000000, -1.000000000000000000, -0.000000000000000000 ) ) ;
#275 = DIRECTION ( 'NONE',  ( 0.000000000000000000, 0.000000000000000000, 1.000000000000000000 ) ) ;
#276 = CARTESIAN_POINT ( 'NONE',  ( -0.7874015748031496509, 0.1181102362204724532, 0.08858267716535432601 ) ) ;
#277 = DIMENSIONAL_EXPONENTS ( 1.000000000000000000, 0.000000000000000000, 0.000000000000000000, 0.000000000000000000, 0.000000000000000000, 0.000000000000000000, 0.000000000000000000 ) ;
#278 = LINE ( 'NONE', #154, #310 ) ;
#279 = CARTESIAN_POINT ( 'NONE',  ( 0.2362204724409449064, 0.1181102362204724532, 0.08858267716535432601 ) ) ;
#280 = CARTESIAN_POINT ( 'NONE',  ( 0.2362204724409449064, 0.000000000000000000, 0.08858267716535432601 ) ) ;
#281 = CARTESIAN_POINT ( 'NONE',  ( 0.2362204724409449064, 0.1181102362204724532, -0.08858267716535432601 ) ) ;
#282 = VECTOR ( 'NONE', #374, 39.37007874015748143 ) ;
#283 = ORIENTED_EDGE ( 'NONE', *, *, #459, .F. ) ;
#284 = DIRECTION ( 'NONE',  ( 1.000000000000000000, 0.000000000000000000, 0.000000000000000000 ) ) ;
#285 = ORIENTED_EDGE ( 'NONE', *, *, #444, .T. ) ;
#286 = APPROVAL_STATUS ( 'not_yet_approved' ) ;
#287 = AXIS2_PLACEMENT_3D ( 'NONE', #36, #34, #430 ) ;
#288 = ORIENTED_EDGE ( 'NONE', *, *, #487, .T. ) ;
#289 = DATE_TIME_ROLE ( 'classification_date' ) ;
#290 = ORIENTED_EDGE ( 'NONE', *, *, #263, .T. ) ;
#291 = CALENDAR_DATE ( 2026, 10, 8 ) ;
#292 = EDGE_LOOP ( 'NONE', ( #411, #169, #107, #477 ) ) ;
#293 = COORDINATED_UNIVERSAL_TIME_OFFSET ( 1, 0, .AHEAD. ) ;
#294 = ORIENTED_EDGE ( 'NONE', *, *, #425, .F. ) ;
#295 = PRODUCT_DEFINITION_SHAPE ( 'NONE', 'NONE',  #353 ) ;
#296 = LINE ( 'NONE', #488, #422 ) ;
#297 = ORIENTED_EDGE ( 'NONE', *, *, #262, .T. ) ;
#298 = ORIENTED_EDGE ( 'NONE', *, *, #400, .T. ) ;
#299 = EDGE_CURVE ( 'NONE', #248, #50, #185, .T. ) ;
#300 = ADVANCED_BREP_SHAPE_REPRESENTATION ( '16_Reed_Bracket_OPEN', ( #139, #313 ), #465 ) ;
#301 = DIRECTION ( 'NONE',  ( 1.000000000000000000, 0.000000000000000000, 0.000000000000000000 ) ) ;
#302 = CARTESIAN_POINT ( 'NONE',  ( -0.7874015748031496509, 0.000000000000000000, 0.08858267716535432601 ) ) ;
#303 = EDGE_CURVE ( 'NONE', #396, #142, #493, .T. ) ;
#304 = CARTESIAN_POINT ( 'NONE',  ( -0.7874015748031496509, 0.1181102362204724532, -0.08858267716535432601 ) ) ;
#305 = EDGE_LOOP ( 'NONE', ( #205, #6, #125, #149 ) ) ;
#306 = CARTESIAN_POINT ( 'NONE',  ( 1.023622047244094446, 0.1181102362204724532, 0.3937007874015748254 ) ) ;
#307 = DIRECTION ( 'NONE',  ( 0.000000000000000000, 0.000000000000000000, 1.000000000000000000 ) ) ;
#308 = CARTESIAN_POINT ( 'NONE',  ( -1.023622047244094446, 0.1181102362204724532, -0.3937007874015748254 ) ) ;
#309 = DIRECTION ( 'NONE',  ( 1.000000000000000000, -0.000000000000000000, 0.000000000000000000 ) ) ;
#310 = VECTOR ( 'NONE', #74, 39.37007874015748143 ) ;
#311 = DIRECTION ( 'NONE',  ( 1.000000000000000000, 0.000000000000000000, 0.000000000000000000 ) ) ;
#312 = LINE ( 'NONE', #116, #391 ) ;
#313 = AXIS2_PLACEMENT_3D ( 'NONE', #440, #247, #284 ) ;
#314 = AXIS2_PLACEMENT_3D ( 'NONE', #276, #309, #112 ) ;
#315 = DIRECTION ( 'NONE',  ( -0.000000000000000000, -1.000000000000000000, -0.000000000000000000 ) ) ;
#316 = CARTESIAN_POINT ( 'NONE',  ( -0.7874015748031496509, 0.000000000000000000, -0.08858267716535432601 ) ) ;
#317 = APPLICATION_CONTEXT ( 'configuration controlled 3d designs of mechanical parts and assemblies' ) ;
#318 = CC_DESIGN_DATE_AND_TIME_ASSIGNMENT ( #404, #482, ( #353 ) ) ;
#319 = EDGE_CURVE ( 'NONE', #330, #26, #454, .T. ) ;
#320 = DIRECTION ( 'NONE',  ( -0.000000000000000000, -0.000000000000000000, 1.000000000000000000 ) ) ;
#321 = LOCAL_TIME ( 1, 38, 49.00000000000000000, #293 ) ;
#322 = FACE_OUTER_BOUND ( 'NONE', #239, .T. ) ;
#323 = ORIENTED_EDGE ( 'NONE', *, *, #127, .T. ) ;
#324 = APPROVAL_DATE_TIME ( #129, #332 ) ;
#325 = EDGE_LOOP ( 'NONE', ( #52, #188, #323, #181 ) ) ;
#326 = SECURITY_CLASSIFICATION_LEVEL ( 'unclassified' ) ;
#327 = VERTEX_POINT ( 'NONE', #456 ) ;
#328 = AXIS2_PLACEMENT_3D ( 'NONE', #226, #30, #507 ) ;
#329 = ORIENTED_EDGE ( 'NONE', *, *, #40, .T. ) ;
#330 = VERTEX_POINT ( 'NONE', #267 ) ;
#331 = VECTOR ( 'NONE', #311, 39.37007874015748143 ) ;
#332 = APPROVAL ( #171, 'UNSPECIFIED' ) ;
#333 = PERSON_AND_ORGANIZATION ( #216, #240 ) ;
#334 = CARTESIAN_POINT ( 'NONE',  ( -0.7874015748031496509, 0.1181102362204724532, 0.08858267716535432601 ) ) ;
#335 = CC_DESIGN_APPROVAL ( #495, ( #353 ) ) ;
#336 = CARTESIAN_POINT ( 'NONE',  ( -1.023622047244094446, 0.1181102362204724532, 0.3937007874015748254 ) ) ;
#337 = ORIENTED_EDGE ( 'NONE', *, *, #156, .F. ) ;
#338 = DIRECTION ( 'NONE',  ( 0.000000000000000000, 0.000000000000000000, -1.000000000000000000 ) ) ;
#339 = ORIENTED_EDGE ( 'NONE', *, *, #299, .F. ) ;
#340 = EDGE_CURVE ( 'NONE', #265, #186, #343, .T. ) ;
#341 = CARTESIAN_POINT ( 'NONE',  ( 0.2362204724409449064, 0.000000000000000000, -0.08858267716535432601 ) ) ;
#342 = ORIENTED_EDGE ( 'NONE', *, *, #241, .T. ) ;
#343 = LINE ( 'NONE', #306, #266 ) ;
#344 = EDGE_LOOP ( 'NONE', ( #378, #418, #337, #86 ) ) ;
#345 = PLANE ( 'NONE',  #502 ) ;
#346 = CARTESIAN_POINT ( 'NONE',  ( -0.7874015748031496509, 0.1181102362204724532, 0.08858267716535432601 ) ) ;
#347 = VECTOR ( 'NONE', #25, 39.37007874015748143 ) ;
#348 = CARTESIAN_POINT ( 'NONE',  ( 1.023622047244094446, 0.000000000000000000, -0.3937007874015748254 ) ) ;
#349 = FACE_OUTER_BOUND ( 'NONE', #367, .T. ) ;
#350 = LINE ( 'NONE', #121, #499 ) ;
#351 = CARTESIAN_POINT ( 'NONE',  ( 0.2362204724409449064, 0.1181102362204724532, -0.08858267716535432601 ) ) ;
#352 = CARTESIAN_POINT ( 'NONE',  ( -0.7874015748031496509, 0.1181102362204724532, -0.08858267716535432601 ) ) ;
#353 = PRODUCT_DEFINITION ( 'UNKNOWN', '', #271, #252 ) ;
#354 = EDGE_CURVE ( 'NONE', #251, #244, #160, .T. ) ;
#355 = LINE ( 'NONE', #436, #394 ) ;
#356 = DIRECTION ( 'NONE',  ( -1.000000000000000000, -0.000000000000000000, -0.000000000000000000 ) ) ;
#357 = CARTESIAN_POINT ( 'NONE',  ( -0.7874015748031496509, 0.1181102362204724532, -0.08858267716535432601 ) ) ;
#358 = EDGE_LOOP ( 'NONE', ( #211, #283, #147, #439 ) ) ;
#359 = PERSON_AND_ORGANIZATION_ROLE ( 'creator' ) ;
#360 = PRODUCT ( '16_Reed_Bracket_OPEN', '16_Reed_Bracket_OPEN', '', ( #449 ) ) ;
#361 = ORIENTED_EDGE ( 'NONE', *, *, #135, .T. ) ;
#362 = AXIS2_PLACEMENT_3D ( 'NONE', #438, #85, #432 ) ;
#363 = SHAPE_DEFINITION_REPRESENTATION ( #295, #300 ) ;
#364 = ORIENTED_EDGE ( 'NONE', *, *, #127, .F. ) ;
#365 = PERSON_AND_ORGANIZATION ( #216, #240 ) ;
#366 = ORIENTED_EDGE ( 'NONE', *, *, #354, .T. ) ;
#367 = EDGE_LOOP ( 'NONE', ( #133, #136, #441, #298 ) ) ;
#368 = PRODUCT_RELATED_PRODUCT_CATEGORY ( 'detail', '', ( #360 ) ) ;
#369 = PERSON_AND_ORGANIZATION_ROLE ( 'creator' ) ;
#370 = ORIENTED_EDGE ( 'NONE', *, *, #78, .F. ) ;
#371 = EDGE_CURVE ( 'NONE', #380, #265, #162, .T. ) ;
#372 = DIRECTION ( 'NONE',  ( -0.000000000000000000, -1.000000000000000000, -0.000000000000000000 ) ) ;
#373 = VECTOR ( 'NONE', #76, 39.37007874015748143 ) ;
#374 = DIRECTION ( 'NONE',  ( -0.000000000000000000, -1.000000000000000000, -0.000000000000000000 ) ) ;
#375 = VERTEX_POINT ( 'NONE', #157 ) ;
#376 = VECTOR ( 'NONE', #259, 39.37007874015748143 ) ;
#377 = DIRECTION ( 'NONE',  ( -0.000000000000000000, -1.000000000000000000, -0.000000000000000000 ) ) ;
#378 = ORIENTED_EDGE ( 'NONE', *, *, #496, .F. ) ;
#379 = FACE_OUTER_BOUND ( 'NONE', #91, .T. ) ;
#380 = VERTEX_POINT ( 'NONE', #115 ) ;
#381 = LOCAL_TIME ( 1, 38, 49.00000000000000000, #402 ) ;
#382 = FACE_BOUND ( 'NONE', #403, .T. ) ;
#383 = CARTESIAN_POINT ( 'NONE',  ( -1.023622047244094446, 0.000000000000000000, -0.3937007874015748254 ) ) ;
#384 = DIRECTION ( 'NONE',  ( -1.000000000000000000, 0.000000000000000000, 0.000000000000000000 ) ) ;
#385 = DIRECTION ( 'NONE',  ( -0.000000000000000000, -0.000000000000000000, 1.000000000000000000 ) ) ;
#386 = CARTESIAN_POINT ( 'NONE',  ( -1.023622047244094446, 0.1181102362204724532, -0.3937007874015748254 ) ) ;
#387 = LINE ( 'NONE', #195, #182 ) ;
#388 = CARTESIAN_POINT ( 'NONE',  ( 0.2362204724409449064, 0.1181102362204724532, 0.08858267716535432601 ) ) ;
#389 = LINE ( 'NONE', #351, #131 ) ;
#390 = EDGE_CURVE ( 'NONE', #244, #330, #355, .T. ) ;
#391 = VECTOR ( 'NONE', #274, 39.37007874015748143 ) ;
#392 = LINE ( 'NONE', #357, #214 ) ;
#393 = DIRECTION ( 'NONE',  ( 1.000000000000000000, 0.000000000000000000, 0.000000000000000000 ) ) ;
#394 = VECTOR ( 'NONE', #118, 39.37007874015748143 ) ;
#395 = PLANE ( 'NONE',  #87 ) ;
#396 = VERTEX_POINT ( 'NONE', #83 ) ;
#397 = DATE_AND_TIME ( #11, #203 ) ;
#398 = ORIENTED_EDGE ( 'NONE', *, *, #245, .T. ) ;
#399 = CC_DESIGN_APPROVAL ( #332, ( #271 ) ) ;
#400 = EDGE_CURVE ( 'NONE', #256, #248, #31, .T. ) ;
#401 = VECTOR ( 'NONE', #471, 39.37007874015748143 ) ;
#402 = COORDINATED_UNIVERSAL_TIME_OFFSET ( 1, 0, .AHEAD. ) ;
#403 = EDGE_LOOP ( 'NONE', ( #364, #15, #179, #172 ) ) ;
#404 = DATE_AND_TIME ( #291, #113 ) ;
#405 = VERTEX_POINT ( 'NONE', #388 ) ;
#406 = PERSON_AND_ORGANIZATION ( #216, #240 ) ;
#407 = CC_DESIGN_PERSON_AND_ORGANIZATION_ASSIGNMENT ( #365, #53, ( #27 ) ) ;
#408 = ORIENTED_EDGE ( 'NONE', *, *, #263, .F. ) ;
#409 = EDGE_CURVE ( 'NONE', #12, #54, #392, .T. ) ;
#410 =( NAMED_UNIT ( * ) SI_UNIT ( $, .STERADIAN. ) SOLID_ANGLE_UNIT ( ) );
#411 = ORIENTED_EDGE ( 'NONE', *, *, #167, .T. ) ;
#412 = ORIENTED_EDGE ( 'NONE', *, *, #390, .F. ) ;
#413 = AXIS2_PLACEMENT_3D ( 'NONE', #304, #64, #257 ) ;
#414 = CARTESIAN_POINT ( 'NONE',  ( 0.2362204724409449064, 0.000000000000000000, 0.08858267716535432601 ) ) ;
#415 = DIRECTION ( 'NONE',  ( -0.000000000000000000, -1.000000000000000000, -0.000000000000000000 ) ) ;
#416 = ORIENTED_EDGE ( 'NONE', *, *, #82, .T. ) ;
#417 = DIRECTION ( 'NONE',  ( 0.000000000000000000, -1.000000000000000000, 0.000000000000000000 ) ) ;
#418 = ORIENTED_EDGE ( 'NONE', *, *, #409, .F. ) ;
#419 = AXIS2_PLACEMENT_3D ( 'NONE', #427, #417, #109 ) ;
#420 = CARTESIAN_POINT ( 'NONE',  ( 0.7874015748031496509, 0.000000000000000000, 0.08858267716535432601 ) ) ;
#421 = VERTEX_POINT ( 'NONE', #42 ) ;
#422 = VECTOR ( 'NONE', #227, 39.37007874015748143 ) ;
#423 = DIRECTION ( 'NONE',  ( 0.000000000000000000, 0.000000000000000000, -1.000000000000000000 ) ) ;
#424 = DIRECTION ( 'NONE',  ( 0.000000000000000000, 0.000000000000000000, -1.000000000000000000 ) ) ;
#425 = EDGE_CURVE ( 'NONE', #380, #396, #278, .T. ) ;
#426 = CLOSED_SHELL ( 'NONE', ( #174, #117, #96, #63, #473, #503, #120, #73, #479, #246, #237, #224, #99, #431 ) ) ;
#427 = CARTESIAN_POINT ( 'NONE',  ( 0.000000000000000000, 0.1181102362204724532, 0.000000000000000000 ) ) ;
#428 = FACE_OUTER_BOUND ( 'NONE', #450, .T. ) ;
#429 = FACE_OUTER_BOUND ( 'NONE', #292, .T. ) ;
#430 = DIRECTION ( 'NONE',  ( 0.000000000000000000, -0.000000000000000000, -1.000000000000000000 ) ) ;
#431 = ADVANCED_FACE ( 'NONE', ( #235 ), #395, .T. ) ;
#432 = DIRECTION ( 'NONE',  ( 0.000000000000000000, 0.000000000000000000, 1.000000000000000000 ) ) ;
#433 = PLANE ( 'NONE',  #114 ) ;
#434 = LENGTH_MEASURE_WITH_UNIT ( LENGTH_MEASURE( 0.02539999999999999897 ), #509 );
#435 = LINE ( 'NONE', #316, #401 ) ;
#436 = CARTESIAN_POINT ( 'NONE',  ( 0.7874015748031496509, 0.000000000000000000, 0.08858267716535432601 ) ) ;
#437 = VECTOR ( 'NONE', #338, 39.37007874015748143 ) ;
#438 = CARTESIAN_POINT ( 'NONE',  ( 1.023622047244094446, 0.1181102362204724532, 0.3937007874015748254 ) ) ;
#439 = ORIENTED_EDGE ( 'NONE', *, *, #425, .T. ) ;
#440 = CARTESIAN_POINT ( 'NONE',  ( 0.000000000000000000, 0.000000000000000000, 0.000000000000000000 ) ) ;
#441 = ORIENTED_EDGE ( 'NONE', *, *, #159, .T. ) ;
#442 = CALENDAR_DATE ( 2026, 10, 8 ) ;
#443 = ORIENTED_EDGE ( 'NONE', *, *, #496, .T. ) ;
#444 = EDGE_CURVE ( 'NONE', #421, #375, #2, .T. ) ;
#445 = CARTESIAN_POINT ( 'NONE',  ( -0.7874015748031496509, 0.1181102362204724532, 0.08858267716535432601 ) ) ;
#446 = ORIENTED_EDGE ( 'NONE', *, *, #354, .F. ) ;
#447 = COORDINATED_UNIVERSAL_TIME_OFFSET ( 1, 0, .AHEAD. ) ;
#448 = EDGE_LOOP ( 'NONE', ( #43, #408, #416, #128 ) ) ;
#449 = MECHANICAL_CONTEXT ( 'NONE', #261, 'mechanical' ) ;
#450 = EDGE_LOOP ( 'NONE', ( #412, #61, #285, #290 ) ) ;
#451 = AXIS2_PLACEMENT_3D ( 'NONE', #123, #384, #192 ) ;
#452 = FACE_OUTER_BOUND ( 'NONE', #475, .T. ) ;
#453 = ORIENTED_EDGE ( 'NONE', *, *, #371, .T. ) ;
#454 = LINE ( 'NONE', #341, #191 ) ;
#455 = DIRECTION ( 'NONE',  ( -0.000000000000000000, -0.000000000000000000, 1.000000000000000000 ) ) ;
#456 = CARTESIAN_POINT ( 'NONE',  ( -0.7874015748031496509, 0.1181102362204724532, 0.08858267716535432601 ) ) ;
#457 = ORIENTED_EDGE ( 'NONE', *, *, #56, .T. ) ;
#458 = APPROVAL ( #476, 'UNSPECIFIED' ) ;
#459 = EDGE_CURVE ( 'NONE', #265, #142, #469, .T. ) ;
#460 = DIRECTION ( 'NONE',  ( 0.000000000000000000, 0.000000000000000000, -1.000000000000000000 ) ) ;
#461 = PLANE ( 'NONE',  #196 ) ;
#462 = VECTOR ( 'NONE', #466, 39.37007874015748143 ) ;
#463 = LINE ( 'NONE', #264, #151 ) ;
#464 = CARTESIAN_POINT ( 'NONE',  ( 0.2362204724409449064, 0.1181102362204724532, 0.08858267716535432601 ) ) ;
#465 =( GEOMETRIC_REPRESENTATION_CONTEXT ( 3 ) GLOBAL_UNCERTAINTY_ASSIGNED_CONTEXT ( ( #102 ) ) GLOBAL_UNIT_ASSIGNED_CONTEXT ( ( #80, #249, #410 ) ) REPRESENTATION_CONTEXT ( 'NONE', 'WORKASPACE' ) );
#466 = DIRECTION ( 'NONE',  ( 1.000000000000000000, 0.000000000000000000, 0.000000000000000000 ) ) ;
#467 = PLANE ( 'NONE',  #287 ) ;
#468 = VECTOR ( 'NONE', #92, 39.37007874015748143 ) ;
#469 = LINE ( 'NONE', #506, #44 ) ;
#470 = DIRECTION ( 'NONE',  ( 0.000000000000000000, 0.000000000000000000, -1.000000000000000000 ) ) ;
#471 = DIRECTION ( 'NONE',  ( -1.000000000000000000, -0.000000000000000000, -0.000000000000000000 ) ) ;
#472 = DIRECTION ( 'NONE',  ( 1.000000000000000000, 0.000000000000000000, -0.000000000000000000 ) ) ;
#473 = ADVANCED_FACE ( 'NONE', ( #322 ), #474, .F. ) ;
#474 = PLANE ( 'NONE',  #362 ) ;
#475 = EDGE_LOOP ( 'NONE', ( #370, #3, #220, #342 ) ) ;
#476 = APPROVAL_STATUS ( 'not_yet_approved' ) ;
#477 = ORIENTED_EDGE ( 'NONE', *, *, #5, .T. ) ;
#478 = ORIENTED_EDGE ( 'NONE', *, *, #400, .F. ) ;
#479 = ADVANCED_FACE ( 'NONE', ( #35 ), #231, .T. ) ;
#480 = CALENDAR_DATE ( 2026, 10, 8 ) ;
#481 = EDGE_LOOP ( 'NONE', ( #494, #294, #93, #398 ) ) ;
#482 = DATE_TIME_ROLE ( 'creation_date' ) ;
#483 = ORIENTED_EDGE ( 'NONE', *, *, #299, .T. ) ;
#484 = PERSON_AND_ORGANIZATION_ROLE ( 'design_supplier' ) ;
#485 = ORIENTED_EDGE ( 'NONE', *, *, #39, .F. ) ;
#486 = CC_DESIGN_APPROVAL ( #458, ( #27 ) ) ;
#487 = EDGE_CURVE ( 'NONE', #26, #251, #350, .T. ) ;
#488 = CARTESIAN_POINT ( 'NONE',  ( -0.7874015748031496509, 0.1181102362204724532, -0.08858267716535432601 ) ) ;
#489 = ORIENTED_EDGE ( 'NONE', *, *, #39, .T. ) ;
#490 = ORIENTED_EDGE ( 'NONE', *, *, #319, .T. ) ;
#491 = CARTESIAN_POINT ( 'NONE',  ( -1.023622047244094446, 0.000000000000000000, 0.3937007874015748254 ) ) ;
#492 = VERTEX_POINT ( 'NONE', #348 ) ;
#493 = LINE ( 'NONE', #491, #57 ) ;
#494 = ORIENTED_EDGE ( 'NONE', *, *, #24, .T. ) ;
#495 = APPROVAL ( #286, 'UNSPECIFIED' ) ;
#496 = EDGE_CURVE ( 'NONE', #54, #327, #511, .T. ) ;
#497 = CARTESIAN_POINT ( 'NONE',  ( 0.2362204724409449064, 0.1181102362204724532, 0.08858267716535432601 ) ) ;
#498 = ORIENTED_EDGE ( 'NONE', *, *, #241, .F. ) ;
#499 = VECTOR ( 'NONE', #320, 39.37007874015748143 ) ;
#500 = DIRECTION ( 'NONE',  ( 1.000000000000000000, -0.000000000000000000, 0.000000000000000000 ) ) ;
#501 = CARTESIAN_POINT ( 'NONE',  ( 0.7874015748031496509, 0.1181102362204724532, 0.08858267716535432601 ) ) ;
#502 = AXIS2_PLACEMENT_3D ( 'NONE', #59, #500, #152 ) ;
#503 = ADVANCED_FACE ( 'NONE', ( #429 ), #229, .F. ) ;
#504 = CARTESIAN_POINT ( 'NONE',  ( -0.7874015748031496509, 0.1181102362204724532, 0.08858267716535432601 ) ) ;
#505 = CARTESIAN_POINT ( 'NONE',  ( -0.2362204724409449064, 0.1181102362204724532, -0.08858267716535432601 ) ) ;
#506 = CARTESIAN_POINT ( 'NONE',  ( 1.023622047244094446, 0.1181102362204724532, 0.3937007874015748254 ) ) ;
#507 = DIRECTION ( 'NONE',  ( 0.000000000000000000, 0.000000000000000000, -1.000000000000000000 ) ) ;
#508 = AXIS2_PLACEMENT_3D ( 'NONE', #346, #424, #77 ) ;
#509 =( LENGTH_UNIT ( ) NAMED_UNIT ( * ) SI_UNIT ( $, .METRE. ) );
#510 = FACE_OUTER_BOUND ( 'NONE', #358, .T. ) ;
#511 = LINE ( 'NONE', #504, #163 ) ;
#512 = LINE ( 'NONE', #190, #37 ) ;
ENDSEC;
END-ISO-10303-21;
