ISO-10303-21;
HEADER;
FILE_DESCRIPTION (( 'STEP AP203' ),
    '1' );
FILE_NAME ('17_Reed_Bracket_CLOSED.STEP',
    '2026-08-10T00:38:52',
    ( '' ),
    ( '' ),
    'SwSTEP 2.0',
    'SolidWorks 2026',
    '' );
FILE_SCHEMA (( 'CONFIG_CONTROL_DESIGN' ));
ENDSEC;

DATA;
#1 = DIRECTION ( 'NONE',  ( -1.000000000000000000, -0.000000000000000000, -0.000000000000000000 ) ) ;
#2 = VERTEX_POINT ( 'NONE', #393 ) ;
#3 = LINE ( 'NONE', #485, #402 ) ;
#4 = APPLICATION_CONTEXT ( 'configuration controlled 3d designs of mechanical parts and assemblies' ) ;
#5 = PLANE ( 'NONE',  #119 ) ;
#6 = VECTOR ( 'NONE', #463, 39.37007874015748143 ) ;
#7 = VECTOR ( 'NONE', #191, 39.37007874015748143 ) ;
#8 = DIRECTION ( 'NONE',  ( -1.000000000000000000, -0.000000000000000000, -0.000000000000000000 ) ) ;
#9 = LINE ( 'NONE', #363, #284 ) ;
#10 = EDGE_CURVE ( 'NONE', #142, #341, #434, .T. ) ;
#11 = EDGE_CURVE ( 'NONE', #130, #145, #12, .T. ) ;
#12 = LINE ( 'NONE', #398, #216 ) ;
#13 = CARTESIAN_POINT ( 'NONE',  ( 0.7874015748031496509, 0.000000000000000000, 0.08858267716535432601 ) ) ;
#14 = LINE ( 'NONE', #197, #190 ) ;
#15 = CC_DESIGN_PERSON_AND_ORGANIZATION_ASSIGNMENT ( #109, #68, ( #354 ) ) ;
#16 = EDGE_LOOP ( 'NONE', ( #355, #66, #510, #377 ) ) ;
#17 = LINE ( 'NONE', #437, #388 ) ;
#18 = LINE ( 'NONE', #486, #429 ) ;
#19 = FACE_OUTER_BOUND ( 'NONE', #266, .T. ) ;
#20 = APPROVAL_DATE_TIME ( #279, #261 ) ;
#21 = DIRECTION ( 'NONE',  ( -0.000000000000000000, -0.000000000000000000, 1.000000000000000000 ) ) ;
#22 = ORIENTED_EDGE ( 'NONE', *, *, #128, .T. ) ;
#23 = FACE_OUTER_BOUND ( 'NONE', #409, .T. ) ;
#24 = PERSON_AND_ORGANIZATION_ROLE ( 'design_supplier' ) ;
#25 = EDGE_CURVE ( 'NONE', #304, #207, #310, .T. ) ;
#26 = DIRECTION ( 'NONE',  ( 0.000000000000000000, 0.000000000000000000, 1.000000000000000000 ) ) ;
#27 = LOCAL_TIME ( 1, 38, 52.00000000000000000, #421 ) ;
#28 = APPROVAL_ROLE ( '' ) ;
#29 = SECURITY_CLASSIFICATION ( '', '', #298 ) ;
#30 = ORIENTED_EDGE ( 'NONE', *, *, #148, .T. ) ;
#31 = ORIENTED_EDGE ( 'NONE', *, *, #370, .T. ) ;
#32 = DIRECTION ( 'NONE',  ( 0.000000000000000000, 0.000000000000000000, 1.000000000000000000 ) ) ;
#33 = EDGE_LOOP ( 'NONE', ( #209, #507, #184, #503 ) ) ;
#34 = AXIS2_PLACEMENT_3D ( 'NONE', #77, #154, #449 ) ;
#35 = PERSON_AND_ORGANIZATION ( #70, #493 ) ;
#36 = ORIENTED_EDGE ( 'NONE', *, *, #10, .F. ) ;
#37 = ORIENTED_EDGE ( 'NONE', *, *, #181, .F. ) ;
#38 = PLANE ( 'NONE',  #291 ) ;
#39 = ORIENTED_EDGE ( 'NONE', *, *, #497, .T. ) ;
#40 = CARTESIAN_POINT ( 'NONE',  ( 0.2362204724409449064, 0.1181102362204724532, -0.08858267716535432601 ) ) ;
#41 = DIRECTION ( 'NONE',  ( 0.000000000000000000, 0.000000000000000000, 1.000000000000000000 ) ) ;
#42 = LINE ( 'NONE', #271, #135 ) ;
#43 = DIRECTION ( 'NONE',  ( -0.000000000000000000, -1.000000000000000000, -0.000000000000000000 ) ) ;
#44 = CARTESIAN_POINT ( 'NONE',  ( -0.7874015748031496509, 0.1181102362204724532, -0.08858267716535432601 ) ) ;
#45 = LENGTH_MEASURE_WITH_UNIT ( LENGTH_MEASURE( 0.02539999999999999897 ), #239 );
#46 = DIRECTION ( 'NONE',  ( 1.000000000000000000, 0.000000000000000000, 0.000000000000000000 ) ) ;
#47 = VECTOR ( 'NONE', #366, 39.37007874015748143 ) ;
#48 = ADVANCED_FACE ( 'NONE', ( #162 ), #5, .T. ) ;
#49 = LINE ( 'NONE', #40, #263 ) ;
#50 =( CONVERSION_BASED_UNIT ( 'INCH', #45 ) LENGTH_UNIT ( ) NAMED_UNIT ( #324 ) );
#51 = ORIENTED_EDGE ( 'NONE', *, *, #500, .T. ) ;
#52 = FACE_OUTER_BOUND ( 'NONE', #390, .T. ) ;
#53 = CARTESIAN_POINT ( 'NONE',  ( -0.2362204724409449064, 0.000000000000000000, 0.08858267716535432601 ) ) ;
#54 = EDGE_CURVE ( 'NONE', #115, #2, #122, .T. ) ;
#55 = VECTOR ( 'NONE', #75, 39.37007874015748143 ) ;
#56 = DIRECTION ( 'NONE',  ( 0.000000000000000000, -0.000000000000000000, -1.000000000000000000 ) ) ;
#57 = DIRECTION ( 'NONE',  ( 1.000000000000000000, -0.000000000000000000, 0.000000000000000000 ) ) ;
#58 = CALENDAR_DATE ( 2026, 10, 8 ) ;
#59 = CARTESIAN_POINT ( 'NONE',  ( 0.2362204724409449064, 0.1181102362204724532, 0.08858267716535432601 ) ) ;
#60 = EDGE_CURVE ( 'NONE', #407, #436, #76, .T. ) ;
#61 = PERSON_AND_ORGANIZATION ( #70, #493 ) ;
#62 = ORIENTED_EDGE ( 'NONE', *, *, #275, .F. ) ;
#63 = PLANE ( 'NONE',  #71 ) ;
#64 = CC_DESIGN_DATE_AND_TIME_ASSIGNMENT ( #504, #293, ( #188 ) ) ;
#65 = CALENDAR_DATE ( 2026, 10, 8 ) ;
#66 = ORIENTED_EDGE ( 'NONE', *, *, #448, .T. ) ;
#67 = ORIENTED_EDGE ( 'NONE', *, *, #464, .T. ) ;
#68 = PERSON_AND_ORGANIZATION_ROLE ( 'design_owner' ) ;
#69 = ORIENTED_EDGE ( 'NONE', *, *, #268, .T. ) ;
#70 = PERSON ( 'UNSPECIFIED', 'UNSPECIFIED', 'UNSPECIFIED', ('UNSPECIFIED'), ('UNSPECIFIED'), ('UNSPECIFIED') ) ;
#71 = AXIS2_PLACEMENT_3D ( 'NONE', #59, #102, #214 ) ;
#72 = VECTOR ( 'NONE', #43, 39.37007874015748143 ) ;
#73 = EDGE_LOOP ( 'NONE', ( #31, #270, #462, #67 ) ) ;
#74 = EDGE_CURVE ( 'NONE', #436, #352, #272, .T. ) ;
#75 = DIRECTION ( 'NONE',  ( -1.000000000000000000, -0.000000000000000000, -0.000000000000000000 ) ) ;
#76 = LINE ( 'NONE', #229, #7 ) ;
#77 = CARTESIAN_POINT ( 'NONE',  ( -0.2362204724409449064, 0.1181102362204724532, 0.08858267716535432601 ) ) ;
#78 = ORIENTED_EDGE ( 'NONE', *, *, #92, .F. ) ;
#79 = PLANE ( 'NONE',  #343 ) ;
#80 = VECTOR ( 'NONE', #246, 39.37007874015748143 ) ;
#81 = DIRECTION ( 'NONE',  ( 0.000000000000000000, 0.000000000000000000, -1.000000000000000000 ) ) ;
#82 = DIRECTION ( 'NONE',  ( 0.000000000000000000, 0.000000000000000000, -1.000000000000000000 ) ) ;
#83 = CARTESIAN_POINT ( 'NONE',  ( -0.7874015748031496509, 0.1181102362204724532, -0.08858267716535432601 ) ) ;
#84 = CARTESIAN_POINT ( 'NONE',  ( -1.023622047244094446, 0.1181102362204724532, 0.3937007874015748254 ) ) ;
#85 = DIRECTION ( 'NONE',  ( 0.000000000000000000, 0.000000000000000000, 1.000000000000000000 ) ) ;
#86 = DIRECTION ( 'NONE',  ( -0.000000000000000000, -1.000000000000000000, -0.000000000000000000 ) ) ;
#87 = LINE ( 'NONE', #484, #315 ) ;
#88 = AXIS2_PLACEMENT_3D ( 'NONE', #165, #496, #56 ) ;
#89 = LINE ( 'NONE', #202, #335 ) ;
#90 = LINE ( 'NONE', #166, #176 ) ;
#91 = CC_DESIGN_APPROVAL ( #261, ( #29 ) ) ;
#92 = EDGE_CURVE ( 'NONE', #258, #167, #155, .T. ) ;
#93 = DIRECTION ( 'NONE',  ( 1.000000000000000000, 0.000000000000000000, 0.000000000000000000 ) ) ;
#94 = CARTESIAN_POINT ( 'NONE',  ( -0.7874015748031496509, 0.000000000000000000, 0.08858267716535432601 ) ) ;
#95 = DIRECTION ( 'NONE',  ( 1.000000000000000000, 0.000000000000000000, -0.000000000000000000 ) ) ;
#96 = VECTOR ( 'NONE', #479, 39.37007874015748143 ) ;
#97 = CARTESIAN_POINT ( 'NONE',  ( -0.7874015748031496509, 0.000000000000000000, 0.08858267716535432601 ) ) ;
#98 = PLANE ( 'NONE',  #509 ) ;
#99 = COORDINATED_UNIVERSAL_TIME_OFFSET ( 1, 0, .AHEAD. ) ;
#100 = CC_DESIGN_PERSON_AND_ORGANIZATION_ASSIGNMENT ( #418, #213, ( #338 ) ) ;
#101 = EDGE_LOOP ( 'NONE', ( #317, #37, #230, #218 ) ) ;
#102 = DIRECTION ( 'NONE',  ( 1.000000000000000000, -0.000000000000000000, 0.000000000000000000 ) ) ;
#103 = APPLICATION_PROTOCOL_DEFINITION ( 'international standard', 'config_control_design', 1994, #4 ) ;
#104 = ORIENTED_EDGE ( 'NONE', *, *, #137, .T. ) ;
#105 = ORIENTED_EDGE ( 'NONE', *, *, #431, .T. ) ;
#106 = ADVANCED_FACE ( 'NONE', ( #476, #276, #358 ), #38, .T. ) ;
#107 = MECHANICAL_CONTEXT ( 'NONE', #257, 'mechanical' ) ;
#108 = ORIENTED_EDGE ( 'NONE', *, *, #469, .F. ) ;
#109 = PERSON_AND_ORGANIZATION ( #70, #493 ) ;
#110 = ORIENTED_EDGE ( 'NONE', *, *, #11, .T. ) ;
#111 = EDGE_CURVE ( 'NONE', #187, #147, #189, .T. ) ;
#112 = ADVANCED_BREP_SHAPE_REPRESENTATION ( '17_Reed_Bracket_CLOSED', ( #228, #264 ), #472 ) ;
#113 = EDGE_LOOP ( 'NONE', ( #297, #171, #108, #117 ) ) ;
#114 = EDGE_CURVE ( 'NONE', #207, #130, #267, .T. ) ;
#115 = VERTEX_POINT ( 'NONE', #321 ) ;
#116 = PLANE ( 'NONE',  #34 ) ;
#117 = ORIENTED_EDGE ( 'NONE', *, *, #242, .T. ) ;
#118 = CARTESIAN_POINT ( 'NONE',  ( 0.7874015748031496509, 0.1181102362204724532, -0.08858267716535432601 ) ) ;
#119 = AXIS2_PLACEMENT_3D ( 'NONE', #396, #41, #394 ) ;
#120 = DIRECTION ( 'NONE',  ( -0.000000000000000000, -1.000000000000000000, -0.000000000000000000 ) ) ;
#121 = LINE ( 'NONE', #316, #305 ) ;
#122 = LINE ( 'NONE', #350, #55 ) ;
#123 = FACE_BOUND ( 'NONE', #468, .T. ) ;
#124 = DIRECTION ( 'NONE',  ( 1.000000000000000000, -0.000000000000000000, 0.000000000000000000 ) ) ;
#125 = CARTESIAN_POINT ( 'NONE',  ( 1.023622047244094446, 0.000000000000000000, 0.3937007874015748254 ) ) ;
#126 = DIRECTION ( 'NONE',  ( 0.000000000000000000, 0.000000000000000000, -1.000000000000000000 ) ) ;
#127 = DIRECTION ( 'NONE',  ( -0.000000000000000000, -1.000000000000000000, -0.000000000000000000 ) ) ;
#128 = EDGE_CURVE ( 'NONE', #259, #115, #87, .T. ) ;
#129 = VECTOR ( 'NONE', #21, 39.37007874015748143 ) ;
#130 = VERTEX_POINT ( 'NONE', #125 ) ;
#131 = DIRECTION ( 'NONE',  ( 1.000000000000000000, 0.000000000000000000, 0.000000000000000000 ) ) ;
#132 = LINE ( 'NONE', #453, #47 ) ;
#133 = CARTESIAN_POINT ( 'NONE',  ( 0.2362204724409449064, 0.1181102362204724532, -0.08858267716535432601 ) ) ;
#134 = CARTESIAN_POINT ( 'NONE',  ( 0.7874015748031496509, 0.1181102362204724532, 0.08858267716535432601 ) ) ;
#135 = VECTOR ( 'NONE', #408, 39.37007874015748143 ) ;
#136 = DIRECTION ( 'NONE',  ( -0.000000000000000000, -0.000000000000000000, 1.000000000000000000 ) ) ;
#137 = EDGE_CURVE ( 'NONE', #373, #304, #281, .T. ) ;
#138 = CC_DESIGN_APPROVAL ( #280, ( #338 ) ) ;
#139 = APPROVAL_ROLE ( '' ) ;
#140 = CARTESIAN_POINT ( 'NONE',  ( 0.7874015748031496509, 0.000000000000000000, -0.08858267716535432601 ) ) ;
#141 = COORDINATED_UNIVERSAL_TIME_OFFSET ( 1, 0, .AHEAD. ) ;
#142 = VERTEX_POINT ( 'NONE', #118 ) ;
#143 = CARTESIAN_POINT ( 'NONE',  ( 0.000000000000000000, 0.000000000000000000, 0.000000000000000000 ) ) ;
#144 = ORIENTED_EDGE ( 'NONE', *, *, #308, .T. ) ;
#145 = VERTEX_POINT ( 'NONE', #397 ) ;
#146 = PERSON_AND_ORGANIZATION ( #70, #493 ) ;
#147 = VERTEX_POINT ( 'NONE', #269 ) ;
#148 = EDGE_CURVE ( 'NONE', #436, #259, #89, .T. ) ;
#149 = EDGE_LOOP ( 'NONE', ( #385, #183, #423, #478 ) ) ;
#150 = CC_DESIGN_APPROVAL ( #379, ( #188 ) ) ;
#151 = CC_DESIGN_PERSON_AND_ORGANIZATION_ASSIGNMENT ( #61, #251, ( #188 ) ) ;
#152 = ORIENTED_EDGE ( 'NONE', *, *, #181, .T. ) ;
#153 = CARTESIAN_POINT ( 'NONE',  ( -0.2362204724409449064, 0.1181102362204724532, 0.08858267716535432601 ) ) ;
#154 = DIRECTION ( 'NONE',  ( -1.000000000000000000, 0.000000000000000000, 0.000000000000000000 ) ) ;
#155 = LINE ( 'NONE', #512, #458 ) ;
#156 = AXIS2_PLACEMENT_3D ( 'NONE', #249, #288, #254 ) ;
#157 = DIRECTION ( 'NONE',  ( 0.000000000000000000, 0.000000000000000000, -1.000000000000000000 ) ) ;
#158 = AXIS2_PLACEMENT_3D ( 'NONE', #399, #163, #353 ) ;
#159 = EDGE_LOOP ( 'NONE', ( #389, #346, #312, #501 ) ) ;
#160 = CARTESIAN_POINT ( 'NONE',  ( 1.023622047244094446, 0.1181102362204724532, -0.3937007874015748254 ) ) ;
#161 = DIRECTION ( 'NONE',  ( -1.000000000000000000, -0.000000000000000000, -0.000000000000000000 ) ) ;
#162 = FACE_OUTER_BOUND ( 'NONE', #227, .T. ) ;
#163 = DIRECTION ( 'NONE',  ( 0.000000000000000000, 0.000000000000000000, -1.000000000000000000 ) ) ;
#164 = DIRECTION ( 'NONE',  ( 0.000000000000000000, 0.000000000000000000, -1.000000000000000000 ) ) ;
#165 = CARTESIAN_POINT ( 'NONE',  ( 0.000000000000000000, 0.1181102362204724532, 0.000000000000000000 ) ) ;
#166 = CARTESIAN_POINT ( 'NONE',  ( 0.2362204724409449064, 0.1181102362204724532, -0.08858267716535432601 ) ) ;
#167 = VERTEX_POINT ( 'NONE', #160 ) ;
#168 = LINE ( 'NONE', #97, #273 ) ;
#169 = DESIGN_CONTEXT ( 'detailed design', #4, 'design' ) ;
#170 = PLANE ( 'NONE',  #199 ) ;
#171 = ORIENTED_EDGE ( 'NONE', *, *, #464, .F. ) ;
#172 = LINE ( 'NONE', #332, #351 ) ;
#173 = PRODUCT_RELATED_PRODUCT_CATEGORY ( 'detail', '', ( #354 ) ) ;
#174 = CALENDAR_DATE ( 2026, 10, 8 ) ;
#175 = VECTOR ( 'NONE', #481, 39.37007874015748143 ) ;
#176 = VECTOR ( 'NONE', #127, 39.37007874015748143 ) ;
#177 = PLANE ( 'NONE',  #156 ) ;
#178 = LOCAL_TIME ( 1, 38, 52.00000000000000000, #141 ) ;
#179 = PERSON_AND_ORGANIZATION ( #70, #493 ) ;
#180 = VERTEX_POINT ( 'NONE', #444 ) ;
#181 = EDGE_CURVE ( 'NONE', #142, #499, #49, .T. ) ;
#182 = DATE_AND_TIME ( #65, #433 ) ;
#183 = ORIENTED_EDGE ( 'NONE', *, *, #186, .F. ) ;
#184 = ORIENTED_EDGE ( 'NONE', *, *, #431, .F. ) ;
#185 = ORIENTED_EDGE ( 'NONE', *, *, #111, .T. ) ;
#186 = EDGE_CURVE ( 'NONE', #145, #241, #42, .T. ) ;
#187 = VERTEX_POINT ( 'NONE', #439 ) ;
#188 = PRODUCT_DEFINITION ( 'UNKNOWN', '', #338, #169 ) ;
#189 = LINE ( 'NONE', #236, #361 ) ;
#190 = VECTOR ( 'NONE', #278, 39.37007874015748143 ) ;
#191 = DIRECTION ( 'NONE',  ( 1.000000000000000000, 0.000000000000000000, 0.000000000000000000 ) ) ;
#192 = CARTESIAN_POINT ( 'NONE',  ( -1.023622047244094446, 0.1181102362204724532, 0.3937007874015748254 ) ) ;
#193 = ORIENTED_EDGE ( 'NONE', *, *, #60, .T. ) ;
#194 = FACE_OUTER_BOUND ( 'NONE', #226, .T. ) ;
#195 = DIRECTION ( 'NONE',  ( -0.000000000000000000, -1.000000000000000000, -0.000000000000000000 ) ) ;
#196 = DIRECTION ( 'NONE',  ( -1.000000000000000000, 0.000000000000000000, -0.000000000000000000 ) ) ;
#197 = CARTESIAN_POINT ( 'NONE',  ( -1.023622047244094446, 0.1181102362204724532, -0.3937007874015748254 ) ) ;
#198 = VECTOR ( 'NONE', #441, 39.37007874015748143 ) ;
#199 = AXIS2_PLACEMENT_3D ( 'NONE', #133, #208, #95 ) ;
#200 = ORIENTED_EDGE ( 'NONE', *, *, #54, .F. ) ;
#201 = ADVANCED_FACE ( 'NONE', ( #52 ), #79, .F. ) ;
#202 = CARTESIAN_POINT ( 'NONE',  ( -0.2362204724409449064, 0.1181102362204724532, 0.08858267716535432601 ) ) ;
#203 = ADVANCED_FACE ( 'NONE', ( #244 ), #238, .T. ) ;
#204 = ORIENTED_EDGE ( 'NONE', *, *, #10, .T. ) ;
#205 = CARTESIAN_POINT ( 'NONE',  ( -0.7874015748031496509, 0.1181102362204724532, 0.08858267716535432601 ) ) ;
#206 = CARTESIAN_POINT ( 'NONE',  ( -0.7874015748031496509, 0.1181102362204724532, 0.08858267716535432601 ) ) ;
#207 = VERTEX_POINT ( 'NONE', #233 ) ;
#208 = DIRECTION ( 'NONE',  ( 0.000000000000000000, 0.000000000000000000, 1.000000000000000000 ) ) ;
#209 = ORIENTED_EDGE ( 'NONE', *, *, #114, .T. ) ;
#210 = FACE_OUTER_BOUND ( 'NONE', #113, .T. ) ;
#211 = ORIENTED_EDGE ( 'NONE', *, *, #339, .T. ) ;
#212 = CARTESIAN_POINT ( 'NONE',  ( -0.7874015748031496509, 0.1181102362204724532, 0.08858267716535432601 ) ) ;
#213 = PERSON_AND_ORGANIZATION_ROLE ( 'creator' ) ;
#214 = DIRECTION ( 'NONE',  ( 0.000000000000000000, 0.000000000000000000, -1.000000000000000000 ) ) ;
#215 = APPROVAL_STATUS ( 'not_yet_approved' ) ;
#216 = VECTOR ( 'NONE', #81, 39.37007874015748143 ) ;
#217 = UNCERTAINTY_MEASURE_WITH_UNIT (LENGTH_MEASURE( 1.000000000000000082E-05 ), #50, 'distance_accuracy_value', 'NONE');
#218 = ORIENTED_EDGE ( 'NONE', *, *, #386, .F. ) ;
#219 = VECTOR ( 'NONE', #442, 39.37007874015748143 ) ;
#220 = ADVANCED_FACE ( 'NONE', ( #274 ), #116, .T. ) ;
#221 = CARTESIAN_POINT ( 'NONE',  ( -1.023622047244094446, 0.000000000000000000, 0.3937007874015748254 ) ) ;
#222 = COORDINATED_UNIVERSAL_TIME_OFFSET ( 1, 0, .AHEAD. ) ;
#223 = VERTEX_POINT ( 'NONE', #13 ) ;
#224 = ORIENTED_EDGE ( 'NONE', *, *, #511, .T. ) ;
#225 = DATE_AND_TIME ( #58, #27 ) ;
#226 = EDGE_LOOP ( 'NONE', ( #289, #411, #451, #294 ) ) ;
#227 = EDGE_LOOP ( 'NONE', ( #200, #382, #224, #367 ) ) ;
#228 = MANIFOLD_SOLID_BREP ( 'Slotted_Bracket_Extrude', #256 ) ;
#229 = CARTESIAN_POINT ( 'NONE',  ( -0.7874015748031496509, 0.1181102362204724532, 0.08858267716535432601 ) ) ;
#230 = ORIENTED_EDGE ( 'NONE', *, *, #339, .F. ) ;
#231 = CARTESIAN_POINT ( 'NONE',  ( 1.023622047244094446, 0.1181102362204724532, 0.3937007874015748254 ) ) ;
#232 = EDGE_LOOP ( 'NONE', ( #303, #260, #193, #456 ) ) ;
#233 = CARTESIAN_POINT ( 'NONE',  ( -1.023622047244094446, 0.000000000000000000, 0.3937007874015748254 ) ) ;
#234 = CARTESIAN_POINT ( 'NONE',  ( 0.7874015748031496509, 0.1181102362204724532, -0.08858267716535432601 ) ) ;
#235 = DIRECTION ( 'NONE',  ( 1.000000000000000000, 0.000000000000000000, 0.000000000000000000 ) ) ;
#236 = CARTESIAN_POINT ( 'NONE',  ( 0.2362204724409449064, 0.1181102362204724532, 0.08858267716535432601 ) ) ;
#237 = ADVANCED_FACE ( 'NONE', ( #194 ), #368, .T. ) ;
#238 = PLANE ( 'NONE',  #413 ) ;
#239 =( LENGTH_UNIT ( ) NAMED_UNIT ( * ) SI_UNIT ( $, .METRE. ) );
#240 = APPROVAL_PERSON_ORGANIZATION ( #35, #379, #255 ) ;
#241 = VERTEX_POINT ( 'NONE', #322 ) ;
#242 = EDGE_CURVE ( 'NONE', #167, #145, #475, .T. ) ;
#243 = APPROVAL_PERSON_ORGANIZATION ( #146, #280, #139 ) ;
#244 = FACE_OUTER_BOUND ( 'NONE', #232, .T. ) ;
#245 = ORIENTED_EDGE ( 'NONE', *, *, #448, .F. ) ;
#246 = DIRECTION ( 'NONE',  ( -0.000000000000000000, -1.000000000000000000, -0.000000000000000000 ) ) ;
#247 = FACE_OUTER_BOUND ( 'NONE', #33, .T. ) ;
#248 = VECTOR ( 'NONE', #46, 39.37007874015748143 ) ;
#249 = CARTESIAN_POINT ( 'NONE',  ( 0.7874015748031496509, 0.1181102362204724532, 0.08858267716535432601 ) ) ;
#250 = FACE_BOUND ( 'NONE', #101, .T. ) ;
#251 = PERSON_AND_ORGANIZATION_ROLE ( 'creator' ) ;
#252 = EDGE_CURVE ( 'NONE', #341, #180, #17, .T. ) ;
#253 = VERTEX_POINT ( 'NONE', #44 ) ;
#254 = DIRECTION ( 'NONE',  ( 0.000000000000000000, 0.000000000000000000, 1.000000000000000000 ) ) ;
#255 = APPROVAL_ROLE ( '' ) ;
#256 = CLOSED_SHELL ( 'NONE', ( #320, #106, #406, #329, #201, #333, #432, #203, #220, #48, #348, #237, #349, #416 ) ) ;
#257 = APPLICATION_CONTEXT ( 'configuration controlled 3d designs of mechanical parts and assemblies' ) ;
#258 = VERTEX_POINT ( 'NONE', #356 ) ;
#259 = VERTEX_POINT ( 'NONE', #365 ) ;
#260 = ORIENTED_EDGE ( 'NONE', *, *, #435, .F. ) ;
#261 = APPROVAL ( #340, 'UNSPECIFIED' ) ;
#262 = VERTEX_POINT ( 'NONE', #311 ) ;
#263 = VECTOR ( 'NONE', #1, 39.37007874015748143 ) ;
#264 = AXIS2_PLACEMENT_3D ( 'NONE', #143, #32, #502 ) ;
#265 = CC_DESIGN_SECURITY_CLASSIFICATION ( #29, ( #338 ) ) ;
#266 = EDGE_LOOP ( 'NONE', ( #62, #347, #211, #204 ) ) ;
#267 = LINE ( 'NONE', #474, #248 ) ;
#268 = EDGE_CURVE ( 'NONE', #352, #115, #121, .T. ) ;
#269 = CARTESIAN_POINT ( 'NONE',  ( 0.2362204724409449064, 0.000000000000000000, 0.08858267716535432601 ) ) ;
#270 = ORIENTED_EDGE ( 'NONE', *, *, #25, .F. ) ;
#271 = CARTESIAN_POINT ( 'NONE',  ( -1.023622047244094446, 0.000000000000000000, -0.3937007874015748254 ) ) ;
#272 = LINE ( 'NONE', #153, #72 ) ;
#273 = VECTOR ( 'NONE', #93, 39.37007874015748143 ) ;
#274 = FACE_OUTER_BOUND ( 'NONE', #419, .T. ) ;
#275 = EDGE_CURVE ( 'NONE', #223, #341, #3, .T. ) ;
#276 = FACE_BOUND ( 'NONE', #470, .T. ) ;
#277 = CARTESIAN_POINT ( 'NONE',  ( -1.023622047244094446, 0.1181102362204724532, 0.3937007874015748254 ) ) ;
#278 = DIRECTION ( 'NONE',  ( -0.000000000000000000, -1.000000000000000000, -0.000000000000000000 ) ) ;
#279 = DATE_AND_TIME ( #384, #178 ) ;
#280 = APPROVAL ( #215, 'UNSPECIFIED' ) ;
#281 = LINE ( 'NONE', #277, #198 ) ;
#282 = LINE ( 'NONE', #395, #508 ) ;
#283 = LINE ( 'NONE', #83, #336 ) ;
#284 = VECTOR ( 'NONE', #161, 39.37007874015748143 ) ;
#285 = ORIENTED_EDGE ( 'NONE', *, *, #92, .T. ) ;
#286 = FACE_OUTER_BOUND ( 'NONE', #426, .T. ) ;
#287 = CARTESIAN_POINT ( 'NONE',  ( 0.2362204724409449064, 0.1181102362204724532, -0.08858267716535432601 ) ) ;
#288 = DIRECTION ( 'NONE',  ( -1.000000000000000000, 0.000000000000000000, 0.000000000000000000 ) ) ;
#289 = ORIENTED_EDGE ( 'NONE', *, *, #307, .F. ) ;
#290 = PLANE ( 'NONE',  #360 ) ;
#291 = AXIS2_PLACEMENT_3D ( 'NONE', #480, #438, #443 ) ;
#292 = CARTESIAN_POINT ( 'NONE',  ( -0.7874015748031496509, 0.1181102362204724532, 0.08858267716535432601 ) ) ;
#293 = DATE_TIME_ROLE ( 'creation_date' ) ;
#294 = ORIENTED_EDGE ( 'NONE', *, *, #391, .T. ) ;
#295 = DIRECTION ( 'NONE',  ( -1.000000000000000000, 0.000000000000000000, -0.000000000000000000 ) ) ;
#296 = APPLICATION_PROTOCOL_DEFINITION ( 'international standard', 'config_control_design', 1994, #257 ) ;
#297 = ORIENTED_EDGE ( 'NONE', *, *, #186, .T. ) ;
#298 = SECURITY_CLASSIFICATION_LEVEL ( 'unclassified' ) ;
#299 = ORIENTED_EDGE ( 'NONE', *, *, #242, .F. ) ;
#300 =( NAMED_UNIT ( * ) SI_UNIT ( $, .STERADIAN. ) SOLID_ANGLE_UNIT ( ) );
#301 = ORIENTED_EDGE ( 'NONE', *, *, #483, .T. ) ;
#302 = COORDINATED_UNIVERSAL_TIME_OFFSET ( 1, 0, .AHEAD. ) ;
#303 = ORIENTED_EDGE ( 'NONE', *, *, #392, .F. ) ;
#304 = VERTEX_POINT ( 'NONE', #192 ) ;
#305 = VECTOR ( 'NONE', #126, 39.37007874015748143 ) ;
#306 = VECTOR ( 'NONE', #86, 39.37007874015748143 ) ;
#307 = EDGE_CURVE ( 'NONE', #147, #223, #282, .T. ) ;
#308 = EDGE_CURVE ( 'NONE', #499, #187, #362, .T. ) ;
#309 = LOCAL_TIME ( 1, 38, 52.00000000000000000, #222 ) ;
#310 = LINE ( 'NONE', #84, #428 ) ;
#311 = CARTESIAN_POINT ( 'NONE',  ( -0.7874015748031496509, 0.000000000000000000, 0.08858267716535432601 ) ) ;
#312 = ORIENTED_EDGE ( 'NONE', *, *, #424, .T. ) ;
#313 = CARTESIAN_POINT ( 'NONE',  ( 1.023622047244094446, 0.1181102362204724532, -0.3937007874015748254 ) ) ;
#314 = DIRECTION ( 'NONE',  ( 0.000000000000000000, 0.000000000000000000, -1.000000000000000000 ) ) ;
#315 = VECTOR ( 'NONE', #446, 39.37007874015748143 ) ;
#316 = CARTESIAN_POINT ( 'NONE',  ( -0.2362204724409449064, 0.000000000000000000, 0.08858267716535432601 ) ) ;
#317 = ORIENTED_EDGE ( 'NONE', *, *, #308, .F. ) ;
#318 = CARTESIAN_POINT ( 'NONE',  ( 0.2362204724409449064, 0.1181102362204724532, 0.08858267716535432601 ) ) ;
#319 = DIRECTION ( 'NONE',  ( -0.000000000000000000, -1.000000000000000000, -0.000000000000000000 ) ) ;
#320 = ADVANCED_FACE ( 'NONE', ( #123, #378, #250 ), #331, .F. ) ;
#321 = CARTESIAN_POINT ( 'NONE',  ( -0.2362204724409449064, 0.000000000000000000, -0.08858267716535432601 ) ) ;
#322 = CARTESIAN_POINT ( 'NONE',  ( -1.023622047244094446, 0.000000000000000000, -0.3937007874015748254 ) ) ;
#323 = DIRECTION ( 'NONE',  ( -0.000000000000000000, -1.000000000000000000, -0.000000000000000000 ) ) ;
#324 = DIMENSIONAL_EXPONENTS ( 1.000000000000000000, 0.000000000000000000, 0.000000000000000000, 0.000000000000000000, 0.000000000000000000, 0.000000000000000000, 0.000000000000000000 ) ;
#325 = SHAPE_DEFINITION_REPRESENTATION ( #374, #112 ) ;
#326 = ORIENTED_EDGE ( 'NONE', *, *, #148, .F. ) ;
#327 = FACE_OUTER_BOUND ( 'NONE', #73, .T. ) ;
#328 = CARTESIAN_POINT ( 'NONE',  ( -0.2362204724409449064, 0.1181102362204724532, 0.08858267716535432601 ) ) ;
#329 = ADVANCED_FACE ( 'NONE', ( #247 ), #290, .F. ) ;
#330 = CARTESIAN_POINT ( 'NONE',  ( 0.7874015748031496509, 0.1181102362204724532, 0.08858267716535432601 ) ) ;
#331 = PLANE ( 'NONE',  #88 ) ;
#332 = CARTESIAN_POINT ( 'NONE',  ( -1.023622047244094446, 0.1181102362204724532, 0.3937007874015748254 ) ) ;
#333 = ADVANCED_FACE ( 'NONE', ( #210 ), #417, .F. ) ;
#334 = CALENDAR_DATE ( 2026, 10, 8 ) ;
#335 = VECTOR ( 'NONE', #82, 39.37007874015748143 ) ;
#336 = VECTOR ( 'NONE', #482, 39.37007874015748143 ) ;
#337 = DIRECTION ( 'NONE',  ( 0.000000000000000000, 0.000000000000000000, -1.000000000000000000 ) ) ;
#338 = PRODUCT_DEFINITION_FORMATION_WITH_SPECIFIED_SOURCE ( 'ANY', '', #354, .NOT_KNOWN. ) ;
#339 = EDGE_CURVE ( 'NONE', #430, #142, #452, .T. ) ;
#340 = APPROVAL_STATUS ( 'not_yet_approved' ) ;
#341 = VERTEX_POINT ( 'NONE', #140 ) ;
#342 = ORIENTED_EDGE ( 'NONE', *, *, #469, .T. ) ;
#343 = AXIS2_PLACEMENT_3D ( 'NONE', #231, #403, #85 ) ;
#344 = ORIENTED_EDGE ( 'NONE', *, *, #424, .F. ) ;
#345 = APPROVAL_DATE_TIME ( #225, #379 ) ;
#346 = ORIENTED_EDGE ( 'NONE', *, *, #471, .F. ) ;
#347 = ORIENTED_EDGE ( 'NONE', *, *, #391, .F. ) ;
#348 = ADVANCED_FACE ( 'NONE', ( #23 ), #63, .T. ) ;
#349 = ADVANCED_FACE ( 'NONE', ( #19 ), #177, .T. ) ;
#350 = CARTESIAN_POINT ( 'NONE',  ( -0.7874015748031496509, 0.000000000000000000, -0.08858267716535432601 ) ) ;
#351 = VECTOR ( 'NONE', #492, 39.37007874015748143 ) ;
#352 = VERTEX_POINT ( 'NONE', #53 ) ;
#353 = DIRECTION ( 'NONE',  ( -1.000000000000000000, 0.000000000000000000, -0.000000000000000000 ) ) ;
#354 = PRODUCT ( '17_Reed_Bracket_CLOSED', '17_Reed_Bracket_CLOSED', '', ( #107 ) ) ;
#355 = ORIENTED_EDGE ( 'NONE', *, *, #252, .T. ) ;
#356 = CARTESIAN_POINT ( 'NONE',  ( 1.023622047244094446, 0.1181102362204724532, 0.3937007874015748254 ) ) ;
#357 = VECTOR ( 'NONE', #136, 39.37007874015748143 ) ;
#358 = FACE_BOUND ( 'NONE', #16, .T. ) ;
#359 = CC_DESIGN_PERSON_AND_ORGANIZATION_ASSIGNMENT ( #179, #466, ( #29 ) ) ;
#360 = AXIS2_PLACEMENT_3D ( 'NONE', #375, #412, #295 ) ;
#361 = VECTOR ( 'NONE', #401, 39.37007874015748143 ) ;
#362 = LINE ( 'NONE', #318, #175 ) ;
#363 = CARTESIAN_POINT ( 'NONE',  ( -1.023622047244094446, 0.1181102362204724532, -0.3937007874015748254 ) ) ;
#364 = ORIENTED_EDGE ( 'NONE', *, *, #252, .F. ) ;
#365 = CARTESIAN_POINT ( 'NONE',  ( -0.2362204724409449064, 0.1181102362204724532, -0.08858267716535432601 ) ) ;
#366 = DIRECTION ( 'NONE',  ( -0.000000000000000000, -0.000000000000000000, 1.000000000000000000 ) ) ;
#367 = ORIENTED_EDGE ( 'NONE', *, *, #471, .T. ) ;
#368 = PLANE ( 'NONE',  #158 ) ;
#369 = LINE ( 'NONE', #445, #422 ) ;
#370 = EDGE_CURVE ( 'NONE', #241, #207, #414, .T. ) ;
#371 = LINE ( 'NONE', #455, #80 ) ;
#372 = LINE ( 'NONE', #292, #129 ) ;
#373 = VERTEX_POINT ( 'NONE', #490 ) ;
#374 = PRODUCT_DEFINITION_SHAPE ( 'NONE', 'NONE',  #188 ) ;
#375 = CARTESIAN_POINT ( 'NONE',  ( -1.023622047244094446, 0.1181102362204724532, 0.3937007874015748254 ) ) ;
#376 = PERSON_AND_ORGANIZATION ( #70, #493 ) ;
#377 = ORIENTED_EDGE ( 'NONE', *, *, #275, .T. ) ;
#378 = FACE_OUTER_BOUND ( 'NONE', #387, .T. ) ;
#379 = APPROVAL ( #461, 'UNSPECIFIED' ) ;
#380 = AXIS2_PLACEMENT_3D ( 'NONE', #410, #26, #420 ) ;
#381 = DATE_AND_TIME ( #334, #309 ) ;
#382 = ORIENTED_EDGE ( 'NONE', *, *, #128, .F. ) ;
#383 = CARTESIAN_POINT ( 'NONE',  ( 0.2362204724409449064, 0.1181102362204724532, 0.08858267716535432601 ) ) ;
#384 = CALENDAR_DATE ( 2026, 10, 8 ) ;
#385 = ORIENTED_EDGE ( 'NONE', *, *, #370, .F. ) ;
#386 = EDGE_CURVE ( 'NONE', #187, #430, #457, .T. ) ;
#387 = EDGE_LOOP ( 'NONE', ( #104, #105, #285, #342 ) ) ;
#388 = VECTOR ( 'NONE', #8, 39.37007874015748143 ) ;
#389 = ORIENTED_EDGE ( 'NONE', *, *, #500, .F. ) ;
#390 = EDGE_LOOP ( 'NONE', ( #110, #299, #78, #301 ) ) ;
#391 = EDGE_CURVE ( 'NONE', #430, #223, #371, .T. ) ;
#392 = EDGE_CURVE ( 'NONE', #262, #352, #168, .T. ) ;
#393 = CARTESIAN_POINT ( 'NONE',  ( -0.7874015748031496509, 0.000000000000000000, -0.08858267716535432601 ) ) ;
#394 = DIRECTION ( 'NONE',  ( 1.000000000000000000, 0.000000000000000000, -0.000000000000000000 ) ) ;
#395 = CARTESIAN_POINT ( 'NONE',  ( 0.2362204724409449064, 0.000000000000000000, 0.08858267716535432601 ) ) ;
#396 = CARTESIAN_POINT ( 'NONE',  ( -0.7874015748031496509, 0.1181102362204724532, -0.08858267716535432601 ) ) ;
#397 = CARTESIAN_POINT ( 'NONE',  ( 1.023622047244094446, 0.000000000000000000, -0.3937007874015748254 ) ) ;
#398 = CARTESIAN_POINT ( 'NONE',  ( 1.023622047244094446, 0.000000000000000000, 0.3937007874015748254 ) ) ;
#399 = CARTESIAN_POINT ( 'NONE',  ( 0.2362204724409449064, 0.1181102362204724532, 0.08858267716535432601 ) ) ;
#400 = LINE ( 'NONE', #206, #306 ) ;
#401 = DIRECTION ( 'NONE',  ( -0.000000000000000000, -1.000000000000000000, -0.000000000000000000 ) ) ;
#402 = VECTOR ( 'NONE', #477, 39.37007874015748143 ) ;
#403 = DIRECTION ( 'NONE',  ( -1.000000000000000000, 0.000000000000000000, 0.000000000000000000 ) ) ;
#404 = LINE ( 'NONE', #94, #219 ) ;
#405 = AXIS2_PLACEMENT_3D ( 'NONE', #487, #57, #337 ) ;
#406 = ADVANCED_FACE ( 'NONE', ( #327 ), #489, .F. ) ;
#407 = VERTEX_POINT ( 'NONE', #212 ) ;
#408 = DIRECTION ( 'NONE',  ( -1.000000000000000000, -0.000000000000000000, -0.000000000000000000 ) ) ;
#409 = EDGE_LOOP ( 'NONE', ( #245, #467, #144, #185 ) ) ;
#410 = CARTESIAN_POINT ( 'NONE',  ( -1.023622047244094446, 0.1181102362204724532, -0.3937007874015748254 ) ) ;
#411 = ORIENTED_EDGE ( 'NONE', *, *, #111, .F. ) ;
#412 = DIRECTION ( 'NONE',  ( 0.000000000000000000, 0.000000000000000000, -1.000000000000000000 ) ) ;
#413 = AXIS2_PLACEMENT_3D ( 'NONE', #205, #157, #196 ) ;
#414 = LINE ( 'NONE', #221, #357 ) ;
#415 = APPROVAL_DATE_TIME ( #182, #280 ) ;
#416 = ADVANCED_FACE ( 'NONE', ( #286 ), #170, .T. ) ;
#417 = PLANE ( 'NONE',  #380 ) ;
#418 = PERSON_AND_ORGANIZATION ( #70, #493 ) ;
#419 = EDGE_LOOP ( 'NONE', ( #505, #427, #30, #22 ) ) ;
#420 = DIRECTION ( 'NONE',  ( 1.000000000000000000, 0.000000000000000000, -0.000000000000000000 ) ) ;
#421 = COORDINATED_UNIVERSAL_TIME_OFFSET ( 1, 0, .AHEAD. ) ;
#422 = VECTOR ( 'NONE', #323, 39.37007874015748143 ) ;
#423 = ORIENTED_EDGE ( 'NONE', *, *, #11, .F. ) ;
#424 = EDGE_CURVE ( 'NONE', #253, #407, #372, .T. ) ;
#425 =( NAMED_UNIT ( * ) PLANE_ANGLE_UNIT ( ) SI_UNIT ( $, .RADIAN. ) );
#426 = EDGE_LOOP ( 'NONE', ( #364, #36, #152, #39 ) ) ;
#427 = ORIENTED_EDGE ( 'NONE', *, *, #74, .F. ) ;
#428 = VECTOR ( 'NONE', #120, 39.37007874015748143 ) ;
#429 = VECTOR ( 'NONE', #319, 39.37007874015748143 ) ;
#430 = VERTEX_POINT ( 'NONE', #134 ) ;
#431 = EDGE_CURVE ( 'NONE', #304, #258, #172, .T. ) ;
#432 = ADVANCED_FACE ( 'NONE', ( #460 ), #98, .T. ) ;
#433 = LOCAL_TIME ( 1, 38, 52.00000000000000000, #302 ) ;
#434 = LINE ( 'NONE', #234, #447 ) ;
#435 = EDGE_CURVE ( 'NONE', #407, #262, #400, .T. ) ;
#436 = VERTEX_POINT ( 'NONE', #328 ) ;
#437 = CARTESIAN_POINT ( 'NONE',  ( 0.2362204724409449064, 0.000000000000000000, -0.08858267716535432601 ) ) ;
#438 = DIRECTION ( 'NONE',  ( 0.000000000000000000, -1.000000000000000000, 0.000000000000000000 ) ) ;
#439 = CARTESIAN_POINT ( 'NONE',  ( 0.2362204724409449064, 0.1181102362204724532, 0.08858267716535432601 ) ) ;
#440 = ORIENTED_EDGE ( 'NONE', *, *, #392, .T. ) ;
#441 = DIRECTION ( 'NONE',  ( -0.000000000000000000, -0.000000000000000000, 1.000000000000000000 ) ) ;
#442 = DIRECTION ( 'NONE',  ( -0.000000000000000000, -0.000000000000000000, 1.000000000000000000 ) ) ;
#443 = DIRECTION ( 'NONE',  ( 0.000000000000000000, -0.000000000000000000, -1.000000000000000000 ) ) ;
#444 = CARTESIAN_POINT ( 'NONE',  ( 0.2362204724409449064, 0.000000000000000000, -0.08858267716535432601 ) ) ;
#445 = CARTESIAN_POINT ( 'NONE',  ( -0.7874015748031496509, 0.1181102362204724532, -0.08858267716535432601 ) ) ;
#446 = DIRECTION ( 'NONE',  ( -0.000000000000000000, -1.000000000000000000, -0.000000000000000000 ) ) ;
#447 = VECTOR ( 'NONE', #195, 39.37007874015748143 ) ;
#448 = EDGE_CURVE ( 'NONE', #180, #147, #132, .T. ) ;
#449 = DIRECTION ( 'NONE',  ( 0.000000000000000000, 0.000000000000000000, 1.000000000000000000 ) ) ;
#450 = LOCAL_TIME ( 1, 38, 52.00000000000000000, #99 ) ;
#451 = ORIENTED_EDGE ( 'NONE', *, *, #386, .T. ) ;
#452 = LINE ( 'NONE', #330, #6 ) ;
#453 = CARTESIAN_POINT ( 'NONE',  ( 0.2362204724409449064, 0.000000000000000000, 0.08858267716535432601 ) ) ;
#454 = ORIENTED_EDGE ( 'NONE', *, *, #60, .F. ) ;
#455 = CARTESIAN_POINT ( 'NONE',  ( 0.7874015748031496509, 0.1181102362204724532, 0.08858267716535432601 ) ) ;
#456 = ORIENTED_EDGE ( 'NONE', *, *, #74, .T. ) ;
#457 = LINE ( 'NONE', #383, #491 ) ;
#458 = VECTOR ( 'NONE', #314, 39.37007874015748143 ) ;
#459 = CC_DESIGN_PERSON_AND_ORGANIZATION_ASSIGNMENT ( #376, #24, ( #338 ) ) ;
#460 = FACE_OUTER_BOUND ( 'NONE', #159, .T. ) ;
#461 = APPROVAL_STATUS ( 'not_yet_approved' ) ;
#462 = ORIENTED_EDGE ( 'NONE', *, *, #137, .F. ) ;
#463 = DIRECTION ( 'NONE',  ( 0.000000000000000000, 0.000000000000000000, -1.000000000000000000 ) ) ;
#464 = EDGE_CURVE ( 'NONE', #373, #241, #14, .T. ) ;
#465 = ORIENTED_EDGE ( 'NONE', *, *, #54, .T. ) ;
#466 = PERSON_AND_ORGANIZATION_ROLE ( 'classification_officer' ) ;
#467 = ORIENTED_EDGE ( 'NONE', *, *, #497, .F. ) ;
#468 = EDGE_LOOP ( 'NONE', ( #344, #473, #326, #454 ) ) ;
#469 = EDGE_CURVE ( 'NONE', #167, #373, #9, .T. ) ;
#470 = EDGE_LOOP ( 'NONE', ( #465, #51, #440, #69 ) ) ;
#471 = EDGE_CURVE ( 'NONE', #253, #2, #369, .T. ) ;
#472 =( GEOMETRIC_REPRESENTATION_CONTEXT ( 3 ) GLOBAL_UNCERTAINTY_ASSIGNED_CONTEXT ( ( #217 ) ) GLOBAL_UNIT_ASSIGNED_CONTEXT ( ( #50, #425, #300 ) ) REPRESENTATION_CONTEXT ( 'NONE', 'WORKASPACE' ) );
#473 = ORIENTED_EDGE ( 'NONE', *, *, #511, .F. ) ;
#474 = CARTESIAN_POINT ( 'NONE',  ( -1.023622047244094446, 0.000000000000000000, 0.3937007874015748254 ) ) ;
#475 = LINE ( 'NONE', #313, #96 ) ;
#476 = FACE_OUTER_BOUND ( 'NONE', #149, .T. ) ;
#477 = DIRECTION ( 'NONE',  ( 0.000000000000000000, 0.000000000000000000, -1.000000000000000000 ) ) ;
#478 = ORIENTED_EDGE ( 'NONE', *, *, #114, .F. ) ;
#479 = DIRECTION ( 'NONE',  ( -0.000000000000000000, -1.000000000000000000, -0.000000000000000000 ) ) ;
#480 = CARTESIAN_POINT ( 'NONE',  ( 0.000000000000000000, 0.000000000000000000, 0.000000000000000000 ) ) ;
#481 = DIRECTION ( 'NONE',  ( -0.000000000000000000, -0.000000000000000000, 1.000000000000000000 ) ) ;
#482 = DIRECTION ( 'NONE',  ( -1.000000000000000000, -0.000000000000000000, -0.000000000000000000 ) ) ;
#483 = EDGE_CURVE ( 'NONE', #258, #130, #18, .T. ) ;
#484 = CARTESIAN_POINT ( 'NONE',  ( -0.2362204724409449064, 0.1181102362204724532, -0.08858267716535432601 ) ) ;
#485 = CARTESIAN_POINT ( 'NONE',  ( 0.7874015748031496509, 0.000000000000000000, 0.08858267716535432601 ) ) ;
#486 = CARTESIAN_POINT ( 'NONE',  ( 1.023622047244094446, 0.1181102362204724532, 0.3937007874015748254 ) ) ;
#487 = CARTESIAN_POINT ( 'NONE',  ( -1.023622047244094446, 0.1181102362204724532, 0.3937007874015748254 ) ) ;
#488 = CARTESIAN_POINT ( 'NONE',  ( -0.7874015748031496509, 0.1181102362204724532, 0.08858267716535432601 ) ) ;
#489 = PLANE ( 'NONE',  #405 ) ;
#490 = CARTESIAN_POINT ( 'NONE',  ( -1.023622047244094446, 0.1181102362204724532, -0.3937007874015748254 ) ) ;
#491 = VECTOR ( 'NONE', #131, 39.37007874015748143 ) ;
#492 = DIRECTION ( 'NONE',  ( 1.000000000000000000, 0.000000000000000000, 0.000000000000000000 ) ) ;
#493 = ORGANIZATION ( 'UNSPECIFIED', 'UNSPECIFIED', '' ) ;
#494 = PERSON_AND_ORGANIZATION ( #70, #493 ) ;
#495 = APPROVAL_PERSON_ORGANIZATION ( #494, #261, #28 ) ;
#496 = DIRECTION ( 'NONE',  ( 0.000000000000000000, -1.000000000000000000, 0.000000000000000000 ) ) ;
#497 = EDGE_CURVE ( 'NONE', #499, #180, #90, .T. ) ;
#498 = DATE_TIME_ROLE ( 'classification_date' ) ;
#499 = VERTEX_POINT ( 'NONE', #287 ) ;
#500 = EDGE_CURVE ( 'NONE', #2, #262, #404, .T. ) ;
#501 = ORIENTED_EDGE ( 'NONE', *, *, #435, .T. ) ;
#502 = DIRECTION ( 'NONE',  ( 1.000000000000000000, 0.000000000000000000, 0.000000000000000000 ) ) ;
#503 = ORIENTED_EDGE ( 'NONE', *, *, #25, .T. ) ;
#504 = DATE_AND_TIME ( #174, #450 ) ;
#505 = ORIENTED_EDGE ( 'NONE', *, *, #268, .F. ) ;
#506 = CC_DESIGN_DATE_AND_TIME_ASSIGNMENT ( #381, #498, ( #29 ) ) ;
#507 = ORIENTED_EDGE ( 'NONE', *, *, #483, .F. ) ;
#508 = VECTOR ( 'NONE', #235, 39.37007874015748143 ) ;
#509 = AXIS2_PLACEMENT_3D ( 'NONE', #488, #124, #164 ) ;
#510 = ORIENTED_EDGE ( 'NONE', *, *, #307, .T. ) ;
#511 = EDGE_CURVE ( 'NONE', #259, #253, #283, .T. ) ;
#512 = CARTESIAN_POINT ( 'NONE',  ( 1.023622047244094446, 0.1181102362204724532, 0.3937007874015748254 ) ) ;
ENDSEC;
END-ISO-10303-21;
