ISO-10303-21;
HEADER;
FILE_DESCRIPTION (( 'STEP AP203' ),
    '1' );
FILE_NAME ('18_Microswitch_Bracket_OPEN.STEP',
    '2026-08-10T00:38:54',
    ( '' ),
    ( '' ),
    'SwSTEP 2.0',
    'SolidWorks 2026',
    '' );
FILE_SCHEMA (( 'CONFIG_CONTROL_DESIGN' ));
ENDSEC;

DATA;
#1 = DIRECTION ( 'NONE',  ( -1.000000000000000000, 0.000000000000000000, -0.000000000000000000 ) ) ;
#2 = CARTESIAN_POINT ( 'NONE',  ( 0.000000000000000000, 0.1574803149606299191, 0.000000000000000000 ) ) ;
#3 = EDGE_CURVE ( 'NONE', #419, #295, #192, .T. ) ;
#4 = ORIENTED_EDGE ( 'NONE', *, *, #486, .F. ) ;
#5 = CARTESIAN_POINT ( 'NONE',  ( 1.377952755905512028, 0.000000000000000000, 0.6299212598425196763 ) ) ;
#6 = VECTOR ( 'NONE', #203, 39.37007874015748143 ) ;
#7 = VECTOR ( 'NONE', #181, 39.37007874015748143 ) ;
#8 = DIRECTION ( 'NONE',  ( 0.000000000000000000, 0.000000000000000000, -1.000000000000000000 ) ) ;
#9 = PLANE ( 'NONE',  #482 ) ;
#10 = VERTEX_POINT ( 'NONE', #61 ) ;
#11 = PERSON_AND_ORGANIZATION_ROLE ( 'creator' ) ;
#12 = APPROVAL ( #265, 'UNSPECIFIED' ) ;
#13 = PLANE ( 'NONE',  #415 ) ;
#14 = LOCAL_TIME ( 1, 38, 54.00000000000000000, #148 ) ;
#15 = ORIENTED_EDGE ( 'NONE', *, *, #228, .F. ) ;
#16 = CALENDAR_DATE ( 2026, 10, 8 ) ;
#17 = CARTESIAN_POINT ( 'NONE',  ( -0.4133858267716535861, 0.1574803149606299191, 0.1082677165354330728 ) ) ;
#18 = FACE_OUTER_BOUND ( 'NONE', #152, .T. ) ;
#19 = VERTEX_POINT ( 'NONE', #187 ) ;
#20 = PLANE ( 'NONE',  #457 ) ;
#21 = CARTESIAN_POINT ( 'NONE',  ( 0.4133858267716535861, 0.000000000000000000, 0.1082677165354330728 ) ) ;
#22 = PERSON_AND_ORGANIZATION ( #79, #241 ) ;
#23 = CARTESIAN_POINT ( 'NONE',  ( 0.4133858267716535861, 0.000000000000000000, 0.1082677165354330728 ) ) ;
#24 = VERTEX_POINT ( 'NONE', #311 ) ;
#25 = DATE_AND_TIME ( #490, #477 ) ;
#26 = ORIENTED_EDGE ( 'NONE', *, *, #112, .T. ) ;
#27 = EDGE_CURVE ( 'NONE', #92, #435, #502, .T. ) ;
#28 = VECTOR ( 'NONE', #77, 39.37007874015748143 ) ;
#29 = ORIENTED_EDGE ( 'NONE', *, *, #275, .F. ) ;
#30 = CC_DESIGN_DATE_AND_TIME_ASSIGNMENT ( #62, #260, ( #284 ) ) ;
#31 = ORIENTED_EDGE ( 'NONE', *, *, #160, .F. ) ;
#32 = DIRECTION ( 'NONE',  ( 0.000000000000000000, 0.000000000000000000, -1.000000000000000000 ) ) ;
#33 = EDGE_CURVE ( 'NONE', #95, #185, #384, .T. ) ;
#34 = LINE ( 'NONE', #38, #78 ) ;
#35 = CARTESIAN_POINT ( 'NONE',  ( -1.377952755905512028, 0.1574803149606299191, 0.6299212598425196763 ) ) ;
#36 = VECTOR ( 'NONE', #169, 39.37007874015748143 ) ;
#37 = DIRECTION ( 'NONE',  ( 0.000000000000000000, 0.000000000000000000, -1.000000000000000000 ) ) ;
#38 = CARTESIAN_POINT ( 'NONE',  ( -0.9645669291338583307, 0.000000000000000000, -0.1082677165354330728 ) ) ;
#39 = DIRECTION ( 'NONE',  ( -0.000000000000000000, -1.000000000000000000, -0.000000000000000000 ) ) ;
#40 = DIRECTION ( 'NONE',  ( -0.000000000000000000, -1.000000000000000000, -0.000000000000000000 ) ) ;
#41 = LINE ( 'NONE', #206, #322 ) ;
#42 = CARTESIAN_POINT ( 'NONE',  ( -0.4133858267716535861, 0.1574803149606299191, 0.1082677165354330728 ) ) ;
#43 = ADVANCED_FACE ( 'NONE', ( #240 ), #468, .T. ) ;
#44 = DIRECTION ( 'NONE',  ( -1.000000000000000000, -0.000000000000000000, -0.000000000000000000 ) ) ;
#45 = ORIENTED_EDGE ( 'NONE', *, *, #378, .T. ) ;
#46 = CARTESIAN_POINT ( 'NONE',  ( 0.4133858267716535861, 0.1574803149606299191, 0.1082677165354330728 ) ) ;
#47 = EDGE_CURVE ( 'NONE', #253, #233, #123, .T. ) ;
#48 = EDGE_CURVE ( 'NONE', #95, #379, #387, .T. ) ;
#49 = FACE_OUTER_BOUND ( 'NONE', #357, .T. ) ;
#50 = PLANE ( 'NONE',  #113 ) ;
#51 = EDGE_LOOP ( 'NONE', ( #381, #4, #145, #106 ) ) ;
#52 = CC_DESIGN_DATE_AND_TIME_ASSIGNMENT ( #232, #103, ( #270 ) ) ;
#53 = CLOSED_SHELL ( 'NONE', ( #391, #287, #211, #68, #332, #130, #337, #220, #214, #414, #377, #198, #70, #43 ) ) ;
#54 = DIRECTION ( 'NONE',  ( 0.000000000000000000, 0.000000000000000000, -1.000000000000000000 ) ) ;
#55 = APPROVAL_ROLE ( '' ) ;
#56 = FACE_OUTER_BOUND ( 'NONE', #446, .T. ) ;
#57 = VECTOR ( 'NONE', #91, 39.37007874015748143 ) ;
#58 = FACE_BOUND ( 'NONE', #408, .T. ) ;
#59 = VERTEX_POINT ( 'NONE', #425 ) ;
#60 = DIRECTION ( 'NONE',  ( -1.000000000000000000, -0.000000000000000000, -0.000000000000000000 ) ) ;
#61 = CARTESIAN_POINT ( 'NONE',  ( -1.377952755905512028, 0.1574803149606299191, -0.6299212598425196763 ) ) ;
#62 = DATE_AND_TIME ( #183, #318 ) ;
#63 = DIRECTION ( 'NONE',  ( 1.000000000000000000, -0.000000000000000000, 0.000000000000000000 ) ) ;
#64 = AXIS2_PLACEMENT_3D ( 'NONE', #17, #184, #86 ) ;
#65 = ORIENTED_EDGE ( 'NONE', *, *, #135, .T. ) ;
#66 = PERSON_AND_ORGANIZATION ( #79, #241 ) ;
#67 = DESIGN_CONTEXT ( 'detailed design', #81, 'design' ) ;
#68 = ADVANCED_FACE ( 'NONE', ( #392 ), #159, .F. ) ;
#69 = ORIENTED_EDGE ( 'NONE', *, *, #290, .F. ) ;
#70 = ADVANCED_FACE ( 'NONE', ( #310 ), #383, .T. ) ;
#71 = ORIENTED_EDGE ( 'NONE', *, *, #275, .T. ) ;
#72 = CC_DESIGN_PERSON_AND_ORGANIZATION_ASSIGNMENT ( #221, #376, ( #284 ) ) ;
#73 = DIRECTION ( 'NONE',  ( -0.000000000000000000, -0.000000000000000000, 1.000000000000000000 ) ) ;
#74 = DIRECTION ( 'NONE',  ( -0.000000000000000000, -1.000000000000000000, -0.000000000000000000 ) ) ;
#75 = FACE_OUTER_BOUND ( 'NONE', #272, .T. ) ;
#76 = DIRECTION ( 'NONE',  ( 1.000000000000000000, 0.000000000000000000, -0.000000000000000000 ) ) ;
#77 = DIRECTION ( 'NONE',  ( -0.000000000000000000, -0.000000000000000000, 1.000000000000000000 ) ) ;
#78 = VECTOR ( 'NONE', #195, 39.37007874015748143 ) ;
#79 = PERSON ( 'UNSPECIFIED', 'UNSPECIFIED', 'UNSPECIFIED', ('UNSPECIFIED'), ('UNSPECIFIED'), ('UNSPECIFIED') ) ;
#80 = VECTOR ( 'NONE', #101, 39.37007874015748143 ) ;
#81 = APPLICATION_CONTEXT ( 'configuration controlled 3d designs of mechanical parts and assemblies' ) ;
#82 = CARTESIAN_POINT ( 'NONE',  ( 0.4133858267716535861, 0.1574803149606299191, -0.1082677165354330728 ) ) ;
#83 = DIRECTION ( 'NONE',  ( 1.000000000000000000, 0.000000000000000000, 0.000000000000000000 ) ) ;
#84 = AXIS2_PLACEMENT_3D ( 'NONE', #371, #188, #333 ) ;
#85 = CARTESIAN_POINT ( 'NONE',  ( 0.9645669291338583307, 0.1574803149606299191, -0.1082677165354330728 ) ) ;
#86 = DIRECTION ( 'NONE',  ( 0.000000000000000000, 0.000000000000000000, 1.000000000000000000 ) ) ;
#87 = CARTESIAN_POINT ( 'NONE',  ( 0.4133858267716535861, 0.1574803149606299191, 0.1082677165354330728 ) ) ;
#88 = FACE_OUTER_BOUND ( 'NONE', #317, .T. ) ;
#89 = CARTESIAN_POINT ( 'NONE',  ( -0.4133858267716535861, 0.1574803149606299191, -0.1082677165354330728 ) ) ;
#90 = PLANE ( 'NONE',  #154 ) ;
#91 = DIRECTION ( 'NONE',  ( -0.000000000000000000, -1.000000000000000000, -0.000000000000000000 ) ) ;
#92 = VERTEX_POINT ( 'NONE', #465 ) ;
#93 = CARTESIAN_POINT ( 'NONE',  ( 1.377952755905512028, 0.1574803149606299191, 0.6299212598425196763 ) ) ;
#94 = CARTESIAN_POINT ( 'NONE',  ( -0.9645669291338583307, 0.1574803149606299191, -0.1082677165354330728 ) ) ;
#95 = VERTEX_POINT ( 'NONE', #390 ) ;
#96 = APPROVAL_ROLE ( '' ) ;
#97 = VECTOR ( 'NONE', #73, 39.37007874015748143 ) ;
#98 = LINE ( 'NONE', #483, #199 ) ;
#99 = ORIENTED_EDGE ( 'NONE', *, *, #440, .F. ) ;
#100 = APPROVAL_DATE_TIME ( #443, #374 ) ;
#101 = DIRECTION ( 'NONE',  ( -0.000000000000000000, -1.000000000000000000, -0.000000000000000000 ) ) ;
#102 = ORIENTED_EDGE ( 'NONE', *, *, #202, .T. ) ;
#103 = DATE_TIME_ROLE ( 'creation_date' ) ;
#104 = EDGE_CURVE ( 'NONE', #19, #59, #34, .T. ) ;
#105 = CARTESIAN_POINT ( 'NONE',  ( -1.377952755905512028, 0.1574803149606299191, -0.6299212598425196763 ) ) ;
#106 = ORIENTED_EDGE ( 'NONE', *, *, #388, .T. ) ;
#107 = SECURITY_CLASSIFICATION_LEVEL ( 'unclassified' ) ;
#108 = EDGE_CURVE ( 'NONE', #498, #170, #118, .T. ) ;
#109 = ORIENTED_EDGE ( 'NONE', *, *, #228, .T. ) ;
#110 = APPROVAL_STATUS ( 'not_yet_approved' ) ;
#111 = EDGE_CURVE ( 'NONE', #308, #435, #120, .T. ) ;
#112 = EDGE_CURVE ( 'NONE', #219, #320, #347, .T. ) ;
#113 = AXIS2_PLACEMENT_3D ( 'NONE', #94, #500, #76 ) ;
#114 = PRODUCT_DEFINITION_SHAPE ( 'NONE', 'NONE',  #270 ) ;
#115 = ORIENTED_EDGE ( 'NONE', *, *, #422, .T. ) ;
#116 = ORIENTED_EDGE ( 'NONE', *, *, #302, .T. ) ;
#117 = ORIENTED_EDGE ( 'NONE', *, *, #27, .T. ) ;
#118 = LINE ( 'NONE', #205, #426 ) ;
#119 = APPLICATION_CONTEXT ( 'configuration controlled 3d designs of mechanical parts and assemblies' ) ;
#120 = LINE ( 'NONE', #351, #363 ) ;
#121 = CARTESIAN_POINT ( 'NONE',  ( -1.377952755905512028, 0.000000000000000000, 0.6299212598425196763 ) ) ;
#122 = EDGE_CURVE ( 'NONE', #24, #170, #423, .T. ) ;
#123 = LINE ( 'NONE', #201, #238 ) ;
#124 = AXIS2_PLACEMENT_3D ( 'NONE', #164, #309, #427 ) ;
#125 = CARTESIAN_POINT ( 'NONE',  ( 0.000000000000000000, 0.000000000000000000, 0.000000000000000000 ) ) ;
#126 = LINE ( 'NONE', #276, #402 ) ;
#127 = VECTOR ( 'NONE', #511, 39.37007874015748143 ) ;
#128 = DIRECTION ( 'NONE',  ( -0.000000000000000000, -1.000000000000000000, -0.000000000000000000 ) ) ;
#129 = CARTESIAN_POINT ( 'NONE',  ( 0.4133858267716535861, 0.1574803149606299191, -0.1082677165354330728 ) ) ;
#130 = ADVANCED_FACE ( 'NONE', ( #75 ), #312, .F. ) ;
#131 = CARTESIAN_POINT ( 'NONE',  ( -0.9645669291338583307, 0.1574803149606299191, 0.1082677165354330728 ) ) ;
#132 = ORIENTED_EDGE ( 'NONE', *, *, #314, .T. ) ;
#133 = APPROVAL_PERSON_ORGANIZATION ( #66, #487, #96 ) ;
#134 = LENGTH_MEASURE_WITH_UNIT ( LENGTH_MEASURE( 0.02539999999999999897 ), #281 );
#135 = EDGE_CURVE ( 'NONE', #233, #185, #126, .T. ) ;
#136 = LINE ( 'NONE', #288, #229 ) ;
#137 = CARTESIAN_POINT ( 'NONE',  ( 0.9645669291338583307, 0.1574803149606299191, 0.1082677165354330728 ) ) ;
#138 = ORIENTED_EDGE ( 'NONE', *, *, #476, .T. ) ;
#139 = COORDINATED_UNIVERSAL_TIME_OFFSET ( 1, 0, .AHEAD. ) ;
#140 = DIRECTION ( 'NONE',  ( 1.000000000000000000, 0.000000000000000000, 0.000000000000000000 ) ) ;
#141 = CARTESIAN_POINT ( 'NONE',  ( 0.9645669291338583307, 0.000000000000000000, 0.1082677165354330728 ) ) ;
#142 = ORIENTED_EDGE ( 'NONE', *, *, #453, .F. ) ;
#143 = PERSON_AND_ORGANIZATION_ROLE ( 'design_owner' ) ;
#144 = DIRECTION ( 'NONE',  ( 0.000000000000000000, 0.000000000000000000, -1.000000000000000000 ) ) ;
#145 = ORIENTED_EDGE ( 'NONE', *, *, #358, .T. ) ;
#146 = LINE ( 'NONE', #298, #180 ) ;
#147 = ORIENTED_EDGE ( 'NONE', *, *, #464, .F. ) ;
#148 = COORDINATED_UNIVERSAL_TIME_OFFSET ( 1, 0, .AHEAD. ) ;
#149 = EDGE_CURVE ( 'NONE', #435, #498, #279, .T. ) ;
#150 = ORIENTED_EDGE ( 'NONE', *, *, #466, .T. ) ;
#151 = VECTOR ( 'NONE', #353, 39.37007874015748143 ) ;
#152 = EDGE_LOOP ( 'NONE', ( #115, #138, #116, #479 ) ) ;
#153 = VECTOR ( 'NONE', #296, 39.37007874015748143 ) ;
#154 = AXIS2_PLACEMENT_3D ( 'NONE', #319, #294, #255 ) ;
#155 = VERTEX_POINT ( 'NONE', #506 ) ;
#156 =( GEOMETRIC_REPRESENTATION_CONTEXT ( 3 ) GLOBAL_UNCERTAINTY_ASSIGNED_CONTEXT ( ( #340 ) ) GLOBAL_UNIT_ASSIGNED_CONTEXT ( ( #209, #249, #475 ) ) REPRESENTATION_CONTEXT ( 'NONE', 'WORKASPACE' ) );
#157 = ORIENTED_EDGE ( 'NONE', *, *, #302, .F. ) ;
#158 = CARTESIAN_POINT ( 'NONE',  ( 0.4133858267716535861, 0.1574803149606299191, -0.1082677165354330728 ) ) ;
#159 = PLANE ( 'NONE',  #496 ) ;
#160 = EDGE_CURVE ( 'NONE', #185, #419, #161, .T. ) ;
#161 = LINE ( 'NONE', #167, #191 ) ;
#162 = APPLICATION_PROTOCOL_DEFINITION ( 'international standard', 'config_control_design', 1994, #119 ) ;
#163 = CC_DESIGN_PERSON_AND_ORGANIZATION_ASSIGNMENT ( #217, #327, ( #462 ) ) ;
#164 = CARTESIAN_POINT ( 'NONE',  ( 0.9645669291338583307, 0.1574803149606299191, 0.1082677165354330728 ) ) ;
#165 = AXIS2_PLACEMENT_3D ( 'NONE', #158, #505, #239 ) ;
#166 = LINE ( 'NONE', #433, #459 ) ;
#167 = CARTESIAN_POINT ( 'NONE',  ( 0.4133858267716535861, 0.000000000000000000, -0.1082677165354330728 ) ) ;
#168 = VECTOR ( 'NONE', #247, 39.37007874015748143 ) ;
#169 = DIRECTION ( 'NONE',  ( -0.000000000000000000, -1.000000000000000000, -0.000000000000000000 ) ) ;
#170 = VERTEX_POINT ( 'NONE', #471 ) ;
#171 = LINE ( 'NONE', #354, #416 ) ;
#172 = FACE_OUTER_BOUND ( 'NONE', #293, .T. ) ;
#173 = VERTEX_POINT ( 'NONE', #421 ) ;
#174 = AXIS2_PLACEMENT_3D ( 'NONE', #434, #54, #1 ) ;
#175 = DIRECTION ( 'NONE',  ( -0.000000000000000000, -1.000000000000000000, -0.000000000000000000 ) ) ;
#176 = FACE_BOUND ( 'NONE', #299, .T. ) ;
#177 = ORIENTED_EDGE ( 'NONE', *, *, #344, .T. ) ;
#178 = CALENDAR_DATE ( 2026, 10, 8 ) ;
#179 = EDGE_CURVE ( 'NONE', #59, #338, #236, .T. ) ;
#180 = VECTOR ( 'NONE', #140, 39.37007874015748143 ) ;
#181 = DIRECTION ( 'NONE',  ( 0.000000000000000000, 0.000000000000000000, -1.000000000000000000 ) ) ;
#182 = ORIENTED_EDGE ( 'NONE', *, *, #453, .T. ) ;
#183 = CALENDAR_DATE ( 2026, 10, 8 ) ;
#184 = DIRECTION ( 'NONE',  ( -1.000000000000000000, 0.000000000000000000, 0.000000000000000000 ) ) ;
#185 = VERTEX_POINT ( 'NONE', #218 ) ;
#186 = LINE ( 'NONE', #105, #80 ) ;
#187 = CARTESIAN_POINT ( 'NONE',  ( -0.4133858267716535861, 0.000000000000000000, -0.1082677165354330728 ) ) ;
#188 = DIRECTION ( 'NONE',  ( 1.000000000000000000, -0.000000000000000000, 0.000000000000000000 ) ) ;
#189 = ORIENTED_EDGE ( 'NONE', *, *, #104, .T. ) ;
#190 = ORIENTED_EDGE ( 'NONE', *, *, #254, .T. ) ;
#191 = VECTOR ( 'NONE', #313, 39.37007874015748143 ) ;
#192 = LINE ( 'NONE', #21, #97 ) ;
#193 = VECTOR ( 'NONE', #291, 39.37007874015748143 ) ;
#194 = ORIENTED_EDGE ( 'NONE', *, *, #350, .T. ) ;
#195 = DIRECTION ( 'NONE',  ( -1.000000000000000000, -0.000000000000000000, -0.000000000000000000 ) ) ;
#196 = LOCAL_TIME ( 1, 38, 54.00000000000000000, #404 ) ;
#197 = DIRECTION ( 'NONE',  ( 1.000000000000000000, 0.000000000000000000, -0.000000000000000000 ) ) ;
#198 = ADVANCED_FACE ( 'NONE', ( #478 ), #393, .T. ) ;
#199 = VECTOR ( 'NONE', #175, 39.37007874015748143 ) ;
#200 = APPROVAL_PERSON_ORGANIZATION ( #452, #374, #55 ) ;
#201 = CARTESIAN_POINT ( 'NONE',  ( 0.9645669291338583307, 0.1574803149606299191, 0.1082677165354330728 ) ) ;
#202 = EDGE_CURVE ( 'NONE', #501, #295, #136, .T. ) ;
#203 = DIRECTION ( 'NONE',  ( -1.000000000000000000, -0.000000000000000000, -0.000000000000000000 ) ) ;
#204 = DIRECTION ( 'NONE',  ( 1.000000000000000000, 0.000000000000000000, 0.000000000000000000 ) ) ;
#205 = CARTESIAN_POINT ( 'NONE',  ( 1.377952755905512028, 0.000000000000000000, 0.6299212598425196763 ) ) ;
#206 = CARTESIAN_POINT ( 'NONE',  ( -0.9645669291338583307, 0.1574803149606299191, 0.1082677165354330728 ) ) ;
#207 = DIRECTION ( 'NONE',  ( -1.000000000000000000, 0.000000000000000000, -0.000000000000000000 ) ) ;
#208 = ORIENTED_EDGE ( 'NONE', *, *, #504, .F. ) ;
#209 =( CONVERSION_BASED_UNIT ( 'INCH', #134 ) LENGTH_UNIT ( ) NAMED_UNIT ( #437 ) );
#210 = CARTESIAN_POINT ( 'NONE',  ( -0.9645669291338583307, 0.1574803149606299191, 0.1082677165354330728 ) ) ;
#211 = ADVANCED_FACE ( 'NONE', ( #88 ), #444, .F. ) ;
#212 = ORIENTED_EDGE ( 'NONE', *, *, #358, .F. ) ;
#213 = CARTESIAN_POINT ( 'NONE',  ( -0.4133858267716535861, 0.000000000000000000, 0.1082677165354330728 ) ) ;
#214 = ADVANCED_FACE ( 'NONE', ( #328 ), #223, .T. ) ;
#215 = EDGE_LOOP ( 'NONE', ( #304, #497, #71, #264 ) ) ;
#216 = VECTOR ( 'NONE', #128, 39.37007874015748143 ) ;
#217 = PERSON_AND_ORGANIZATION ( #79, #241 ) ;
#218 = CARTESIAN_POINT ( 'NONE',  ( 0.9645669291338583307, 0.000000000000000000, -0.1082677165354330728 ) ) ;
#219 = VERTEX_POINT ( 'NONE', #365 ) ;
#220 = ADVANCED_FACE ( 'NONE', ( #49 ), #13, .T. ) ;
#221 = PERSON_AND_ORGANIZATION ( #79, #241 ) ;
#222 = VECTOR ( 'NONE', #283, 39.37007874015748143 ) ;
#223 = PLANE ( 'NONE',  #64 ) ;
#224 = ORIENTED_EDGE ( 'NONE', *, *, #422, .F. ) ;
#225 = FACE_OUTER_BOUND ( 'NONE', #231, .T. ) ;
#226 = EDGE_LOOP ( 'NONE', ( #406, #273, #26, #412 ) ) ;
#227 = PERSON_AND_ORGANIZATION ( #79, #241 ) ;
#228 = EDGE_CURVE ( 'NONE', #155, #498, #98, .T. ) ;
#229 = VECTOR ( 'NONE', #325, 39.37007874015748143 ) ;
#230 = LINE ( 'NONE', #23, #153 ) ;
#231 = EDGE_LOOP ( 'NONE', ( #397, #142, #512, #102 ) ) ;
#232 = DATE_AND_TIME ( #178, #430 ) ;
#233 = VERTEX_POINT ( 'NONE', #141 ) ;
#234 = VERTEX_POINT ( 'NONE', #213 ) ;
#235 = ORIENTED_EDGE ( 'NONE', *, *, #378, .F. ) ;
#236 = LINE ( 'NONE', #399, #303 ) ;
#237 = DIRECTION ( 'NONE',  ( 0.000000000000000000, 0.000000000000000000, 1.000000000000000000 ) ) ;
#238 = VECTOR ( 'NONE', #74, 39.37007874015748143 ) ;
#239 = DIRECTION ( 'NONE',  ( 1.000000000000000000, 0.000000000000000000, -0.000000000000000000 ) ) ;
#240 = FACE_OUTER_BOUND ( 'NONE', #484, .T. ) ;
#241 = ORGANIZATION ( 'UNSPECIFIED', 'UNSPECIFIED', '' ) ;
#242 = LINE ( 'NONE', #129, #345 ) ;
#243 = CARTESIAN_POINT ( 'NONE',  ( -0.9645669291338583307, 0.1574803149606299191, 0.1082677165354330728 ) ) ;
#244 = CC_DESIGN_APPROVAL ( #487, ( #462 ) ) ;
#245 = DIRECTION ( 'NONE',  ( 0.000000000000000000, 0.000000000000000000, -1.000000000000000000 ) ) ;
#246 = LINE ( 'NONE', #508, #222 ) ;
#247 = DIRECTION ( 'NONE',  ( 0.000000000000000000, 0.000000000000000000, -1.000000000000000000 ) ) ;
#248 = ORIENTED_EDGE ( 'NONE', *, *, #122, .F. ) ;
#249 =( NAMED_UNIT ( * ) PLANE_ANGLE_UNIT ( ) SI_UNIT ( $, .RADIAN. ) );
#250 = EDGE_CURVE ( 'NONE', #234, #19, #362, .T. ) ;
#251 = CARTESIAN_POINT ( 'NONE',  ( -0.4133858267716535861, 0.000000000000000000, 0.1082677165354330728 ) ) ;
#252 = DIRECTION ( 'NONE',  ( 0.000000000000000000, -1.000000000000000000, 0.000000000000000000 ) ) ;
#253 = VERTEX_POINT ( 'NONE', #137 ) ;
#254 = EDGE_CURVE ( 'NONE', #173, #234, #258, .T. ) ;
#255 = DIRECTION ( 'NONE',  ( 0.000000000000000000, -0.000000000000000000, -1.000000000000000000 ) ) ;
#256 = CC_DESIGN_PERSON_AND_ORGANIZATION_ASSIGNMENT ( #22, #11, ( #462 ) ) ;
#257 = APPROVAL_STATUS ( 'not_yet_approved' ) ;
#258 = LINE ( 'NONE', #42, #36 ) ;
#259 = ORIENTED_EDGE ( 'NONE', *, *, #466, .F. ) ;
#260 = DATE_TIME_ROLE ( 'classification_date' ) ;
#261 = LINE ( 'NONE', #493, #334 ) ;
#262 = ORIENTED_EDGE ( 'NONE', *, *, #464, .T. ) ;
#263 = CARTESIAN_POINT ( 'NONE',  ( -0.9645669291338583307, 0.000000000000000000, 0.1082677165354330728 ) ) ;
#264 = ORIENTED_EDGE ( 'NONE', *, *, #486, .T. ) ;
#265 = APPROVAL_STATUS ( 'not_yet_approved' ) ;
#266 = CC_DESIGN_SECURITY_CLASSIFICATION ( #284, ( #462 ) ) ;
#267 = ORIENTED_EDGE ( 'NONE', *, *, #108, .F. ) ;
#268 = DATE_AND_TIME ( #336, #196 ) ;
#269 = VECTOR ( 'NONE', #352, 39.37007874015748143 ) ;
#270 = PRODUCT_DEFINITION ( 'UNKNOWN', '', #462, #67 ) ;
#271 = EDGE_LOOP ( 'NONE', ( #366, #15, #375, #461 ) ) ;
#272 = EDGE_LOOP ( 'NONE', ( #132, #492, #69, #329 ) ) ;
#273 = ORIENTED_EDGE ( 'NONE', *, *, #388, .F. ) ;
#274 = DIRECTION ( 'NONE',  ( -1.000000000000000000, 0.000000000000000000, -0.000000000000000000 ) ) ;
#275 = EDGE_CURVE ( 'NONE', #173, #289, #491, .T. ) ;
#276 = CARTESIAN_POINT ( 'NONE',  ( 0.9645669291338583307, 0.000000000000000000, 0.1082677165354330728 ) ) ;
#277 = AXIS2_PLACEMENT_3D ( 'NONE', #348, #237, #197 ) ;
#278 = CARTESIAN_POINT ( 'NONE',  ( -1.377952755905512028, 0.1574803149606299191, 0.6299212598425196763 ) ) ;
#279 = LINE ( 'NONE', #349, #339 ) ;
#280 = VECTOR ( 'NONE', #39, 39.37007874015748143 ) ;
#281 =( LENGTH_UNIT ( ) NAMED_UNIT ( * ) SI_UNIT ( $, .METRE. ) );
#282 = CARTESIAN_POINT ( 'NONE',  ( -0.4133858267716535861, 0.1574803149606299191, 0.1082677165354330728 ) ) ;
#283 = DIRECTION ( 'NONE',  ( 0.000000000000000000, 0.000000000000000000, -1.000000000000000000 ) ) ;
#284 = SECURITY_CLASSIFICATION ( '', '', #107 ) ;
#285 = CARTESIAN_POINT ( 'NONE',  ( 0.4133858267716535861, 0.000000000000000000, 0.1082677165354330728 ) ) ;
#286 = AXIS2_PLACEMENT_3D ( 'NONE', #369, #436, #8 ) ;
#287 = ADVANCED_FACE ( 'NONE', ( #172, #316, #488 ), #90, .T. ) ;
#288 = CARTESIAN_POINT ( 'NONE',  ( 0.4133858267716535861, 0.1574803149606299191, 0.1082677165354330728 ) ) ;
#289 = VERTEX_POINT ( 'NONE', #323 ) ;
#290 = EDGE_CURVE ( 'NONE', #24, #10, #432, .T. ) ;
#291 = DIRECTION ( 'NONE',  ( -1.000000000000000000, -0.000000000000000000, -0.000000000000000000 ) ) ;
#292 = FACE_OUTER_BOUND ( 'NONE', #51, .T. ) ;
#293 = EDGE_LOOP ( 'NONE', ( #326, #417, #267, #438 ) ) ;
#294 = DIRECTION ( 'NONE',  ( 0.000000000000000000, -1.000000000000000000, 0.000000000000000000 ) ) ;
#295 = VERTEX_POINT ( 'NONE', #285 ) ;
#296 = DIRECTION ( 'NONE',  ( 1.000000000000000000, 0.000000000000000000, 0.000000000000000000 ) ) ;
#297 = APPROVAL_DATE_TIME ( #25, #12 ) ;
#298 = CARTESIAN_POINT ( 'NONE',  ( -0.9645669291338583307, 0.000000000000000000, 0.1082677165354330728 ) ) ;
#299 = EDGE_LOOP ( 'NONE', ( #208, #418, #99, #147 ) ) ;
#300 = PERSON_AND_ORGANIZATION ( #79, #241 ) ;
#301 = ORIENTED_EDGE ( 'NONE', *, *, #481, .F. ) ;
#302 = EDGE_CURVE ( 'NONE', #155, #24, #441, .T. ) ;
#303 = VECTOR ( 'NONE', #355, 39.37007874015748143 ) ;
#304 = ORIENTED_EDGE ( 'NONE', *, *, #250, .F. ) ;
#305 = DIRECTION ( 'NONE',  ( -0.000000000000000000, -0.000000000000000000, 1.000000000000000000 ) ) ;
#306 = AXIS2_PLACEMENT_3D ( 'NONE', #125, #428, #83 ) ;
#307 = ORIENTED_EDGE ( 'NONE', *, *, #33, .T. ) ;
#308 = VERTEX_POINT ( 'NONE', #401 ) ;
#309 = DIRECTION ( 'NONE',  ( -1.000000000000000000, 0.000000000000000000, 0.000000000000000000 ) ) ;
#310 = FACE_OUTER_BOUND ( 'NONE', #361, .T. ) ;
#311 = CARTESIAN_POINT ( 'NONE',  ( 1.377952755905512028, 0.1574803149606299191, -0.6299212598425196763 ) ) ;
#312 = PLANE ( 'NONE',  #277 ) ;
#313 = DIRECTION ( 'NONE',  ( -1.000000000000000000, -0.000000000000000000, -0.000000000000000000 ) ) ;
#314 = EDGE_CURVE ( 'NONE', #170, #92, #396, .T. ) ;
#315 = LINE ( 'NONE', #472, #499 ) ;
#316 = FACE_BOUND ( 'NONE', #489, .T. ) ;
#317 = EDGE_LOOP ( 'NONE', ( #117, #455, #224, #177 ) ) ;
#318 = LOCAL_TIME ( 1, 38, 54.00000000000000000, #409 ) ;
#319 = CARTESIAN_POINT ( 'NONE',  ( 0.000000000000000000, 0.000000000000000000, 0.000000000000000000 ) ) ;
#320 = VERTEX_POINT ( 'NONE', #210 ) ;
#321 = PRODUCT ( '18_Microswitch_Bracket_OPEN', '18_Microswitch_Bracket_OPEN', '', ( #367 ) ) ;
#322 = VECTOR ( 'NONE', #398, 39.37007874015748143 ) ;
#323 = CARTESIAN_POINT ( 'NONE',  ( -0.4133858267716535861, 0.1574803149606299191, -0.1082677165354330728 ) ) ;
#324 = COORDINATED_UNIVERSAL_TIME_OFFSET ( 1, 0, .AHEAD. ) ;
#325 = DIRECTION ( 'NONE',  ( -0.000000000000000000, -1.000000000000000000, -0.000000000000000000 ) ) ;
#326 = ORIENTED_EDGE ( 'NONE', *, *, #27, .F. ) ;
#327 = PERSON_AND_ORGANIZATION_ROLE ( 'design_supplier' ) ;
#328 = FACE_OUTER_BOUND ( 'NONE', #215, .T. ) ;
#329 = ORIENTED_EDGE ( 'NONE', *, *, #122, .T. ) ;
#330 = DIRECTION ( 'NONE',  ( -1.000000000000000000, 0.000000000000000000, 0.000000000000000000 ) ) ;
#331 = ORIENTED_EDGE ( 'NONE', *, *, #47, .T. ) ;
#332 = ADVANCED_FACE ( 'NONE', ( #56 ), #359, .F. ) ;
#333 = DIRECTION ( 'NONE',  ( 0.000000000000000000, 0.000000000000000000, -1.000000000000000000 ) ) ;
#334 = VECTOR ( 'NONE', #60, 39.37007874015748143 ) ;
#335 = ORIENTED_EDGE ( 'NONE', *, *, #250, .T. ) ;
#336 = CALENDAR_DATE ( 2026, 10, 8 ) ;
#337 = ADVANCED_FACE ( 'NONE', ( #410 ), #20, .T. ) ;
#338 = VERTEX_POINT ( 'NONE', #263 ) ;
#339 = VECTOR ( 'NONE', #509, 39.37007874015748143 ) ;
#340 = UNCERTAINTY_MEASURE_WITH_UNIT (LENGTH_MEASURE( 1.000000000000000082E-05 ), #209, 'distance_accuracy_value', 'NONE');
#341 = CC_DESIGN_PERSON_AND_ORGANIZATION_ASSIGNMENT ( #300, #413, ( #270 ) ) ;
#342 = VECTOR ( 'NONE', #44, 39.37007874015748143 ) ;
#343 = ORIENTED_EDGE ( 'NONE', *, *, #440, .T. ) ;
#344 = EDGE_CURVE ( 'NONE', #10, #92, #186, .T. ) ;
#345 = VECTOR ( 'NONE', #480, 39.37007874015748143 ) ;
#346 = ORIENTED_EDGE ( 'NONE', *, *, #3, .T. ) ;
#347 = LINE ( 'NONE', #243, #151 ) ;
#348 = CARTESIAN_POINT ( 'NONE',  ( -1.377952755905512028, 0.1574803149606299191, -0.6299212598425196763 ) ) ;
#349 = CARTESIAN_POINT ( 'NONE',  ( -1.377952755905512028, 0.000000000000000000, 0.6299212598425196763 ) ) ;
#350 = EDGE_CURVE ( 'NONE', #295, #233, #230, .T. ) ;
#351 = CARTESIAN_POINT ( 'NONE',  ( -1.377952755905512028, 0.1574803149606299191, 0.6299212598425196763 ) ) ;
#352 = DIRECTION ( 'NONE',  ( -0.000000000000000000, -0.000000000000000000, 1.000000000000000000 ) ) ;
#353 = DIRECTION ( 'NONE',  ( -0.000000000000000000, -0.000000000000000000, 1.000000000000000000 ) ) ;
#354 = CARTESIAN_POINT ( 'NONE',  ( -1.377952755905512028, 0.1574803149606299191, 0.6299212598425196763 ) ) ;
#355 = DIRECTION ( 'NONE',  ( -0.000000000000000000, -0.000000000000000000, 1.000000000000000000 ) ) ;
#356 = DIRECTION ( 'NONE',  ( 0.000000000000000000, -0.000000000000000000, -1.000000000000000000 ) ) ;
#357 = EDGE_LOOP ( 'NONE', ( #235, #301, #150, #190 ) ) ;
#358 = EDGE_CURVE ( 'NONE', #289, #219, #261, .T. ) ;
#359 = PLANE ( 'NONE',  #386 ) ;
#360 = CARTESIAN_POINT ( 'NONE',  ( -0.9645669291338583307, 0.1574803149606299191, -0.1082677165354330728 ) ) ;
#361 = EDGE_LOOP ( 'NONE', ( #474, #494, #343, #307 ) ) ;
#362 = LINE ( 'NONE', #251, #7 ) ;
#363 = VECTOR ( 'NONE', #469, 39.37007874015748143 ) ;
#364 = SHAPE_DEFINITION_REPRESENTATION ( #114, #451 ) ;
#365 = CARTESIAN_POINT ( 'NONE',  ( -0.9645669291338583307, 0.1574803149606299191, -0.1082677165354330728 ) ) ;
#366 = ORIENTED_EDGE ( 'NONE', *, *, #149, .T. ) ;
#367 = MECHANICAL_CONTEXT ( 'NONE', #119, 'mechanical' ) ;
#368 = CC_DESIGN_APPROVAL ( #374, ( #270 ) ) ;
#369 = CARTESIAN_POINT ( 'NONE',  ( -1.377952755905512028, 0.1574803149606299191, 0.6299212598425196763 ) ) ;
#370 = EDGE_LOOP ( 'NONE', ( #495, #346, #194, #65 ) ) ;
#371 = CARTESIAN_POINT ( 'NONE',  ( 0.4133858267716535861, 0.1574803149606299191, 0.1082677165354330728 ) ) ;
#372 = ORIENTED_EDGE ( 'NONE', *, *, #202, .F. ) ;
#373 = PLANE ( 'NONE',  #84 ) ;
#374 = APPROVAL ( #257, 'UNSPECIFIED' ) ;
#375 = ORIENTED_EDGE ( 'NONE', *, *, #476, .F. ) ;
#376 = PERSON_AND_ORGANIZATION_ROLE ( 'classification_officer' ) ;
#377 = ADVANCED_FACE ( 'NONE', ( #225 ), #373, .T. ) ;
#378 = EDGE_CURVE ( 'NONE', #338, #234, #146, .T. ) ;
#379 = VERTEX_POINT ( 'NONE', #394 ) ;
#380 = PRODUCT_RELATED_PRODUCT_CATEGORY ( 'detail', '', ( #321 ) ) ;
#381 = ORIENTED_EDGE ( 'NONE', *, *, #104, .F. ) ;
#382 = ORIENTED_EDGE ( 'NONE', *, *, #108, .T. ) ;
#383 = PLANE ( 'NONE',  #124 ) ;
#384 = LINE ( 'NONE', #85, #454 ) ;
#385 = CARTESIAN_POINT ( 'NONE',  ( 0.4133858267716535861, 0.000000000000000000, -0.1082677165354330728 ) ) ;
#386 = AXIS2_PLACEMENT_3D ( 'NONE', #448, #330, #407 ) ;
#387 = LINE ( 'NONE', #82, #6 ) ;
#388 = EDGE_CURVE ( 'NONE', #219, #59, #445, .T. ) ;
#389 = VECTOR ( 'NONE', #305, 39.37007874015748143 ) ;
#390 = CARTESIAN_POINT ( 'NONE',  ( 0.9645669291338583307, 0.1574803149606299191, -0.1082677165354330728 ) ) ;
#391 = ADVANCED_FACE ( 'NONE', ( #58, #18, #176 ), #9, .F. ) ;
#392 = FACE_OUTER_BOUND ( 'NONE', #271, .T. ) ;
#393 = PLANE ( 'NONE',  #174 ) ;
#394 = CARTESIAN_POINT ( 'NONE',  ( 0.4133858267716535861, 0.1574803149606299191, -0.1082677165354330728 ) ) ;
#395 = DIRECTION ( 'NONE',  ( -0.000000000000000000, -1.000000000000000000, -0.000000000000000000 ) ) ;
#396 = LINE ( 'NONE', #405, #342 ) ;
#397 = ORIENTED_EDGE ( 'NONE', *, *, #3, .F. ) ;
#398 = DIRECTION ( 'NONE',  ( 1.000000000000000000, 0.000000000000000000, 0.000000000000000000 ) ) ;
#399 = CARTESIAN_POINT ( 'NONE',  ( -0.9645669291338583307, 0.000000000000000000, 0.1082677165354330728 ) ) ;
#400 = EDGE_LOOP ( 'NONE', ( #458, #372, #262, #331 ) ) ;
#401 = CARTESIAN_POINT ( 'NONE',  ( -1.377952755905512028, 0.1574803149606299191, 0.6299212598425196763 ) ) ;
#402 = VECTOR ( 'NONE', #37, 39.37007874015748143 ) ;
#403 = ORIENTED_EDGE ( 'NONE', *, *, #112, .F. ) ;
#404 = COORDINATED_UNIVERSAL_TIME_OFFSET ( 1, 0, .AHEAD. ) ;
#405 = CARTESIAN_POINT ( 'NONE',  ( -1.377952755905512028, 0.000000000000000000, -0.6299212598425196763 ) ) ;
#406 = ORIENTED_EDGE ( 'NONE', *, *, #179, .F. ) ;
#407 = DIRECTION ( 'NONE',  ( 0.000000000000000000, 0.000000000000000000, 1.000000000000000000 ) ) ;
#408 = EDGE_LOOP ( 'NONE', ( #403, #212, #29, #259 ) ) ;
#409 = COORDINATED_UNIVERSAL_TIME_OFFSET ( 1, 0, .AHEAD. ) ;
#410 = FACE_OUTER_BOUND ( 'NONE', #226, .T. ) ;
#411 = CC_DESIGN_APPROVAL ( #12, ( #284 ) ) ;
#412 = ORIENTED_EDGE ( 'NONE', *, *, #481, .T. ) ;
#413 = PERSON_AND_ORGANIZATION_ROLE ( 'creator' ) ;
#414 = ADVANCED_FACE ( 'NONE', ( #292 ), #50, .T. ) ;
#415 = AXIS2_PLACEMENT_3D ( 'NONE', #131, #245, #207 ) ;
#416 = VECTOR ( 'NONE', #204, 39.37007874015748143 ) ;
#417 = ORIENTED_EDGE ( 'NONE', *, *, #314, .F. ) ;
#418 = ORIENTED_EDGE ( 'NONE', *, *, #48, .F. ) ;
#419 = VERTEX_POINT ( 'NONE', #385 ) ;
#420 = APPROVAL_DATE_TIME ( #268, #487 ) ;
#421 = CARTESIAN_POINT ( 'NONE',  ( -0.4133858267716535861, 0.1574803149606299191, 0.1082677165354330728 ) ) ;
#422 = EDGE_CURVE ( 'NONE', #10, #308, #467, .T. ) ;
#423 = LINE ( 'NONE', #507, #216 ) ;
#424 = CC_DESIGN_PERSON_AND_ORGANIZATION_ASSIGNMENT ( #456, #143, ( #321 ) ) ;
#425 = CARTESIAN_POINT ( 'NONE',  ( -0.9645669291338583307, 0.000000000000000000, -0.1082677165354330728 ) ) ;
#426 = VECTOR ( 'NONE', #32, 39.37007874015748143 ) ;
#427 = DIRECTION ( 'NONE',  ( 0.000000000000000000, 0.000000000000000000, 1.000000000000000000 ) ) ;
#428 = DIRECTION ( 'NONE',  ( 0.000000000000000000, 0.000000000000000000, 1.000000000000000000 ) ) ;
#429 = MANIFOLD_SOLID_BREP ( 'Slotted_Bracket_Extrude', #53 ) ;
#430 = LOCAL_TIME ( 1, 38, 54.00000000000000000, #324 ) ;
#431 = CARTESIAN_POINT ( 'NONE',  ( -1.377952755905512028, 0.000000000000000000, 0.6299212598425196763 ) ) ;
#432 = LINE ( 'NONE', #473, #193 ) ;
#433 = CARTESIAN_POINT ( 'NONE',  ( -0.9645669291338583307, 0.1574803149606299191, 0.1082677165354330728 ) ) ;
#434 = CARTESIAN_POINT ( 'NONE',  ( 0.4133858267716535861, 0.1574803149606299191, 0.1082677165354330728 ) ) ;
#435 = VERTEX_POINT ( 'NONE', #121 ) ;
#436 = DIRECTION ( 'NONE',  ( 1.000000000000000000, -0.000000000000000000, 0.000000000000000000 ) ) ;
#437 = DIMENSIONAL_EXPONENTS ( 1.000000000000000000, 0.000000000000000000, 0.000000000000000000, 0.000000000000000000, 0.000000000000000000, 0.000000000000000000, 0.000000000000000000 ) ;
#438 = ORIENTED_EDGE ( 'NONE', *, *, #149, .F. ) ;
#439 = LINE ( 'NONE', #89, #280 ) ;
#440 = EDGE_CURVE ( 'NONE', #253, #95, #246, .T. ) ;
#441 = LINE ( 'NONE', #93, #168 ) ;
#442 = ORIENTED_EDGE ( 'NONE', *, *, #179, .T. ) ;
#443 = DATE_AND_TIME ( #16, #14 ) ;
#444 = PLANE ( 'NONE',  #286 ) ;
#445 = LINE ( 'NONE', #360, #57 ) ;
#446 = EDGE_LOOP ( 'NONE', ( #382, #248, #157, #109 ) ) ;
#447 = APPLICATION_PROTOCOL_DEFINITION ( 'international standard', 'config_control_design', 1994, #81 ) ;
#448 = CARTESIAN_POINT ( 'NONE',  ( 1.377952755905512028, 0.1574803149606299191, 0.6299212598425196763 ) ) ;
#449 = CARTESIAN_POINT ( 'NONE',  ( -0.9645669291338583307, 0.1574803149606299191, 0.1082677165354330728 ) ) ;
#450 = ORIENTED_EDGE ( 'NONE', *, *, #33, .F. ) ;
#451 = ADVANCED_BREP_SHAPE_REPRESENTATION ( '18_Microswitch_Bracket_OPEN', ( #429, #306 ), #156 ) ;
#452 = PERSON_AND_ORGANIZATION ( #79, #241 ) ;
#453 = EDGE_CURVE ( 'NONE', #379, #419, #242, .T. ) ;
#454 = VECTOR ( 'NONE', #40, 39.37007874015748143 ) ;
#455 = ORIENTED_EDGE ( 'NONE', *, *, #111, .F. ) ;
#456 = PERSON_AND_ORGANIZATION ( #79, #241 ) ;
#457 = AXIS2_PLACEMENT_3D ( 'NONE', #449, #63, #144 ) ;
#458 = ORIENTED_EDGE ( 'NONE', *, *, #350, .F. ) ;
#459 = VECTOR ( 'NONE', #395, 39.37007874015748143 ) ;
#460 = ORIENTED_EDGE ( 'NONE', *, *, #48, .T. ) ;
#461 = ORIENTED_EDGE ( 'NONE', *, *, #111, .T. ) ;
#462 = PRODUCT_DEFINITION_FORMATION_WITH_SPECIFIED_SOURCE ( 'ANY', '', #321, .NOT_KNOWN. ) ;
#463 = DIRECTION ( 'NONE',  ( 0.000000000000000000, 0.000000000000000000, -1.000000000000000000 ) ) ;
#464 = EDGE_CURVE ( 'NONE', #501, #253, #315, .T. ) ;
#465 = CARTESIAN_POINT ( 'NONE',  ( -1.377952755905512028, 0.000000000000000000, -0.6299212598425196763 ) ) ;
#466 = EDGE_CURVE ( 'NONE', #320, #173, #41, .T. ) ;
#467 = LINE ( 'NONE', #35, #389 ) ;
#468 = PLANE ( 'NONE',  #165 ) ;
#469 = DIRECTION ( 'NONE',  ( -0.000000000000000000, -1.000000000000000000, -0.000000000000000000 ) ) ;
#470 = LINE ( 'NONE', #46, #269 ) ;
#471 = CARTESIAN_POINT ( 'NONE',  ( 1.377952755905512028, 0.000000000000000000, -0.6299212598425196763 ) ) ;
#472 = CARTESIAN_POINT ( 'NONE',  ( 0.4133858267716535861, 0.1574803149606299191, 0.1082677165354330728 ) ) ;
#473 = CARTESIAN_POINT ( 'NONE',  ( -1.377952755905512028, 0.1574803149606299191, -0.6299212598425196763 ) ) ;
#474 = ORIENTED_EDGE ( 'NONE', *, *, #135, .F. ) ;
#475 =( NAMED_UNIT ( * ) SI_UNIT ( $, .STERADIAN. ) SOLID_ANGLE_UNIT ( ) );
#476 = EDGE_CURVE ( 'NONE', #308, #155, #171, .T. ) ;
#477 = LOCAL_TIME ( 1, 38, 54.00000000000000000, #139 ) ;
#478 = FACE_OUTER_BOUND ( 'NONE', #400, .T. ) ;
#479 = ORIENTED_EDGE ( 'NONE', *, *, #290, .T. ) ;
#480 = DIRECTION ( 'NONE',  ( -0.000000000000000000, -1.000000000000000000, -0.000000000000000000 ) ) ;
#481 = EDGE_CURVE ( 'NONE', #320, #338, #166, .T. ) ;
#482 = AXIS2_PLACEMENT_3D ( 'NONE', #2, #252, #356 ) ;
#483 = CARTESIAN_POINT ( 'NONE',  ( 1.377952755905512028, 0.1574803149606299191, 0.6299212598425196763 ) ) ;
#484 = EDGE_LOOP ( 'NONE', ( #31, #450, #460, #182 ) ) ;
#485 = APPROVAL_ROLE ( '' ) ;
#486 = EDGE_CURVE ( 'NONE', #289, #19, #439, .T. ) ;
#487 = APPROVAL ( #110, 'UNSPECIFIED' ) ;
#488 = FACE_BOUND ( 'NONE', #370, .T. ) ;
#489 = EDGE_LOOP ( 'NONE', ( #189, #442, #45, #335 ) ) ;
#490 = CALENDAR_DATE ( 2026, 10, 8 ) ;
#491 = LINE ( 'NONE', #282, #127 ) ;
#492 = ORIENTED_EDGE ( 'NONE', *, *, #344, .F. ) ;
#493 = CARTESIAN_POINT ( 'NONE',  ( -0.9645669291338583307, 0.1574803149606299191, -0.1082677165354330728 ) ) ;
#494 = ORIENTED_EDGE ( 'NONE', *, *, #47, .F. ) ;
#495 = ORIENTED_EDGE ( 'NONE', *, *, #160, .T. ) ;
#496 = AXIS2_PLACEMENT_3D ( 'NONE', #278, #463, #274 ) ;
#497 = ORIENTED_EDGE ( 'NONE', *, *, #254, .F. ) ;
#498 = VERTEX_POINT ( 'NONE', #5 ) ;
#499 = VECTOR ( 'NONE', #510, 39.37007874015748143 ) ;
#500 = DIRECTION ( 'NONE',  ( 0.000000000000000000, 0.000000000000000000, 1.000000000000000000 ) ) ;
#501 = VERTEX_POINT ( 'NONE', #87 ) ;
#502 = LINE ( 'NONE', #431, #28 ) ;
#503 = APPROVAL_PERSON_ORGANIZATION ( #227, #12, #485 ) ;
#504 = EDGE_CURVE ( 'NONE', #379, #501, #470, .T. ) ;
#505 = DIRECTION ( 'NONE',  ( 0.000000000000000000, 0.000000000000000000, 1.000000000000000000 ) ) ;
#506 = CARTESIAN_POINT ( 'NONE',  ( 1.377952755905512028, 0.1574803149606299191, 0.6299212598425196763 ) ) ;
#507 = CARTESIAN_POINT ( 'NONE',  ( 1.377952755905512028, 0.1574803149606299191, -0.6299212598425196763 ) ) ;
#508 = CARTESIAN_POINT ( 'NONE',  ( 0.9645669291338583307, 0.1574803149606299191, 0.1082677165354330728 ) ) ;
#509 = DIRECTION ( 'NONE',  ( 1.000000000000000000, 0.000000000000000000, 0.000000000000000000 ) ) ;
#510 = DIRECTION ( 'NONE',  ( 1.000000000000000000, 0.000000000000000000, 0.000000000000000000 ) ) ;
#511 = DIRECTION ( 'NONE',  ( 0.000000000000000000, 0.000000000000000000, -1.000000000000000000 ) ) ;
#512 = ORIENTED_EDGE ( 'NONE', *, *, #504, .T. ) ;
ENDSEC;
END-ISO-10303-21;
