ISO-10303-21;
HEADER;
FILE_DESCRIPTION (( 'STEP AP203' ),
    '1' );
FILE_NAME ('19_Microswitch_Bracket_CLOSED.STEP',
    '2026-08-10T00:38:57',
    ( '' ),
    ( '' ),
    'SwSTEP 2.0',
    'SolidWorks 2026',
    '' );
FILE_SCHEMA (( 'CONFIG_CONTROL_DESIGN' ));
ENDSEC;

DATA;
#1 = FACE_OUTER_BOUND ( 'NONE', #316, .T. ) ;
#2 = DIRECTION ( 'NONE',  ( 1.000000000000000000, 0.000000000000000000, 0.000000000000000000 ) ) ;
#3 = EDGE_CURVE ( 'NONE', #289, #493, #324, .T. ) ;
#4 = ADVANCED_FACE ( 'NONE', ( #399 ), #80, .F. ) ;
#5 = ORIENTED_EDGE ( 'NONE', *, *, #119, .T. ) ;
#6 = VECTOR ( 'NONE', #442, 39.37007874015748143 ) ;
#7 = DIRECTION ( 'NONE',  ( 0.000000000000000000, 0.000000000000000000, -1.000000000000000000 ) ) ;
#8 = ORIENTED_EDGE ( 'NONE', *, *, #228, .F. ) ;
#9 = CARTESIAN_POINT ( 'NONE',  ( -0.9645669291338583307, 0.000000000000000000, 0.1082677165354330728 ) ) ;
#10 = CARTESIAN_POINT ( 'NONE',  ( -1.377952755905512028, 0.000000000000000000, 0.6299212598425196763 ) ) ;
#11 = VERTEX_POINT ( 'NONE', #168 ) ;
#12 = CARTESIAN_POINT ( 'NONE',  ( 0.4133858267716535861, 0.1574803149606299191, -0.1082677165354330728 ) ) ;
#13 = ORIENTED_EDGE ( 'NONE', *, *, #114, .F. ) ;
#14 = DIRECTION ( 'NONE',  ( 1.000000000000000000, 0.000000000000000000, 0.000000000000000000 ) ) ;
#15 = LINE ( 'NONE', #345, #428 ) ;
#16 = EDGE_CURVE ( 'NONE', #348, #473, #85, .T. ) ;
#17 = CARTESIAN_POINT ( 'NONE',  ( 0.4133858267716535861, 0.1574803149606299191, -0.1082677165354330728 ) ) ;
#18 = MANIFOLD_SOLID_BREP ( 'Slotted_Bracket_Extrude', #276 ) ;
#19 = CARTESIAN_POINT ( 'NONE',  ( 0.000000000000000000, 0.000000000000000000, 0.000000000000000000 ) ) ;
#20 = EDGE_CURVE ( 'NONE', #444, #126, #366, .T. ) ;
#21 = PERSON_AND_ORGANIZATION_ROLE ( 'design_owner' ) ;
#22 = EDGE_LOOP ( 'NONE', ( #252, #155, #183, #459 ) ) ;
#23 = APPROVAL_PERSON_ORGANIZATION ( #122, #58, #441 ) ;
#24 = DIRECTION ( 'NONE',  ( 0.000000000000000000, 0.000000000000000000, 1.000000000000000000 ) ) ;
#25 = COORDINATED_UNIVERSAL_TIME_OFFSET ( 1, 0, .AHEAD. ) ;
#26 = ORIENTED_EDGE ( 'NONE', *, *, #446, .T. ) ;
#27 = CARTESIAN_POINT ( 'NONE',  ( -1.377952755905512028, 0.000000000000000000, 0.6299212598425196763 ) ) ;
#28 = CARTESIAN_POINT ( 'NONE',  ( 0.000000000000000000, 0.000000000000000000, 0.000000000000000000 ) ) ;
#29 = ORIENTED_EDGE ( 'NONE', *, *, #450, .T. ) ;
#30 = DATE_AND_TIME ( #321, #449 ) ;
#31 = ORIENTED_EDGE ( 'NONE', *, *, #396, .T. ) ;
#32 = DIRECTION ( 'NONE',  ( 0.000000000000000000, 0.000000000000000000, -1.000000000000000000 ) ) ;
#33 = CALENDAR_DATE ( 2026, 10, 8 ) ;
#34 = ORIENTED_EDGE ( 'NONE', *, *, #499, .F. ) ;
#35 = CARTESIAN_POINT ( 'NONE',  ( 0.9645669291338583307, 0.000000000000000000, -0.1082677165354330728 ) ) ;
#36 = SECURITY_CLASSIFICATION_LEVEL ( 'unclassified' ) ;
#37 = DIRECTION ( 'NONE',  ( 1.000000000000000000, -0.000000000000000000, 0.000000000000000000 ) ) ;
#38 = CARTESIAN_POINT ( 'NONE',  ( -0.4133858267716535861, 0.000000000000000000, 0.1082677165354330728 ) ) ;
#39 = LINE ( 'NONE', #157, #481 ) ;
#40 = CC_DESIGN_PERSON_AND_ORGANIZATION_ASSIGNMENT ( #429, #229, ( #425 ) ) ;
#41 = CARTESIAN_POINT ( 'NONE',  ( -1.377952755905512028, 0.1574803149606299191, -0.6299212598425196763 ) ) ;
#42 = APPROVAL_PERSON_ORGANIZATION ( #283, #170, #400 ) ;
#43 = CARTESIAN_POINT ( 'NONE',  ( 0.4133858267716535861, 0.1574803149606299191, 0.1082677165354330728 ) ) ;
#44 = EDGE_CURVE ( 'NONE', #407, #417, #326, .T. ) ;
#45 = AXIS2_PLACEMENT_3D ( 'NONE', #181, #217, #24 ) ;
#46 = ORIENTED_EDGE ( 'NONE', *, *, #266, .F. ) ;
#47 = DIRECTION ( 'NONE',  ( 1.000000000000000000, 0.000000000000000000, 0.000000000000000000 ) ) ;
#48 = LOCAL_TIME ( 1, 38, 57.00000000000000000, #330 ) ;
#49 = CARTESIAN_POINT ( 'NONE',  ( -1.377952755905512028, 0.1574803149606299191, 0.6299212598425196763 ) ) ;
#50 = PLANE ( 'NONE',  #226 ) ;
#51 = DIRECTION ( 'NONE',  ( -1.000000000000000000, -0.000000000000000000, -0.000000000000000000 ) ) ;
#52 = EDGE_CURVE ( 'NONE', #493, #305, #211, .T. ) ;
#53 = VECTOR ( 'NONE', #509, 39.37007874015748143 ) ;
#54 = LINE ( 'NONE', #377, #332 ) ;
#55 = LINE ( 'NONE', #190, #365 ) ;
#56 = EDGE_CURVE ( 'NONE', #126, #466, #487, .T. ) ;
#57 = ORIENTED_EDGE ( 'NONE', *, *, #469, .T. ) ;
#58 = APPROVAL ( #353, 'UNSPECIFIED' ) ;
#59 = DIRECTION ( 'NONE',  ( -1.000000000000000000, -0.000000000000000000, -0.000000000000000000 ) ) ;
#60 = ORIENTED_EDGE ( 'NONE', *, *, #370, .F. ) ;
#61 = DIRECTION ( 'NONE',  ( 0.000000000000000000, 0.000000000000000000, -1.000000000000000000 ) ) ;
#62 = DIRECTION ( 'NONE',  ( 1.000000000000000000, 0.000000000000000000, 0.000000000000000000 ) ) ;
#63 = ORIENTED_EDGE ( 'NONE', *, *, #264, .T. ) ;
#64 = ORIENTED_EDGE ( 'NONE', *, *, #260, .T. ) ;
#65 = FACE_OUTER_BOUND ( 'NONE', #346, .T. ) ;
#66 = ORIENTED_EDGE ( 'NONE', *, *, #75, .F. ) ;
#67 = CARTESIAN_POINT ( 'NONE',  ( -0.4133858267716535861, 0.1574803149606299191, -0.1082677165354330728 ) ) ;
#68 = ORIENTED_EDGE ( 'NONE', *, *, #76, .F. ) ;
#69 = VECTOR ( 'NONE', #101, 39.37007874015748143 ) ;
#70 = CARTESIAN_POINT ( 'NONE',  ( 0.4133858267716535861, 0.1574803149606299191, 0.1082677165354330728 ) ) ;
#71 = VERTEX_POINT ( 'NONE', #197 ) ;
#72 = EDGE_CURVE ( 'NONE', #126, #219, #507, .T. ) ;
#73 = PRODUCT_RELATED_PRODUCT_CATEGORY ( 'detail', '', ( #127 ) ) ;
#74 = CARTESIAN_POINT ( 'NONE',  ( -1.377952755905512028, 0.1574803149606299191, 0.6299212598425196763 ) ) ;
#75 = EDGE_CURVE ( 'NONE', #476, #466, #253, .T. ) ;
#76 = EDGE_CURVE ( 'NONE', #348, #501, #212, .T. ) ;
#77 = LINE ( 'NONE', #106, #280 ) ;
#78 = CARTESIAN_POINT ( 'NONE',  ( -1.377952755905512028, 0.000000000000000000, -0.6299212598425196763 ) ) ;
#79 = ORIENTED_EDGE ( 'NONE', *, *, #370, .T. ) ;
#80 = PLANE ( 'NONE',  #339 ) ;
#81 = VECTOR ( 'NONE', #61, 39.37007874015748143 ) ;
#82 = DIRECTION ( 'NONE',  ( -0.000000000000000000, -1.000000000000000000, -0.000000000000000000 ) ) ;
#83 = ORGANIZATION ( 'UNSPECIFIED', 'UNSPECIFIED', '' ) ;
#84 = ORIENTED_EDGE ( 'NONE', *, *, #246, .F. ) ;
#85 = LINE ( 'NONE', #49, #113 ) ;
#86 = EDGE_CURVE ( 'NONE', #71, #305, #374, .T. ) ;
#87 = DIRECTION ( 'NONE',  ( -1.000000000000000000, 0.000000000000000000, -0.000000000000000000 ) ) ;
#88 = MECHANICAL_CONTEXT ( 'NONE', #453, 'mechanical' ) ;
#89 = DIRECTION ( 'NONE',  ( 0.000000000000000000, 0.000000000000000000, -1.000000000000000000 ) ) ;
#90 = VECTOR ( 'NONE', #451, 39.37007874015748143 ) ;
#91 = EDGE_CURVE ( 'NONE', #466, #11, #379, .T. ) ;
#92 = DIRECTION ( 'NONE',  ( -0.000000000000000000, -1.000000000000000000, -0.000000000000000000 ) ) ;
#93 = ORIENTED_EDGE ( 'NONE', *, *, #3, .T. ) ;
#94 = FACE_OUTER_BOUND ( 'NONE', #271, .T. ) ;
#95 = CARTESIAN_POINT ( 'NONE',  ( -1.377952755905512028, 0.000000000000000000, -0.6299212598425196763 ) ) ;
#96 = EDGE_LOOP ( 'NONE', ( #31, #84, #200, #426 ) ) ;
#97 = FACE_OUTER_BOUND ( 'NONE', #311, .T. ) ;
#98 = DIRECTION ( 'NONE',  ( 1.000000000000000000, 0.000000000000000000, -0.000000000000000000 ) ) ;
#99 = PERSON_AND_ORGANIZATION ( #240, #83 ) ;
#100 = ORIENTED_EDGE ( 'NONE', *, *, #86, .T. ) ;
#101 = DIRECTION ( 'NONE',  ( -1.000000000000000000, -0.000000000000000000, -0.000000000000000000 ) ) ;
#102 = LINE ( 'NONE', #423, #486 ) ;
#103 = VERTEX_POINT ( 'NONE', #297 ) ;
#104 = FACE_BOUND ( 'NONE', #357, .T. ) ;
#105 = ORIENTED_EDGE ( 'NONE', *, *, #333, .T. ) ;
#106 = CARTESIAN_POINT ( 'NONE',  ( -1.377952755905512028, 0.000000000000000000, 0.6299212598425196763 ) ) ;
#107 = VECTOR ( 'NONE', #457, 39.37007874015748143 ) ;
#108 = EDGE_LOOP ( 'NONE', ( #29, #225, #79, #433 ) ) ;
#109 = DIRECTION ( 'NONE',  ( -0.000000000000000000, -0.000000000000000000, 1.000000000000000000 ) ) ;
#110 = EDGE_CURVE ( 'NONE', #411, #410, #177, .T. ) ;
#111 = COORDINATED_UNIVERSAL_TIME_OFFSET ( 1, 0, .AHEAD. ) ;
#112 = EDGE_LOOP ( 'NONE', ( #66, #152, #282, #510 ) ) ;
#113 = VECTOR ( 'NONE', #47, 39.37007874015748143 ) ;
#114 = EDGE_CURVE ( 'NONE', #188, #455, #422, .T. ) ;
#115 = LINE ( 'NONE', #281, #6 ) ;
#116 = EDGE_CURVE ( 'NONE', #313, #71, #329, .T. ) ;
#117 = ORIENTED_EDGE ( 'NONE', *, *, #44, .F. ) ;
#118 = APPLICATION_PROTOCOL_DEFINITION ( 'international standard', 'config_control_design', 1994, #453 ) ;
#119 = EDGE_CURVE ( 'NONE', #219, #407, #267, .T. ) ;
#120 = PLANE ( 'NONE',  #350 ) ;
#121 = APPLICATION_CONTEXT ( 'configuration controlled 3d designs of mechanical parts and assemblies' ) ;
#122 = PERSON_AND_ORGANIZATION ( #240, #83 ) ;
#123 = DIRECTION ( 'NONE',  ( 0.000000000000000000, 0.000000000000000000, 1.000000000000000000 ) ) ;
#124 = COORDINATED_UNIVERSAL_TIME_OFFSET ( 1, 0, .AHEAD. ) ;
#125 = AXIS2_PLACEMENT_3D ( 'NONE', #166, #231, #238 ) ;
#126 = VERTEX_POINT ( 'NONE', #140 ) ;
#127 = PRODUCT ( '19_Microswitch_Bracket_CLOSED', '19_Microswitch_Bracket_CLOSED', '', ( #88 ) ) ;
#128 = ORIENTED_EDGE ( 'NONE', *, *, #432, .F. ) ;
#129 = ADVANCED_FACE ( 'NONE', ( #340 ), #413, .F. ) ;
#130 = CC_DESIGN_DATE_AND_TIME_ASSIGNMENT ( #286, #136, ( #384 ) ) ;
#131 = EDGE_LOOP ( 'NONE', ( #230, #259, #100, #134 ) ) ;
#132 = CC_DESIGN_APPROVAL ( #170, ( #384 ) ) ;
#133 = ADVANCED_FACE ( 'NONE', ( #94 ), #454, .T. ) ;
#134 = ORIENTED_EDGE ( 'NONE', *, *, #499, .T. ) ;
#135 = CARTESIAN_POINT ( 'NONE',  ( 0.4133858267716535861, 0.000000000000000000, 0.1082677165354330728 ) ) ;
#136 = DATE_TIME_ROLE ( 'classification_date' ) ;
#137 = LINE ( 'NONE', #38, #300 ) ;
#138 = ADVANCED_FACE ( 'NONE', ( #97 ), #50, .T. ) ;
#139 = AXIS2_PLACEMENT_3D ( 'NONE', #415, #220, #498 ) ;
#140 = CARTESIAN_POINT ( 'NONE',  ( 0.9645669291338583307, 0.1574803149606299191, -0.1082677165354330728 ) ) ;
#141 = CARTESIAN_POINT ( 'NONE',  ( 0.4133858267716535861, 0.000000000000000000, -0.1082677165354330728 ) ) ;
#142 = DIRECTION ( 'NONE',  ( 0.000000000000000000, 0.000000000000000000, -1.000000000000000000 ) ) ;
#143 = APPLICATION_PROTOCOL_DEFINITION ( 'international standard', 'config_control_design', 1994, #121 ) ;
#144 = ORIENTED_EDGE ( 'NONE', *, *, #75, .T. ) ;
#145 = VECTOR ( 'NONE', #164, 39.37007874015748143 ) ;
#146 = CARTESIAN_POINT ( 'NONE',  ( 0.4133858267716535861, 0.1574803149606299191, -0.1082677165354330728 ) ) ;
#147 = APPROVAL_DATE_TIME ( #465, #298 ) ;
#148 = ORIENTED_EDGE ( 'NONE', *, *, #205, .T. ) ;
#149 = CARTESIAN_POINT ( 'NONE',  ( 1.377952755905512028, 0.1574803149606299191, -0.6299212598425196763 ) ) ;
#150 = DIRECTION ( 'NONE',  ( 0.000000000000000000, -0.000000000000000000, -1.000000000000000000 ) ) ;
#151 = DIRECTION ( 'NONE',  ( 0.000000000000000000, 0.000000000000000000, 1.000000000000000000 ) ) ;
#152 = ORIENTED_EDGE ( 'NONE', *, *, #264, .F. ) ;
#153 = VERTEX_POINT ( 'NONE', #173 ) ;
#154 = CARTESIAN_POINT ( 'NONE',  ( -0.9645669291338583307, 0.1574803149606299191, 0.1082677165354330728 ) ) ;
#155 = ORIENTED_EDGE ( 'NONE', *, *, #110, .F. ) ;
#156 = EDGE_CURVE ( 'NONE', #417, #476, #460, .T. ) ;
#157 = CARTESIAN_POINT ( 'NONE',  ( -0.9645669291338583307, 0.1574803149606299191, 0.1082677165354330728 ) ) ;
#158 = ORIENTED_EDGE ( 'NONE', *, *, #86, .F. ) ;
#159 = DIRECTION ( 'NONE',  ( 1.000000000000000000, 0.000000000000000000, -0.000000000000000000 ) ) ;
#160 = DIRECTION ( 'NONE',  ( 0.000000000000000000, 0.000000000000000000, -1.000000000000000000 ) ) ;
#161 =( NAMED_UNIT ( * ) PLANE_ANGLE_UNIT ( ) SI_UNIT ( $, .RADIAN. ) );
#162 = LOCAL_TIME ( 1, 38, 57.00000000000000000, #25 ) ;
#163 = CARTESIAN_POINT ( 'NONE',  ( -0.4133858267716535861, 0.000000000000000000, -0.1082677165354330728 ) ) ;
#164 = DIRECTION ( 'NONE',  ( -0.000000000000000000, -1.000000000000000000, -0.000000000000000000 ) ) ;
#165 = CALENDAR_DATE ( 2026, 10, 8 ) ;
#166 = CARTESIAN_POINT ( 'NONE',  ( 0.4133858267716535861, 0.1574803149606299191, -0.1082677165354330728 ) ) ;
#167 = VECTOR ( 'NONE', #404, 39.37007874015748143 ) ;
#168 = CARTESIAN_POINT ( 'NONE',  ( 0.4133858267716535861, 0.000000000000000000, -0.1082677165354330728 ) ) ;
#169 = EDGE_LOOP ( 'NONE', ( #424, #421, #274, #171 ) ) ;
#170 = APPROVAL ( #291, 'UNSPECIFIED' ) ;
#171 = ORIENTED_EDGE ( 'NONE', *, *, #207, .T. ) ;
#172 = VECTOR ( 'NONE', #227, 39.37007874015748143 ) ;
#173 = CARTESIAN_POINT ( 'NONE',  ( 1.377952755905512028, 0.000000000000000000, -0.6299212598425196763 ) ) ;
#174 =( NAMED_UNIT ( * ) SI_UNIT ( $, .STERADIAN. ) SOLID_ANGLE_UNIT ( ) );
#175 = PRODUCT_DEFINITION_SHAPE ( 'NONE', 'NONE',  #395 ) ;
#176 = ORIENTED_EDGE ( 'NONE', *, *, #484, .T. ) ;
#177 = LINE ( 'NONE', #179, #364 ) ;
#178 = AXIS2_PLACEMENT_3D ( 'NONE', #19, #458, #150 ) ;
#179 = CARTESIAN_POINT ( 'NONE',  ( -0.9645669291338583307, 0.1574803149606299191, -0.1082677165354330728 ) ) ;
#180 = APPROVAL_STATUS ( 'not_yet_approved' ) ;
#181 = CARTESIAN_POINT ( 'NONE',  ( 0.9645669291338583307, 0.1574803149606299191, 0.1082677165354330728 ) ) ;
#182 = VECTOR ( 'NONE', #7, 39.37007874015748143 ) ;
#183 = ORIENTED_EDGE ( 'NONE', *, *, #221, .F. ) ;
#184 = CARTESIAN_POINT ( 'NONE',  ( -0.9645669291338583307, 0.1574803149606299191, 0.1082677165354330728 ) ) ;
#185 = PLANE ( 'NONE',  #304 ) ;
#186 = PERSON_AND_ORGANIZATION ( #240, #83 ) ;
#187 = VECTOR ( 'NONE', #495, 39.37007874015748143 ) ;
#188 = VERTEX_POINT ( 'NONE', #149 ) ;
#189 = EDGE_CURVE ( 'NONE', #430, #313, #54, .T. ) ;
#190 = CARTESIAN_POINT ( 'NONE',  ( 0.9645669291338583307, 0.1574803149606299191, 0.1082677165354330728 ) ) ;
#191 = ORIENTED_EDGE ( 'NONE', *, *, #446, .F. ) ;
#192 = PLANE ( 'NONE',  #414 ) ;
#193 = EDGE_LOOP ( 'NONE', ( #233, #309, #302, #128 ) ) ;
#194 = ADVANCED_FACE ( 'NONE', ( #334 ), #418, .T. ) ;
#195 = AXIS2_PLACEMENT_3D ( 'NONE', #218, #380, #341 ) ;
#196 = FACE_OUTER_BOUND ( 'NONE', #222, .T. ) ;
#197 = CARTESIAN_POINT ( 'NONE',  ( -0.9645669291338583307, 0.000000000000000000, 0.1082677165354330728 ) ) ;
#198 = FACE_OUTER_BOUND ( 'NONE', #169, .T. ) ;
#199 = PERSON_AND_ORGANIZATION ( #240, #83 ) ;
#200 = ORIENTED_EDGE ( 'NONE', *, *, #16, .F. ) ;
#201 = CARTESIAN_POINT ( 'NONE',  ( -1.377952755905512028, 0.1574803149606299191, 0.6299212598425196763 ) ) ;
#202 = LINE ( 'NONE', #360, #145 ) ;
#203 = DIRECTION ( 'NONE',  ( 0.000000000000000000, 0.000000000000000000, -1.000000000000000000 ) ) ;
#204 = PLANE ( 'NONE',  #125 ) ;
#205 = EDGE_CURVE ( 'NONE', #289, #71, #488, .T. ) ;
#206 = ORIENTED_EDGE ( 'NONE', *, *, #52, .T. ) ;
#207 = EDGE_CURVE ( 'NONE', #219, #11, #464, .T. ) ;
#208 = VECTOR ( 'NONE', #347, 39.37007874015748143 ) ;
#209 = EDGE_LOOP ( 'NONE', ( #483, #242, #5, #338 ) ) ;
#210 = ADVANCED_BREP_SHAPE_REPRESENTATION ( '19_Microswitch_Bracket_CLOSED', ( #18, #409 ), #393 ) ;
#211 = LINE ( 'NONE', #367, #296 ) ;
#212 = LINE ( 'NONE', #491, #391 ) ;
#213 = LINE ( 'NONE', #372, #167 ) ;
#214 = CARTESIAN_POINT ( 'NONE',  ( 0.9645669291338583307, 0.000000000000000000, 0.1082677165354330728 ) ) ;
#215 = CARTESIAN_POINT ( 'NONE',  ( -1.377952755905512028, 0.1574803149606299191, -0.6299212598425196763 ) ) ;
#216 = FACE_BOUND ( 'NONE', #22, .T. ) ;
#217 = DIRECTION ( 'NONE',  ( -1.000000000000000000, 0.000000000000000000, 0.000000000000000000 ) ) ;
#218 = CARTESIAN_POINT ( 'NONE',  ( 0.000000000000000000, 0.1574803149606299191, 0.000000000000000000 ) ) ;
#219 = VERTEX_POINT ( 'NONE', #146 ) ;
#220 = DIRECTION ( 'NONE',  ( 0.000000000000000000, 0.000000000000000000, -1.000000000000000000 ) ) ;
#221 = EDGE_CURVE ( 'NONE', #493, #411, #452, .T. ) ;
#222 = EDGE_LOOP ( 'NONE', ( #394, #342, #60, #351 ) ) ;
#223 = ADVANCED_FACE ( 'NONE', ( #388 ), #185, .T. ) ;
#224 = FACE_OUTER_BOUND ( 'NONE', #500, .T. ) ;
#225 = ORIENTED_EDGE ( 'NONE', *, *, #16, .T. ) ;
#226 = AXIS2_PLACEMENT_3D ( 'NONE', #383, #489, #331 ) ;
#227 = DIRECTION ( 'NONE',  ( -0.000000000000000000, -0.000000000000000000, 1.000000000000000000 ) ) ;
#228 = EDGE_CURVE ( 'NONE', #103, #153, #15, .T. ) ;
#229 = PERSON_AND_ORGANIZATION_ROLE ( 'creator' ) ;
#230 = ORIENTED_EDGE ( 'NONE', *, *, #189, .T. ) ;
#231 = DIRECTION ( 'NONE',  ( 0.000000000000000000, 0.000000000000000000, 1.000000000000000000 ) ) ;
#232 = VECTOR ( 'NONE', #14, 39.37007874015748143 ) ;
#233 = ORIENTED_EDGE ( 'NONE', *, *, #119, .F. ) ;
#234 = VECTOR ( 'NONE', #284, 39.37007874015748143 ) ;
#235 = DIRECTION ( 'NONE',  ( -1.000000000000000000, 0.000000000000000000, 0.000000000000000000 ) ) ;
#236 = CARTESIAN_POINT ( 'NONE',  ( -0.9645669291338583307, 0.1574803149606299191, 0.1082677165354330728 ) ) ;
#237 = CARTESIAN_POINT ( 'NONE',  ( -0.9645669291338583307, 0.000000000000000000, -0.1082677165354330728 ) ) ;
#238 = DIRECTION ( 'NONE',  ( 1.000000000000000000, 0.000000000000000000, -0.000000000000000000 ) ) ;
#239 = DIRECTION ( 'NONE',  ( -1.000000000000000000, 0.000000000000000000, -0.000000000000000000 ) ) ;
#240 = PERSON ( 'UNSPECIFIED', 'UNSPECIFIED', 'UNSPECIFIED', ('UNSPECIFIED'), ('UNSPECIFIED'), ('UNSPECIFIED') ) ;
#241 = LINE ( 'NONE', #405, #494 ) ;
#242 = ORIENTED_EDGE ( 'NONE', *, *, #207, .F. ) ;
#243 = ADVANCED_FACE ( 'NONE', ( #224, #263, #104 ), #467, .T. ) ;
#244 = VECTOR ( 'NONE', #343, 39.37007874015748143 ) ;
#245 = DATE_AND_TIME ( #251, #48 ) ;
#246 = EDGE_CURVE ( 'NONE', #473, #103, #102, .T. ) ;
#247 = CC_DESIGN_PERSON_AND_ORGANIZATION_ASSIGNMENT ( #199, #356, ( #384 ) ) ;
#248 = ORIENTED_EDGE ( 'NONE', *, *, #396, .F. ) ;
#249 = CC_DESIGN_APPROVAL ( #298, ( #395 ) ) ;
#250 = DIRECTION ( 'NONE',  ( 1.000000000000000000, 0.000000000000000000, 0.000000000000000000 ) ) ;
#251 = CALENDAR_DATE ( 2026, 10, 8 ) ;
#252 = ORIENTED_EDGE ( 'NONE', *, *, #333, .F. ) ;
#253 = LINE ( 'NONE', #214, #81 ) ;
#254 = PERSON_AND_ORGANIZATION_ROLE ( 'creator' ) ;
#255 = DIRECTION ( 'NONE',  ( 1.000000000000000000, 0.000000000000000000, 0.000000000000000000 ) ) ;
#256 = VECTOR ( 'NONE', #475, 39.37007874015748143 ) ;
#257 = CARTESIAN_POINT ( 'NONE',  ( -0.9645669291338583307, 0.1574803149606299191, 0.1082677165354330728 ) ) ;
#258 = PLANE ( 'NONE',  #195 ) ;
#259 = ORIENTED_EDGE ( 'NONE', *, *, #116, .T. ) ;
#260 = EDGE_CURVE ( 'NONE', #278, #501, #269, .T. ) ;
#261 = CC_DESIGN_DATE_AND_TIME_ASSIGNMENT ( #30, #277, ( #395 ) ) ;
#262 = CARTESIAN_POINT ( 'NONE',  ( 0.4133858267716535861, 0.1574803149606299191, 0.1082677165354330728 ) ) ;
#263 = FACE_BOUND ( 'NONE', #131, .T. ) ;
#264 = EDGE_CURVE ( 'NONE', #444, #476, #55, .T. ) ;
#265 = ORIENTED_EDGE ( 'NONE', *, *, #205, .F. ) ;
#266 = EDGE_CURVE ( 'NONE', #455, #278, #496, .T. ) ;
#267 = LINE ( 'NONE', #262, #107 ) ;
#268 = ORIENTED_EDGE ( 'NONE', *, *, #221, .T. ) ;
#269 = LINE ( 'NONE', #27, #172 ) ;
#270 = COORDINATED_UNIVERSAL_TIME_OFFSET ( 1, 0, .AHEAD. ) ;
#271 = EDGE_LOOP ( 'NONE', ( #158, #265, #93, #206 ) ) ;
#272 = AXIS2_PLACEMENT_3D ( 'NONE', #257, #89, #87 ) ;
#273 = FACE_OUTER_BOUND ( 'NONE', #209, .T. ) ;
#274 = ORIENTED_EDGE ( 'NONE', *, *, #72, .T. ) ;
#275 = PLANE ( 'NONE',  #456 ) ;
#276 = CLOSED_SHELL ( 'NONE', ( #301, #243, #4, #129, #375, #320, #288, #133, #138, #223, #318, #336, #194, #480 ) ) ;
#277 = DATE_TIME_ROLE ( 'creation_date' ) ;
#278 = VERTEX_POINT ( 'NONE', #95 ) ;
#279 = CC_DESIGN_APPROVAL ( #58, ( #425 ) ) ;
#280 = VECTOR ( 'NONE', #2, 39.37007874015748143 ) ;
#281 = CARTESIAN_POINT ( 'NONE',  ( -0.9645669291338583307, 0.1574803149606299191, -0.1082677165354330728 ) ) ;
#282 = ORIENTED_EDGE ( 'NONE', *, *, #20, .T. ) ;
#283 = PERSON_AND_ORGANIZATION ( #240, #83 ) ;
#284 = DIRECTION ( 'NONE',  ( -0.000000000000000000, -1.000000000000000000, -0.000000000000000000 ) ) ;
#285 = CARTESIAN_POINT ( 'NONE',  ( 0.9645669291338583307, 0.000000000000000000, 0.1082677165354330728 ) ) ;
#286 = DATE_AND_TIME ( #165, #512 ) ;
#287 = AXIS2_PLACEMENT_3D ( 'NONE', #478, #123, #159 ) ;
#288 = ADVANCED_FACE ( 'NONE', ( #65 ), #192, .T. ) ;
#289 = VERTEX_POINT ( 'NONE', #154 ) ;
#290 = CARTESIAN_POINT ( 'NONE',  ( 0.4133858267716535861, 0.1574803149606299191, 0.1082677165354330728 ) ) ;
#291 = APPROVAL_STATUS ( 'not_yet_approved' ) ;
#292 = APPROVAL_PERSON_ORGANIZATION ( #99, #298, #385 ) ;
#293 = CARTESIAN_POINT ( 'NONE',  ( 0.9645669291338583307, 0.1574803149606299191, -0.1082677165354330728 ) ) ;
#294 = DIRECTION ( 'NONE',  ( -1.000000000000000000, -0.000000000000000000, -0.000000000000000000 ) ) ;
#295 = DIRECTION ( 'NONE',  ( -0.000000000000000000, -1.000000000000000000, -0.000000000000000000 ) ) ;
#296 = VECTOR ( 'NONE', #327, 39.37007874015748143 ) ;
#297 = CARTESIAN_POINT ( 'NONE',  ( 1.377952755905512028, 0.000000000000000000, 0.6299212598425196763 ) ) ;
#298 = APPROVAL ( #180, 'UNSPECIFIED' ) ;
#299 = FACE_BOUND ( 'NONE', #193, .T. ) ;
#300 = VECTOR ( 'NONE', #203, 39.37007874015748143 ) ;
#301 = ADVANCED_FACE ( 'NONE', ( #216, #378, #299 ), #258, .F. ) ;
#302 = ORIENTED_EDGE ( 'NONE', *, *, #20, .F. ) ;
#303 = CARTESIAN_POINT ( 'NONE',  ( -0.9645669291338583307, 0.000000000000000000, 0.1082677165354330728 ) ) ;
#304 = AXIS2_PLACEMENT_3D ( 'NONE', #310, #419, #98 ) ;
#305 = VERTEX_POINT ( 'NONE', #506 ) ;
#306 = DIRECTION ( 'NONE',  ( -1.000000000000000000, -0.000000000000000000, -0.000000000000000000 ) ) ;
#307 = ORIENTED_EDGE ( 'NONE', *, *, #260, .F. ) ;
#308 = CARTESIAN_POINT ( 'NONE',  ( -0.4133858267716535861, 0.1574803149606299191, 0.1082677165354330728 ) ) ;
#309 = ORIENTED_EDGE ( 'NONE', *, *, #72, .F. ) ;
#310 = CARTESIAN_POINT ( 'NONE',  ( -0.9645669291338583307, 0.1574803149606299191, -0.1082677165354330728 ) ) ;
#311 = EDGE_LOOP ( 'NONE', ( #34, #381, #268, #57 ) ) ;
#312 = LINE ( 'NONE', #78, #436 ) ;
#313 = VERTEX_POINT ( 'NONE', #237 ) ;
#314 = DIRECTION ( 'NONE',  ( 0.000000000000000000, 0.000000000000000000, 1.000000000000000000 ) ) ;
#315 = VECTOR ( 'NONE', #51, 39.37007874015748143 ) ;
#316 = EDGE_LOOP ( 'NONE', ( #369, #46, #13, #471 ) ) ;
#317 = CC_DESIGN_SECURITY_CLASSIFICATION ( #384, ( #425 ) ) ;
#318 = ADVANCED_FACE ( 'NONE', ( #273 ), #440, .T. ) ;
#319 = CARTESIAN_POINT ( 'NONE',  ( 1.377952755905512028, 0.1574803149606299191, -0.6299212598425196763 ) ) ;
#320 = ADVANCED_FACE ( 'NONE', ( #1 ), #470, .F. ) ;
#321 = CALENDAR_DATE ( 2026, 10, 8 ) ;
#322 = CARTESIAN_POINT ( 'NONE',  ( 1.377952755905512028, 0.1574803149606299191, 0.6299212598425196763 ) ) ;
#323 = EDGE_CURVE ( 'NONE', #153, #278, #312, .T. ) ;
#324 = LINE ( 'NONE', #236, #408 ) ;
#325 = SHAPE_DEFINITION_REPRESENTATION ( #175, #210 ) ;
#326 = LINE ( 'NONE', #290, #474 ) ;
#327 = DIRECTION ( 'NONE',  ( -0.000000000000000000, -1.000000000000000000, -0.000000000000000000 ) ) ;
#328 = LENGTH_MEASURE_WITH_UNIT ( LENGTH_MEASURE( 0.02539999999999999897 ), #479 );
#329 = LINE ( 'NONE', #303, #362 ) ;
#330 = COORDINATED_UNIVERSAL_TIME_OFFSET ( 1, 0, .AHEAD. ) ;
#331 = DIRECTION ( 'NONE',  ( 0.000000000000000000, 0.000000000000000000, 1.000000000000000000 ) ) ;
#332 = VECTOR ( 'NONE', #306, 39.37007874015748143 ) ;
#333 = EDGE_CURVE ( 'NONE', #410, #289, #39, .T. ) ;
#334 = FACE_OUTER_BOUND ( 'NONE', #112, .T. ) ;
#335 = DIRECTION ( 'NONE',  ( -0.000000000000000000, -1.000000000000000000, -0.000000000000000000 ) ) ;
#336 = ADVANCED_FACE ( 'NONE', ( #472 ), #120, .T. ) ;
#337 = CC_DESIGN_PERSON_AND_ORGANIZATION_ASSIGNMENT ( #389, #398, ( #425 ) ) ;
#338 = ORIENTED_EDGE ( 'NONE', *, *, #44, .T. ) ;
#339 = AXIS2_PLACEMENT_3D ( 'NONE', #406, #37, #160 ) ;
#340 = FACE_OUTER_BOUND ( 'NONE', #96, .T. ) ;
#341 = DIRECTION ( 'NONE',  ( 0.000000000000000000, -0.000000000000000000, -1.000000000000000000 ) ) ;
#342 = ORIENTED_EDGE ( 'NONE', *, *, #448, .F. ) ;
#343 = DIRECTION ( 'NONE',  ( -0.000000000000000000, -1.000000000000000000, -0.000000000000000000 ) ) ;
#344 = VECTOR ( 'NONE', #142, 39.37007874015748143 ) ;
#345 = CARTESIAN_POINT ( 'NONE',  ( 1.377952755905512028, 0.000000000000000000, 0.6299212598425196763 ) ) ;
#346 = EDGE_LOOP ( 'NONE', ( #445, #191, #105, #148 ) ) ;
#347 = DIRECTION ( 'NONE',  ( -0.000000000000000000, -1.000000000000000000, -0.000000000000000000 ) ) ;
#348 = VERTEX_POINT ( 'NONE', #201 ) ;
#349 = CARTESIAN_POINT ( 'NONE',  ( -0.9645669291338583307, 0.1574803149606299191, 0.1082677165354330728 ) ) ;
#350 = AXIS2_PLACEMENT_3D ( 'NONE', #70, #32, #239 ) ;
#351 = ORIENTED_EDGE ( 'NONE', *, *, #246, .T. ) ;
#352 = LINE ( 'NONE', #74, #53 ) ;
#353 = APPROVAL_STATUS ( 'not_yet_approved' ) ;
#354 = ORIENTED_EDGE ( 'NONE', *, *, #266, .T. ) ;
#355 = LINE ( 'NONE', #319, #234 ) ;
#356 = PERSON_AND_ORGANIZATION_ROLE ( 'classification_officer' ) ;
#357 = EDGE_LOOP ( 'NONE', ( #505, #176, #497, #144 ) ) ;
#358 = CARTESIAN_POINT ( 'NONE',  ( -0.9645669291338583307, 0.1574803149606299191, -0.1082677165354330728 ) ) ;
#359 = LOCAL_TIME ( 1, 38, 57.00000000000000000, #270 ) ;
#360 = CARTESIAN_POINT ( 'NONE',  ( -0.4133858267716535861, 0.1574803149606299191, -0.1082677165354330728 ) ) ;
#361 = DIRECTION ( 'NONE',  ( 1.000000000000000000, -0.000000000000000000, 0.000000000000000000 ) ) ;
#362 = VECTOR ( 'NONE', #371, 39.37007874015748143 ) ;
#363 = ORIENTED_EDGE ( 'NONE', *, *, #156, .F. ) ;
#364 = VECTOR ( 'NONE', #59, 39.37007874015748143 ) ;
#365 = VECTOR ( 'NONE', #335, 39.37007874015748143 ) ;
#366 = LINE ( 'NONE', #485, #182 ) ;
#367 = CARTESIAN_POINT ( 'NONE',  ( -0.4133858267716535861, 0.1574803149606299191, 0.1082677165354330728 ) ) ;
#368 = DIMENSIONAL_EXPONENTS ( 1.000000000000000000, 0.000000000000000000, 0.000000000000000000, 0.000000000000000000, 0.000000000000000000, 0.000000000000000000, 0.000000000000000000 ) ;
#369 = ORIENTED_EDGE ( 'NONE', *, *, #323, .T. ) ;
#370 = EDGE_CURVE ( 'NONE', #473, #188, #241, .T. ) ;
#371 = DIRECTION ( 'NONE',  ( -0.000000000000000000, -0.000000000000000000, 1.000000000000000000 ) ) ;
#372 = CARTESIAN_POINT ( 'NONE',  ( 0.4133858267716535861, 0.000000000000000000, 0.1082677165354330728 ) ) ;
#373 = ORIENTED_EDGE ( 'NONE', *, *, #450, .F. ) ;
#374 = LINE ( 'NONE', #9, #232 ) ;
#375 = ADVANCED_FACE ( 'NONE', ( #196 ), #275, .F. ) ;
#376 = UNCERTAINTY_MEASURE_WITH_UNIT (LENGTH_MEASURE( 1.000000000000000082E-05 ), #443, 'distance_accuracy_value', 'NONE');
#377 = CARTESIAN_POINT ( 'NONE',  ( -0.9645669291338583307, 0.000000000000000000, -0.1082677165354330728 ) ) ;
#378 = FACE_OUTER_BOUND ( 'NONE', #108, .T. ) ;
#379 = LINE ( 'NONE', #141, #69 ) ;
#380 = DIRECTION ( 'NONE',  ( 0.000000000000000000, -1.000000000000000000, 0.000000000000000000 ) ) ;
#381 = ORIENTED_EDGE ( 'NONE', *, *, #52, .F. ) ;
#382 = DESIGN_CONTEXT ( 'detailed design', #121, 'design' ) ;
#383 = CARTESIAN_POINT ( 'NONE',  ( -0.4133858267716535861, 0.1574803149606299191, 0.1082677165354330728 ) ) ;
#384 = SECURITY_CLASSIFICATION ( '', '', #36 ) ;
#385 = APPROVAL_ROLE ( '' ) ;
#386 = ORIENTED_EDGE ( 'NONE', *, *, #189, .F. ) ;
#387 = EDGE_LOOP ( 'NONE', ( #363, #117, #437, #63 ) ) ;
#388 = FACE_OUTER_BOUND ( 'NONE', #462, .T. ) ;
#389 = PERSON_AND_ORGANIZATION ( #240, #83 ) ;
#390 = ORIENTED_EDGE ( 'NONE', *, *, #110, .T. ) ;
#391 = VECTOR ( 'NONE', #295, 39.37007874015748143 ) ;
#392 = DIRECTION ( 'NONE',  ( -1.000000000000000000, -0.000000000000000000, -0.000000000000000000 ) ) ;
#393 =( GEOMETRIC_REPRESENTATION_CONTEXT ( 3 ) GLOBAL_UNCERTAINTY_ASSIGNED_CONTEXT ( ( #376 ) ) GLOBAL_UNIT_ASSIGNED_CONTEXT ( ( #443, #161, #174 ) ) REPRESENTATION_CONTEXT ( 'NONE', 'WORKASPACE' ) );
#394 = ORIENTED_EDGE ( 'NONE', *, *, #228, .T. ) ;
#395 = PRODUCT_DEFINITION ( 'UNKNOWN', '', #425, #382 ) ;
#396 = EDGE_CURVE ( 'NONE', #501, #103, #77, .T. ) ;
#397 = LINE ( 'NONE', #43, #256 ) ;
#398 = PERSON_AND_ORGANIZATION_ROLE ( 'design_supplier' ) ;
#399 = FACE_OUTER_BOUND ( 'NONE', #447, .T. ) ;
#400 = APPROVAL_ROLE ( '' ) ;
#401 = CARTESIAN_POINT ( 'NONE',  ( -0.4133858267716535861, 0.1574803149606299191, 0.1082677165354330728 ) ) ;
#402 = CARTESIAN_POINT ( 'NONE',  ( 0.4133858267716535861, 0.1574803149606299191, 0.1082677165354330728 ) ) ;
#403 = CARTESIAN_POINT ( 'NONE',  ( 0.4133858267716535861, 0.1574803149606299191, 0.1082677165354330728 ) ) ;
#404 = DIRECTION ( 'NONE',  ( -0.000000000000000000, -0.000000000000000000, 1.000000000000000000 ) ) ;
#405 = CARTESIAN_POINT ( 'NONE',  ( 1.377952755905512028, 0.1574803149606299191, 0.6299212598425196763 ) ) ;
#406 = CARTESIAN_POINT ( 'NONE',  ( -1.377952755905512028, 0.1574803149606299191, 0.6299212598425196763 ) ) ;
#407 = VERTEX_POINT ( 'NONE', #403 ) ;
#408 = VECTOR ( 'NONE', #250, 39.37007874015748143 ) ;
#409 = AXIS2_PLACEMENT_3D ( 'NONE', #28, #151, #62 ) ;
#410 = VERTEX_POINT ( 'NONE', #358 ) ;
#411 = VERTEX_POINT ( 'NONE', #67 ) ;
#412 = ORIENTED_EDGE ( 'NONE', *, *, #323, .F. ) ;
#413 = PLANE ( 'NONE',  #139 ) ;
#414 = AXIS2_PLACEMENT_3D ( 'NONE', #349, #416, #503 ) ;
#415 = CARTESIAN_POINT ( 'NONE',  ( -1.377952755905512028, 0.1574803149606299191, 0.6299212598425196763 ) ) ;
#416 = DIRECTION ( 'NONE',  ( 1.000000000000000000, -0.000000000000000000, 0.000000000000000000 ) ) ;
#417 = VERTEX_POINT ( 'NONE', #511 ) ;
#418 = PLANE ( 'NONE',  #45 ) ;
#419 = DIRECTION ( 'NONE',  ( 0.000000000000000000, 0.000000000000000000, 1.000000000000000000 ) ) ;
#420 = CALENDAR_DATE ( 2026, 10, 8 ) ;
#421 = ORIENTED_EDGE ( 'NONE', *, *, #56, .F. ) ;
#422 = LINE ( 'NONE', #215, #508 ) ;
#423 = CARTESIAN_POINT ( 'NONE',  ( 1.377952755905512028, 0.1574803149606299191, 0.6299212598425196763 ) ) ;
#424 = ORIENTED_EDGE ( 'NONE', *, *, #91, .F. ) ;
#425 = PRODUCT_DEFINITION_FORMATION_WITH_SPECIFIED_SOURCE ( 'ANY', '', #127, .NOT_KNOWN. ) ;
#426 = ORIENTED_EDGE ( 'NONE', *, *, #76, .T. ) ;
#427 = CARTESIAN_POINT ( 'NONE',  ( -1.377952755905512028, 0.1574803149606299191, -0.6299212598425196763 ) ) ;
#428 = VECTOR ( 'NONE', #461, 39.37007874015748143 ) ;
#429 = PERSON_AND_ORGANIZATION ( #240, #83 ) ;
#430 = VERTEX_POINT ( 'NONE', #163 ) ;
#431 = DIRECTION ( 'NONE',  ( 0.000000000000000000, 0.000000000000000000, -1.000000000000000000 ) ) ;
#432 = EDGE_CURVE ( 'NONE', #407, #444, #397, .T. ) ;
#433 = ORIENTED_EDGE ( 'NONE', *, *, #114, .T. ) ;
#434 = CARTESIAN_POINT ( 'NONE',  ( 1.377952755905512028, 0.1574803149606299191, 0.6299212598425196763 ) ) ;
#435 = DATE_AND_TIME ( #33, #359 ) ;
#436 = VECTOR ( 'NONE', #392, 39.37007874015748143 ) ;
#437 = ORIENTED_EDGE ( 'NONE', *, *, #432, .T. ) ;
#438 = APPROVAL_DATE_TIME ( #245, #170 ) ;
#439 = CARTESIAN_POINT ( 'NONE',  ( 0.9645669291338583307, 0.1574803149606299191, 0.1082677165354330728 ) ) ;
#440 = PLANE ( 'NONE',  #502 ) ;
#441 = APPROVAL_ROLE ( '' ) ;
#442 = DIRECTION ( 'NONE',  ( -0.000000000000000000, -1.000000000000000000, -0.000000000000000000 ) ) ;
#443 =( CONVERSION_BASED_UNIT ( 'INCH', #328 ) LENGTH_UNIT ( ) NAMED_UNIT ( #368 ) );
#444 = VERTEX_POINT ( 'NONE', #439 ) ;
#445 = ORIENTED_EDGE ( 'NONE', *, *, #116, .F. ) ;
#446 = EDGE_CURVE ( 'NONE', #410, #313, #115, .T. ) ;
#447 = EDGE_LOOP ( 'NONE', ( #64, #68, #373, #354 ) ) ;
#448 = EDGE_CURVE ( 'NONE', #188, #153, #355, .T. ) ;
#449 = LOCAL_TIME ( 1, 38, 57.00000000000000000, #111 ) ;
#450 = EDGE_CURVE ( 'NONE', #455, #348, #352, .T. ) ;
#451 = DIRECTION ( 'NONE',  ( -0.000000000000000000, -1.000000000000000000, -0.000000000000000000 ) ) ;
#452 = LINE ( 'NONE', #308, #344 ) ;
#453 = APPLICATION_CONTEXT ( 'configuration controlled 3d designs of mechanical parts and assemblies' ) ;
#454 = PLANE ( 'NONE',  #272 ) ;
#455 = VERTEX_POINT ( 'NONE', #41 ) ;
#456 = AXIS2_PLACEMENT_3D ( 'NONE', #434, #235, #314 ) ;
#457 = DIRECTION ( 'NONE',  ( -0.000000000000000000, -0.000000000000000000, 1.000000000000000000 ) ) ;
#458 = DIRECTION ( 'NONE',  ( 0.000000000000000000, -1.000000000000000000, 0.000000000000000000 ) ) ;
#459 = ORIENTED_EDGE ( 'NONE', *, *, #3, .F. ) ;
#460 = LINE ( 'NONE', #135, #490 ) ;
#461 = DIRECTION ( 'NONE',  ( 0.000000000000000000, 0.000000000000000000, -1.000000000000000000 ) ) ;
#462 = EDGE_LOOP ( 'NONE', ( #386, #468, #390, #26 ) ) ;
#463 = CC_DESIGN_PERSON_AND_ORGANIZATION_ASSIGNMENT ( #186, #254, ( #395 ) ) ;
#464 = LINE ( 'NONE', #17, #187 ) ;
#465 = DATE_AND_TIME ( #420, #162 ) ;
#466 = VERTEX_POINT ( 'NONE', #35 ) ;
#467 = PLANE ( 'NONE',  #178 ) ;
#468 = ORIENTED_EDGE ( 'NONE', *, *, #469, .F. ) ;
#469 = EDGE_CURVE ( 'NONE', #411, #430, #202, .T. ) ;
#470 = PLANE ( 'NONE',  #287 ) ;
#471 = ORIENTED_EDGE ( 'NONE', *, *, #448, .T. ) ;
#472 = FACE_OUTER_BOUND ( 'NONE', #387, .T. ) ;
#473 = VERTEX_POINT ( 'NONE', #322 ) ;
#474 = VECTOR ( 'NONE', #82, 39.37007874015748143 ) ;
#475 = DIRECTION ( 'NONE',  ( 1.000000000000000000, 0.000000000000000000, 0.000000000000000000 ) ) ;
#476 = VERTEX_POINT ( 'NONE', #285 ) ;
#477 = DIRECTION ( 'NONE',  ( 0.000000000000000000, 0.000000000000000000, -1.000000000000000000 ) ) ;
#478 = CARTESIAN_POINT ( 'NONE',  ( -1.377952755905512028, 0.1574803149606299191, -0.6299212598425196763 ) ) ;
#479 =( LENGTH_UNIT ( ) NAMED_UNIT ( * ) SI_UNIT ( $, .METRE. ) );
#480 = ADVANCED_FACE ( 'NONE', ( #198 ), #204, .T. ) ;
#481 = VECTOR ( 'NONE', #109, 39.37007874015748143 ) ;
#482 = CC_DESIGN_PERSON_AND_ORGANIZATION_ASSIGNMENT ( #492, #21, ( #127 ) ) ;
#483 = ORIENTED_EDGE ( 'NONE', *, *, #484, .F. ) ;
#484 = EDGE_CURVE ( 'NONE', #11, #417, #213, .T. ) ;
#485 = CARTESIAN_POINT ( 'NONE',  ( 0.9645669291338583307, 0.1574803149606299191, 0.1082677165354330728 ) ) ;
#486 = VECTOR ( 'NONE', #92, 39.37007874015748143 ) ;
#487 = LINE ( 'NONE', #293, #90 ) ;
#488 = LINE ( 'NONE', #184, #244 ) ;
#489 = DIRECTION ( 'NONE',  ( -1.000000000000000000, 0.000000000000000000, 0.000000000000000000 ) ) ;
#490 = VECTOR ( 'NONE', #255, 39.37007874015748143 ) ;
#491 = CARTESIAN_POINT ( 'NONE',  ( -1.377952755905512028, 0.1574803149606299191, 0.6299212598425196763 ) ) ;
#492 = PERSON_AND_ORGANIZATION ( #240, #83 ) ;
#493 = VERTEX_POINT ( 'NONE', #401 ) ;
#494 = VECTOR ( 'NONE', #431, 39.37007874015748143 ) ;
#495 = DIRECTION ( 'NONE',  ( -0.000000000000000000, -1.000000000000000000, -0.000000000000000000 ) ) ;
#496 = LINE ( 'NONE', #427, #208 ) ;
#497 = ORIENTED_EDGE ( 'NONE', *, *, #156, .T. ) ;
#498 = DIRECTION ( 'NONE',  ( -1.000000000000000000, 0.000000000000000000, -0.000000000000000000 ) ) ;
#499 = EDGE_CURVE ( 'NONE', #305, #430, #137, .T. ) ;
#500 = EDGE_LOOP ( 'NONE', ( #307, #412, #8, #248 ) ) ;
#501 = VERTEX_POINT ( 'NONE', #10 ) ;
#502 = AXIS2_PLACEMENT_3D ( 'NONE', #402, #361, #477 ) ;
#503 = DIRECTION ( 'NONE',  ( 0.000000000000000000, 0.000000000000000000, -1.000000000000000000 ) ) ;
#504 = APPROVAL_DATE_TIME ( #435, #58 ) ;
#505 = ORIENTED_EDGE ( 'NONE', *, *, #91, .T. ) ;
#506 = CARTESIAN_POINT ( 'NONE',  ( -0.4133858267716535861, 0.000000000000000000, 0.1082677165354330728 ) ) ;
#507 = LINE ( 'NONE', #12, #315 ) ;
#508 = VECTOR ( 'NONE', #294, 39.37007874015748143 ) ;
#509 = DIRECTION ( 'NONE',  ( -0.000000000000000000, -0.000000000000000000, 1.000000000000000000 ) ) ;
#510 = ORIENTED_EDGE ( 'NONE', *, *, #56, .T. ) ;
#511 = CARTESIAN_POINT ( 'NONE',  ( 0.4133858267716535861, 0.000000000000000000, 0.1082677165354330728 ) ) ;
#512 = LOCAL_TIME ( 1, 38, 57.00000000000000000, #124 ) ;
ENDSEC;
END-ISO-10303-21;
