ISO-10303-21;
HEADER;
FILE_DESCRIPTION (( 'STEP AP203' ),
    '1' );
FILE_NAME ('20_Mechanical_Stop_Bracket.STEP',
    '2026-08-10T00:38:59',
    ( '' ),
    ( '' ),
    'SwSTEP 2.0',
    'SolidWorks 2026',
    '' );
FILE_SCHEMA (( 'CONFIG_CONTROL_DESIGN' ));
ENDSEC;

DATA;
#1 = CIRCLE ( 'NONE', #204, 0.1673228346456692439 ) ;
#2 = FACE_BOUND ( 'NONE', #34, .T. ) ;
#3 = DIRECTION ( 'NONE',  ( 0.000000000000000000, 1.000000000000000000, 0.000000000000000000 ) ) ;
#4 = ADVANCED_FACE ( 'NONE', ( #188 ), #350, .F. ) ;
#5 = CARTESIAN_POINT ( 'NONE',  ( -1.653543307086614345, 0.3937007874015748254, 0.1673228346456692439 ) ) ;
#6 = AXIS2_PLACEMENT_3D ( 'NONE', #445, #356, #80 ) ;
#7 = VERTEX_POINT ( 'NONE', #498 ) ;
#8 = CARTESIAN_POINT ( 'NONE',  ( -2.204724409448818978, 0.3937007874015748254, 0.6692913385826771977 ) ) ;
#9 = DIRECTION ( 'NONE',  ( 0.000000000000000000, 0.000000000000000000, -1.000000000000000000 ) ) ;
#10 = ORIENTED_EDGE ( 'NONE', *, *, #174, .F. ) ;
#11 = EDGE_LOOP ( 'NONE', ( #388, #23, #51, #280 ) ) ;
#12 = CYLINDRICAL_SURFACE ( 'NONE', #467, 0.1673228346456692439 ) ;
#13 = DIRECTION ( 'NONE',  ( -0.000000000000000000, -1.000000000000000000, -0.000000000000000000 ) ) ;
#14 = VERTEX_POINT ( 'NONE', #164 ) ;
#15 = DIRECTION ( 'NONE',  ( -0.000000000000000000, -1.000000000000000000, -0.000000000000000000 ) ) ;
#16 = ADVANCED_FACE ( 'NONE', ( #217 ), #55, .F. ) ;
#17 = VECTOR ( 'NONE', #447, 39.37007874015748143 ) ;
#18 = AXIS2_PLACEMENT_3D ( 'NONE', #58, #265, #423 ) ;
#19 = EDGE_CURVE ( 'NONE', #258, #244, #300, .T. ) ;
#20 = CIRCLE ( 'NONE', #325, 0.1673228346456692439 ) ;
#21 = DATE_AND_TIME ( #348, #161 ) ;
#22 = CARTESIAN_POINT ( 'NONE',  ( -0.8661417322834645827, 0.3937007874015748254, 0.1673228346456692439 ) ) ;
#23 = ORIENTED_EDGE ( 'NONE', *, *, #380, .T. ) ;
#24 = DIRECTION ( 'NONE',  ( -0.000000000000000000, -1.000000000000000000, -0.000000000000000000 ) ) ;
#25 = EDGE_LOOP ( 'NONE', ( #400, #92 ) ) ;
#26 = LOCAL_TIME ( 1, 38, 59.00000000000000000, #351 ) ;
#27 = FACE_BOUND ( 'NONE', #297, .T. ) ;
#28 = APPLICATION_PROTOCOL_DEFINITION ( 'international standard', 'config_control_design', 1994, #169 ) ;
#29 = VERTEX_POINT ( 'NONE', #301 ) ;
#30 = DIRECTION ( 'NONE',  ( -0.000000000000000000, -1.000000000000000000, -0.000000000000000000 ) ) ;
#31 = APPLICATION_PROTOCOL_DEFINITION ( 'international standard', 'config_control_design', 1994, #506 ) ;
#32 = ORIENTED_EDGE ( 'NONE', *, *, #426, .F. ) ;
#33 = CYLINDRICAL_SURFACE ( 'NONE', #493, 0.1673228346456692439 ) ;
#34 = EDGE_LOOP ( 'NONE', ( #338, #65 ) ) ;
#35 = ORIENTED_EDGE ( 'NONE', *, *, #266, .T. ) ;
#36 = EDGE_CURVE ( 'NONE', #145, #29, #354, .T. ) ;
#37 = LINE ( 'NONE', #505, #180 ) ;
#38 = MANIFOLD_SOLID_BREP ( 'Plate_Extrude', #403 ) ;
#39 = CARTESIAN_POINT ( 'NONE',  ( 0.000000000000000000, 0.3937007874015748254, 0.000000000000000000 ) ) ;
#40 = AXIS2_PLACEMENT_3D ( 'NONE', #194, #190, #196 ) ;
#41 = AXIS2_PLACEMENT_3D ( 'NONE', #162, #294, #49 ) ;
#42 = DIRECTION ( 'NONE',  ( 0.000000000000000000, 1.000000000000000000, 0.000000000000000000 ) ) ;
#43 = ORIENTED_EDGE ( 'NONE', *, *, #212, .T. ) ;
#44 = CARTESIAN_POINT ( 'NONE',  ( 1.653543307086614345, 0.3937007874015748254, 0.000000000000000000 ) ) ;
#45 = AXIS2_PLACEMENT_3D ( 'NONE', #39, #532, #253 ) ;
#46 = LINE ( 'NONE', #401, #499 ) ;
#47 = AXIS2_PLACEMENT_3D ( 'NONE', #364, #202, #439 ) ;
#48 = ORIENTED_EDGE ( 'NONE', *, *, #98, .T. ) ;
#49 = DIRECTION ( 'NONE',  ( 0.000000000000000000, 0.000000000000000000, 1.000000000000000000 ) ) ;
#50 = CIRCLE ( 'NONE', #122, 0.1673228346456692439 ) ;
#51 = ORIENTED_EDGE ( 'NONE', *, *, #478, .T. ) ;
#52 = CALENDAR_DATE ( 2026, 10, 8 ) ;
#53 = EDGE_LOOP ( 'NONE', ( #215, #419 ) ) ;
#54 = APPROVAL_ROLE ( '' ) ;
#55 = CYLINDRICAL_SURFACE ( 'NONE', #57, 0.1673228346456692439 ) ;
#56 = CYLINDRICAL_SURFACE ( 'NONE', #250, 0.1673228346456692439 ) ;
#57 = AXIS2_PLACEMENT_3D ( 'NONE', #383, #175, #137 ) ;
#58 = CARTESIAN_POINT ( 'NONE',  ( 0.8661417322834645827, 0.000000000000000000, 0.000000000000000000 ) ) ;
#59 = CARTESIAN_POINT ( 'NONE',  ( 2.204724409448818978, 0.000000000000000000, 0.6692913385826771977 ) ) ;
#60 = PERSON_AND_ORGANIZATION_ROLE ( 'classification_officer' ) ;
#61 = VERTEX_POINT ( 'NONE', #205 ) ;
#62 = VECTOR ( 'NONE', #30, 39.37007874015748143 ) ;
#63 = APPROVAL_DATE_TIME ( #106, #360 ) ;
#64 = FACE_OUTER_BOUND ( 'NONE', #459, .T. ) ;
#65 = ORIENTED_EDGE ( 'NONE', *, *, #451, .F. ) ;
#66 = AXIS2_PLACEMENT_3D ( 'NONE', #89, #332, #507 ) ;
#67 = DIRECTION ( 'NONE',  ( -1.000000000000000000, 0.000000000000000000, 0.000000000000000000 ) ) ;
#68 = ORIENTED_EDGE ( 'NONE', *, *, #187, .F. ) ;
#69 = LOCAL_TIME ( 1, 38, 59.00000000000000000, #508 ) ;
#70 = EDGE_CURVE ( 'NONE', #268, #318, #46, .T. ) ;
#71 = CARTESIAN_POINT ( 'NONE',  ( 2.204724409448818978, 0.3937007874015748254, 0.6692913385826771977 ) ) ;
#72 = APPROVAL_DATE_TIME ( #289, #516 ) ;
#73 = ORIENTED_EDGE ( 'NONE', *, *, #269, .F. ) ;
#74 = CC_DESIGN_PERSON_AND_ORGANIZATION_ASSIGNMENT ( #389, #60, ( #393 ) ) ;
#75 = DIRECTION ( 'NONE',  ( -0.000000000000000000, -1.000000000000000000, -0.000000000000000000 ) ) ;
#76 = VERTEX_POINT ( 'NONE', #211 ) ;
#77 = EDGE_CURVE ( 'NONE', #145, #399, #37, .T. ) ;
#78 = VERTEX_POINT ( 'NONE', #500 ) ;
#79 = CARTESIAN_POINT ( 'NONE',  ( -2.204724409448818978, 0.3937007874015748254, -0.6692913385826771977 ) ) ;
#80 = DIRECTION ( 'NONE',  ( 1.000000000000000000, 0.000000000000000000, 0.000000000000000000 ) ) ;
#81 = EDGE_CURVE ( 'NONE', #268, #477, #485, .T. ) ;
#82 = CARTESIAN_POINT ( 'NONE',  ( -1.653543307086614345, 0.000000000000000000, 0.000000000000000000 ) ) ;
#83 = AXIS2_PLACEMENT_3D ( 'NONE', #522, #108, #271 ) ;
#84 = DIRECTION ( 'NONE',  ( 0.000000000000000000, 0.000000000000000000, 1.000000000000000000 ) ) ;
#85 = PERSON_AND_ORGANIZATION ( #490, #262 ) ;
#86 = VERTEX_POINT ( 'NONE', #5 ) ;
#87 = ORIENTED_EDGE ( 'NONE', *, *, #357, .T. ) ;
#88 = CIRCLE ( 'NONE', #406, 0.1673228346456692439 ) ;
#89 = CARTESIAN_POINT ( 'NONE',  ( 0.8661417322834645827, 0.3937007874015748254, 0.000000000000000000 ) ) ;
#90 = DIRECTION ( 'NONE',  ( 0.000000000000000000, 0.000000000000000000, 1.000000000000000000 ) ) ;
#91 = CARTESIAN_POINT ( 'NONE',  ( 0.8661417322834645827, 0.000000000000000000, 0.1673228346456692439 ) ) ;
#92 = ORIENTED_EDGE ( 'NONE', *, *, #420, .T. ) ;
#93 = DIRECTION ( 'NONE',  ( -0.000000000000000000, -1.000000000000000000, -0.000000000000000000 ) ) ;
#94 = VECTOR ( 'NONE', #13, 39.37007874015748143 ) ;
#95 = ADVANCED_FACE ( 'NONE', ( #328, #2, #126, #199, #366 ), #455, .F. ) ;
#96 = CARTESIAN_POINT ( 'NONE',  ( 0.8661417322834645827, 0.000000000000000000, -0.1673228346456692439 ) ) ;
#97 = APPROVAL_STATUS ( 'not_yet_approved' ) ;
#98 = EDGE_CURVE ( 'NONE', #416, #435, #343, .T. ) ;
#99 = ADVANCED_FACE ( 'NONE', ( #375 ), #129, .F. ) ;
#100 = CC_DESIGN_APPROVAL ( #360, ( #306 ) ) ;
#101 = LINE ( 'NONE', #517, #481 ) ;
#102 = CARTESIAN_POINT ( 'NONE',  ( 0.8661417322834645827, 0.3937007874015748254, -0.1673228346456692439 ) ) ;
#103 = CARTESIAN_POINT ( 'NONE',  ( -1.653543307086614345, 0.3937007874015748254, -0.1673228346456692439 ) ) ;
#104 = PERSON_AND_ORGANIZATION ( #490, #262 ) ;
#105 = ORIENTED_EDGE ( 'NONE', *, *, #518, .T. ) ;
#106 = DATE_AND_TIME ( #185, #26 ) ;
#107 = CARTESIAN_POINT ( 'NONE',  ( -2.204724409448818978, 0.000000000000000000, 0.6692913385826771977 ) ) ;
#108 = DIRECTION ( 'NONE',  ( -0.000000000000000000, -1.000000000000000000, -0.000000000000000000 ) ) ;
#109 = CARTESIAN_POINT ( 'NONE',  ( 0.8661417322834645827, 0.000000000000000000, 0.000000000000000000 ) ) ;
#110 = ORIENTED_EDGE ( 'NONE', *, *, #266, .F. ) ;
#111 = CIRCLE ( 'NONE', #140, 0.1673228346456692439 ) ;
#112 = EDGE_CURVE ( 'NONE', #198, #76, #168, .T. ) ;
#113 = DIRECTION ( 'NONE',  ( 0.000000000000000000, 0.000000000000000000, -1.000000000000000000 ) ) ;
#114 = APPROVAL_STATUS ( 'not_yet_approved' ) ;
#115 = ORIENTED_EDGE ( 'NONE', *, *, #230, .F. ) ;
#116 = CC_DESIGN_PERSON_AND_ORGANIZATION_ASSIGNMENT ( #231, #312, ( #306 ) ) ;
#117 = VECTOR ( 'NONE', #124, 39.37007874015748143 ) ;
#118 = CARTESIAN_POINT ( 'NONE',  ( 1.653543307086614345, 0.3937007874015748254, 0.000000000000000000 ) ) ;
#119 = EDGE_CURVE ( 'NONE', #435, #7, #327, .T. ) ;
#120 = EDGE_LOOP ( 'NONE', ( #43, #105 ) ) ;
#121 = DIRECTION ( 'NONE',  ( -0.000000000000000000, -1.000000000000000000, -0.000000000000000000 ) ) ;
#122 = AXIS2_PLACEMENT_3D ( 'NONE', #463, #417, #139 ) ;
#123 = EDGE_CURVE ( 'NONE', #503, #14, #514, .T. ) ;
#124 = DIRECTION ( 'NONE',  ( -0.000000000000000000, -1.000000000000000000, -0.000000000000000000 ) ) ;
#125 = ORIENTED_EDGE ( 'NONE', *, *, #212, .F. ) ;
#126 = FACE_BOUND ( 'NONE', #527, .T. ) ;
#127 = DATE_TIME_ROLE ( 'creation_date' ) ;
#128 = AXIS2_PLACEMENT_3D ( 'NONE', #466, #404, #295 ) ;
#129 = CYLINDRICAL_SURFACE ( 'NONE', #207, 0.1673228346456692439 ) ;
#130 = ORIENTED_EDGE ( 'NONE', *, *, #304, .F. ) ;
#131 = FACE_OUTER_BOUND ( 'NONE', #133, .T. ) ;
#132 = ORIENTED_EDGE ( 'NONE', *, *, #432, .T. ) ;
#133 = EDGE_LOOP ( 'NONE', ( #443, #68, #302, #321 ) ) ;
#134 = DIRECTION ( 'NONE',  ( 0.000000000000000000, 1.000000000000000000, 0.000000000000000000 ) ) ;
#135 = ADVANCED_FACE ( 'NONE', ( #441 ), #349, .F. ) ;
#136 = ORIENTED_EDGE ( 'NONE', *, *, #362, .T. ) ;
#137 = DIRECTION ( 'NONE',  ( 0.000000000000000000, 0.000000000000000000, -1.000000000000000000 ) ) ;
#138 = AXIS2_PLACEMENT_3D ( 'NONE', #109, #152, #479 ) ;
#139 = DIRECTION ( 'NONE',  ( 0.000000000000000000, 0.000000000000000000, 1.000000000000000000 ) ) ;
#140 = AXIS2_PLACEMENT_3D ( 'NONE', #44, #134, #299 ) ;
#141 = ORIENTED_EDGE ( 'NONE', *, *, #19, .F. ) ;
#142 = DIRECTION ( 'NONE',  ( 0.000000000000000000, 1.000000000000000000, 0.000000000000000000 ) ) ;
#143 = SECURITY_CLASSIFICATION_LEVEL ( 'unclassified' ) ;
#144 = CARTESIAN_POINT ( 'NONE',  ( -2.204724409448818978, 0.3937007874015748254, -0.6692913385826771977 ) ) ;
#145 = VERTEX_POINT ( 'NONE', #323 ) ;
#146 = APPROVAL_STATUS ( 'not_yet_approved' ) ;
#147 = CARTESIAN_POINT ( 'NONE',  ( -2.204724409448818978, 0.3937007874015748254, 0.6692913385826771977 ) ) ;
#148 = ORIENTED_EDGE ( 'NONE', *, *, #380, .F. ) ;
#149 = PLANE ( 'NONE',  #40 ) ;
#150 = ORIENTED_EDGE ( 'NONE', *, *, #112, .T. ) ;
#151 = CIRCLE ( 'NONE', #317, 0.1673228346456692439 ) ;
#152 = DIRECTION ( 'NONE',  ( 0.000000000000000000, 1.000000000000000000, 0.000000000000000000 ) ) ;
#153 = EDGE_LOOP ( 'NONE', ( #150, #73, #141, #255 ) ) ;
#154 = DIRECTION ( 'NONE',  ( -0.000000000000000000, -0.000000000000000000, 1.000000000000000000 ) ) ;
#155 = CARTESIAN_POINT ( 'NONE',  ( -2.204724409448818978, 0.000000000000000000, -0.6692913385826771977 ) ) ;
#156 = COORDINATED_UNIVERSAL_TIME_OFFSET ( 1, 0, .AHEAD. ) ;
#157 = CIRCLE ( 'NONE', #138, 0.1673228346456692439 ) ;
#158 = AXIS2_PLACEMENT_3D ( 'NONE', #468, #142, #220 ) ;
#159 = DIRECTION ( 'NONE',  ( 0.000000000000000000, 0.000000000000000000, 1.000000000000000000 ) ) ;
#160 = DIRECTION ( 'NONE',  ( 0.000000000000000000, 0.000000000000000000, 1.000000000000000000 ) ) ;
#161 = LOCAL_TIME ( 1, 38, 59.00000000000000000, #227 ) ;
#162 = CARTESIAN_POINT ( 'NONE',  ( -1.653543307086614345, 0.000000000000000000, 0.000000000000000000 ) ) ;
#163 = DIRECTION ( 'NONE',  ( -0.000000000000000000, -1.000000000000000000, -0.000000000000000000 ) ) ;
#164 = CARTESIAN_POINT ( 'NONE',  ( -1.653543307086614345, 0.000000000000000000, -0.1673228346456692439 ) ) ;
#165 = EDGE_CURVE ( 'NONE', #78, #258, #523, .T. ) ;
#166 = ORIENTED_EDGE ( 'NONE', *, *, #112, .F. ) ;
#167 = DIRECTION ( 'NONE',  ( 0.000000000000000000, 0.000000000000000000, -1.000000000000000000 ) ) ;
#168 = LINE ( 'NONE', #155, #17 ) ;
#169 = APPLICATION_CONTEXT ( 'configuration controlled 3d designs of mechanical parts and assemblies' ) ;
#170 = CC_DESIGN_PERSON_AND_ORGANIZATION_ASSIGNMENT ( #104, #427, ( #306 ) ) ;
#171 = EDGE_LOOP ( 'NONE', ( #480, #331 ) ) ;
#172 = CYLINDRICAL_SURFACE ( 'NONE', #66, 0.1673228346456692439 ) ;
#173 = EDGE_CURVE ( 'NONE', #61, #78, #394, .T. ) ;
#174 = EDGE_CURVE ( 'NONE', #86, #503, #530, .T. ) ;
#175 = DIRECTION ( 'NONE',  ( -0.000000000000000000, -1.000000000000000000, -0.000000000000000000 ) ) ;
#176 = CARTESIAN_POINT ( 'NONE',  ( -0.8661417322834645827, 0.3937007874015748254, -0.1673228346456692439 ) ) ;
#177 = ORIENTED_EDGE ( 'NONE', *, *, #324, .T. ) ;
#178 = CARTESIAN_POINT ( 'NONE',  ( -0.8661417322834645827, 0.3937007874015748254, -0.1673228346456692439 ) ) ;
#179 = CARTESIAN_POINT ( 'NONE',  ( 1.653543307086614345, 0.3937007874015748254, -0.1673228346456692439 ) ) ;
#180 = VECTOR ( 'NONE', #330, 39.37007874015748143 ) ;
#181 = LOCAL_TIME ( 1, 38, 59.00000000000000000, #450 ) ;
#182 = DIRECTION ( 'NONE',  ( 0.000000000000000000, 1.000000000000000000, 0.000000000000000000 ) ) ;
#183 = VECTOR ( 'NONE', #121, 39.37007874015748143 ) ;
#184 = CARTESIAN_POINT ( 'NONE',  ( 1.653543307086614345, 0.3937007874015748254, 0.1673228346456692439 ) ) ;
#185 = CALENDAR_DATE ( 2026, 10, 8 ) ;
#186 = LINE ( 'NONE', #144, #284 ) ;
#187 = EDGE_CURVE ( 'NONE', #78, #529, #281, .T. ) ;
#188 = FACE_OUTER_BOUND ( 'NONE', #257, .T. ) ;
#189 = EDGE_CURVE ( 'NONE', #61, #524, #355, .T. ) ;
#190 = DIRECTION ( 'NONE',  ( 1.000000000000000000, -0.000000000000000000, 0.000000000000000000 ) ) ;
#191 = ORIENTED_EDGE ( 'NONE', *, *, #414, .F. ) ;
#192 = DIRECTION ( 'NONE',  ( 0.000000000000000000, -1.000000000000000000, 0.000000000000000000 ) ) ;
#193 = ORIENTED_EDGE ( 'NONE', *, *, #77, .T. ) ;
#194 = CARTESIAN_POINT ( 'NONE',  ( -2.204724409448818978, 0.3937007874015748254, 0.6692913385826771977 ) ) ;
#195 = EDGE_LOOP ( 'NONE', ( #115, #166, #275, #415 ) ) ;
#196 = DIRECTION ( 'NONE',  ( 0.000000000000000000, 0.000000000000000000, -1.000000000000000000 ) ) ;
#197 = FACE_OUTER_BOUND ( 'NONE', #153, .T. ) ;
#198 = VERTEX_POINT ( 'NONE', #276 ) ;
#199 = FACE_BOUND ( 'NONE', #171, .T. ) ;
#200 = PERSON_AND_ORGANIZATION ( #490, #262 ) ;
#201 = CARTESIAN_POINT ( 'NONE',  ( -0.8661417322834645827, 0.3937007874015748254, 0.000000000000000000 ) ) ;
#202 = DIRECTION ( 'NONE',  ( 0.000000000000000000, 0.000000000000000000, 1.000000000000000000 ) ) ;
#203 = VECTOR ( 'NONE', #428, 39.37007874015748143 ) ;
#204 = AXIS2_PLACEMENT_3D ( 'NONE', #515, #182, #223 ) ;
#205 = CARTESIAN_POINT ( 'NONE',  ( -2.204724409448818978, 0.3937007874015748254, 0.6692913385826771977 ) ) ;
#206 = ADVANCED_FACE ( 'NONE', ( #528 ), #149, .F. ) ;
#207 = AXIS2_PLACEMENT_3D ( 'NONE', #369, #163, #9 ) ;
#208 = AXIS2_PLACEMENT_3D ( 'NONE', #286, #3, #160 ) ;
#209 = CC_DESIGN_DATE_AND_TIME_ASSIGNMENT ( #249, #127, ( #436 ) ) ;
#210 = CARTESIAN_POINT ( 'NONE',  ( -1.653543307086614345, 0.3937007874015748254, 0.000000000000000000 ) ) ;
#211 = CARTESIAN_POINT ( 'NONE',  ( -2.204724409448818978, 0.000000000000000000, -0.6692913385826771977 ) ) ;
#212 = EDGE_CURVE ( 'NONE', #334, #399, #157, .T. ) ;
#213 = ORIENTED_EDGE ( 'NONE', *, *, #36, .T. ) ;
#214 = SHAPE_DEFINITION_REPRESENTATION ( #222, #402 ) ;
#215 = ORIENTED_EDGE ( 'NONE', *, *, #414, .T. ) ;
#216 = LINE ( 'NONE', #176, #456 ) ;
#217 = FACE_OUTER_BOUND ( 'NONE', #536, .T. ) ;
#218 = ORIENTED_EDGE ( 'NONE', *, *, #19, .T. ) ;
#219 = CARTESIAN_POINT ( 'NONE',  ( -0.8661417322834645827, 0.3937007874015748254, 0.000000000000000000 ) ) ;
#220 = DIRECTION ( 'NONE',  ( 0.000000000000000000, 0.000000000000000000, 1.000000000000000000 ) ) ;
#221 = CARTESIAN_POINT ( 'NONE',  ( 0.8661417322834645827, 0.3937007874015748254, 0.000000000000000000 ) ) ;
#222 = PRODUCT_DEFINITION_SHAPE ( 'NONE', 'NONE',  #436 ) ;
#223 = DIRECTION ( 'NONE',  ( 0.000000000000000000, 0.000000000000000000, 1.000000000000000000 ) ) ;
#224 = APPROVAL ( #97, 'UNSPECIFIED' ) ;
#225 = DIRECTION ( 'NONE',  ( 0.000000000000000000, 1.000000000000000000, 0.000000000000000000 ) ) ;
#226 = ADVANCED_FACE ( 'NONE', ( #319, #27, #444, #232, #525 ), #315, .T. ) ;
#227 = COORDINATED_UNIVERSAL_TIME_OFFSET ( 1, 0, .AHEAD. ) ;
#228 = ORIENTED_EDGE ( 'NONE', *, *, #357, .F. ) ;
#229 = VECTOR ( 'NONE', #520, 39.37007874015748143 ) ;
#230 = EDGE_CURVE ( 'NONE', #76, #524, #482, .T. ) ;
#231 = PERSON_AND_ORGANIZATION ( #490, #262 ) ;
#232 = FACE_BOUND ( 'NONE', #25, .T. ) ;
#233 = AXIS2_PLACEMENT_3D ( 'NONE', #504, #408, #84 ) ;
#234 = ORIENTED_EDGE ( 'NONE', *, *, #426, .T. ) ;
#235 = DIRECTION ( 'NONE',  ( 0.000000000000000000, 0.000000000000000000, 1.000000000000000000 ) ) ;
#236 =( NAMED_UNIT ( * ) SI_UNIT ( $, .STERADIAN. ) SOLID_ANGLE_UNIT ( ) );
#237 = CIRCLE ( 'NONE', #208, 0.1673228346456692439 ) ;
#238 = ORIENTED_EDGE ( 'NONE', *, *, #478, .F. ) ;
#239 = CARTESIAN_POINT ( 'NONE',  ( -1.653543307086614345, 0.3937007874015748254, 0.1673228346456692439 ) ) ;
#240 = PERSON_AND_ORGANIZATION ( #490, #262 ) ;
#241 = ORIENTED_EDGE ( 'NONE', *, *, #70, .T. ) ;
#242 = DIRECTION ( 'NONE',  ( 0.000000000000000000, -0.000000000000000000, -1.000000000000000000 ) ) ;
#243 = ORIENTED_EDGE ( 'NONE', *, *, #339, .F. ) ;
#244 = VERTEX_POINT ( 'NONE', #79 ) ;
#245 = ORIENTED_EDGE ( 'NONE', *, *, #98, .F. ) ;
#246 = DIRECTION ( 'NONE',  ( 0.000000000000000000, 1.000000000000000000, 0.000000000000000000 ) ) ;
#247 =( LENGTH_UNIT ( ) NAMED_UNIT ( * ) SI_UNIT ( $, .METRE. ) );
#248 = ADVANCED_FACE ( 'NONE', ( #270 ), #33, .F. ) ;
#249 = DATE_AND_TIME ( #497, #181 ) ;
#250 = AXIS2_PLACEMENT_3D ( 'NONE', #221, #15, #422 ) ;
#251 = ORIENTED_EDGE ( 'NONE', *, *, #123, .T. ) ;
#252 = EDGE_LOOP ( 'NONE', ( #10, #484, #353, #305 ) ) ;
#253 = DIRECTION ( 'NONE',  ( 0.000000000000000000, -0.000000000000000000, -1.000000000000000000 ) ) ;
#254 = CC_DESIGN_APPROVAL ( #516, ( #436 ) ) ;
#255 = ORIENTED_EDGE ( 'NONE', *, *, #458, .T. ) ;
#256 = DIRECTION ( 'NONE',  ( 0.000000000000000000, 1.000000000000000000, 0.000000000000000000 ) ) ;
#257 = EDGE_LOOP ( 'NONE', ( #397, #395, #87, #130 ) ) ;
#258 = VERTEX_POINT ( 'NONE', #398 ) ;
#259 = AXIS2_PLACEMENT_3D ( 'NONE', #433, #67, #235 ) ;
#260 = DIRECTION ( 'NONE',  ( 0.000000000000000000, 0.000000000000000000, 1.000000000000000000 ) ) ;
#261 = APPROVAL_DATE_TIME ( #465, #224 ) ;
#262 = ORGANIZATION ( 'UNSPECIFIED', 'UNSPECIFIED', '' ) ;
#263 = DIRECTION ( 'NONE',  ( -0.000000000000000000, -1.000000000000000000, -0.000000000000000000 ) ) ;
#264 = CC_DESIGN_DATE_AND_TIME_ASSIGNMENT ( #21, #519, ( #393 ) ) ;
#265 = DIRECTION ( 'NONE',  ( 0.000000000000000000, 1.000000000000000000, 0.000000000000000000 ) ) ;
#266 = EDGE_CURVE ( 'NONE', #244, #61, #363, .T. ) ;
#267 = LINE ( 'NONE', #346, #512 ) ;
#268 = VERTEX_POINT ( 'NONE', #22 ) ;
#269 = EDGE_CURVE ( 'NONE', #244, #76, #186, .T. ) ;
#270 = FACE_OUTER_BOUND ( 'NONE', #365, .T. ) ;
#271 = DIRECTION ( 'NONE',  ( 0.000000000000000000, 0.000000000000000000, -1.000000000000000000 ) ) ;
#272 = VECTOR ( 'NONE', #396, 39.37007874015748143 ) ;
#273 = CARTESIAN_POINT ( 'NONE',  ( -2.204724409448818978, 0.3937007874015748254, 0.6692913385826771977 ) ) ;
#274 = CIRCLE ( 'NONE', #158, 0.1673228346456692439 ) ;
#275 = ORIENTED_EDGE ( 'NONE', *, *, #430, .F. ) ;
#276 = CARTESIAN_POINT ( 'NONE',  ( 2.204724409448818978, 0.000000000000000000, -0.6692913385826771977 ) ) ;
#277 = CALENDAR_DATE ( 2026, 10, 8 ) ;
#278 = AXIS2_PLACEMENT_3D ( 'NONE', #201, #496, #90 ) ;
#279 = APPROVAL_PERSON_ORGANIZATION ( #85, #360, #475 ) ;
#280 = ORIENTED_EDGE ( 'NONE', *, *, #420, .F. ) ;
#281 = LINE ( 'NONE', #476, #62 ) ;
#282 = LENGTH_MEASURE_WITH_UNIT ( LENGTH_MEASURE( 0.02539999999999999897 ), #247 );
#283 = ORIENTED_EDGE ( 'NONE', *, *, #521, .T. ) ;
#284 = VECTOR ( 'NONE', #24, 39.37007874015748143 ) ;
#285 = DIRECTION ( 'NONE',  ( 0.000000000000000000, 0.000000000000000000, -1.000000000000000000 ) ) ;
#286 = CARTESIAN_POINT ( 'NONE',  ( -1.653543307086614345, 0.3937007874015748254, 0.000000000000000000 ) ) ;
#287 = EDGE_CURVE ( 'NONE', #524, #529, #310, .T. ) ;
#288 = DIRECTION ( 'NONE',  ( 0.000000000000000000, 0.000000000000000000, 1.000000000000000000 ) ) ;
#289 = DATE_AND_TIME ( #277, #409 ) ;
#290 = ADVANCED_FACE ( 'NONE', ( #64 ), #390, .F. ) ;
#291 = DIRECTION ( 'NONE',  ( -0.000000000000000000, -1.000000000000000000, -0.000000000000000000 ) ) ;
#292 = PERSON_AND_ORGANIZATION_ROLE ( 'creator' ) ;
#293 = VECTOR ( 'NONE', #509, 39.37007874015748143 ) ;
#294 = DIRECTION ( 'NONE',  ( 0.000000000000000000, 1.000000000000000000, 0.000000000000000000 ) ) ;
#295 = DIRECTION ( 'NONE',  ( 0.000000000000000000, 0.000000000000000000, 1.000000000000000000 ) ) ;
#296 = DIRECTION ( 'NONE',  ( -1.000000000000000000, 0.000000000000000000, -0.000000000000000000 ) ) ;
#297 = EDGE_LOOP ( 'NONE', ( #136, #251 ) ) ;
#298 = ORIENTED_EDGE ( 'NONE', *, *, #189, .F. ) ;
#299 = DIRECTION ( 'NONE',  ( 0.000000000000000000, 0.000000000000000000, 1.000000000000000000 ) ) ;
#300 = LINE ( 'NONE', #461, #293 ) ;
#301 = CARTESIAN_POINT ( 'NONE',  ( 0.8661417322834645827, 0.3937007874015748254, -0.1673228346456692439 ) ) ;
#302 = ORIENTED_EDGE ( 'NONE', *, *, #173, .F. ) ;
#303 = LINE ( 'NONE', #381, #94 ) ;
#304 = EDGE_CURVE ( 'NONE', #318, #489, #50, .T. ) ;
#305 = ORIENTED_EDGE ( 'NONE', *, *, #123, .F. ) ;
#306 = PRODUCT_DEFINITION_FORMATION_WITH_SPECIFIED_SOURCE ( 'ANY', '', #307, .NOT_KNOWN. ) ;
#307 = PRODUCT ( '20_Mechanical_Stop_Bracket', '20_Mechanical_Stop_Bracket', '', ( #316 ) ) ;
#308 = DIRECTION ( 'NONE',  ( 0.000000000000000000, 0.000000000000000000, 1.000000000000000000 ) ) ;
#309 = DIRECTION ( 'NONE',  ( 0.000000000000000000, 0.000000000000000000, -1.000000000000000000 ) ) ;
#310 = LINE ( 'NONE', #107, #203 ) ;
#311 = ORIENTED_EDGE ( 'NONE', *, *, #165, .F. ) ;
#312 = PERSON_AND_ORGANIZATION_ROLE ( 'creator' ) ;
#313 = CARTESIAN_POINT ( 'NONE',  ( -2.204724409448818978, 0.3937007874015748254, 0.6692913385826771977 ) ) ;
#314 = ORIENTED_EDGE ( 'NONE', *, *, #165, .T. ) ;
#315 = PLANE ( 'NONE',  #387 ) ;
#316 = MECHANICAL_CONTEXT ( 'NONE', #169, 'mechanical' ) ;
#317 = AXIS2_PLACEMENT_3D ( 'NONE', #457, #256, #413 ) ;
#318 = VERTEX_POINT ( 'NONE', #377 ) ;
#319 = FACE_BOUND ( 'NONE', #53, .T. ) ;
#320 = AXIS2_PLACEMENT_3D ( 'NONE', #405, #449, #288 ) ;
#321 = ORIENTED_EDGE ( 'NONE', *, *, #189, .T. ) ;
#322 = PRODUCT_RELATED_PRODUCT_CATEGORY ( 'detail', '', ( #307 ) ) ;
#323 = CARTESIAN_POINT ( 'NONE',  ( 0.8661417322834645827, 0.3937007874015748254, 0.1673228346456692439 ) ) ;
#324 = EDGE_CURVE ( 'NONE', #477, #268, #20, .T. ) ;
#325 = AXIS2_PLACEMENT_3D ( 'NONE', #219, #42, #260 ) ;
#326 = EDGE_LOOP ( 'NONE', ( #407, #298, #110, #376 ) ) ;
#327 = LINE ( 'NONE', #494, #117 ) ;
#328 = FACE_OUTER_BOUND ( 'NONE', #411, .T. ) ;
#329 = ORIENTED_EDGE ( 'NONE', *, *, #119, .T. ) ;
#330 = DIRECTION ( 'NONE',  ( -0.000000000000000000, -1.000000000000000000, -0.000000000000000000 ) ) ;
#331 = ORIENTED_EDGE ( 'NONE', *, *, #81, .F. ) ;
#332 = DIRECTION ( 'NONE',  ( -0.000000000000000000, -1.000000000000000000, -0.000000000000000000 ) ) ;
#333 = DIMENSIONAL_EXPONENTS ( 1.000000000000000000, 0.000000000000000000, 0.000000000000000000, 0.000000000000000000, 0.000000000000000000, 0.000000000000000000, 0.000000000000000000 ) ;
#334 = VERTEX_POINT ( 'NONE', #96 ) ;
#335 = PERSON_AND_ORGANIZATION ( #490, #262 ) ;
#336 = EDGE_CURVE ( 'NONE', #453, #14, #303, .T. ) ;
#337 = UNCERTAINTY_MEASURE_WITH_UNIT (LENGTH_MEASURE( 1.000000000000000082E-05 ), #434, 'distance_accuracy_value', 'NONE');
#338 = ORIENTED_EDGE ( 'NONE', *, *, #521, .F. ) ;
#339 = EDGE_CURVE ( 'NONE', #452, #7, #464, .T. ) ;
#340 = VECTOR ( 'NONE', #309, 39.37007874015748143 ) ;
#341 = CARTESIAN_POINT ( 'NONE',  ( -0.8661417322834645827, 0.000000000000000000, -0.1673228346456692439 ) ) ;
#342 = DESIGN_CONTEXT ( 'detailed design', #506, 'design' ) ;
#343 = CIRCLE ( 'NONE', #320, 0.1673228346456692439 ) ;
#344 = LINE ( 'NONE', #102, #431 ) ;
#345 = CIRCLE ( 'NONE', #18, 0.1673228346456692439 ) ;
#346 = CARTESIAN_POINT ( 'NONE',  ( 2.204724409448818978, 0.3937007874015748254, -0.6692913385826771977 ) ) ;
#347 = VECTOR ( 'NONE', #352, 39.37007874015748143 ) ;
#348 = CALENDAR_DATE ( 2026, 10, 8 ) ;
#349 = CYLINDRICAL_SURFACE ( 'NONE', #418, 0.1673228346456692439 ) ;
#350 = CYLINDRICAL_SURFACE ( 'NONE', #83, 0.1673228346456692439 ) ;
#351 = COORDINATED_UNIVERSAL_TIME_OFFSET ( 1, 0, .AHEAD. ) ;
#352 = DIRECTION ( 'NONE',  ( -0.000000000000000000, -0.000000000000000000, 1.000000000000000000 ) ) ;
#353 = ORIENTED_EDGE ( 'NONE', *, *, #336, .T. ) ;
#354 = CIRCLE ( 'NONE', #128, 0.1673228346456692439 ) ;
#355 = LINE ( 'NONE', #147, #183 ) ;
#356 = DIRECTION ( 'NONE',  ( 0.000000000000000000, 0.000000000000000000, 1.000000000000000000 ) ) ;
#357 = EDGE_CURVE ( 'NONE', #477, #489, #216, .T. ) ;
#358 = ORIENTED_EDGE ( 'NONE', *, *, #432, .F. ) ;
#359 = CARTESIAN_POINT ( 'NONE',  ( 1.653543307086614345, 0.3937007874015748254, 0.000000000000000000 ) ) ;
#360 = APPROVAL ( #146, 'UNSPECIFIED' ) ;
#361 = ORIENTED_EDGE ( 'NONE', *, *, #174, .T. ) ;
#362 = EDGE_CURVE ( 'NONE', #14, #503, #384, .T. ) ;
#363 = LINE ( 'NONE', #273, #368 ) ;
#364 = CARTESIAN_POINT ( 'NONE',  ( -2.204724409448818978, 0.3937007874015748254, -0.6692913385826771977 ) ) ;
#365 = EDGE_LOOP ( 'NONE', ( #48, #329, #243, #238 ) ) ;
#366 = FACE_BOUND ( 'NONE', #391, .T. ) ;
#367 = ADVANCED_FACE ( 'NONE', ( #454 ), #172, .F. ) ;
#368 = VECTOR ( 'NONE', #154, 39.37007874015748143 ) ;
#369 = CARTESIAN_POINT ( 'NONE',  ( -0.8661417322834645827, 0.3937007874015748254, 0.000000000000000000 ) ) ;
#370 =( NAMED_UNIT ( * ) PLANE_ANGLE_UNIT ( ) SI_UNIT ( $, .RADIAN. ) );
#371 = AXIS2_PLACEMENT_3D ( 'NONE', #8, #167, #296 ) ;
#372 = DIRECTION ( 'NONE',  ( -0.000000000000000000, -1.000000000000000000, -0.000000000000000000 ) ) ;
#373 = CC_DESIGN_APPROVAL ( #224, ( #393 ) ) ;
#374 = DIRECTION ( 'NONE',  ( 0.000000000000000000, 0.000000000000000000, -1.000000000000000000 ) ) ;
#375 = FACE_OUTER_BOUND ( 'NONE', #495, .T. ) ;
#376 = ORIENTED_EDGE ( 'NONE', *, *, #269, .T. ) ;
#377 = CARTESIAN_POINT ( 'NONE',  ( -0.8661417322834645827, 0.000000000000000000, 0.1673228346456692439 ) ) ;
#378 = ORIENTED_EDGE ( 'NONE', *, *, #173, .T. ) ;
#379 = PLANE ( 'NONE',  #371 ) ;
#380 = EDGE_CURVE ( 'NONE', #435, #416, #111, .T. ) ;
#381 = CARTESIAN_POINT ( 'NONE',  ( -1.653543307086614345, 0.3937007874015748254, -0.1673228346456692439 ) ) ;
#382 = ADVANCED_FACE ( 'NONE', ( #460 ), #12, .F. ) ;
#383 = CARTESIAN_POINT ( 'NONE',  ( -1.653543307086614345, 0.3937007874015748254, 0.000000000000000000 ) ) ;
#384 = CIRCLE ( 'NONE', #41, 0.1673228346456692439 ) ;
#385 = FACE_OUTER_BOUND ( 'NONE', #502, .T. ) ;
#386 = DIRECTION ( 'NONE',  ( -0.000000000000000000, -1.000000000000000000, -0.000000000000000000 ) ) ;
#387 = AXIS2_PLACEMENT_3D ( 'NONE', #487, #192, #242 ) ;
#388 = ORIENTED_EDGE ( 'NONE', *, *, #119, .F. ) ;
#389 = PERSON_AND_ORGANIZATION ( #490, #262 ) ;
#390 = PLANE ( 'NONE',  #259 ) ;
#391 = EDGE_LOOP ( 'NONE', ( #358, #429 ) ) ;
#392 = ADVANCED_FACE ( 'NONE', ( #131 ), #379, .F. ) ;
#393 = SECURITY_CLASSIFICATION ( '', '', #143 ) ;
#394 = LINE ( 'NONE', #313, #229 ) ;
#395 = ORIENTED_EDGE ( 'NONE', *, *, #81, .T. ) ;
#396 = DIRECTION ( 'NONE',  ( 0.000000000000000000, 0.000000000000000000, -1.000000000000000000 ) ) ;
#397 = ORIENTED_EDGE ( 'NONE', *, *, #70, .F. ) ;
#398 = CARTESIAN_POINT ( 'NONE',  ( 2.204724409448818978, 0.3937007874015748254, -0.6692913385826771977 ) ) ;
#399 = VERTEX_POINT ( 'NONE', #91 ) ;
#400 = ORIENTED_EDGE ( 'NONE', *, *, #339, .T. ) ;
#401 = CARTESIAN_POINT ( 'NONE',  ( -0.8661417322834645827, 0.3937007874015748254, 0.1673228346456692439 ) ) ;
#402 = ADVANCED_BREP_SHAPE_REPRESENTATION ( '20_Mechanical_Stop_Bracket', ( #38, #6 ), #486 ) ;
#403 = CLOSED_SHELL ( 'NONE', ( #474, #99, #248, #16, #95, #226, #206, #392, #290, #534, #382, #135, #4, #367 ) ) ;
#404 = DIRECTION ( 'NONE',  ( 0.000000000000000000, 1.000000000000000000, 0.000000000000000000 ) ) ;
#405 = CARTESIAN_POINT ( 'NONE',  ( 1.653543307086614345, 0.3937007874015748254, 0.000000000000000000 ) ) ;
#406 = AXIS2_PLACEMENT_3D ( 'NONE', #473, #225, #308 ) ;
#407 = ORIENTED_EDGE ( 'NONE', *, *, #230, .T. ) ;
#408 = DIRECTION ( 'NONE',  ( 0.000000000000000000, 1.000000000000000000, 0.000000000000000000 ) ) ;
#409 = LOCAL_TIME ( 1, 38, 59.00000000000000000, #156 ) ;
#410 = ORIENTED_EDGE ( 'NONE', *, *, #77, .F. ) ;
#411 = EDGE_LOOP ( 'NONE', ( #35, #378, #314, #218 ) ) ;
#412 = CC_DESIGN_PERSON_AND_ORGANIZATION_ASSIGNMENT ( #240, #292, ( #436 ) ) ;
#413 = DIRECTION ( 'NONE',  ( 0.000000000000000000, 0.000000000000000000, 1.000000000000000000 ) ) ;
#414 = EDGE_CURVE ( 'NONE', #489, #318, #151, .T. ) ;
#415 = ORIENTED_EDGE ( 'NONE', *, *, #287, .F. ) ;
#416 = VERTEX_POINT ( 'NONE', #179 ) ;
#417 = DIRECTION ( 'NONE',  ( 0.000000000000000000, 1.000000000000000000, 0.000000000000000000 ) ) ;
#418 = AXIS2_PLACEMENT_3D ( 'NONE', #359, #438, #285 ) ;
#419 = ORIENTED_EDGE ( 'NONE', *, *, #304, .T. ) ;
#420 = EDGE_CURVE ( 'NONE', #7, #452, #274, .T. ) ;
#421 = DIRECTION ( 'NONE',  ( -0.000000000000000000, -1.000000000000000000, -0.000000000000000000 ) ) ;
#422 = DIRECTION ( 'NONE',  ( 0.000000000000000000, 0.000000000000000000, -1.000000000000000000 ) ) ;
#423 = DIRECTION ( 'NONE',  ( 0.000000000000000000, 0.000000000000000000, 1.000000000000000000 ) ) ;
#424 = LINE ( 'NONE', #59, #340 ) ;
#425 = ORIENTED_EDGE ( 'NONE', *, *, #518, .F. ) ;
#426 = EDGE_CURVE ( 'NONE', #29, #334, #344, .T. ) ;
#427 = PERSON_AND_ORGANIZATION_ROLE ( 'design_supplier' ) ;
#428 = DIRECTION ( 'NONE',  ( 1.000000000000000000, 0.000000000000000000, 0.000000000000000000 ) ) ;
#429 = ORIENTED_EDGE ( 'NONE', *, *, #36, .F. ) ;
#430 = EDGE_CURVE ( 'NONE', #529, #198, #424, .T. ) ;
#431 = VECTOR ( 'NONE', #471, 39.37007874015748143 ) ;
#432 = EDGE_CURVE ( 'NONE', #29, #145, #1, .T. ) ;
#433 = CARTESIAN_POINT ( 'NONE',  ( 2.204724409448818978, 0.3937007874015748254, 0.6692913385826771977 ) ) ;
#434 =( CONVERSION_BASED_UNIT ( 'INCH', #282 ) LENGTH_UNIT ( ) NAMED_UNIT ( #333 ) );
#435 = VERTEX_POINT ( 'NONE', #184 ) ;
#436 = PRODUCT_DEFINITION ( 'UNKNOWN', '', #306, #342 ) ;
#437 = APPROVAL_PERSON_ORGANIZATION ( #483, #516, #533 ) ;
#438 = DIRECTION ( 'NONE',  ( -0.000000000000000000, -1.000000000000000000, -0.000000000000000000 ) ) ;
#439 = DIRECTION ( 'NONE',  ( 1.000000000000000000, 0.000000000000000000, -0.000000000000000000 ) ) ;
#440 = ORIENTED_EDGE ( 'NONE', *, *, #430, .T. ) ;
#441 = FACE_OUTER_BOUND ( 'NONE', #11, .T. ) ;
#442 = PLANE ( 'NONE',  #47 ) ;
#443 = ORIENTED_EDGE ( 'NONE', *, *, #287, .T. ) ;
#444 = FACE_OUTER_BOUND ( 'NONE', #195, .T. ) ;
#445 = CARTESIAN_POINT ( 'NONE',  ( 0.000000000000000000, 0.000000000000000000, 0.000000000000000000 ) ) ;
#446 = ORIENTED_EDGE ( 'NONE', *, *, #362, .F. ) ;
#447 = DIRECTION ( 'NONE',  ( -1.000000000000000000, -0.000000000000000000, -0.000000000000000000 ) ) ;
#448 = CARTESIAN_POINT ( 'NONE',  ( -2.204724409448818978, 0.000000000000000000, 0.6692913385826771977 ) ) ;
#449 = DIRECTION ( 'NONE',  ( 0.000000000000000000, 1.000000000000000000, 0.000000000000000000 ) ) ;
#450 = COORDINATED_UNIVERSAL_TIME_OFFSET ( 1, 0, .AHEAD. ) ;
#451 = EDGE_CURVE ( 'NONE', #86, #453, #88, .T. ) ;
#452 = VERTEX_POINT ( 'NONE', #472 ) ;
#453 = VERTEX_POINT ( 'NONE', #103 ) ;
#454 = FACE_OUTER_BOUND ( 'NONE', #470, .T. ) ;
#455 = PLANE ( 'NONE',  #45 ) ;
#456 = VECTOR ( 'NONE', #372, 39.37007874015748143 ) ;
#457 = CARTESIAN_POINT ( 'NONE',  ( -0.8661417322834645827, 0.000000000000000000, 0.000000000000000000 ) ) ;
#458 = EDGE_CURVE ( 'NONE', #258, #198, #267, .T. ) ;
#459 = EDGE_LOOP ( 'NONE', ( #440, #510, #311, #462 ) ) ;
#460 = FACE_OUTER_BOUND ( 'NONE', #252, .T. ) ;
#461 = CARTESIAN_POINT ( 'NONE',  ( -2.204724409448818978, 0.3937007874015748254, -0.6692913385826771977 ) ) ;
#462 = ORIENTED_EDGE ( 'NONE', *, *, #187, .T. ) ;
#463 = CARTESIAN_POINT ( 'NONE',  ( -0.8661417322834645827, 0.000000000000000000, 0.000000000000000000 ) ) ;
#464 = CIRCLE ( 'NONE', #233, 0.1673228346456692439 ) ;
#465 = DATE_AND_TIME ( #52, #69 ) ;
#466 = CARTESIAN_POINT ( 'NONE',  ( 0.8661417322834645827, 0.3937007874015748254, 0.000000000000000000 ) ) ;
#467 = AXIS2_PLACEMENT_3D ( 'NONE', #210, #93, #374 ) ;
#468 = CARTESIAN_POINT ( 'NONE',  ( 1.653543307086614345, 0.000000000000000000, 0.000000000000000000 ) ) ;
#469 = APPROVAL_PERSON_ORGANIZATION ( #335, #224, #54 ) ;
#470 = EDGE_LOOP ( 'NONE', ( #410, #213, #234, #425 ) ) ;
#471 = DIRECTION ( 'NONE',  ( -0.000000000000000000, -1.000000000000000000, -0.000000000000000000 ) ) ;
#472 = CARTESIAN_POINT ( 'NONE',  ( 1.653543307086614345, 0.000000000000000000, -0.1673228346456692439 ) ) ;
#473 = CARTESIAN_POINT ( 'NONE',  ( -1.653543307086614345, 0.3937007874015748254, 0.000000000000000000 ) ) ;
#474 = ADVANCED_FACE ( 'NONE', ( #385 ), #56, .F. ) ;
#475 = APPROVAL_ROLE ( '' ) ;
#476 = CARTESIAN_POINT ( 'NONE',  ( 2.204724409448818978, 0.3937007874015748254, 0.6692913385826771977 ) ) ;
#477 = VERTEX_POINT ( 'NONE', #178 ) ;
#478 = EDGE_CURVE ( 'NONE', #416, #452, #101, .T. ) ;
#479 = DIRECTION ( 'NONE',  ( 0.000000000000000000, 0.000000000000000000, 1.000000000000000000 ) ) ;
#480 = ORIENTED_EDGE ( 'NONE', *, *, #324, .F. ) ;
#481 = VECTOR ( 'NONE', #263, 39.37007874015748143 ) ;
#482 = LINE ( 'NONE', #491, #347 ) ;
#483 = PERSON_AND_ORGANIZATION ( #490, #262 ) ;
#484 = ORIENTED_EDGE ( 'NONE', *, *, #451, .T. ) ;
#485 = CIRCLE ( 'NONE', #278, 0.1673228346456692439 ) ;
#486 =( GEOMETRIC_REPRESENTATION_CONTEXT ( 3 ) GLOBAL_UNCERTAINTY_ASSIGNED_CONTEXT ( ( #337 ) ) GLOBAL_UNIT_ASSIGNED_CONTEXT ( ( #434, #370, #236 ) ) REPRESENTATION_CONTEXT ( 'NONE', 'WORKASPACE' ) );
#487 = CARTESIAN_POINT ( 'NONE',  ( 0.000000000000000000, 0.000000000000000000, 0.000000000000000000 ) ) ;
#488 = CC_DESIGN_SECURITY_CLASSIFICATION ( #393, ( #306 ) ) ;
#489 = VERTEX_POINT ( 'NONE', #341 ) ;
#490 = PERSON ( 'UNSPECIFIED', 'UNSPECIFIED', 'UNSPECIFIED', ('UNSPECIFIED'), ('UNSPECIFIED'), ('UNSPECIFIED') ) ;
#491 = CARTESIAN_POINT ( 'NONE',  ( -2.204724409448818978, 0.000000000000000000, 0.6692913385826771977 ) ) ;
#492 = CARTESIAN_POINT ( 'NONE',  ( 2.204724409448818978, 0.000000000000000000, 0.6692913385826771977 ) ) ;
#493 = AXIS2_PLACEMENT_3D ( 'NONE', #118, #386, #113 ) ;
#494 = CARTESIAN_POINT ( 'NONE',  ( 1.653543307086614345, 0.3937007874015748254, 0.1673228346456692439 ) ) ;
#495 = EDGE_LOOP ( 'NONE', ( #177, #241, #191, #228 ) ) ;
#496 = DIRECTION ( 'NONE',  ( 0.000000000000000000, 1.000000000000000000, 0.000000000000000000 ) ) ;
#497 = CALENDAR_DATE ( 2026, 10, 8 ) ;
#498 = CARTESIAN_POINT ( 'NONE',  ( 1.653543307086614345, 0.000000000000000000, 0.1673228346456692439 ) ) ;
#499 = VECTOR ( 'NONE', #291, 39.37007874015748143 ) ;
#500 = CARTESIAN_POINT ( 'NONE',  ( 2.204724409448818978, 0.3937007874015748254, 0.6692913385826771977 ) ) ;
#501 = CC_DESIGN_PERSON_AND_ORGANIZATION_ASSIGNMENT ( #200, #526, ( #307 ) ) ;
#502 = EDGE_LOOP ( 'NONE', ( #132, #193, #125, #32 ) ) ;
#503 = VERTEX_POINT ( 'NONE', #513 ) ;
#504 = CARTESIAN_POINT ( 'NONE',  ( 1.653543307086614345, 0.000000000000000000, 0.000000000000000000 ) ) ;
#505 = CARTESIAN_POINT ( 'NONE',  ( 0.8661417322834645827, 0.3937007874015748254, 0.1673228346456692439 ) ) ;
#506 = APPLICATION_CONTEXT ( 'configuration controlled 3d designs of mechanical parts and assemblies' ) ;
#507 = DIRECTION ( 'NONE',  ( 0.000000000000000000, 0.000000000000000000, -1.000000000000000000 ) ) ;
#508 = COORDINATED_UNIVERSAL_TIME_OFFSET ( 1, 0, .AHEAD. ) ;
#509 = DIRECTION ( 'NONE',  ( -1.000000000000000000, -0.000000000000000000, -0.000000000000000000 ) ) ;
#510 = ORIENTED_EDGE ( 'NONE', *, *, #458, .F. ) ;
#511 = AXIS2_PLACEMENT_3D ( 'NONE', #82, #246, #159 ) ;
#512 = VECTOR ( 'NONE', #421, 39.37007874015748143 ) ;
#513 = CARTESIAN_POINT ( 'NONE',  ( -1.653543307086614345, 0.000000000000000000, 0.1673228346456692439 ) ) ;
#514 = CIRCLE ( 'NONE', #511, 0.1673228346456692439 ) ;
#515 = CARTESIAN_POINT ( 'NONE',  ( 0.8661417322834645827, 0.3937007874015748254, 0.000000000000000000 ) ) ;
#516 = APPROVAL ( #114, 'UNSPECIFIED' ) ;
#517 = CARTESIAN_POINT ( 'NONE',  ( 1.653543307086614345, 0.3937007874015748254, -0.1673228346456692439 ) ) ;
#518 = EDGE_CURVE ( 'NONE', #399, #334, #345, .T. ) ;
#519 = DATE_TIME_ROLE ( 'classification_date' ) ;
#520 = DIRECTION ( 'NONE',  ( 1.000000000000000000, 0.000000000000000000, 0.000000000000000000 ) ) ;
#521 = EDGE_CURVE ( 'NONE', #453, #86, #237, .T. ) ;
#522 = CARTESIAN_POINT ( 'NONE',  ( -0.8661417322834645827, 0.3937007874015748254, 0.000000000000000000 ) ) ;
#523 = LINE ( 'NONE', #71, #272 ) ;
#524 = VERTEX_POINT ( 'NONE', #448 ) ;
#525 = FACE_BOUND ( 'NONE', #120, .T. ) ;
#526 = PERSON_AND_ORGANIZATION_ROLE ( 'design_owner' ) ;
#527 = EDGE_LOOP ( 'NONE', ( #245, #148 ) ) ;
#528 = FACE_OUTER_BOUND ( 'NONE', #326, .T. ) ;
#529 = VERTEX_POINT ( 'NONE', #492 ) ;
#530 = LINE ( 'NONE', #239, #535 ) ;
#531 = ORIENTED_EDGE ( 'NONE', *, *, #336, .F. ) ;
#532 = DIRECTION ( 'NONE',  ( 0.000000000000000000, -1.000000000000000000, 0.000000000000000000 ) ) ;
#533 = APPROVAL_ROLE ( '' ) ;
#534 = ADVANCED_FACE ( 'NONE', ( #197 ), #442, .F. ) ;
#535 = VECTOR ( 'NONE', #75, 39.37007874015748143 ) ;
#536 = EDGE_LOOP ( 'NONE', ( #283, #361, #446, #531 ) ) ;
ENDSEC;
END-ISO-10303-21;
