ISO-10303-21;
HEADER;
FILE_DESCRIPTION (( 'STEP AP203' ),
    '1' );
FILE_NAME ('21_Battery_Tray.STEP',
    '2026-08-10T00:39:02',
    ( '' ),
    ( '' ),
    'SwSTEP 2.0',
    'SolidWorks 2026',
    '' );
FILE_SCHEMA (( 'CONFIG_CONTROL_DESIGN' ));
ENDSEC;

DATA;
#1 = EDGE_CURVE ( 'NONE', #369, #250, #382, .T. ) ;
#2 = DIRECTION ( 'NONE',  ( 0.000000000000000000, 0.000000000000000000, 1.000000000000000000 ) ) ;
#3 = ADVANCED_FACE ( 'NONE', ( #379 ), #144, .F. ) ;
#4 = ORIENTED_EDGE ( 'NONE', *, *, #340, .F. ) ;
#5 = EDGE_LOOP ( 'NONE', ( #368, #162, #34, #218 ) ) ;
#6 = ORGANIZATION ( 'UNSPECIFIED', 'UNSPECIFIED', '' ) ;
#7 = ORIENTED_EDGE ( 'NONE', *, *, #179, .F. ) ;
#8 = FACE_OUTER_BOUND ( 'NONE', #39, .T. ) ;
#9 = ORIENTED_EDGE ( 'NONE', *, *, #93, .T. ) ;
#10 = AXIS2_PLACEMENT_3D ( 'NONE', #141, #353, #322 ) ;
#11 = EDGE_LOOP ( 'NONE', ( #220, #62, #280, #198 ) ) ;
#12 = PERSON_AND_ORGANIZATION ( #78, #6 ) ;
#13 = CARTESIAN_POINT ( 'NONE',  ( -0.9448818897637796255, 0.1574803149606299191, 0.9547244094488188670 ) ) ;
#14 = PLANE ( 'NONE',  #381 ) ;
#15 = AXIS2_PLACEMENT_3D ( 'NONE', #239, #356, #88 ) ;
#16 = CIRCLE ( 'NONE', #193, 0.06889763779527564858 ) ;
#17 = DIRECTION ( 'NONE',  ( -0.000000000000000000, -1.000000000000000000, -0.000000000000000000 ) ) ;
#18 = EDGE_CURVE ( 'NONE', #105, #336, #285, .T. ) ;
#19 = PERSON_AND_ORGANIZATION ( #78, #6 ) ;
#20 = APPROVAL_PERSON_ORGANIZATION ( #12, #41, #145 ) ;
#21 = DIRECTION ( 'NONE',  ( -1.000000000000000000, -0.000000000000000000, -0.000000000000000000 ) ) ;
#22 = COORDINATED_UNIVERSAL_TIME_OFFSET ( 1, 0, .AHEAD. ) ;
#23 = FACE_OUTER_BOUND ( 'NONE', #122, .T. ) ;
#24 = DIRECTION ( 'NONE',  ( 0.000000000000000000, 0.000000000000000000, -1.000000000000000000 ) ) ;
#25 = LINE ( 'NONE', #210, #370 ) ;
#26 = CC_DESIGN_PERSON_AND_ORGANIZATION_ASSIGNMENT ( #42, #46, ( #56 ) ) ;
#27 = DIRECTION ( 'NONE',  ( 0.000000000000000000, 0.000000000000000000, 1.000000000000000000 ) ) ;
#28 = DIRECTION ( 'NONE',  ( 0.000000000000000000, 0.000000000000000000, -1.000000000000000000 ) ) ;
#29 = AXIS2_PLACEMENT_3D ( 'NONE', #383, #32, #335 ) ;
#30 = ADVANCED_FACE ( 'NONE', ( #201, #81, #77 ), #173, .T. ) ;
#31 = CARTESIAN_POINT ( 'NONE',  ( 0.9448818897637796255, 0.1574803149606299191, 1.092519685039370136 ) ) ;
#32 = DIRECTION ( 'NONE',  ( 0.000000000000000000, 1.000000000000000000, 0.000000000000000000 ) ) ;
#33 = CARTESIAN_POINT ( 'NONE',  ( 0.000000000000000000, 0.000000000000000000, 0.000000000000000000 ) ) ;
#34 = ORIENTED_EDGE ( 'NONE', *, *, #1, .F. ) ;
#35 = CYLINDRICAL_SURFACE ( 'NONE', #288, 0.06889763779527564858 ) ;
#36 = ORIENTED_EDGE ( 'NONE', *, *, #172, .F. ) ;
#37 = CYLINDRICAL_SURFACE ( 'NONE', #66, 0.06889763779527564858 ) ;
#38 = ORIENTED_EDGE ( 'NONE', *, *, #85, .T. ) ;
#39 = EDGE_LOOP ( 'NONE', ( #4, #92, #374, #278 ) ) ;
#40 = VERTEX_POINT ( 'NONE', #13 ) ;
#41 = APPROVAL ( #289, 'UNSPECIFIED' ) ;
#42 = PERSON_AND_ORGANIZATION ( #78, #6 ) ;
#43 = PLANE ( 'NONE',  #10 ) ;
#44 = DIRECTION ( 'NONE',  ( 0.000000000000000000, -1.000000000000000000, 0.000000000000000000 ) ) ;
#45 = VECTOR ( 'NONE', #215, 39.37007874015748143 ) ;
#46 = PERSON_AND_ORGANIZATION_ROLE ( 'design_supplier' ) ;
#47 = DESIGN_CONTEXT ( 'detailed design', #156, 'design' ) ;
#48 = CARTESIAN_POINT ( 'NONE',  ( -0.9448818897637796255, 0.000000000000000000, 1.023622047244094446 ) ) ;
#49 = CALENDAR_DATE ( 2026, 10, 8 ) ;
#50 = FACE_BOUND ( 'NONE', #135, .T. ) ;
#51 = CARTESIAN_POINT ( 'NONE',  ( -1.535433070866141669, 0.1574803149606299191, -1.417322834645669216 ) ) ;
#52 = EDGE_CURVE ( 'NONE', #303, #306, #147, .T. ) ;
#53 = DIRECTION ( 'NONE',  ( -0.000000000000000000, -1.000000000000000000, -0.000000000000000000 ) ) ;
#54 = CC_DESIGN_DATE_AND_TIME_ASSIGNMENT ( #177, #171, ( #388 ) ) ;
#55 = ORIENTED_EDGE ( 'NONE', *, *, #139, .T. ) ;
#56 = PRODUCT_DEFINITION_FORMATION_WITH_SPECIFIED_SOURCE ( 'ANY', '', #247, .NOT_KNOWN. ) ;
#57 = CARTESIAN_POINT ( 'NONE',  ( -1.535433070866141669, 0.000000000000000000, -1.417322834645669216 ) ) ;
#58 = LINE ( 'NONE', #155, #176 ) ;
#59 = PLANE ( 'NONE',  #231 ) ;
#60 = DATE_AND_TIME ( #330, #361 ) ;
#61 = CARTESIAN_POINT ( 'NONE',  ( -0.9448818897637796255, 0.1574803149606299191, 1.092519685039370136 ) ) ;
#62 = ORIENTED_EDGE ( 'NONE', *, *, #1, .T. ) ;
#63 = ADVANCED_FACE ( 'NONE', ( #347, #50, #257 ), #226, .F. ) ;
#64 = MECHANICAL_CONTEXT ( 'NONE', #242, 'mechanical' ) ;
#65 = EDGE_LOOP ( 'NONE', ( #255, #325 ) ) ;
#66 = AXIS2_PLACEMENT_3D ( 'NONE', #272, #94, #130 ) ;
#67 = PERSON_AND_ORGANIZATION ( #78, #6 ) ;
#68 = ORIENTED_EDGE ( 'NONE', *, *, #52, .T. ) ;
#69 = DIRECTION ( 'NONE',  ( 0.000000000000000000, 0.000000000000000000, 1.000000000000000000 ) ) ;
#70 = EDGE_LOOP ( 'NONE', ( #98, #189, #151, #9 ) ) ;
#71 = ORIENTED_EDGE ( 'NONE', *, *, #85, .F. ) ;
#72 = APPROVAL_ROLE ( '' ) ;
#73 = CARTESIAN_POINT ( 'NONE',  ( -1.535433070866141669, 0.000000000000000000, -1.417322834645669216 ) ) ;
#74 = DIRECTION ( 'NONE',  ( 0.000000000000000000, -0.000000000000000000, -1.000000000000000000 ) ) ;
#75 = APPROVAL_DATE_TIME ( #104, #158 ) ;
#76 = CIRCLE ( 'NONE', #111, 0.06889763779527564858 ) ;
#77 = FACE_BOUND ( 'NONE', #65, .T. ) ;
#78 = PERSON ( 'UNSPECIFIED', 'UNSPECIFIED', 'UNSPECIFIED', ('UNSPECIFIED'), ('UNSPECIFIED'), ('UNSPECIFIED') ) ;
#79 = CARTESIAN_POINT ( 'NONE',  ( 0.9448818897637796255, 0.1574803149606299191, 0.9547244094488188670 ) ) ;
#80 = CIRCLE ( 'NONE', #337, 0.06889763779527564858 ) ;
#81 = FACE_OUTER_BOUND ( 'NONE', #160, .T. ) ;
#82 = EDGE_CURVE ( 'NONE', #306, #113, #167, .T. ) ;
#83 = LINE ( 'NONE', #186, #320 ) ;
#84 = FACE_OUTER_BOUND ( 'NONE', #70, .T. ) ;
#85 = EDGE_CURVE ( 'NONE', #248, #131, #76, .T. ) ;
#86 =( GEOMETRIC_REPRESENTATION_CONTEXT ( 3 ) GLOBAL_UNCERTAINTY_ASSIGNED_CONTEXT ( ( #108 ) ) GLOBAL_UNIT_ASSIGNED_CONTEXT ( ( #251, #217, #249 ) ) REPRESENTATION_CONTEXT ( 'NONE', 'WORKASPACE' ) );
#87 = DIRECTION ( 'NONE',  ( 0.000000000000000000, 0.000000000000000000, 1.000000000000000000 ) ) ;
#88 = DIRECTION ( 'NONE',  ( 0.000000000000000000, 0.000000000000000000, 1.000000000000000000 ) ) ;
#89 = VECTOR ( 'NONE', #21, 39.37007874015748143 ) ;
#90 = CARTESIAN_POINT ( 'NONE',  ( 0.9448818897637796255, 0.1574803149606299191, 1.023622047244094446 ) ) ;
#91 = FACE_OUTER_BOUND ( 'NONE', #138, .T. ) ;
#92 = ORIENTED_EDGE ( 'NONE', *, *, #265, .T. ) ;
#93 = EDGE_CURVE ( 'NONE', #283, #105, #349, .T. ) ;
#94 = DIRECTION ( 'NONE',  ( -0.000000000000000000, -1.000000000000000000, -0.000000000000000000 ) ) ;
#95 = APPROVAL ( #282, 'UNSPECIFIED' ) ;
#96 = ORIENTED_EDGE ( 'NONE', *, *, #338, .T. ) ;
#97 = CARTESIAN_POINT ( 'NONE',  ( -0.9448818897637796255, 0.1574803149606299191, 1.023622047244094446 ) ) ;
#98 = ORIENTED_EDGE ( 'NONE', *, *, #18, .T. ) ;
#99 = VECTOR ( 'NONE', #214, 39.37007874015748143 ) ;
#100 = ADVANCED_FACE ( 'NONE', ( #175 ), #14, .F. ) ;
#101 = ORIENTED_EDGE ( 'NONE', *, *, #340, .T. ) ;
#102 = LENGTH_MEASURE_WITH_UNIT ( LENGTH_MEASURE( 0.02539999999999999897 ), #125 );
#103 = ORIENTED_EDGE ( 'NONE', *, *, #82, .F. ) ;
#104 = DATE_AND_TIME ( #49, #277 ) ;
#105 = VERTEX_POINT ( 'NONE', #109 ) ;
#106 = CARTESIAN_POINT ( 'NONE',  ( 0.9448818897637796255, 0.000000000000000000, 1.092519685039370136 ) ) ;
#107 = LOCAL_TIME ( 1, 39, 2.000000000000000000, #136 ) ;
#108 = UNCERTAINTY_MEASURE_WITH_UNIT (LENGTH_MEASURE( 1.000000000000000082E-05 ), #251, 'distance_accuracy_value', 'NONE');
#109 = CARTESIAN_POINT ( 'NONE',  ( 1.535433070866141669, 0.000000000000000000, -1.417322834645669216 ) ) ;
#110 = DIRECTION ( 'NONE',  ( 0.000000000000000000, 1.000000000000000000, 0.000000000000000000 ) ) ;
#111 = AXIS2_PLACEMENT_3D ( 'NONE', #48, #110, #380 ) ;
#112 = ADVANCED_BREP_SHAPE_REPRESENTATION ( '21_Battery_Tray', ( #159, #195 ), #86 ) ;
#113 = VERTEX_POINT ( 'NONE', #106 ) ;
#114 = LINE ( 'NONE', #237, #291 ) ;
#115 = VERTEX_POINT ( 'NONE', #287 ) ;
#116 = DIRECTION ( 'NONE',  ( -0.000000000000000000, -0.000000000000000000, 1.000000000000000000 ) ) ;
#117 = AXIS2_PLACEMENT_3D ( 'NONE', #182, #293, #2 ) ;
#118 = CARTESIAN_POINT ( 'NONE',  ( -0.9448818897637796255, 0.000000000000000000, 0.9547244094488188670 ) ) ;
#119 = CC_DESIGN_SECURITY_CLASSIFICATION ( #388, ( #56 ) ) ;
#120 = DIRECTION ( 'NONE',  ( 1.000000000000000000, 0.000000000000000000, 0.000000000000000000 ) ) ;
#121 = CARTESIAN_POINT ( 'NONE',  ( 0.9448818897637796255, 0.1574803149606299191, 0.9547244094488188670 ) ) ;
#122 = EDGE_LOOP ( 'NONE', ( #55, #245, #166, #206 ) ) ;
#123 = EDGE_CURVE ( 'NONE', #223, #113, #316, .T. ) ;
#124 = CC_DESIGN_PERSON_AND_ORGANIZATION_ASSIGNMENT ( #194, #187, ( #304 ) ) ;
#125 =( LENGTH_UNIT ( ) NAMED_UNIT ( * ) SI_UNIT ( $, .METRE. ) );
#126 = ORIENTED_EDGE ( 'NONE', *, *, #179, .T. ) ;
#127 = LINE ( 'NONE', #254, #359 ) ;
#128 = ORIENTED_EDGE ( 'NONE', *, *, #266, .F. ) ;
#129 = ADVANCED_FACE ( 'NONE', ( #290 ), #43, .F. ) ;
#130 = DIRECTION ( 'NONE',  ( 0.000000000000000000, 0.000000000000000000, -1.000000000000000000 ) ) ;
#131 = VERTEX_POINT ( 'NONE', #292 ) ;
#132 = ADVANCED_FACE ( 'NONE', ( #23 ), #59, .F. ) ;
#133 = CIRCLE ( 'NONE', #219, 0.06889763779527564858 ) ;
#134 = PERSON_AND_ORGANIZATION ( #78, #6 ) ;
#135 = EDGE_LOOP ( 'NONE', ( #128, #309 ) ) ;
#136 = COORDINATED_UNIVERSAL_TIME_OFFSET ( 1, 0, .AHEAD. ) ;
#137 = DIRECTION ( 'NONE',  ( -0.000000000000000000, -1.000000000000000000, -0.000000000000000000 ) ) ;
#138 = EDGE_LOOP ( 'NONE', ( #317, #126, #68, #372 ) ) ;
#139 = EDGE_CURVE ( 'NONE', #336, #115, #114, .T. ) ;
#140 = VECTOR ( 'NONE', #168, 39.37007874015748143 ) ;
#141 = CARTESIAN_POINT ( 'NONE',  ( 1.535433070866141669, 0.1574803149606299191, 1.417322834645669216 ) ) ;
#142 = CC_DESIGN_APPROVAL ( #158, ( #56 ) ) ;
#143 = CALENDAR_DATE ( 2026, 10, 8 ) ;
#144 = CYLINDRICAL_SURFACE ( 'NONE', #204, 0.06889763779527564858 ) ;
#145 = APPROVAL_ROLE ( '' ) ;
#146 = AXIS2_PLACEMENT_3D ( 'NONE', #351, #319, #376 ) ;
#147 = LINE ( 'NONE', #79, #262 ) ;
#148 = VECTOR ( 'NONE', #232, 39.37007874015748143 ) ;
#149 = CARTESIAN_POINT ( 'NONE',  ( -1.535433070866141669, 0.1574803149606299191, -1.417322834645669216 ) ) ;
#150 = CARTESIAN_POINT ( 'NONE',  ( -0.9448818897637796255, 0.1574803149606299191, 1.092519685039370136 ) ) ;
#151 = ORIENTED_EDGE ( 'NONE', *, *, #276, .F. ) ;
#152 = DIRECTION ( 'NONE',  ( 1.000000000000000000, -0.000000000000000000, 0.000000000000000000 ) ) ;
#153 = CIRCLE ( 'NONE', #117, 0.06889763779527564858 ) ;
#154 = CARTESIAN_POINT ( 'NONE',  ( -1.535433070866141669, 0.1574803149606299191, 1.417322834645669216 ) ) ;
#155 = CARTESIAN_POINT ( 'NONE',  ( -0.9448818897637796255, 0.1574803149606299191, 0.9547244094488188670 ) ) ;
#156 = APPLICATION_CONTEXT ( 'configuration controlled 3d designs of mechanical parts and assemblies' ) ;
#157 = DIRECTION ( 'NONE',  ( 0.000000000000000000, 0.000000000000000000, -1.000000000000000000 ) ) ;
#158 = APPROVAL ( #375, 'UNSPECIFIED' ) ;
#159 = MANIFOLD_SOLID_BREP ( 'Tray_Base_Extrude', #297 ) ;
#160 = EDGE_LOOP ( 'NONE', ( #258, #357, #345, #36 ) ) ;
#161 = LOCAL_TIME ( 1, 39, 2.000000000000000000, #22 ) ;
#162 = ORIENTED_EDGE ( 'NONE', *, *, #354, .F. ) ;
#163 = ADVANCED_FACE ( 'NONE', ( #360 ), #243, .F. ) ;
#164 = EDGE_CURVE ( 'NONE', #113, #306, #16, .T. ) ;
#165 = DIRECTION ( 'NONE',  ( -0.000000000000000000, -1.000000000000000000, -0.000000000000000000 ) ) ;
#166 = ORIENTED_EDGE ( 'NONE', *, *, #235, .F. ) ;
#167 = CIRCLE ( 'NONE', #146, 0.06889763779527564858 ) ;
#168 = DIRECTION ( 'NONE',  ( -0.000000000000000000, -1.000000000000000000, -0.000000000000000000 ) ) ;
#169 = ORIENTED_EDGE ( 'NONE', *, *, #211, .F. ) ;
#170 = VERTEX_POINT ( 'NONE', #270 ) ;
#171 = DATE_TIME_ROLE ( 'classification_date' ) ;
#172 = EDGE_CURVE ( 'NONE', #115, #170, #363, .T. ) ;
#173 = PLANE ( 'NONE',  #328 ) ;
#174 = CC_DESIGN_PERSON_AND_ORGANIZATION_ASSIGNMENT ( #318, #205, ( #56 ) ) ;
#175 = FACE_OUTER_BOUND ( 'NONE', #5, .T. ) ;
#176 = VECTOR ( 'NONE', #53, 39.37007874015748143 ) ;
#177 = DATE_AND_TIME ( #200, #161 ) ;
#178 = CARTESIAN_POINT ( 'NONE',  ( -1.535433070866141669, 0.1574803149606299191, 1.417322834645669216 ) ) ;
#179 = EDGE_CURVE ( 'NONE', #223, #303, #80, .T. ) ;
#180 = DATE_AND_TIME ( #143, #107 ) ;
#181 = CARTESIAN_POINT ( 'NONE',  ( 0.000000000000000000, 0.1574803149606299191, 0.000000000000000000 ) ) ;
#182 = CARTESIAN_POINT ( 'NONE',  ( -0.9448818897637796255, 0.1574803149606299191, 1.023622047244094446 ) ) ;
#183 = CARTESIAN_POINT ( 'NONE',  ( -0.9448818897637796255, 0.1574803149606299191, 1.023622047244094446 ) ) ;
#184 = DIRECTION ( 'NONE',  ( 0.000000000000000000, 1.000000000000000000, 0.000000000000000000 ) ) ;
#185 = CARTESIAN_POINT ( 'NONE',  ( -1.535433070866141669, 0.1574803149606299191, -1.417322834645669216 ) ) ;
#186 = CARTESIAN_POINT ( 'NONE',  ( 1.535433070866141669, 0.1574803149606299191, 1.417322834645669216 ) ) ;
#187 = PERSON_AND_ORGANIZATION_ROLE ( 'creator' ) ;
#188 = LINE ( 'NONE', #274, #140 ) ;
#189 = ORIENTED_EDGE ( 'NONE', *, *, #236, .F. ) ;
#190 = PERSON_AND_ORGANIZATION_ROLE ( 'design_owner' ) ;
#191 = VECTOR ( 'NONE', #387, 39.37007874015748143 ) ;
#192 = EDGE_LOOP ( 'NONE', ( #196, #221, #197, #339 ) ) ;
#193 = AXIS2_PLACEMENT_3D ( 'NONE', #327, #384, #264 ) ;
#194 = PERSON_AND_ORGANIZATION ( #78, #6 ) ;
#195 = AXIS2_PLACEMENT_3D ( 'NONE', #33, #69, #308 ) ;
#196 = ORIENTED_EDGE ( 'NONE', *, *, #333, .T. ) ;
#197 = ORIENTED_EDGE ( 'NONE', *, *, #331, .F. ) ;
#198 = ORIENTED_EDGE ( 'NONE', *, *, #276, .T. ) ;
#199 = VECTOR ( 'NONE', #17, 39.37007874015748143 ) ;
#200 = CALENDAR_DATE ( 2026, 10, 8 ) ;
#201 = FACE_BOUND ( 'NONE', #311, .T. ) ;
#202 = CC_DESIGN_PERSON_AND_ORGANIZATION_ASSIGNMENT ( #67, #190, ( #247 ) ) ;
#203 = ORIENTED_EDGE ( 'NONE', *, *, #266, .T. ) ;
#204 = AXIS2_PLACEMENT_3D ( 'NONE', #263, #378, #229 ) ;
#205 = PERSON_AND_ORGANIZATION_ROLE ( 'creator' ) ;
#206 = ORIENTED_EDGE ( 'NONE', *, *, #236, .T. ) ;
#207 = CIRCLE ( 'NONE', #15, 0.06889763779527564858 ) ;
#208 = CARTESIAN_POINT ( 'NONE',  ( 1.535433070866141669, 0.1574803149606299191, -1.417322834645669216 ) ) ;
#209 = DIRECTION ( 'NONE',  ( 1.000000000000000000, 0.000000000000000000, 0.000000000000000000 ) ) ;
#210 = CARTESIAN_POINT ( 'NONE',  ( 1.535433070866141669, 0.000000000000000000, 1.417322834645669216 ) ) ;
#211 = EDGE_CURVE ( 'NONE', #303, #223, #133, .T. ) ;
#212 = CARTESIAN_POINT ( 'NONE',  ( -1.535433070866141669, 0.1574803149606299191, -1.417322834645669216 ) ) ;
#213 = DIRECTION ( 'NONE',  ( 0.000000000000000000, 0.000000000000000000, -1.000000000000000000 ) ) ;
#214 = DIRECTION ( 'NONE',  ( -1.000000000000000000, -0.000000000000000000, -0.000000000000000000 ) ) ;
#215 = DIRECTION ( 'NONE',  ( -0.000000000000000000, -0.000000000000000000, 1.000000000000000000 ) ) ;
#216 = ORIENTED_EDGE ( 'NONE', *, *, #211, .T. ) ;
#217 =( NAMED_UNIT ( * ) PLANE_ANGLE_UNIT ( ) SI_UNIT ( $, .RADIAN. ) );
#218 = ORIENTED_EDGE ( 'NONE', *, *, #348, .T. ) ;
#219 = AXIS2_PLACEMENT_3D ( 'NONE', #233, #241, #324 ) ;
#220 = ORIENTED_EDGE ( 'NONE', *, *, #235, .T. ) ;
#221 = ORIENTED_EDGE ( 'NONE', *, *, #93, .F. ) ;
#222 = VECTOR ( 'NONE', #120, 39.37007874015748143 ) ;
#223 = VERTEX_POINT ( 'NONE', #31 ) ;
#224 = SECURITY_CLASSIFICATION_LEVEL ( 'unclassified' ) ;
#225 = DIRECTION ( 'NONE',  ( 0.000000000000000000, 0.000000000000000000, -1.000000000000000000 ) ) ;
#226 = PLANE ( 'NONE',  #312 ) ;
#227 = LOCAL_TIME ( 1, 39, 2.000000000000000000, #300 ) ;
#228 = EDGE_CURVE ( 'NONE', #40, #248, #58, .T. ) ;
#229 = DIRECTION ( 'NONE',  ( 0.000000000000000000, 0.000000000000000000, -1.000000000000000000 ) ) ;
#230 = DIRECTION ( 'NONE',  ( -1.000000000000000000, 0.000000000000000000, -0.000000000000000000 ) ) ;
#231 = AXIS2_PLACEMENT_3D ( 'NONE', #326, #152, #28 ) ;
#232 = DIRECTION ( 'NONE',  ( -0.000000000000000000, -1.000000000000000000, -0.000000000000000000 ) ) ;
#233 = CARTESIAN_POINT ( 'NONE',  ( 0.9448818897637796255, 0.1574803149606299191, 1.023622047244094446 ) ) ;
#234 = EDGE_LOOP ( 'NONE', ( #203, #101, #71, #343 ) ) ;
#235 = EDGE_CURVE ( 'NONE', #334, #369, #358, .T. ) ;
#236 = EDGE_CURVE ( 'NONE', #334, #336, #268, .T. ) ;
#237 = CARTESIAN_POINT ( 'NONE',  ( -1.535433070866141669, 0.000000000000000000, 1.417322834645669216 ) ) ;
#238 = CIRCLE ( 'NONE', #29, 0.06889763779527564858 ) ;
#239 = CARTESIAN_POINT ( 'NONE',  ( -0.9448818897637796255, 0.1574803149606299191, 1.023622047244094446 ) ) ;
#240 = CC_DESIGN_APPROVAL ( #41, ( #388 ) ) ;
#241 = DIRECTION ( 'NONE',  ( 0.000000000000000000, 1.000000000000000000, 0.000000000000000000 ) ) ;
#242 = APPLICATION_CONTEXT ( 'configuration controlled 3d designs of mechanical parts and assemblies' ) ;
#243 = CYLINDRICAL_SURFACE ( 'NONE', #321, 0.06889763779527564858 ) ;
#244 = PRODUCT_DEFINITION_SHAPE ( 'NONE', 'NONE',  #304 ) ;
#245 = ORIENTED_EDGE ( 'NONE', *, *, #348, .F. ) ;
#246 = APPLICATION_PROTOCOL_DEFINITION ( 'international standard', 'config_control_design', 1994, #156 ) ;
#247 = PRODUCT ( '21_Battery_Tray', '21_Battery_Tray', '', ( #64 ) ) ;
#248 = VERTEX_POINT ( 'NONE', #118 ) ;
#249 =( NAMED_UNIT ( * ) SI_UNIT ( $, .STERADIAN. ) SOLID_ANGLE_UNIT ( ) );
#250 = VERTEX_POINT ( 'NONE', #362 ) ;
#251 =( CONVERSION_BASED_UNIT ( 'INCH', #102 ) LENGTH_UNIT ( ) NAMED_UNIT ( #352 ) );
#252 = VECTOR ( 'NONE', #165, 39.37007874015748143 ) ;
#253 = VERTEX_POINT ( 'NONE', #150 ) ;
#254 = CARTESIAN_POINT ( 'NONE',  ( 1.535433070866141669, 0.1574803149606299191, 1.417322834645669216 ) ) ;
#255 = ORIENTED_EDGE ( 'NONE', *, *, #82, .T. ) ;
#256 = SHAPE_DEFINITION_REPRESENTATION ( #244, #112 ) ;
#257 = FACE_BOUND ( 'NONE', #314, .T. ) ;
#258 = ORIENTED_EDGE ( 'NONE', *, *, #139, .F. ) ;
#259 = CARTESIAN_POINT ( 'NONE',  ( 0.9448818897637796255, 0.1574803149606299191, 1.092519685039370136 ) ) ;
#260 = APPROVAL_PERSON_ORGANIZATION ( #344, #158, #72 ) ;
#261 = CARTESIAN_POINT ( 'NONE',  ( 0.000000000000000000, 0.000000000000000000, 0.000000000000000000 ) ) ;
#262 = VECTOR ( 'NONE', #137, 39.37007874015748143 ) ;
#263 = CARTESIAN_POINT ( 'NONE',  ( 0.9448818897637796255, 0.1574803149606299191, 1.023622047244094446 ) ) ;
#264 = DIRECTION ( 'NONE',  ( 0.000000000000000000, 0.000000000000000000, 1.000000000000000000 ) ) ;
#265 = EDGE_CURVE ( 'NONE', #253, #40, #153, .T. ) ;
#266 = EDGE_CURVE ( 'NONE', #40, #253, #207, .T. ) ;
#267 = DIRECTION ( 'NONE',  ( -0.000000000000000000, -1.000000000000000000, -0.000000000000000000 ) ) ;
#268 = LINE ( 'NONE', #51, #191 ) ;
#269 = AXIS2_PLACEMENT_3D ( 'NONE', #212, #27, #296 ) ;
#270 = CARTESIAN_POINT ( 'NONE',  ( 1.535433070866141669, 0.000000000000000000, 1.417322834645669216 ) ) ;
#271 = LINE ( 'NONE', #185, #99 ) ;
#272 = CARTESIAN_POINT ( 'NONE',  ( 0.9448818897637796255, 0.1574803149606299191, 1.023622047244094446 ) ) ;
#273 = ORIENTED_EDGE ( 'NONE', *, *, #123, .T. ) ;
#274 = CARTESIAN_POINT ( 'NONE',  ( -1.535433070866141669, 0.1574803149606299191, 1.417322834645669216 ) ) ;
#275 = ORIENTED_EDGE ( 'NONE', *, *, #52, .F. ) ;
#276 = EDGE_CURVE ( 'NONE', #283, #334, #271, .T. ) ;
#277 = LOCAL_TIME ( 1, 39, 2.000000000000000000, #286 ) ;
#278 = ORIENTED_EDGE ( 'NONE', *, *, #338, .F. ) ;
#279 = DIRECTION ( 'NONE',  ( -0.000000000000000000, -1.000000000000000000, -0.000000000000000000 ) ) ;
#280 = ORIENTED_EDGE ( 'NONE', *, *, #331, .T. ) ;
#281 = VECTOR ( 'NONE', #209, 39.37007874015748143 ) ;
#282 = APPROVAL_STATUS ( 'not_yet_approved' ) ;
#283 = VERTEX_POINT ( 'NONE', #295 ) ;
#284 = DIRECTION ( 'NONE',  ( 0.000000000000000000, -0.000000000000000000, -1.000000000000000000 ) ) ;
#285 = LINE ( 'NONE', #73, #89 ) ;
#286 = COORDINATED_UNIVERSAL_TIME_OFFSET ( 1, 0, .AHEAD. ) ;
#287 = CARTESIAN_POINT ( 'NONE',  ( -1.535433070866141669, 0.000000000000000000, 1.417322834645669216 ) ) ;
#288 = AXIS2_PLACEMENT_3D ( 'NONE', #97, #371, #157 ) ;
#289 = APPROVAL_STATUS ( 'not_yet_approved' ) ;
#290 = FACE_OUTER_BOUND ( 'NONE', #192, .T. ) ;
#291 = VECTOR ( 'NONE', #116, 39.37007874015748143 ) ;
#292 = CARTESIAN_POINT ( 'NONE',  ( -0.9448818897637796255, 0.000000000000000000, 1.092519685039370136 ) ) ;
#293 = DIRECTION ( 'NONE',  ( 0.000000000000000000, 1.000000000000000000, 0.000000000000000000 ) ) ;
#294 = CC_DESIGN_DATE_AND_TIME_ASSIGNMENT ( #305, #346, ( #304 ) ) ;
#295 = CARTESIAN_POINT ( 'NONE',  ( 1.535433070866141669, 0.1574803149606299191, -1.417322834645669216 ) ) ;
#296 = DIRECTION ( 'NONE',  ( 1.000000000000000000, 0.000000000000000000, -0.000000000000000000 ) ) ;
#297 = CLOSED_SHELL ( 'NONE', ( #3, #163, #63, #30, #132, #100, #129, #301, #377, #385 ) ) ;
#298 = PLANE ( 'NONE',  #269 ) ;
#299 = DIRECTION ( 'NONE',  ( 0.000000000000000000, 0.000000000000000000, -1.000000000000000000 ) ) ;
#300 = COORDINATED_UNIVERSAL_TIME_OFFSET ( 1, 0, .AHEAD. ) ;
#301 = ADVANCED_FACE ( 'NONE', ( #84 ), #298, .F. ) ;
#302 = CARTESIAN_POINT ( 'NONE',  ( -1.535433070866141669, 0.1574803149606299191, 1.417322834645669216 ) ) ;
#303 = VERTEX_POINT ( 'NONE', #121 ) ;
#304 = PRODUCT_DEFINITION ( 'UNKNOWN', '', #56, #47 ) ;
#305 = DATE_AND_TIME ( #367, #227 ) ;
#306 = VERTEX_POINT ( 'NONE', #329 ) ;
#307 = APPROVAL_PERSON_ORGANIZATION ( #134, #95, #373 ) ;
#308 = DIRECTION ( 'NONE',  ( 1.000000000000000000, 0.000000000000000000, 0.000000000000000000 ) ) ;
#309 = ORIENTED_EDGE ( 'NONE', *, *, #265, .F. ) ;
#310 = APPLICATION_PROTOCOL_DEFINITION ( 'international standard', 'config_control_design', 1994, #242 ) ;
#311 = EDGE_LOOP ( 'NONE', ( #38, #96 ) ) ;
#312 = AXIS2_PLACEMENT_3D ( 'NONE', #181, #44, #74 ) ;
#313 = PERSON_AND_ORGANIZATION_ROLE ( 'classification_officer' ) ;
#314 = EDGE_LOOP ( 'NONE', ( #169, #7 ) ) ;
#315 = APPROVAL_DATE_TIME ( #180, #41 ) ;
#316 = LINE ( 'NONE', #259, #199 ) ;
#317 = ORIENTED_EDGE ( 'NONE', *, *, #123, .F. ) ;
#318 = PERSON_AND_ORGANIZATION ( #78, #6 ) ;
#319 = DIRECTION ( 'NONE',  ( 0.000000000000000000, 1.000000000000000000, 0.000000000000000000 ) ) ;
#320 = VECTOR ( 'NONE', #24, 39.37007874015748143 ) ;
#321 = AXIS2_PLACEMENT_3D ( 'NONE', #183, #267, #213 ) ;
#322 = DIRECTION ( 'NONE',  ( 0.000000000000000000, 0.000000000000000000, 1.000000000000000000 ) ) ;
#323 = DIRECTION ( 'NONE',  ( 0.000000000000000000, -1.000000000000000000, 0.000000000000000000 ) ) ;
#324 = DIRECTION ( 'NONE',  ( 0.000000000000000000, 0.000000000000000000, 1.000000000000000000 ) ) ;
#325 = ORIENTED_EDGE ( 'NONE', *, *, #164, .T. ) ;
#326 = CARTESIAN_POINT ( 'NONE',  ( -1.535433070866141669, 0.1574803149606299191, 1.417322834645669216 ) ) ;
#327 = CARTESIAN_POINT ( 'NONE',  ( 0.9448818897637796255, 0.000000000000000000, 1.023622047244094446 ) ) ;
#328 = AXIS2_PLACEMENT_3D ( 'NONE', #261, #323, #284 ) ;
#329 = CARTESIAN_POINT ( 'NONE',  ( 0.9448818897637796255, 0.000000000000000000, 0.9547244094488188670 ) ) ;
#330 = CALENDAR_DATE ( 2026, 10, 8 ) ;
#331 = EDGE_CURVE ( 'NONE', #250, #283, #83, .T. ) ;
#332 = COORDINATED_UNIVERSAL_TIME_OFFSET ( 1, 0, .AHEAD. ) ;
#333 = EDGE_CURVE ( 'NONE', #170, #105, #25, .T. ) ;
#334 = VERTEX_POINT ( 'NONE', #149 ) ;
#335 = DIRECTION ( 'NONE',  ( 0.000000000000000000, 0.000000000000000000, 1.000000000000000000 ) ) ;
#336 = VERTEX_POINT ( 'NONE', #57 ) ;
#337 = AXIS2_PLACEMENT_3D ( 'NONE', #90, #184, #87 ) ;
#338 = EDGE_CURVE ( 'NONE', #131, #248, #238, .T. ) ;
#339 = ORIENTED_EDGE ( 'NONE', *, *, #354, .T. ) ;
#340 = EDGE_CURVE ( 'NONE', #253, #131, #342, .T. ) ;
#341 = CC_DESIGN_APPROVAL ( #95, ( #304 ) ) ;
#342 = LINE ( 'NONE', #61, #252 ) ;
#343 = ORIENTED_EDGE ( 'NONE', *, *, #228, .F. ) ;
#344 = PERSON_AND_ORGANIZATION ( #78, #6 ) ;
#345 = ORIENTED_EDGE ( 'NONE', *, *, #333, .F. ) ;
#346 = DATE_TIME_ROLE ( 'creation_date' ) ;
#347 = FACE_OUTER_BOUND ( 'NONE', #11, .T. ) ;
#348 = EDGE_CURVE ( 'NONE', #369, #115, #188, .T. ) ;
#349 = LINE ( 'NONE', #208, #148 ) ;
#350 = CC_DESIGN_PERSON_AND_ORGANIZATION_ASSIGNMENT ( #19, #313, ( #388 ) ) ;
#351 = CARTESIAN_POINT ( 'NONE',  ( 0.9448818897637796255, 0.000000000000000000, 1.023622047244094446 ) ) ;
#352 = DIMENSIONAL_EXPONENTS ( 1.000000000000000000, 0.000000000000000000, 0.000000000000000000, 0.000000000000000000, 0.000000000000000000, 0.000000000000000000, 0.000000000000000000 ) ;
#353 = DIRECTION ( 'NONE',  ( -1.000000000000000000, 0.000000000000000000, 0.000000000000000000 ) ) ;
#354 = EDGE_CURVE ( 'NONE', #250, #170, #127, .T. ) ;
#355 = CARTESIAN_POINT ( 'NONE',  ( -1.535433070866141669, 0.1574803149606299191, 1.417322834645669216 ) ) ;
#356 = DIRECTION ( 'NONE',  ( 0.000000000000000000, 1.000000000000000000, 0.000000000000000000 ) ) ;
#357 = ORIENTED_EDGE ( 'NONE', *, *, #18, .F. ) ;
#358 = LINE ( 'NONE', #154, #45 ) ;
#359 = VECTOR ( 'NONE', #279, 39.37007874015748143 ) ;
#360 = FACE_OUTER_BOUND ( 'NONE', #234, .T. ) ;
#361 = LOCAL_TIME ( 1, 39, 2.000000000000000000, #332 ) ;
#362 = CARTESIAN_POINT ( 'NONE',  ( 1.535433070866141669, 0.1574803149606299191, 1.417322834645669216 ) ) ;
#363 = LINE ( 'NONE', #386, #222 ) ;
#364 = PRODUCT_RELATED_PRODUCT_CATEGORY ( 'detail', '', ( #247 ) ) ;
#365 = APPROVAL_DATE_TIME ( #60, #95 ) ;
#366 = EDGE_LOOP ( 'NONE', ( #216, #273, #103, #275 ) ) ;
#367 = CALENDAR_DATE ( 2026, 10, 8 ) ;
#368 = ORIENTED_EDGE ( 'NONE', *, *, #172, .T. ) ;
#369 = VERTEX_POINT ( 'NONE', #302 ) ;
#370 = VECTOR ( 'NONE', #299, 39.37007874015748143 ) ;
#371 = DIRECTION ( 'NONE',  ( -0.000000000000000000, -1.000000000000000000, -0.000000000000000000 ) ) ;
#372 = ORIENTED_EDGE ( 'NONE', *, *, #164, .F. ) ;
#373 = APPROVAL_ROLE ( '' ) ;
#374 = ORIENTED_EDGE ( 'NONE', *, *, #228, .T. ) ;
#375 = APPROVAL_STATUS ( 'not_yet_approved' ) ;
#376 = DIRECTION ( 'NONE',  ( 0.000000000000000000, 0.000000000000000000, 1.000000000000000000 ) ) ;
#377 = ADVANCED_FACE ( 'NONE', ( #8 ), #35, .F. ) ;
#378 = DIRECTION ( 'NONE',  ( -0.000000000000000000, -1.000000000000000000, -0.000000000000000000 ) ) ;
#379 = FACE_OUTER_BOUND ( 'NONE', #366, .T. ) ;
#380 = DIRECTION ( 'NONE',  ( 0.000000000000000000, 0.000000000000000000, 1.000000000000000000 ) ) ;
#381 = AXIS2_PLACEMENT_3D ( 'NONE', #178, #225, #230 ) ;
#382 = LINE ( 'NONE', #355, #281 ) ;
#383 = CARTESIAN_POINT ( 'NONE',  ( -0.9448818897637796255, 0.000000000000000000, 1.023622047244094446 ) ) ;
#384 = DIRECTION ( 'NONE',  ( 0.000000000000000000, 1.000000000000000000, 0.000000000000000000 ) ) ;
#385 = ADVANCED_FACE ( 'NONE', ( #91 ), #37, .F. ) ;
#386 = CARTESIAN_POINT ( 'NONE',  ( -1.535433070866141669, 0.000000000000000000, 1.417322834645669216 ) ) ;
#387 = DIRECTION ( 'NONE',  ( -0.000000000000000000, -1.000000000000000000, -0.000000000000000000 ) ) ;
#388 = SECURITY_CLASSIFICATION ( '', '', #224 ) ;
ENDSEC;
END-ISO-10303-21;
