ISO-10303-21;
HEADER;
FILE_DESCRIPTION (( 'STEP AP203' ),
    '1' );
FILE_NAME ('22_TTGO_Tray.STEP',
    '2026-08-10T00:39:04',
    ( '' ),
    ( '' ),
    'SwSTEP 2.0',
    'SolidWorks 2026',
    '' );
FILE_SCHEMA (( 'CONFIG_CONTROL_DESIGN' ));
ENDSEC;

DATA;
#1 = ADVANCED_FACE ( 'NONE', ( #10 ), #259, .F. ) ;
#2 = EDGE_LOOP ( 'NONE', ( #103, #37, #35, #283 ) ) ;
#3 = ORIENTED_EDGE ( 'NONE', *, *, #190, .T. ) ;
#4 = VERTEX_POINT ( 'NONE', #346 ) ;
#5 = CIRCLE ( 'NONE', #173, 0.06299212598425185661 ) ;
#6 = EDGE_LOOP ( 'NONE', ( #3, #317, #189, #332 ) ) ;
#7 = ORIENTED_EDGE ( 'NONE', *, *, #334, .T. ) ;
#8 = LINE ( 'NONE', #133, #204 ) ;
#9 = AXIS2_PLACEMENT_3D ( 'NONE', #177, #302, #206 ) ;
#10 = FACE_OUTER_BOUND ( 'NONE', #281, .T. ) ;
#11 = CARTESIAN_POINT ( 'NONE',  ( -2.047244094488188892, 0.1574803149606299191, 0.9842519685039370358 ) ) ;
#12 = FACE_OUTER_BOUND ( 'NONE', #6, .T. ) ;
#13 = EDGE_CURVE ( 'NONE', #218, #102, #265, .T. ) ;
#14 = AXIS2_PLACEMENT_3D ( 'NONE', #156, #277, #124 ) ;
#15 = CARTESIAN_POINT ( 'NONE',  ( -2.519685039370078705, 0.1574803149606299191, 1.299212598425196985 ) ) ;
#16 = DATE_AND_TIME ( #323, #192 ) ;
#17 = FACE_OUTER_BOUND ( 'NONE', #129, .T. ) ;
#18 = VERTEX_POINT ( 'NONE', #370 ) ;
#19 = DIRECTION ( 'NONE',  ( 0.000000000000000000, 0.000000000000000000, 1.000000000000000000 ) ) ;
#20 = CARTESIAN_POINT ( 'NONE',  ( 0.000000000000000000, 0.000000000000000000, 0.000000000000000000 ) ) ;
#21 = VECTOR ( 'NONE', #260, 39.37007874015748143 ) ;
#22 = EDGE_CURVE ( 'NONE', #284, #161, #289, .T. ) ;
#23 = EDGE_CURVE ( 'NONE', #18, #341, #46, .T. ) ;
#24 = CARTESIAN_POINT ( 'NONE',  ( 2.047244094488188892, 0.000000000000000000, 0.9842519685039370358 ) ) ;
#25 = APPLICATION_CONTEXT ( 'configuration controlled 3d designs of mechanical parts and assemblies' ) ;
#26 = APPROVAL_DATE_TIME ( #385, #30 ) ;
#27 = DIRECTION ( 'NONE',  ( 0.000000000000000000, 1.000000000000000000, 0.000000000000000000 ) ) ;
#28 = APPROVAL_STATUS ( 'not_yet_approved' ) ;
#29 = FACE_OUTER_BOUND ( 'NONE', #309, .T. ) ;
#30 = APPROVAL ( #352, 'UNSPECIFIED' ) ;
#31 = EDGE_CURVE ( 'NONE', #314, #44, #227, .T. ) ;
#32 = AXIS2_PLACEMENT_3D ( 'NONE', #20, #175, #86 ) ;
#33 = APPROVAL_PERSON_ORGANIZATION ( #324, #30, #155 ) ;
#34 = EDGE_LOOP ( 'NONE', ( #280, #96 ) ) ;
#35 = ORIENTED_EDGE ( 'NONE', *, *, #233, .F. ) ;
#36 = ORIENTED_EDGE ( 'NONE', *, *, #224, .F. ) ;
#37 = ORIENTED_EDGE ( 'NONE', *, *, #201, .T. ) ;
#38 = LOCAL_TIME ( 1, 39, 4.000000000000000000, #272 ) ;
#39 = ORIENTED_EDGE ( 'NONE', *, *, #217, .T. ) ;
#40 = CARTESIAN_POINT ( 'NONE',  ( 2.519685039370078705, 0.000000000000000000, -1.299212598425196985 ) ) ;
#41 = DESIGN_CONTEXT ( 'detailed design', #25, 'design' ) ;
#42 = ORIENTED_EDGE ( 'NONE', *, *, #31, .F. ) ;
#43 = VECTOR ( 'NONE', #136, 39.37007874015748143 ) ;
#44 = VERTEX_POINT ( 'NONE', #291 ) ;
#45 = DIRECTION ( 'NONE',  ( 0.000000000000000000, 0.000000000000000000, -1.000000000000000000 ) ) ;
#46 = LINE ( 'NONE', #167, #109 ) ;
#47 = PRODUCT_DEFINITION_FORMATION_WITH_SPECIFIED_SOURCE ( 'ANY', '', #154, .NOT_KNOWN. ) ;
#48 = CYLINDRICAL_SURFACE ( 'NONE', #54, 0.06299212598425185661 ) ;
#49 = PERSON_AND_ORGANIZATION_ROLE ( 'classification_officer' ) ;
#50 = DIRECTION ( 'NONE',  ( 0.000000000000000000, 0.000000000000000000, 1.000000000000000000 ) ) ;
#51 = FACE_OUTER_BOUND ( 'NONE', #365, .T. ) ;
#52 = CARTESIAN_POINT ( 'NONE',  ( -2.519685039370078705, 0.1574803149606299191, 1.299212598425196985 ) ) ;
#53 = DIRECTION ( 'NONE',  ( 0.000000000000000000, 1.000000000000000000, 0.000000000000000000 ) ) ;
#54 = AXIS2_PLACEMENT_3D ( 'NONE', #266, #375, #111 ) ;
#55 = PERSON_AND_ORGANIZATION ( #188, #214 ) ;
#56 = LOCAL_TIME ( 1, 39, 4.000000000000000000, #141 ) ;
#57 = LINE ( 'NONE', #138, #253 ) ;
#58 = DIRECTION ( 'NONE',  ( -1.000000000000000000, 0.000000000000000000, -0.000000000000000000 ) ) ;
#59 = FACE_OUTER_BOUND ( 'NONE', #2, .T. ) ;
#60 = EDGE_LOOP ( 'NONE', ( #337, #36, #254, #125 ) ) ;
#61 = COORDINATED_UNIVERSAL_TIME_OFFSET ( 1, 0, .AHEAD. ) ;
#62 = ORIENTED_EDGE ( 'NONE', *, *, #334, .F. ) ;
#63 = COORDINATED_UNIVERSAL_TIME_OFFSET ( 1, 0, .AHEAD. ) ;
#64 = VECTOR ( 'NONE', #171, 39.37007874015748143 ) ;
#65 = ORIENTED_EDGE ( 'NONE', *, *, #190, .F. ) ;
#66 = ADVANCED_FACE ( 'NONE', ( #12 ), #290, .F. ) ;
#67 = EDGE_LOOP ( 'NONE', ( #191, #252, #238, #193 ) ) ;
#68 = APPROVAL ( #28, 'UNSPECIFIED' ) ;
#69 = EDGE_CURVE ( 'NONE', #331, #284, #230, .T. ) ;
#70 = ORIENTED_EDGE ( 'NONE', *, *, #285, .T. ) ;
#71 = ORIENTED_EDGE ( 'NONE', *, *, #229, .T. ) ;
#72 = CIRCLE ( 'NONE', #81, 0.06299212598425185661 ) ;
#73 = APPROVAL_PERSON_ORGANIZATION ( #207, #68, #183 ) ;
#74 = CARTESIAN_POINT ( 'NONE',  ( -2.519685039370078705, 0.1574803149606299191, -1.299212598425196985 ) ) ;
#75 = DIRECTION ( 'NONE',  ( -1.000000000000000000, -0.000000000000000000, -0.000000000000000000 ) ) ;
#76 = LINE ( 'NONE', #198, #132 ) ;
#77 = CIRCLE ( 'NONE', #9, 0.06299212598425185661 ) ;
#78 = CARTESIAN_POINT ( 'NONE',  ( 2.519685039370078705, 0.1574803149606299191, 1.299212598425196985 ) ) ;
#79 = DIRECTION ( 'NONE',  ( 0.000000000000000000, 1.000000000000000000, 0.000000000000000000 ) ) ;
#80 = CARTESIAN_POINT ( 'NONE',  ( -2.519685039370078705, 0.1574803149606299191, -1.299212598425196985 ) ) ;
#81 = AXIS2_PLACEMENT_3D ( 'NONE', #269, #380, #242 ) ;
#82 = ADVANCED_BREP_SHAPE_REPRESENTATION ( '22_TTGO_Tray', ( #351, #237 ), #305 ) ;
#83 = DATE_TIME_ROLE ( 'classification_date' ) ;
#84 = DIRECTION ( 'NONE',  ( -0.000000000000000000, -1.000000000000000000, -0.000000000000000000 ) ) ;
#85 = PERSON_AND_ORGANIZATION ( #188, #214 ) ;
#86 = DIRECTION ( 'NONE',  ( 0.000000000000000000, -0.000000000000000000, -1.000000000000000000 ) ) ;
#87 = MECHANICAL_CONTEXT ( 'NONE', #261, 'mechanical' ) ;
#88 = DATE_AND_TIME ( #299, #56 ) ;
#89 = PLANE ( 'NONE',  #197 ) ;
#90 = APPROVAL_DATE_TIME ( #219, #100 ) ;
#91 = EDGE_CURVE ( 'NONE', #341, #102, #172, .T. ) ;
#92 = AXIS2_PLACEMENT_3D ( 'NONE', #24, #27, #383 ) ;
#93 = PERSON_AND_ORGANIZATION ( #188, #214 ) ;
#94 = FACE_BOUND ( 'NONE', #34, .T. ) ;
#95 = PLANE ( 'NONE',  #387 ) ;
#96 = ORIENTED_EDGE ( 'NONE', *, *, #308, .T. ) ;
#97 = ORIENTED_EDGE ( 'NONE', *, *, #196, .T. ) ;
#98 = VECTOR ( 'NONE', #340, 39.37007874015748143 ) ;
#99 = ORIENTED_EDGE ( 'NONE', *, *, #210, .T. ) ;
#100 = APPROVAL ( #330, 'UNSPECIFIED' ) ;
#101 = PRODUCT_DEFINITION_SHAPE ( 'NONE', 'NONE',  #371 ) ;
#102 = VERTEX_POINT ( 'NONE', #40 ) ;
#103 = ORIENTED_EDGE ( 'NONE', *, *, #112, .T. ) ;
#104 = EDGE_CURVE ( 'NONE', #44, #364, #5, .T. ) ;
#105 = ORIENTED_EDGE ( 'NONE', *, *, #126, .F. ) ;
#106 = DIRECTION ( 'NONE',  ( 0.000000000000000000, 1.000000000000000000, 0.000000000000000000 ) ) ;
#107 = CARTESIAN_POINT ( 'NONE',  ( 2.047244094488188892, 0.1574803149606299191, 0.9212598425196851792 ) ) ;
#108 = CARTESIAN_POINT ( 'NONE',  ( -2.519685039370078705, 0.000000000000000000, -1.299212598425196985 ) ) ;
#109 = VECTOR ( 'NONE', #286, 39.37007874015748143 ) ;
#110 = DIRECTION ( 'NONE',  ( 0.000000000000000000, 0.000000000000000000, -1.000000000000000000 ) ) ;
#111 = DIRECTION ( 'NONE',  ( 0.000000000000000000, 0.000000000000000000, -1.000000000000000000 ) ) ;
#112 = EDGE_CURVE ( 'NONE', #367, #222, #288, .T. ) ;
#113 = CARTESIAN_POINT ( 'NONE',  ( -2.047244094488188892, 0.1574803149606299191, 0.9212598425196851792 ) ) ;
#114 = PERSON_AND_ORGANIZATION_ROLE ( 'creator' ) ;
#115 = AXIS2_PLACEMENT_3D ( 'NONE', #11, #79, #372 ) ;
#116 = CC_DESIGN_APPROVAL ( #100, ( #371 ) ) ;
#117 = PERSON_AND_ORGANIZATION_ROLE ( 'creator' ) ;
#118 = CARTESIAN_POINT ( 'NONE',  ( -2.047244094488188892, 0.1574803149606299191, 1.047244094488188892 ) ) ;
#119 = DIRECTION ( 'NONE',  ( 0.000000000000000000, 0.000000000000000000, 1.000000000000000000 ) ) ;
#120 = CARTESIAN_POINT ( 'NONE',  ( 2.047244094488188892, 0.1574803149606299191, 0.9842519685039370358 ) ) ;
#121 = EDGE_CURVE ( 'NONE', #284, #18, #76, .T. ) ;
#122 = CARTESIAN_POINT ( 'NONE',  ( 2.047244094488188892, 0.1574803149606299191, 0.9212598425196851792 ) ) ;
#123 = DIRECTION ( 'NONE',  ( -0.000000000000000000, -1.000000000000000000, -0.000000000000000000 ) ) ;
#124 = DIRECTION ( 'NONE',  ( 0.000000000000000000, 0.000000000000000000, -1.000000000000000000 ) ) ;
#125 = ORIENTED_EDGE ( 'NONE', *, *, #121, .T. ) ;
#126 = EDGE_CURVE ( 'NONE', #102, #130, #8, .T. ) ;
#127 = ORIENTED_EDGE ( 'NONE', *, *, #201, .F. ) ;
#128 = VECTOR ( 'NONE', #215, 39.37007874015748143 ) ;
#129 = EDGE_LOOP ( 'NONE', ( #7, #99, #306, #42 ) ) ;
#130 = VERTEX_POINT ( 'NONE', #108 ) ;
#131 = VERTEX_POINT ( 'NONE', #195 ) ;
#132 = VECTOR ( 'NONE', #228, 39.37007874015748143 ) ;
#133 = CARTESIAN_POINT ( 'NONE',  ( -2.519685039370078705, 0.000000000000000000, -1.299212598425196985 ) ) ;
#134 = CARTESIAN_POINT ( 'NONE',  ( -2.519685039370078705, 0.1574803149606299191, 1.299212598425196985 ) ) ;
#135 = DIRECTION ( 'NONE',  ( 0.000000000000000000, 0.000000000000000000, 1.000000000000000000 ) ) ;
#136 = DIRECTION ( 'NONE',  ( -0.000000000000000000, -1.000000000000000000, -0.000000000000000000 ) ) ;
#137 = CIRCLE ( 'NONE', #231, 0.06299212598425185661 ) ;
#138 = CARTESIAN_POINT ( 'NONE',  ( 2.519685039370078705, 0.1574803149606299191, 1.299212598425196985 ) ) ;
#139 = EDGE_CURVE ( 'NONE', #331, #130, #316, .T. ) ;
#140 = ADVANCED_FACE ( 'NONE', ( #318 ), #232, .F. ) ;
#141 = COORDINATED_UNIVERSAL_TIME_OFFSET ( 1, 0, .AHEAD. ) ;
#142 = DIRECTION ( 'NONE',  ( 0.000000000000000000, 1.000000000000000000, 0.000000000000000000 ) ) ;
#143 = CARTESIAN_POINT ( 'NONE',  ( -2.047244094488188892, 0.1574803149606299191, 0.9212598425196851792 ) ) ;
#144 = APPROVAL_DATE_TIME ( #16, #68 ) ;
#145 = DIRECTION ( 'NONE',  ( -0.000000000000000000, -1.000000000000000000, -0.000000000000000000 ) ) ;
#146 = ORIENTED_EDGE ( 'NONE', *, *, #275, .T. ) ;
#147 =( CONVERSION_BASED_UNIT ( 'INCH', #271 ) LENGTH_UNIT ( ) NAMED_UNIT ( #178 ) );
#148 = FACE_BOUND ( 'NONE', #366, .T. ) ;
#149 =( LENGTH_UNIT ( ) NAMED_UNIT ( * ) SI_UNIT ( $, .METRE. ) );
#150 = FACE_BOUND ( 'NONE', #304, .T. ) ;
#151 = CC_DESIGN_PERSON_AND_ORGANIZATION_ASSIGNMENT ( #276, #49, ( #344 ) ) ;
#152 = ADVANCED_FACE ( 'NONE', ( #368, #194, #148 ), #89, .F. ) ;
#153 = CARTESIAN_POINT ( 'NONE',  ( 2.519685039370078705, 0.000000000000000000, 1.299212598425196985 ) ) ;
#154 = PRODUCT ( '22_TTGO_Tray', '22_TTGO_Tray', '', ( #87 ) ) ;
#155 = APPROVAL_ROLE ( '' ) ;
#156 = CARTESIAN_POINT ( 'NONE',  ( 2.047244094488188892, 0.1574803149606299191, 0.9842519685039370358 ) ) ;
#157 = CARTESIAN_POINT ( 'NONE',  ( 0.000000000000000000, 0.000000000000000000, 0.000000000000000000 ) ) ;
#158 = AXIS2_PLACEMENT_3D ( 'NONE', #388, #123, #326 ) ;
#159 = ORIENTED_EDGE ( 'NONE', *, *, #31, .T. ) ;
#160 = ADVANCED_FACE ( 'NONE', ( #150, #296, #94 ), #245, .T. ) ;
#161 = VERTEX_POINT ( 'NONE', #382 ) ;
#162 = ORIENTED_EDGE ( 'NONE', *, *, #210, .F. ) ;
#163 = VECTOR ( 'NONE', #202, 39.37007874015748143 ) ;
#164 = ORIENTED_EDGE ( 'NONE', *, *, #217, .F. ) ;
#165 = CC_DESIGN_PERSON_AND_ORGANIZATION_ASSIGNMENT ( #384, #114, ( #371 ) ) ;
#166 = ORIENTED_EDGE ( 'NONE', *, *, #308, .F. ) ;
#167 = CARTESIAN_POINT ( 'NONE',  ( -2.519685039370078705, 0.000000000000000000, 1.299212598425196985 ) ) ;
#168 = VECTOR ( 'NONE', #240, 39.37007874015748143 ) ;
#169 = DIRECTION ( 'NONE',  ( -1.000000000000000000, 0.000000000000000000, 0.000000000000000000 ) ) ;
#170 = EDGE_LOOP ( 'NONE', ( #251, #184, #71, #70 ) ) ;
#171 = DIRECTION ( 'NONE',  ( -0.000000000000000000, -0.000000000000000000, 1.000000000000000000 ) ) ;
#172 = LINE ( 'NONE', #200, #343 ) ;
#173 = AXIS2_PLACEMENT_3D ( 'NONE', #234, #106, #342 ) ;
#174 = AXIS2_PLACEMENT_3D ( 'NONE', #362, #53, #19 ) ;
#175 = DIRECTION ( 'NONE',  ( 0.000000000000000000, -1.000000000000000000, 0.000000000000000000 ) ) ;
#176 = EDGE_LOOP ( 'NONE', ( #225, #279 ) ) ;
#177 = CARTESIAN_POINT ( 'NONE',  ( -2.047244094488188892, 0.000000000000000000, 0.9842519685039370358 ) ) ;
#178 = DIMENSIONAL_EXPONENTS ( 1.000000000000000000, 0.000000000000000000, 0.000000000000000000, 0.000000000000000000, 0.000000000000000000, 0.000000000000000000, 0.000000000000000000 ) ;
#179 = LINE ( 'NONE', #80, #292 ) ;
#180 = DIRECTION ( 'NONE',  ( 0.000000000000000000, 0.000000000000000000, -1.000000000000000000 ) ) ;
#181 = APPROVAL_ROLE ( '' ) ;
#182 = CARTESIAN_POINT ( 'NONE',  ( -2.519685039370078705, 0.000000000000000000, 1.299212598425196985 ) ) ;
#183 = APPROVAL_ROLE ( '' ) ;
#184 = ORIENTED_EDGE ( 'NONE', *, *, #22, .T. ) ;
#185 = CC_DESIGN_PERSON_AND_ORGANIZATION_ASSIGNMENT ( #93, #117, ( #47 ) ) ;
#186 = AXIS2_PLACEMENT_3D ( 'NONE', #78, #169, #135 ) ;
#187 = VERTEX_POINT ( 'NONE', #203 ) ;
#188 = PERSON ( 'UNSPECIFIED', 'UNSPECIFIED', 'UNSPECIFIED', ('UNSPECIFIED'), ('UNSPECIFIED'), ('UNSPECIFIED') ) ;
#189 = ORIENTED_EDGE ( 'NONE', *, *, #69, .F. ) ;
#190 = EDGE_CURVE ( 'NONE', #130, #18, #327, .T. ) ;
#191 = ORIENTED_EDGE ( 'NONE', *, *, #126, .T. ) ;
#192 = LOCAL_TIME ( 1, 39, 4.000000000000000000, #63 ) ;
#193 = ORIENTED_EDGE ( 'NONE', *, *, #13, .T. ) ;
#194 = FACE_BOUND ( 'NONE', #176, .T. ) ;
#195 = CARTESIAN_POINT ( 'NONE',  ( 2.047244094488188892, 0.1574803149606299191, 1.047244094488188892 ) ) ;
#196 = EDGE_CURVE ( 'NONE', #187, #4, #77, .T. ) ;
#197 = AXIS2_PLACEMENT_3D ( 'NONE', #270, #267, #353 ) ;
#198 = CARTESIAN_POINT ( 'NONE',  ( -2.519685039370078705, 0.1574803149606299191, 1.299212598425196985 ) ) ;
#199 = CC_DESIGN_APPROVAL ( #68, ( #47 ) ) ;
#200 = CARTESIAN_POINT ( 'NONE',  ( 2.519685039370078705, 0.000000000000000000, 1.299212598425196985 ) ) ;
#201 = EDGE_CURVE ( 'NONE', #222, #187, #322, .T. ) ;
#202 = DIRECTION ( 'NONE',  ( -0.000000000000000000, -1.000000000000000000, -0.000000000000000000 ) ) ;
#203 = CARTESIAN_POINT ( 'NONE',  ( -2.047244094488188892, 0.000000000000000000, 1.047244094488188892 ) ) ;
#204 = VECTOR ( 'NONE', #75, 39.37007874015748143 ) ;
#205 = APPROVAL_PERSON_ORGANIZATION ( #239, #100, #181 ) ;
#206 = DIRECTION ( 'NONE',  ( 0.000000000000000000, 0.000000000000000000, 1.000000000000000000 ) ) ;
#207 = PERSON_AND_ORGANIZATION ( #188, #214 ) ;
#208 = DIRECTION ( 'NONE',  ( -0.000000000000000000, -1.000000000000000000, -0.000000000000000000 ) ) ;
#209 = CARTESIAN_POINT ( 'NONE',  ( -2.519685039370078705, 0.1574803149606299191, 1.299212598425196985 ) ) ;
#210 = EDGE_CURVE ( 'NONE', #131, #364, #211, .T. ) ;
#211 = LINE ( 'NONE', #236, #373 ) ;
#212 = CALENDAR_DATE ( 2026, 10, 8 ) ;
#213 = AXIS2_PLACEMENT_3D ( 'NONE', #120, #350, #50 ) ;
#214 = ORGANIZATION ( 'UNSPECIFIED', 'UNSPECIFIED', '' ) ;
#215 = DIRECTION ( 'NONE',  ( -0.000000000000000000, -1.000000000000000000, -0.000000000000000000 ) ) ;
#216 =( NAMED_UNIT ( * ) SI_UNIT ( $, .STERADIAN. ) SOLID_ANGLE_UNIT ( ) );
#217 = EDGE_CURVE ( 'NONE', #131, #314, #379, .T. ) ;
#218 = VERTEX_POINT ( 'NONE', #297 ) ;
#219 = DATE_AND_TIME ( #250, #294 ) ;
#220 = ORIENTED_EDGE ( 'NONE', *, *, #224, .T. ) ;
#221 = ORIENTED_EDGE ( 'NONE', *, *, #233, .T. ) ;
#222 = VERTEX_POINT ( 'NONE', #329 ) ;
#223 = CC_DESIGN_PERSON_AND_ORGANIZATION_ASSIGNMENT ( #55, #244, ( #47 ) ) ;
#224 = EDGE_CURVE ( 'NONE', #161, #341, #295, .T. ) ;
#225 = ORIENTED_EDGE ( 'NONE', *, *, #112, .F. ) ;
#226 = CC_DESIGN_SECURITY_CLASSIFICATION ( #344, ( #47 ) ) ;
#227 = LINE ( 'NONE', #107, #43 ) ;
#228 = DIRECTION ( 'NONE',  ( -0.000000000000000000, -1.000000000000000000, -0.000000000000000000 ) ) ;
#229 = EDGE_CURVE ( 'NONE', #161, #218, #57, .T. ) ;
#230 = LINE ( 'NONE', #15, #64 ) ;
#231 = AXIS2_PLACEMENT_3D ( 'NONE', #348, #142, #300 ) ;
#232 = PLANE ( 'NONE',  #298 ) ;
#233 = EDGE_CURVE ( 'NONE', #4, #187, #72, .T. ) ;
#234 = CARTESIAN_POINT ( 'NONE',  ( 2.047244094488188892, 0.000000000000000000, 0.9842519685039370358 ) ) ;
#235 = DIRECTION ( 'NONE',  ( -0.000000000000000000, -1.000000000000000000, -0.000000000000000000 ) ) ;
#236 = CARTESIAN_POINT ( 'NONE',  ( 2.047244094488188892, 0.1574803149606299191, 1.047244094488188892 ) ) ;
#237 = AXIS2_PLACEMENT_3D ( 'NONE', #157, #119, #268 ) ;
#238 = ORIENTED_EDGE ( 'NONE', *, *, #285, .F. ) ;
#239 = PERSON_AND_ORGANIZATION ( #188, #214 ) ;
#240 = DIRECTION ( 'NONE',  ( -0.000000000000000000, -0.000000000000000000, 1.000000000000000000 ) ) ;
#241 = SECURITY_CLASSIFICATION_LEVEL ( 'unclassified' ) ;
#242 = DIRECTION ( 'NONE',  ( 0.000000000000000000, 0.000000000000000000, 1.000000000000000000 ) ) ;
#243 = PERSON_AND_ORGANIZATION_ROLE ( 'design_owner' ) ;
#244 = PERSON_AND_ORGANIZATION_ROLE ( 'design_supplier' ) ;
#245 = PLANE ( 'NONE',  #32 ) ;
#246 = FACE_OUTER_BOUND ( 'NONE', #60, .T. ) ;
#247 = CLOSED_SHELL ( 'NONE', ( #263, #255, #152, #160, #66, #347, #1, #140, #363, #321 ) ) ;
#248 = CC_DESIGN_PERSON_AND_ORGANIZATION_ASSIGNMENT ( #85, #243, ( #154 ) ) ;
#249 = CARTESIAN_POINT ( 'NONE',  ( -2.519685039370078705, 0.1574803149606299191, -1.299212598425196985 ) ) ;
#250 = CALENDAR_DATE ( 2026, 10, 8 ) ;
#251 = ORIENTED_EDGE ( 'NONE', *, *, #69, .T. ) ;
#252 = ORIENTED_EDGE ( 'NONE', *, *, #139, .F. ) ;
#253 = VECTOR ( 'NONE', #325, 39.37007874015748143 ) ;
#254 = ORIENTED_EDGE ( 'NONE', *, *, #22, .F. ) ;
#255 = ADVANCED_FACE ( 'NONE', ( #59 ), #48, .F. ) ;
#256 = ORIENTED_EDGE ( 'NONE', *, *, #91, .F. ) ;
#257 = DIRECTION ( 'NONE',  ( 1.000000000000000000, 0.000000000000000000, -0.000000000000000000 ) ) ;
#258 = CC_DESIGN_DATE_AND_TIME_ASSIGNMENT ( #328, #301, ( #371 ) ) ;
#259 = PLANE ( 'NONE',  #186 ) ;
#260 = DIRECTION ( 'NONE',  ( 1.000000000000000000, 0.000000000000000000, 0.000000000000000000 ) ) ;
#261 = APPLICATION_CONTEXT ( 'configuration controlled 3d designs of mechanical parts and assemblies' ) ;
#262 = ORIENTED_EDGE ( 'NONE', *, *, #307, .T. ) ;
#263 = ADVANCED_FACE ( 'NONE', ( #17 ), #273, .F. ) ;
#264 = VECTOR ( 'NONE', #145, 39.37007874015748143 ) ;
#265 = LINE ( 'NONE', #313, #98 ) ;
#266 = CARTESIAN_POINT ( 'NONE',  ( -2.047244094488188892, 0.1574803149606299191, 0.9842519685039370358 ) ) ;
#267 = DIRECTION ( 'NONE',  ( 0.000000000000000000, -1.000000000000000000, 0.000000000000000000 ) ) ;
#268 = DIRECTION ( 'NONE',  ( 1.000000000000000000, 0.000000000000000000, 0.000000000000000000 ) ) ;
#269 = CARTESIAN_POINT ( 'NONE',  ( -2.047244094488188892, 0.000000000000000000, 0.9842519685039370358 ) ) ;
#270 = CARTESIAN_POINT ( 'NONE',  ( 0.000000000000000000, 0.1574803149606299191, 0.000000000000000000 ) ) ;
#271 = LENGTH_MEASURE_WITH_UNIT ( LENGTH_MEASURE( 0.02539999999999999897 ), #149 );
#272 = COORDINATED_UNIVERSAL_TIME_OFFSET ( 1, 0, .AHEAD. ) ;
#273 = CYLINDRICAL_SURFACE ( 'NONE', #319, 0.06299212598425185661 ) ;
#274 = CYLINDRICAL_SURFACE ( 'NONE', #158, 0.06299212598425185661 ) ;
#275 = EDGE_CURVE ( 'NONE', #222, #367, #137, .T. ) ;
#276 = PERSON_AND_ORGANIZATION ( #188, #214 ) ;
#277 = DIRECTION ( 'NONE',  ( -0.000000000000000000, -1.000000000000000000, -0.000000000000000000 ) ) ;
#278 = APPLICATION_PROTOCOL_DEFINITION ( 'international standard', 'config_control_design', 1994, #261 ) ;
#279 = ORIENTED_EDGE ( 'NONE', *, *, #275, .F. ) ;
#280 = ORIENTED_EDGE ( 'NONE', *, *, #104, .T. ) ;
#281 = EDGE_LOOP ( 'NONE', ( #378, #311, #310, #220 ) ) ;
#282 = VECTOR ( 'NONE', #84, 39.37007874015748143 ) ;
#283 = ORIENTED_EDGE ( 'NONE', *, *, #307, .F. ) ;
#284 = VERTEX_POINT ( 'NONE', #52 ) ;
#285 = EDGE_CURVE ( 'NONE', #218, #331, #179, .T. ) ;
#286 = DIRECTION ( 'NONE',  ( 1.000000000000000000, 0.000000000000000000, 0.000000000000000000 ) ) ;
#287 = UNCERTAINTY_MEASURE_WITH_UNIT (LENGTH_MEASURE( 1.000000000000000082E-05 ), #147, 'distance_accuracy_value', 'NONE');
#288 = CIRCLE ( 'NONE', #115, 0.06299212598425185661 ) ;
#289 = LINE ( 'NONE', #134, #21 ) ;
#290 = PLANE ( 'NONE',  #338 ) ;
#291 = CARTESIAN_POINT ( 'NONE',  ( 2.047244094488188892, 0.000000000000000000, 0.9212598425196851792 ) ) ;
#292 = VECTOR ( 'NONE', #355, 39.37007874015748143 ) ;
#293 = DIRECTION ( 'NONE',  ( 0.000000000000000000, 0.000000000000000000, 1.000000000000000000 ) ) ;
#294 = LOCAL_TIME ( 1, 39, 4.000000000000000000, #354 ) ;
#295 = LINE ( 'NONE', #358, #128 ) ;
#296 = FACE_OUTER_BOUND ( 'NONE', #336, .T. ) ;
#297 = CARTESIAN_POINT ( 'NONE',  ( 2.519685039370078705, 0.1574803149606299191, -1.299212598425196985 ) ) ;
#298 = AXIS2_PLACEMENT_3D ( 'NONE', #345, #293, #257 ) ;
#299 = CALENDAR_DATE ( 2026, 10, 8 ) ;
#300 = DIRECTION ( 'NONE',  ( 0.000000000000000000, 0.000000000000000000, 1.000000000000000000 ) ) ;
#301 = DATE_TIME_ROLE ( 'creation_date' ) ;
#302 = DIRECTION ( 'NONE',  ( 0.000000000000000000, 1.000000000000000000, 0.000000000000000000 ) ) ;
#303 = DIRECTION ( 'NONE',  ( 0.000000000000000000, 0.000000000000000000, -1.000000000000000000 ) ) ;
#304 = EDGE_LOOP ( 'NONE', ( #221, #97 ) ) ;
#305 =( GEOMETRIC_REPRESENTATION_CONTEXT ( 3 ) GLOBAL_UNCERTAINTY_ASSIGNED_CONTEXT ( ( #287 ) ) GLOBAL_UNIT_ASSIGNED_CONTEXT ( ( #147, #381, #216 ) ) REPRESENTATION_CONTEXT ( 'NONE', 'WORKASPACE' ) );
#306 = ORIENTED_EDGE ( 'NONE', *, *, #104, .F. ) ;
#307 = EDGE_CURVE ( 'NONE', #367, #4, #377, .T. ) ;
#308 = EDGE_CURVE ( 'NONE', #364, #44, #339, .T. ) ;
#309 = EDGE_LOOP ( 'NONE', ( #162, #39, #159, #166 ) ) ;
#310 = ORIENTED_EDGE ( 'NONE', *, *, #229, .F. ) ;
#311 = ORIENTED_EDGE ( 'NONE', *, *, #13, .F. ) ;
#312 = PRODUCT_RELATED_PRODUCT_CATEGORY ( 'detail', '', ( #154 ) ) ;
#313 = CARTESIAN_POINT ( 'NONE',  ( 2.519685039370078705, 0.1574803149606299191, -1.299212598425196985 ) ) ;
#314 = VERTEX_POINT ( 'NONE', #122 ) ;
#315 = CC_DESIGN_APPROVAL ( #30, ( #344 ) ) ;
#316 = LINE ( 'NONE', #74, #163 ) ;
#317 = ORIENTED_EDGE ( 'NONE', *, *, #121, .F. ) ;
#318 = FACE_OUTER_BOUND ( 'NONE', #67, .T. ) ;
#319 = AXIS2_PLACEMENT_3D ( 'NONE', #320, #235, #180 ) ;
#320 = CARTESIAN_POINT ( 'NONE',  ( 2.047244094488188892, 0.1574803149606299191, 0.9842519685039370358 ) ) ;
#321 = ADVANCED_FACE ( 'NONE', ( #29 ), #386, .F. ) ;
#322 = LINE ( 'NONE', #118, #264 ) ;
#323 = CALENDAR_DATE ( 2026, 10, 8 ) ;
#324 = PERSON_AND_ORGANIZATION ( #188, #214 ) ;
#325 = DIRECTION ( 'NONE',  ( 0.000000000000000000, 0.000000000000000000, -1.000000000000000000 ) ) ;
#326 = DIRECTION ( 'NONE',  ( 0.000000000000000000, 0.000000000000000000, -1.000000000000000000 ) ) ;
#327 = LINE ( 'NONE', #182, #168 ) ;
#328 = DATE_AND_TIME ( #212, #349 ) ;
#329 = CARTESIAN_POINT ( 'NONE',  ( -2.047244094488188892, 0.1574803149606299191, 1.047244094488188892 ) ) ;
#330 = APPROVAL_STATUS ( 'not_yet_approved' ) ;
#331 = VERTEX_POINT ( 'NONE', #249 ) ;
#332 = ORIENTED_EDGE ( 'NONE', *, *, #139, .T. ) ;
#333 = CC_DESIGN_DATE_AND_TIME_ASSIGNMENT ( #88, #83, ( #344 ) ) ;
#334 = EDGE_CURVE ( 'NONE', #314, #131, #359, .T. ) ;
#335 = ORIENTED_EDGE ( 'NONE', *, *, #196, .F. ) ;
#336 = EDGE_LOOP ( 'NONE', ( #65, #105, #256, #361 ) ) ;
#337 = ORIENTED_EDGE ( 'NONE', *, *, #23, .T. ) ;
#338 = AXIS2_PLACEMENT_3D ( 'NONE', #374, #369, #45 ) ;
#339 = CIRCLE ( 'NONE', #92, 0.06299212598425185661 ) ;
#340 = DIRECTION ( 'NONE',  ( -0.000000000000000000, -1.000000000000000000, -0.000000000000000000 ) ) ;
#341 = VERTEX_POINT ( 'NONE', #153 ) ;
#342 = DIRECTION ( 'NONE',  ( 0.000000000000000000, 0.000000000000000000, 1.000000000000000000 ) ) ;
#343 = VECTOR ( 'NONE', #110, 39.37007874015748143 ) ;
#344 = SECURITY_CLASSIFICATION ( '', '', #241 ) ;
#345 = CARTESIAN_POINT ( 'NONE',  ( -2.519685039370078705, 0.1574803149606299191, -1.299212598425196985 ) ) ;
#346 = CARTESIAN_POINT ( 'NONE',  ( -2.047244094488188892, 0.000000000000000000, 0.9212598425196851792 ) ) ;
#347 = ADVANCED_FACE ( 'NONE', ( #246 ), #95, .F. ) ;
#348 = CARTESIAN_POINT ( 'NONE',  ( -2.047244094488188892, 0.1574803149606299191, 0.9842519685039370358 ) ) ;
#349 = LOCAL_TIME ( 1, 39, 4.000000000000000000, #61 ) ;
#350 = DIRECTION ( 'NONE',  ( 0.000000000000000000, 1.000000000000000000, 0.000000000000000000 ) ) ;
#351 = MANIFOLD_SOLID_BREP ( 'Tray_Base_Extrude', #247 ) ;
#352 = APPROVAL_STATUS ( 'not_yet_approved' ) ;
#353 = DIRECTION ( 'NONE',  ( 0.000000000000000000, -0.000000000000000000, -1.000000000000000000 ) ) ;
#354 = COORDINATED_UNIVERSAL_TIME_OFFSET ( 1, 0, .AHEAD. ) ;
#355 = DIRECTION ( 'NONE',  ( -1.000000000000000000, -0.000000000000000000, -0.000000000000000000 ) ) ;
#356 = APPLICATION_PROTOCOL_DEFINITION ( 'international standard', 'config_control_design', 1994, #25 ) ;
#357 = SHAPE_DEFINITION_REPRESENTATION ( #101, #82 ) ;
#358 = CARTESIAN_POINT ( 'NONE',  ( 2.519685039370078705, 0.1574803149606299191, 1.299212598425196985 ) ) ;
#359 = CIRCLE ( 'NONE', #174, 0.06299212598425185661 ) ;
#360 = CARTESIAN_POINT ( 'NONE',  ( 2.047244094488188892, 0.000000000000000000, 1.047244094488188892 ) ) ;
#361 = ORIENTED_EDGE ( 'NONE', *, *, #23, .F. ) ;
#362 = CARTESIAN_POINT ( 'NONE',  ( 2.047244094488188892, 0.1574803149606299191, 0.9842519685039370358 ) ) ;
#363 = ADVANCED_FACE ( 'NONE', ( #51 ), #274, .F. ) ;
#364 = VERTEX_POINT ( 'NONE', #360 ) ;
#365 = EDGE_LOOP ( 'NONE', ( #127, #146, #262, #335 ) ) ;
#366 = EDGE_LOOP ( 'NONE', ( #62, #164 ) ) ;
#367 = VERTEX_POINT ( 'NONE', #143 ) ;
#368 = FACE_OUTER_BOUND ( 'NONE', #170, .T. ) ;
#369 = DIRECTION ( 'NONE',  ( 1.000000000000000000, -0.000000000000000000, 0.000000000000000000 ) ) ;
#370 = CARTESIAN_POINT ( 'NONE',  ( -2.519685039370078705, 0.000000000000000000, 1.299212598425196985 ) ) ;
#371 = PRODUCT_DEFINITION ( 'UNKNOWN', '', #47, #41 ) ;
#372 = DIRECTION ( 'NONE',  ( 0.000000000000000000, 0.000000000000000000, 1.000000000000000000 ) ) ;
#373 = VECTOR ( 'NONE', #208, 39.37007874015748143 ) ;
#374 = CARTESIAN_POINT ( 'NONE',  ( -2.519685039370078705, 0.1574803149606299191, 1.299212598425196985 ) ) ;
#375 = DIRECTION ( 'NONE',  ( -0.000000000000000000, -1.000000000000000000, -0.000000000000000000 ) ) ;
#376 = CALENDAR_DATE ( 2026, 10, 8 ) ;
#377 = LINE ( 'NONE', #113, #282 ) ;
#378 = ORIENTED_EDGE ( 'NONE', *, *, #91, .T. ) ;
#379 = CIRCLE ( 'NONE', #213, 0.06299212598425185661 ) ;
#380 = DIRECTION ( 'NONE',  ( 0.000000000000000000, 1.000000000000000000, 0.000000000000000000 ) ) ;
#381 =( NAMED_UNIT ( * ) PLANE_ANGLE_UNIT ( ) SI_UNIT ( $, .RADIAN. ) );
#382 = CARTESIAN_POINT ( 'NONE',  ( 2.519685039370078705, 0.1574803149606299191, 1.299212598425196985 ) ) ;
#383 = DIRECTION ( 'NONE',  ( 0.000000000000000000, 0.000000000000000000, 1.000000000000000000 ) ) ;
#384 = PERSON_AND_ORGANIZATION ( #188, #214 ) ;
#385 = DATE_AND_TIME ( #376, #38 ) ;
#386 = CYLINDRICAL_SURFACE ( 'NONE', #14, 0.06299212598425185661 ) ;
#387 = AXIS2_PLACEMENT_3D ( 'NONE', #209, #303, #58 ) ;
#388 = CARTESIAN_POINT ( 'NONE',  ( -2.047244094488188892, 0.1574803149606299191, 0.9842519685039370358 ) ) ;
ENDSEC;
END-ISO-10303-21;
