ISO-10303-21;
HEADER;
FILE_DESCRIPTION (( 'STEP AP203' ),
    '1' );
FILE_NAME ('23_Motor_Driver_Tray.STEP',
    '2026-08-10T00:39:07',
    ( '' ),
    ( '' ),
    'SwSTEP 2.0',
    'SolidWorks 2026',
    '' );
FILE_SCHEMA (( 'CONFIG_CONTROL_DESIGN' ));
ENDSEC;

DATA;
#1 = CARTESIAN_POINT ( 'NONE',  ( -1.889763779527559251, 0.1574803149606299191, 0.9153543307086613456 ) ) ;
#2 = DIRECTION ( 'NONE',  ( 1.000000000000000000, 0.000000000000000000, 0.000000000000000000 ) ) ;
#3 = EDGE_LOOP ( 'NONE', ( #291, #26, #260, #263 ) ) ;
#4 = VECTOR ( 'NONE', #43, 39.37007874015748143 ) ;
#5 = DATE_TIME_ROLE ( 'creation_date' ) ;
#6 = ORIENTED_EDGE ( 'NONE', *, *, #200, .T. ) ;
#7 = ORIENTED_EDGE ( 'NONE', *, *, #157, .T. ) ;
#8 = DIRECTION ( 'NONE',  ( 0.000000000000000000, 1.000000000000000000, 0.000000000000000000 ) ) ;
#9 = FACE_OUTER_BOUND ( 'NONE', #247, .T. ) ;
#10 = ADVANCED_FACE ( 'NONE', ( #208 ), #153, .F. ) ;
#11 = LOCAL_TIME ( 1, 39, 7.000000000000000000, #126 ) ;
#12 = AXIS2_PLACEMENT_3D ( 'NONE', #76, #106, #50 ) ;
#13 = LINE ( 'NONE', #97, #4 ) ;
#14 = CARTESIAN_POINT ( 'NONE',  ( 0.000000000000000000, 0.000000000000000000, 0.000000000000000000 ) ) ;
#15 = CARTESIAN_POINT ( 'NONE',  ( -2.322834645669291209, 0.1574803149606299191, 1.338582677165354395 ) ) ;
#16 = CARTESIAN_POINT ( 'NONE',  ( 2.322834645669291209, 0.1574803149606299191, 1.338582677165354395 ) ) ;
#17 = CARTESIAN_POINT ( 'NONE',  ( -1.889763779527559251, 0.1574803149606299191, 0.9153543307086613456 ) ) ;
#18 = EDGE_CURVE ( 'NONE', #228, #141, #335, .T. ) ;
#19 = DIRECTION ( 'NONE',  ( 0.000000000000000000, 0.000000000000000000, 1.000000000000000000 ) ) ;
#20 = ORIENTED_EDGE ( 'NONE', *, *, #58, .T. ) ;
#21 = VECTOR ( 'NONE', #132, 39.37007874015748143 ) ;
#22 = APPROVAL ( #36, 'UNSPECIFIED' ) ;
#23 = DIRECTION ( 'NONE',  ( -0.000000000000000000, -1.000000000000000000, -0.000000000000000000 ) ) ;
#24 = ORIENTED_EDGE ( 'NONE', *, *, #196, .F. ) ;
#25 = DIRECTION ( 'NONE',  ( 0.000000000000000000, 0.000000000000000000, 1.000000000000000000 ) ) ;
#26 = ORIENTED_EDGE ( 'NONE', *, *, #339, .F. ) ;
#27 = CALENDAR_DATE ( 2026, 10, 8 ) ;
#28 = MANIFOLD_SOLID_BREP ( 'Tray_Base_Extrude', #77 ) ;
#29 =( NAMED_UNIT ( * ) SI_UNIT ( $, .STERADIAN. ) SOLID_ANGLE_UNIT ( ) );
#30 = ORIENTED_EDGE ( 'NONE', *, *, #173, .F. ) ;
#31 = CIRCLE ( 'NONE', #229, 0.06889763779527578735 ) ;
#32 = CARTESIAN_POINT ( 'NONE',  ( -1.889763779527559251, 0.1574803149606299191, 0.9842519685039370358 ) ) ;
#33 = EDGE_CURVE ( 'NONE', #119, #228, #246, .T. ) ;
#34 = PERSON_AND_ORGANIZATION ( #189, #387 ) ;
#35 = VERTEX_POINT ( 'NONE', #265 ) ;
#36 = APPROVAL_STATUS ( 'not_yet_approved' ) ;
#37 = CARTESIAN_POINT ( 'NONE',  ( -2.322834645669291209, 0.1574803149606299191, 1.338582677165354395 ) ) ;
#38 = DIRECTION ( 'NONE',  ( -1.000000000000000000, -0.000000000000000000, -0.000000000000000000 ) ) ;
#39 = CARTESIAN_POINT ( 'NONE',  ( -2.322834645669291209, 0.1574803149606299191, -1.338582677165354395 ) ) ;
#40 = AXIS2_PLACEMENT_3D ( 'NONE', #16, #318, #25 ) ;
#41 = CARTESIAN_POINT ( 'NONE',  ( 2.322834645669291209, 0.1574803149606299191, 1.338582677165354395 ) ) ;
#42 = CYLINDRICAL_SURFACE ( 'NONE', #272, 0.06889763779527578735 ) ;
#43 = DIRECTION ( 'NONE',  ( -0.000000000000000000, -0.000000000000000000, 1.000000000000000000 ) ) ;
#44 = LINE ( 'NONE', #258, #308 ) ;
#45 = CC_DESIGN_APPROVAL ( #161, ( #122 ) ) ;
#46 = CARTESIAN_POINT ( 'NONE',  ( 2.322834645669291209, 0.1574803149606299191, 1.338582677165354395 ) ) ;
#47 = CARTESIAN_POINT ( 'NONE',  ( -2.322834645669291209, 0.1574803149606299191, 1.338582677165354395 ) ) ;
#48 = ORIENTED_EDGE ( 'NONE', *, *, #330, .F. ) ;
#49 = APPROVAL ( #332, 'UNSPECIFIED' ) ;
#50 = DIRECTION ( 'NONE',  ( 0.000000000000000000, 0.000000000000000000, -1.000000000000000000 ) ) ;
#51 = AXIS2_PLACEMENT_3D ( 'NONE', #69, #190, #162 ) ;
#52 =( LENGTH_UNIT ( ) NAMED_UNIT ( * ) SI_UNIT ( $, .METRE. ) );
#53 = ORIENTED_EDGE ( 'NONE', *, *, #377, .F. ) ;
#54 = PERSON_AND_ORGANIZATION ( #189, #387 ) ;
#55 = EDGE_LOOP ( 'NONE', ( #124, #325, #305, #86 ) ) ;
#56 = PERSON_AND_ORGANIZATION ( #189, #387 ) ;
#57 = VERTEX_POINT ( 'NONE', #1 ) ;
#58 = EDGE_CURVE ( 'NONE', #206, #155, #67, .T. ) ;
#59 = PERSON_AND_ORGANIZATION ( #189, #387 ) ;
#60 = CARTESIAN_POINT ( 'NONE',  ( -2.322834645669291209, 0.000000000000000000, -1.338582677165354395 ) ) ;
#61 = EDGE_CURVE ( 'NONE', #57, #82, #264, .T. ) ;
#62 = APPROVAL_PERSON_ORGANIZATION ( #207, #49, #150 ) ;
#63 =( CONVERSION_BASED_UNIT ( 'INCH', #115 ) LENGTH_UNIT ( ) NAMED_UNIT ( #72 ) );
#64 = ORIENTED_EDGE ( 'NONE', *, *, #351, .F. ) ;
#65 = EDGE_CURVE ( 'NONE', #206, #293, #300, .T. ) ;
#66 = COORDINATED_UNIVERSAL_TIME_OFFSET ( 1, 0, .AHEAD. ) ;
#67 = LINE ( 'NONE', #37, #386 ) ;
#68 = ORIENTED_EDGE ( 'NONE', *, *, #230, .F. ) ;
#69 = CARTESIAN_POINT ( 'NONE',  ( 1.889763779527559251, 0.1574803149606299191, 0.9842519685039370358 ) ) ;
#70 = CARTESIAN_POINT ( 'NONE',  ( 1.889763779527559251, 0.1574803149606299191, 1.053149606299212948 ) ) ;
#71 = VECTOR ( 'NONE', #144, 39.37007874015748143 ) ;
#72 = DIMENSIONAL_EXPONENTS ( 1.000000000000000000, 0.000000000000000000, 0.000000000000000000, 0.000000000000000000, 0.000000000000000000, 0.000000000000000000, 0.000000000000000000 ) ;
#73 = CARTESIAN_POINT ( 'NONE',  ( -1.889763779527559251, 0.000000000000000000, 0.9153543307086613456 ) ) ;
#74 = LINE ( 'NONE', #314, #240 ) ;
#75 = CARTESIAN_POINT ( 'NONE',  ( -2.322834645669291209, 0.1574803149606299191, 1.338582677165354395 ) ) ;
#76 = CARTESIAN_POINT ( 'NONE',  ( -1.889763779527559251, 0.1574803149606299191, 0.9842519685039370358 ) ) ;
#77 = CLOSED_SHELL ( 'NONE', ( #133, #10, #87, #104, #313, #311, #239, #280, #267, #170 ) ) ;
#78 = LOCAL_TIME ( 1, 39, 7.000000000000000000, #183 ) ;
#79 = DIRECTION ( 'NONE',  ( 0.000000000000000000, 1.000000000000000000, 0.000000000000000000 ) ) ;
#80 = AXIS2_PLACEMENT_3D ( 'NONE', #168, #109, #198 ) ;
#81 = DIRECTION ( 'NONE',  ( 1.000000000000000000, 0.000000000000000000, -0.000000000000000000 ) ) ;
#82 = VERTEX_POINT ( 'NONE', #345 ) ;
#83 = CARTESIAN_POINT ( 'NONE',  ( -2.322834645669291209, 0.1574803149606299191, -1.338582677165354395 ) ) ;
#84 = FACE_OUTER_BOUND ( 'NONE', #275, .T. ) ;
#85 = CALENDAR_DATE ( 2026, 10, 8 ) ;
#86 = ORIENTED_EDGE ( 'NONE', *, *, #242, .F. ) ;
#87 = ADVANCED_FACE ( 'NONE', ( #9, #197, #129 ), #312, .F. ) ;
#88 = APPROVAL_DATE_TIME ( #356, #22 ) ;
#89 = DIRECTION ( 'NONE',  ( 0.000000000000000000, 1.000000000000000000, 0.000000000000000000 ) ) ;
#90 = AXIS2_PLACEMENT_3D ( 'NONE', #254, #195, #101 ) ;
#91 = CC_DESIGN_DATE_AND_TIME_ASSIGNMENT ( #123, #243, ( #98 ) ) ;
#92 = EDGE_LOOP ( 'NONE', ( #145, #94, #273, #381 ) ) ;
#93 = APPROVAL_DATE_TIME ( #326, #49 ) ;
#94 = ORIENTED_EDGE ( 'NONE', *, *, #379, .T. ) ;
#95 = CARTESIAN_POINT ( 'NONE',  ( 0.000000000000000000, 0.000000000000000000, 0.000000000000000000 ) ) ;
#96 = ORIENTED_EDGE ( 'NONE', *, *, #61, .T. ) ;
#97 = CARTESIAN_POINT ( 'NONE',  ( -2.322834645669291209, 0.000000000000000000, 1.338582677165354395 ) ) ;
#98 = SECURITY_CLASSIFICATION ( '', '', #214 ) ;
#99 = CARTESIAN_POINT ( 'NONE',  ( -2.322834645669291209, 0.000000000000000000, -1.338582677165354395 ) ) ;
#100 = EDGE_CURVE ( 'NONE', #141, #293, #13, .T. ) ;
#101 = DIRECTION ( 'NONE',  ( 0.000000000000000000, -0.000000000000000000, -1.000000000000000000 ) ) ;
#102 = VECTOR ( 'NONE', #277, 39.37007874015748143 ) ;
#103 = DIRECTION ( 'NONE',  ( -0.000000000000000000, -1.000000000000000000, -0.000000000000000000 ) ) ;
#104 = ADVANCED_FACE ( 'NONE', ( #368, #130, #372 ), #105, .T. ) ;
#105 = PLANE ( 'NONE',  #322 ) ;
#106 = DIRECTION ( 'NONE',  ( -0.000000000000000000, -1.000000000000000000, -0.000000000000000000 ) ) ;
#107 = ORIENTED_EDGE ( 'NONE', *, *, #377, .T. ) ;
#108 = CIRCLE ( 'NONE', #341, 0.06889763779527578735 ) ;
#109 = DIRECTION ( 'NONE',  ( 0.000000000000000000, 1.000000000000000000, 0.000000000000000000 ) ) ;
#110 = CIRCLE ( 'NONE', #328, 0.06889763779527578735 ) ;
#111 = EDGE_LOOP ( 'NONE', ( #174, #30, #68, #306 ) ) ;
#112 = CC_DESIGN_APPROVAL ( #49, ( #297 ) ) ;
#113 = CARTESIAN_POINT ( 'NONE',  ( 1.889763779527559251, 0.1574803149606299191, 0.9842519685039370358 ) ) ;
#114 = DIRECTION ( 'NONE',  ( 0.000000000000000000, 1.000000000000000000, 0.000000000000000000 ) ) ;
#115 = LENGTH_MEASURE_WITH_UNIT ( LENGTH_MEASURE( 0.02539999999999999897 ), #52 );
#116 = DATE_AND_TIME ( #85, #78 ) ;
#117 = AXIS2_PLACEMENT_3D ( 'NONE', #137, #114, #233 ) ;
#118 = APPLICATION_CONTEXT ( 'configuration controlled 3d designs of mechanical parts and assemblies' ) ;
#119 = VERTEX_POINT ( 'NONE', #224 ) ;
#120 = PERSON_AND_ORGANIZATION ( #189, #387 ) ;
#121 = ORIENTED_EDGE ( 'NONE', *, *, #33, .T. ) ;
#122 = PRODUCT_DEFINITION ( 'UNKNOWN', '', #297, #191 ) ;
#123 = DATE_AND_TIME ( #186, #147 ) ;
#124 = ORIENTED_EDGE ( 'NONE', *, *, #196, .T. ) ;
#125 = AXIS2_PLACEMENT_3D ( 'NONE', #32, #89, #181 ) ;
#126 = COORDINATED_UNIVERSAL_TIME_OFFSET ( 1, 0, .AHEAD. ) ;
#127 = ORIENTED_EDGE ( 'NONE', *, *, #213, .T. ) ;
#128 = VERTEX_POINT ( 'NONE', #134 ) ;
#129 = FACE_BOUND ( 'NONE', #172, .T. ) ;
#130 = FACE_OUTER_BOUND ( 'NONE', #385, .T. ) ;
#131 = AXIS2_PLACEMENT_3D ( 'NONE', #382, #255, #283 ) ;
#132 = DIRECTION ( 'NONE',  ( -0.000000000000000000, -1.000000000000000000, -0.000000000000000000 ) ) ;
#133 = ADVANCED_FACE ( 'NONE', ( #315 ), #338, .F. ) ;
#134 = CARTESIAN_POINT ( 'NONE',  ( -1.889763779527559251, 0.000000000000000000, 1.053149606299212948 ) ) ;
#135 = CARTESIAN_POINT ( 'NONE',  ( 1.889763779527559251, 0.000000000000000000, 0.9153543307086613456 ) ) ;
#136 = PLANE ( 'NONE',  #298 ) ;
#137 = CARTESIAN_POINT ( 'NONE',  ( 1.889763779527559251, 0.000000000000000000, 0.9842519685039370358 ) ) ;
#138 = ORIENTED_EDGE ( 'NONE', *, *, #100, .F. ) ;
#139 = VECTOR ( 'NONE', #323, 39.37007874015748143 ) ;
#140 = FACE_OUTER_BOUND ( 'NONE', #358, .T. ) ;
#141 = VERTEX_POINT ( 'NONE', #99 ) ;
#142 = LINE ( 'NONE', #17, #220 ) ;
#143 = ORIENTED_EDGE ( 'NONE', *, *, #173, .T. ) ;
#144 = DIRECTION ( 'NONE',  ( 1.000000000000000000, 0.000000000000000000, 0.000000000000000000 ) ) ;
#145 = ORIENTED_EDGE ( 'NONE', *, *, #185, .F. ) ;
#146 = DATE_AND_TIME ( #27, #249 ) ;
#147 = LOCAL_TIME ( 1, 39, 7.000000000000000000, #66 ) ;
#148 = DIRECTION ( 'NONE',  ( -0.000000000000000000, -1.000000000000000000, -0.000000000000000000 ) ) ;
#149 = PRODUCT_DEFINITION_SHAPE ( 'NONE', 'NONE',  #122 ) ;
#150 = APPROVAL_ROLE ( '' ) ;
#151 = ORIENTED_EDGE ( 'NONE', *, *, #379, .F. ) ;
#152 = PERSON_AND_ORGANIZATION_ROLE ( 'classification_officer' ) ;
#153 = CYLINDRICAL_SURFACE ( 'NONE', #337, 0.06889763779527578735 ) ;
#154 = SHAPE_DEFINITION_REPRESENTATION ( #149, #270 ) ;
#155 = VERTEX_POINT ( 'NONE', #41 ) ;
#156 = CARTESIAN_POINT ( 'NONE',  ( 1.889763779527559251, 0.000000000000000000, 0.9842519685039370358 ) ) ;
#157 = EDGE_CURVE ( 'NONE', #349, #238, #222, .T. ) ;
#158 = CARTESIAN_POINT ( 'NONE',  ( 1.889763779527559251, 0.1574803149606299191, 1.053149606299212948 ) ) ;
#159 = VECTOR ( 'NONE', #250, 39.37007874015748143 ) ;
#160 = CARTESIAN_POINT ( 'NONE',  ( 2.322834645669291209, 0.1574803149606299191, -1.338582677165354395 ) ) ;
#161 = APPROVAL ( #292, 'UNSPECIFIED' ) ;
#162 = DIRECTION ( 'NONE',  ( 0.000000000000000000, 0.000000000000000000, -1.000000000000000000 ) ) ;
#163 = LINE ( 'NONE', #276, #310 ) ;
#164 = DIRECTION ( 'NONE',  ( -1.000000000000000000, 0.000000000000000000, -0.000000000000000000 ) ) ;
#165 = VECTOR ( 'NONE', #38, 39.37007874015748143 ) ;
#166 = CARTESIAN_POINT ( 'NONE',  ( 1.889763779527559251, 0.000000000000000000, 1.053149606299212948 ) ) ;
#167 = EDGE_CURVE ( 'NONE', #155, #169, #163, .T. ) ;
#168 = CARTESIAN_POINT ( 'NONE',  ( -1.889763779527559251, 0.1574803149606299191, 0.9842519685039370358 ) ) ;
#169 = VERTEX_POINT ( 'NONE', #160 ) ;
#170 = ADVANCED_FACE ( 'NONE', ( #253 ), #42, .F. ) ;
#171 = CARTESIAN_POINT ( 'NONE',  ( -2.322834645669291209, 0.1574803149606299191, -1.338582677165354395 ) ) ;
#172 = EDGE_LOOP ( 'NONE', ( #24, #151 ) ) ;
#173 = EDGE_CURVE ( 'NONE', #289, #141, #307, .T. ) ;
#174 = ORIENTED_EDGE ( 'NONE', *, *, #18, .T. ) ;
#175 = APPLICATION_PROTOCOL_DEFINITION ( 'international standard', 'config_control_design', 1994, #118 ) ;
#176 = ORIENTED_EDGE ( 'NONE', *, *, #330, .T. ) ;
#177 = APPROVAL_ROLE ( '' ) ;
#178 = VERTEX_POINT ( 'NONE', #73 ) ;
#179 = MECHANICAL_CONTEXT ( 'NONE', #241, 'mechanical' ) ;
#180 = LOCAL_TIME ( 1, 39, 7.000000000000000000, #294 ) ;
#181 = DIRECTION ( 'NONE',  ( 0.000000000000000000, 0.000000000000000000, 1.000000000000000000 ) ) ;
#182 = CIRCLE ( 'NONE', #80, 0.06889763779527578735 ) ;
#183 = COORDINATED_UNIVERSAL_TIME_OFFSET ( 1, 0, .AHEAD. ) ;
#184 = ORIENTED_EDGE ( 'NONE', *, *, #167, .F. ) ;
#185 = EDGE_CURVE ( 'NONE', #212, #349, #221, .T. ) ;
#186 = CALENDAR_DATE ( 2026, 10, 8 ) ;
#187 = ORIENTED_EDGE ( 'NONE', *, *, #257, .T. ) ;
#188 = ORIENTED_EDGE ( 'NONE', *, *, #18, .F. ) ;
#189 = PERSON ( 'UNSPECIFIED', 'UNSPECIFIED', 'UNSPECIFIED', ('UNSPECIFIED'), ('UNSPECIFIED'), ('UNSPECIFIED') ) ;
#190 = DIRECTION ( 'NONE',  ( -0.000000000000000000, -1.000000000000000000, -0.000000000000000000 ) ) ;
#191 = DESIGN_CONTEXT ( 'detailed design', #118, 'design' ) ;
#192 = DIRECTION ( 'NONE',  ( 0.000000000000000000, 0.000000000000000000, 1.000000000000000000 ) ) ;
#193 = CC_DESIGN_PERSON_AND_ORGANIZATION_ASSIGNMENT ( #304, #361, ( #122 ) ) ;
#194 = CARTESIAN_POINT ( 'NONE',  ( -1.889763779527559251, 0.000000000000000000, 0.9842519685039370358 ) ) ;
#195 = DIRECTION ( 'NONE',  ( 0.000000000000000000, -1.000000000000000000, 0.000000000000000000 ) ) ;
#196 = EDGE_CURVE ( 'NONE', #35, #212, #110, .T. ) ;
#197 = FACE_BOUND ( 'NONE', #202, .T. ) ;
#198 = DIRECTION ( 'NONE',  ( 0.000000000000000000, 0.000000000000000000, 1.000000000000000000 ) ) ;
#199 = CC_DESIGN_APPROVAL ( #22, ( #98 ) ) ;
#200 = EDGE_CURVE ( 'NONE', #289, #206, #309, .T. ) ;
#201 = PLANE ( 'NONE',  #131 ) ;
#202 = EDGE_LOOP ( 'NONE', ( #269, #48 ) ) ;
#203 = CARTESIAN_POINT ( 'NONE',  ( -2.322834645669291209, 0.000000000000000000, 1.338582677165354395 ) ) ;
#204 = CC_DESIGN_DATE_AND_TIME_ASSIGNMENT ( #116, #5, ( #122 ) ) ;
#205 = DIRECTION ( 'NONE',  ( 0.000000000000000000, 0.000000000000000000, 1.000000000000000000 ) ) ;
#206 = VERTEX_POINT ( 'NONE', #340 ) ;
#207 = PERSON_AND_ORGANIZATION ( #189, #387 ) ;
#208 = FACE_OUTER_BOUND ( 'NONE', #232, .T. ) ;
#209 = PRODUCT ( '23_Motor_Driver_Tray', '23_Motor_Driver_Tray', '', ( #179 ) ) ;
#210 = AXIS2_PLACEMENT_3D ( 'NONE', #156, #8, #251 ) ;
#211 = ORIENTED_EDGE ( 'NONE', *, *, #266, .F. ) ;
#212 = VERTEX_POINT ( 'NONE', #70 ) ;
#213 = EDGE_CURVE ( 'NONE', #178, #128, #108, .T. ) ;
#214 = SECURITY_CLASSIFICATION_LEVEL ( 'unclassified' ) ;
#215 = ORIENTED_EDGE ( 'NONE', *, *, #213, .F. ) ;
#216 = CARTESIAN_POINT ( 'NONE',  ( -1.889763779527559251, 0.1574803149606299191, 0.9842519685039370358 ) ) ;
#217 = APPROVAL_PERSON_ORGANIZATION ( #59, #161, #334 ) ;
#218 = DIRECTION ( 'NONE',  ( 0.000000000000000000, -0.000000000000000000, -1.000000000000000000 ) ) ;
#219 = DIRECTION ( 'NONE',  ( 0.000000000000000000, 0.000000000000000000, 1.000000000000000000 ) ) ;
#220 = VECTOR ( 'NONE', #234, 39.37007874015748143 ) ;
#221 = LINE ( 'NONE', #158, #102 ) ;
#222 = CIRCLE ( 'NONE', #210, 0.06889763779527578735 ) ;
#223 = CARTESIAN_POINT ( 'NONE',  ( 2.322834645669291209, 0.000000000000000000, -1.338582677165354395 ) ) ;
#224 = CARTESIAN_POINT ( 'NONE',  ( 2.322834645669291209, 0.000000000000000000, 1.338582677165354395 ) ) ;
#225 = CYLINDRICAL_SURFACE ( 'NONE', #12, 0.06889763779527578735 ) ;
#226 = ORIENTED_EDGE ( 'NONE', *, *, #257, .F. ) ;
#227 = CARTESIAN_POINT ( 'NONE',  ( -1.889763779527559251, 0.1574803149606299191, 1.053149606299212948 ) ) ;
#228 = VERTEX_POINT ( 'NONE', #223 ) ;
#229 = AXIS2_PLACEMENT_3D ( 'NONE', #113, #79, #19 ) ;
#230 = EDGE_CURVE ( 'NONE', #169, #289, #74, .T. ) ;
#231 = CARTESIAN_POINT ( 'NONE',  ( -2.322834645669291209, 0.000000000000000000, 1.338582677165354395 ) ) ;
#232 = EDGE_LOOP ( 'NONE', ( #96, #107, #215, #226 ) ) ;
#233 = DIRECTION ( 'NONE',  ( 0.000000000000000000, 0.000000000000000000, 1.000000000000000000 ) ) ;
#234 = DIRECTION ( 'NONE',  ( -0.000000000000000000, -1.000000000000000000, -0.000000000000000000 ) ) ;
#235 = ORIENTED_EDGE ( 'NONE', *, *, #252, .F. ) ;
#236 = AXIS2_PLACEMENT_3D ( 'NONE', #380, #285, #259 ) ;
#237 = CALENDAR_DATE ( 2026, 10, 8 ) ;
#238 = VERTEX_POINT ( 'NONE', #135 ) ;
#239 = ADVANCED_FACE ( 'NONE', ( #140 ), #346, .F. ) ;
#240 = VECTOR ( 'NONE', #282, 39.37007874015748143 ) ;
#241 = APPLICATION_CONTEXT ( 'configuration controlled 3d designs of mechanical parts and assemblies' ) ;
#242 = EDGE_CURVE ( 'NONE', #35, #238, #44, .T. ) ;
#243 = DATE_TIME_ROLE ( 'classification_date' ) ;
#244 = ORIENTED_EDGE ( 'NONE', *, *, #200, .F. ) ;
#245 = CC_DESIGN_PERSON_AND_ORGANIZATION_ASSIGNMENT ( #54, #354, ( #209 ) ) ;
#246 = LINE ( 'NONE', #327, #296 ) ;
#247 = EDGE_LOOP ( 'NONE', ( #6, #20, #262, #319 ) ) ;
#248 = DIRECTION ( 'NONE',  ( -0.000000000000000000, -1.000000000000000000, -0.000000000000000000 ) ) ;
#249 = LOCAL_TIME ( 1, 39, 7.000000000000000000, #388 ) ;
#250 = DIRECTION ( 'NONE',  ( -0.000000000000000000, -0.000000000000000000, 1.000000000000000000 ) ) ;
#251 = DIRECTION ( 'NONE',  ( 0.000000000000000000, 0.000000000000000000, 1.000000000000000000 ) ) ;
#252 = EDGE_CURVE ( 'NONE', #169, #228, #286, .T. ) ;
#253 = FACE_OUTER_BOUND ( 'NONE', #92, .T. ) ;
#254 = CARTESIAN_POINT ( 'NONE',  ( 0.000000000000000000, 0.1574803149606299191, 0.000000000000000000 ) ) ;
#255 = DIRECTION ( 'NONE',  ( 1.000000000000000000, -0.000000000000000000, 0.000000000000000000 ) ) ;
#256 = LINE ( 'NONE', #227, #284 ) ;
#257 = EDGE_CURVE ( 'NONE', #57, #178, #142, .T. ) ;
#258 = CARTESIAN_POINT ( 'NONE',  ( 1.889763779527559251, 0.1574803149606299191, 0.9153543307086613456 ) ) ;
#259 = DIRECTION ( 'NONE',  ( 0.000000000000000000, 0.000000000000000000, 1.000000000000000000 ) ) ;
#260 = ORIENTED_EDGE ( 'NONE', *, *, #58, .F. ) ;
#261 = DIRECTION ( 'NONE',  ( 0.000000000000000000, 0.000000000000000000, -1.000000000000000000 ) ) ;
#262 = ORIENTED_EDGE ( 'NONE', *, *, #167, .T. ) ;
#263 = ORIENTED_EDGE ( 'NONE', *, *, #65, .T. ) ;
#264 = CIRCLE ( 'NONE', #125, 0.06889763779527578735 ) ;
#265 = CARTESIAN_POINT ( 'NONE',  ( 1.889763779527559251, 0.1574803149606299191, 0.9153543307086613456 ) ) ;
#266 = EDGE_CURVE ( 'NONE', #293, #119, #353, .T. ) ;
#267 = ADVANCED_FACE ( 'NONE', ( #84 ), #225, .F. ) ;
#268 = PERSON_AND_ORGANIZATION_ROLE ( 'design_supplier' ) ;
#269 = ORIENTED_EDGE ( 'NONE', *, *, #61, .F. ) ;
#270 = ADVANCED_BREP_SHAPE_REPRESENTATION ( '23_Motor_Driver_Tray', ( #28, #278 ), #348 ) ;
#271 = PRODUCT_RELATED_PRODUCT_CATEGORY ( 'detail', '', ( #209 ) ) ;
#272 = AXIS2_PLACEMENT_3D ( 'NONE', #344, #248, #363 ) ;
#273 = ORIENTED_EDGE ( 'NONE', *, *, #242, .T. ) ;
#274 =( NAMED_UNIT ( * ) PLANE_ANGLE_UNIT ( ) SI_UNIT ( $, .RADIAN. ) );
#275 = EDGE_LOOP ( 'NONE', ( #53, #176, #187, #64 ) ) ;
#276 = CARTESIAN_POINT ( 'NONE',  ( 2.322834645669291209, 0.1574803149606299191, 1.338582677165354395 ) ) ;
#277 = DIRECTION ( 'NONE',  ( -0.000000000000000000, -1.000000000000000000, -0.000000000000000000 ) ) ;
#278 = AXIS2_PLACEMENT_3D ( 'NONE', #95, #299, #2 ) ;
#279 = DIRECTION ( 'NONE',  ( 0.000000000000000000, 0.000000000000000000, -1.000000000000000000 ) ) ;
#280 = ADVANCED_FACE ( 'NONE', ( #321 ), #375, .F. ) ;
#281 = DIRECTION ( 'NONE',  ( 0.000000000000000000, -1.000000000000000000, 0.000000000000000000 ) ) ;
#282 = DIRECTION ( 'NONE',  ( -1.000000000000000000, -0.000000000000000000, -0.000000000000000000 ) ) ;
#283 = DIRECTION ( 'NONE',  ( 0.000000000000000000, 0.000000000000000000, -1.000000000000000000 ) ) ;
#284 = VECTOR ( 'NONE', #347, 39.37007874015748143 ) ;
#285 = DIRECTION ( 'NONE',  ( 0.000000000000000000, 1.000000000000000000, 0.000000000000000000 ) ) ;
#286 = LINE ( 'NONE', #373, #139 ) ;
#287 = ORIENTED_EDGE ( 'NONE', *, *, #100, .T. ) ;
#288 = FACE_OUTER_BOUND ( 'NONE', #3, .T. ) ;
#289 = VERTEX_POINT ( 'NONE', #171 ) ;
#290 = CIRCLE ( 'NONE', #236, 0.06889763779527578735 ) ;
#291 = ORIENTED_EDGE ( 'NONE', *, *, #266, .T. ) ;
#292 = APPROVAL_STATUS ( 'not_yet_approved' ) ;
#293 = VERTEX_POINT ( 'NONE', #203 ) ;
#294 = COORDINATED_UNIVERSAL_TIME_OFFSET ( 1, 0, .AHEAD. ) ;
#295 = ORIENTED_EDGE ( 'NONE', *, *, #65, .F. ) ;
#296 = VECTOR ( 'NONE', #336, 39.37007874015748143 ) ;
#297 = PRODUCT_DEFINITION_FORMATION_WITH_SPECIFIED_SOURCE ( 'ANY', '', #209, .NOT_KNOWN. ) ;
#298 = AXIS2_PLACEMENT_3D ( 'NONE', #47, #261, #164 ) ;
#299 = DIRECTION ( 'NONE',  ( 0.000000000000000000, 0.000000000000000000, 1.000000000000000000 ) ) ;
#300 = LINE ( 'NONE', #75, #376 ) ;
#301 = CC_DESIGN_PERSON_AND_ORGANIZATION_ASSIGNMENT ( #34, #152, ( #98 ) ) ;
#302 = PERSON_AND_ORGANIZATION_ROLE ( 'creator' ) ;
#303 = EDGE_LOOP ( 'NONE', ( #287, #295, #244, #143 ) ) ;
#304 = PERSON_AND_ORGANIZATION ( #189, #387 ) ;
#305 = ORIENTED_EDGE ( 'NONE', *, *, #371, .F. ) ;
#306 = ORIENTED_EDGE ( 'NONE', *, *, #252, .T. ) ;
#307 = LINE ( 'NONE', #39, #21 ) ;
#308 = VECTOR ( 'NONE', #378, 39.37007874015748143 ) ;
#309 = LINE ( 'NONE', #15, #159 ) ;
#310 = VECTOR ( 'NONE', #279, 39.37007874015748143 ) ;
#311 = ADVANCED_FACE ( 'NONE', ( #288 ), #136, .F. ) ;
#312 = PLANE ( 'NONE',  #90 ) ;
#313 = ADVANCED_FACE ( 'NONE', ( #352 ), #201, .F. ) ;
#314 = CARTESIAN_POINT ( 'NONE',  ( -2.322834645669291209, 0.1574803149606299191, -1.338582677165354395 ) ) ;
#315 = FACE_OUTER_BOUND ( 'NONE', #55, .T. ) ;
#316 = LINE ( 'NONE', #46, #365 ) ;
#317 = CIRCLE ( 'NONE', #117, 0.06889763779527578735 ) ;
#318 = DIRECTION ( 'NONE',  ( -1.000000000000000000, 0.000000000000000000, 0.000000000000000000 ) ) ;
#319 = ORIENTED_EDGE ( 'NONE', *, *, #230, .T. ) ;
#320 = CC_DESIGN_SECURITY_CLASSIFICATION ( #98, ( #297 ) ) ;
#321 = FACE_OUTER_BOUND ( 'NONE', #111, .T. ) ;
#322 = AXIS2_PLACEMENT_3D ( 'NONE', #14, #281, #218 ) ;
#323 = DIRECTION ( 'NONE',  ( -0.000000000000000000, -1.000000000000000000, -0.000000000000000000 ) ) ;
#324 = APPLICATION_PROTOCOL_DEFINITION ( 'international standard', 'config_control_design', 1994, #241 ) ;
#325 = ORIENTED_EDGE ( 'NONE', *, *, #185, .T. ) ;
#326 = DATE_AND_TIME ( #359, #11 ) ;
#327 = CARTESIAN_POINT ( 'NONE',  ( 2.322834645669291209, 0.000000000000000000, 1.338582677165354395 ) ) ;
#328 = AXIS2_PLACEMENT_3D ( 'NONE', #369, #366, #219 ) ;
#329 = PERSON_AND_ORGANIZATION ( #189, #387 ) ;
#330 = EDGE_CURVE ( 'NONE', #82, #57, #182, .T. ) ;
#331 = DIRECTION ( 'NONE',  ( 0.000000000000000000, 0.000000000000000000, -1.000000000000000000 ) ) ;
#332 = APPROVAL_STATUS ( 'not_yet_approved' ) ;
#333 = ORIENTED_EDGE ( 'NONE', *, *, #351, .T. ) ;
#334 = APPROVAL_ROLE ( '' ) ;
#335 = LINE ( 'NONE', #60, #165 ) ;
#336 = DIRECTION ( 'NONE',  ( 0.000000000000000000, 0.000000000000000000, -1.000000000000000000 ) ) ;
#337 = AXIS2_PLACEMENT_3D ( 'NONE', #216, #148, #331 ) ;
#338 = CYLINDRICAL_SURFACE ( 'NONE', #51, 0.06889763779527578735 ) ;
#339 = EDGE_CURVE ( 'NONE', #155, #119, #316, .T. ) ;
#340 = CARTESIAN_POINT ( 'NONE',  ( -2.322834645669291209, 0.1574803149606299191, 1.338582677165354395 ) ) ;
#341 = AXIS2_PLACEMENT_3D ( 'NONE', #194, #342, #192 ) ;
#342 = DIRECTION ( 'NONE',  ( 0.000000000000000000, 1.000000000000000000, 0.000000000000000000 ) ) ;
#343 = CC_DESIGN_PERSON_AND_ORGANIZATION_ASSIGNMENT ( #120, #302, ( #297 ) ) ;
#344 = CARTESIAN_POINT ( 'NONE',  ( 1.889763779527559251, 0.1574803149606299191, 0.9842519685039370358 ) ) ;
#345 = CARTESIAN_POINT ( 'NONE',  ( -1.889763779527559251, 0.1574803149606299191, 1.053149606299212948 ) ) ;
#346 = PLANE ( 'NONE',  #40 ) ;
#347 = DIRECTION ( 'NONE',  ( -0.000000000000000000, -1.000000000000000000, -0.000000000000000000 ) ) ;
#348 =( GEOMETRIC_REPRESENTATION_CONTEXT ( 3 ) GLOBAL_UNCERTAINTY_ASSIGNED_CONTEXT ( ( #370 ) ) GLOBAL_UNIT_ASSIGNED_CONTEXT ( ( #63, #274, #29 ) ) REPRESENTATION_CONTEXT ( 'NONE', 'WORKASPACE' ) );
#349 = VERTEX_POINT ( 'NONE', #166 ) ;
#350 = AXIS2_PLACEMENT_3D ( 'NONE', #83, #205, #81 ) ;
#351 = EDGE_CURVE ( 'NONE', #128, #178, #290, .T. ) ;
#352 = FACE_OUTER_BOUND ( 'NONE', #303, .T. ) ;
#353 = LINE ( 'NONE', #231, #71 ) ;
#354 = PERSON_AND_ORGANIZATION_ROLE ( 'design_owner' ) ;
#355 = ORIENTED_EDGE ( 'NONE', *, *, #33, .F. ) ;
#356 = DATE_AND_TIME ( #237, #180 ) ;
#357 = DIRECTION ( 'NONE',  ( 1.000000000000000000, 0.000000000000000000, 0.000000000000000000 ) ) ;
#358 = EDGE_LOOP ( 'NONE', ( #121, #235, #184, #362 ) ) ;
#359 = CALENDAR_DATE ( 2026, 10, 8 ) ;
#360 = EDGE_LOOP ( 'NONE', ( #374, #7 ) ) ;
#361 = PERSON_AND_ORGANIZATION_ROLE ( 'creator' ) ;
#362 = ORIENTED_EDGE ( 'NONE', *, *, #339, .T. ) ;
#363 = DIRECTION ( 'NONE',  ( 0.000000000000000000, 0.000000000000000000, -1.000000000000000000 ) ) ;
#364 = APPROVAL_PERSON_ORGANIZATION ( #56, #22, #177 ) ;
#365 = VECTOR ( 'NONE', #23, 39.37007874015748143 ) ;
#366 = DIRECTION ( 'NONE',  ( 0.000000000000000000, 1.000000000000000000, 0.000000000000000000 ) ) ;
#367 = CC_DESIGN_PERSON_AND_ORGANIZATION_ASSIGNMENT ( #329, #268, ( #297 ) ) ;
#368 = FACE_BOUND ( 'NONE', #383, .T. ) ;
#369 = CARTESIAN_POINT ( 'NONE',  ( 1.889763779527559251, 0.1574803149606299191, 0.9842519685039370358 ) ) ;
#370 = UNCERTAINTY_MEASURE_WITH_UNIT (LENGTH_MEASURE( 1.000000000000000082E-05 ), #63, 'distance_accuracy_value', 'NONE');
#371 = EDGE_CURVE ( 'NONE', #238, #349, #317, .T. ) ;
#372 = FACE_BOUND ( 'NONE', #360, .T. ) ;
#373 = CARTESIAN_POINT ( 'NONE',  ( 2.322834645669291209, 0.1574803149606299191, -1.338582677165354395 ) ) ;
#374 = ORIENTED_EDGE ( 'NONE', *, *, #371, .T. ) ;
#375 = PLANE ( 'NONE',  #350 ) ;
#376 = VECTOR ( 'NONE', #103, 39.37007874015748143 ) ;
#377 = EDGE_CURVE ( 'NONE', #82, #128, #256, .T. ) ;
#378 = DIRECTION ( 'NONE',  ( -0.000000000000000000, -1.000000000000000000, -0.000000000000000000 ) ) ;
#379 = EDGE_CURVE ( 'NONE', #212, #35, #31, .T. ) ;
#380 = CARTESIAN_POINT ( 'NONE',  ( -1.889763779527559251, 0.000000000000000000, 0.9842519685039370358 ) ) ;
#381 = ORIENTED_EDGE ( 'NONE', *, *, #157, .F. ) ;
#382 = CARTESIAN_POINT ( 'NONE',  ( -2.322834645669291209, 0.1574803149606299191, 1.338582677165354395 ) ) ;
#383 = EDGE_LOOP ( 'NONE', ( #127, #333 ) ) ;
#384 = APPROVAL_DATE_TIME ( #146, #161 ) ;
#385 = EDGE_LOOP ( 'NONE', ( #138, #188, #355, #211 ) ) ;
#386 = VECTOR ( 'NONE', #357, 39.37007874015748143 ) ;
#387 = ORGANIZATION ( 'UNSPECIFIED', 'UNSPECIFIED', '' ) ;
#388 = COORDINATED_UNIVERSAL_TIME_OFFSET ( 1, 0, .AHEAD. ) ;
ENDSEC;
END-ISO-10303-21;
