ISO-10303-21;
HEADER;
FILE_DESCRIPTION (( 'STEP AP203' ),
    '1' );
FILE_NAME ('24_Manual_Override.STEP',
    '2026-08-10T00:39:09',
    ( '' ),
    ( '' ),
    'SwSTEP 2.0',
    'SolidWorks 2026',
    '' );
FILE_SCHEMA (( 'CONFIG_CONTROL_DESIGN' ));
ENDSEC;

DATA;
#1 = VERTEX_POINT ( 'NONE', #275 ) ;
#2 = VERTEX_POINT ( 'NONE', #312 ) ;
#3 = LINE ( 'NONE', #240, #207 ) ;
#4 = EDGE_LOOP ( 'NONE', ( #308, #216 ) ) ;
#5 = DIRECTION ( 'NONE',  ( 0.8660254037844391517, 0.000000000000000000, 0.4999999999999990008 ) ) ;
#6 = CARTESIAN_POINT ( 'NONE',  ( 6.249102285507001792E-15, 1.181102362204724310, 0.6819097667594002932 ) ) ;
#7 = PLANE ( 'NONE',  #366 ) ;
#8 = CC_DESIGN_DATE_AND_TIME_ASSIGNMENT ( #27, #141, ( #11 ) ) ;
#9 = CARTESIAN_POINT ( 'NONE',  ( 0.5905511811023621549, 1.181102362204724310, -0.3409548833797001466 ) ) ;
#10 = UNCERTAINTY_MEASURE_WITH_UNIT (LENGTH_MEASURE( 1.000000000000000082E-05 ), #301, 'distance_accuracy_value', 'NONE');
#11 = PRODUCT_DEFINITION ( 'UNKNOWN', '', #201, #243 ) ;
#12 = ORIENTED_EDGE ( 'NONE', *, *, #148, .F. ) ;
#13 = DATE_AND_TIME ( #190, #82 ) ;
#14 = PLANE ( 'NONE',  #46 ) ;
#15 = ORIENTED_EDGE ( 'NONE', *, *, #169, .F. ) ;
#16 = LENGTH_MEASURE_WITH_UNIT ( LENGTH_MEASURE( 0.02539999999999999897 ), #220 );
#17 = ORIENTED_EDGE ( 'NONE', *, *, #126, .T. ) ;
#18 = CARTESIAN_POINT ( 'NONE',  ( 0.5905511811023659297, 1.181102362204724310, 0.3409548833796933187 ) ) ;
#19 = VECTOR ( 'NONE', #358, 39.37007874015748143 ) ;
#20 = EDGE_LOOP ( 'NONE', ( #322, #368, #290, #206 ) ) ;
#21 = EDGE_CURVE ( 'NONE', #2, #209, #74, .T. ) ;
#22 = APPROVAL_ROLE ( '' ) ;
#23 = CARTESIAN_POINT ( 'NONE',  ( 0.000000000000000000, 0.000000000000000000, 0.000000000000000000 ) ) ;
#24 = PERSON_AND_ORGANIZATION ( #295, #363 ) ;
#25 = CARTESIAN_POINT ( 'NONE',  ( 0.5905511811023621549, 1.181102362204724310, -0.3409548833797001466 ) ) ;
#26 = EDGE_CURVE ( 'NONE', #138, #90, #54, .T. ) ;
#27 = DATE_AND_TIME ( #200, #36 ) ;
#28 = VECTOR ( 'NONE', #231, 39.37007874015748143 ) ;
#29 = FACE_OUTER_BOUND ( 'NONE', #325, .T. ) ;
#30 = EDGE_LOOP ( 'NONE', ( #87, #192, #336, #337 ) ) ;
#31 = ORIENTED_EDGE ( 'NONE', *, *, #364, .F. ) ;
#32 = AXIS2_PLACEMENT_3D ( 'NONE', #152, #98, #214 ) ;
#33 = DIRECTION ( 'NONE',  ( 0.000000000000000000, 1.000000000000000000, 0.000000000000000000 ) ) ;
#34 = EDGE_CURVE ( 'NONE', #350, #264, #105, .T. ) ;
#35 = ORIENTED_EDGE ( 'NONE', *, *, #202, .T. ) ;
#36 = LOCAL_TIME ( 1, 39, 9.000000000000000000, #317 ) ;
#37 = DIRECTION ( 'NONE',  ( 0.8660254037844369313, 0.000000000000000000, -0.5000000000000027756 ) ) ;
#38 = EDGE_CURVE ( 'NONE', #90, #2, #346, .T. ) ;
#39 = LINE ( 'NONE', #125, #362 ) ;
#40 = AXIS2_PLACEMENT_3D ( 'NONE', #324, #33, #256 ) ;
#41 = DIRECTION ( 'NONE',  ( 0.8660254037844425934, 0.000000000000000000, 0.4999999999999930611 ) ) ;
#42 = PRODUCT ( '24_Manual_Override', '24_Manual_Override', '', ( #48 ) ) ;
#43 = DIRECTION ( 'NONE',  ( -0.000000000000000000, -1.000000000000000000, -0.000000000000000000 ) ) ;
#44 = EDGE_CURVE ( 'NONE', #63, #264, #225, .T. ) ;
#45 = VECTOR ( 'NONE', #110, 39.37007874015748854 ) ;
#46 = AXIS2_PLACEMENT_3D ( 'NONE', #166, #136, #253 ) ;
#47 = LINE ( 'NONE', #257, #302 ) ;
#48 = MECHANICAL_CONTEXT ( 'NONE', #251, 'mechanical' ) ;
#49 = VERTEX_POINT ( 'NONE', #307 ) ;
#50 = CARTESIAN_POINT ( 'NONE',  ( -0.5905511811023635982, 1.181102362204724310, -0.3409548833796975376 ) ) ;
#51 = CIRCLE ( 'NONE', #331, 0.3937007874015778786 ) ;
#52 = COORDINATED_UNIVERSAL_TIME_OFFSET ( 1, 0, .AHEAD. ) ;
#53 = EDGE_CURVE ( 'NONE', #176, #209, #47, .T. ) ;
#54 = LINE ( 'NONE', #371, #159 ) ;
#55 = APPROVAL_ROLE ( '' ) ;
#56 = CARTESIAN_POINT ( 'NONE',  ( -0.5905511811023635982, 0.000000000000000000, -0.3409548833796975376 ) ) ;
#57 = PRODUCT_DEFINITION_SHAPE ( 'NONE', 'NONE',  #11 ) ;
#58 = PERSON_AND_ORGANIZATION ( #295, #363 ) ;
#59 = EDGE_LOOP ( 'NONE', ( #208, #288, #15, #174 ) ) ;
#60 = ORIENTED_EDGE ( 'NONE', *, *, #38, .F. ) ;
#61 = EDGE_LOOP ( 'NONE', ( #217, #276, #164, #219 ) ) ;
#62 = CIRCLE ( 'NONE', #271, 0.3937007874015778786 ) ;
#63 = VERTEX_POINT ( 'NONE', #284 ) ;
#64 = FACE_BOUND ( 'NONE', #4, .T. ) ;
#65 = ADVANCED_BREP_SHAPE_REPRESENTATION ( '24_Manual_Override', ( #133, #116 ), #179 ) ;
#66 = FACE_OUTER_BOUND ( 'NONE', #260, .T. ) ;
#67 = LINE ( 'NONE', #357, #99 ) ;
#68 = DIRECTION ( 'NONE',  ( -0.000000000000000000, -1.000000000000000000, -0.000000000000000000 ) ) ;
#69 = LINE ( 'NONE', #189, #160 ) ;
#70 = AXIS2_PLACEMENT_3D ( 'NONE', #23, #282, #134 ) ;
#71 = EDGE_LOOP ( 'NONE', ( #353, #245, #175, #146 ) ) ;
#72 = ORIENTED_EDGE ( 'NONE', *, *, #263, .T. ) ;
#73 = DIRECTION ( 'NONE',  ( -0.8660254037844369313, 0.000000000000000000, 0.5000000000000027756 ) ) ;
#74 = LINE ( 'NONE', #165, #79 ) ;
#75 = DIRECTION ( 'NONE',  ( 1.000000000000000000, 0.000000000000000000, 0.000000000000000000 ) ) ;
#76 = APPROVAL ( #112, 'UNSPECIFIED' ) ;
#77 = DIRECTION ( 'NONE',  ( -0.8660254037844391517, 0.000000000000000000, -0.4999999999999988898 ) ) ;
#78 = DATE_TIME_ROLE ( 'classification_date' ) ;
#79 = VECTOR ( 'NONE', #341, 39.37007874015748143 ) ;
#80 = DIRECTION ( 'NONE',  ( -1.000000000000000000, 0.000000000000000000, 5.608641168618786741E-15 ) ) ;
#81 = APPROVAL_STATUS ( 'not_yet_approved' ) ;
#82 = LOCAL_TIME ( 1, 39, 9.000000000000000000, #102 ) ;
#83 = CARTESIAN_POINT ( 'NONE',  ( 0.000000000000000000, 1.181102362204724310, 0.000000000000000000 ) ) ;
#84 = DIRECTION ( 'NONE',  ( 5.708795475201195839E-15, 0.000000000000000000, 1.000000000000000000 ) ) ;
#85 = APPROVAL_DATE_TIME ( #109, #360 ) ;
#86 = CARTESIAN_POINT ( 'NONE',  ( 4.821444091131349734E-17, 0.000000000000000000, 0.3937007874015778786 ) ) ;
#87 = ORIENTED_EDGE ( 'NONE', *, *, #359, .T. ) ;
#88 = AXIS2_PLACEMENT_3D ( 'NONE', #326, #213, #5 ) ;
#89 = ORIENTED_EDGE ( 'NONE', *, *, #169, .T. ) ;
#90 = VERTEX_POINT ( 'NONE', #56 ) ;
#91 = ORIENTED_EDGE ( 'NONE', *, *, #364, .T. ) ;
#92 = EDGE_CURVE ( 'NONE', #176, #178, #170, .T. ) ;
#93 = FACE_OUTER_BOUND ( 'NONE', #232, .T. ) ;
#94 = APPROVAL ( #255, 'UNSPECIFIED' ) ;
#95 = FACE_OUTER_BOUND ( 'NONE', #107, .T. ) ;
#96 = CC_DESIGN_APPROVAL ( #94, ( #11 ) ) ;
#97 = CARTESIAN_POINT ( 'NONE',  ( -0.5905511811023597124, 1.181102362204724310, 0.3409548833797041434 ) ) ;
#98 = DIRECTION ( 'NONE',  ( -0.000000000000000000, -1.000000000000000000, -0.000000000000000000 ) ) ;
#99 = VECTOR ( 'NONE', #294, 39.37007874015748143 ) ;
#100 = PLANE ( 'NONE',  #311 ) ;
#101 = VECTOR ( 'NONE', #73, 39.37007874015748143 ) ;
#102 = COORDINATED_UNIVERSAL_TIME_OFFSET ( 1, 0, .AHEAD. ) ;
#103 = EDGE_CURVE ( 'NONE', #119, #104, #238, .T. ) ;
#104 = VERTEX_POINT ( 'NONE', #86 ) ;
#105 = LINE ( 'NONE', #25, #28 ) ;
#106 = CC_DESIGN_DATE_AND_TIME_ASSIGNMENT ( #340, #78, ( #259 ) ) ;
#107 = EDGE_LOOP ( 'NONE', ( #72, #89, #91, #252, #35, #236 ) ) ;
#108 = CARTESIAN_POINT ( 'NONE',  ( -1.502516396515344672E-15, 0.000000000000000000, -0.6819097667594002932 ) ) ;
#109 = DATE_AND_TIME ( #345, #142 ) ;
#110 = DIRECTION ( 'NONE',  ( 0.8660254037844333785, 0.000000000000000000, -0.5000000000000088818 ) ) ;
#111 = ADVANCED_FACE ( 'NONE', ( #115 ), #229, .F. ) ;
#112 = APPROVAL_STATUS ( 'not_yet_approved' ) ;
#113 = VECTOR ( 'NONE', #84, 39.37007874015748143 ) ;
#114 = CARTESIAN_POINT ( 'NONE',  ( 0.5905511811023621549, 1.181102362204724310, -0.3409548833797001466 ) ) ;
#115 = FACE_OUTER_BOUND ( 'NONE', #61, .T. ) ;
#116 = AXIS2_PLACEMENT_3D ( 'NONE', #135, #248, #75 ) ;
#117 = APPROVAL_ROLE ( '' ) ;
#118 = APPROVAL_PERSON_ORGANIZATION ( #24, #94, #55 ) ;
#119 = VERTEX_POINT ( 'NONE', #172 ) ;
#120 = ADVANCED_FACE ( 'NONE', ( #29, #199 ), #205, .F. ) ;
#121 = ORIENTED_EDGE ( 'NONE', *, *, #103, .F. ) ;
#122 = PRODUCT_RELATED_PRODUCT_CATEGORY ( 'detail', '', ( #42 ) ) ;
#123 = ORIENTED_EDGE ( 'NONE', *, *, #44, .F. ) ;
#124 = EDGE_CURVE ( 'NONE', #49, #2, #246, .T. ) ;
#125 = CARTESIAN_POINT ( 'NONE',  ( 0.000000000000000000, 1.181102362204724310, -0.3937007874015778786 ) ) ;
#126 = EDGE_CURVE ( 'NONE', #104, #119, #62, .T. ) ;
#127 = VERTEX_POINT ( 'NONE', #369 ) ;
#128 = CYLINDRICAL_SURFACE ( 'NONE', #32, 0.3937007874015778786 ) ;
#129 = CARTESIAN_POINT ( 'NONE',  ( -1.502516396515344672E-15, 1.181102362204724310, -0.6819097667594002932 ) ) ;
#130 = CARTESIAN_POINT ( 'NONE',  ( 0.000000000000000000, 1.181102362204724310, 0.000000000000000000 ) ) ;
#131 = PLANE ( 'NONE',  #88 ) ;
#132 = VECTOR ( 'NONE', #193, 39.37007874015748143 ) ;
#133 = MANIFOLD_SOLID_BREP ( 'Override_30mm_Hex_Hub', #355 ) ;
#134 = DIRECTION ( 'NONE',  ( 0.000000000000000000, 0.000000000000000000, 1.000000000000000000 ) ) ;
#135 = CARTESIAN_POINT ( 'NONE',  ( 0.000000000000000000, 0.000000000000000000, 0.000000000000000000 ) ) ;
#136 = DIRECTION ( 'NONE',  ( 0.4999999999999930611, 0.000000000000000000, -0.8660254037844425934 ) ) ;
#137 = DIRECTION ( 'NONE',  ( 0.000000000000000000, 1.000000000000000000, 0.000000000000000000 ) ) ;
#138 = VERTEX_POINT ( 'NONE', #108 ) ;
#139 = PERSON_AND_ORGANIZATION ( #295, #363 ) ;
#140 = DIRECTION ( 'NONE',  ( -5.608641168618786741E-15, 0.000000000000000000, -1.000000000000000000 ) ) ;
#141 = DATE_TIME_ROLE ( 'creation_date' ) ;
#142 = LOCAL_TIME ( 1, 39, 9.000000000000000000, #258 ) ;
#143 = ORIENTED_EDGE ( 'NONE', *, *, #126, .F. ) ;
#144 = ORIENTED_EDGE ( 'NONE', *, *, #188, .F. ) ;
#145 = VECTOR ( 'NONE', #343, 39.37007874015748854 ) ;
#146 = ORIENTED_EDGE ( 'NONE', *, *, #124, .T. ) ;
#147 = VECTOR ( 'NONE', #249, 39.37007874015748143 ) ;
#148 = EDGE_CURVE ( 'NONE', #264, #138, #222, .T. ) ;
#149 = LINE ( 'NONE', #191, #101 ) ;
#150 = LOCAL_TIME ( 1, 39, 9.000000000000000000, #168 ) ;
#151 = ORIENTED_EDGE ( 'NONE', *, *, #158, .F. ) ;
#152 = CARTESIAN_POINT ( 'NONE',  ( 0.000000000000000000, 1.181102362204724310, 0.000000000000000000 ) ) ;
#153 = DIRECTION ( 'NONE',  ( 0.000000000000000000, -0.000000000000000000, 1.000000000000000000 ) ) ;
#154 = CARTESIAN_POINT ( 'NONE',  ( 6.249102285507001792E-15, 0.000000000000000000, 0.6819097667594002932 ) ) ;
#155 = CARTESIAN_POINT ( 'NONE',  ( -0.5905511811023635982, 1.181102362204724310, -0.3409548833796975376 ) ) ;
#156 = CC_DESIGN_PERSON_AND_ORGANIZATION_ASSIGNMENT ( #139, #223, ( #259 ) ) ;
#157 = PERSON_AND_ORGANIZATION_ROLE ( 'design_owner' ) ;
#158 = EDGE_CURVE ( 'NONE', #127, #90, #196, .T. ) ;
#159 = VECTOR ( 'NONE', #365, 39.37007874015748143 ) ;
#160 = VECTOR ( 'NONE', #299, 39.37007874015748854 ) ;
#161 = EDGE_CURVE ( 'NONE', #285, #348, #167, .T. ) ;
#162 = APPROVAL_PERSON_ORGANIZATION ( #342, #360, #117 ) ;
#163 = DIRECTION ( 'NONE',  ( 0.000000000000000000, -0.000000000000000000, 1.000000000000000000 ) ) ;
#164 = ORIENTED_EDGE ( 'NONE', *, *, #263, .F. ) ;
#165 = CARTESIAN_POINT ( 'NONE',  ( -0.5905511811023597124, 0.000000000000000000, 0.3409548833797041434 ) ) ;
#166 = CARTESIAN_POINT ( 'NONE',  ( -0.5905511811023597124, 1.181102362204724310, 0.3409548833797041434 ) ) ;
#167 = CIRCLE ( 'NONE', #40, 0.3937007874015778786 ) ;
#168 = COORDINATED_UNIVERSAL_TIME_OFFSET ( 1, 0, .AHEAD. ) ;
#169 = EDGE_CURVE ( 'NONE', #350, #1, #374, .T. ) ;
#170 = LINE ( 'NONE', #279, #45 ) ;
#171 = APPROVAL_DATE_TIME ( #314, #94 ) ;
#172 = CARTESIAN_POINT ( 'NONE',  ( 0.000000000000000000, 0.000000000000000000, -0.3937007874015778786 ) ) ;
#173 = EDGE_CURVE ( 'NONE', #348, #285, #51, .T. ) ;
#174 = ORIENTED_EDGE ( 'NONE', *, *, #34, .T. ) ;
#175 = ORIENTED_EDGE ( 'NONE', *, *, #202, .F. ) ;
#176 = VERTEX_POINT ( 'NONE', #320 ) ;
#177 = AXIS2_PLACEMENT_3D ( 'NONE', #218, #318, #163 ) ;
#178 = VERTEX_POINT ( 'NONE', #181 ) ;
#179 =( GEOMETRIC_REPRESENTATION_CONTEXT ( 3 ) GLOBAL_UNCERTAINTY_ASSIGNED_CONTEXT ( ( #10 ) ) GLOBAL_UNIT_ASSIGNED_CONTEXT ( ( #301, #187, #367 ) ) REPRESENTATION_CONTEXT ( 'NONE', 'WORKASPACE' ) );
#180 = DIRECTION ( 'NONE',  ( 0.000000000000000000, 1.000000000000000000, 0.000000000000000000 ) ) ;
#181 = CARTESIAN_POINT ( 'NONE',  ( 0.5905511811023659297, 1.181102362204724310, 0.3409548833796933187 ) ) ;
#182 = LINE ( 'NONE', #97, #198 ) ;
#183 = VECTOR ( 'NONE', #351, 39.37007874015748143 ) ;
#184 = EDGE_CURVE ( 'NONE', #285, #104, #67, .T. ) ;
#185 = DIRECTION ( 'NONE',  ( -0.5000000000000089928, 0.000000000000000000, -0.8660254037844334896 ) ) ;
#186 = CC_DESIGN_PERSON_AND_ORGANIZATION_ASSIGNMENT ( #230, #228, ( #11 ) ) ;
#187 =( NAMED_UNIT ( * ) PLANE_ANGLE_UNIT ( ) SI_UNIT ( $, .RADIAN. ) );
#188 = EDGE_CURVE ( 'NONE', #348, #119, #39, .T. ) ;
#189 = CARTESIAN_POINT ( 'NONE',  ( 6.249102285507001792E-15, 0.000000000000000000, 0.6819097667594002932 ) ) ;
#190 = CALENDAR_DATE ( 2026, 10, 8 ) ;
#191 = CARTESIAN_POINT ( 'NONE',  ( -1.502516396515344672E-15, 1.181102362204724310, -0.6819097667594002932 ) ) ;
#192 = ORIENTED_EDGE ( 'NONE', *, *, #378, .F. ) ;
#193 = DIRECTION ( 'NONE',  ( -0.000000000000000000, -1.000000000000000000, -0.000000000000000000 ) ) ;
#194 = APPLICATION_PROTOCOL_DEFINITION ( 'international standard', 'config_control_design', 1994, #251 ) ;
#195 = ORIENTED_EDGE ( 'NONE', *, *, #184, .F. ) ;
#196 = LINE ( 'NONE', #50, #183 ) ;
#197 = SECURITY_CLASSIFICATION_LEVEL ( 'unclassified' ) ;
#198 = VECTOR ( 'NONE', #41, 39.37007874015748143 ) ;
#199 = FACE_BOUND ( 'NONE', #286, .T. ) ;
#200 = CALENDAR_DATE ( 2026, 10, 8 ) ;
#201 = PRODUCT_DEFINITION_FORMATION_WITH_SPECIFIED_SOURCE ( 'ANY', '', #42, .NOT_KNOWN. ) ;
#202 = EDGE_CURVE ( 'NONE', #49, #176, #182, .T. ) ;
#203 = DIRECTION ( 'NONE',  ( -0.000000000000000000, -1.000000000000000000, -0.000000000000000000 ) ) ;
#204 = PERSON_AND_ORGANIZATION_ROLE ( 'creator' ) ;
#205 = PLANE ( 'NONE',  #177 ) ;
#206 = ORIENTED_EDGE ( 'NONE', *, *, #158, .T. ) ;
#207 = VECTOR ( 'NONE', #356, 39.37007874015748143 ) ;
#208 = ORIENTED_EDGE ( 'NONE', *, *, #148, .T. ) ;
#209 = VERTEX_POINT ( 'NONE', #154 ) ;
#210 = FACE_OUTER_BOUND ( 'NONE', #59, .T. ) ;
#211 = AXIS2_PLACEMENT_3D ( 'NONE', #242, #68, #266 ) ;
#212 = PLANE ( 'NONE',  #296 ) ;
#213 = DIRECTION ( 'NONE',  ( -0.4999999999999990563, 0.000000000000000000, 0.8660254037844392627 ) ) ;
#214 = DIRECTION ( 'NONE',  ( 0.000000000000000000, 0.000000000000000000, -1.000000000000000000 ) ) ;
#215 = CARTESIAN_POINT ( 'NONE',  ( -0.5905511811023635982, 1.181102362204724310, -0.3409548833796975376 ) ) ;
#216 = ORIENTED_EDGE ( 'NONE', *, *, #161, .F. ) ;
#217 = ORIENTED_EDGE ( 'NONE', *, *, #44, .T. ) ;
#218 = CARTESIAN_POINT ( 'NONE',  ( 0.000000000000000000, 0.000000000000000000, 0.000000000000000000 ) ) ;
#219 = ORIENTED_EDGE ( 'NONE', *, *, #378, .T. ) ;
#220 =( LENGTH_UNIT ( ) NAMED_UNIT ( * ) SI_UNIT ( $, .METRE. ) );
#221 = SHAPE_DEFINITION_REPRESENTATION ( #57, #65 ) ;
#222 = LINE ( 'NONE', #339, #349 ) ;
#223 = PERSON_AND_ORGANIZATION_ROLE ( 'classification_officer' ) ;
#224 = CC_DESIGN_PERSON_AND_ORGANIZATION_ASSIGNMENT ( #58, #370, ( #201 ) ) ;
#225 = LINE ( 'NONE', #250, #375 ) ;
#226 = APPLICATION_CONTEXT ( 'configuration controlled 3d designs of mechanical parts and assemblies' ) ;
#227 = AXIS2_PLACEMENT_3D ( 'NONE', #344, #80, #316 ) ;
#228 = PERSON_AND_ORGANIZATION_ROLE ( 'creator' ) ;
#229 = PLANE ( 'NONE',  #227 ) ;
#230 = PERSON_AND_ORGANIZATION ( #295, #363 ) ;
#231 = DIRECTION ( 'NONE',  ( -0.000000000000000000, -1.000000000000000000, -0.000000000000000000 ) ) ;
#232 = EDGE_LOOP ( 'NONE', ( #319, #151, #31, #303 ) ) ;
#233 = EDGE_LOOP ( 'NONE', ( #347, #274, #121, #144 ) ) ;
#234 = ADVANCED_FACE ( 'NONE', ( #293 ), #330, .F. ) ;
#235 = DIRECTION ( 'NONE',  ( 1.000000000000000000, 0.000000000000000000, -5.708795475201195839E-15 ) ) ;
#236 = ORIENTED_EDGE ( 'NONE', *, *, #92, .T. ) ;
#237 = ADVANCED_FACE ( 'NONE', ( #93 ), #7, .F. ) ;
#238 = CIRCLE ( 'NONE', #70, 0.3937007874015778786 ) ;
#239 = CYLINDRICAL_SURFACE ( 'NONE', #211, 0.3937007874015778786 ) ;
#240 = CARTESIAN_POINT ( 'NONE',  ( 0.5905511811023659297, 1.181102362204724310, 0.3409548833796933187 ) ) ;
#241 = LINE ( 'NONE', #328, #19 ) ;
#242 = CARTESIAN_POINT ( 'NONE',  ( 0.000000000000000000, 1.181102362204724310, 0.000000000000000000 ) ) ;
#243 = DESIGN_CONTEXT ( 'detailed design', #226, 'design' ) ;
#244 = APPROVAL_PERSON_ORGANIZATION ( #310, #76, #22 ) ;
#245 = ORIENTED_EDGE ( 'NONE', *, *, #53, .F. ) ;
#246 = LINE ( 'NONE', #338, #132 ) ;
#247 = AXIS2_PLACEMENT_3D ( 'NONE', #6, #185, #269 ) ;
#248 = DIRECTION ( 'NONE',  ( 0.000000000000000000, 0.000000000000000000, 1.000000000000000000 ) ) ;
#249 = DIRECTION ( 'NONE',  ( -0.000000000000000000, -1.000000000000000000, -0.000000000000000000 ) ) ;
#250 = CARTESIAN_POINT ( 'NONE',  ( 0.5905511811023659297, 0.000000000000000000, 0.3409548833796933187 ) ) ;
#251 = APPLICATION_CONTEXT ( 'configuration controlled 3d designs of mechanical parts and assemblies' ) ;
#252 = ORIENTED_EDGE ( 'NONE', *, *, #334, .T. ) ;
#253 = DIRECTION ( 'NONE',  ( -0.8660254037844425934, 0.000000000000000000, -0.4999999999999930611 ) ) ;
#254 = CARTESIAN_POINT ( 'NONE',  ( -0.5905511811023635982, 0.000000000000000000, -0.3409548833796975376 ) ) ;
#255 = APPROVAL_STATUS ( 'not_yet_approved' ) ;
#256 = DIRECTION ( 'NONE',  ( 0.000000000000000000, 0.000000000000000000, 1.000000000000000000 ) ) ;
#257 = CARTESIAN_POINT ( 'NONE',  ( 6.249102285507001792E-15, 1.181102362204724310, 0.6819097667594002932 ) ) ;
#258 = COORDINATED_UNIVERSAL_TIME_OFFSET ( 1, 0, .AHEAD. ) ;
#259 = SECURITY_CLASSIFICATION ( '', '', #197 ) ;
#260 = EDGE_LOOP ( 'NONE', ( #195, #376, #380, #143 ) ) ;
#261 = ORIENTED_EDGE ( 'NONE', *, *, #21, .F. ) ;
#262 = VECTOR ( 'NONE', #270, 39.37007874015748143 ) ;
#263 = EDGE_CURVE ( 'NONE', #178, #350, #3, .T. ) ;
#264 = VERTEX_POINT ( 'NONE', #265 ) ;
#265 = CARTESIAN_POINT ( 'NONE',  ( 0.5905511811023621549, 0.000000000000000000, -0.3409548833797001466 ) ) ;
#266 = DIRECTION ( 'NONE',  ( 0.000000000000000000, 0.000000000000000000, -1.000000000000000000 ) ) ;
#267 = CARTESIAN_POINT ( 'NONE',  ( 0.000000000000000000, 1.181102362204724310, -0.3937007874015778786 ) ) ;
#268 = DIMENSIONAL_EXPONENTS ( 1.000000000000000000, 0.000000000000000000, 0.000000000000000000, 0.000000000000000000, 0.000000000000000000, 0.000000000000000000, 0.000000000000000000 ) ;
#269 = DIRECTION ( 'NONE',  ( -0.8660254037844333785, 0.000000000000000000, 0.5000000000000088818 ) ) ;
#270 = DIRECTION ( 'NONE',  ( 5.708795475201195839E-15, 0.000000000000000000, 1.000000000000000000 ) ) ;
#271 = AXIS2_PLACEMENT_3D ( 'NONE', #278, #137, #309 ) ;
#272 = ADVANCED_FACE ( 'NONE', ( #210 ), #131, .F. ) ;
#273 = ORIENTED_EDGE ( 'NONE', *, *, #103, .T. ) ;
#274 = ORIENTED_EDGE ( 'NONE', *, *, #184, .T. ) ;
#275 = CARTESIAN_POINT ( 'NONE',  ( -1.502516396515344672E-15, 1.181102362204724310, -0.6819097667594002932 ) ) ;
#276 = ORIENTED_EDGE ( 'NONE', *, *, #34, .F. ) ;
#277 = LINE ( 'NONE', #18, #147 ) ;
#278 = CARTESIAN_POINT ( 'NONE',  ( 0.000000000000000000, 0.000000000000000000, 0.000000000000000000 ) ) ;
#279 = CARTESIAN_POINT ( 'NONE',  ( 6.249102285507001792E-15, 1.181102362204724310, 0.6819097667594002932 ) ) ;
#280 = CALENDAR_DATE ( 2026, 10, 8 ) ;
#281 = CC_DESIGN_PERSON_AND_ORGANIZATION_ASSIGNMENT ( #298, #157, ( #42 ) ) ;
#282 = DIRECTION ( 'NONE',  ( 0.000000000000000000, 1.000000000000000000, 0.000000000000000000 ) ) ;
#283 = CALENDAR_DATE ( 2026, 10, 8 ) ;
#284 = CARTESIAN_POINT ( 'NONE',  ( 0.5905511811023659297, 0.000000000000000000, 0.3409548833796933187 ) ) ;
#285 = VERTEX_POINT ( 'NONE', #329 ) ;
#286 = EDGE_LOOP ( 'NONE', ( #273, #17 ) ) ;
#287 = ADVANCED_FACE ( 'NONE', ( #95, #64 ), #212, .T. ) ;
#288 = ORIENTED_EDGE ( 'NONE', *, *, #300, .F. ) ;
#289 = CC_DESIGN_PERSON_AND_ORGANIZATION_ASSIGNMENT ( #373, #204, ( #201 ) ) ;
#290 = ORIENTED_EDGE ( 'NONE', *, *, #334, .F. ) ;
#291 = CC_DESIGN_APPROVAL ( #76, ( #259 ) ) ;
#292 = FACE_OUTER_BOUND ( 'NONE', #233, .T. ) ;
#293 = FACE_OUTER_BOUND ( 'NONE', #30, .T. ) ;
#294 = DIRECTION ( 'NONE',  ( -0.000000000000000000, -1.000000000000000000, -0.000000000000000000 ) ) ;
#295 = PERSON ( 'UNSPECIFIED', 'UNSPECIFIED', 'UNSPECIFIED', ('UNSPECIFIED'), ('UNSPECIFIED'), ('UNSPECIFIED') ) ;
#296 = AXIS2_PLACEMENT_3D ( 'NONE', #130, #180, #153 ) ;
#297 = LINE ( 'NONE', #155, #262 ) ;
#298 = PERSON_AND_ORGANIZATION ( #295, #363 ) ;
#299 = DIRECTION ( 'NONE',  ( 0.8660254037844333785, 0.000000000000000000, -0.5000000000000088818 ) ) ;
#300 = EDGE_CURVE ( 'NONE', #1, #138, #241, .T. ) ;
#301 =( CONVERSION_BASED_UNIT ( 'INCH', #16 ) LENGTH_UNIT ( ) NAMED_UNIT ( #268 ) );
#302 = VECTOR ( 'NONE', #203, 39.37007874015748143 ) ;
#303 = ORIENTED_EDGE ( 'NONE', *, *, #300, .T. ) ;
#304 = FACE_OUTER_BOUND ( 'NONE', #71, .T. ) ;
#305 = APPROVAL_DATE_TIME ( #13, #76 ) ;
#306 = ORIENTED_EDGE ( 'NONE', *, *, #26, .F. ) ;
#307 = CARTESIAN_POINT ( 'NONE',  ( -0.5905511811023597124, 1.181102362204724310, 0.3409548833797041434 ) ) ;
#308 = ORIENTED_EDGE ( 'NONE', *, *, #173, .F. ) ;
#309 = DIRECTION ( 'NONE',  ( 0.000000000000000000, 0.000000000000000000, 1.000000000000000000 ) ) ;
#310 = PERSON_AND_ORGANIZATION ( #295, #363 ) ;
#311 = AXIS2_PLACEMENT_3D ( 'NONE', #215, #235, #333 ) ;
#312 = CARTESIAN_POINT ( 'NONE',  ( -0.5905511811023597124, 0.000000000000000000, 0.3409548833797041434 ) ) ;
#313 = CC_DESIGN_APPROVAL ( #360, ( #201 ) ) ;
#314 = DATE_AND_TIME ( #283, #327 ) ;
#315 = DIRECTION ( 'NONE',  ( 0.000000000000000000, 1.000000000000000000, 0.000000000000000000 ) ) ;
#316 = DIRECTION ( 'NONE',  ( 5.608641168618786741E-15, 0.000000000000000000, 1.000000000000000000 ) ) ;
#317 = COORDINATED_UNIVERSAL_TIME_OFFSET ( 1, 0, .AHEAD. ) ;
#318 = DIRECTION ( 'NONE',  ( 0.000000000000000000, 1.000000000000000000, 0.000000000000000000 ) ) ;
#319 = ORIENTED_EDGE ( 'NONE', *, *, #26, .T. ) ;
#320 = CARTESIAN_POINT ( 'NONE',  ( 6.249102285507001792E-15, 1.181102362204724310, 0.6819097667594002932 ) ) ;
#321 = ORIENTED_EDGE ( 'NONE', *, *, #359, .F. ) ;
#322 = ORIENTED_EDGE ( 'NONE', *, *, #38, .T. ) ;
#323 = ADVANCED_FACE ( 'NONE', ( #292 ), #128, .F. ) ;
#324 = CARTESIAN_POINT ( 'NONE',  ( 0.000000000000000000, 1.181102362204724310, 0.000000000000000000 ) ) ;
#325 = EDGE_LOOP ( 'NONE', ( #123, #321, #261, #60, #306, #12 ) ) ;
#326 = CARTESIAN_POINT ( 'NONE',  ( 0.5905511811023621549, 1.181102362204724310, -0.3409548833797001466 ) ) ;
#327 = LOCAL_TIME ( 1, 39, 9.000000000000000000, #52 ) ;
#328 = CARTESIAN_POINT ( 'NONE',  ( -1.502516396515344672E-15, 1.181102362204724310, -0.6819097667594002932 ) ) ;
#329 = CARTESIAN_POINT ( 'NONE',  ( 4.821444091131349734E-17, 1.181102362204724310, 0.3937007874015778786 ) ) ;
#330 = PLANE ( 'NONE',  #247 ) ;
#331 = AXIS2_PLACEMENT_3D ( 'NONE', #83, #315, #379 ) ;
#332 = ADVANCED_FACE ( 'NONE', ( #66 ), #239, .F. ) ;
#333 = DIRECTION ( 'NONE',  ( -5.708795475201195839E-15, 0.000000000000000000, -1.000000000000000000 ) ) ;
#334 = EDGE_CURVE ( 'NONE', #127, #49, #297, .T. ) ;
#335 = CC_DESIGN_SECURITY_CLASSIFICATION ( #259, ( #201 ) ) ;
#336 = ORIENTED_EDGE ( 'NONE', *, *, #92, .F. ) ;
#337 = ORIENTED_EDGE ( 'NONE', *, *, #53, .T. ) ;
#338 = CARTESIAN_POINT ( 'NONE',  ( -0.5905511811023597124, 1.181102362204724310, 0.3409548833797041434 ) ) ;
#339 = CARTESIAN_POINT ( 'NONE',  ( 0.5905511811023621549, 0.000000000000000000, -0.3409548833797001466 ) ) ;
#340 = DATE_AND_TIME ( #280, #150 ) ;
#341 = DIRECTION ( 'NONE',  ( 0.8660254037844425934, 0.000000000000000000, 0.4999999999999930611 ) ) ;
#342 = PERSON_AND_ORGANIZATION ( #295, #363 ) ;
#343 = DIRECTION ( 'NONE',  ( -0.8660254037844391517, 0.000000000000000000, -0.4999999999999988898 ) ) ;
#344 = CARTESIAN_POINT ( 'NONE',  ( 0.5905511811023659297, 1.181102362204724310, 0.3409548833796933187 ) ) ;
#345 = CALENDAR_DATE ( 2026, 10, 8 ) ;
#346 = LINE ( 'NONE', #254, #113 ) ;
#347 = ORIENTED_EDGE ( 'NONE', *, *, #173, .T. ) ;
#348 = VERTEX_POINT ( 'NONE', #267 ) ;
#349 = VECTOR ( 'NONE', #77, 39.37007874015748854 ) ;
#350 = VERTEX_POINT ( 'NONE', #9 ) ;
#351 = DIRECTION ( 'NONE',  ( -0.000000000000000000, -1.000000000000000000, -0.000000000000000000 ) ) ;
#352 = ADVANCED_FACE ( 'NONE', ( #361 ), #100, .F. ) ;
#353 = ORIENTED_EDGE ( 'NONE', *, *, #21, .T. ) ;
#354 = DIRECTION ( 'NONE',  ( 0.5000000000000028866, -0.000000000000000000, 0.8660254037844370423 ) ) ;
#355 = CLOSED_SHELL ( 'NONE', ( #323, #287, #120, #111, #272, #237, #352, #372, #234, #332 ) ) ;
#356 = DIRECTION ( 'NONE',  ( -5.608641168618786741E-15, 0.000000000000000000, -1.000000000000000000 ) ) ;
#357 = CARTESIAN_POINT ( 'NONE',  ( 4.821444091131349734E-17, 1.181102362204724310, 0.3937007874015778786 ) ) ;
#358 = DIRECTION ( 'NONE',  ( -0.000000000000000000, -1.000000000000000000, -0.000000000000000000 ) ) ;
#359 = EDGE_CURVE ( 'NONE', #209, #63, #69, .T. ) ;
#360 = APPROVAL ( #81, 'UNSPECIFIED' ) ;
#361 = FACE_OUTER_BOUND ( 'NONE', #20, .T. ) ;
#362 = VECTOR ( 'NONE', #43, 39.37007874015748143 ) ;
#363 = ORGANIZATION ( 'UNSPECIFIED', 'UNSPECIFIED', '' ) ;
#364 = EDGE_CURVE ( 'NONE', #1, #127, #149, .T. ) ;
#365 = DIRECTION ( 'NONE',  ( -0.8660254037844369313, 0.000000000000000000, 0.5000000000000027756 ) ) ;
#366 = AXIS2_PLACEMENT_3D ( 'NONE', #129, #354, #37 ) ;
#367 =( NAMED_UNIT ( * ) SI_UNIT ( $, .STERADIAN. ) SOLID_ANGLE_UNIT ( ) );
#368 = ORIENTED_EDGE ( 'NONE', *, *, #124, .F. ) ;
#369 = CARTESIAN_POINT ( 'NONE',  ( -0.5905511811023635982, 1.181102362204724310, -0.3409548833796975376 ) ) ;
#370 = PERSON_AND_ORGANIZATION_ROLE ( 'design_supplier' ) ;
#371 = CARTESIAN_POINT ( 'NONE',  ( -1.502516396515344672E-15, 0.000000000000000000, -0.6819097667594002932 ) ) ;
#372 = ADVANCED_FACE ( 'NONE', ( #304 ), #14, .F. ) ;
#373 = PERSON_AND_ORGANIZATION ( #295, #363 ) ;
#374 = LINE ( 'NONE', #114, #145 ) ;
#375 = VECTOR ( 'NONE', #140, 39.37007874015748143 ) ;
#376 = ORIENTED_EDGE ( 'NONE', *, *, #161, .T. ) ;
#377 = APPLICATION_PROTOCOL_DEFINITION ( 'international standard', 'config_control_design', 1994, #226 ) ;
#378 = EDGE_CURVE ( 'NONE', #178, #63, #277, .T. ) ;
#379 = DIRECTION ( 'NONE',  ( 0.000000000000000000, 0.000000000000000000, 1.000000000000000000 ) ) ;
#380 = ORIENTED_EDGE ( 'NONE', *, *, #188, .T. ) ;
ENDSEC;
END-ISO-10303-21;
