ISO-10303-21;
HEADER;
FILE_DESCRIPTION (( 'STEP AP203' ),
    '1' );
FILE_NAME ('26_Lower_Bearing_Carrier.STEP',
    '2026-08-10T00:39:15',
    ( '' ),
    ( '' ),
    'SwSTEP 2.0',
    'SolidWorks 2026',
    '' );
FILE_SCHEMA (( 'CONFIG_CONTROL_DESIGN' ));
ENDSEC;

DATA;
#1 = DIRECTION ( 'NONE',  ( -0.000000000000000000, -1.000000000000000000, -0.000000000000000000 ) ) ;
#2 = ORIENTED_EDGE ( 'NONE', *, *, #154, .T. ) ;
#3 = DIRECTION ( 'NONE',  ( 0.000000000000000000, 1.000000000000000000, 0.000000000000000000 ) ) ;
#4 = ORIENTED_EDGE ( 'NONE', *, *, #286, .F. ) ;
#5 = EDGE_CURVE ( 'NONE', #436, #295, #431, .T. ) ;
#6 = DIRECTION ( 'NONE',  ( 0.000000000000000000, 1.000000000000000000, 0.000000000000000000 ) ) ;
#7 = EDGE_CURVE ( 'NONE', #267, #467, #157, .T. ) ;
#8 = AXIS2_PLACEMENT_3D ( 'NONE', #108, #105, #71 ) ;
#9 = CYLINDRICAL_SURFACE ( 'NONE', #396, 0.1299212598425197318 ) ;
#10 = DIRECTION ( 'NONE',  ( 0.000000000000000000, 0.000000000000000000, 1.000000000000000000 ) ) ;
#11 = EDGE_CURVE ( 'NONE', #415, #118, #476, .T. ) ;
#12 = ORIENTED_EDGE ( 'NONE', *, *, #27, .F. ) ;
#13 = PRODUCT ( '26_Lower_Bearing_Carrier', '26_Lower_Bearing_Carrier', '', ( #420 ) ) ;
#14 = CARTESIAN_POINT ( 'NONE',  ( 0.000000000000000000, 0.000000000000000000, -1.311023622047243986 ) ) ;
#15 = CARTESIAN_POINT ( 'NONE',  ( -1.181102362204724310, 0.000000000000000000, 0.000000000000000000 ) ) ;
#16 = DIRECTION ( 'NONE',  ( 0.000000000000000000, 0.000000000000000000, 1.000000000000000000 ) ) ;
#17 = EDGE_CURVE ( 'NONE', #335, #232, #183, .T. ) ;
#18 = AXIS2_PLACEMENT_3D ( 'NONE', #361, #224, #440 ) ;
#19 = LINE ( 'NONE', #149, #49 ) ;
#20 = DIRECTION ( 'NONE',  ( -0.000000000000000000, -1.000000000000000000, -0.000000000000000000 ) ) ;
#21 = CYLINDRICAL_SURFACE ( 'NONE', #474, 0.1299212598425197318 ) ;
#22 = CYLINDRICAL_SURFACE ( 'NONE', #318, 1.496062992125984259 ) ;
#23 = FACE_OUTER_BOUND ( 'NONE', #445, .T. ) ;
#24 = VECTOR ( 'NONE', #506, 39.37007874015748143 ) ;
#25 = CARTESIAN_POINT ( 'NONE',  ( 1.181102362204724310, 0.6299212598425196763, 0.000000000000000000 ) ) ;
#26 = DIMENSIONAL_EXPONENTS ( 1.000000000000000000, 0.000000000000000000, 0.000000000000000000, 0.000000000000000000, 0.000000000000000000, 0.000000000000000000, 0.000000000000000000 ) ;
#27 = EDGE_CURVE ( 'NONE', #372, #436, #325, .T. ) ;
#28 = FACE_BOUND ( 'NONE', #219, .T. ) ;
#29 = ORIENTED_EDGE ( 'NONE', *, *, #282, .F. ) ;
#30 = COORDINATED_UNIVERSAL_TIME_OFFSET ( 1, 0, .AHEAD. ) ;
#31 = CARTESIAN_POINT ( 'NONE',  ( 0.000000000000000000, 0.6299212598425196763, 0.000000000000000000 ) ) ;
#32 = CALENDAR_DATE ( 2026, 10, 8 ) ;
#33 = CARTESIAN_POINT ( 'NONE',  ( 1.181102362204724310, 0.6299212598425196763, -0.1299212598425195930 ) ) ;
#34 = ORIENTED_EDGE ( 'NONE', *, *, #457, .F. ) ;
#35 = APPROVAL_DATE_TIME ( #543, #47 ) ;
#36 = ADVANCED_FACE ( 'NONE', ( #223 ), #97, .F. ) ;
#37 = DIRECTION ( 'NONE',  ( 0.000000000000000000, 1.000000000000000000, 0.000000000000000000 ) ) ;
#38 = ORIENTED_EDGE ( 'NONE', *, *, #270, .T. ) ;
#39 = LOCAL_TIME ( 1, 39, 15.00000000000000000, #30 ) ;
#40 = PLANE ( 'NONE',  #234 ) ;
#41 = ORIENTED_EDGE ( 'NONE', *, *, #174, .T. ) ;
#42 = PERSON_AND_ORGANIZATION ( #52, #515 ) ;
#43 = VECTOR ( 'NONE', #226, 39.37007874015748143 ) ;
#44 = CARTESIAN_POINT ( 'NONE',  ( 0.000000000000000000, 0.000000000000000000, 0.000000000000000000 ) ) ;
#45 = EDGE_LOOP ( 'NONE', ( #12, #422 ) ) ;
#46 = CARTESIAN_POINT ( 'NONE',  ( 0.000000000000000000, 0.6299212598425196763, 0.000000000000000000 ) ) ;
#47 = APPROVAL ( #195, 'UNSPECIFIED' ) ;
#48 = ORIENTED_EDGE ( 'NONE', *, *, #428, .T. ) ;
#49 = VECTOR ( 'NONE', #525, 39.37007874015748143 ) ;
#50 = CARTESIAN_POINT ( 'NONE',  ( 1.181102362204724310, 0.6299212598425196763, 0.000000000000000000 ) ) ;
#51 = EDGE_CURVE ( 'NONE', #467, #495, #516, .T. ) ;
#52 = PERSON ( 'UNSPECIFIED', 'UNSPECIFIED', 'UNSPECIFIED', ('UNSPECIFIED'), ('UNSPECIFIED'), ('UNSPECIFIED') ) ;
#53 = FACE_OUTER_BOUND ( 'NONE', #109, .T. ) ;
#54 = AXIS2_PLACEMENT_3D ( 'NONE', #44, #411, #164 ) ;
#55 = DIRECTION ( 'NONE',  ( 0.000000000000000000, 1.000000000000000000, 0.000000000000000000 ) ) ;
#56 = PRODUCT_RELATED_PRODUCT_CATEGORY ( 'detail', '', ( #13 ) ) ;
#57 = DIRECTION ( 'NONE',  ( -0.000000000000000000, -1.000000000000000000, -0.000000000000000000 ) ) ;
#58 = FACE_BOUND ( 'NONE', #340, .T. ) ;
#59 = EDGE_LOOP ( 'NONE', ( #188, #100, #84, #277 ) ) ;
#60 = ADVANCED_FACE ( 'NONE', ( #137 ), #261, .F. ) ;
#61 = CARTESIAN_POINT ( 'NONE',  ( 0.000000000000000000, 0.6299212598425196763, -0.9255905511811025610 ) ) ;
#62 = DIRECTION ( 'NONE',  ( -0.000000000000000000, -1.000000000000000000, -0.000000000000000000 ) ) ;
#63 = CARTESIAN_POINT ( 'NONE',  ( 0.000000000000000000, 0.6299212598425196763, -1.311023622047243986 ) ) ;
#64 = AXIS2_PLACEMENT_3D ( 'NONE', #491, #143, #152 ) ;
#65 = DIRECTION ( 'NONE',  ( 0.000000000000000000, 0.000000000000000000, 1.000000000000000000 ) ) ;
#66 = CYLINDRICAL_SURFACE ( 'NONE', #347, 0.1299212598425195930 ) ;
#67 = CYLINDRICAL_SURFACE ( 'NONE', #257, 0.1299212598425197318 ) ;
#68 = ORIENTED_EDGE ( 'NONE', *, *, #341, .T. ) ;
#69 = CIRCLE ( 'NONE', #136, 0.1299212598425197318 ) ;
#70 = CARTESIAN_POINT ( 'NONE',  ( 1.181102362204724310, 0.000000000000000000, 0.000000000000000000 ) ) ;
#71 = DIRECTION ( 'NONE',  ( 0.000000000000000000, 0.000000000000000000, 1.000000000000000000 ) ) ;
#72 = APPROVAL_DATE_TIME ( #379, #446 ) ;
#73 = DIRECTION ( 'NONE',  ( -0.000000000000000000, -1.000000000000000000, -0.000000000000000000 ) ) ;
#74 = ORIENTED_EDGE ( 'NONE', *, *, #27, .T. ) ;
#75 = CALENDAR_DATE ( 2026, 10, 8 ) ;
#76 = DIRECTION ( 'NONE',  ( 0.000000000000000000, 0.000000000000000000, 1.000000000000000000 ) ) ;
#77 = VERTEX_POINT ( 'NONE', #180 ) ;
#78 = ADVANCED_FACE ( 'NONE', ( #53 ), #348, .T. ) ;
#79 = DIRECTION ( 'NONE',  ( 0.000000000000000000, 0.000000000000000000, 1.000000000000000000 ) ) ;
#80 = EDGE_LOOP ( 'NONE', ( #538, #486, #392, #385 ) ) ;
#81 = AXIS2_PLACEMENT_3D ( 'NONE', #251, #466, #161 ) ;
#82 = PERSON_AND_ORGANIZATION ( #52, #515 ) ;
#83 = DIRECTION ( 'NONE',  ( 0.000000000000000000, 0.000000000000000000, -1.000000000000000000 ) ) ;
#84 = ORIENTED_EDGE ( 'NONE', *, *, #17, .F. ) ;
#85 = DIRECTION ( 'NONE',  ( 1.000000000000000000, 0.000000000000000000, 0.000000000000000000 ) ) ;
#86 = CC_DESIGN_APPROVAL ( #446, ( #220 ) ) ;
#87 = CARTESIAN_POINT ( 'NONE',  ( -1.181102362204724310, 0.6299212598425196763, 0.1299212598425197318 ) ) ;
#88 = EDGE_LOOP ( 'NONE', ( #407, #316, #171, #479 ) ) ;
#89 = AXIS2_PLACEMENT_3D ( 'NONE', #70, #487, #16 ) ;
#90 = PRODUCT_DEFINITION ( 'UNKNOWN', '', #151, #146 ) ;
#91 = CARTESIAN_POINT ( 'NONE',  ( 0.000000000000000000, 0.000000000000000000, 0.000000000000000000 ) ) ;
#92 = ORIENTED_EDGE ( 'NONE', *, *, #469, .T. ) ;
#93 = CLOSED_SHELL ( 'NONE', ( #338, #181, #493, #256, #353, #453, #483, #262, #78, #524, #60, #36, #94, #409 ) ) ;
#94 = ADVANCED_FACE ( 'NONE', ( #387 ), #9, .F. ) ;
#95 = DIRECTION ( 'NONE',  ( -0.000000000000000000, -1.000000000000000000, -0.000000000000000000 ) ) ;
#96 = VECTOR ( 'NONE', #444, 39.37007874015748143 ) ;
#97 = CYLINDRICAL_SURFACE ( 'NONE', #426, 0.1299212598425195930 ) ;
#98 = AXIS2_PLACEMENT_3D ( 'NONE', #122, #37, #76 ) ;
#99 = ORIENTED_EDGE ( 'NONE', *, *, #11, .F. ) ;
#100 = ORIENTED_EDGE ( 'NONE', *, *, #308, .T. ) ;
#101 = DIRECTION ( 'NONE',  ( 0.000000000000000000, 0.000000000000000000, 1.000000000000000000 ) ) ;
#102 = DIRECTION ( 'NONE',  ( -0.000000000000000000, -1.000000000000000000, -0.000000000000000000 ) ) ;
#103 = EDGE_CURVE ( 'NONE', #214, #495, #213, .T. ) ;
#104 = CARTESIAN_POINT ( 'NONE',  ( 0.000000000000000000, 0.6299212598425196763, 1.181102362204724310 ) ) ;
#105 = DIRECTION ( 'NONE',  ( 0.000000000000000000, 1.000000000000000000, 0.000000000000000000 ) ) ;
#106 = EDGE_CURVE ( 'NONE', #415, #236, #408, .T. ) ;
#107 = CARTESIAN_POINT ( 'NONE',  ( 1.181102362204724310, 0.000000000000000000, -0.1299212598425195930 ) ) ;
#108 = CARTESIAN_POINT ( 'NONE',  ( 0.000000000000000000, 0.000000000000000000, 0.000000000000000000 ) ) ;
#109 = EDGE_LOOP ( 'NONE', ( #305, #99, #156, #456 ) ) ;
#110 = FACE_BOUND ( 'NONE', #471, .T. ) ;
#111 = DIRECTION ( 'NONE',  ( 0.000000000000000000, 1.000000000000000000, 0.000000000000000000 ) ) ;
#112 = ORIENTED_EDGE ( 'NONE', *, *, #370, .T. ) ;
#113 = CIRCLE ( 'NONE', #98, 0.1299212598425197318 ) ;
#114 = PERSON_AND_ORGANIZATION_ROLE ( 'creator' ) ;
#115 = DIRECTION ( 'NONE',  ( 0.000000000000000000, 1.000000000000000000, 0.000000000000000000 ) ) ;
#116 = CARTESIAN_POINT ( 'NONE',  ( 1.181102362204724310, 0.6299212598425196763, -0.1299212598425195930 ) ) ;
#117 = EDGE_CURVE ( 'NONE', #267, #214, #231, .T. ) ;
#118 = VERTEX_POINT ( 'NONE', #354 ) ;
#119 = CYLINDRICAL_SURFACE ( 'NONE', #166, 0.1299212598425195930 ) ;
#120 = ORIENTED_EDGE ( 'NONE', *, *, #202, .T. ) ;
#121 = SHAPE_DEFINITION_REPRESENTATION ( #547, #272 ) ;
#122 = CARTESIAN_POINT ( 'NONE',  ( -1.181102362204724310, 0.6299212598425196763, 0.000000000000000000 ) ) ;
#123 = ORIENTED_EDGE ( 'NONE', *, *, #227, .T. ) ;
#124 = CIRCLE ( 'NONE', #8, 0.9255905511811025610 ) ;
#125 = APPROVAL_STATUS ( 'not_yet_approved' ) ;
#126 = DIRECTION ( 'NONE',  ( 0.000000000000000000, 1.000000000000000000, 0.000000000000000000 ) ) ;
#127 = ORIENTED_EDGE ( 'NONE', *, *, #237, .F. ) ;
#128 = DIRECTION ( 'NONE',  ( 0.000000000000000000, 0.000000000000000000, 1.000000000000000000 ) ) ;
#129 = EDGE_LOOP ( 'NONE', ( #532, #68, #241, #211 ) ) ;
#130 = CARTESIAN_POINT ( 'NONE',  ( 0.000000000000000000, 0.6299212598425196763, 1.051181102362204633 ) ) ;
#131 = EDGE_LOOP ( 'NONE', ( #4, #2, #200, #204 ) ) ;
#132 = ORIENTED_EDGE ( 'NONE', *, *, #133, .T. ) ;
#133 = EDGE_CURVE ( 'NONE', #232, #335, #441, .T. ) ;
#134 = CC_DESIGN_APPROVAL ( #393, ( #90 ) ) ;
#135 = ORIENTED_EDGE ( 'NONE', *, *, #103, .T. ) ;
#136 = AXIS2_PLACEMENT_3D ( 'NONE', #299, #3, #172 ) ;
#137 = FACE_OUTER_BOUND ( 'NONE', #129, .T. ) ;
#138 = CARTESIAN_POINT ( 'NONE',  ( 0.000000000000000000, 0.6299212598425196763, 0.000000000000000000 ) ) ;
#139 = AXIS2_PLACEMENT_3D ( 'NONE', #138, #307, #217 ) ;
#140 = EDGE_CURVE ( 'NONE', #118, #303, #528, .T. ) ;
#141 = CARTESIAN_POINT ( 'NONE',  ( -1.181102362204724310, 0.6299212598425196763, -0.1299212598425197318 ) ) ;
#142 = CARTESIAN_POINT ( 'NONE',  ( 0.000000000000000000, 0.6299212598425196763, 0.000000000000000000 ) ) ;
#143 = DIRECTION ( 'NONE',  ( 0.000000000000000000, 1.000000000000000000, 0.000000000000000000 ) ) ;
#144 = AXIS2_PLACEMENT_3D ( 'NONE', #367, #111, #280 ) ;
#145 = DIRECTION ( 'NONE',  ( 0.000000000000000000, 1.000000000000000000, 0.000000000000000000 ) ) ;
#146 = DESIGN_CONTEXT ( 'detailed design', #376, 'design' ) ;
#147 = ORIENTED_EDGE ( 'NONE', *, *, #51, .F. ) ;
#148 = CARTESIAN_POINT ( 'NONE',  ( 0.000000000000000000, 0.000000000000000000, 0.000000000000000000 ) ) ;
#149 = CARTESIAN_POINT ( 'NONE',  ( 1.133521505824971508E-16, 0.6299212598425196763, 0.9255905511811025610 ) ) ;
#150 = CC_DESIGN_PERSON_AND_ORGANIZATION_ASSIGNMENT ( #416, #198, ( #220 ) ) ;
#151 = PRODUCT_DEFINITION_FORMATION_WITH_SPECIFIED_SOURCE ( 'ANY', '', #13, .NOT_KNOWN. ) ;
#152 = DIRECTION ( 'NONE',  ( 0.000000000000000000, 0.000000000000000000, 1.000000000000000000 ) ) ;
#153 = COORDINATED_UNIVERSAL_TIME_OFFSET ( 1, 0, .AHEAD. ) ;
#154 = EDGE_CURVE ( 'NONE', #77, #412, #496, .T. ) ;
#155 = CYLINDRICAL_SURFACE ( 'NONE', #290, 0.1299212598425195930 ) ;
#156 = ORIENTED_EDGE ( 'NONE', *, *, #106, .T. ) ;
#157 = CIRCLE ( 'NONE', #405, 0.1299212598425197318 ) ;
#158 = PERSON_AND_ORGANIZATION ( #52, #515 ) ;
#159 = CC_DESIGN_PERSON_AND_ORGANIZATION_ASSIGNMENT ( #243, #163, ( #151 ) ) ;
#160 = VECTOR ( 'NONE', #319, 39.37007874015748143 ) ;
#161 = DIRECTION ( 'NONE',  ( 0.000000000000000000, 0.000000000000000000, 1.000000000000000000 ) ) ;
#162 = EDGE_LOOP ( 'NONE', ( #402, #263, #337, #514 ) ) ;
#163 = PERSON_AND_ORGANIZATION_ROLE ( 'design_supplier' ) ;
#164 = DIRECTION ( 'NONE',  ( 0.000000000000000000, 0.000000000000000000, 1.000000000000000000 ) ) ;
#165 = ORIENTED_EDGE ( 'NONE', *, *, #428, .F. ) ;
#166 = AXIS2_PLACEMENT_3D ( 'NONE', #288, #244, #414 ) ;
#167 = CARTESIAN_POINT ( 'NONE',  ( 1.832148754629898441E-16, 0.000000000000000000, 1.496062992125984259 ) ) ;
#168 = VERTEX_POINT ( 'NONE', #313 ) ;
#169 = CIRCLE ( 'NONE', #81, 0.1299212598425195930 ) ;
#170 = DIRECTION ( 'NONE',  ( -0.000000000000000000, -1.000000000000000000, -0.000000000000000000 ) ) ;
#171 = ORIENTED_EDGE ( 'NONE', *, *, #298, .T. ) ;
#172 = DIRECTION ( 'NONE',  ( 0.000000000000000000, 0.000000000000000000, 1.000000000000000000 ) ) ;
#173 = VERTEX_POINT ( 'NONE', #228 ) ;
#174 = EDGE_CURVE ( 'NONE', #378, #207, #19, .T. ) ;
#175 = CARTESIAN_POINT ( 'NONE',  ( 1.181102362204724310, 0.6299212598425196763, 0.1299212598425195930 ) ) ;
#176 = DIRECTION ( 'NONE',  ( 0.000000000000000000, 0.000000000000000000, -1.000000000000000000 ) ) ;
#177 = LOCAL_TIME ( 1, 39, 15.00000000000000000, #249 ) ;
#178 = EDGE_LOOP ( 'NONE', ( #331, #123 ) ) ;
#179 = AXIS2_PLACEMENT_3D ( 'NONE', #545, #508, #128 ) ;
#180 = CARTESIAN_POINT ( 'NONE',  ( 1.591076550073334559E-17, 0.6299212598425196763, 1.311023622047243986 ) ) ;
#181 = ADVANCED_FACE ( 'NONE', ( #309 ), #67, .F. ) ;
#182 = LINE ( 'NONE', #310, #490 ) ;
#183 = CIRCLE ( 'NONE', #352, 0.1299212598425197318 ) ;
#184 = DIRECTION ( 'NONE',  ( 0.000000000000000000, 1.000000000000000000, 0.000000000000000000 ) ) ;
#185 = AXIS2_PLACEMENT_3D ( 'NONE', #31, #115, #485 ) ;
#186 =( NAMED_UNIT ( * ) PLANE_ANGLE_UNIT ( ) SI_UNIT ( $, .RADIAN. ) );
#187 = CARTESIAN_POINT ( 'NONE',  ( 1.832148754629898441E-16, 0.6299212598425196763, 1.496062992125984259 ) ) ;
#188 = ORIENTED_EDGE ( 'NONE', *, *, #356, .T. ) ;
#189 = DIRECTION ( 'NONE',  ( -0.000000000000000000, -1.000000000000000000, -0.000000000000000000 ) ) ;
#190 = CIRCLE ( 'NONE', #333, 0.1299212598425195930 ) ;
#191 = CARTESIAN_POINT ( 'NONE',  ( 1.591076550073333019E-17, 0.000000000000000000, -1.051181102362204633 ) ) ;
#192 = VERTEX_POINT ( 'NONE', #489 ) ;
#193 = LINE ( 'NONE', #141, #43 ) ;
#194 = FACE_BOUND ( 'NONE', #461, .T. ) ;
#195 = APPROVAL_STATUS ( 'not_yet_approved' ) ;
#196 = CARTESIAN_POINT ( 'NONE',  ( 0.000000000000000000, 0.000000000000000000, -1.496062992125984259 ) ) ;
#197 = EDGE_CURVE ( 'NONE', #118, #415, #225, .T. ) ;
#198 = PERSON_AND_ORGANIZATION_ROLE ( 'classification_officer' ) ;
#199 = CARTESIAN_POINT ( 'NONE',  ( 0.000000000000000000, 0.6299212598425196763, 0.000000000000000000 ) ) ;
#200 = ORIENTED_EDGE ( 'NONE', *, *, #457, .T. ) ;
#201 = PERSON_AND_ORGANIZATION_ROLE ( 'design_owner' ) ;
#202 = EDGE_CURVE ( 'NONE', #502, #378, #301, .T. ) ;
#203 = CARTESIAN_POINT ( 'NONE',  ( 0.000000000000000000, 0.000000000000000000, 1.181102362204724310 ) ) ;
#204 = ORIENTED_EDGE ( 'NONE', *, *, #270, .F. ) ;
#205 = AXIS2_PLACEMENT_3D ( 'NONE', #148, #366, #85 ) ;
#206 = CARTESIAN_POINT ( 'NONE',  ( 0.000000000000000000, 0.000000000000000000, 1.181102362204724310 ) ) ;
#207 = VERTEX_POINT ( 'NONE', #482 ) ;
#208 = CIRCLE ( 'NONE', #544, 1.496062992125984259 ) ;
#209 = DATE_AND_TIME ( #534, #344 ) ;
#210 = CYLINDRICAL_SURFACE ( 'NONE', #230, 0.9255905511811025610 ) ;
#211 = ORIENTED_EDGE ( 'NONE', *, *, #133, .F. ) ;
#212 = DIRECTION ( 'NONE',  ( 0.000000000000000000, 1.000000000000000000, 0.000000000000000000 ) ) ;
#213 = CIRCLE ( 'NONE', #18, 0.1299212598425197318 ) ;
#214 = VERTEX_POINT ( 'NONE', #191 ) ;
#215 = EDGE_CURVE ( 'NONE', #495, #214, #539, .T. ) ;
#216 = EDGE_LOOP ( 'NONE', ( #302, #135 ) ) ;
#217 = DIRECTION ( 'NONE',  ( 0.000000000000000000, 0.000000000000000000, -1.000000000000000000 ) ) ;
#218 = VECTOR ( 'NONE', #1, 39.37007874015748143 ) ;
#219 = EDGE_LOOP ( 'NONE', ( #527, #132 ) ) ;
#220 = SECURITY_CLASSIFICATION ( '', '', #317 ) ;
#221 = DIRECTION ( 'NONE',  ( 0.000000000000000000, 0.000000000000000000, -1.000000000000000000 ) ) ;
#222 = DIRECTION ( 'NONE',  ( 0.000000000000000000, 0.000000000000000000, -1.000000000000000000 ) ) ;
#223 = FACE_OUTER_BOUND ( 'NONE', #88, .T. ) ;
#224 = DIRECTION ( 'NONE',  ( 0.000000000000000000, 1.000000000000000000, 0.000000000000000000 ) ) ;
#225 = CIRCLE ( 'NONE', #185, 1.496062992125984259 ) ;
#226 = DIRECTION ( 'NONE',  ( -0.000000000000000000, -1.000000000000000000, -0.000000000000000000 ) ) ;
#227 = EDGE_CURVE ( 'NONE', #207, #192, #124, .T. ) ;
#228 = CARTESIAN_POINT ( 'NONE',  ( 1.591076550073334559E-17, 0.000000000000000000, 1.311023622047243986 ) ) ;
#229 = CYLINDRICAL_SURFACE ( 'NONE', #363, 0.9255905511811025610 ) ;
#230 = AXIS2_PLACEMENT_3D ( 'NONE', #46, #170, #336 ) ;
#231 = LINE ( 'NONE', #406, #521 ) ;
#232 = VERTEX_POINT ( 'NONE', #273 ) ;
#233 = DIRECTION ( 'NONE',  ( 0.000000000000000000, -0.000000000000000000, 1.000000000000000000 ) ) ;
#234 = AXIS2_PLACEMENT_3D ( 'NONE', #246, #455, #417 ) ;
#235 = DIRECTION ( 'NONE',  ( 0.000000000000000000, 1.000000000000000000, 0.000000000000000000 ) ) ;
#236 = VERTEX_POINT ( 'NONE', #196 ) ;
#237 = EDGE_CURVE ( 'NONE', #192, #207, #386, .T. ) ;
#238 = DIRECTION ( 'NONE',  ( 0.000000000000000000, 1.000000000000000000, 0.000000000000000000 ) ) ;
#239 = DATE_AND_TIME ( #75, #39 ) ;
#240 = CARTESIAN_POINT ( 'NONE',  ( 1.181102362204724310, 0.000000000000000000, 0.1299212598425195930 ) ) ;
#241 = ORIENTED_EDGE ( 'NONE', *, *, #510, .T. ) ;
#242 = EDGE_CURVE ( 'NONE', #436, #372, #459, .T. ) ;
#243 = PERSON_AND_ORGANIZATION ( #52, #515 ) ;
#244 = DIRECTION ( 'NONE',  ( -0.000000000000000000, -1.000000000000000000, -0.000000000000000000 ) ) ;
#245 = ORIENTED_EDGE ( 'NONE', *, *, #215, .F. ) ;
#246 = CARTESIAN_POINT ( 'NONE',  ( 0.000000000000000000, 0.000000000000000000, 0.000000000000000000 ) ) ;
#247 = ORIENTED_EDGE ( 'NONE', *, *, #298, .F. ) ;
#248 = CC_DESIGN_SECURITY_CLASSIFICATION ( #220, ( #151 ) ) ;
#249 = COORDINATED_UNIVERSAL_TIME_OFFSET ( 1, 0, .AHEAD. ) ;
#250 = MANIFOLD_SOLID_BREP ( 'Bearing_Carrier_Extrude', #93 ) ;
#251 = CARTESIAN_POINT ( 'NONE',  ( 1.181102362204724310, 0.000000000000000000, 0.000000000000000000 ) ) ;
#252 = ORIENTED_EDGE ( 'NONE', *, *, #286, .T. ) ;
#253 = VECTOR ( 'NONE', #20, 39.37007874015748143 ) ;
#254 = CARTESIAN_POINT ( 'NONE',  ( 0.000000000000000000, 0.6299212598425196763, -1.181102362204724310 ) ) ;
#255 = ORIENTED_EDGE ( 'NONE', *, *, #282, .T. ) ;
#256 = ADVANCED_FACE ( 'NONE', ( #535 ), #21, .F. ) ;
#257 = AXIS2_PLACEMENT_3D ( 'NONE', #104, #62, #269 ) ;
#258 = CC_DESIGN_PERSON_AND_ORGANIZATION_ASSIGNMENT ( #158, #293, ( #90 ) ) ;
#259 = ORIENTED_EDGE ( 'NONE', *, *, #327, .F. ) ;
#260 = AXIS2_PLACEMENT_3D ( 'NONE', #50, #513, #101 ) ;
#261 = CYLINDRICAL_SURFACE ( 'NONE', #451, 0.1299212598425197318 ) ;
#262 = ADVANCED_FACE ( 'NONE', ( #23, #276, #28, #194, #364, #460 ), #40, .F. ) ;
#263 = ORIENTED_EDGE ( 'NONE', *, *, #7, .T. ) ;
#264 = CIRCLE ( 'NONE', #430, 0.1299212598425195930 ) ;
#265 = DIRECTION ( 'NONE',  ( -0.000000000000000000, -1.000000000000000000, -0.000000000000000000 ) ) ;
#266 = LINE ( 'NONE', #278, #253 ) ;
#267 = VERTEX_POINT ( 'NONE', #334 ) ;
#268 = CARTESIAN_POINT ( 'NONE',  ( 0.000000000000000000, 0.6299212598425196763, 0.000000000000000000 ) ) ;
#269 = DIRECTION ( 'NONE',  ( 0.000000000000000000, 0.000000000000000000, -1.000000000000000000 ) ) ;
#270 = EDGE_CURVE ( 'NONE', #173, #320, #264, .T. ) ;
#271 = DIRECTION ( 'NONE',  ( 0.000000000000000000, 0.000000000000000000, -1.000000000000000000 ) ) ;
#272 = ADVANCED_BREP_SHAPE_REPRESENTATION ( '26_Lower_Bearing_Carrier', ( #250, #205 ), #433 ) ;
#273 = CARTESIAN_POINT ( 'NONE',  ( -1.181102362204724310, 0.000000000000000000, 0.1299212598425197318 ) ) ;
#274 = LENGTH_MEASURE_WITH_UNIT ( LENGTH_MEASURE( 0.02539999999999999897 ), #529 );
#275 = LOCAL_TIME ( 1, 39, 15.00000000000000000, #153 ) ;
#276 = FACE_BOUND ( 'NONE', #178, .T. ) ;
#277 = ORIENTED_EDGE ( 'NONE', *, *, #510, .F. ) ;
#278 = CARTESIAN_POINT ( 'NONE',  ( 0.000000000000000000, 0.6299212598425196763, 1.051181102362204633 ) ) ;
#279 = AXIS2_PLACEMENT_3D ( 'NONE', #314, #520, #233 ) ;
#280 = DIRECTION ( 'NONE',  ( 0.000000000000000000, 0.000000000000000000, 1.000000000000000000 ) ) ;
#281 = APPROVAL_STATUS ( 'not_yet_approved' ) ;
#282 = EDGE_CURVE ( 'NONE', #303, #236, #548, .T. ) ;
#283 = DIRECTION ( 'NONE',  ( 0.000000000000000000, 0.000000000000000000, 1.000000000000000000 ) ) ;
#284 = ORIENTED_EDGE ( 'NONE', *, *, #117, .T. ) ;
#285 = AXIS2_PLACEMENT_3D ( 'NONE', #315, #145, #448 ) ;
#286 = EDGE_CURVE ( 'NONE', #77, #173, #380, .T. ) ;
#287 = LINE ( 'NONE', #116, #24 ) ;
#288 = CARTESIAN_POINT ( 'NONE',  ( 0.000000000000000000, 0.6299212598425196763, -1.181102362204724310 ) ) ;
#289 = EDGE_LOOP ( 'NONE', ( #120, #41, #127, #300 ) ) ;
#290 = AXIS2_PLACEMENT_3D ( 'NONE', #254, #423, #83 ) ;
#291 = DIRECTION ( 'NONE',  ( 0.000000000000000000, 1.000000000000000000, 0.000000000000000000 ) ) ;
#292 = VERTEX_POINT ( 'NONE', #374 ) ;
#293 = PERSON_AND_ORGANIZATION_ROLE ( 'creator' ) ;
#294 = CARTESIAN_POINT ( 'NONE',  ( 1.591076550073333019E-17, 0.6299212598425196763, 1.311023622047243986 ) ) ;
#295 = VERTEX_POINT ( 'NONE', #240 ) ;
#296 = CARTESIAN_POINT ( 'NONE',  ( 1.133521505824971508E-16, 0.6299212598425196763, 0.9255905511811025610 ) ) ;
#297 = ORIENTED_EDGE ( 'NONE', *, *, #140, .T. ) ;
#298 = EDGE_CURVE ( 'NONE', #372, #536, #287, .T. ) ;
#299 = CARTESIAN_POINT ( 'NONE',  ( 0.000000000000000000, 0.6299212598425196763, -1.181102362204724310 ) ) ;
#300 = ORIENTED_EDGE ( 'NONE', *, *, #505, .F. ) ;
#301 = CIRCLE ( 'NONE', #470, 0.9255905511811025610 ) ;
#302 = ORIENTED_EDGE ( 'NONE', *, *, #215, .T. ) ;
#303 = VERTEX_POINT ( 'NONE', #167 ) ;
#304 = AXIS2_PLACEMENT_3D ( 'NONE', #199, #371, #537 ) ;
#305 = ORIENTED_EDGE ( 'NONE', *, *, #140, .F. ) ;
#306 = AXIS2_PLACEMENT_3D ( 'NONE', #357, #235, #65 ) ;
#307 = DIRECTION ( 'NONE',  ( -0.000000000000000000, -1.000000000000000000, -0.000000000000000000 ) ) ;
#308 = EDGE_CURVE ( 'NONE', #292, #232, #330, .T. ) ;
#309 = FACE_OUTER_BOUND ( 'NONE', #499, .T. ) ;
#310 = CARTESIAN_POINT ( 'NONE',  ( 0.000000000000000000, 0.6299212598425196763, -0.9255905511811025610 ) ) ;
#311 = CARTESIAN_POINT ( 'NONE',  ( 0.000000000000000000, 0.6299212598425196763, 0.000000000000000000 ) ) ;
#312 = VECTOR ( 'NONE', #498, 39.37007874015748143 ) ;
#313 = CARTESIAN_POINT ( 'NONE',  ( -1.181102362204724310, 0.6299212598425196763, -0.1299212598425197318 ) ) ;
#314 = CARTESIAN_POINT ( 'NONE',  ( 0.000000000000000000, 0.6299212598425196763, 0.000000000000000000 ) ) ;
#315 = CARTESIAN_POINT ( 'NONE',  ( -1.181102362204724310, 0.000000000000000000, 0.000000000000000000 ) ) ;
#316 = ORIENTED_EDGE ( 'NONE', *, *, #242, .T. ) ;
#317 = SECURITY_CLASSIFICATION_LEVEL ( 'unclassified' ) ;
#318 = AXIS2_PLACEMENT_3D ( 'NONE', #398, #394, #222 ) ;
#319 = DIRECTION ( 'NONE',  ( -0.000000000000000000, -1.000000000000000000, -0.000000000000000000 ) ) ;
#320 = VERTEX_POINT ( 'NONE', #454 ) ;
#321 = CALENDAR_DATE ( 2026, 10, 8 ) ;
#322 = DIRECTION ( 'NONE',  ( 0.000000000000000000, 0.000000000000000000, 1.000000000000000000 ) ) ;
#323 = ORIENTED_EDGE ( 'NONE', *, *, #197, .F. ) ;
#324 = DATE_TIME_ROLE ( 'classification_date' ) ;
#325 = CIRCLE ( 'NONE', #260, 0.1299212598425195930 ) ;
#326 = FACE_OUTER_BOUND ( 'NONE', #162, .T. ) ;
#327 = EDGE_CURVE ( 'NONE', #320, #173, #190, .T. ) ;
#328 = ORIENTED_EDGE ( 'NONE', *, *, #154, .F. ) ;
#329 = COORDINATED_UNIVERSAL_TIME_OFFSET ( 1, 0, .AHEAD. ) ;
#330 = LINE ( 'NONE', #87, #218 ) ;
#331 = ORIENTED_EDGE ( 'NONE', *, *, #237, .T. ) ;
#332 = PERSON_AND_ORGANIZATION ( #52, #515 ) ;
#333 = AXIS2_PLACEMENT_3D ( 'NONE', #206, #377, #79 ) ;
#334 = CARTESIAN_POINT ( 'NONE',  ( 1.591076550073333019E-17, 0.6299212598425196763, -1.051181102362204633 ) ) ;
#335 = VERTEX_POINT ( 'NONE', #541 ) ;
#336 = DIRECTION ( 'NONE',  ( 0.000000000000000000, 0.000000000000000000, -1.000000000000000000 ) ) ;
#337 = ORIENTED_EDGE ( 'NONE', *, *, #51, .T. ) ;
#338 = ADVANCED_FACE ( 'NONE', ( #463 ), #155, .F. ) ;
#339 = CARTESIAN_POINT ( 'NONE',  ( 1.181102362204724310, 0.6299212598425196763, 0.1299212598425195930 ) ) ;
#340 = EDGE_LOOP ( 'NONE', ( #507, #328 ) ) ;
#341 = EDGE_CURVE ( 'NONE', #292, #168, #359, .T. ) ;
#342 = DIRECTION ( 'NONE',  ( 0.000000000000000000, 0.000000000000000000, 1.000000000000000000 ) ) ;
#343 = CARTESIAN_POINT ( 'NONE',  ( 0.000000000000000000, 0.6299212598425196763, 1.181102362204724310 ) ) ;
#344 = LOCAL_TIME ( 1, 39, 15.00000000000000000, #369 ) ;
#345 = CC_DESIGN_DATE_AND_TIME_ASSIGNMENT ( #209, #324, ( #220 ) ) ;
#346 = CARTESIAN_POINT ( 'NONE',  ( 1.181102362204724310, 0.6299212598425196763, 0.000000000000000000 ) ) ;
#347 = AXIS2_PLACEMENT_3D ( 'NONE', #25, #102, #271 ) ;
#348 = CYLINDRICAL_SURFACE ( 'NONE', #139, 1.496062992125984259 ) ;
#349 = DIRECTION ( 'NONE',  ( -0.000000000000000000, -1.000000000000000000, -0.000000000000000000 ) ) ;
#350 = EDGE_CURVE ( 'NONE', #295, #536, #169, .T. ) ;
#351 = EDGE_LOOP ( 'NONE', ( #165, #419 ) ) ;
#352 = AXIS2_PLACEMENT_3D ( 'NONE', #15, #184, #10 ) ;
#353 = ADVANCED_FACE ( 'NONE', ( #383 ), #210, .F. ) ;
#354 = CARTESIAN_POINT ( 'NONE',  ( 1.832148754629898441E-16, 0.6299212598425196763, 1.496062992125984259 ) ) ;
#355 = DIRECTION ( 'NONE',  ( 0.000000000000000000, 0.000000000000000000, -1.000000000000000000 ) ) ;
#356 = EDGE_CURVE ( 'NONE', #168, #292, #113, .T. ) ;
#357 = CARTESIAN_POINT ( 'NONE',  ( 1.181102362204724310, 0.6299212598425196763, 0.000000000000000000 ) ) ;
#358 = ORIENTED_EDGE ( 'NONE', *, *, #5, .T. ) ;
#359 = CIRCLE ( 'NONE', #403, 0.1299212598425197318 ) ;
#360 = APPLICATION_PROTOCOL_DEFINITION ( 'international standard', 'config_control_design', 1994, #478 ) ;
#361 = CARTESIAN_POINT ( 'NONE',  ( 0.000000000000000000, 0.000000000000000000, -1.181102362204724310 ) ) ;
#362 = FACE_OUTER_BOUND ( 'NONE', #80, .T. ) ;
#363 = AXIS2_PLACEMENT_3D ( 'NONE', #268, #439, #355 ) ;
#364 = FACE_BOUND ( 'NONE', #424, .T. ) ;
#365 = EDGE_LOOP ( 'NONE', ( #74, #358, #465, #247 ) ) ;
#366 = DIRECTION ( 'NONE',  ( 0.000000000000000000, 0.000000000000000000, 1.000000000000000000 ) ) ;
#367 = CARTESIAN_POINT ( 'NONE',  ( 0.000000000000000000, 0.000000000000000000, -1.181102362204724310 ) ) ;
#368 = EDGE_LOOP ( 'NONE', ( #542, #375 ) ) ;
#369 = COORDINATED_UNIVERSAL_TIME_OFFSET ( 1, 0, .AHEAD. ) ;
#370 = EDGE_CURVE ( 'NONE', #412, #77, #473, .T. ) ;
#371 = DIRECTION ( 'NONE',  ( 0.000000000000000000, 1.000000000000000000, 0.000000000000000000 ) ) ;
#372 = VERTEX_POINT ( 'NONE', #33 ) ;
#373 = VECTOR ( 'NONE', #95, 39.37007874015748143 ) ;
#374 = CARTESIAN_POINT ( 'NONE',  ( -1.181102362204724310, 0.6299212598425196763, 0.1299212598425197318 ) ) ;
#375 = ORIENTED_EDGE ( 'NONE', *, *, #397, .F. ) ;
#376 = APPLICATION_CONTEXT ( 'configuration controlled 3d designs of mechanical parts and assemblies' ) ;
#377 = DIRECTION ( 'NONE',  ( 0.000000000000000000, 1.000000000000000000, 0.000000000000000000 ) ) ;
#378 = VERTEX_POINT ( 'NONE', #296 ) ;
#379 = DATE_AND_TIME ( #321, #177 ) ;
#380 = LINE ( 'NONE', #294, #312 ) ;
#381 = EDGE_CURVE ( 'NONE', #236, #303, #208, .T. ) ;
#382 = ORIENTED_EDGE ( 'NONE', *, *, #11, .T. ) ;
#383 = FACE_OUTER_BOUND ( 'NONE', #289, .T. ) ;
#384 = ORIENTED_EDGE ( 'NONE', *, *, #106, .F. ) ;
#385 = ORIENTED_EDGE ( 'NONE', *, *, #227, .F. ) ;
#386 = CIRCLE ( 'NONE', #504, 0.9255905511811025610 ) ;
#387 = FACE_OUTER_BOUND ( 'NONE', #131, .T. ) ;
#388 = DIRECTION ( 'NONE',  ( 0.000000000000000000, 0.000000000000000000, 1.000000000000000000 ) ) ;
#389 = ORIENTED_EDGE ( 'NONE', *, *, #341, .F. ) ;
#390 = CIRCLE ( 'NONE', #304, 0.9255905511811025610 ) ;
#391 = PLANE ( 'NONE',  #279 ) ;
#392 = ORIENTED_EDGE ( 'NONE', *, *, #505, .T. ) ;
#393 = APPROVAL ( #125, 'UNSPECIFIED' ) ;
#394 = DIRECTION ( 'NONE',  ( -0.000000000000000000, -1.000000000000000000, -0.000000000000000000 ) ) ;
#395 = CARTESIAN_POINT ( 'NONE',  ( 0.000000000000000000, 0.6299212598425196763, -1.496062992125984259 ) ) ;
#396 = AXIS2_PLACEMENT_3D ( 'NONE', #343, #73, #531 ) ;
#397 = EDGE_CURVE ( 'NONE', #378, #502, #390, .T. ) ;
#398 = CARTESIAN_POINT ( 'NONE',  ( 0.000000000000000000, 0.6299212598425196763, 0.000000000000000000 ) ) ;
#399 = DIRECTION ( 'NONE',  ( 0.000000000000000000, 0.000000000000000000, 1.000000000000000000 ) ) ;
#400 =( NAMED_UNIT ( * ) SI_UNIT ( $, .STERADIAN. ) SOLID_ANGLE_UNIT ( ) );
#401 = CARTESIAN_POINT ( 'NONE',  ( -1.181102362204724310, 0.6299212598425196763, 0.000000000000000000 ) ) ;
#402 = ORIENTED_EDGE ( 'NONE', *, *, #117, .F. ) ;
#403 = AXIS2_PLACEMENT_3D ( 'NONE', #421, #126, #501 ) ;
#404 = FACE_OUTER_BOUND ( 'NONE', #365, .T. ) ;
#405 = AXIS2_PLACEMENT_3D ( 'NONE', #432, #6, #342 ) ;
#406 = CARTESIAN_POINT ( 'NONE',  ( 1.591076550073333019E-17, 0.6299212598425196763, -1.051181102362204633 ) ) ;
#407 = ORIENTED_EDGE ( 'NONE', *, *, #5, .F. ) ;
#408 = LINE ( 'NONE', #395, #96 ) ;
#409 = ADVANCED_FACE ( 'NONE', ( #326 ), #119, .F. ) ;
#410 = PERSON_AND_ORGANIZATION ( #52, #515 ) ;
#411 = DIRECTION ( 'NONE',  ( 0.000000000000000000, 1.000000000000000000, 0.000000000000000000 ) ) ;
#412 = VERTEX_POINT ( 'NONE', #130 ) ;
#413 = APPLICATION_PROTOCOL_DEFINITION ( 'international standard', 'config_control_design', 1994, #376 ) ;
#414 = DIRECTION ( 'NONE',  ( 0.000000000000000000, 0.000000000000000000, -1.000000000000000000 ) ) ;
#415 = VERTEX_POINT ( 'NONE', #511 ) ;
#416 = PERSON_AND_ORGANIZATION ( #52, #515 ) ;
#417 = DIRECTION ( 'NONE',  ( 0.000000000000000000, -0.000000000000000000, 1.000000000000000000 ) ) ;
#418 = APPROVAL_PERSON_ORGANIZATION ( #462, #446, #449 ) ;
#419 = ORIENTED_EDGE ( 'NONE', *, *, #7, .F. ) ;
#420 = MECHANICAL_CONTEXT ( 'NONE', #478, 'mechanical' ) ;
#421 = CARTESIAN_POINT ( 'NONE',  ( -1.181102362204724310, 0.6299212598425196763, 0.000000000000000000 ) ) ;
#422 = ORIENTED_EDGE ( 'NONE', *, *, #242, .F. ) ;
#423 = DIRECTION ( 'NONE',  ( -0.000000000000000000, -1.000000000000000000, -0.000000000000000000 ) ) ;
#424 = EDGE_LOOP ( 'NONE', ( #475, #38 ) ) ;
#425 = AXIS2_PLACEMENT_3D ( 'NONE', #142, #55, #388 ) ;
#426 = AXIS2_PLACEMENT_3D ( 'NONE', #346, #518, #176 ) ;
#427 = EDGE_LOOP ( 'NONE', ( #48, #284, #245, #147 ) ) ;
#428 = EDGE_CURVE ( 'NONE', #467, #267, #69, .T. ) ;
#429 = CARTESIAN_POINT ( 'NONE',  ( -1.181102362204724310, 0.6299212598425196763, 0.000000000000000000 ) ) ;
#430 = AXIS2_PLACEMENT_3D ( 'NONE', #203, #291, #494 ) ;
#431 = LINE ( 'NONE', #175, #519 ) ;
#432 = CARTESIAN_POINT ( 'NONE',  ( 0.000000000000000000, 0.6299212598425196763, -1.181102362204724310 ) ) ;
#433 =( GEOMETRIC_REPRESENTATION_CONTEXT ( 3 ) GLOBAL_UNCERTAINTY_ASSIGNED_CONTEXT ( ( #437 ) ) GLOBAL_UNIT_ASSIGNED_CONTEXT ( ( #442, #186, #400 ) ) REPRESENTATION_CONTEXT ( 'NONE', 'WORKASPACE' ) );
#434 = FACE_BOUND ( 'NONE', #351, .T. ) ;
#435 = CC_DESIGN_PERSON_AND_ORGANIZATION_ASSIGNMENT ( #82, #114, ( #151 ) ) ;
#436 = VERTEX_POINT ( 'NONE', #339 ) ;
#437 = UNCERTAINTY_MEASURE_WITH_UNIT (LENGTH_MEASURE( 1.000000000000000082E-05 ), #442, 'distance_accuracy_value', 'NONE');
#438 = DIRECTION ( 'NONE',  ( 0.000000000000000000, 1.000000000000000000, 0.000000000000000000 ) ) ;
#439 = DIRECTION ( 'NONE',  ( -0.000000000000000000, -1.000000000000000000, -0.000000000000000000 ) ) ;
#440 = DIRECTION ( 'NONE',  ( 0.000000000000000000, 0.000000000000000000, 1.000000000000000000 ) ) ;
#441 = CIRCLE ( 'NONE', #285, 0.1299212598425197318 ) ;
#442 =( CONVERSION_BASED_UNIT ( 'INCH', #274 ) LENGTH_UNIT ( ) NAMED_UNIT ( #26 ) );
#443 = APPROVAL_PERSON_ORGANIZATION ( #410, #47, #458 ) ;
#444 = DIRECTION ( 'NONE',  ( -0.000000000000000000, -1.000000000000000000, -0.000000000000000000 ) ) ;
#445 = EDGE_LOOP ( 'NONE', ( #472, #29 ) ) ;
#446 = APPROVAL ( #281, 'UNSPECIFIED' ) ;
#447 = FACE_OUTER_BOUND ( 'NONE', #522, .T. ) ;
#448 = DIRECTION ( 'NONE',  ( 0.000000000000000000, 0.000000000000000000, 1.000000000000000000 ) ) ;
#449 = APPROVAL_ROLE ( '' ) ;
#450 = CARTESIAN_POINT ( 'NONE',  ( 0.000000000000000000, 0.000000000000000000, 0.000000000000000000 ) ) ;
#451 = AXIS2_PLACEMENT_3D ( 'NONE', #429, #57, #221 ) ;
#452 = APPROVAL_ROLE ( '' ) ;
#453 = ADVANCED_FACE ( 'NONE', ( #480 ), #22, .T. ) ;
#454 = CARTESIAN_POINT ( 'NONE',  ( 0.000000000000000000, 0.000000000000000000, 1.051181102362204633 ) ) ;
#455 = DIRECTION ( 'NONE',  ( 0.000000000000000000, 1.000000000000000000, 0.000000000000000000 ) ) ;
#456 = ORIENTED_EDGE ( 'NONE', *, *, #381, .T. ) ;
#457 = EDGE_CURVE ( 'NONE', #412, #320, #266, .T. ) ;
#458 = APPROVAL_ROLE ( '' ) ;
#459 = CIRCLE ( 'NONE', #306, 0.1299212598425195930 ) ;
#460 = FACE_BOUND ( 'NONE', #216, .T. ) ;
#461 = EDGE_LOOP ( 'NONE', ( #92, #509 ) ) ;
#462 = PERSON_AND_ORGANIZATION ( #52, #515 ) ;
#463 = FACE_OUTER_BOUND ( 'NONE', #427, .T. ) ;
#464 = CC_DESIGN_APPROVAL ( #47, ( #151 ) ) ;
#465 = ORIENTED_EDGE ( 'NONE', *, *, #469, .F. ) ;
#466 = DIRECTION ( 'NONE',  ( 0.000000000000000000, 1.000000000000000000, 0.000000000000000000 ) ) ;
#467 = VERTEX_POINT ( 'NONE', #63 ) ;
#468 = CARTESIAN_POINT ( 'NONE',  ( 0.000000000000000000, 0.6299212598425196763, -1.311023622047243986 ) ) ;
#469 = EDGE_CURVE ( 'NONE', #536, #295, #517, .T. ) ;
#470 = AXIS2_PLACEMENT_3D ( 'NONE', #311, #438, #283 ) ;
#471 = EDGE_LOOP ( 'NONE', ( #492, #389 ) ) ;
#472 = ORIENTED_EDGE ( 'NONE', *, *, #381, .F. ) ;
#473 = CIRCLE ( 'NONE', #179, 0.1299212598425195930 ) ;
#474 = AXIS2_PLACEMENT_3D ( 'NONE', #401, #189, #526 ) ;
#475 = ORIENTED_EDGE ( 'NONE', *, *, #327, .T. ) ;
#476 = CIRCLE ( 'NONE', #425, 1.496062992125984259 ) ;
#477 = CC_DESIGN_PERSON_AND_ORGANIZATION_ASSIGNMENT ( #42, #201, ( #13 ) ) ;
#478 = APPLICATION_CONTEXT ( 'configuration controlled 3d designs of mechanical parts and assemblies' ) ;
#479 = ORIENTED_EDGE ( 'NONE', *, *, #350, .F. ) ;
#480 = FACE_OUTER_BOUND ( 'NONE', #546, .T. ) ;
#481 = DIRECTION ( 'NONE',  ( -0.000000000000000000, -1.000000000000000000, -0.000000000000000000 ) ) ;
#482 = CARTESIAN_POINT ( 'NONE',  ( 1.133521505824971508E-16, 0.000000000000000000, 0.9255905511811025610 ) ) ;
#483 = ADVANCED_FACE ( 'NONE', ( #58, #110, #447, #523, #484, #434 ), #391, .T. ) ;
#484 = FACE_BOUND ( 'NONE', #45, .T. ) ;
#485 = DIRECTION ( 'NONE',  ( 0.000000000000000000, 0.000000000000000000, 1.000000000000000000 ) ) ;
#486 = ORIENTED_EDGE ( 'NONE', *, *, #397, .T. ) ;
#487 = DIRECTION ( 'NONE',  ( 0.000000000000000000, 1.000000000000000000, 0.000000000000000000 ) ) ;
#488 = LOCAL_TIME ( 1, 39, 15.00000000000000000, #329 ) ;
#489 = CARTESIAN_POINT ( 'NONE',  ( 0.000000000000000000, 0.000000000000000000, -0.9255905511811025610 ) ) ;
#490 = VECTOR ( 'NONE', #349, 39.37007874015748143 ) ;
#491 = CARTESIAN_POINT ( 'NONE',  ( 0.000000000000000000, 0.6299212598425196763, 1.181102362204724310 ) ) ;
#492 = ORIENTED_EDGE ( 'NONE', *, *, #356, .F. ) ;
#493 = ADVANCED_FACE ( 'NONE', ( #404 ), #66, .F. ) ;
#494 = DIRECTION ( 'NONE',  ( 0.000000000000000000, 0.000000000000000000, 1.000000000000000000 ) ) ;
#495 = VERTEX_POINT ( 'NONE', #14 ) ;
#496 = CIRCLE ( 'NONE', #64, 0.1299212598425195930 ) ;
#497 = DATE_TIME_ROLE ( 'creation_date' ) ;
#498 = DIRECTION ( 'NONE',  ( -0.000000000000000000, -1.000000000000000000, -0.000000000000000000 ) ) ;
#499 = EDGE_LOOP ( 'NONE', ( #112, #252, #259, #34 ) ) ;
#500 = APPROVAL_DATE_TIME ( #503, #393 ) ;
#501 = DIRECTION ( 'NONE',  ( 0.000000000000000000, 0.000000000000000000, 1.000000000000000000 ) ) ;
#502 = VERTEX_POINT ( 'NONE', #61 ) ;
#503 = DATE_AND_TIME ( #540, #275 ) ;
#504 = AXIS2_PLACEMENT_3D ( 'NONE', #450, #238, #399 ) ;
#505 = EDGE_CURVE ( 'NONE', #502, #192, #182, .T. ) ;
#506 = DIRECTION ( 'NONE',  ( -0.000000000000000000, -1.000000000000000000, -0.000000000000000000 ) ) ;
#507 = ORIENTED_EDGE ( 'NONE', *, *, #370, .F. ) ;
#508 = DIRECTION ( 'NONE',  ( 0.000000000000000000, 1.000000000000000000, 0.000000000000000000 ) ) ;
#509 = ORIENTED_EDGE ( 'NONE', *, *, #350, .T. ) ;
#510 = EDGE_CURVE ( 'NONE', #168, #335, #193, .T. ) ;
#511 = CARTESIAN_POINT ( 'NONE',  ( 0.000000000000000000, 0.6299212598425196763, -1.496062992125984259 ) ) ;
#512 = ORIENTED_EDGE ( 'NONE', *, *, #197, .T. ) ;
#513 = DIRECTION ( 'NONE',  ( 0.000000000000000000, 1.000000000000000000, 0.000000000000000000 ) ) ;
#514 = ORIENTED_EDGE ( 'NONE', *, *, #103, .F. ) ;
#515 = ORGANIZATION ( 'UNSPECIFIED', 'UNSPECIFIED', '' ) ;
#516 = LINE ( 'NONE', #468, #373 ) ;
#517 = CIRCLE ( 'NONE', #89, 0.1299212598425195930 ) ;
#518 = DIRECTION ( 'NONE',  ( -0.000000000000000000, -1.000000000000000000, -0.000000000000000000 ) ) ;
#519 = VECTOR ( 'NONE', #265, 39.37007874015748143 ) ;
#520 = DIRECTION ( 'NONE',  ( 0.000000000000000000, 1.000000000000000000, 0.000000000000000000 ) ) ;
#521 = VECTOR ( 'NONE', #481, 39.37007874015748143 ) ;
#522 = EDGE_LOOP ( 'NONE', ( #382, #512 ) ) ;
#523 = FACE_BOUND ( 'NONE', #368, .T. ) ;
#524 = ADVANCED_FACE ( 'NONE', ( #362 ), #229, .F. ) ;
#525 = DIRECTION ( 'NONE',  ( -0.000000000000000000, -1.000000000000000000, -0.000000000000000000 ) ) ;
#526 = DIRECTION ( 'NONE',  ( 0.000000000000000000, 0.000000000000000000, -1.000000000000000000 ) ) ;
#527 = ORIENTED_EDGE ( 'NONE', *, *, #17, .T. ) ;
#528 = LINE ( 'NONE', #187, #160 ) ;
#529 =( LENGTH_UNIT ( ) NAMED_UNIT ( * ) SI_UNIT ( $, .METRE. ) );
#530 = APPROVAL_PERSON_ORGANIZATION ( #332, #393, #452 ) ;
#531 = DIRECTION ( 'NONE',  ( 0.000000000000000000, 0.000000000000000000, -1.000000000000000000 ) ) ;
#532 = ORIENTED_EDGE ( 'NONE', *, *, #308, .F. ) ;
#533 = CC_DESIGN_DATE_AND_TIME_ASSIGNMENT ( #239, #497, ( #90 ) ) ;
#534 = CALENDAR_DATE ( 2026, 10, 8 ) ;
#535 = FACE_OUTER_BOUND ( 'NONE', #59, .T. ) ;
#536 = VERTEX_POINT ( 'NONE', #107 ) ;
#537 = DIRECTION ( 'NONE',  ( 0.000000000000000000, 0.000000000000000000, 1.000000000000000000 ) ) ;
#538 = ORIENTED_EDGE ( 'NONE', *, *, #174, .F. ) ;
#539 = CIRCLE ( 'NONE', #144, 0.1299212598425197318 ) ;
#540 = CALENDAR_DATE ( 2026, 10, 8 ) ;
#541 = CARTESIAN_POINT ( 'NONE',  ( -1.181102362204724310, 0.000000000000000000, -0.1299212598425197318 ) ) ;
#542 = ORIENTED_EDGE ( 'NONE', *, *, #202, .F. ) ;
#543 = DATE_AND_TIME ( #32, #488 ) ;
#544 = AXIS2_PLACEMENT_3D ( 'NONE', #91, #212, #322 ) ;
#545 = CARTESIAN_POINT ( 'NONE',  ( 0.000000000000000000, 0.6299212598425196763, 1.181102362204724310 ) ) ;
#546 = EDGE_LOOP ( 'NONE', ( #323, #297, #255, #384 ) ) ;
#547 = PRODUCT_DEFINITION_SHAPE ( 'NONE', 'NONE',  #90 ) ;
#548 = CIRCLE ( 'NONE', #54, 1.496062992125984259 ) ;
ENDSEC;
END-ISO-10303-21;
