ISO-10303-21;
HEADER;
FILE_DESCRIPTION (( 'STEP AP203' ),
    '1' );
FILE_NAME ('27_Upper_Bearing_Carrier.STEP',
    '2026-08-10T00:39:17',
    ( '' ),
    ( '' ),
    'SwSTEP 2.0',
    'SolidWorks 2026',
    '' );
FILE_SCHEMA (( 'CONFIG_CONTROL_DESIGN' ));
ENDSEC;

DATA;
#1 = EDGE_CURVE ( 'NONE', #417, #477, #499, .T. ) ;
#2 = DIRECTION ( 'NONE',  ( 0.000000000000000000, 0.000000000000000000, 1.000000000000000000 ) ) ;
#3 = VECTOR ( 'NONE', #342, 39.37007874015748143 ) ;
#4 = AXIS2_PLACEMENT_3D ( 'NONE', #289, #375, #336 ) ;
#5 = DIRECTION ( 'NONE',  ( 0.000000000000000000, 1.000000000000000000, 0.000000000000000000 ) ) ;
#6 = DIRECTION ( 'NONE',  ( 0.000000000000000000, 1.000000000000000000, 0.000000000000000000 ) ) ;
#7 = FACE_OUTER_BOUND ( 'NONE', #413, .T. ) ;
#8 = CARTESIAN_POINT ( 'NONE',  ( 0.000000000000000000, 0.6299212598425196763, 1.051181102362204633 ) ) ;
#9 = EDGE_CURVE ( 'NONE', #493, #228, #292, .T. ) ;
#10 = LINE ( 'NONE', #257, #542 ) ;
#11 = CARTESIAN_POINT ( 'NONE',  ( -1.181102362204724310, 0.6299212598425196763, 0.1299212598425197318 ) ) ;
#12 = AXIS2_PLACEMENT_3D ( 'NONE', #539, #33, #200 ) ;
#13 = CARTESIAN_POINT ( 'NONE',  ( 0.000000000000000000, 0.6299212598425196763, -1.496062992125984259 ) ) ;
#14 = CARTESIAN_POINT ( 'NONE',  ( -1.181102362204724310, 0.6299212598425196763, 0.000000000000000000 ) ) ;
#15 = EDGE_LOOP ( 'NONE', ( #532, #180, #508, #239 ) ) ;
#16 = DIRECTION ( 'NONE',  ( 0.000000000000000000, 1.000000000000000000, 0.000000000000000000 ) ) ;
#17 = CARTESIAN_POINT ( 'NONE',  ( 1.832148754629898441E-16, 0.6299212598425196763, 1.496062992125984259 ) ) ;
#18 = EDGE_LOOP ( 'NONE', ( #525, #158 ) ) ;
#19 = EDGE_CURVE ( 'NONE', #60, #345, #223, .T. ) ;
#20 = DIRECTION ( 'NONE',  ( 0.000000000000000000, 1.000000000000000000, 0.000000000000000000 ) ) ;
#21 = DATE_TIME_ROLE ( 'classification_date' ) ;
#22 = ORIENTED_EDGE ( 'NONE', *, *, #211, .T. ) ;
#23 = CIRCLE ( 'NONE', #370, 0.1299212598425197318 ) ;
#24 = CALENDAR_DATE ( 2026, 10, 8 ) ;
#25 = EDGE_LOOP ( 'NONE', ( #138, #149, #400, #435 ) ) ;
#26 = DATE_AND_TIME ( #24, #507 ) ;
#27 = ORIENTED_EDGE ( 'NONE', *, *, #104, .T. ) ;
#28 = LENGTH_MEASURE_WITH_UNIT ( LENGTH_MEASURE( 0.02539999999999999897 ), #481 );
#29 = ORIENTED_EDGE ( 'NONE', *, *, #35, .F. ) ;
#30 = PERSON_AND_ORGANIZATION ( #256, #177 ) ;
#31 = AXIS2_PLACEMENT_3D ( 'NONE', #505, #166, #297 ) ;
#32 = EDGE_LOOP ( 'NONE', ( #531, #282 ) ) ;
#33 = DIRECTION ( 'NONE',  ( 0.000000000000000000, 1.000000000000000000, 0.000000000000000000 ) ) ;
#34 = ORIENTED_EDGE ( 'NONE', *, *, #488, .F. ) ;
#35 = EDGE_CURVE ( 'NONE', #228, #311, #536, .T. ) ;
#36 = FACE_BOUND ( 'NONE', #81, .T. ) ;
#37 = EDGE_LOOP ( 'NONE', ( #316, #113, #540, #29 ) ) ;
#38 = VECTOR ( 'NONE', #79, 39.37007874015748143 ) ;
#39 = DIRECTION ( 'NONE',  ( 0.000000000000000000, 1.000000000000000000, 0.000000000000000000 ) ) ;
#40 = AXIS2_PLACEMENT_3D ( 'NONE', #306, #91, #259 ) ;
#41 = CC_DESIGN_DATE_AND_TIME_ASSIGNMENT ( #402, #21, ( #415 ) ) ;
#42 = CARTESIAN_POINT ( 'NONE',  ( 1.133521505824971508E-16, 0.6299212598425196763, 0.9255905511811025610 ) ) ;
#43 = APPROVAL_DATE_TIME ( #272, #293 ) ;
#44 = CARTESIAN_POINT ( 'NONE',  ( 0.000000000000000000, 0.6299212598425196763, -0.9255905511811025610 ) ) ;
#45 = DIRECTION ( 'NONE',  ( 0.000000000000000000, 0.000000000000000000, 1.000000000000000000 ) ) ;
#46 = CARTESIAN_POINT ( 'NONE',  ( 1.181102362204724310, 0.000000000000000000, 0.000000000000000000 ) ) ;
#47 = AXIS2_PLACEMENT_3D ( 'NONE', #543, #75, #208 ) ;
#48 = EDGE_CURVE ( 'NONE', #187, #73, #235, .T. ) ;
#49 = CARTESIAN_POINT ( 'NONE',  ( 1.591076550073334559E-17, 0.000000000000000000, 1.311023622047243986 ) ) ;
#50 = DIRECTION ( 'NONE',  ( 0.000000000000000000, -0.000000000000000000, 1.000000000000000000 ) ) ;
#51 = CARTESIAN_POINT ( 'NONE',  ( 0.000000000000000000, 0.6299212598425196763, 1.051181102362204633 ) ) ;
#52 = DIRECTION ( 'NONE',  ( -0.000000000000000000, -1.000000000000000000, -0.000000000000000000 ) ) ;
#53 = DIRECTION ( 'NONE',  ( 0.000000000000000000, 0.000000000000000000, 1.000000000000000000 ) ) ;
#54 = DIRECTION ( 'NONE',  ( 0.000000000000000000, 0.000000000000000000, -1.000000000000000000 ) ) ;
#55 = VERTEX_POINT ( 'NONE', #218 ) ;
#56 = AXIS2_PLACEMENT_3D ( 'NONE', #135, #357, #226 ) ;
#57 = AXIS2_PLACEMENT_3D ( 'NONE', #46, #389, #227 ) ;
#58 = LINE ( 'NONE', #350, #3 ) ;
#59 = CYLINDRICAL_SURFACE ( 'NONE', #480, 0.1299212598425195930 ) ;
#60 = VERTEX_POINT ( 'NONE', #520 ) ;
#61 = FACE_BOUND ( 'NONE', #522, .T. ) ;
#62 = PERSON_AND_ORGANIZATION_ROLE ( 'classification_officer' ) ;
#63 = ORIENTED_EDGE ( 'NONE', *, *, #143, .F. ) ;
#64 = ORIENTED_EDGE ( 'NONE', *, *, #277, .T. ) ;
#65 = AXIS2_PLACEMENT_3D ( 'NONE', #68, #194, #369 ) ;
#66 = APPROVAL_PERSON_ORGANIZATION ( #152, #199, #327 ) ;
#67 = EDGE_LOOP ( 'NONE', ( #443, #103, #296, #273 ) ) ;
#68 = CARTESIAN_POINT ( 'NONE',  ( -1.181102362204724310, 0.000000000000000000, 0.000000000000000000 ) ) ;
#69 = DATE_AND_TIME ( #279, #438 ) ;
#70 = ORIENTED_EDGE ( 'NONE', *, *, #260, .T. ) ;
#71 = VECTOR ( 'NONE', #181, 39.37007874015748143 ) ;
#72 = LOCAL_TIME ( 1, 39, 17.00000000000000000, #528 ) ;
#73 = VERTEX_POINT ( 'NONE', #51 ) ;
#74 = EDGE_CURVE ( 'NONE', #345, #60, #478, .T. ) ;
#75 = DIRECTION ( 'NONE',  ( 0.000000000000000000, 1.000000000000000000, 0.000000000000000000 ) ) ;
#76 = VERTEX_POINT ( 'NONE', #391 ) ;
#77 = EDGE_CURVE ( 'NONE', #228, #493, #339, .T. ) ;
#78 = CARTESIAN_POINT ( 'NONE',  ( 0.000000000000000000, 0.000000000000000000, 1.181102362204724310 ) ) ;
#79 = DIRECTION ( 'NONE',  ( -0.000000000000000000, -1.000000000000000000, -0.000000000000000000 ) ) ;
#80 = CYLINDRICAL_SURFACE ( 'NONE', #268, 1.496062992125984259 ) ;
#81 = EDGE_LOOP ( 'NONE', ( #281, #482 ) ) ;
#82 = CYLINDRICAL_SURFACE ( 'NONE', #31, 0.1299212598425195930 ) ;
#83 = EDGE_CURVE ( 'NONE', #356, #76, #10, .T. ) ;
#84 = DIRECTION ( 'NONE',  ( 0.000000000000000000, 0.000000000000000000, 1.000000000000000000 ) ) ;
#85 = LINE ( 'NONE', #8, #500 ) ;
#86 = CIRCLE ( 'NONE', #56, 1.496062992125984259 ) ;
#87 = CC_DESIGN_APPROVAL ( #145, ( #285 ) ) ;
#88 = DIRECTION ( 'NONE',  ( 0.000000000000000000, 0.000000000000000000, 1.000000000000000000 ) ) ;
#89 = CARTESIAN_POINT ( 'NONE',  ( 0.000000000000000000, 0.6299212598425196763, -1.181102362204724310 ) ) ;
#90 = DIRECTION ( 'NONE',  ( 0.000000000000000000, 1.000000000000000000, 0.000000000000000000 ) ) ;
#91 = DIRECTION ( 'NONE',  ( -0.000000000000000000, -1.000000000000000000, -0.000000000000000000 ) ) ;
#92 = EDGE_LOOP ( 'NONE', ( #364, #96 ) ) ;
#93 = CARTESIAN_POINT ( 'NONE',  ( 0.000000000000000000, 0.000000000000000000, -1.181102362204724310 ) ) ;
#94 = CARTESIAN_POINT ( 'NONE',  ( 0.000000000000000000, 0.6299212598425196763, -1.181102362204724310 ) ) ;
#95 = EDGE_CURVE ( 'NONE', #477, #333, #120, .T. ) ;
#96 = ORIENTED_EDGE ( 'NONE', *, *, #9, .T. ) ;
#97 = AXIS2_PLACEMENT_3D ( 'NONE', #305, #90, #298 ) ;
#98 =( GEOMETRIC_REPRESENTATION_CONTEXT ( 3 ) GLOBAL_UNCERTAINTY_ASSIGNED_CONTEXT ( ( #136 ) ) GLOBAL_UNIT_ASSIGNED_CONTEXT ( ( #197, #236, #404 ) ) REPRESENTATION_CONTEXT ( 'NONE', 'WORKASPACE' ) );
#99 = DIRECTION ( 'NONE',  ( 0.000000000000000000, 0.000000000000000000, -1.000000000000000000 ) ) ;
#100 = EDGE_LOOP ( 'NONE', ( #117, #246 ) ) ;
#101 = DIRECTION ( 'NONE',  ( 0.000000000000000000, 1.000000000000000000, 0.000000000000000000 ) ) ;
#102 = APPROVAL_ROLE ( '' ) ;
#103 = ORIENTED_EDGE ( 'NONE', *, *, #509, .T. ) ;
#104 = EDGE_CURVE ( 'NONE', #311, #55, #86, .T. ) ;
#105 = CALENDAR_DATE ( 2026, 10, 8 ) ;
#106 = EDGE_LOOP ( 'NONE', ( #450, #492, #474, #27 ) ) ;
#107 = CC_DESIGN_DATE_AND_TIME_ASSIGNMENT ( #412, #330, ( #285 ) ) ;
#108 = AXIS2_PLACEMENT_3D ( 'NONE', #523, #437, #99 ) ;
#109 = AXIS2_PLACEMENT_3D ( 'NONE', #14, #524, #355 ) ;
#110 = PERSON_AND_ORGANIZATION ( #256, #177 ) ;
#111 = EDGE_LOOP ( 'NONE', ( #64, #269 ) ) ;
#112 = COORDINATED_UNIVERSAL_TIME_OFFSET ( 1, 0, .AHEAD. ) ;
#113 = ORIENTED_EDGE ( 'NONE', *, *, #541, .T. ) ;
#114 = EDGE_CURVE ( 'NONE', #201, #368, #516, .T. ) ;
#115 = ORIENTED_EDGE ( 'NONE', *, *, #159, .F. ) ;
#116 = FACE_OUTER_BOUND ( 'NONE', #92, .T. ) ;
#117 = ORIENTED_EDGE ( 'NONE', *, *, #446, .F. ) ;
#118 = DIRECTION ( 'NONE',  ( 0.000000000000000000, 0.000000000000000000, 1.000000000000000000 ) ) ;
#119 = CARTESIAN_POINT ( 'NONE',  ( -1.181102362204724310, 0.000000000000000000, -0.1299212598425197318 ) ) ;
#120 = CIRCLE ( 'NONE', #533, 0.1299212598425197318 ) ;
#121 = DIRECTION ( 'NONE',  ( -0.000000000000000000, -1.000000000000000000, -0.000000000000000000 ) ) ;
#122 = AXIS2_PLACEMENT_3D ( 'NONE', #512, #352, #518 ) ;
#123 = VERTEX_POINT ( 'NONE', #49 ) ;
#124 = FACE_OUTER_BOUND ( 'NONE', #106, .T. ) ;
#125 = CARTESIAN_POINT ( 'NONE',  ( 1.591076550073334559E-17, 0.6299212598425196763, 1.311023622047243986 ) ) ;
#126 = FACE_OUTER_BOUND ( 'NONE', #37, .T. ) ;
#127 = ORIENTED_EDGE ( 'NONE', *, *, #458, .F. ) ;
#128 = DIRECTION ( 'NONE',  ( 0.000000000000000000, 0.000000000000000000, 1.000000000000000000 ) ) ;
#129 = CARTESIAN_POINT ( 'NONE',  ( 1.181102362204724310, 0.6299212598425196763, 0.1299212598425195930 ) ) ;
#130 = AXIS2_PLACEMENT_3D ( 'NONE', #420, #39, #50 ) ;
#131 = ADVANCED_FACE ( 'NONE', ( #220 ), #395, .F. ) ;
#132 = DIRECTION ( 'NONE',  ( -0.000000000000000000, -1.000000000000000000, -0.000000000000000000 ) ) ;
#133 = LINE ( 'NONE', #129, #546 ) ;
#134 = ORIENTED_EDGE ( 'NONE', *, *, #83, .T. ) ;
#135 = CARTESIAN_POINT ( 'NONE',  ( 0.000000000000000000, 0.000000000000000000, 0.000000000000000000 ) ) ;
#136 = UNCERTAINTY_MEASURE_WITH_UNIT (LENGTH_MEASURE( 1.000000000000000082E-05 ), #197, 'distance_accuracy_value', 'NONE');
#137 = FACE_OUTER_BOUND ( 'NONE', #419, .T. ) ;
#138 = ORIENTED_EDGE ( 'NONE', *, *, #323, .T. ) ;
#139 = CARTESIAN_POINT ( 'NONE',  ( 0.000000000000000000, 0.6299212598425196763, 0.000000000000000000 ) ) ;
#140 = ORIENTED_EDGE ( 'NONE', *, *, #314, .T. ) ;
#141 = FACE_BOUND ( 'NONE', #111, .T. ) ;
#142 = PERSON_AND_ORGANIZATION_ROLE ( 'creator' ) ;
#143 = EDGE_CURVE ( 'NONE', #333, #477, #23, .T. ) ;
#144 = ORIENTED_EDGE ( 'NONE', *, *, #488, .T. ) ;
#145 = APPROVAL ( #448, 'UNSPECIFIED' ) ;
#146 = DIRECTION ( 'NONE',  ( 0.000000000000000000, 0.000000000000000000, 1.000000000000000000 ) ) ;
#147 = VERTEX_POINT ( 'NONE', #216 ) ;
#148 = PERSON_AND_ORGANIZATION_ROLE ( 'creator' ) ;
#149 = ORIENTED_EDGE ( 'NONE', *, *, #185, .T. ) ;
#150 = EDGE_CURVE ( 'NONE', #147, #356, #349, .T. ) ;
#151 = CIRCLE ( 'NONE', #57, 0.1299212598425195930 ) ;
#152 = PERSON_AND_ORGANIZATION ( #256, #177 ) ;
#153 = CARTESIAN_POINT ( 'NONE',  ( 0.000000000000000000, 0.6299212598425196763, -1.311023622047243986 ) ) ;
#154 = EDGE_CURVE ( 'NONE', #73, #187, #313, .T. ) ;
#155 = PERSON_AND_ORGANIZATION ( #256, #177 ) ;
#156 = ORIENTED_EDGE ( 'NONE', *, *, #280, .T. ) ;
#157 = FACE_OUTER_BOUND ( 'NONE', #241, .T. ) ;
#158 = ORIENTED_EDGE ( 'NONE', *, *, #48, .F. ) ;
#159 = EDGE_CURVE ( 'NONE', #376, #345, #58, .T. ) ;
#160 = DIRECTION ( 'NONE',  ( -0.000000000000000000, -1.000000000000000000, -0.000000000000000000 ) ) ;
#161 = APPLICATION_CONTEXT ( 'configuration controlled 3d designs of mechanical parts and assemblies' ) ;
#162 = FACE_OUTER_BOUND ( 'NONE', #495, .T. ) ;
#163 = DIRECTION ( 'NONE',  ( -0.000000000000000000, -1.000000000000000000, -0.000000000000000000 ) ) ;
#164 = ORIENTED_EDGE ( 'NONE', *, *, #346, .F. ) ;
#165 = VECTOR ( 'NONE', #544, 39.37007874015748143 ) ;
#166 = DIRECTION ( 'NONE',  ( -0.000000000000000000, -1.000000000000000000, -0.000000000000000000 ) ) ;
#167 = LOCAL_TIME ( 1, 39, 17.00000000000000000, #442 ) ;
#168 = CARTESIAN_POINT ( 'NONE',  ( 1.591076550073333019E-17, 0.6299212598425196763, -1.051181102362204633 ) ) ;
#169 = ADVANCED_FACE ( 'NONE', ( #388 ), #517, .F. ) ;
#170 = FACE_OUTER_BOUND ( 'NONE', #529, .T. ) ;
#171 = DIRECTION ( 'NONE',  ( 0.000000000000000000, 1.000000000000000000, 0.000000000000000000 ) ) ;
#172 = CYLINDRICAL_SURFACE ( 'NONE', #315, 0.9255905511811025610 ) ;
#173 = VERTEX_POINT ( 'NONE', #168 ) ;
#174 = DIRECTION ( 'NONE',  ( -0.000000000000000000, -1.000000000000000000, -0.000000000000000000 ) ) ;
#175 = CYLINDRICAL_SURFACE ( 'NONE', #258, 0.1299212598425195930 ) ;
#176 = AXIS2_PLACEMENT_3D ( 'NONE', #335, #547, #118 ) ;
#177 = ORGANIZATION ( 'UNSPECIFIED', 'UNSPECIFIED', '' ) ;
#178 = DIRECTION ( 'NONE',  ( 0.000000000000000000, 1.000000000000000000, 0.000000000000000000 ) ) ;
#179 = LINE ( 'NONE', #264, #351 ) ;
#180 = ORIENTED_EDGE ( 'NONE', *, *, #466, .T. ) ;
#181 = DIRECTION ( 'NONE',  ( -0.000000000000000000, -1.000000000000000000, -0.000000000000000000 ) ) ;
#182 = DIRECTION ( 'NONE',  ( -0.000000000000000000, -1.000000000000000000, -0.000000000000000000 ) ) ;
#183 = ORIENTED_EDGE ( 'NONE', *, *, #19, .F. ) ;
#184 = DIRECTION ( 'NONE',  ( 0.000000000000000000, -0.000000000000000000, 1.000000000000000000 ) ) ;
#185 = EDGE_CURVE ( 'NONE', #173, #333, #511, .T. ) ;
#186 = PERSON_AND_ORGANIZATION ( #256, #177 ) ;
#187 = VERTEX_POINT ( 'NONE', #125 ) ;
#188 = CIRCLE ( 'NONE', #496, 0.9255905511811025610 ) ;
#189 = SECURITY_CLASSIFICATION_LEVEL ( 'unclassified' ) ;
#190 = EDGE_LOOP ( 'NONE', ( #140, #366 ) ) ;
#191 = PERSON_AND_ORGANIZATION ( #256, #177 ) ;
#192 = DIRECTION ( 'NONE',  ( 0.000000000000000000, 1.000000000000000000, 0.000000000000000000 ) ) ;
#193 = COORDINATED_UNIVERSAL_TIME_OFFSET ( 1, 0, .AHEAD. ) ;
#194 = DIRECTION ( 'NONE',  ( 0.000000000000000000, 1.000000000000000000, 0.000000000000000000 ) ) ;
#195 = AXIS2_PLACEMENT_3D ( 'NONE', #472, #5, #261 ) ;
#196 = PRODUCT_DEFINITION_FORMATION_WITH_SPECIFIED_SOURCE ( 'ANY', '', #483, .NOT_KNOWN. ) ;
#197 =( CONVERSION_BASED_UNIT ( 'INCH', #28 ) LENGTH_UNIT ( ) NAMED_UNIT ( #494 ) );
#198 = ORIENTED_EDGE ( 'NONE', *, *, #150, .T. ) ;
#199 = APPROVAL ( #274, 'UNSPECIFIED' ) ;
#200 = DIRECTION ( 'NONE',  ( 0.000000000000000000, 0.000000000000000000, 1.000000000000000000 ) ) ;
#201 = VERTEX_POINT ( 'NONE', #347 ) ;
#202 = EDGE_CURVE ( 'NONE', #55, #311, #447, .T. ) ;
#203 = FACE_BOUND ( 'NONE', #100, .T. ) ;
#204 = ORIENTED_EDGE ( 'NONE', *, *, #466, .F. ) ;
#205 = AXIS2_PLACEMENT_3D ( 'NONE', #470, #16, #53 ) ;
#206 = CIRCLE ( 'NONE', #462, 0.1299212598425195930 ) ;
#207 = DIRECTION ( 'NONE',  ( 0.000000000000000000, 0.000000000000000000, 1.000000000000000000 ) ) ;
#208 = DIRECTION ( 'NONE',  ( 0.000000000000000000, 0.000000000000000000, 1.000000000000000000 ) ) ;
#209 = DIRECTION ( 'NONE',  ( 0.000000000000000000, 1.000000000000000000, 0.000000000000000000 ) ) ;
#210 = PRODUCT_RELATED_PRODUCT_CATEGORY ( 'detail', '', ( #483 ) ) ;
#211 = EDGE_CURVE ( 'NONE', #464, #376, #334, .T. ) ;
#212 = AXIS2_PLACEMENT_3D ( 'NONE', #250, #160, #465 ) ;
#213 = DIRECTION ( 'NONE',  ( 0.000000000000000000, 0.000000000000000000, -1.000000000000000000 ) ) ;
#214 = AXIS2_PLACEMENT_3D ( 'NONE', #358, #254, #215 ) ;
#215 = DIRECTION ( 'NONE',  ( 0.000000000000000000, 0.000000000000000000, 1.000000000000000000 ) ) ;
#216 = CARTESIAN_POINT ( 'NONE',  ( 1.133521505824971508E-16, 0.6299212598425196763, 0.9255905511811025610 ) ) ;
#217 = CARTESIAN_POINT ( 'NONE',  ( -1.181102362204724310, 0.6299212598425196763, 0.000000000000000000 ) ) ;
#218 = CARTESIAN_POINT ( 'NONE',  ( 1.832148754629898441E-16, 0.000000000000000000, 1.496062992125984259 ) ) ;
#219 = CYLINDRICAL_SURFACE ( 'NONE', #122, 0.1299212598425197318 ) ;
#220 = FACE_OUTER_BOUND ( 'NONE', #67, .T. ) ;
#221 = FACE_OUTER_BOUND ( 'NONE', #322, .T. ) ;
#222 = CC_DESIGN_PERSON_AND_ORGANIZATION_ASSIGNMENT ( #155, #62, ( #415 ) ) ;
#223 = CIRCLE ( 'NONE', #65, 0.1299212598425197318 ) ;
#224 = AXIS2_PLACEMENT_3D ( 'NONE', #267, #476, #439 ) ;
#225 = ORIENTED_EDGE ( 'NONE', *, *, #202, .F. ) ;
#226 = DIRECTION ( 'NONE',  ( 0.000000000000000000, 0.000000000000000000, 1.000000000000000000 ) ) ;
#227 = DIRECTION ( 'NONE',  ( 0.000000000000000000, 0.000000000000000000, 1.000000000000000000 ) ) ;
#228 = VERTEX_POINT ( 'NONE', #13 ) ;
#229 = CARTESIAN_POINT ( 'NONE',  ( 1.181102362204724310, 0.6299212598425196763, 0.000000000000000000 ) ) ;
#230 = DESIGN_CONTEXT ( 'detailed design', #161, 'design' ) ;
#231 = CALENDAR_DATE ( 2026, 10, 8 ) ;
#232 = ORIENTED_EDGE ( 'NONE', *, *, #95, .T. ) ;
#233 = ADVANCED_FACE ( 'NONE', ( #7, #141, #317, #401, #441, #61 ), #527, .F. ) ;
#234 = ORIENTED_EDGE ( 'NONE', *, *, #185, .F. ) ;
#235 = CIRCLE ( 'NONE', #205, 0.1299212598425195930 ) ;
#236 =( NAMED_UNIT ( * ) PLANE_ANGLE_UNIT ( ) SI_UNIT ( $, .RADIAN. ) );
#237 = ORIENTED_EDGE ( 'NONE', *, *, #159, .T. ) ;
#238 = DIRECTION ( 'NONE',  ( 1.000000000000000000, 0.000000000000000000, 0.000000000000000000 ) ) ;
#239 = ORIENTED_EDGE ( 'NONE', *, *, #280, .F. ) ;
#240 = APPROVAL_DATE_TIME ( #69, #199 ) ;
#241 = EDGE_LOOP ( 'NONE', ( #204, #287, #156, #34 ) ) ;
#242 = AXIS2_PLACEMENT_3D ( 'NONE', #139, #178, #354 ) ;
#243 = APPROVAL_PERSON_ORGANIZATION ( #186, #293, #102 ) ;
#244 = ORIENTED_EDGE ( 'NONE', *, *, #509, .F. ) ;
#245 = DIRECTION ( 'NONE',  ( 0.000000000000000000, 0.000000000000000000, -1.000000000000000000 ) ) ;
#246 = ORIENTED_EDGE ( 'NONE', *, *, #211, .F. ) ;
#247 = FACE_BOUND ( 'NONE', #278, .T. ) ;
#248 = CIRCLE ( 'NONE', #176, 0.1299212598425197318 ) ;
#249 = CC_DESIGN_APPROVAL ( #199, ( #196 ) ) ;
#250 = CARTESIAN_POINT ( 'NONE',  ( 0.000000000000000000, 0.6299212598425196763, 0.000000000000000000 ) ) ;
#251 = CYLINDRICAL_SURFACE ( 'NONE', #4, 0.1299212598425197318 ) ;
#252 = EDGE_CURVE ( 'NONE', #368, #201, #421, .T. ) ;
#253 = CARTESIAN_POINT ( 'NONE',  ( 0.000000000000000000, 0.6299212598425196763, 0.000000000000000000 ) ) ;
#254 = DIRECTION ( 'NONE',  ( 0.000000000000000000, 1.000000000000000000, 0.000000000000000000 ) ) ;
#255 = CC_DESIGN_PERSON_AND_ORGANIZATION_ASSIGNMENT ( #537, #372, ( #196 ) ) ;
#256 = PERSON ( 'UNSPECIFIED', 'UNSPECIFIED', 'UNSPECIFIED', ('UNSPECIFIED'), ('UNSPECIFIED'), ('UNSPECIFIED') ) ;
#257 = CARTESIAN_POINT ( 'NONE',  ( 0.000000000000000000, 0.6299212598425196763, -0.9255905511811025610 ) ) ;
#258 = AXIS2_PLACEMENT_3D ( 'NONE', #89, #468, #262 ) ;
#259 = DIRECTION ( 'NONE',  ( 0.000000000000000000, 0.000000000000000000, -1.000000000000000000 ) ) ;
#260 = EDGE_CURVE ( 'NONE', #147, #403, #384, .T. ) ;
#261 = DIRECTION ( 'NONE',  ( 0.000000000000000000, 0.000000000000000000, 1.000000000000000000 ) ) ;
#262 = DIRECTION ( 'NONE',  ( 0.000000000000000000, 0.000000000000000000, -1.000000000000000000 ) ) ;
#263 = CARTESIAN_POINT ( 'NONE',  ( 0.000000000000000000, 0.6299212598425196763, 0.000000000000000000 ) ) ;
#264 = CARTESIAN_POINT ( 'NONE',  ( 1.591076550073333019E-17, 0.6299212598425196763, 1.311023622047243986 ) ) ;
#265 = ORIENTED_EDGE ( 'NONE', *, *, #300, .F. ) ;
#266 = CARTESIAN_POINT ( 'NONE',  ( 1.181102362204724310, 0.6299212598425196763, 0.000000000000000000 ) ) ;
#267 = CARTESIAN_POINT ( 'NONE',  ( 1.181102362204724310, 0.000000000000000000, 0.000000000000000000 ) ) ;
#268 = AXIS2_PLACEMENT_3D ( 'NONE', #503, #378, #245 ) ;
#269 = ORIENTED_EDGE ( 'NONE', *, *, #458, .T. ) ;
#270 = DIRECTION ( 'NONE',  ( 0.000000000000000000, 0.000000000000000000, 1.000000000000000000 ) ) ;
#271 = VERTEX_POINT ( 'NONE', #498 ) ;
#272 = DATE_AND_TIME ( #319, #72 ) ;
#273 = ORIENTED_EDGE ( 'NONE', *, *, #434, .F. ) ;
#274 = APPROVAL_STATUS ( 'not_yet_approved' ) ;
#275 = ORIENTED_EDGE ( 'NONE', *, *, #19, .T. ) ;
#276 = VECTOR ( 'NONE', #121, 39.37007874015748143 ) ;
#277 = EDGE_CURVE ( 'NONE', #76, #403, #188, .T. ) ;
#278 = EDGE_LOOP ( 'NONE', ( #331, #265 ) ) ;
#279 = CALENDAR_DATE ( 2026, 10, 8 ) ;
#280 = EDGE_CURVE ( 'NONE', #201, #271, #341, .T. ) ;
#281 = ORIENTED_EDGE ( 'NONE', *, *, #114, .F. ) ;
#282 = ORIENTED_EDGE ( 'NONE', *, *, #150, .F. ) ;
#283 = ADVANCED_FACE ( 'NONE', ( #510 ), #338, .F. ) ;
#284 = CIRCLE ( 'NONE', #12, 0.9255905511811025610 ) ;
#285 = PRODUCT_DEFINITION ( 'UNKNOWN', '', #196, #230 ) ;
#286 = FACE_BOUND ( 'NONE', #32, .T. ) ;
#287 = ORIENTED_EDGE ( 'NONE', *, *, #252, .T. ) ;
#288 = SHAPE_DEFINITION_REPRESENTATION ( #318, #329 ) ;
#289 = CARTESIAN_POINT ( 'NONE',  ( 0.000000000000000000, 0.6299212598425196763, 1.181102362204724310 ) ) ;
#290 = CARTESIAN_POINT ( 'NONE',  ( -1.181102362204724310, 0.6299212598425196763, 0.1299212598425197318 ) ) ;
#291 = APPLICATION_CONTEXT ( 'configuration controlled 3d designs of mechanical parts and assemblies' ) ;
#292 = CIRCLE ( 'NONE', #436, 1.496062992125984259 ) ;
#293 = APPROVAL ( #363, 'UNSPECIFIED' ) ;
#294 = VECTOR ( 'NONE', #163, 39.37007874015748143 ) ;
#295 = DIRECTION ( 'NONE',  ( 0.000000000000000000, 0.000000000000000000, 1.000000000000000000 ) ) ;
#296 = ORIENTED_EDGE ( 'NONE', *, *, #314, .F. ) ;
#297 = DIRECTION ( 'NONE',  ( 0.000000000000000000, 0.000000000000000000, -1.000000000000000000 ) ) ;
#298 = DIRECTION ( 'NONE',  ( 0.000000000000000000, 0.000000000000000000, 1.000000000000000000 ) ) ;
#299 = CYLINDRICAL_SURFACE ( 'NONE', #40, 1.496062992125984259 ) ;
#300 = EDGE_CURVE ( 'NONE', #173, #417, #248, .T. ) ;
#301 = AXIS2_PLACEMENT_3D ( 'NONE', #475, #479, #128 ) ;
#302 = CARTESIAN_POINT ( 'NONE',  ( -1.181102362204724310, 0.6299212598425196763, 0.000000000000000000 ) ) ;
#303 = AXIS2_PLACEMENT_3D ( 'NONE', #217, #6, #343 ) ;
#304 = DIRECTION ( 'NONE',  ( -0.000000000000000000, -1.000000000000000000, -0.000000000000000000 ) ) ;
#305 = CARTESIAN_POINT ( 'NONE',  ( 0.000000000000000000, 0.000000000000000000, 0.000000000000000000 ) ) ;
#306 = CARTESIAN_POINT ( 'NONE',  ( 0.000000000000000000, 0.6299212598425196763, 0.000000000000000000 ) ) ;
#307 = ORIENTED_EDGE ( 'NONE', *, *, #74, .F. ) ;
#308 = EDGE_CURVE ( 'NONE', #356, #147, #284, .T. ) ;
#309 = DIRECTION ( 'NONE',  ( 0.000000000000000000, 1.000000000000000000, 0.000000000000000000 ) ) ;
#310 = LINE ( 'NONE', #17, #422 ) ;
#311 = VERTEX_POINT ( 'NONE', #423 ) ;
#312 = CARTESIAN_POINT ( 'NONE',  ( 0.000000000000000000, 0.000000000000000000, -1.181102362204724310 ) ) ;
#313 = CIRCLE ( 'NONE', #195, 0.1299212598425195930 ) ;
#314 = EDGE_CURVE ( 'NONE', #353, #123, #325, .T. ) ;
#315 = AXIS2_PLACEMENT_3D ( 'NONE', #394, #348, #426 ) ;
#316 = ORIENTED_EDGE ( 'NONE', *, *, #9, .F. ) ;
#317 = FACE_BOUND ( 'NONE', #397, .T. ) ;
#318 = PRODUCT_DEFINITION_SHAPE ( 'NONE', 'NONE',  #285 ) ;
#319 = CALENDAR_DATE ( 2026, 10, 8 ) ;
#320 = ORIENTED_EDGE ( 'NONE', *, *, #260, .F. ) ;
#321 = APPLICATION_PROTOCOL_DEFINITION ( 'international standard', 'config_control_design', 1994, #291 ) ;
#322 = EDGE_LOOP ( 'NONE', ( #538, #455, #307, #115 ) ) ;
#323 = EDGE_CURVE ( 'NONE', #417, #173, #362, .T. ) ;
#324 = EDGE_LOOP ( 'NONE', ( #320, #198, #134, #127 ) ) ;
#325 = CIRCLE ( 'NONE', #47, 0.1299212598425195930 ) ;
#326 = AXIS2_PLACEMENT_3D ( 'NONE', #382, #383, #295 ) ;
#327 = APPROVAL_ROLE ( '' ) ;
#328 = CARTESIAN_POINT ( 'NONE',  ( 0.000000000000000000, 0.6299212598425196763, -1.496062992125984259 ) ) ;
#329 = ADVANCED_BREP_SHAPE_REPRESENTATION ( '27_Upper_Bearing_Carrier', ( #545, #491 ), #98 ) ;
#330 = DATE_TIME_ROLE ( 'creation_date' ) ;
#331 = ORIENTED_EDGE ( 'NONE', *, *, #323, .F. ) ;
#332 = FACE_BOUND ( 'NONE', #18, .T. ) ;
#333 = VERTEX_POINT ( 'NONE', #548 ) ;
#334 = CIRCLE ( 'NONE', #526, 0.1299212598425197318 ) ;
#335 = CARTESIAN_POINT ( 'NONE',  ( 0.000000000000000000, 0.6299212598425196763, -1.181102362204724310 ) ) ;
#336 = DIRECTION ( 'NONE',  ( 0.000000000000000000, 0.000000000000000000, -1.000000000000000000 ) ) ;
#337 = ADVANCED_FACE ( 'NONE', ( #162 ), #251, .F. ) ;
#338 = CYLINDRICAL_SURFACE ( 'NONE', #212, 0.9255905511811025610 ) ;
#339 = CIRCLE ( 'NONE', #242, 1.496062992125984259 ) ;
#340 = ORIENTED_EDGE ( 'NONE', *, *, #143, .T. ) ;
#341 = LINE ( 'NONE', #424, #38 ) ;
#342 = DIRECTION ( 'NONE',  ( -0.000000000000000000, -1.000000000000000000, -0.000000000000000000 ) ) ;
#343 = DIRECTION ( 'NONE',  ( 0.000000000000000000, 0.000000000000000000, 1.000000000000000000 ) ) ;
#344 = ADVANCED_FACE ( 'NONE', ( #124 ), #80, .T. ) ;
#345 = VERTEX_POINT ( 'NONE', #119 ) ;
#346 = EDGE_CURVE ( 'NONE', #464, #60, #459, .T. ) ;
#347 = CARTESIAN_POINT ( 'NONE',  ( 1.181102362204724310, 0.6299212598425196763, -0.1299212598425195930 ) ) ;
#348 = DIRECTION ( 'NONE',  ( -0.000000000000000000, -1.000000000000000000, -0.000000000000000000 ) ) ;
#349 = CIRCLE ( 'NONE', #380, 0.9255905511811025610 ) ;
#350 = CARTESIAN_POINT ( 'NONE',  ( -1.181102362204724310, 0.6299212598425196763, -0.1299212598425197318 ) ) ;
#351 = VECTOR ( 'NONE', #433, 39.37007874015748143 ) ;
#352 = DIRECTION ( 'NONE',  ( -0.000000000000000000, -1.000000000000000000, -0.000000000000000000 ) ) ;
#353 = VERTEX_POINT ( 'NONE', #418 ) ;
#354 = DIRECTION ( 'NONE',  ( 0.000000000000000000, 0.000000000000000000, 1.000000000000000000 ) ) ;
#355 = DIRECTION ( 'NONE',  ( 0.000000000000000000, 0.000000000000000000, -1.000000000000000000 ) ) ;
#356 = VERTEX_POINT ( 'NONE', #44 ) ;
#357 = DIRECTION ( 'NONE',  ( 0.000000000000000000, 1.000000000000000000, 0.000000000000000000 ) ) ;
#358 = CARTESIAN_POINT ( 'NONE',  ( 0.000000000000000000, 0.000000000000000000, 0.000000000000000000 ) ) ;
#359 = EDGE_LOOP ( 'NONE', ( #379, #144 ) ) ;
#360 = CC_DESIGN_PERSON_AND_ORGANIZATION_ASSIGNMENT ( #30, #142, ( #196 ) ) ;
#361 = DIRECTION ( 'NONE',  ( 0.000000000000000000, 0.000000000000000000, 1.000000000000000000 ) ) ;
#362 = CIRCLE ( 'NONE', #326, 0.1299212598425197318 ) ;
#363 = APPROVAL_STATUS ( 'not_yet_approved' ) ;
#364 = ORIENTED_EDGE ( 'NONE', *, *, #77, .T. ) ;
#365 = CARTESIAN_POINT ( 'NONE',  ( 0.000000000000000000, 0.000000000000000000, 0.000000000000000000 ) ) ;
#366 = ORIENTED_EDGE ( 'NONE', *, *, #374, .T. ) ;
#367 = PERSON_AND_ORGANIZATION_ROLE ( 'design_owner' ) ;
#368 = VERTEX_POINT ( 'NONE', #416 ) ;
#369 = DIRECTION ( 'NONE',  ( 0.000000000000000000, 0.000000000000000000, 1.000000000000000000 ) ) ;
#370 = AXIS2_PLACEMENT_3D ( 'NONE', #93, #171, #45 ) ;
#371 = CIRCLE ( 'NONE', #224, 0.1299212598425195930 ) ;
#372 = PERSON_AND_ORGANIZATION_ROLE ( 'design_supplier' ) ;
#373 = ORIENTED_EDGE ( 'NONE', *, *, #308, .T. ) ;
#374 = EDGE_CURVE ( 'NONE', #123, #353, #206, .T. ) ;
#375 = DIRECTION ( 'NONE',  ( -0.000000000000000000, -1.000000000000000000, -0.000000000000000000 ) ) ;
#376 = VERTEX_POINT ( 'NONE', #460 ) ;
#377 = ADVANCED_FACE ( 'NONE', ( #157 ), #82, .F. ) ;
#378 = DIRECTION ( 'NONE',  ( -0.000000000000000000, -1.000000000000000000, -0.000000000000000000 ) ) ;
#379 = ORIENTED_EDGE ( 'NONE', *, *, #453, .T. ) ;
#380 = AXIS2_PLACEMENT_3D ( 'NONE', #263, #513, #270 ) ;
#381 = CC_DESIGN_APPROVAL ( #293, ( #415 ) ) ;
#382 = CARTESIAN_POINT ( 'NONE',  ( 0.000000000000000000, 0.6299212598425196763, -1.181102362204724310 ) ) ;
#383 = DIRECTION ( 'NONE',  ( 0.000000000000000000, 1.000000000000000000, 0.000000000000000000 ) ) ;
#384 = LINE ( 'NONE', #42, #276 ) ;
#385 = AXIS2_PLACEMENT_3D ( 'NONE', #484, #101, #184 ) ;
#386 = ADVANCED_FACE ( 'NONE', ( #332, #203, #116, #286, #36, #247 ), #456, .T. ) ;
#387 = APPROVAL_PERSON_ORGANIZATION ( #110, #145, #409 ) ;
#388 = FACE_OUTER_BOUND ( 'NONE', #15, .T. ) ;
#389 = DIRECTION ( 'NONE',  ( 0.000000000000000000, 1.000000000000000000, 0.000000000000000000 ) ) ;
#390 = CC_DESIGN_PERSON_AND_ORGANIZATION_ASSIGNMENT ( #451, #367, ( #483 ) ) ;
#391 = CARTESIAN_POINT ( 'NONE',  ( 0.000000000000000000, 0.000000000000000000, -0.9255905511811025610 ) ) ;
#392 = CARTESIAN_POINT ( 'NONE',  ( 0.000000000000000000, 0.000000000000000000, -1.311023622047243986 ) ) ;
#393 = DIRECTION ( 'NONE',  ( 0.000000000000000000, 1.000000000000000000, 0.000000000000000000 ) ) ;
#394 = CARTESIAN_POINT ( 'NONE',  ( 0.000000000000000000, 0.6299212598425196763, 0.000000000000000000 ) ) ;
#395 = CYLINDRICAL_SURFACE ( 'NONE', #108, 0.1299212598425197318 ) ;
#396 = CYLINDRICAL_SURFACE ( 'NONE', #109, 0.1299212598425197318 ) ;
#397 = EDGE_LOOP ( 'NONE', ( #408, #275 ) ) ;
#398 = DIRECTION ( 'NONE',  ( -0.000000000000000000, -1.000000000000000000, -0.000000000000000000 ) ) ;
#399 = DIRECTION ( 'NONE',  ( -0.000000000000000000, -1.000000000000000000, -0.000000000000000000 ) ) ;
#400 = ORIENTED_EDGE ( 'NONE', *, *, #95, .F. ) ;
#401 = FACE_BOUND ( 'NONE', #359, .T. ) ;
#402 = DATE_AND_TIME ( #231, #167 ) ;
#403 = VERTEX_POINT ( 'NONE', #431 ) ;
#404 =( NAMED_UNIT ( * ) SI_UNIT ( $, .STERADIAN. ) SOLID_ANGLE_UNIT ( ) );
#405 = CC_DESIGN_SECURITY_CLASSIFICATION ( #415, ( #196 ) ) ;
#406 = ORIENTED_EDGE ( 'NONE', *, *, #104, .F. ) ;
#407 = APPROVAL_DATE_TIME ( #26, #145 ) ;
#408 = ORIENTED_EDGE ( 'NONE', *, *, #74, .T. ) ;
#409 = APPROVAL_ROLE ( '' ) ;
#410 = ADVANCED_FACE ( 'NONE', ( #514 ), #172, .F. ) ;
#411 = ORIENTED_EDGE ( 'NONE', *, *, #277, .F. ) ;
#412 = DATE_AND_TIME ( #105, #535 ) ;
#413 = EDGE_LOOP ( 'NONE', ( #406, #225 ) ) ;
#414 = AXIS2_PLACEMENT_3D ( 'NONE', #229, #20, #361 ) ;
#415 = SECURITY_CLASSIFICATION ( '', '', #189 ) ;
#416 = CARTESIAN_POINT ( 'NONE',  ( 1.181102362204724310, 0.6299212598425196763, 0.1299212598425195930 ) ) ;
#417 = VERTEX_POINT ( 'NONE', #521 ) ;
#418 = CARTESIAN_POINT ( 'NONE',  ( 0.000000000000000000, 0.000000000000000000, 1.051181102362204633 ) ) ;
#419 = EDGE_LOOP ( 'NONE', ( #234, #486, #485, #63 ) ) ;
#420 = CARTESIAN_POINT ( 'NONE',  ( 0.000000000000000000, 0.6299212598425196763, 0.000000000000000000 ) ) ;
#421 = CIRCLE ( 'NONE', #414, 0.1299212598425195930 ) ;
#422 = VECTOR ( 'NONE', #182, 39.37007874015748143 ) ;
#423 = CARTESIAN_POINT ( 'NONE',  ( 0.000000000000000000, 0.000000000000000000, -1.496062992125984259 ) ) ;
#424 = CARTESIAN_POINT ( 'NONE',  ( 1.181102362204724310, 0.6299212598425196763, -0.1299212598425195930 ) ) ;
#425 = EDGE_LOOP ( 'NONE', ( #373, #70, #411, #454 ) ) ;
#426 = DIRECTION ( 'NONE',  ( 0.000000000000000000, 0.000000000000000000, -1.000000000000000000 ) ) ;
#427 = CLOSED_SHELL ( 'NONE', ( #497, #131, #169, #530, #410, #504, #386, #233, #344, #283, #501, #377, #337, #515 ) ) ;
#428 = DIRECTION ( 'NONE',  ( 0.000000000000000000, 0.000000000000000000, 1.000000000000000000 ) ) ;
#429 = CARTESIAN_POINT ( 'NONE',  ( 1.181102362204724310, 0.000000000000000000, 0.1299212598425195930 ) ) ;
#430 = CARTESIAN_POINT ( 'NONE',  ( -1.181102362204724310, 0.000000000000000000, 0.000000000000000000 ) ) ;
#431 = CARTESIAN_POINT ( 'NONE',  ( 1.133521505824971508E-16, 0.000000000000000000, 0.9255905511811025610 ) ) ;
#432 = CARTESIAN_POINT ( 'NONE',  ( 1.591076550073333019E-17, 0.6299212598425196763, -1.051181102362204633 ) ) ;
#433 = DIRECTION ( 'NONE',  ( -0.000000000000000000, -1.000000000000000000, -0.000000000000000000 ) ) ;
#434 = EDGE_CURVE ( 'NONE', #73, #353, #85, .T. ) ;
#435 = ORIENTED_EDGE ( 'NONE', *, *, #1, .F. ) ;
#436 = AXIS2_PLACEMENT_3D ( 'NONE', #253, #192, #452 ) ;
#437 = DIRECTION ( 'NONE',  ( -0.000000000000000000, -1.000000000000000000, -0.000000000000000000 ) ) ;
#438 = LOCAL_TIME ( 1, 39, 17.00000000000000000, #112 ) ;
#439 = DIRECTION ( 'NONE',  ( 0.000000000000000000, 0.000000000000000000, 1.000000000000000000 ) ) ;
#440 = ORIENTED_EDGE ( 'NONE', *, *, #374, .F. ) ;
#441 = FACE_BOUND ( 'NONE', #190, .T. ) ;
#442 = COORDINATED_UNIVERSAL_TIME_OFFSET ( 1, 0, .AHEAD. ) ;
#443 = ORIENTED_EDGE ( 'NONE', *, *, #154, .T. ) ;
#444 = APPLICATION_PROTOCOL_DEFINITION ( 'international standard', 'config_control_design', 1994, #161 ) ;
#445 = ORIENTED_EDGE ( 'NONE', *, *, #48, .T. ) ;
#446 = EDGE_CURVE ( 'NONE', #376, #464, #449, .T. ) ;
#447 = CIRCLE ( 'NONE', #97, 1.496062992125984259 ) ;
#448 = APPROVAL_STATUS ( 'not_yet_approved' ) ;
#449 = CIRCLE ( 'NONE', #303, 0.1299212598425197318 ) ;
#450 = ORIENTED_EDGE ( 'NONE', *, *, #541, .F. ) ;
#451 = PERSON_AND_ORGANIZATION ( #256, #177 ) ;
#452 = DIRECTION ( 'NONE',  ( 0.000000000000000000, 0.000000000000000000, 1.000000000000000000 ) ) ;
#453 = EDGE_CURVE ( 'NONE', #271, #519, #151, .T. ) ;
#454 = ORIENTED_EDGE ( 'NONE', *, *, #83, .F. ) ;
#455 = ORIENTED_EDGE ( 'NONE', *, *, #346, .T. ) ;
#456 = PLANE ( 'NONE',  #130 ) ;
#457 = ORIENTED_EDGE ( 'NONE', *, *, #434, .T. ) ;
#458 = EDGE_CURVE ( 'NONE', #403, #76, #469, .T. ) ;
#459 = LINE ( 'NONE', #290, #294 ) ;
#460 = CARTESIAN_POINT ( 'NONE',  ( -1.181102362204724310, 0.6299212598425196763, -0.1299212598425197318 ) ) ;
#461 = AXIS2_PLACEMENT_3D ( 'NONE', #430, #393, #88 ) ;
#462 = AXIS2_PLACEMENT_3D ( 'NONE', #78, #209, #2 ) ;
#463 = DIRECTION ( 'NONE',  ( 0.000000000000000000, 1.000000000000000000, 0.000000000000000000 ) ) ;
#464 = VERTEX_POINT ( 'NONE', #11 ) ;
#465 = DIRECTION ( 'NONE',  ( 0.000000000000000000, 0.000000000000000000, -1.000000000000000000 ) ) ;
#466 = EDGE_CURVE ( 'NONE', #368, #519, #133, .T. ) ;
#467 = DIRECTION ( 'NONE',  ( 0.000000000000000000, 1.000000000000000000, 0.000000000000000000 ) ) ;
#468 = DIRECTION ( 'NONE',  ( -0.000000000000000000, -1.000000000000000000, -0.000000000000000000 ) ) ;
#469 = CIRCLE ( 'NONE', #214, 0.9255905511811025610 ) ;
#470 = CARTESIAN_POINT ( 'NONE',  ( 0.000000000000000000, 0.6299212598425196763, 1.181102362204724310 ) ) ;
#471 = FACE_OUTER_BOUND ( 'NONE', #25, .T. ) ;
#472 = CARTESIAN_POINT ( 'NONE',  ( 0.000000000000000000, 0.6299212598425196763, 1.181102362204724310 ) ) ;
#473 = CARTESIAN_POINT ( 'NONE',  ( 1.832148754629898441E-16, 0.6299212598425196763, 1.496062992125984259 ) ) ;
#474 = ORIENTED_EDGE ( 'NONE', *, *, #35, .T. ) ;
#475 = CARTESIAN_POINT ( 'NONE',  ( 1.181102362204724310, 0.6299212598425196763, 0.000000000000000000 ) ) ;
#476 = DIRECTION ( 'NONE',  ( 0.000000000000000000, 1.000000000000000000, 0.000000000000000000 ) ) ;
#477 = VERTEX_POINT ( 'NONE', #392 ) ;
#478 = CIRCLE ( 'NONE', #461, 0.1299212598425197318 ) ;
#479 = DIRECTION ( 'NONE',  ( 0.000000000000000000, 1.000000000000000000, 0.000000000000000000 ) ) ;
#480 = AXIS2_PLACEMENT_3D ( 'NONE', #94, #399, #54 ) ;
#481 =( LENGTH_UNIT ( ) NAMED_UNIT ( * ) SI_UNIT ( $, .METRE. ) );
#482 = ORIENTED_EDGE ( 'NONE', *, *, #252, .F. ) ;
#483 = PRODUCT ( '27_Upper_Bearing_Carrier', '27_Upper_Bearing_Carrier', '', ( #490 ) ) ;
#484 = CARTESIAN_POINT ( 'NONE',  ( 0.000000000000000000, 0.000000000000000000, 0.000000000000000000 ) ) ;
#485 = ORIENTED_EDGE ( 'NONE', *, *, #1, .T. ) ;
#486 = ORIENTED_EDGE ( 'NONE', *, *, #300, .T. ) ;
#487 = CC_DESIGN_PERSON_AND_ORGANIZATION_ASSIGNMENT ( #191, #148, ( #285 ) ) ;
#488 = EDGE_CURVE ( 'NONE', #519, #271, #371, .T. ) ;
#489 = VECTOR ( 'NONE', #132, 39.37007874015748143 ) ;
#490 = MECHANICAL_CONTEXT ( 'NONE', #291, 'mechanical' ) ;
#491 = AXIS2_PLACEMENT_3D ( 'NONE', #365, #146, #238 ) ;
#492 = ORIENTED_EDGE ( 'NONE', *, *, #77, .F. ) ;
#493 = VERTEX_POINT ( 'NONE', #473 ) ;
#494 = DIMENSIONAL_EXPONENTS ( 1.000000000000000000, 0.000000000000000000, 0.000000000000000000, 0.000000000000000000, 0.000000000000000000, 0.000000000000000000, 0.000000000000000000 ) ;
#495 = EDGE_LOOP ( 'NONE', ( #244, #445, #457, #440 ) ) ;
#496 = AXIS2_PLACEMENT_3D ( 'NONE', #502, #463, #207 ) ;
#497 = ADVANCED_FACE ( 'NONE', ( #471 ), #175, .F. ) ;
#498 = CARTESIAN_POINT ( 'NONE',  ( 1.181102362204724310, 0.000000000000000000, -0.1299212598425195930 ) ) ;
#499 = LINE ( 'NONE', #153, #165 ) ;
#500 = VECTOR ( 'NONE', #52, 39.37007874015748143 ) ;
#501 = ADVANCED_FACE ( 'NONE', ( #170 ), #219, .F. ) ;
#502 = CARTESIAN_POINT ( 'NONE',  ( 0.000000000000000000, 0.000000000000000000, 0.000000000000000000 ) ) ;
#503 = CARTESIAN_POINT ( 'NONE',  ( 0.000000000000000000, 0.6299212598425196763, 0.000000000000000000 ) ) ;
#504 = ADVANCED_FACE ( 'NONE', ( #126 ), #299, .T. ) ;
#505 = CARTESIAN_POINT ( 'NONE',  ( 1.181102362204724310, 0.6299212598425196763, 0.000000000000000000 ) ) ;
#506 = AXIS2_PLACEMENT_3D ( 'NONE', #266, #398, #213 ) ;
#507 = LOCAL_TIME ( 1, 39, 17.00000000000000000, #534 ) ;
#508 = ORIENTED_EDGE ( 'NONE', *, *, #453, .F. ) ;
#509 = EDGE_CURVE ( 'NONE', #187, #123, #179, .T. ) ;
#510 = FACE_OUTER_BOUND ( 'NONE', #324, .T. ) ;
#511 = LINE ( 'NONE', #432, #489 ) ;
#512 = CARTESIAN_POINT ( 'NONE',  ( -1.181102362204724310, 0.6299212598425196763, 0.000000000000000000 ) ) ;
#513 = DIRECTION ( 'NONE',  ( 0.000000000000000000, 1.000000000000000000, 0.000000000000000000 ) ) ;
#514 = FACE_OUTER_BOUND ( 'NONE', #425, .T. ) ;
#515 = ADVANCED_FACE ( 'NONE', ( #137 ), #59, .F. ) ;
#516 = CIRCLE ( 'NONE', #301, 0.1299212598425195930 ) ;
#517 = CYLINDRICAL_SURFACE ( 'NONE', #506, 0.1299212598425195930 ) ;
#518 = DIRECTION ( 'NONE',  ( 0.000000000000000000, 0.000000000000000000, -1.000000000000000000 ) ) ;
#519 = VERTEX_POINT ( 'NONE', #429 ) ;
#520 = CARTESIAN_POINT ( 'NONE',  ( -1.181102362204724310, 0.000000000000000000, 0.1299212598425197318 ) ) ;
#521 = CARTESIAN_POINT ( 'NONE',  ( 0.000000000000000000, 0.6299212598425196763, -1.311023622047243986 ) ) ;
#522 = EDGE_LOOP ( 'NONE', ( #232, #340 ) ) ;
#523 = CARTESIAN_POINT ( 'NONE',  ( 0.000000000000000000, 0.6299212598425196763, 1.181102362204724310 ) ) ;
#524 = DIRECTION ( 'NONE',  ( -0.000000000000000000, -1.000000000000000000, -0.000000000000000000 ) ) ;
#525 = ORIENTED_EDGE ( 'NONE', *, *, #154, .F. ) ;
#526 = AXIS2_PLACEMENT_3D ( 'NONE', #302, #467, #84 ) ;
#527 = PLANE ( 'NONE',  #385 ) ;
#528 = COORDINATED_UNIVERSAL_TIME_OFFSET ( 1, 0, .AHEAD. ) ;
#529 = EDGE_LOOP ( 'NONE', ( #164, #22, #237, #183 ) ) ;
#530 = ADVANCED_FACE ( 'NONE', ( #221 ), #396, .F. ) ;
#531 = ORIENTED_EDGE ( 'NONE', *, *, #308, .F. ) ;
#532 = ORIENTED_EDGE ( 'NONE', *, *, #114, .T. ) ;
#533 = AXIS2_PLACEMENT_3D ( 'NONE', #312, #309, #428 ) ;
#534 = COORDINATED_UNIVERSAL_TIME_OFFSET ( 1, 0, .AHEAD. ) ;
#535 = LOCAL_TIME ( 1, 39, 17.00000000000000000, #193 ) ;
#536 = LINE ( 'NONE', #328, #71 ) ;
#537 = PERSON_AND_ORGANIZATION ( #256, #177 ) ;
#538 = ORIENTED_EDGE ( 'NONE', *, *, #446, .T. ) ;
#539 = CARTESIAN_POINT ( 'NONE',  ( 0.000000000000000000, 0.6299212598425196763, 0.000000000000000000 ) ) ;
#540 = ORIENTED_EDGE ( 'NONE', *, *, #202, .T. ) ;
#541 = EDGE_CURVE ( 'NONE', #493, #55, #310, .T. ) ;
#542 = VECTOR ( 'NONE', #174, 39.37007874015748143 ) ;
#543 = CARTESIAN_POINT ( 'NONE',  ( 0.000000000000000000, 0.000000000000000000, 1.181102362204724310 ) ) ;
#544 = DIRECTION ( 'NONE',  ( -0.000000000000000000, -1.000000000000000000, -0.000000000000000000 ) ) ;
#545 = MANIFOLD_SOLID_BREP ( 'Bearing_Carrier_Extrude', #427 ) ;
#546 = VECTOR ( 'NONE', #304, 39.37007874015748143 ) ;
#547 = DIRECTION ( 'NONE',  ( 0.000000000000000000, 1.000000000000000000, 0.000000000000000000 ) ) ;
#548 = CARTESIAN_POINT ( 'NONE',  ( 1.591076550073333019E-17, 0.000000000000000000, -1.051181102362204633 ) ) ;
ENDSEC;
END-ISO-10303-21;
