ISO-10303-21;
HEADER;
FILE_DESCRIPTION (( 'STEP AP203' ),
    '1' );
FILE_NAME ('REF_5840_31ZY_Motor.STEP',
    '2026-08-10T00:39:22',
    ( '' ),
    ( '' ),
    'SwSTEP 2.0',
    'SolidWorks 2026',
    '' );
FILE_SCHEMA (( 'CONFIG_CONTROL_DESIGN' ));
ENDSEC;

DATA;
#1 = CYLINDRICAL_SURFACE ( 'NONE', #120, 1.141732283464567121 ) ;
#2 = CALENDAR_DATE ( 2026, 10, 8 ) ;
#3 = LOCAL_TIME ( 1, 39, 22.00000000000000000, #137 ) ;
#4 = PERSON ( 'UNSPECIFIED', 'UNSPECIFIED', 'UNSPECIFIED', ('UNSPECIFIED'), ('UNSPECIFIED'), ('UNSPECIFIED') ) ;
#5 = APPROVAL_STATUS ( 'not_yet_approved' ) ;
#6 = VERTEX_POINT ( 'NONE', #26 ) ;
#7 = CC_DESIGN_APPROVAL ( #17, ( #82 ) ) ;
#8 = VERTEX_POINT ( 'NONE', #28 ) ;
#9 = APPROVAL ( #5, 'UNSPECIFIED' ) ;
#10 = LENGTH_MEASURE_WITH_UNIT ( LENGTH_MEASURE( 0.02539999999999999897 ), #86 );
#11 = DIMENSIONAL_EXPONENTS ( 1.000000000000000000, 0.000000000000000000, 0.000000000000000000, 0.000000000000000000, 0.000000000000000000, 0.000000000000000000, 0.000000000000000000 ) ;
#12 = CARTESIAN_POINT ( 'NONE',  ( 0.000000000000000000, 0.000000000000000000, 0.000000000000000000 ) ) ;
#13 = PLANE ( 'NONE',  #15 ) ;
#14 = PRODUCT ( 'REF_5840_31ZY_Motor', 'REF_5840_31ZY_Motor', '', ( #30 ) ) ;
#15 = AXIS2_PLACEMENT_3D ( 'NONE', #12, #123, #66 ) ;
#16 = DIRECTION ( 'NONE',  ( 0.000000000000000000, 0.000000000000000000, 1.000000000000000000 ) ) ;
#17 = APPROVAL ( #151, 'UNSPECIFIED' ) ;
#18 = CARTESIAN_POINT ( 'NONE',  ( 0.000000000000000000, 2.834645669291338432, 0.000000000000000000 ) ) ;
#19 = PERSON_AND_ORGANIZATION ( #4, #23 ) ;
#20 = APPLICATION_CONTEXT ( 'configuration controlled 3d designs of mechanical parts and assemblies' ) ;
#21 = DATE_AND_TIME ( #46, #119 ) ;
#22 = AXIS2_PLACEMENT_3D ( 'NONE', #121, #42, #108 ) ;
#23 = ORGANIZATION ( 'UNSPECIFIED', 'UNSPECIFIED', '' ) ;
#24 = CALENDAR_DATE ( 2026, 10, 8 ) ;
#25 = PERSON_AND_ORGANIZATION ( #4, #23 ) ;
#26 = CARTESIAN_POINT ( 'NONE',  ( 0.000000000000000000, 0.000000000000000000, -1.141732283464567121 ) ) ;
#27 = ORIENTED_EDGE ( 'NONE', *, *, #125, .T. ) ;
#28 = CARTESIAN_POINT ( 'NONE',  ( 1.398218786428080311E-16, 0.000000000000000000, 1.141732283464567121 ) ) ;
#29 = LINE ( 'NONE', #60, #143 ) ;
#30 = MECHANICAL_CONTEXT ( 'NONE', #20, 'mechanical' ) ;
#31 = CARTESIAN_POINT ( 'NONE',  ( 0.000000000000000000, 2.834645669291338432, 0.000000000000000000 ) ) ;
#32 =( CONVERSION_BASED_UNIT ( 'INCH', #10 ) LENGTH_UNIT ( ) NAMED_UNIT ( #11 ) );
#33 = ADVANCED_FACE ( 'NONE', ( #76 ), #174, .T. ) ;
#34 = DIRECTION ( 'NONE',  ( -0.000000000000000000, -1.000000000000000000, -0.000000000000000000 ) ) ;
#35 = PERSON_AND_ORGANIZATION_ROLE ( 'creator' ) ;
#36 = COORDINATED_UNIVERSAL_TIME_OFFSET ( 1, 0, .AHEAD. ) ;
#37 = PERSON_AND_ORGANIZATION ( #4, #23 ) ;
#38 = ORIENTED_EDGE ( 'NONE', *, *, #97, .F. ) ;
#39 = FACE_OUTER_BOUND ( 'NONE', #65, .T. ) ;
#40 = PRODUCT_RELATED_PRODUCT_CATEGORY ( 'detail', '', ( #14 ) ) ;
#41 = CC_DESIGN_APPROVAL ( #9, ( #43 ) ) ;
#42 = DIRECTION ( 'NONE',  ( 0.000000000000000000, 1.000000000000000000, 0.000000000000000000 ) ) ;
#43 = PRODUCT_DEFINITION ( 'UNKNOWN', '', #82, #49 ) ;
#44 = CYLINDRICAL_SURFACE ( 'NONE', #109, 1.141732283464567121 ) ;
#45 = SECURITY_CLASSIFICATION_LEVEL ( 'unclassified' ) ;
#46 = CALENDAR_DATE ( 2026, 10, 8 ) ;
#47 = AXIS2_PLACEMENT_3D ( 'NONE', #135, #69, #163 ) ;
#48 = ADVANCED_BREP_SHAPE_REPRESENTATION ( 'REF_5840_31ZY_Motor', ( #161, #167 ), #64 ) ;
#49 = DESIGN_CONTEXT ( 'detailed design', #175, 'design' ) ;
#50 = ORIENTED_EDGE ( 'NONE', *, *, #117, .F. ) ;
#51 = APPROVAL_PERSON_ORGANIZATION ( #75, #17, #152 ) ;
#52 = ORIENTED_EDGE ( 'NONE', *, *, #125, .F. ) ;
#53 = ORIENTED_EDGE ( 'NONE', *, *, #111, .T. ) ;
#54 = ORIENTED_EDGE ( 'NONE', *, *, #111, .F. ) ;
#55 = DIRECTION ( 'NONE',  ( 0.000000000000000000, 0.000000000000000000, 1.000000000000000000 ) ) ;
#56 =( NAMED_UNIT ( * ) SI_UNIT ( $, .STERADIAN. ) SOLID_ANGLE_UNIT ( ) );
#57 = PERSON_AND_ORGANIZATION_ROLE ( 'design_owner' ) ;
#58 = CARTESIAN_POINT ( 'NONE',  ( 0.000000000000000000, 2.834645669291338432, 0.000000000000000000 ) ) ;
#59 = ADVANCED_FACE ( 'NONE', ( #39 ), #44, .T. ) ;
#60 = CARTESIAN_POINT ( 'NONE',  ( 0.000000000000000000, 2.834645669291338432, -1.141732283464567121 ) ) ;
#61 = DATE_AND_TIME ( #2, #3 ) ;
#62 = CALENDAR_DATE ( 2026, 10, 8 ) ;
#63 = DATE_AND_TIME ( #89, #94 ) ;
#64 =( GEOMETRIC_REPRESENTATION_CONTEXT ( 3 ) GLOBAL_UNCERTAINTY_ASSIGNED_CONTEXT ( ( #130 ) ) GLOBAL_UNIT_ASSIGNED_CONTEXT ( ( #32, #168, #56 ) ) REPRESENTATION_CONTEXT ( 'NONE', 'WORKASPACE' ) );
#65 = EDGE_LOOP ( 'NONE', ( #54, #162, #158, #52 ) ) ;
#66 = DIRECTION ( 'NONE',  ( 0.000000000000000000, -0.000000000000000000, 1.000000000000000000 ) ) ;
#67 = AXIS2_PLACEMENT_3D ( 'NONE', #134, #127, #164 ) ;
#68 = DIRECTION ( 'NONE',  ( 0.000000000000000000, 0.000000000000000000, -1.000000000000000000 ) ) ;
#69 = DIRECTION ( 'NONE',  ( 0.000000000000000000, 1.000000000000000000, 0.000000000000000000 ) ) ;
#70 = APPROVAL_STATUS ( 'not_yet_approved' ) ;
#71 = CC_DESIGN_SECURITY_CLASSIFICATION ( #110, ( #82 ) ) ;
#72 = APPROVAL_DATE_TIME ( #63, #17 ) ;
#73 = PERSON_AND_ORGANIZATION ( #4, #23 ) ;
#74 = CC_DESIGN_PERSON_AND_ORGANIZATION_ASSIGNMENT ( #73, #171, ( #110 ) ) ;
#75 = PERSON_AND_ORGANIZATION ( #4, #23 ) ;
#76 = FACE_OUTER_BOUND ( 'NONE', #90, .T. ) ;
#77 = AXIS2_PLACEMENT_3D ( 'NONE', #31, #84, #16 ) ;
#78 = VERTEX_POINT ( 'NONE', #106 ) ;
#79 = CC_DESIGN_PERSON_AND_ORGANIZATION_ASSIGNMENT ( #37, #172, ( #82 ) ) ;
#80 = ADVANCED_FACE ( 'NONE', ( #178 ), #13, .F. ) ;
#81 = CARTESIAN_POINT ( 'NONE',  ( 0.000000000000000000, 2.834645669291338432, -1.141732283464567121 ) ) ;
#82 = PRODUCT_DEFINITION_FORMATION_WITH_SPECIFIED_SOURCE ( 'ANY', '', #14, .NOT_KNOWN. ) ;
#83 = PRODUCT_DEFINITION_SHAPE ( 'NONE', 'NONE',  #43 ) ;
#84 = DIRECTION ( 'NONE',  ( 0.000000000000000000, 1.000000000000000000, 0.000000000000000000 ) ) ;
#85 = DIRECTION ( 'NONE',  ( -0.000000000000000000, -1.000000000000000000, -0.000000000000000000 ) ) ;
#86 =( LENGTH_UNIT ( ) NAMED_UNIT ( * ) SI_UNIT ( $, .METRE. ) );
#87 = PERSON_AND_ORGANIZATION ( #4, #23 ) ;
#88 = APPROVAL_ROLE ( '' ) ;
#89 = CALENDAR_DATE ( 2026, 10, 8 ) ;
#90 = EDGE_LOOP ( 'NONE', ( #144, #53 ) ) ;
#91 = DIRECTION ( 'NONE',  ( 0.000000000000000000, -0.000000000000000000, 1.000000000000000000 ) ) ;
#92 = CIRCLE ( 'NONE', #67, 1.141732283464567121 ) ;
#93 = CC_DESIGN_PERSON_AND_ORGANIZATION_ASSIGNMENT ( #87, #114, ( #82 ) ) ;
#94 = LOCAL_TIME ( 1, 39, 22.00000000000000000, #36 ) ;
#95 = DIRECTION ( 'NONE',  ( 0.000000000000000000, 0.000000000000000000, -1.000000000000000000 ) ) ;
#96 = FACE_OUTER_BOUND ( 'NONE', #160, .T. ) ;
#97 = EDGE_CURVE ( 'NONE', #78, #8, #149, .T. ) ;
#98 = APPROVAL_ROLE ( '' ) ;
#99 = COORDINATED_UNIVERSAL_TIME_OFFSET ( 1, 0, .AHEAD. ) ;
#100 = CIRCLE ( 'NONE', #77, 1.141732283464567121 ) ;
#101 = APPROVAL_DATE_TIME ( #128, #126 ) ;
#102 = LOCAL_TIME ( 1, 39, 22.00000000000000000, #116 ) ;
#103 = CARTESIAN_POINT ( 'NONE',  ( 0.000000000000000000, 2.834645669291338432, 0.000000000000000000 ) ) ;
#104 = EDGE_LOOP ( 'NONE', ( #105, #50 ) ) ;
#105 = ORIENTED_EDGE ( 'NONE', *, *, #145, .F. ) ;
#106 = CARTESIAN_POINT ( 'NONE',  ( 1.398218786428080311E-16, 2.834645669291338432, 1.141732283464567121 ) ) ;
#107 = CARTESIAN_POINT ( 'NONE',  ( 1.398218786428080311E-16, 2.834645669291338432, 1.141732283464567121 ) ) ;
#108 = DIRECTION ( 'NONE',  ( 0.000000000000000000, 0.000000000000000000, 1.000000000000000000 ) ) ;
#109 = AXIS2_PLACEMENT_3D ( 'NONE', #18, #132, #95 ) ;
#110 = SECURITY_CLASSIFICATION ( '', '', #45 ) ;
#111 = EDGE_CURVE ( 'NONE', #78, #118, #100, .T. ) ;
#112 = DATE_AND_TIME ( #24, #133 ) ;
#113 = EDGE_CURVE ( 'NONE', #118, #78, #92, .T. ) ;
#114 = PERSON_AND_ORGANIZATION_ROLE ( 'creator' ) ;
#115 = CIRCLE ( 'NONE', #22, 1.141732283464567121 ) ;
#116 = COORDINATED_UNIVERSAL_TIME_OFFSET ( 1, 0, .AHEAD. ) ;
#117 = EDGE_CURVE ( 'NONE', #8, #6, #124, .T. ) ;
#118 = VERTEX_POINT ( 'NONE', #81 ) ;
#119 = LOCAL_TIME ( 1, 39, 22.00000000000000000, #141 ) ;
#120 = AXIS2_PLACEMENT_3D ( 'NONE', #58, #146, #68 ) ;
#121 = CARTESIAN_POINT ( 'NONE',  ( 0.000000000000000000, 0.000000000000000000, 0.000000000000000000 ) ) ;
#122 = PERSON_AND_ORGANIZATION ( #4, #23 ) ;
#123 = DIRECTION ( 'NONE',  ( 0.000000000000000000, 1.000000000000000000, 0.000000000000000000 ) ) ;
#124 = CIRCLE ( 'NONE', #47, 1.141732283464567121 ) ;
#125 = EDGE_CURVE ( 'NONE', #118, #6, #29, .T. ) ;
#126 = APPROVAL ( #70, 'UNSPECIFIED' ) ;
#127 = DIRECTION ( 'NONE',  ( 0.000000000000000000, 1.000000000000000000, 0.000000000000000000 ) ) ;
#128 = DATE_AND_TIME ( #62, #102 ) ;
#129 = DATE_TIME_ROLE ( 'classification_date' ) ;
#130 = UNCERTAINTY_MEASURE_WITH_UNIT (LENGTH_MEASURE( 1.000000000000000082E-05 ), #32, 'distance_accuracy_value', 'NONE');
#131 = ORIENTED_EDGE ( 'NONE', *, *, #145, .T. ) ;
#132 = DIRECTION ( 'NONE',  ( -0.000000000000000000, -1.000000000000000000, -0.000000000000000000 ) ) ;
#133 = LOCAL_TIME ( 1, 39, 22.00000000000000000, #99 ) ;
#134 = CARTESIAN_POINT ( 'NONE',  ( 0.000000000000000000, 2.834645669291338432, 0.000000000000000000 ) ) ;
#135 = CARTESIAN_POINT ( 'NONE',  ( 0.000000000000000000, 0.000000000000000000, 0.000000000000000000 ) ) ;
#136 = CARTESIAN_POINT ( 'NONE',  ( 0.000000000000000000, 0.000000000000000000, 0.000000000000000000 ) ) ;
#137 = COORDINATED_UNIVERSAL_TIME_OFFSET ( 1, 0, .AHEAD. ) ;
#138 = APPROVAL_DATE_TIME ( #21, #9 ) ;
#139 = CLOSED_SHELL ( 'NONE', ( #59, #156, #33, #80 ) ) ;
#140 = APPLICATION_PROTOCOL_DEFINITION ( 'international standard', 'config_control_design', 1994, #175 ) ;
#141 = COORDINATED_UNIVERSAL_TIME_OFFSET ( 1, 0, .AHEAD. ) ;
#142 = CC_DESIGN_PERSON_AND_ORGANIZATION_ASSIGNMENT ( #25, #35, ( #43 ) ) ;
#143 = VECTOR ( 'NONE', #34, 39.37007874015748143 ) ;
#144 = ORIENTED_EDGE ( 'NONE', *, *, #113, .T. ) ;
#145 = EDGE_CURVE ( 'NONE', #6, #8, #115, .T. ) ;
#146 = DIRECTION ( 'NONE',  ( -0.000000000000000000, -1.000000000000000000, -0.000000000000000000 ) ) ;
#147 = APPLICATION_PROTOCOL_DEFINITION ( 'international standard', 'config_control_design', 1994, #20 ) ;
#148 = CC_DESIGN_APPROVAL ( #126, ( #110 ) ) ;
#149 = LINE ( 'NONE', #107, #153 ) ;
#150 = PERSON_AND_ORGANIZATION ( #4, #23 ) ;
#151 = APPROVAL_STATUS ( 'not_yet_approved' ) ;
#152 = APPROVAL_ROLE ( '' ) ;
#153 = VECTOR ( 'NONE', #85, 39.37007874015748143 ) ;
#154 = SHAPE_DEFINITION_REPRESENTATION ( #83, #48 ) ;
#155 = CC_DESIGN_DATE_AND_TIME_ASSIGNMENT ( #112, #169, ( #43 ) ) ;
#156 = ADVANCED_FACE ( 'NONE', ( #96 ), #1, .T. ) ;
#157 = APPROVAL_PERSON_ORGANIZATION ( #150, #9, #98 ) ;
#158 = ORIENTED_EDGE ( 'NONE', *, *, #117, .T. ) ;
#159 = DIRECTION ( 'NONE',  ( 0.000000000000000000, 1.000000000000000000, 0.000000000000000000 ) ) ;
#160 = EDGE_LOOP ( 'NONE', ( #38, #177, #27, #131 ) ) ;
#161 = MANIFOLD_SOLID_BREP ( 'Motor_Envelope', #139 ) ;
#162 = ORIENTED_EDGE ( 'NONE', *, *, #97, .T. ) ;
#163 = DIRECTION ( 'NONE',  ( 0.000000000000000000, 0.000000000000000000, 1.000000000000000000 ) ) ;
#164 = DIRECTION ( 'NONE',  ( 0.000000000000000000, 0.000000000000000000, 1.000000000000000000 ) ) ;
#165 = AXIS2_PLACEMENT_3D ( 'NONE', #103, #159, #91 ) ;
#166 = DIRECTION ( 'NONE',  ( 1.000000000000000000, 0.000000000000000000, 0.000000000000000000 ) ) ;
#167 = AXIS2_PLACEMENT_3D ( 'NONE', #136, #55, #166 ) ;
#168 =( NAMED_UNIT ( * ) PLANE_ANGLE_UNIT ( ) SI_UNIT ( $, .RADIAN. ) );
#169 = DATE_TIME_ROLE ( 'creation_date' ) ;
#170 = CC_DESIGN_DATE_AND_TIME_ASSIGNMENT ( #61, #129, ( #110 ) ) ;
#171 = PERSON_AND_ORGANIZATION_ROLE ( 'classification_officer' ) ;
#172 = PERSON_AND_ORGANIZATION_ROLE ( 'design_supplier' ) ;
#173 = APPROVAL_PERSON_ORGANIZATION ( #19, #126, #88 ) ;
#174 = PLANE ( 'NONE',  #165 ) ;
#175 = APPLICATION_CONTEXT ( 'configuration controlled 3d designs of mechanical parts and assemblies' ) ;
#176 = CC_DESIGN_PERSON_AND_ORGANIZATION_ASSIGNMENT ( #122, #57, ( #14 ) ) ;
#177 = ORIENTED_EDGE ( 'NONE', *, *, #113, .F. ) ;
#178 = FACE_OUTER_BOUND ( 'NONE', #104, .T. ) ;
ENDSEC;
END-ISO-10303-21;
