ISO-10303-21;
HEADER;
FILE_DESCRIPTION (( 'STEP AP203' ),
    '1' );
FILE_NAME ('REF_TTGO_LORA32.STEP',
    '2026-08-10T00:39:26',
    ( '' ),
    ( '' ),
    'SwSTEP 2.0',
    'SolidWorks 2026',
    '' );
FILE_SCHEMA (( 'CONFIG_CONTROL_DESIGN' ));
ENDSEC;

DATA;
#1 = ORIENTED_EDGE ( 'NONE', *, *, #37, .T. ) ;
#2 = ORIENTED_EDGE ( 'NONE', *, *, #141, .F. ) ;
#3 = EDGE_LOOP ( 'NONE', ( #26, #53, #92, #209 ) ) ;
#4 = VECTOR ( 'NONE', #173, 39.37007874015748143 ) ;
#5 = ORIENTED_EDGE ( 'NONE', *, *, #115, .F. ) ;
#6 = ORIENTED_EDGE ( 'NONE', *, *, #11, .T. ) ;
#7 = PERSON_AND_ORGANIZATION ( #63, #69 ) ;
#8 = PLANE ( 'NONE',  #204 ) ;
#9 = PRODUCT_RELATED_PRODUCT_CATEGORY ( 'detail', '', ( #111 ) ) ;
#10 = LINE ( 'NONE', #104, #90 ) ;
#11 = EDGE_CURVE ( 'NONE', #94, #135, #155, .T. ) ;
#12 = DIRECTION ( 'NONE',  ( -0.000000000000000000, -0.000000000000000000, 1.000000000000000000 ) ) ;
#13 =( CONVERSION_BASED_UNIT ( 'INCH', #88 ) LENGTH_UNIT ( ) NAMED_UNIT ( #210 ) );
#14 = AXIS2_PLACEMENT_3D ( 'NONE', #62, #146, #220 ) ;
#15 = DIRECTION ( 'NONE',  ( 1.000000000000000000, -0.000000000000000000, 0.000000000000000000 ) ) ;
#16 = PERSON_AND_ORGANIZATION ( #63, #69 ) ;
#17 = VECTOR ( 'NONE', #178, 39.37007874015748143 ) ;
#18 = DIRECTION ( 'NONE',  ( 0.000000000000000000, 0.000000000000000000, -1.000000000000000000 ) ) ;
#19 = SHAPE_DEFINITION_REPRESENTATION ( #25, #177 ) ;
#20 = CC_DESIGN_PERSON_AND_ORGANIZATION_ASSIGNMENT ( #215, #42, ( #239 ) ) ;
#21 = DATE_AND_TIME ( #109, #93 ) ;
#22 = ORIENTED_EDGE ( 'NONE', *, *, #145, .T. ) ;
#23 = ORIENTED_EDGE ( 'NONE', *, *, #224, .F. ) ;
#24 = LOCAL_TIME ( 1, 39, 26.00000000000000000, #180 ) ;
#25 = PRODUCT_DEFINITION_SHAPE ( 'NONE', 'NONE',  #239 ) ;
#26 = ORIENTED_EDGE ( 'NONE', *, *, #148, .T. ) ;
#27 = CARTESIAN_POINT ( 'NONE',  ( -2.362204724409448620, 0.06299212598425196763, -1.082677165354330784 ) ) ;
#28 = DESIGN_CONTEXT ( 'detailed design', #172, 'design' ) ;
#29 = CARTESIAN_POINT ( 'NONE',  ( -2.362204724409448620, 0.06299212598425196763, -1.082677165354330784 ) ) ;
#30 = DATE_AND_TIME ( #80, #159 ) ;
#31 = CARTESIAN_POINT ( 'NONE',  ( -2.362204724409448620, 0.06299212598425196763, 1.082677165354330784 ) ) ;
#32 = EDGE_CURVE ( 'NONE', #68, #94, #142, .T. ) ;
#33 = PLANE ( 'NONE',  #123 ) ;
#34 = PERSON_AND_ORGANIZATION_ROLE ( 'design_supplier' ) ;
#35 = MECHANICAL_CONTEXT ( 'NONE', #222, 'mechanical' ) ;
#36 = APPROVAL_ROLE ( '' ) ;
#37 = EDGE_CURVE ( 'NONE', #59, #187, #195, .T. ) ;
#38 = AXIS2_PLACEMENT_3D ( 'NONE', #137, #168, #157 ) ;
#39 = ORIENTED_EDGE ( 'NONE', *, *, #183, .T. ) ;
#40 = FACE_OUTER_BOUND ( 'NONE', #97, .T. ) ;
#41 = DIRECTION ( 'NONE',  ( -1.000000000000000000, 0.000000000000000000, 0.000000000000000000 ) ) ;
#42 = PERSON_AND_ORGANIZATION_ROLE ( 'creator' ) ;
#43 = CARTESIAN_POINT ( 'NONE',  ( -2.362204724409448620, 0.06299212598425196763, 1.082677165354330784 ) ) ;
#44 = LINE ( 'NONE', #126, #116 ) ;
#45 = PERSON_AND_ORGANIZATION ( #63, #69 ) ;
#46 = CARTESIAN_POINT ( 'NONE',  ( 2.362204724409448620, 0.000000000000000000, 1.082677165354330784 ) ) ;
#47 = VECTOR ( 'NONE', #18, 39.37007874015748143 ) ;
#48 = APPROVAL_ROLE ( '' ) ;
#49 = ADVANCED_FACE ( 'NONE', ( #211 ), #143, .F. ) ;
#50 = SECURITY_CLASSIFICATION_LEVEL ( 'unclassified' ) ;
#51 = CC_DESIGN_APPROVAL ( #84, ( #239 ) ) ;
#52 = ORIENTED_EDGE ( 'NONE', *, *, #224, .T. ) ;
#53 = ORIENTED_EDGE ( 'NONE', *, *, #11, .F. ) ;
#54 = DIRECTION ( 'NONE',  ( 1.000000000000000000, 0.000000000000000000, -0.000000000000000000 ) ) ;
#55 = DIRECTION ( 'NONE',  ( 0.000000000000000000, 0.000000000000000000, 1.000000000000000000 ) ) ;
#56 = APPROVAL_PERSON_ORGANIZATION ( #213, #84, #171 ) ;
#57 = DIRECTION ( 'NONE',  ( -0.000000000000000000, -1.000000000000000000, -0.000000000000000000 ) ) ;
#58 = APPROVAL_DATE_TIME ( #30, #84 ) ;
#59 = VERTEX_POINT ( 'NONE', #60 ) ;
#60 = CARTESIAN_POINT ( 'NONE',  ( -2.362204724409448620, 0.000000000000000000, 1.082677165354330784 ) ) ;
#61 = VECTOR ( 'NONE', #192, 39.37007874015748143 ) ;
#62 = CARTESIAN_POINT ( 'NONE',  ( 0.000000000000000000, 0.000000000000000000, 0.000000000000000000 ) ) ;
#63 = PERSON ( 'UNSPECIFIED', 'UNSPECIFIED', 'UNSPECIFIED', ('UNSPECIFIED'), ('UNSPECIFIED'), ('UNSPECIFIED') ) ;
#64 = CC_DESIGN_PERSON_AND_ORGANIZATION_ASSIGNMENT ( #7, #78, ( #111 ) ) ;
#65 = CARTESIAN_POINT ( 'NONE',  ( 2.362204724409448620, 0.000000000000000000, 1.082677165354330784 ) ) ;
#66 = EDGE_CURVE ( 'NONE', #149, #187, #10, .T. ) ;
#67 = CARTESIAN_POINT ( 'NONE',  ( 0.000000000000000000, 0.000000000000000000, 0.000000000000000000 ) ) ;
#68 = VERTEX_POINT ( 'NONE', #216 ) ;
#69 = ORGANIZATION ( 'UNSPECIFIED', 'UNSPECIFIED', '' ) ;
#70 = VERTEX_POINT ( 'NONE', #228 ) ;
#71 = EDGE_LOOP ( 'NONE', ( #214, #75, #23, #138 ) ) ;
#72 = ORIENTED_EDGE ( 'NONE', *, *, #183, .F. ) ;
#73 = ADVANCED_FACE ( 'NONE', ( #40 ), #139, .F. ) ;
#74 = VECTOR ( 'NONE', #102, 39.37007874015748143 ) ;
#75 = ORIENTED_EDGE ( 'NONE', *, *, #148, .F. ) ;
#76 = LINE ( 'NONE', #169, #197 ) ;
#77 = CARTESIAN_POINT ( 'NONE',  ( -2.362204724409448620, 0.000000000000000000, -1.082677165354330784 ) ) ;
#78 = PERSON_AND_ORGANIZATION_ROLE ( 'design_owner' ) ;
#79 = PLANE ( 'NONE',  #38 ) ;
#80 = CALENDAR_DATE ( 2026, 10, 8 ) ;
#81 = ORIENTED_EDGE ( 'NONE', *, *, #66, .F. ) ;
#82 = CARTESIAN_POINT ( 'NONE',  ( 2.362204724409448620, 0.06299212598425196763, 1.082677165354330784 ) ) ;
#83 = ADVANCED_FACE ( 'NONE', ( #170 ), #79, .F. ) ;
#84 = APPROVAL ( #120, 'UNSPECIFIED' ) ;
#85 = APPROVAL_PERSON_ORGANIZATION ( #235, #206, #48 ) ;
#86 = FACE_OUTER_BOUND ( 'NONE', #163, .T. ) ;
#87 = PLANE ( 'NONE',  #165 ) ;
#88 = LENGTH_MEASURE_WITH_UNIT ( LENGTH_MEASURE( 0.02539999999999999897 ), #181 );
#89 = COORDINATED_UNIVERSAL_TIME_OFFSET ( 1, 0, .AHEAD. ) ;
#90 = VECTOR ( 'NONE', #57, 39.37007874015748143 ) ;
#91 = CARTESIAN_POINT ( 'NONE',  ( -2.362204724409448620, 0.06299212598425196763, 1.082677165354330784 ) ) ;
#92 = ORIENTED_EDGE ( 'NONE', *, *, #32, .F. ) ;
#93 = LOCAL_TIME ( 1, 39, 26.00000000000000000, #89 ) ;
#94 = VERTEX_POINT ( 'NONE', #29 ) ;
#95 = EDGE_CURVE ( 'NONE', #149, #68, #217, .T. ) ;
#96 = ORIENTED_EDGE ( 'NONE', *, *, #32, .T. ) ;
#97 = EDGE_LOOP ( 'NONE', ( #52, #151, #113, #119 ) ) ;
#98 = DIRECTION ( 'NONE',  ( 1.000000000000000000, 0.000000000000000000, 0.000000000000000000 ) ) ;
#99 = DIRECTION ( 'NONE',  ( -1.000000000000000000, -0.000000000000000000, -0.000000000000000000 ) ) ;
#100 = UNCERTAINTY_MEASURE_WITH_UNIT (LENGTH_MEASURE( 1.000000000000000082E-05 ), #13, 'distance_accuracy_value', 'NONE');
#101 = CARTESIAN_POINT ( 'NONE',  ( -2.362204724409448620, 0.000000000000000000, 1.082677165354330784 ) ) ;
#102 = DIRECTION ( 'NONE',  ( 1.000000000000000000, 0.000000000000000000, 0.000000000000000000 ) ) ;
#103 = DATE_AND_TIME ( #193, #179 ) ;
#104 = CARTESIAN_POINT ( 'NONE',  ( 2.362204724409448620, 0.06299212598425196763, 1.082677165354330784 ) ) ;
#105 = CC_DESIGN_DATE_AND_TIME_ASSIGNMENT ( #103, #174, ( #239 ) ) ;
#106 = APPROVAL_PERSON_ORGANIZATION ( #234, #208, #36 ) ;
#107 = DIRECTION ( 'NONE',  ( 0.000000000000000000, 0.000000000000000000, -1.000000000000000000 ) ) ;
#108 = DIRECTION ( 'NONE',  ( 0.000000000000000000, -1.000000000000000000, 0.000000000000000000 ) ) ;
#109 = CALENDAR_DATE ( 2026, 10, 8 ) ;
#110 = CARTESIAN_POINT ( 'NONE',  ( 2.362204724409448620, 0.06299212598425196763, -1.082677165354330784 ) ) ;
#111 = PRODUCT ( 'REF_TTGO_LORA32', 'REF_TTGO_LORA32', '', ( #35 ) ) ;
#112 = APPROVAL_DATE_TIME ( #162, #208 ) ;
#113 = ORIENTED_EDGE ( 'NONE', *, *, #95, .F. ) ;
#114 = CC_DESIGN_PERSON_AND_ORGANIZATION_ASSIGNMENT ( #130, #236, ( #189 ) ) ;
#115 = EDGE_CURVE ( 'NONE', #94, #166, #158, .T. ) ;
#116 = VECTOR ( 'NONE', #154, 39.37007874015748143 ) ;
#117 = LOCAL_TIME ( 1, 39, 26.00000000000000000, #198 ) ;
#118 = DIRECTION ( 'NONE',  ( -0.000000000000000000, -1.000000000000000000, -0.000000000000000000 ) ) ;
#119 = ORIENTED_EDGE ( 'NONE', *, *, #66, .T. ) ;
#120 = APPROVAL_STATUS ( 'not_yet_approved' ) ;
#121 = DIRECTION ( 'NONE',  ( 0.000000000000000000, 0.000000000000000000, 1.000000000000000000 ) ) ;
#122 = COORDINATED_UNIVERSAL_TIME_OFFSET ( 1, 0, .AHEAD. ) ;
#123 = AXIS2_PLACEMENT_3D ( 'NONE', #91, #132, #128 ) ;
#124 = AXIS2_PLACEMENT_3D ( 'NONE', #82, #41, #121 ) ;
#125 = CARTESIAN_POINT ( 'NONE',  ( -2.362204724409448620, 0.06299212598425196763, 1.082677165354330784 ) ) ;
#126 = CARTESIAN_POINT ( 'NONE',  ( -2.362204724409448620, 0.000000000000000000, 1.082677165354330784 ) ) ;
#127 = CALENDAR_DATE ( 2026, 10, 8 ) ;
#128 = DIRECTION ( 'NONE',  ( -1.000000000000000000, 0.000000000000000000, -0.000000000000000000 ) ) ;
#129 = FACE_OUTER_BOUND ( 'NONE', #71, .T. ) ;
#130 = PERSON_AND_ORGANIZATION ( #63, #69 ) ;
#131 = APPLICATION_PROTOCOL_DEFINITION ( 'international standard', 'config_control_design', 1994, #222 ) ;
#132 = DIRECTION ( 'NONE',  ( 0.000000000000000000, 0.000000000000000000, -1.000000000000000000 ) ) ;
#133 = AXIS2_PLACEMENT_3D ( 'NONE', #190, #55, #54 ) ;
#134 = ORIENTED_EDGE ( 'NONE', *, *, #115, .T. ) ;
#135 = VERTEX_POINT ( 'NONE', #77 ) ;
#136 = ORIENTED_EDGE ( 'NONE', *, *, #95, .T. ) ;
#137 = CARTESIAN_POINT ( 'NONE',  ( 0.000000000000000000, 0.06299212598425196763, 0.000000000000000000 ) ) ;
#138 = ORIENTED_EDGE ( 'NONE', *, *, #37, .F. ) ;
#139 = PLANE ( 'NONE',  #124 ) ;
#140 = COORDINATED_UNIVERSAL_TIME_OFFSET ( 1, 0, .AHEAD. ) ;
#141 = EDGE_CURVE ( 'NONE', #166, #59, #76, .T. ) ;
#142 = LINE ( 'NONE', #191, #184 ) ;
#143 = PLANE ( 'NONE',  #133 ) ;
#144 = DATE_TIME_ROLE ( 'classification_date' ) ;
#145 = EDGE_CURVE ( 'NONE', #135, #59, #44, .T. ) ;
#146 = DIRECTION ( 'NONE',  ( 0.000000000000000000, 0.000000000000000000, 1.000000000000000000 ) ) ;
#147 = APPROVAL_DATE_TIME ( #186, #206 ) ;
#148 = EDGE_CURVE ( 'NONE', #70, #135, #229, .T. ) ;
#149 = VERTEX_POINT ( 'NONE', #196 ) ;
#150 = CC_DESIGN_APPROVAL ( #206, ( #189 ) ) ;
#151 = ORIENTED_EDGE ( 'NONE', *, *, #207, .F. ) ;
#152 = EDGE_LOOP ( 'NONE', ( #22, #2, #5, #6 ) ) ;
#153 = CARTESIAN_POINT ( 'NONE',  ( -2.362204724409448620, 0.06299212598425196763, 1.082677165354330784 ) ) ;
#154 = DIRECTION ( 'NONE',  ( -0.000000000000000000, -0.000000000000000000, 1.000000000000000000 ) ) ;
#155 = LINE ( 'NONE', #27, #61 ) ;
#156 = APPLICATION_PROTOCOL_DEFINITION ( 'international standard', 'config_control_design', 1994, #172 ) ;
#157 = DIRECTION ( 'NONE',  ( 0.000000000000000000, -0.000000000000000000, -1.000000000000000000 ) ) ;
#158 = LINE ( 'NONE', #43, #167 ) ;
#159 = LOCAL_TIME ( 1, 39, 26.00000000000000000, #140 ) ;
#160 =( NAMED_UNIT ( * ) SI_UNIT ( $, .STERADIAN. ) SOLID_ANGLE_UNIT ( ) );
#161 = CC_DESIGN_PERSON_AND_ORGANIZATION_ASSIGNMENT ( #16, #201, ( #231 ) ) ;
#162 = DATE_AND_TIME ( #127, #24 ) ;
#163 = EDGE_LOOP ( 'NONE', ( #1, #81, #72, #223 ) ) ;
#164 = CC_DESIGN_APPROVAL ( #208, ( #231 ) ) ;
#165 = AXIS2_PLACEMENT_3D ( 'NONE', #67, #108, #202 ) ;
#166 = VERTEX_POINT ( 'NONE', #153 ) ;
#167 = VECTOR ( 'NONE', #12, 39.37007874015748143 ) ;
#168 = DIRECTION ( 'NONE',  ( 0.000000000000000000, -1.000000000000000000, 0.000000000000000000 ) ) ;
#169 = CARTESIAN_POINT ( 'NONE',  ( -2.362204724409448620, 0.06299212598425196763, 1.082677165354330784 ) ) ;
#170 = FACE_OUTER_BOUND ( 'NONE', #205, .T. ) ;
#171 = APPROVAL_ROLE ( '' ) ;
#172 = APPLICATION_CONTEXT ( 'configuration controlled 3d designs of mechanical parts and assemblies' ) ;
#173 = DIRECTION ( 'NONE',  ( 0.000000000000000000, 0.000000000000000000, -1.000000000000000000 ) ) ;
#174 = DATE_TIME_ROLE ( 'creation_date' ) ;
#175 = CARTESIAN_POINT ( 'NONE',  ( 2.362204724409448620, 0.06299212598425196763, 1.082677165354330784 ) ) ;
#176 = VECTOR ( 'NONE', #227, 39.37007874015748143 ) ;
#177 = ADVANCED_BREP_SHAPE_REPRESENTATION ( 'REF_TTGO_LORA32', ( #225, #14 ), #221 ) ;
#178 = DIRECTION ( 'NONE',  ( -0.000000000000000000, -1.000000000000000000, -0.000000000000000000 ) ) ;
#179 = LOCAL_TIME ( 1, 39, 26.00000000000000000, #122 ) ;
#180 = COORDINATED_UNIVERSAL_TIME_OFFSET ( 1, 0, .AHEAD. ) ;
#181 =( LENGTH_UNIT ( ) NAMED_UNIT ( * ) SI_UNIT ( $, .METRE. ) );
#182 = APPROVAL_STATUS ( 'not_yet_approved' ) ;
#183 = EDGE_CURVE ( 'NONE', #166, #149, #212, .T. ) ;
#184 = VECTOR ( 'NONE', #99, 39.37007874015748143 ) ;
#185 = ADVANCED_FACE ( 'NONE', ( #226 ), #8, .F. ) ;
#186 = DATE_AND_TIME ( #238, #117 ) ;
#187 = VERTEX_POINT ( 'NONE', #46 ) ;
#188 = ADVANCED_FACE ( 'NONE', ( #86 ), #33, .F. ) ;
#189 = SECURITY_CLASSIFICATION ( '', '', #50 ) ;
#190 = CARTESIAN_POINT ( 'NONE',  ( -2.362204724409448620, 0.06299212598425196763, -1.082677165354330784 ) ) ;
#191 = CARTESIAN_POINT ( 'NONE',  ( -2.362204724409448620, 0.06299212598425196763, -1.082677165354330784 ) ) ;
#192 = DIRECTION ( 'NONE',  ( -0.000000000000000000, -1.000000000000000000, -0.000000000000000000 ) ) ;
#193 = CALENDAR_DATE ( 2026, 10, 8 ) ;
#194 = CLOSED_SHELL ( 'NONE', ( #185, #188, #73, #49, #83, #232 ) ) ;
#195 = LINE ( 'NONE', #101, #74 ) ;
#196 = CARTESIAN_POINT ( 'NONE',  ( 2.362204724409448620, 0.06299212598425196763, 1.082677165354330784 ) ) ;
#197 = VECTOR ( 'NONE', #118, 39.37007874015748143 ) ;
#198 = COORDINATED_UNIVERSAL_TIME_OFFSET ( 1, 0, .AHEAD. ) ;
#199 = LINE ( 'NONE', #65, #47 ) ;
#200 = CC_DESIGN_DATE_AND_TIME_ASSIGNMENT ( #21, #144, ( #189 ) ) ;
#201 = PERSON_AND_ORGANIZATION_ROLE ( 'creator' ) ;
#202 = DIRECTION ( 'NONE',  ( 0.000000000000000000, -0.000000000000000000, -1.000000000000000000 ) ) ;
#203 = APPROVAL_STATUS ( 'not_yet_approved' ) ;
#204 = AXIS2_PLACEMENT_3D ( 'NONE', #31, #15, #107 ) ;
#205 = EDGE_LOOP ( 'NONE', ( #134, #39, #136, #96 ) ) ;
#206 = APPROVAL ( #182, 'UNSPECIFIED' ) ;
#207 = EDGE_CURVE ( 'NONE', #68, #70, #233, .T. ) ;
#208 = APPROVAL ( #203, 'UNSPECIFIED' ) ;
#209 = ORIENTED_EDGE ( 'NONE', *, *, #207, .T. ) ;
#210 = DIMENSIONAL_EXPONENTS ( 1.000000000000000000, 0.000000000000000000, 0.000000000000000000, 0.000000000000000000, 0.000000000000000000, 0.000000000000000000, 0.000000000000000000 ) ;
#211 = FACE_OUTER_BOUND ( 'NONE', #3, .T. ) ;
#212 = LINE ( 'NONE', #125, #237 ) ;
#213 = PERSON_AND_ORGANIZATION ( #63, #69 ) ;
#214 = ORIENTED_EDGE ( 'NONE', *, *, #145, .F. ) ;
#215 = PERSON_AND_ORGANIZATION ( #63, #69 ) ;
#216 = CARTESIAN_POINT ( 'NONE',  ( 2.362204724409448620, 0.06299212598425196763, -1.082677165354330784 ) ) ;
#217 = LINE ( 'NONE', #175, #4 ) ;
#218 = CC_DESIGN_PERSON_AND_ORGANIZATION_ASSIGNMENT ( #45, #34, ( #231 ) ) ;
#219 =( NAMED_UNIT ( * ) PLANE_ANGLE_UNIT ( ) SI_UNIT ( $, .RADIAN. ) );
#220 = DIRECTION ( 'NONE',  ( 1.000000000000000000, 0.000000000000000000, 0.000000000000000000 ) ) ;
#221 =( GEOMETRIC_REPRESENTATION_CONTEXT ( 3 ) GLOBAL_UNCERTAINTY_ASSIGNED_CONTEXT ( ( #100 ) ) GLOBAL_UNIT_ASSIGNED_CONTEXT ( ( #13, #219, #160 ) ) REPRESENTATION_CONTEXT ( 'NONE', 'WORKASPACE' ) );
#222 = APPLICATION_CONTEXT ( 'configuration controlled 3d designs of mechanical parts and assemblies' ) ;
#223 = ORIENTED_EDGE ( 'NONE', *, *, #141, .T. ) ;
#224 = EDGE_CURVE ( 'NONE', #187, #70, #199, .T. ) ;
#225 = MANIFOLD_SOLID_BREP ( 'Plate_Extrude', #194 ) ;
#226 = FACE_OUTER_BOUND ( 'NONE', #152, .T. ) ;
#227 = DIRECTION ( 'NONE',  ( -1.000000000000000000, -0.000000000000000000, -0.000000000000000000 ) ) ;
#228 = CARTESIAN_POINT ( 'NONE',  ( 2.362204724409448620, 0.000000000000000000, -1.082677165354330784 ) ) ;
#229 = LINE ( 'NONE', #230, #176 ) ;
#230 = CARTESIAN_POINT ( 'NONE',  ( -2.362204724409448620, 0.000000000000000000, -1.082677165354330784 ) ) ;
#231 = PRODUCT_DEFINITION_FORMATION_WITH_SPECIFIED_SOURCE ( 'ANY', '', #111, .NOT_KNOWN. ) ;
#232 = ADVANCED_FACE ( 'NONE', ( #129 ), #87, .T. ) ;
#233 = LINE ( 'NONE', #110, #17 ) ;
#234 = PERSON_AND_ORGANIZATION ( #63, #69 ) ;
#235 = PERSON_AND_ORGANIZATION ( #63, #69 ) ;
#236 = PERSON_AND_ORGANIZATION_ROLE ( 'classification_officer' ) ;
#237 = VECTOR ( 'NONE', #98, 39.37007874015748143 ) ;
#238 = CALENDAR_DATE ( 2026, 10, 8 ) ;
#239 = PRODUCT_DEFINITION ( 'UNKNOWN', '', #231, #28 ) ;
#240 = CC_DESIGN_SECURITY_CLASSIFICATION ( #189, ( #231 ) ) ;
ENDSEC;
END-ISO-10303-21;
