ISO-10303-21;
HEADER;
FILE_DESCRIPTION (( 'STEP AP203' ),
    '1' );
FILE_NAME ('REF_BTS7960_IBT2.STEP',
    '2026-08-10T00:39:28',
    ( '' ),
    ( '' ),
    'SwSTEP 2.0',
    'SolidWorks 2026',
    '' );
FILE_SCHEMA (( 'CONFIG_CONTROL_DESIGN' ));
ENDSEC;

DATA;
#1 = CARTESIAN_POINT ( 'NONE',  ( 1.968503937007874072, 0.06299212598425196763, 1.082677165354330784 ) ) ;
#2 = DIRECTION ( 'NONE',  ( 0.000000000000000000, -1.000000000000000000, 0.000000000000000000 ) ) ;
#3 = LINE ( 'NONE', #41, #127 ) ;
#4 = EDGE_CURVE ( 'NONE', #192, #234, #71, .T. ) ;
#5 = PRODUCT_DEFINITION_FORMATION_WITH_SPECIFIED_SOURCE ( 'ANY', '', #201, .NOT_KNOWN. ) ;
#6 = DATE_AND_TIME ( #172, #152 ) ;
#7 = VECTOR ( 'NONE', #151, 39.37007874015748143 ) ;
#8 = DIRECTION ( 'NONE',  ( 0.000000000000000000, 0.000000000000000000, 1.000000000000000000 ) ) ;
#9 = PERSON_AND_ORGANIZATION ( #215, #19 ) ;
#10 = DIRECTION ( 'NONE',  ( 1.000000000000000000, 0.000000000000000000, -0.000000000000000000 ) ) ;
#11 = VECTOR ( 'NONE', #220, 39.37007874015748143 ) ;
#12 = DATE_AND_TIME ( #210, #43 ) ;
#13 = FACE_OUTER_BOUND ( 'NONE', #74, .T. ) ;
#14 = CC_DESIGN_PERSON_AND_ORGANIZATION_ASSIGNMENT ( #212, #99, ( #5 ) ) ;
#15 = LINE ( 'NONE', #156, #165 ) ;
#16 = ADVANCED_FACE ( 'NONE', ( #52 ), #140, .F. ) ;
#17 = ORIENTED_EDGE ( 'NONE', *, *, #150, .T. ) ;
#18 =( NAMED_UNIT ( * ) SI_UNIT ( $, .STERADIAN. ) SOLID_ANGLE_UNIT ( ) );
#19 = ORGANIZATION ( 'UNSPECIFIED', 'UNSPECIFIED', '' ) ;
#20 = DIRECTION ( 'NONE',  ( -0.000000000000000000, -1.000000000000000000, -0.000000000000000000 ) ) ;
#21 = AXIS2_PLACEMENT_3D ( 'NONE', #72, #121, #138 ) ;
#22 = FACE_OUTER_BOUND ( 'NONE', #169, .T. ) ;
#23 = EDGE_CURVE ( 'NONE', #66, #47, #213, .T. ) ;
#24 = COORDINATED_UNIVERSAL_TIME_OFFSET ( 1, 0, .AHEAD. ) ;
#25 = APPROVAL_ROLE ( '' ) ;
#26 = ORIENTED_EDGE ( 'NONE', *, *, #135, .F. ) ;
#27 = CC_DESIGN_SECURITY_CLASSIFICATION ( #60, ( #5 ) ) ;
#28 = PERSON_AND_ORGANIZATION_ROLE ( 'creator' ) ;
#29 = COORDINATED_UNIVERSAL_TIME_OFFSET ( 1, 0, .AHEAD. ) ;
#30 = EDGE_LOOP ( 'NONE', ( #154, #174, #158, #37 ) ) ;
#31 = APPLICATION_CONTEXT ( 'configuration controlled 3d designs of mechanical parts and assemblies' ) ;
#32 = PERSON_AND_ORGANIZATION ( #215, #19 ) ;
#33 = EDGE_CURVE ( 'NONE', #77, #87, #15, .T. ) ;
#34 = DIRECTION ( 'NONE',  ( -1.000000000000000000, -0.000000000000000000, -0.000000000000000000 ) ) ;
#35 = ADVANCED_FACE ( 'NONE', ( #13 ), #237, .F. ) ;
#36 = CARTESIAN_POINT ( 'NONE',  ( -1.968503937007874072, 0.06299212598425196763, 1.082677165354330784 ) ) ;
#37 = ORIENTED_EDGE ( 'NONE', *, *, #118, .T. ) ;
#38 = PLANE ( 'NONE',  #160 ) ;
#39 = VECTOR ( 'NONE', #129, 39.37007874015748143 ) ;
#40 = CARTESIAN_POINT ( 'NONE',  ( -1.968503937007874072, 0.06299212598425196763, 1.082677165354330784 ) ) ;
#41 = CARTESIAN_POINT ( 'NONE',  ( -1.968503937007874072, 0.06299212598425196763, -1.082677165354330784 ) ) ;
#42 = CC_DESIGN_DATE_AND_TIME_ASSIGNMENT ( #102, #68, ( #107 ) ) ;
#43 = LOCAL_TIME ( 1, 39, 28.00000000000000000, #24 ) ;
#44 = DIRECTION ( 'NONE',  ( -1.000000000000000000, 0.000000000000000000, 0.000000000000000000 ) ) ;
#45 = VERTEX_POINT ( 'NONE', #36 ) ;
#46 = CARTESIAN_POINT ( 'NONE',  ( 1.968503937007874072, 0.06299212598425196763, 1.082677165354330784 ) ) ;
#47 = VERTEX_POINT ( 'NONE', #125 ) ;
#48 = COORDINATED_UNIVERSAL_TIME_OFFSET ( 1, 0, .AHEAD. ) ;
#49 = LINE ( 'NONE', #134, #222 ) ;
#50 = EDGE_LOOP ( 'NONE', ( #105, #167, #69, #123 ) ) ;
#51 = ADVANCED_FACE ( 'NONE', ( #106 ), #38, .F. ) ;
#52 = FACE_OUTER_BOUND ( 'NONE', #50, .T. ) ;
#53 = LOCAL_TIME ( 1, 39, 28.00000000000000000, #229 ) ;
#54 = PLANE ( 'NONE',  #188 ) ;
#55 = DIRECTION ( 'NONE',  ( 0.000000000000000000, 0.000000000000000000, -1.000000000000000000 ) ) ;
#56 = CARTESIAN_POINT ( 'NONE',  ( 0.000000000000000000, 0.000000000000000000, 0.000000000000000000 ) ) ;
#57 = CARTESIAN_POINT ( 'NONE',  ( 1.968503937007874072, 0.06299212598425196763, 1.082677165354330784 ) ) ;
#58 = CC_DESIGN_PERSON_AND_ORGANIZATION_ASSIGNMENT ( #32, #28, ( #5 ) ) ;
#59 = ADVANCED_FACE ( 'NONE', ( #217 ), #54, .F. ) ;
#60 = SECURITY_CLASSIFICATION ( '', '', #64 ) ;
#61 = PRODUCT_RELATED_PRODUCT_CATEGORY ( 'detail', '', ( #201 ) ) ;
#62 = DIRECTION ( 'NONE',  ( 0.000000000000000000, 0.000000000000000000, 1.000000000000000000 ) ) ;
#63 = AXIS2_PLACEMENT_3D ( 'NONE', #56, #2, #198 ) ;
#64 = SECURITY_CLASSIFICATION_LEVEL ( 'unclassified' ) ;
#65 = EDGE_CURVE ( 'NONE', #87, #45, #108, .T. ) ;
#66 = VERTEX_POINT ( 'NONE', #80 ) ;
#67 = APPROVAL_ROLE ( '' ) ;
#68 = DATE_TIME_ROLE ( 'creation_date' ) ;
#69 = ORIENTED_EDGE ( 'NONE', *, *, #33, .F. ) ;
#70 = APPROVAL_DATE_TIME ( #207, #238 ) ;
#71 = LINE ( 'NONE', #103, #209 ) ;
#72 = CARTESIAN_POINT ( 'NONE',  ( 0.000000000000000000, 0.06299212598425196763, 0.000000000000000000 ) ) ;
#73 = ORIENTED_EDGE ( 'NONE', *, *, #228, .F. ) ;
#74 = EDGE_LOOP ( 'NONE', ( #101, #214, #161, #157 ) ) ;
#75 = CC_DESIGN_DATE_AND_TIME_ASSIGNMENT ( #6, #117, ( #60 ) ) ;
#76 = CARTESIAN_POINT ( 'NONE',  ( 1.968503937007874072, 0.06299212598425196763, -1.082677165354330784 ) ) ;
#77 = VERTEX_POINT ( 'NONE', #144 ) ;
#78 = APPLICATION_PROTOCOL_DEFINITION ( 'international standard', 'config_control_design', 1994, #31 ) ;
#79 = APPROVAL_STATUS ( 'not_yet_approved' ) ;
#80 = CARTESIAN_POINT ( 'NONE',  ( -1.968503937007874072, 0.000000000000000000, -1.082677165354330784 ) ) ;
#81 = SHAPE_DEFINITION_REPRESENTATION ( #115, #202 ) ;
#82 = EDGE_LOOP ( 'NONE', ( #98, #230, #239, #17 ) ) ;
#83 = ORIENTED_EDGE ( 'NONE', *, *, #200, .F. ) ;
#84 = AXIS2_PLACEMENT_3D ( 'NONE', #57, #44, #62 ) ;
#85 = CARTESIAN_POINT ( 'NONE',  ( -1.968503937007874072, 0.06299212598425196763, 1.082677165354330784 ) ) ;
#86 = VECTOR ( 'NONE', #211, 39.37007874015748143 ) ;
#87 = VERTEX_POINT ( 'NONE', #218 ) ;
#88 = AXIS2_PLACEMENT_3D ( 'NONE', #131, #199, #205 ) ;
#89 = PLANE ( 'NONE',  #63 ) ;
#90 = CARTESIAN_POINT ( 'NONE',  ( -1.968503937007874072, 0.000000000000000000, -1.082677165354330784 ) ) ;
#91 = EDGE_CURVE ( 'NONE', #45, #47, #49, .T. ) ;
#92 = CARTESIAN_POINT ( 'NONE',  ( -1.968503937007874072, 0.000000000000000000, 1.082677165354330784 ) ) ;
#93 = UNCERTAINTY_MEASURE_WITH_UNIT (LENGTH_MEASURE( 1.000000000000000082E-05 ), #223, 'distance_accuracy_value', 'NONE');
#94 = ORIENTED_EDGE ( 'NONE', *, *, #118, .F. ) ;
#95 = CC_DESIGN_PERSON_AND_ORGANIZATION_ASSIGNMENT ( #153, #155, ( #107 ) ) ;
#96 = APPROVAL_DATE_TIME ( #139, #179 ) ;
#97 = EDGE_CURVE ( 'NONE', #77, #234, #203, .T. ) ;
#98 = ORIENTED_EDGE ( 'NONE', *, *, #23, .T. ) ;
#99 = PERSON_AND_ORGANIZATION_ROLE ( 'design_supplier' ) ;
#100 =( GEOMETRIC_REPRESENTATION_CONTEXT ( 3 ) GLOBAL_UNCERTAINTY_ASSIGNED_CONTEXT ( ( #93 ) ) GLOBAL_UNIT_ASSIGNED_CONTEXT ( ( #223, #224, #18 ) ) REPRESENTATION_CONTEXT ( 'NONE', 'WORKASPACE' ) );
#101 = ORIENTED_EDGE ( 'NONE', *, *, #65, .T. ) ;
#102 = DATE_AND_TIME ( #236, #112 ) ;
#103 = CARTESIAN_POINT ( 'NONE',  ( 1.968503937007874072, 0.000000000000000000, 1.082677165354330784 ) ) ;
#104 = COORDINATED_UNIVERSAL_TIME_OFFSET ( 1, 0, .AHEAD. ) ;
#105 = ORIENTED_EDGE ( 'NONE', *, *, #228, .T. ) ;
#106 = FACE_OUTER_BOUND ( 'NONE', #189, .T. ) ;
#107 = PRODUCT_DEFINITION ( 'UNKNOWN', '', #5, #186 ) ;
#108 = LINE ( 'NONE', #175, #86 ) ;
#109 = CARTESIAN_POINT ( 'NONE',  ( 1.968503937007874072, 0.000000000000000000, -1.082677165354330784 ) ) ;
#110 = ADVANCED_FACE ( 'NONE', ( #111 ), #163, .F. ) ;
#111 = FACE_OUTER_BOUND ( 'NONE', #30, .T. ) ;
#112 = LOCAL_TIME ( 1, 39, 28.00000000000000000, #29 ) ;
#113 = VECTOR ( 'NONE', #114, 39.37007874015748143 ) ;
#114 = DIRECTION ( 'NONE',  ( 1.000000000000000000, 0.000000000000000000, 0.000000000000000000 ) ) ;
#115 = PRODUCT_DEFINITION_SHAPE ( 'NONE', 'NONE',  #107 ) ;
#116 =( LENGTH_UNIT ( ) NAMED_UNIT ( * ) SI_UNIT ( $, .METRE. ) );
#117 = DATE_TIME_ROLE ( 'classification_date' ) ;
#118 = EDGE_CURVE ( 'NONE', #197, #192, #164, .T. ) ;
#119 = APPROVAL ( #208, 'UNSPECIFIED' ) ;
#120 = CALENDAR_DATE ( 2026, 10, 8 ) ;
#121 = DIRECTION ( 'NONE',  ( 0.000000000000000000, -1.000000000000000000, 0.000000000000000000 ) ) ;
#122 = PERSON_AND_ORGANIZATION_ROLE ( 'design_owner' ) ;
#123 = ORIENTED_EDGE ( 'NONE', *, *, #97, .T. ) ;
#124 = VECTOR ( 'NONE', #177, 39.37007874015748143 ) ;
#125 = CARTESIAN_POINT ( 'NONE',  ( -1.968503937007874072, 0.000000000000000000, 1.082677165354330784 ) ) ;
#126 = APPROVAL_PERSON_ORGANIZATION ( #136, #238, #170 ) ;
#127 = VECTOR ( 'NONE', #146, 39.37007874015748143 ) ;
#128 = CARTESIAN_POINT ( 'NONE',  ( -1.968503937007874072, 0.06299212598425196763, 1.082677165354330784 ) ) ;
#129 = DIRECTION ( 'NONE',  ( -0.000000000000000000, -0.000000000000000000, 1.000000000000000000 ) ) ;
#130 = AXIS2_PLACEMENT_3D ( 'NONE', #171, #8, #10 ) ;
#131 = CARTESIAN_POINT ( 'NONE',  ( 0.000000000000000000, 0.000000000000000000, 0.000000000000000000 ) ) ;
#132 = CC_DESIGN_APPROVAL ( #179, ( #107 ) ) ;
#133 = LINE ( 'NONE', #40, #113 ) ;
#134 = CARTESIAN_POINT ( 'NONE',  ( -1.968503937007874072, 0.06299212598425196763, 1.082677165354330784 ) ) ;
#135 = EDGE_CURVE ( 'NONE', #45, #197, #133, .T. ) ;
#136 = PERSON_AND_ORGANIZATION ( #215, #19 ) ;
#137 = CALENDAR_DATE ( 2026, 10, 8 ) ;
#138 = DIRECTION ( 'NONE',  ( 0.000000000000000000, -0.000000000000000000, -1.000000000000000000 ) ) ;
#139 = DATE_AND_TIME ( #120, #216 ) ;
#140 = PLANE ( 'NONE',  #130 ) ;
#141 = ORIENTED_EDGE ( 'NONE', *, *, #200, .T. ) ;
#142 = DIRECTION ( 'NONE',  ( 0.000000000000000000, 0.000000000000000000, -1.000000000000000000 ) ) ;
#143 = APPROVAL_PERSON_ORGANIZATION ( #191, #179, #25 ) ;
#144 = CARTESIAN_POINT ( 'NONE',  ( 1.968503937007874072, 0.06299212598425196763, -1.082677165354330784 ) ) ;
#145 = PERSON_AND_ORGANIZATION ( #215, #19 ) ;
#146 = DIRECTION ( 'NONE',  ( -0.000000000000000000, -1.000000000000000000, -0.000000000000000000 ) ) ;
#147 = APPLICATION_CONTEXT ( 'configuration controlled 3d designs of mechanical parts and assemblies' ) ;
#148 = LINE ( 'NONE', #92, #11 ) ;
#149 = LINE ( 'NONE', #1, #124 ) ;
#150 = EDGE_CURVE ( 'NONE', #87, #66, #3, .T. ) ;
#151 = DIRECTION ( 'NONE',  ( -1.000000000000000000, -0.000000000000000000, -0.000000000000000000 ) ) ;
#152 = LOCAL_TIME ( 1, 39, 28.00000000000000000, #104 ) ;
#153 = PERSON_AND_ORGANIZATION ( #215, #19 ) ;
#154 = ORIENTED_EDGE ( 'NONE', *, *, #4, .T. ) ;
#155 = PERSON_AND_ORGANIZATION_ROLE ( 'creator' ) ;
#156 = CARTESIAN_POINT ( 'NONE',  ( -1.968503937007874072, 0.06299212598425196763, -1.082677165354330784 ) ) ;
#157 = ORIENTED_EDGE ( 'NONE', *, *, #33, .T. ) ;
#158 = ORIENTED_EDGE ( 'NONE', *, *, #221, .F. ) ;
#159 = DIRECTION ( 'NONE',  ( -1.000000000000000000, 0.000000000000000000, -0.000000000000000000 ) ) ;
#160 = AXIS2_PLACEMENT_3D ( 'NONE', #85, #55, #159 ) ;
#161 = ORIENTED_EDGE ( 'NONE', *, *, #221, .T. ) ;
#162 = LENGTH_MEASURE_WITH_UNIT ( LENGTH_MEASURE( 0.02539999999999999897 ), #116 );
#163 = PLANE ( 'NONE',  #84 ) ;
#164 = LINE ( 'NONE', #178, #219 ) ;
#165 = VECTOR ( 'NONE', #34, 39.37007874015748143 ) ;
#166 = DIRECTION ( 'NONE',  ( -0.000000000000000000, -1.000000000000000000, -0.000000000000000000 ) ) ;
#167 = ORIENTED_EDGE ( 'NONE', *, *, #150, .F. ) ;
#168 = APPROVAL_DATE_TIME ( #12, #119 ) ;
#169 = EDGE_LOOP ( 'NONE', ( #195, #73, #173, #83 ) ) ;
#170 = APPROVAL_ROLE ( '' ) ;
#171 = CARTESIAN_POINT ( 'NONE',  ( -1.968503937007874072, 0.06299212598425196763, -1.082677165354330784 ) ) ;
#172 = CALENDAR_DATE ( 2026, 10, 8 ) ;
#173 = ORIENTED_EDGE ( 'NONE', *, *, #4, .F. ) ;
#174 = ORIENTED_EDGE ( 'NONE', *, *, #97, .F. ) ;
#175 = CARTESIAN_POINT ( 'NONE',  ( -1.968503937007874072, 0.06299212598425196763, 1.082677165354330784 ) ) ;
#176 = CLOSED_SHELL ( 'NONE', ( #59, #51, #110, #16, #35, #225 ) ) ;
#177 = DIRECTION ( 'NONE',  ( 0.000000000000000000, 0.000000000000000000, -1.000000000000000000 ) ) ;
#178 = CARTESIAN_POINT ( 'NONE',  ( 1.968503937007874072, 0.06299212598425196763, 1.082677165354330784 ) ) ;
#179 = APPROVAL ( #193, 'UNSPECIFIED' ) ;
#180 = APPROVAL_PERSON_ORGANIZATION ( #232, #119, #67 ) ;
#181 = CC_DESIGN_PERSON_AND_ORGANIZATION_ASSIGNMENT ( #9, #187, ( #60 ) ) ;
#182 = DIRECTION ( 'NONE',  ( -0.000000000000000000, -1.000000000000000000, -0.000000000000000000 ) ) ;
#183 = LINE ( 'NONE', #90, #7 ) ;
#184 = MANIFOLD_SOLID_BREP ( 'Plate_Extrude', #176 ) ;
#185 = VECTOR ( 'NONE', #20, 39.37007874015748143 ) ;
#186 = DESIGN_CONTEXT ( 'detailed design', #147, 'design' ) ;
#187 = PERSON_AND_ORGANIZATION_ROLE ( 'classification_officer' ) ;
#188 = AXIS2_PLACEMENT_3D ( 'NONE', #128, #240, #196 ) ;
#189 = EDGE_LOOP ( 'NONE', ( #141, #94, #26, #233 ) ) ;
#190 = CC_DESIGN_APPROVAL ( #119, ( #60 ) ) ;
#191 = PERSON_AND_ORGANIZATION ( #215, #19 ) ;
#192 = VERTEX_POINT ( 'NONE', #204 ) ;
#193 = APPROVAL_STATUS ( 'not_yet_approved' ) ;
#194 = CARTESIAN_POINT ( 'NONE',  ( -1.968503937007874072, 0.000000000000000000, 1.082677165354330784 ) ) ;
#195 = ORIENTED_EDGE ( 'NONE', *, *, #23, .F. ) ;
#196 = DIRECTION ( 'NONE',  ( 0.000000000000000000, 0.000000000000000000, -1.000000000000000000 ) ) ;
#197 = VERTEX_POINT ( 'NONE', #46 ) ;
#198 = DIRECTION ( 'NONE',  ( 0.000000000000000000, -0.000000000000000000, -1.000000000000000000 ) ) ;
#199 = DIRECTION ( 'NONE',  ( 0.000000000000000000, 0.000000000000000000, 1.000000000000000000 ) ) ;
#200 = EDGE_CURVE ( 'NONE', #47, #192, #148, .T. ) ;
#201 = PRODUCT ( 'REF_BTS7960_IBT2', 'REF_BTS7960_IBT2', '', ( #226 ) ) ;
#202 = ADVANCED_BREP_SHAPE_REPRESENTATION ( 'REF_BTS7960_IBT2', ( #184, #88 ), #100 ) ;
#203 = LINE ( 'NONE', #76, #185 ) ;
#204 = CARTESIAN_POINT ( 'NONE',  ( 1.968503937007874072, 0.000000000000000000, 1.082677165354330784 ) ) ;
#205 = DIRECTION ( 'NONE',  ( 1.000000000000000000, 0.000000000000000000, 0.000000000000000000 ) ) ;
#206 = CC_DESIGN_PERSON_AND_ORGANIZATION_ASSIGNMENT ( #145, #122, ( #201 ) ) ;
#207 = DATE_AND_TIME ( #137, #53 ) ;
#208 = APPROVAL_STATUS ( 'not_yet_approved' ) ;
#209 = VECTOR ( 'NONE', #142, 39.37007874015748143 ) ;
#210 = CALENDAR_DATE ( 2026, 10, 8 ) ;
#211 = DIRECTION ( 'NONE',  ( -0.000000000000000000, -0.000000000000000000, 1.000000000000000000 ) ) ;
#212 = PERSON_AND_ORGANIZATION ( #215, #19 ) ;
#213 = LINE ( 'NONE', #194, #39 ) ;
#214 = ORIENTED_EDGE ( 'NONE', *, *, #135, .T. ) ;
#215 = PERSON ( 'UNSPECIFIED', 'UNSPECIFIED', 'UNSPECIFIED', ('UNSPECIFIED'), ('UNSPECIFIED'), ('UNSPECIFIED') ) ;
#216 = LOCAL_TIME ( 1, 39, 28.00000000000000000, #48 ) ;
#217 = FACE_OUTER_BOUND ( 'NONE', #82, .T. ) ;
#218 = CARTESIAN_POINT ( 'NONE',  ( -1.968503937007874072, 0.06299212598425196763, -1.082677165354330784 ) ) ;
#219 = VECTOR ( 'NONE', #182, 39.37007874015748143 ) ;
#220 = DIRECTION ( 'NONE',  ( 1.000000000000000000, 0.000000000000000000, 0.000000000000000000 ) ) ;
#221 = EDGE_CURVE ( 'NONE', #197, #77, #149, .T. ) ;
#222 = VECTOR ( 'NONE', #166, 39.37007874015748143 ) ;
#223 =( CONVERSION_BASED_UNIT ( 'INCH', #162 ) LENGTH_UNIT ( ) NAMED_UNIT ( #235 ) );
#224 =( NAMED_UNIT ( * ) PLANE_ANGLE_UNIT ( ) SI_UNIT ( $, .RADIAN. ) );
#225 = ADVANCED_FACE ( 'NONE', ( #22 ), #89, .T. ) ;
#226 = MECHANICAL_CONTEXT ( 'NONE', #31, 'mechanical' ) ;
#227 = CC_DESIGN_APPROVAL ( #238, ( #5 ) ) ;
#228 = EDGE_CURVE ( 'NONE', #234, #66, #183, .T. ) ;
#229 = COORDINATED_UNIVERSAL_TIME_OFFSET ( 1, 0, .AHEAD. ) ;
#230 = ORIENTED_EDGE ( 'NONE', *, *, #91, .F. ) ;
#231 = APPLICATION_PROTOCOL_DEFINITION ( 'international standard', 'config_control_design', 1994, #147 ) ;
#232 = PERSON_AND_ORGANIZATION ( #215, #19 ) ;
#233 = ORIENTED_EDGE ( 'NONE', *, *, #91, .T. ) ;
#234 = VERTEX_POINT ( 'NONE', #109 ) ;
#235 = DIMENSIONAL_EXPONENTS ( 1.000000000000000000, 0.000000000000000000, 0.000000000000000000, 0.000000000000000000, 0.000000000000000000, 0.000000000000000000, 0.000000000000000000 ) ;
#236 = CALENDAR_DATE ( 2026, 10, 8 ) ;
#237 = PLANE ( 'NONE',  #21 ) ;
#238 = APPROVAL ( #79, 'UNSPECIFIED' ) ;
#239 = ORIENTED_EDGE ( 'NONE', *, *, #65, .F. ) ;
#240 = DIRECTION ( 'NONE',  ( 1.000000000000000000, -0.000000000000000000, 0.000000000000000000 ) ) ;
ENDSEC;
END-ISO-10303-21;
