ISO-10303-21;
HEADER;
FILE_DESCRIPTION (( 'STEP AP203' ),
    '1' );
FILE_NAME ('REF_18650_Cell.STEP',
    '2026-08-10T00:39:30',
    ( '' ),
    ( '' ),
    'SwSTEP 2.0',
    'SolidWorks 2026',
    '' );
FILE_SCHEMA (( 'CONFIG_CONTROL_DESIGN' ));
ENDSEC;

DATA;
#1 =( CONVERSION_BASED_UNIT ( 'INCH', #99 ) LENGTH_UNIT ( ) NAMED_UNIT ( #73 ) );
#2 = FACE_OUTER_BOUND ( 'NONE', #136, .T. ) ;
#3 = DESIGN_CONTEXT ( 'detailed design', #35, 'design' ) ;
#4 = LINE ( 'NONE', #30, #37 ) ;
#5 =( NAMED_UNIT ( * ) PLANE_ANGLE_UNIT ( ) SI_UNIT ( $, .RADIAN. ) );
#6 = LOCAL_TIME ( 1, 39, 30.00000000000000000, #91 ) ;
#7 =( NAMED_UNIT ( * ) SI_UNIT ( $, .STERADIAN. ) SOLID_ANGLE_UNIT ( ) );
#8 = APPROVAL ( #50, 'UNSPECIFIED' ) ;
#9 = PERSON_AND_ORGANIZATION ( #23, #151 ) ;
#10 = DATE_TIME_ROLE ( 'classification_date' ) ;
#11 = CALENDAR_DATE ( 2026, 10, 8 ) ;
#12 = CALENDAR_DATE ( 2026, 10, 8 ) ;
#13 = PRODUCT_DEFINITION ( 'UNKNOWN', '', #44, #3 ) ;
#14 = DATE_TIME_ROLE ( 'creation_date' ) ;
#15 = ORIENTED_EDGE ( 'NONE', *, *, #92, .F. ) ;
#16 = ORIENTED_EDGE ( 'NONE', *, *, #46, .F. ) ;
#17 = DIRECTION ( 'NONE',  ( 0.000000000000000000, 0.000000000000000000, -1.000000000000000000 ) ) ;
#18 = ORIENTED_EDGE ( 'NONE', *, *, #150, .T. ) ;
#19 = DIRECTION ( 'NONE',  ( -0.000000000000000000, -1.000000000000000000, -0.000000000000000000 ) ) ;
#20 = APPROVAL_ROLE ( '' ) ;
#21 = COORDINATED_UNIVERSAL_TIME_OFFSET ( 1, 0, .AHEAD. ) ;
#22 = ADVANCED_FACE ( 'NONE', ( #2 ), #102, .T. ) ;
#23 = PERSON ( 'UNSPECIFIED', 'UNSPECIFIED', 'UNSPECIFIED', ('UNSPECIFIED'), ('UNSPECIFIED'), ('UNSPECIFIED') ) ;
#24 = CC_DESIGN_PERSON_AND_ORGANIZATION_ASSIGNMENT ( #145, #79, ( #44 ) ) ;
#25 = PERSON_AND_ORGANIZATION ( #23, #151 ) ;
#26 = ORIENTED_EDGE ( 'NONE', *, *, #171, .T. ) ;
#27 = SECURITY_CLASSIFICATION ( '', '', #103 ) ;
#28 = CIRCLE ( 'NONE', #77, 0.3661417322834646382 ) ;
#29 = ADVANCED_FACE ( 'NONE', ( #127 ), #169, .F. ) ;
#30 = CARTESIAN_POINT ( 'NONE',  ( 4.483943004752120549E-17, 2.574803149606299080, 0.3661417322834646382 ) ) ;
#31 = ADVANCED_FACE ( 'NONE', ( #124 ), #140, .T. ) ;
#32 = EDGE_LOOP ( 'NONE', ( #16, #122, #43, #138 ) ) ;
#33 = CARTESIAN_POINT ( 'NONE',  ( 4.483943004752120549E-17, 2.574803149606299080, 0.3661417322834646382 ) ) ;
#34 = MANIFOLD_SOLID_BREP ( 'Revolved_Equivalent_Extrude', #82 ) ;
#35 = APPLICATION_CONTEXT ( 'configuration controlled 3d designs of mechanical parts and assemblies' ) ;
#36 = LINE ( 'NONE', #58, #134 ) ;
#37 = VECTOR ( 'NONE', #100, 39.37007874015748143 ) ;
#38 = APPLICATION_PROTOCOL_DEFINITION ( 'international standard', 'config_control_design', 1994, #35 ) ;
#39 = APPROVAL_ROLE ( '' ) ;
#40 = ORIENTED_EDGE ( 'NONE', *, *, #150, .F. ) ;
#41 = APPLICATION_CONTEXT ( 'configuration controlled 3d designs of mechanical parts and assemblies' ) ;
#42 = ORIENTED_EDGE ( 'NONE', *, *, #119, .F. ) ;
#43 = ORIENTED_EDGE ( 'NONE', *, *, #119, .T. ) ;
#44 = PRODUCT_DEFINITION_FORMATION_WITH_SPECIFIED_SOURCE ( 'ANY', '', #159, .NOT_KNOWN. ) ;
#45 = DIRECTION ( 'NONE',  ( 0.000000000000000000, 0.000000000000000000, 1.000000000000000000 ) ) ;
#46 = EDGE_CURVE ( 'NONE', #166, #107, #52, .T. ) ;
#47 = DIRECTION ( 'NONE',  ( 0.000000000000000000, 1.000000000000000000, 0.000000000000000000 ) ) ;
#48 = DIRECTION ( 'NONE',  ( 0.000000000000000000, 1.000000000000000000, 0.000000000000000000 ) ) ;
#49 = CARTESIAN_POINT ( 'NONE',  ( 4.483943004752120549E-17, 0.000000000000000000, 0.3661417322834646382 ) ) ;
#50 = APPROVAL_STATUS ( 'not_yet_approved' ) ;
#51 = PERSON_AND_ORGANIZATION_ROLE ( 'creator' ) ;
#52 = CIRCLE ( 'NONE', #141, 0.3661417322834646382 ) ;
#53 = APPROVAL_PERSON_ORGANIZATION ( #104, #8, #178 ) ;
#54 = VERTEX_POINT ( 'NONE', #172 ) ;
#55 = PERSON_AND_ORGANIZATION_ROLE ( 'design_supplier' ) ;
#56 = ORIENTED_EDGE ( 'NONE', *, *, #177, .T. ) ;
#57 = CIRCLE ( 'NONE', #95, 0.3661417322834646382 ) ;
#58 = CARTESIAN_POINT ( 'NONE',  ( 0.000000000000000000, 2.574803149606299080, -0.3661417322834646382 ) ) ;
#59 = CARTESIAN_POINT ( 'NONE',  ( 0.000000000000000000, 2.574803149606299080, -0.3661417322834646382 ) ) ;
#60 = CARTESIAN_POINT ( 'NONE',  ( 0.000000000000000000, 2.574803149606299080, 0.000000000000000000 ) ) ;
#61 = CC_DESIGN_APPROVAL ( #8, ( #27 ) ) ;
#62 = PERSON_AND_ORGANIZATION_ROLE ( 'classification_officer' ) ;
#63 = DATE_AND_TIME ( #89, #67 ) ;
#64 = CC_DESIGN_PERSON_AND_ORGANIZATION_ASSIGNMENT ( #9, #62, ( #27 ) ) ;
#65 = DATE_AND_TIME ( #11, #130 ) ;
#66 = CALENDAR_DATE ( 2026, 10, 8 ) ;
#67 = LOCAL_TIME ( 1, 39, 30.00000000000000000, #135 ) ;
#68 = DATE_AND_TIME ( #12, #143 ) ;
#69 = AXIS2_PLACEMENT_3D ( 'NONE', #174, #165, #147 ) ;
#70 = CC_DESIGN_DATE_AND_TIME_ASSIGNMENT ( #65, #10, ( #27 ) ) ;
#71 = ORIENTED_EDGE ( 'NONE', *, *, #46, .T. ) ;
#72 = CARTESIAN_POINT ( 'NONE',  ( 0.000000000000000000, 2.574803149606299080, 0.000000000000000000 ) ) ;
#73 = DIMENSIONAL_EXPONENTS ( 1.000000000000000000, 0.000000000000000000, 0.000000000000000000, 0.000000000000000000, 0.000000000000000000, 0.000000000000000000, 0.000000000000000000 ) ;
#74 = FACE_OUTER_BOUND ( 'NONE', #129, .T. ) ;
#75 = CIRCLE ( 'NONE', #162, 0.3661417322834646382 ) ;
#76 = APPROVAL_PERSON_ORGANIZATION ( #90, #123, #20 ) ;
#77 = AXIS2_PLACEMENT_3D ( 'NONE', #110, #47, #101 ) ;
#78 = PERSON_AND_ORGANIZATION ( #23, #151 ) ;
#79 = PERSON_AND_ORGANIZATION_ROLE ( 'creator' ) ;
#80 = ADVANCED_FACE ( 'NONE', ( #74 ), #125, .T. ) ;
#81 = AXIS2_PLACEMENT_3D ( 'NONE', #153, #48, #170 ) ;
#82 = CLOSED_SHELL ( 'NONE', ( #31, #22, #80, #29 ) ) ;
#83 = DIRECTION ( 'NONE',  ( 0.000000000000000000, 0.000000000000000000, 1.000000000000000000 ) ) ;
#84 = CARTESIAN_POINT ( 'NONE',  ( 0.000000000000000000, 2.574803149606299080, 0.000000000000000000 ) ) ;
#85 =( LENGTH_UNIT ( ) NAMED_UNIT ( * ) SI_UNIT ( $, .METRE. ) );
#86 = ORIENTED_EDGE ( 'NONE', *, *, #177, .F. ) ;
#87 = DIRECTION ( 'NONE',  ( 0.000000000000000000, 1.000000000000000000, 0.000000000000000000 ) ) ;
#88 = CC_DESIGN_PERSON_AND_ORGANIZATION_ASSIGNMENT ( #25, #133, ( #159 ) ) ;
#89 = CALENDAR_DATE ( 2026, 10, 8 ) ;
#90 = PERSON_AND_ORGANIZATION ( #23, #151 ) ;
#91 = COORDINATED_UNIVERSAL_TIME_OFFSET ( 1, 0, .AHEAD. ) ;
#92 = EDGE_CURVE ( 'NONE', #166, #97, #4, .T. ) ;
#93 = CC_DESIGN_PERSON_AND_ORGANIZATION_ASSIGNMENT ( #116, #55, ( #44 ) ) ;
#94 = APPROVAL_STATUS ( 'not_yet_approved' ) ;
#95 = AXIS2_PLACEMENT_3D ( 'NONE', #60, #112, #155 ) ;
#96 = CC_DESIGN_APPROVAL ( #123, ( #44 ) ) ;
#97 = VERTEX_POINT ( 'NONE', #49 ) ;
#98 = DIRECTION ( 'NONE',  ( 0.000000000000000000, 1.000000000000000000, 0.000000000000000000 ) ) ;
#99 = LENGTH_MEASURE_WITH_UNIT ( LENGTH_MEASURE( 0.02539999999999999897 ), #85 );
#100 = DIRECTION ( 'NONE',  ( -0.000000000000000000, -1.000000000000000000, -0.000000000000000000 ) ) ;
#101 = DIRECTION ( 'NONE',  ( 0.000000000000000000, 0.000000000000000000, 1.000000000000000000 ) ) ;
#102 = CYLINDRICAL_SURFACE ( 'NONE', #167, 0.3661417322834646382 ) ;
#103 = SECURITY_CLASSIFICATION_LEVEL ( 'unclassified' ) ;
#104 = PERSON_AND_ORGANIZATION ( #23, #151 ) ;
#105 = ADVANCED_BREP_SHAPE_REPRESENTATION ( 'REF_18650_Cell', ( #34, #69 ), #164 ) ;
#106 = CC_DESIGN_PERSON_AND_ORGANIZATION_ASSIGNMENT ( #132, #51, ( #13 ) ) ;
#107 = VERTEX_POINT ( 'NONE', #59 ) ;
#108 = APPROVAL_PERSON_ORGANIZATION ( #78, #111, #39 ) ;
#109 = DIRECTION ( 'NONE',  ( -0.000000000000000000, -1.000000000000000000, -0.000000000000000000 ) ) ;
#110 = CARTESIAN_POINT ( 'NONE',  ( 0.000000000000000000, 0.000000000000000000, 0.000000000000000000 ) ) ;
#111 = APPROVAL ( #94, 'UNSPECIFIED' ) ;
#112 = DIRECTION ( 'NONE',  ( 0.000000000000000000, 1.000000000000000000, 0.000000000000000000 ) ) ;
#113 = CARTESIAN_POINT ( 'NONE',  ( 0.000000000000000000, 0.000000000000000000, 0.000000000000000000 ) ) ;
#114 = DIRECTION ( 'NONE',  ( 0.000000000000000000, -0.000000000000000000, 1.000000000000000000 ) ) ;
#115 = DATE_AND_TIME ( #66, #6 ) ;
#116 = PERSON_AND_ORGANIZATION ( #23, #151 ) ;
#117 = DATE_AND_TIME ( #161, #120 ) ;
#118 = APPROVAL_DATE_TIME ( #115, #8 ) ;
#119 = EDGE_CURVE ( 'NONE', #97, #54, #75, .T. ) ;
#120 = LOCAL_TIME ( 1, 39, 30.00000000000000000, #21 ) ;
#121 = APPROVAL_DATE_TIME ( #63, #123 ) ;
#122 = ORIENTED_EDGE ( 'NONE', *, *, #92, .T. ) ;
#123 = APPROVAL ( #173, 'UNSPECIFIED' ) ;
#124 = FACE_OUTER_BOUND ( 'NONE', #32, .T. ) ;
#125 = PLANE ( 'NONE',  #81 ) ;
#126 = UNCERTAINTY_MEASURE_WITH_UNIT (LENGTH_MEASURE( 1.000000000000000082E-05 ), #1, 'distance_accuracy_value', 'NONE');
#127 = FACE_OUTER_BOUND ( 'NONE', #154, .T. ) ;
#128 = AXIS2_PLACEMENT_3D ( 'NONE', #157, #98, #114 ) ;
#129 = EDGE_LOOP ( 'NONE', ( #18, #71 ) ) ;
#130 = LOCAL_TIME ( 1, 39, 30.00000000000000000, #160 ) ;
#131 = APPROVAL_DATE_TIME ( #68, #111 ) ;
#132 = PERSON_AND_ORGANIZATION ( #23, #151 ) ;
#133 = PERSON_AND_ORGANIZATION_ROLE ( 'design_owner' ) ;
#134 = VECTOR ( 'NONE', #19, 39.37007874015748143 ) ;
#135 = COORDINATED_UNIVERSAL_TIME_OFFSET ( 1, 0, .AHEAD. ) ;
#136 = EDGE_LOOP ( 'NONE', ( #15, #40, #26, #56 ) ) ;
#137 = CARTESIAN_POINT ( 'NONE',  ( 0.000000000000000000, 2.574803149606299080, 0.000000000000000000 ) ) ;
#138 = ORIENTED_EDGE ( 'NONE', *, *, #171, .F. ) ;
#139 = DIRECTION ( 'NONE',  ( -0.000000000000000000, -1.000000000000000000, -0.000000000000000000 ) ) ;
#140 = CYLINDRICAL_SURFACE ( 'NONE', #175, 0.3661417322834646382 ) ;
#141 = AXIS2_PLACEMENT_3D ( 'NONE', #72, #142, #45 ) ;
#142 = DIRECTION ( 'NONE',  ( 0.000000000000000000, 1.000000000000000000, 0.000000000000000000 ) ) ;
#143 = LOCAL_TIME ( 1, 39, 30.00000000000000000, #148 ) ;
#144 = PRODUCT_DEFINITION_SHAPE ( 'NONE', 'NONE',  #13 ) ;
#145 = PERSON_AND_ORGANIZATION ( #23, #151 ) ;
#146 = CC_DESIGN_DATE_AND_TIME_ASSIGNMENT ( #117, #14, ( #13 ) ) ;
#147 = DIRECTION ( 'NONE',  ( 1.000000000000000000, 0.000000000000000000, 0.000000000000000000 ) ) ;
#148 = COORDINATED_UNIVERSAL_TIME_OFFSET ( 1, 0, .AHEAD. ) ;
#149 = APPLICATION_PROTOCOL_DEFINITION ( 'international standard', 'config_control_design', 1994, #41 ) ;
#150 = EDGE_CURVE ( 'NONE', #107, #166, #57, .T. ) ;
#151 = ORGANIZATION ( 'UNSPECIFIED', 'UNSPECIFIED', '' ) ;
#152 = PRODUCT_RELATED_PRODUCT_CATEGORY ( 'detail', '', ( #159 ) ) ;
#153 = CARTESIAN_POINT ( 'NONE',  ( 0.000000000000000000, 2.574803149606299080, 0.000000000000000000 ) ) ;
#154 = EDGE_LOOP ( 'NONE', ( #86, #42 ) ) ;
#155 = DIRECTION ( 'NONE',  ( 0.000000000000000000, 0.000000000000000000, 1.000000000000000000 ) ) ;
#156 = DIRECTION ( 'NONE',  ( 0.000000000000000000, 0.000000000000000000, -1.000000000000000000 ) ) ;
#157 = CARTESIAN_POINT ( 'NONE',  ( 0.000000000000000000, 0.000000000000000000, 0.000000000000000000 ) ) ;
#158 = MECHANICAL_CONTEXT ( 'NONE', #41, 'mechanical' ) ;
#159 = PRODUCT ( 'REF_18650_Cell', 'REF_18650_Cell', '', ( #158 ) ) ;
#160 = COORDINATED_UNIVERSAL_TIME_OFFSET ( 1, 0, .AHEAD. ) ;
#161 = CALENDAR_DATE ( 2026, 10, 8 ) ;
#162 = AXIS2_PLACEMENT_3D ( 'NONE', #113, #87, #83 ) ;
#163 = CC_DESIGN_APPROVAL ( #111, ( #13 ) ) ;
#164 =( GEOMETRIC_REPRESENTATION_CONTEXT ( 3 ) GLOBAL_UNCERTAINTY_ASSIGNED_CONTEXT ( ( #126 ) ) GLOBAL_UNIT_ASSIGNED_CONTEXT ( ( #1, #5, #7 ) ) REPRESENTATION_CONTEXT ( 'NONE', 'WORKASPACE' ) );
#165 = DIRECTION ( 'NONE',  ( 0.000000000000000000, 0.000000000000000000, 1.000000000000000000 ) ) ;
#166 = VERTEX_POINT ( 'NONE', #33 ) ;
#167 = AXIS2_PLACEMENT_3D ( 'NONE', #137, #109, #156 ) ;
#168 = CC_DESIGN_SECURITY_CLASSIFICATION ( #27, ( #44 ) ) ;
#169 = PLANE ( 'NONE',  #128 ) ;
#170 = DIRECTION ( 'NONE',  ( 0.000000000000000000, -0.000000000000000000, 1.000000000000000000 ) ) ;
#171 = EDGE_CURVE ( 'NONE', #107, #54, #36, .T. ) ;
#172 = CARTESIAN_POINT ( 'NONE',  ( 0.000000000000000000, 0.000000000000000000, -0.3661417322834646382 ) ) ;
#173 = APPROVAL_STATUS ( 'not_yet_approved' ) ;
#174 = CARTESIAN_POINT ( 'NONE',  ( 0.000000000000000000, 0.000000000000000000, 0.000000000000000000 ) ) ;
#175 = AXIS2_PLACEMENT_3D ( 'NONE', #84, #139, #17 ) ;
#176 = SHAPE_DEFINITION_REPRESENTATION ( #144, #105 ) ;
#177 = EDGE_CURVE ( 'NONE', #54, #97, #28, .T. ) ;
#178 = APPROVAL_ROLE ( '' ) ;
ENDSEC;
END-ISO-10303-21;
