ISO-10303-21;
HEADER;
FILE_DESCRIPTION (( 'STEP AP203' ),
    '1' );
FILE_NAME ('REF_AS5600_PCB.STEP',
    '2026-08-10T00:39:24',
    ( '' ),
    ( '' ),
    'SwSTEP 2.0',
    'SolidWorks 2026',
    '' );
FILE_SCHEMA (( 'CONFIG_CONTROL_DESIGN' ));
ENDSEC;

DATA;
#1 = FACE_OUTER_BOUND ( 'NONE', #29, .T. ) ;
#2 = AXIS2_PLACEMENT_3D ( 'NONE', #204, #219, #114 ) ;
#3 = CALENDAR_DATE ( 2026, 10, 8 ) ;
#4 = CLOSED_SHELL ( 'NONE', ( #138, #73, #188, #108, #153, #168 ) ) ;
#5 = ADVANCED_BREP_SHAPE_REPRESENTATION ( 'REF_AS5600_PCB', ( #105, #136 ), #220 ) ;
#6 = DATE_TIME_ROLE ( 'creation_date' ) ;
#7 = CC_DESIGN_PERSON_AND_ORGANIZATION_ASSIGNMENT ( #86, #38, ( #92 ) ) ;
#8 = PERSON_AND_ORGANIZATION ( #145, #190 ) ;
#9 = PERSON_AND_ORGANIZATION ( #145, #190 ) ;
#10 = FACE_OUTER_BOUND ( 'NONE', #62, .T. ) ;
#11 = EDGE_CURVE ( 'NONE', #181, #200, #45, .T. ) ;
#12 = ORIENTED_EDGE ( 'NONE', *, *, #115, .F. ) ;
#13 = LINE ( 'NONE', #30, #65 ) ;
#14 = APPROVAL_PERSON_ORGANIZATION ( #224, #174, #59 ) ;
#15 = ORIENTED_EDGE ( 'NONE', *, *, #106, .T. ) ;
#16 = CARTESIAN_POINT ( 'NONE',  ( -0.4527559055118110520, 0.06299212598425196763, -0.4527559055118110520 ) ) ;
#17 = DIRECTION ( 'NONE',  ( 0.000000000000000000, 0.000000000000000000, 1.000000000000000000 ) ) ;
#18 = EDGE_CURVE ( 'NONE', #226, #180, #13, .T. ) ;
#19 = LINE ( 'NONE', #147, #40 ) ;
#20 = DIRECTION ( 'NONE',  ( 1.000000000000000000, -0.000000000000000000, 0.000000000000000000 ) ) ;
#21 = FACE_OUTER_BOUND ( 'NONE', #215, .T. ) ;
#22 = CALENDAR_DATE ( 2026, 10, 8 ) ;
#23 = VERTEX_POINT ( 'NONE', #63 ) ;
#24 = DATE_TIME_ROLE ( 'classification_date' ) ;
#25 = VECTOR ( 'NONE', #143, 39.37007874015748143 ) ;
#26 = CARTESIAN_POINT ( 'NONE',  ( -0.4527559055118110520, 0.06299212598425196763, 0.4527559055118110520 ) ) ;
#27 = EDGE_CURVE ( 'NONE', #180, #181, #230, .T. ) ;
#28 = LINE ( 'NONE', #216, #33 ) ;
#29 = EDGE_LOOP ( 'NONE', ( #48, #12, #122, #85 ) ) ;
#30 = CARTESIAN_POINT ( 'NONE',  ( -0.4527559055118110520, 0.000000000000000000, 0.4527559055118110520 ) ) ;
#31 = ORIENTED_EDGE ( 'NONE', *, *, #158, .T. ) ;
#32 = PLANE ( 'NONE',  #164 ) ;
#33 = VECTOR ( 'NONE', #194, 39.37007874015748143 ) ;
#34 = PRODUCT_DEFINITION ( 'UNKNOWN', '', #92, #64 ) ;
#35 = CARTESIAN_POINT ( 'NONE',  ( -0.4527559055118110520, 0.06299212598425196763, 0.4527559055118110520 ) ) ;
#36 = PLANE ( 'NONE',  #39 ) ;
#37 = FACE_OUTER_BOUND ( 'NONE', #227, .T. ) ;
#38 = PERSON_AND_ORGANIZATION_ROLE ( 'design_supplier' ) ;
#39 = AXIS2_PLACEMENT_3D ( 'NONE', #144, #185, #54 ) ;
#40 = VECTOR ( 'NONE', #167, 39.37007874015748143 ) ;
#41 = DATE_AND_TIME ( #134, #203 ) ;
#42 = DATE_AND_TIME ( #173, #148 ) ;
#43 = ORIENTED_EDGE ( 'NONE', *, *, #11, .F. ) ;
#44 = AXIS2_PLACEMENT_3D ( 'NONE', #35, #20, #113 ) ;
#45 = LINE ( 'NONE', #71, #232 ) ;
#46 = CC_DESIGN_PERSON_AND_ORGANIZATION_ASSIGNMENT ( #155, #57, ( #92 ) ) ;
#47 = ORIENTED_EDGE ( 'NONE', *, *, #106, .F. ) ;
#48 = ORIENTED_EDGE ( 'NONE', *, *, #27, .T. ) ;
#49 = EDGE_LOOP ( 'NONE', ( #109, #110, #160, #156 ) ) ;
#50 = VERTEX_POINT ( 'NONE', #16 ) ;
#51 =( LENGTH_UNIT ( ) NAMED_UNIT ( * ) SI_UNIT ( $, .METRE. ) );
#52 = EDGE_CURVE ( 'NONE', #124, #165, #28, .T. ) ;
#53 = PLANE ( 'NONE',  #2 ) ;
#54 = DIRECTION ( 'NONE',  ( 0.000000000000000000, -0.000000000000000000, -1.000000000000000000 ) ) ;
#55 = LOCAL_TIME ( 1, 39, 24.00000000000000000, #119 ) ;
#56 = DIRECTION ( 'NONE',  ( -1.000000000000000000, 0.000000000000000000, 0.000000000000000000 ) ) ;
#57 = PERSON_AND_ORGANIZATION_ROLE ( 'creator' ) ;
#58 = EDGE_CURVE ( 'NONE', #124, #226, #195, .T. ) ;
#59 = APPROVAL_ROLE ( '' ) ;
#60 = PRODUCT_RELATED_PRODUCT_CATEGORY ( 'detail', '', ( #76 ) ) ;
#61 = DATE_AND_TIME ( #187, #140 ) ;
#62 = EDGE_LOOP ( 'NONE', ( #88, #120, #183, #94 ) ) ;
#63 = CARTESIAN_POINT ( 'NONE',  ( 0.4527559055118110520, 0.06299212598425196763, -0.4527559055118110520 ) ) ;
#64 = DESIGN_CONTEXT ( 'detailed design', #240, 'design' ) ;
#65 = VECTOR ( 'NONE', #90, 39.37007874015748143 ) ;
#66 = ORIENTED_EDGE ( 'NONE', *, *, #58, .F. ) ;
#67 = SECURITY_CLASSIFICATION ( '', '', #84 ) ;
#68 = EDGE_CURVE ( 'NONE', #23, #50, #161, .T. ) ;
#69 = DIRECTION ( 'NONE',  ( -1.000000000000000000, -0.000000000000000000, -0.000000000000000000 ) ) ;
#70 = DIRECTION ( 'NONE',  ( -0.000000000000000000, -0.000000000000000000, 1.000000000000000000 ) ) ;
#71 = CARTESIAN_POINT ( 'NONE',  ( -0.4527559055118110520, 0.000000000000000000, -0.4527559055118110520 ) ) ;
#72 = CARTESIAN_POINT ( 'NONE',  ( 0.4527559055118110520, 0.000000000000000000, -0.4527559055118110520 ) ) ;
#73 = ADVANCED_FACE ( 'NONE', ( #107 ), #178, .F. ) ;
#74 = DIRECTION ( 'NONE',  ( 0.000000000000000000, 0.000000000000000000, 1.000000000000000000 ) ) ;
#75 = CARTESIAN_POINT ( 'NONE',  ( 0.4527559055118110520, 0.06299212598425196763, 0.4527559055118110520 ) ) ;
#76 = PRODUCT ( 'REF_AS5600_PCB', 'REF_AS5600_PCB', '', ( #100 ) ) ;
#77 = LINE ( 'NONE', #126, #163 ) ;
#78 = APPROVAL_PERSON_ORGANIZATION ( #132, #82, #117 ) ;
#79 = CARTESIAN_POINT ( 'NONE',  ( -0.4527559055118110520, 0.000000000000000000, 0.4527559055118110520 ) ) ;
#80 = COORDINATED_UNIVERSAL_TIME_OFFSET ( 1, 0, .AHEAD. ) ;
#81 = CC_DESIGN_PERSON_AND_ORGANIZATION_ASSIGNMENT ( #9, #154, ( #76 ) ) ;
#82 = APPROVAL ( #206, 'UNSPECIFIED' ) ;
#83 = DIRECTION ( 'NONE',  ( 1.000000000000000000, 0.000000000000000000, 0.000000000000000000 ) ) ;
#84 = SECURITY_CLASSIFICATION_LEVEL ( 'unclassified' ) ;
#85 = ORIENTED_EDGE ( 'NONE', *, *, #205, .T. ) ;
#86 = PERSON_AND_ORGANIZATION ( #145, #190 ) ;
#87 = PLANE ( 'NONE',  #222 ) ;
#88 = ORIENTED_EDGE ( 'NONE', *, *, #11, .T. ) ;
#89 = CC_DESIGN_DATE_AND_TIME_ASSIGNMENT ( #61, #6, ( #34 ) ) ;
#90 = DIRECTION ( 'NONE',  ( 1.000000000000000000, 0.000000000000000000, 0.000000000000000000 ) ) ;
#91 = DIMENSIONAL_EXPONENTS ( 1.000000000000000000, 0.000000000000000000, 0.000000000000000000, 0.000000000000000000, 0.000000000000000000, 0.000000000000000000, 0.000000000000000000 ) ;
#92 = PRODUCT_DEFINITION_FORMATION_WITH_SPECIFIED_SOURCE ( 'ANY', '', #76, .NOT_KNOWN. ) ;
#93 = CC_DESIGN_PERSON_AND_ORGANIZATION_ASSIGNMENT ( #208, #207, ( #67 ) ) ;
#94 = ORIENTED_EDGE ( 'NONE', *, *, #115, .T. ) ;
#95 = ORIENTED_EDGE ( 'NONE', *, *, #18, .F. ) ;
#96 = VECTOR ( 'NONE', #70, 39.37007874015748143 ) ;
#97 = CARTESIAN_POINT ( 'NONE',  ( -0.4527559055118110520, 0.000000000000000000, -0.4527559055118110520 ) ) ;
#98 = DIRECTION ( 'NONE',  ( -0.000000000000000000, -1.000000000000000000, -0.000000000000000000 ) ) ;
#99 = LINE ( 'NONE', #128, #199 ) ;
#100 = MECHANICAL_CONTEXT ( 'NONE', #234, 'mechanical' ) ;
#101 = CC_DESIGN_APPROVAL ( #82, ( #67 ) ) ;
#102 = APPLICATION_PROTOCOL_DEFINITION ( 'international standard', 'config_control_design', 1994, #240 ) ;
#103 = SHAPE_DEFINITION_REPRESENTATION ( #235, #5 ) ;
#104 = CARTESIAN_POINT ( 'NONE',  ( -0.4527559055118110520, 0.06299212598425196763, 0.4527559055118110520 ) ) ;
#105 = MANIFOLD_SOLID_BREP ( 'Plate_Extrude', #4 ) ;
#106 = EDGE_CURVE ( 'NONE', #200, #226, #123, .T. ) ;
#107 = FACE_OUTER_BOUND ( 'NONE', #49, .T. ) ;
#108 = ADVANCED_FACE ( 'NONE', ( #10 ), #87, .F. ) ;
#109 = ORIENTED_EDGE ( 'NONE', *, *, #18, .T. ) ;
#110 = ORIENTED_EDGE ( 'NONE', *, *, #205, .F. ) ;
#111 = DIRECTION ( 'NONE',  ( -1.000000000000000000, -0.000000000000000000, -0.000000000000000000 ) ) ;
#112 = FACE_OUTER_BOUND ( 'NONE', #196, .T. ) ;
#113 = DIRECTION ( 'NONE',  ( 0.000000000000000000, 0.000000000000000000, -1.000000000000000000 ) ) ;
#114 = DIRECTION ( 'NONE',  ( 0.000000000000000000, -0.000000000000000000, -1.000000000000000000 ) ) ;
#115 = EDGE_CURVE ( 'NONE', #23, #181, #77, .T. ) ;
#116 = APPROVAL_ROLE ( '' ) ;
#117 = APPROVAL_ROLE ( '' ) ;
#118 = CC_DESIGN_APPROVAL ( #174, ( #34 ) ) ;
#119 = COORDINATED_UNIVERSAL_TIME_OFFSET ( 1, 0, .AHEAD. ) ;
#120 = ORIENTED_EDGE ( 'NONE', *, *, #212, .F. ) ;
#121 = ORIENTED_EDGE ( 'NONE', *, *, #68, .T. ) ;
#122 = ORIENTED_EDGE ( 'NONE', *, *, #158, .F. ) ;
#123 = LINE ( 'NONE', #177, #96 ) ;
#124 = VERTEX_POINT ( 'NONE', #170 ) ;
#125 =( CONVERSION_BASED_UNIT ( 'INCH', #236 ) LENGTH_UNIT ( ) NAMED_UNIT ( #91 ) );
#126 = CARTESIAN_POINT ( 'NONE',  ( 0.4527559055118110520, 0.06299212598425196763, -0.4527559055118110520 ) ) ;
#127 = CC_DESIGN_PERSON_AND_ORGANIZATION_ASSIGNMENT ( #189, #133, ( #34 ) ) ;
#128 = CARTESIAN_POINT ( 'NONE',  ( 0.4527559055118110520, 0.06299212598425196763, 0.4527559055118110520 ) ) ;
#129 = CC_DESIGN_SECURITY_CLASSIFICATION ( #67, ( #92 ) ) ;
#130 = CC_DESIGN_DATE_AND_TIME_ASSIGNMENT ( #42, #24, ( #67 ) ) ;
#131 = LINE ( 'NONE', #202, #218 ) ;
#132 = PERSON_AND_ORGANIZATION ( #145, #190 ) ;
#133 = PERSON_AND_ORGANIZATION_ROLE ( 'creator' ) ;
#134 = CALENDAR_DATE ( 2026, 10, 8 ) ;
#135 = DATE_AND_TIME ( #3, #209 ) ;
#136 = AXIS2_PLACEMENT_3D ( 'NONE', #171, #74, #83 ) ;
#137 = DIRECTION ( 'NONE',  ( 0.000000000000000000, 0.000000000000000000, 1.000000000000000000 ) ) ;
#138 = ADVANCED_FACE ( 'NONE', ( #112 ), #186, .F. ) ;
#139 = ORIENTED_EDGE ( 'NONE', *, *, #238, .F. ) ;
#140 = LOCAL_TIME ( 1, 39, 24.00000000000000000, #223 ) ;
#141 = DIRECTION ( 'NONE',  ( 0.000000000000000000, 0.000000000000000000, -1.000000000000000000 ) ) ;
#142 = CARTESIAN_POINT ( 'NONE',  ( 0.4527559055118110520, 0.000000000000000000, 0.4527559055118110520 ) ) ;
#143 = DIRECTION ( 'NONE',  ( 0.000000000000000000, 0.000000000000000000, -1.000000000000000000 ) ) ;
#144 = CARTESIAN_POINT ( 'NONE',  ( 0.000000000000000000, 0.000000000000000000, 0.000000000000000000 ) ) ;
#145 = PERSON ( 'UNSPECIFIED', 'UNSPECIFIED', 'UNSPECIFIED', ('UNSPECIFIED'), ('UNSPECIFIED'), ('UNSPECIFIED') ) ;
#146 =( NAMED_UNIT ( * ) SI_UNIT ( $, .STERADIAN. ) SOLID_ANGLE_UNIT ( ) );
#147 = CARTESIAN_POINT ( 'NONE',  ( -0.4527559055118110520, 0.06299212598425196763, 0.4527559055118110520 ) ) ;
#148 = LOCAL_TIME ( 1, 39, 24.00000000000000000, #225 ) ;
#149 = CARTESIAN_POINT ( 'NONE',  ( 0.4527559055118110520, 0.06299212598425196763, 0.4527559055118110520 ) ) ;
#150 = DIRECTION ( 'NONE',  ( -0.000000000000000000, -1.000000000000000000, -0.000000000000000000 ) ) ;
#151 = COORDINATED_UNIVERSAL_TIME_OFFSET ( 1, 0, .AHEAD. ) ;
#152 = APPROVAL_DATE_TIME ( #41, #174 ) ;
#153 = ADVANCED_FACE ( 'NONE', ( #37 ), #53, .F. ) ;
#154 = PERSON_AND_ORGANIZATION_ROLE ( 'design_owner' ) ;
#155 = PERSON_AND_ORGANIZATION ( #145, #190 ) ;
#156 = ORIENTED_EDGE ( 'NONE', *, *, #58, .T. ) ;
#157 = DATE_AND_TIME ( #22, #55 ) ;
#158 = EDGE_CURVE ( 'NONE', #165, #23, #99, .T. ) ;
#159 = CARTESIAN_POINT ( 'NONE',  ( -0.4527559055118110520, 0.06299212598425196763, -0.4527559055118110520 ) ) ;
#160 = ORIENTED_EDGE ( 'NONE', *, *, #52, .F. ) ;
#161 = LINE ( 'NONE', #162, #172 ) ;
#162 = CARTESIAN_POINT ( 'NONE',  ( -0.4527559055118110520, 0.06299212598425196763, -0.4527559055118110520 ) ) ;
#163 = VECTOR ( 'NONE', #98, 39.37007874015748143 ) ;
#164 = AXIS2_PLACEMENT_3D ( 'NONE', #149, #56, #17 ) ;
#165 = VERTEX_POINT ( 'NONE', #75 ) ;
#166 = VECTOR ( 'NONE', #233, 39.37007874015748143 ) ;
#167 = DIRECTION ( 'NONE',  ( -0.000000000000000000, -0.000000000000000000, 1.000000000000000000 ) ) ;
#168 = ADVANCED_FACE ( 'NONE', ( #21 ), #36, .T. ) ;
#169 = DIRECTION ( 'NONE',  ( -0.000000000000000000, -1.000000000000000000, -0.000000000000000000 ) ) ;
#170 = CARTESIAN_POINT ( 'NONE',  ( -0.4527559055118110520, 0.06299212598425196763, 0.4527559055118110520 ) ) ;
#171 = CARTESIAN_POINT ( 'NONE',  ( 0.000000000000000000, 0.000000000000000000, 0.000000000000000000 ) ) ;
#172 = VECTOR ( 'NONE', #69, 39.37007874015748143 ) ;
#173 = CALENDAR_DATE ( 2026, 10, 8 ) ;
#174 = APPROVAL ( #175, 'UNSPECIFIED' ) ;
#175 = APPROVAL_STATUS ( 'not_yet_approved' ) ;
#176 = APPROVAL_DATE_TIME ( #135, #179 ) ;
#177 = CARTESIAN_POINT ( 'NONE',  ( -0.4527559055118110520, 0.000000000000000000, 0.4527559055118110520 ) ) ;
#178 = PLANE ( 'NONE',  #193 ) ;
#179 = APPROVAL ( #210, 'UNSPECIFIED' ) ;
#180 = VERTEX_POINT ( 'NONE', #239 ) ;
#181 = VERTEX_POINT ( 'NONE', #72 ) ;
#182 = CC_DESIGN_APPROVAL ( #179, ( #92 ) ) ;
#183 = ORIENTED_EDGE ( 'NONE', *, *, #68, .F. ) ;
#184 = DIRECTION ( 'NONE',  ( 0.000000000000000000, 0.000000000000000000, -1.000000000000000000 ) ) ;
#185 = DIRECTION ( 'NONE',  ( 0.000000000000000000, -1.000000000000000000, 0.000000000000000000 ) ) ;
#186 = PLANE ( 'NONE',  #44 ) ;
#187 = CALENDAR_DATE ( 2026, 10, 8 ) ;
#188 = ADVANCED_FACE ( 'NONE', ( #1 ), #32, .F. ) ;
#189 = PERSON_AND_ORGANIZATION ( #145, #190 ) ;
#190 = ORGANIZATION ( 'UNSPECIFIED', 'UNSPECIFIED', '' ) ;
#191 = APPROVAL_DATE_TIME ( #157, #82 ) ;
#192 = VECTOR ( 'NONE', #169, 39.37007874015748143 ) ;
#193 = AXIS2_PLACEMENT_3D ( 'NONE', #104, #141, #231 ) ;
#194 = DIRECTION ( 'NONE',  ( 1.000000000000000000, 0.000000000000000000, 0.000000000000000000 ) ) ;
#195 = LINE ( 'NONE', #26, #166 ) ;
#196 = EDGE_LOOP ( 'NONE', ( #15, #66, #139, #228 ) ) ;
#197 = UNCERTAINTY_MEASURE_WITH_UNIT (LENGTH_MEASURE( 1.000000000000000082E-05 ), #125, 'distance_accuracy_value', 'NONE');
#198 = ORIENTED_EDGE ( 'NONE', *, *, #27, .F. ) ;
#199 = VECTOR ( 'NONE', #184, 39.37007874015748143 ) ;
#200 = VERTEX_POINT ( 'NONE', #97 ) ;
#201 = CARTESIAN_POINT ( 'NONE',  ( 0.4527559055118110520, 0.06299212598425196763, 0.4527559055118110520 ) ) ;
#202 = CARTESIAN_POINT ( 'NONE',  ( -0.4527559055118110520, 0.06299212598425196763, -0.4527559055118110520 ) ) ;
#203 = LOCAL_TIME ( 1, 39, 24.00000000000000000, #80 ) ;
#204 = CARTESIAN_POINT ( 'NONE',  ( 0.000000000000000000, 0.06299212598425196763, 0.000000000000000000 ) ) ;
#205 = EDGE_CURVE ( 'NONE', #165, #180, #217, .T. ) ;
#206 = APPROVAL_STATUS ( 'not_yet_approved' ) ;
#207 = PERSON_AND_ORGANIZATION_ROLE ( 'classification_officer' ) ;
#208 = PERSON_AND_ORGANIZATION ( #145, #190 ) ;
#209 = LOCAL_TIME ( 1, 39, 24.00000000000000000, #151 ) ;
#210 = APPROVAL_STATUS ( 'not_yet_approved' ) ;
#211 = DIRECTION ( 'NONE',  ( 1.000000000000000000, 0.000000000000000000, -0.000000000000000000 ) ) ;
#212 = EDGE_CURVE ( 'NONE', #50, #200, #131, .T. ) ;
#213 = ORIENTED_EDGE ( 'NONE', *, *, #52, .T. ) ;
#214 = ORIENTED_EDGE ( 'NONE', *, *, #238, .T. ) ;
#215 = EDGE_LOOP ( 'NONE', ( #47, #43, #198, #95 ) ) ;
#216 = CARTESIAN_POINT ( 'NONE',  ( -0.4527559055118110520, 0.06299212598425196763, 0.4527559055118110520 ) ) ;
#217 = LINE ( 'NONE', #201, #192 ) ;
#218 = VECTOR ( 'NONE', #150, 39.37007874015748143 ) ;
#219 = DIRECTION ( 'NONE',  ( 0.000000000000000000, -1.000000000000000000, 0.000000000000000000 ) ) ;
#220 =( GEOMETRIC_REPRESENTATION_CONTEXT ( 3 ) GLOBAL_UNCERTAINTY_ASSIGNED_CONTEXT ( ( #197 ) ) GLOBAL_UNIT_ASSIGNED_CONTEXT ( ( #125, #221, #146 ) ) REPRESENTATION_CONTEXT ( 'NONE', 'WORKASPACE' ) );
#221 =( NAMED_UNIT ( * ) PLANE_ANGLE_UNIT ( ) SI_UNIT ( $, .RADIAN. ) );
#222 = AXIS2_PLACEMENT_3D ( 'NONE', #159, #137, #211 ) ;
#223 = COORDINATED_UNIVERSAL_TIME_OFFSET ( 1, 0, .AHEAD. ) ;
#224 = PERSON_AND_ORGANIZATION ( #145, #190 ) ;
#225 = COORDINATED_UNIVERSAL_TIME_OFFSET ( 1, 0, .AHEAD. ) ;
#226 = VERTEX_POINT ( 'NONE', #79 ) ;
#227 = EDGE_LOOP ( 'NONE', ( #214, #213, #31, #121 ) ) ;
#228 = ORIENTED_EDGE ( 'NONE', *, *, #212, .T. ) ;
#229 = APPROVAL_PERSON_ORGANIZATION ( #8, #179, #116 ) ;
#230 = LINE ( 'NONE', #142, #25 ) ;
#231 = DIRECTION ( 'NONE',  ( -1.000000000000000000, 0.000000000000000000, -0.000000000000000000 ) ) ;
#232 = VECTOR ( 'NONE', #111, 39.37007874015748143 ) ;
#233 = DIRECTION ( 'NONE',  ( -0.000000000000000000, -1.000000000000000000, -0.000000000000000000 ) ) ;
#234 = APPLICATION_CONTEXT ( 'configuration controlled 3d designs of mechanical parts and assemblies' ) ;
#235 = PRODUCT_DEFINITION_SHAPE ( 'NONE', 'NONE',  #34 ) ;
#236 = LENGTH_MEASURE_WITH_UNIT ( LENGTH_MEASURE( 0.02539999999999999897 ), #51 );
#237 = APPLICATION_PROTOCOL_DEFINITION ( 'international standard', 'config_control_design', 1994, #234 ) ;
#238 = EDGE_CURVE ( 'NONE', #50, #124, #19, .T. ) ;
#239 = CARTESIAN_POINT ( 'NONE',  ( 0.4527559055118110520, 0.000000000000000000, 0.4527559055118110520 ) ) ;
#240 = APPLICATION_CONTEXT ( 'configuration controlled 3d designs of mechanical parts and assemblies' ) ;
ENDSEC;
END-ISO-10303-21;
