ISO-10303-21;
HEADER;
FILE_DESCRIPTION (( 'STEP AP203' ),
    '1' );
FILE_NAME ('REF_6204_2RS_Bearing.STEP',
    '2026-08-10T00:39:19',
    ( '' ),
    ( '' ),
    'SwSTEP 2.0',
    'SolidWorks 2026',
    '' );
FILE_SCHEMA (( 'CONFIG_CONTROL_DESIGN' ));
ENDSEC;

DATA;
#1 = ORIENTED_EDGE ( 'NONE', *, *, #8, .F. ) ;
#2 = DATE_AND_TIME ( #232, #68 ) ;
#3 = VERTEX_POINT ( 'NONE', #26 ) ;
#4 = DIRECTION ( 'NONE',  ( -0.000000000000000000, -1.000000000000000000, -0.000000000000000000 ) ) ;
#5 = EDGE_CURVE ( 'NONE', #233, #251, #203, .T. ) ;
#6 = FACE_OUTER_BOUND ( 'NONE', #144, .T. ) ;
#7 = CIRCLE ( 'NONE', #152, 0.9251968503937009203 ) ;
#8 = EDGE_CURVE ( 'NONE', #18, #3, #207, .T. ) ;
#9 = EDGE_LOOP ( 'NONE', ( #133, #213 ) ) ;
#10 = DIRECTION ( 'NONE',  ( -0.000000000000000000, -1.000000000000000000, -0.000000000000000000 ) ) ;
#11 = UNCERTAINTY_MEASURE_WITH_UNIT (LENGTH_MEASURE( 1.000000000000000082E-05 ), #147, 'distance_accuracy_value', 'NONE');
#12 = CYLINDRICAL_SURFACE ( 'NONE', #49, 0.3937007874015748254 ) ;
#13 = APPLICATION_CONTEXT ( 'configuration controlled 3d designs of mechanical parts and assemblies' ) ;
#14 = CARTESIAN_POINT ( 'NONE',  ( 0.000000000000000000, 0.5511811023622047445, 0.000000000000000000 ) ) ;
#15 =( NAMED_UNIT ( * ) PLANE_ANGLE_UNIT ( ) SI_UNIT ( $, .RADIAN. ) );
#16 = DIRECTION ( 'NONE',  ( 0.000000000000000000, 0.000000000000000000, 1.000000000000000000 ) ) ;
#17 = CALENDAR_DATE ( 2026, 10, 8 ) ;
#18 = VERTEX_POINT ( 'NONE', #154 ) ;
#19 = COORDINATED_UNIVERSAL_TIME_OFFSET ( 1, 0, .AHEAD. ) ;
#20 = CALENDAR_DATE ( 2026, 10, 8 ) ;
#21 = CARTESIAN_POINT ( 'NONE',  ( 0.000000000000000000, 0.5511811023622047445, 0.000000000000000000 ) ) ;
#22 = DIRECTION ( 'NONE',  ( 0.000000000000000000, 1.000000000000000000, 0.000000000000000000 ) ) ;
#23 = PERSON_AND_ORGANIZATION_ROLE ( 'design_supplier' ) ;
#24 = FACE_OUTER_BOUND ( 'NONE', #116, .T. ) ;
#25 = DIMENSIONAL_EXPONENTS ( 1.000000000000000000, 0.000000000000000000, 0.000000000000000000, 0.000000000000000000, 0.000000000000000000, 0.000000000000000000, 0.000000000000000000 ) ;
#26 = CARTESIAN_POINT ( 'NONE',  ( 4.821444091131312140E-17, 0.5511811023622047445, 0.3937007874015748254 ) ) ;
#27 = CIRCLE ( 'NONE', #206, 0.3937007874015748254 ) ;
#28 = APPLICATION_CONTEXT ( 'configuration controlled 3d designs of mechanical parts and assemblies' ) ;
#29 = DESIGN_CONTEXT ( 'detailed design', #28, 'design' ) ;
#30 = CIRCLE ( 'NONE', #75, 0.9251968503937009203 ) ;
#31 = EDGE_LOOP ( 'NONE', ( #37, #47, #103, #167 ) ) ;
#32 = AXIS2_PLACEMENT_3D ( 'NONE', #223, #86, #197 ) ;
#33 = CARTESIAN_POINT ( 'NONE',  ( 0.000000000000000000, 0.000000000000000000, 0.000000000000000000 ) ) ;
#34 = CARTESIAN_POINT ( 'NONE',  ( 0.000000000000000000, 0.5511811023622047445, 0.000000000000000000 ) ) ;
#35 = CC_DESIGN_APPROVAL ( #158, ( #95 ) ) ;
#36 = PERSON_AND_ORGANIZATION ( #219, #247 ) ;
#37 = ORIENTED_EDGE ( 'NONE', *, *, #8, .T. ) ;
#38 = LINE ( 'NONE', #192, #80 ) ;
#39 = EDGE_CURVE ( 'NONE', #3, #18, #59, .T. ) ;
#40 = CC_DESIGN_PERSON_AND_ORGANIZATION_ASSIGNMENT ( #174, #62, ( #98 ) ) ;
#41 = ORIENTED_EDGE ( 'NONE', *, *, #5, .F. ) ;
#42 = PERSON_AND_ORGANIZATION ( #219, #247 ) ;
#43 = APPROVAL_STATUS ( 'not_yet_approved' ) ;
#44 = FACE_BOUND ( 'NONE', #64, .T. ) ;
#45 = CARTESIAN_POINT ( 'NONE',  ( 0.000000000000000000, 0.000000000000000000, 0.000000000000000000 ) ) ;
#46 =( GEOMETRIC_REPRESENTATION_CONTEXT ( 3 ) GLOBAL_UNCERTAINTY_ASSIGNED_CONTEXT ( ( #11 ) ) GLOBAL_UNIT_ASSIGNED_CONTEXT ( ( #147, #15, #78 ) ) REPRESENTATION_CONTEXT ( 'NONE', 'WORKASPACE' ) );
#47 = ORIENTED_EDGE ( 'NONE', *, *, #244, .T. ) ;
#48 = CYLINDRICAL_SURFACE ( 'NONE', #140, 0.9251968503937009203 ) ;
#49 = AXIS2_PLACEMENT_3D ( 'NONE', #79, #189, #146 ) ;
#50 = CIRCLE ( 'NONE', #184, 0.9251968503937009203 ) ;
#51 = DIRECTION ( 'NONE',  ( 0.000000000000000000, -0.000000000000000000, 1.000000000000000000 ) ) ;
#52 = ADVANCED_FACE ( 'NONE', ( #24 ), #48, .T. ) ;
#53 = DIRECTION ( 'NONE',  ( 0.000000000000000000, 0.000000000000000000, 1.000000000000000000 ) ) ;
#54 = APPROVAL ( #43, 'UNSPECIFIED' ) ;
#55 = APPROVAL ( #178, 'UNSPECIFIED' ) ;
#56 = ADVANCED_FACE ( 'NONE', ( #202 ), #88, .T. ) ;
#57 = LOCAL_TIME ( 1, 39, 19.00000000000000000, #19 ) ;
#58 = CLOSED_SHELL ( 'NONE', ( #128, #56, #82, #77, #52, #231 ) ) ;
#59 = CIRCLE ( 'NONE', #199, 0.3937007874015748254 ) ;
#60 = VECTOR ( 'NONE', #4, 39.37007874015748143 ) ;
#61 = APPROVAL_STATUS ( 'not_yet_approved' ) ;
#62 = PERSON_AND_ORGANIZATION_ROLE ( 'classification_officer' ) ;
#63 = ORIENTED_EDGE ( 'NONE', *, *, #97, .T. ) ;
#64 = EDGE_LOOP ( 'NONE', ( #1, #117 ) ) ;
#65 = COORDINATED_UNIVERSAL_TIME_OFFSET ( 1, 0, .AHEAD. ) ;
#66 = LINE ( 'NONE', #120, #141 ) ;
#67 = DIRECTION ( 'NONE',  ( 0.000000000000000000, 0.000000000000000000, 1.000000000000000000 ) ) ;
#68 = LOCAL_TIME ( 1, 39, 19.00000000000000000, #119 ) ;
#69 = CC_DESIGN_PERSON_AND_ORGANIZATION_ASSIGNMENT ( #129, #163, ( #217 ) ) ;
#70 = ORIENTED_EDGE ( 'NONE', *, *, #168, .F. ) ;
#71 = EDGE_CURVE ( 'NONE', #18, #249, #183, .T. ) ;
#72 = DIRECTION ( 'NONE',  ( -0.000000000000000000, -1.000000000000000000, -0.000000000000000000 ) ) ;
#73 = CC_DESIGN_PERSON_AND_ORGANIZATION_ASSIGNMENT ( #196, #23, ( #85 ) ) ;
#74 = CARTESIAN_POINT ( 'NONE',  ( 0.000000000000000000, 0.5511811023622047445, 0.000000000000000000 ) ) ;
#75 = AXIS2_PLACEMENT_3D ( 'NONE', #34, #112, #53 ) ;
#76 = CARTESIAN_POINT ( 'NONE',  ( 1.133039361415858532E-16, 0.000000000000000000, 0.9251968503937009203 ) ) ;
#77 = ADVANCED_FACE ( 'NONE', ( #122, #200 ), #136, .F. ) ;
#78 =( NAMED_UNIT ( * ) SI_UNIT ( $, .STERADIAN. ) SOLID_ANGLE_UNIT ( ) );
#79 = CARTESIAN_POINT ( 'NONE',  ( 0.000000000000000000, 0.5511811023622047445, 0.000000000000000000 ) ) ;
#80 = VECTOR ( 'NONE', #250, 39.37007874015748143 ) ;
#81 = CARTESIAN_POINT ( 'NONE',  ( 0.000000000000000000, 0.000000000000000000, -0.9251968503937009203 ) ) ;
#82 = ADVANCED_FACE ( 'NONE', ( #6, #44 ), #161, .T. ) ;
#83 = ORIENTED_EDGE ( 'NONE', *, *, #39, .T. ) ;
#84 = SECURITY_CLASSIFICATION_LEVEL ( 'unclassified' ) ;
#85 = PRODUCT_DEFINITION_FORMATION_WITH_SPECIFIED_SOURCE ( 'ANY', '', #217, .NOT_KNOWN. ) ;
#86 = DIRECTION ( 'NONE',  ( -0.000000000000000000, -1.000000000000000000, -0.000000000000000000 ) ) ;
#87 = DIRECTION ( 'NONE',  ( 0.000000000000000000, 1.000000000000000000, 0.000000000000000000 ) ) ;
#88 = CYLINDRICAL_SURFACE ( 'NONE', #32, 0.9251968503937009203 ) ;
#89 = CC_DESIGN_APPROVAL ( #54, ( #85 ) ) ;
#90 = CARTESIAN_POINT ( 'NONE',  ( 0.000000000000000000, 0.5511811023622047445, -0.3937007874015748254 ) ) ;
#91 = CC_DESIGN_DATE_AND_TIME_ASSIGNMENT ( #118, #252, ( #98 ) ) ;
#92 = CARTESIAN_POINT ( 'NONE',  ( 0.000000000000000000, 0.5511811023622047445, 0.000000000000000000 ) ) ;
#93 = LOCAL_TIME ( 1, 39, 19.00000000000000000, #65 ) ;
#94 = CARTESIAN_POINT ( 'NONE',  ( 0.000000000000000000, 0.5511811023622047445, -0.9251968503937009203 ) ) ;
#95 = PRODUCT_DEFINITION ( 'UNKNOWN', '', #85, #29 ) ;
#96 = APPROVAL_ROLE ( '' ) ;
#97 = EDGE_CURVE ( 'NONE', #162, #148, #66, .T. ) ;
#98 = SECURITY_CLASSIFICATION ( '', '', #84 ) ;
#99 =( LENGTH_UNIT ( ) NAMED_UNIT ( * ) SI_UNIT ( $, .METRE. ) );
#100 = ADVANCED_BREP_SHAPE_REPRESENTATION ( 'REF_6204_2RS_Bearing', ( #113, #190 ), #46 ) ;
#101 = APPROVAL_DATE_TIME ( #195, #55 ) ;
#102 = ORIENTED_EDGE ( 'NONE', *, *, #240, .T. ) ;
#103 = ORIENTED_EDGE ( 'NONE', *, *, #138, .F. ) ;
#104 = AXIS2_PLACEMENT_3D ( 'NONE', #187, #237, #51 ) ;
#105 = DIRECTION ( 'NONE',  ( 0.000000000000000000, 0.000000000000000000, 1.000000000000000000 ) ) ;
#106 = COORDINATED_UNIVERSAL_TIME_OFFSET ( 1, 0, .AHEAD. ) ;
#107 = EDGE_LOOP ( 'NONE', ( #143, #102 ) ) ;
#108 = CC_DESIGN_PERSON_AND_ORGANIZATION_ASSIGNMENT ( #42, #175, ( #85 ) ) ;
#109 = DIRECTION ( 'NONE',  ( 0.000000000000000000, 0.000000000000000000, -1.000000000000000000 ) ) ;
#110 = CARTESIAN_POINT ( 'NONE',  ( 0.000000000000000000, 0.5511811023622047445, -0.9251968503937009203 ) ) ;
#111 = DIRECTION ( 'NONE',  ( 1.000000000000000000, 0.000000000000000000, 0.000000000000000000 ) ) ;
#112 = DIRECTION ( 'NONE',  ( 0.000000000000000000, 1.000000000000000000, 0.000000000000000000 ) ) ;
#113 = MANIFOLD_SOLID_BREP ( 'Revolved_Equivalent_Extrude', #58 ) ;
#114 = PERSON_AND_ORGANIZATION ( #219, #247 ) ;
#115 = DIRECTION ( 'NONE',  ( 0.000000000000000000, 0.000000000000000000, 1.000000000000000000 ) ) ;
#116 = EDGE_LOOP ( 'NONE', ( #235, #170, #149, #215 ) ) ;
#117 = ORIENTED_EDGE ( 'NONE', *, *, #39, .F. ) ;
#118 = DATE_AND_TIME ( #20, #93 ) ;
#119 = COORDINATED_UNIVERSAL_TIME_OFFSET ( 1, 0, .AHEAD. ) ;
#120 = CARTESIAN_POINT ( 'NONE',  ( 1.133039361415858532E-16, 0.5511811023622047445, 0.9251968503937009203 ) ) ;
#121 = CC_DESIGN_PERSON_AND_ORGANIZATION_ASSIGNMENT ( #114, #234, ( #95 ) ) ;
#122 = FACE_OUTER_BOUND ( 'NONE', #9, .T. ) ;
#123 = ORIENTED_EDGE ( 'NONE', *, *, #240, .F. ) ;
#124 = EDGE_CURVE ( 'NONE', #251, #148, #212, .T. ) ;
#125 = DIRECTION ( 'NONE',  ( -0.000000000000000000, -1.000000000000000000, -0.000000000000000000 ) ) ;
#126 = DIRECTION ( 'NONE',  ( 0.000000000000000000, -0.000000000000000000, 1.000000000000000000 ) ) ;
#127 = DIRECTION ( 'NONE',  ( 0.000000000000000000, 1.000000000000000000, 0.000000000000000000 ) ) ;
#128 = ADVANCED_FACE ( 'NONE', ( #241 ), #243, .F. ) ;
#129 = PERSON_AND_ORGANIZATION ( #219, #247 ) ;
#130 = COORDINATED_UNIVERSAL_TIME_OFFSET ( 1, 0, .AHEAD. ) ;
#131 = AXIS2_PLACEMENT_3D ( 'NONE', #21, #72, #222 ) ;
#132 = CARTESIAN_POINT ( 'NONE',  ( 4.821444091131312140E-17, 0.000000000000000000, 0.3937007874015748254 ) ) ;
#133 = ORIENTED_EDGE ( 'NONE', *, *, #124, .F. ) ;
#134 = APPROVAL_PERSON_ORGANIZATION ( #198, #55, #135 ) ;
#135 = APPROVAL_ROLE ( '' ) ;
#136 = PLANE ( 'NONE',  #104 ) ;
#137 = LOCAL_TIME ( 1, 39, 19.00000000000000000, #130 ) ;
#138 = EDGE_CURVE ( 'NONE', #249, #150, #242, .T. ) ;
#139 = DIRECTION ( 'NONE',  ( -0.000000000000000000, -1.000000000000000000, -0.000000000000000000 ) ) ;
#140 = AXIS2_PLACEMENT_3D ( 'NONE', #205, #125, #109 ) ;
#141 = VECTOR ( 'NONE', #10, 39.37007874015748143 ) ;
#142 = ORIENTED_EDGE ( 'NONE', *, *, #172, .T. ) ;
#143 = ORIENTED_EDGE ( 'NONE', *, *, #138, .T. ) ;
#144 = EDGE_LOOP ( 'NONE', ( #194, #156 ) ) ;
#145 = DIRECTION ( 'NONE',  ( 0.000000000000000000, 0.000000000000000000, 1.000000000000000000 ) ) ;
#146 = DIRECTION ( 'NONE',  ( 0.000000000000000000, 0.000000000000000000, -1.000000000000000000 ) ) ;
#147 =( CONVERSION_BASED_UNIT ( 'INCH', #246 ) LENGTH_UNIT ( ) NAMED_UNIT ( #25 ) );
#148 = VERTEX_POINT ( 'NONE', #76 ) ;
#149 = ORIENTED_EDGE ( 'NONE', *, *, #5, .T. ) ;
#150 = VERTEX_POINT ( 'NONE', #132 ) ;
#151 = APPROVAL_PERSON_ORGANIZATION ( #36, #158, #96 ) ;
#152 = AXIS2_PLACEMENT_3D ( 'NONE', #33, #228, #145 ) ;
#153 = APPROVAL_DATE_TIME ( #2, #54 ) ;
#154 = CARTESIAN_POINT ( 'NONE',  ( 0.000000000000000000, 0.5511811023622047445, -0.3937007874015748254 ) ) ;
#155 = SHAPE_DEFINITION_REPRESENTATION ( #176, #100 ) ;
#156 = ORIENTED_EDGE ( 'NONE', *, *, #168, .T. ) ;
#157 = CARTESIAN_POINT ( 'NONE',  ( 0.000000000000000000, 0.5511811023622047445, 0.000000000000000000 ) ) ;
#158 = APPROVAL ( #61, 'UNSPECIFIED' ) ;
#159 = AXIS2_PLACEMENT_3D ( 'NONE', #92, #226, #224 ) ;
#160 = AXIS2_PLACEMENT_3D ( 'NONE', #45, #22, #180 ) ;
#161 = PLANE ( 'NONE',  #186 ) ;
#162 = VERTEX_POINT ( 'NONE', #214 ) ;
#163 = PERSON_AND_ORGANIZATION_ROLE ( 'design_owner' ) ;
#164 = CC_DESIGN_SECURITY_CLASSIFICATION ( #98, ( #85 ) ) ;
#165 = CARTESIAN_POINT ( 'NONE',  ( 0.000000000000000000, 0.000000000000000000, 0.000000000000000000 ) ) ;
#166 = DIRECTION ( 'NONE',  ( 0.000000000000000000, 0.000000000000000000, 1.000000000000000000 ) ) ;
#167 = ORIENTED_EDGE ( 'NONE', *, *, #71, .F. ) ;
#168 = EDGE_CURVE ( 'NONE', #162, #233, #50, .T. ) ;
#169 = FACE_OUTER_BOUND ( 'NONE', #236, .T. ) ;
#170 = ORIENTED_EDGE ( 'NONE', *, *, #221, .F. ) ;
#171 = LOCAL_TIME ( 1, 39, 19.00000000000000000, #106 ) ;
#172 = EDGE_CURVE ( 'NONE', #148, #251, #7, .T. ) ;
#173 = APPLICATION_PROTOCOL_DEFINITION ( 'international standard', 'config_control_design', 1994, #13 ) ;
#174 = PERSON_AND_ORGANIZATION ( #219, #247 ) ;
#175 = PERSON_AND_ORGANIZATION_ROLE ( 'creator' ) ;
#176 = PRODUCT_DEFINITION_SHAPE ( 'NONE', 'NONE',  #95 ) ;
#177 = EDGE_LOOP ( 'NONE', ( #70, #63, #142, #41 ) ) ;
#178 = APPROVAL_STATUS ( 'not_yet_approved' ) ;
#179 = ORIENTED_EDGE ( 'NONE', *, *, #71, .T. ) ;
#180 = DIRECTION ( 'NONE',  ( 0.000000000000000000, 0.000000000000000000, 1.000000000000000000 ) ) ;
#181 = CALENDAR_DATE ( 2026, 10, 8 ) ;
#182 = DIRECTION ( 'NONE',  ( 0.000000000000000000, 1.000000000000000000, 0.000000000000000000 ) ) ;
#183 = LINE ( 'NONE', #90, #60 ) ;
#184 = AXIS2_PLACEMENT_3D ( 'NONE', #14, #127, #16 ) ;
#185 = VECTOR ( 'NONE', #139, 39.37007874015748143 ) ;
#186 = AXIS2_PLACEMENT_3D ( 'NONE', #157, #87, #126 ) ;
#187 = CARTESIAN_POINT ( 'NONE',  ( 0.000000000000000000, 0.000000000000000000, 0.000000000000000000 ) ) ;
#188 = MECHANICAL_CONTEXT ( 'NONE', #13, 'mechanical' ) ;
#189 = DIRECTION ( 'NONE',  ( -0.000000000000000000, -1.000000000000000000, -0.000000000000000000 ) ) ;
#190 = AXIS2_PLACEMENT_3D ( 'NONE', #208, #166, #111 ) ;
#191 = DIRECTION ( 'NONE',  ( 0.000000000000000000, 1.000000000000000000, 0.000000000000000000 ) ) ;
#192 = CARTESIAN_POINT ( 'NONE',  ( 4.821444091131312140E-17, 0.5511811023622047445, 0.3937007874015748254 ) ) ;
#193 = PERSON_AND_ORGANIZATION ( #219, #247 ) ;
#194 = ORIENTED_EDGE ( 'NONE', *, *, #221, .T. ) ;
#195 = DATE_AND_TIME ( #17, #57 ) ;
#196 = PERSON_AND_ORGANIZATION ( #219, #247 ) ;
#197 = DIRECTION ( 'NONE',  ( 0.000000000000000000, 0.000000000000000000, -1.000000000000000000 ) ) ;
#198 = PERSON_AND_ORGANIZATION ( #219, #247 ) ;
#199 = AXIS2_PLACEMENT_3D ( 'NONE', #74, #182, #105 ) ;
#200 = FACE_BOUND ( 'NONE', #107, .T. ) ;
#201 = AXIS2_PLACEMENT_3D ( 'NONE', #238, #245, #67 ) ;
#202 = FACE_OUTER_BOUND ( 'NONE', #177, .T. ) ;
#203 = LINE ( 'NONE', #110, #185 ) ;
#204 = PRODUCT_RELATED_PRODUCT_CATEGORY ( 'detail', '', ( #217 ) ) ;
#205 = CARTESIAN_POINT ( 'NONE',  ( 0.000000000000000000, 0.5511811023622047445, 0.000000000000000000 ) ) ;
#206 = AXIS2_PLACEMENT_3D ( 'NONE', #165, #191, #115 ) ;
#207 = CIRCLE ( 'NONE', #159, 0.3937007874015748254 ) ;
#208 = CARTESIAN_POINT ( 'NONE',  ( 0.000000000000000000, 0.000000000000000000, 0.000000000000000000 ) ) ;
#209 = DATE_AND_TIME ( #229, #137 ) ;
#210 = APPLICATION_PROTOCOL_DEFINITION ( 'international standard', 'config_control_design', 1994, #28 ) ;
#211 = APPROVAL_DATE_TIME ( #209, #158 ) ;
#212 = CIRCLE ( 'NONE', #201, 0.9251968503937009203 ) ;
#213 = ORIENTED_EDGE ( 'NONE', *, *, #172, .F. ) ;
#214 = CARTESIAN_POINT ( 'NONE',  ( 1.133039361415858532E-16, 0.5511811023622047445, 0.9251968503937009203 ) ) ;
#215 = ORIENTED_EDGE ( 'NONE', *, *, #124, .T. ) ;
#216 = APPROVAL_ROLE ( '' ) ;
#217 = PRODUCT ( 'REF_6204_2RS_Bearing', 'REF_6204_2RS_Bearing', '', ( #188 ) ) ;
#218 = DATE_AND_TIME ( #181, #171 ) ;
#219 = PERSON ( 'UNSPECIFIED', 'UNSPECIFIED', 'UNSPECIFIED', ('UNSPECIFIED'), ('UNSPECIFIED'), ('UNSPECIFIED') ) ;
#220 = DATE_TIME_ROLE ( 'creation_date' ) ;
#221 = EDGE_CURVE ( 'NONE', #233, #162, #30, .T. ) ;
#222 = DIRECTION ( 'NONE',  ( 0.000000000000000000, 0.000000000000000000, -1.000000000000000000 ) ) ;
#223 = CARTESIAN_POINT ( 'NONE',  ( 0.000000000000000000, 0.5511811023622047445, 0.000000000000000000 ) ) ;
#224 = DIRECTION ( 'NONE',  ( 0.000000000000000000, 0.000000000000000000, 1.000000000000000000 ) ) ;
#225 = APPROVAL_PERSON_ORGANIZATION ( #193, #54, #216 ) ;
#226 = DIRECTION ( 'NONE',  ( 0.000000000000000000, 1.000000000000000000, 0.000000000000000000 ) ) ;
#227 = CC_DESIGN_DATE_AND_TIME_ASSIGNMENT ( #218, #220, ( #95 ) ) ;
#228 = DIRECTION ( 'NONE',  ( 0.000000000000000000, 1.000000000000000000, 0.000000000000000000 ) ) ;
#229 = CALENDAR_DATE ( 2026, 10, 8 ) ;
#230 = ORIENTED_EDGE ( 'NONE', *, *, #244, .F. ) ;
#231 = ADVANCED_FACE ( 'NONE', ( #169 ), #12, .F. ) ;
#232 = CALENDAR_DATE ( 2026, 10, 8 ) ;
#233 = VERTEX_POINT ( 'NONE', #94 ) ;
#234 = PERSON_AND_ORGANIZATION_ROLE ( 'creator' ) ;
#235 = ORIENTED_EDGE ( 'NONE', *, *, #97, .F. ) ;
#236 = EDGE_LOOP ( 'NONE', ( #230, #83, #179, #123 ) ) ;
#237 = DIRECTION ( 'NONE',  ( 0.000000000000000000, 1.000000000000000000, 0.000000000000000000 ) ) ;
#238 = CARTESIAN_POINT ( 'NONE',  ( 0.000000000000000000, 0.000000000000000000, 0.000000000000000000 ) ) ;
#239 = CC_DESIGN_APPROVAL ( #55, ( #98 ) ) ;
#240 = EDGE_CURVE ( 'NONE', #150, #249, #27, .T. ) ;
#241 = FACE_OUTER_BOUND ( 'NONE', #31, .T. ) ;
#242 = CIRCLE ( 'NONE', #160, 0.3937007874015748254 ) ;
#243 = CYLINDRICAL_SURFACE ( 'NONE', #131, 0.3937007874015748254 ) ;
#244 = EDGE_CURVE ( 'NONE', #3, #150, #38, .T. ) ;
#245 = DIRECTION ( 'NONE',  ( 0.000000000000000000, 1.000000000000000000, 0.000000000000000000 ) ) ;
#246 = LENGTH_MEASURE_WITH_UNIT ( LENGTH_MEASURE( 0.02539999999999999897 ), #99 );
#247 = ORGANIZATION ( 'UNSPECIFIED', 'UNSPECIFIED', '' ) ;
#248 = CARTESIAN_POINT ( 'NONE',  ( 0.000000000000000000, 0.000000000000000000, -0.3937007874015748254 ) ) ;
#249 = VERTEX_POINT ( 'NONE', #248 ) ;
#250 = DIRECTION ( 'NONE',  ( -0.000000000000000000, -1.000000000000000000, -0.000000000000000000 ) ) ;
#251 = VERTEX_POINT ( 'NONE', #81 ) ;
#252 = DATE_TIME_ROLE ( 'classification_date' ) ;
ENDSEC;
END-ISO-10303-21;
