0
SECTION
2
HEADER
9
$INSUNITS
70
4
0
ENDSEC
0
SECTION
2
ENTITIES
0
LINE
8
CUT
10
-120.0000
20
-90.0000
11
120.0000
21
-90.0000
0
LINE
8
CUT
10
120.0000
20
-90.0000
11
120.0000
21
90.0000
0
LINE
8
CUT
10
120.0000
20
90.0000
11
-120.0000
21
90.0000
0
LINE
8
CUT
10
-120.0000
20
90.0000
11
-120.0000
21
-90.0000
0
CIRCLE
8
CUT
10
45.0000
20
0.0000
40
23.5500
0
CIRCLE
8
CUT
10
-45.0000
20
0.0000
40
30.0000
0
CIRCLE
8
CUT
10
-105.0000
20
-75.0000
40
4.2500
0
CIRCLE
8
CUT
10
105.0000
20
-75.0000
40
4.2500
0
CIRCLE
8
CUT
10
-105.0000
20
75.0000
40
4.2500
0
CIRCLE
8
CUT
10
105.0000
20
75.0000
40
4.2500
0
CIRCLE
8
CUT
10
-60.0000
20
-38.0000
40
3.2500
0
CIRCLE
8
CUT
10
-60.0000
20
38.0000
40
3.2500
0
CIRCLE
8
CUT
10
-30.0000
20
-38.0000
40
3.2500
0
CIRCLE
8
CUT
10
-30.0000
20
38.0000
40
3.2500
0
ENDSEC
0
EOF
