0
SECTION
2
HEADER
9
$INSUNITS
70
4
0
ENDSEC
0
SECTION
2
ENTITIES
0
LINE
8
CUT
10
-105.0000
20
-80.0000
11
105.0000
21
-80.0000
0
LINE
8
CUT
10
105.0000
20
-80.0000
11
105.0000
21
80.0000
0
LINE
8
CUT
10
105.0000
20
80.0000
11
-105.0000
21
80.0000
0
LINE
8
CUT
10
-105.0000
20
80.0000
11
-105.0000
21
-80.0000
0
CIRCLE
8
CUT
10
45.0000
20
0.0000
40
23.5500
0
CIRCLE
8
CUT
10
-90.0000
20
-65.0000
40
4.2500
0
CIRCLE
8
CUT
10
90.0000
20
-65.0000
40
4.2500
0
CIRCLE
8
CUT
10
-90.0000
20
65.0000
40
4.2500
0
CIRCLE
8
CUT
10
90.0000
20
65.0000
40
4.2500
0
CIRCLE
8
CUT
10
29.0000
20
-22.0000
40
2.2500
0
CIRCLE
8
CUT
10
61.0000
20
-22.0000
40
2.2500
0
CIRCLE
8
CUT
10
29.0000
20
22.0000
40
2.2500
0
CIRCLE
8
CUT
10
61.0000
20
22.0000
40
2.2500
0
ENDSEC
0
EOF
