0
SECTION
2
HEADER
9
$INSUNITS
70
4
0
ENDSEC
0
SECTION
2
ENTITIES
0
LINE
8
CUT
10
-52.0000
20
-43.0000
11
52.0000
21
-43.0000
0
LINE
8
CUT
10
52.0000
20
-43.0000
11
52.0000
21
43.0000
0
LINE
8
CUT
10
52.0000
20
43.0000
11
-52.0000
21
43.0000
0
LINE
8
CUT
10
-52.0000
20
43.0000
11
-52.0000
21
-43.0000
0
CIRCLE
8
CUT
10
0.0000
20
0.0000
40
30.0000
0
LINE
8
CUT
10
-50.0000
20
-33.2500
11
-38.0000
21
-33.2500
0
LINE
8
CUT
10
-38.0000
20
-33.2500
11
-38.0000
21
-26.7500
0
LINE
8
CUT
10
-38.0000
20
-26.7500
11
-50.0000
21
-26.7500
0
LINE
8
CUT
10
-50.0000
20
-26.7500
11
-50.0000
21
-33.2500
0
LINE
8
CUT
10
-50.0000
20
26.7500
11
-38.0000
21
26.7500
0
LINE
8
CUT
10
-38.0000
20
26.7500
11
-38.0000
21
33.2500
0
LINE
8
CUT
10
-38.0000
20
33.2500
11
-50.0000
21
33.2500
0
LINE
8
CUT
10
-50.0000
20
33.2500
11
-50.0000
21
26.7500
0
LINE
8
CUT
10
38.0000
20
-33.2500
11
50.0000
21
-33.2500
0
LINE
8
CUT
10
50.0000
20
-33.2500
11
50.0000
21
-26.7500
0
LINE
8
CUT
10
50.0000
20
-26.7500
11
38.0000
21
-26.7500
0
LINE
8
CUT
10
38.0000
20
-26.7500
11
38.0000
21
-33.2500
0
LINE
8
CUT
10
38.0000
20
26.7500
11
50.0000
21
26.7500
0
LINE
8
CUT
10
50.0000
20
26.7500
11
50.0000
21
33.2500
0
LINE
8
CUT
10
50.0000
20
33.2500
11
38.0000
21
33.2500
0
LINE
8
CUT
10
38.0000
20
33.2500
11
38.0000
21
26.7500
0
ENDSEC
0
EOF
