0
SECTION
2
HEADER
9
$INSUNITS
70
4
0
ENDSEC
0
SECTION
2
ENTITIES
0
LINE
8
CUT
10
-84.0000
20
-35.0000
11
84.0000
21
-35.0000
0
LINE
8
CUT
10
84.0000
20
-35.0000
11
84.0000
21
35.0000
0
LINE
8
CUT
10
84.0000
20
35.0000
11
-84.0000
21
35.0000
0
LINE
8
CUT
10
-84.0000
20
35.0000
11
-84.0000
21
-35.0000
0
CIRCLE
8
CUT
10
-70.0000
20
-22.0000
40
4.2500
0
CIRCLE
8
CUT
10
70.0000
20
-22.0000
40
4.2500
0
CIRCLE
8
CUT
10
-70.0000
20
22.0000
40
4.2500
0
CIRCLE
8
CUT
10
70.0000
20
22.0000
40
4.2500
0
LINE
8
CUT
10
-44.0000
20
-23.0000
11
44.0000
21
-23.0000
0
LINE
8
CUT
10
44.0000
20
-23.0000
11
44.0000
21
23.0000
0
LINE
8
CUT
10
44.0000
20
23.0000
11
-44.0000
21
23.0000
0
LINE
8
CUT
10
-44.0000
20
23.0000
11
-44.0000
21
-23.0000
0
ENDSEC
0
EOF
