0
SECTION
2
HEADER
9
$INSUNITS
70
4
0
ENDSEC
0
SECTION
2
ENTITIES
0
LINE
8
CUT
10
-32.0000
20
-26.0000
11
32.0000
21
-26.0000
0
LINE
8
CUT
10
32.0000
20
-26.0000
11
32.0000
21
26.0000
0
LINE
8
CUT
10
32.0000
20
26.0000
11
-32.0000
21
26.0000
0
LINE
8
CUT
10
-32.0000
20
26.0000
11
-32.0000
21
-26.0000
0
CIRCLE
8
CUT
10
0.0000
20
0.0000
40
5.0000
0
CIRCLE
8
CUT
10
-22.0000
20
-16.0000
40
2.0000
0
CIRCLE
8
CUT
10
22.0000
20
-16.0000
40
2.0000
0
CIRCLE
8
CUT
10
-22.0000
20
16.0000
40
2.0000
0
CIRCLE
8
CUT
10
22.0000
20
16.0000
40
2.0000
0
ENDSEC
0
EOF
