0
SECTION
2
HEADER
9
$INSUNITS
70
4
0
ENDSEC
0
SECTION
2
ENTITIES
0
LINE
8
CUT
10
-56.0000
20
-17.0000
11
56.0000
21
-17.0000
0
LINE
8
CUT
10
56.0000
20
-17.0000
11
56.0000
21
17.0000
0
LINE
8
CUT
10
56.0000
20
17.0000
11
-56.0000
21
17.0000
0
LINE
8
CUT
10
-56.0000
20
17.0000
11
-56.0000
21
-17.0000
0
CIRCLE
8
CUT
10
-42.0000
20
0.0000
40
4.2500
0
CIRCLE
8
CUT
10
42.0000
20
0.0000
40
4.2500
0
CIRCLE
8
CUT
10
-22.0000
20
0.0000
40
4.2500
0
CIRCLE
8
CUT
10
22.0000
20
0.0000
40
4.2500
0
ENDSEC
0
EOF
