0
SECTION
2
HEADER
9
$INSUNITS
70
4
0
ENDSEC
0
SECTION
2
ENTITIES
0
LINE
8
CUT
10
-35.0000
20
-16.0000
11
35.0000
21
-16.0000
0
LINE
8
CUT
10
35.0000
20
-16.0000
11
35.0000
21
16.0000
0
LINE
8
CUT
10
35.0000
20
16.0000
11
-35.0000
21
16.0000
0
LINE
8
CUT
10
-35.0000
20
16.0000
11
-35.0000
21
-16.0000
0
LINE
8
CUT
10
-24.5000
20
-2.7500
11
-10.5000
21
-2.7500
0
LINE
8
CUT
10
-10.5000
20
-2.7500
11
-10.5000
21
2.7500
0
LINE
8
CUT
10
-10.5000
20
2.7500
11
-24.5000
21
2.7500
0
LINE
8
CUT
10
-24.5000
20
2.7500
11
-24.5000
21
-2.7500
0
LINE
8
CUT
10
10.5000
20
-2.7500
11
24.5000
21
-2.7500
0
LINE
8
CUT
10
24.5000
20
-2.7500
11
24.5000
21
2.7500
0
LINE
8
CUT
10
24.5000
20
2.7500
11
10.5000
21
2.7500
0
LINE
8
CUT
10
10.5000
20
2.7500
11
10.5000
21
-2.7500
0
ENDSEC
0
EOF
